<svg width="30" height="30" viewBox="0 0 30 30" fill="none" xmlns="http://www.w3.org/2000/svg">
<path d="M16.2812 14.625C16.2812 14.125 15.9062 13.7188 15.4688 13.7188C15 13.7188 14.625 14.125 14.625 14.625C14.625 15.0938 15 15.5 15.4688 15.5C15.9062 15.5 16.2812 15.0938 16.2812 14.625ZM12.5312 13.7188C12.0938 13.7188 11.7188 14.125 11.7188 14.625C11.7188 15.0938 12.0938 15.5 12.5312 15.5C13 15.5 13.3438 15.0938 13.3438 14.625C13.375 14.125 13 13.7188 12.5312 13.7188ZM21 8.65625C21 7.75 20.25 7 19.3438 7H8.625C7.71875 7 7 7.75 7 8.65625V19.4688C7 20.4062 7.71875 21.125 8.625 21.125H17.6875L17.2812 19.6562C19.625 21.8125 18.9688 21.25 21 23V8.65625ZM18.7188 16.25C18.7188 16.25 18.0312 17.4062 16.25 17.4688C16.25 17.4688 15.9688 17.125 15.7188 16.8125C16.7812 16.5312 17.1875 15.875 17.1875 15.875C16.8438 16.0938 16.5312 16.2188 16.25 16.3438C14.5312 17.0625 12.625 16.8125 11.25 16.0625C11.25 16.0312 11.0625 15.9375 10.9375 15.8438C10.9375 15.8438 11.3125 16.5 12.3438 16.8125C12.0938 17.0938 11.8125 17.4688 11.8125 17.4688C10.0312 17.4062 9.375 16.25 9.375 16.25C9.375 13.6562 10.5 11.5938 10.5 11.5938C11.6562 10.7188 12.75 10.75 12.75 10.75L12.8438 10.8438C11.4062 11.25 10.75 11.875 10.75 11.875C10.75 11.875 10.9062 11.7812 11.2188 11.6562C13.0625 10.8438 15.2812 10.8438 17.1875 11.875C17.1875 11.875 16.5625 11.2812 15.1875 10.875L15.3125 10.75C15.3125 10.75 16.4062 10.7188 17.5625 11.5938C17.5625 11.5938 18.7188 13.6562 18.7188 16.25Z" fill="#F3F3F3"/>
<rect x="0.5" y="0.5" width="29" height="29" rx="4.5" stroke="#F3F3F3" stroke-opacity="0.2"/>
</svg>
