<svg width="30" height="30" viewBox="0 0 30 30" fill="none" xmlns="http://www.w3.org/2000/svg">
<path d="M22.75 15C22.75 10.7188 19.2812 7.25 15 7.25C10.7188 7.25 7.25 10.7188 7.25 15C7.25 18.875 10.0625 22.0938 13.7812 22.6562V17.25H11.8125V15H13.7812V13.3125C13.7812 11.375 14.9375 10.2812 16.6875 10.2812C17.5625 10.2812 18.4375 10.4375 18.4375 10.4375V12.3438H17.4688C16.5 12.3438 16.1875 12.9375 16.1875 13.5625V15H18.3438L18 17.25H16.1875V22.6562C19.9062 22.0938 22.75 18.875 22.75 15Z" fill="#F3F3F3"/>
<rect x="0.5" y="0.5" width="29" height="29" rx="4.5" stroke="#F3F3F3" stroke-opacity="0.2"/>
</svg>
