<svg width="30" height="30" viewBox="0 0 30 30" fill="none" xmlns="http://www.w3.org/2000/svg">
<path d="M14.75 7.25C10.4688 7.25 7 10.7188 7 15C7 19.2812 10.4688 22.75 14.75 22.75C19.0312 22.75 22.5 19.2812 22.5 15C22.5 10.7188 19.0312 7.25 14.75 7.25ZM18.5312 12.5625L17.2812 18.5625C17.1875 19 16.9375 19.0938 16.5625 18.9062L14.625 17.4688L13.6875 18.375C13.5938 18.4688 13.5 18.5625 13.3125 18.5625L13.4375 16.5938L17.0312 13.3438C17.1875 13.2188 17 13.125 16.7812 13.25L12.3438 16.0625L10.4375 15.4688C10.0312 15.3438 10.0312 15.0312 10.5312 14.8438L18 11.9688C18.3438 11.8438 18.6562 12.0625 18.5312 12.5625Z" fill="#CBFB45"/>
<rect x="0.5" y="0.5" width="29" height="29" rx="4.5" stroke="#F3F3F3" stroke-opacity="0.2"/>
</svg>
