<svg width="30" height="30" viewBox="0 0 30 30" fill="none" xmlns="http://www.w3.org/2000/svg">
<path d="M21.3438 11.75C21.9688 11.2812 22.5312 10.7188 22.9688 10.0625C22.4062 10.3125 21.75 10.5 21.0938 10.5625C21.7812 10.1562 22.2812 9.53125 22.5312 8.75C21.9062 9.125 21.1875 9.40625 20.4688 9.5625C19.8438 8.90625 19 8.53125 18.0625 8.53125C16.25 8.53125 14.7812 10 14.7812 11.8125C14.7812 12.0625 14.8125 12.3125 14.875 12.5625C12.1562 12.4062 9.71875 11.0938 8.09375 9.125C7.8125 9.59375 7.65625 10.1562 7.65625 10.7812C7.65625 11.9062 8.21875 12.9062 9.125 13.5C8.59375 13.4688 8.0625 13.3438 7.625 13.0938V13.125C7.625 14.7188 8.75 16.0312 10.25 16.3438C10 16.4062 9.6875 16.4688 9.40625 16.4688C9.1875 16.4688 9 16.4375 8.78125 16.4062C9.1875 17.7188 10.4062 18.6562 11.8438 18.6875C10.7188 19.5625 9.3125 20.0938 7.78125 20.0938C7.5 20.0938 7.25 20.0625 7 20.0312C8.4375 20.9688 10.1562 21.5 12.0312 21.5C18.0625 21.5 21.3438 16.5312 21.3438 12.1875C21.3438 12.0312 21.3438 11.9062 21.3438 11.75Z" fill="#F3F3F3"/>
<rect x="0.5" y="0.5" width="29" height="29" rx="4.5" stroke="#F3F3F3" stroke-opacity="0.2"/>
</svg>
