<svg width="30" height="30" viewBox="0 0 30 30" fill="none" xmlns="http://www.w3.org/2000/svg">
<path d="M24.1562 10.9062C23.9688 10.1562 23.375 9.5625 22.6562 9.375C21.3125 9 16 9 16 9C16 9 10.6562 9 9.3125 9.375C8.59375 9.5625 8 10.1562 7.8125 10.9062C7.4375 12.2188 7.4375 15.0312 7.4375 15.0312C7.4375 15.0312 7.4375 17.8125 7.8125 19.1562C8 19.9062 8.59375 20.4688 9.3125 20.6562C10.6562 21 16 21 16 21C16 21 21.3125 21 22.6562 20.6562C23.375 20.4688 23.9688 19.9062 24.1562 19.1562C24.5312 17.8125 24.5312 15.0312 24.5312 15.0312C24.5312 15.0312 24.5312 12.2188 24.1562 10.9062ZM14.25 17.5625V12.5L18.6875 15.0312L14.25 17.5625Z" fill="#F3F3F3"/>
<rect x="0.5" y="0.5" width="29" height="29" rx="4.5" stroke="#F3F3F3" stroke-opacity="0.2"/>
</svg>
