<svg width="49" height="62" viewBox="0 0 49 62" fill="none" xmlns="http://www.w3.org/2000/svg">
<path d="M47.7899 7.00039L24.7899 0.000393458C24.5998 -0.0496103 24.4 -0.0496103 24.2099 0.000393458L1.20994 7.00039C0.997359 7.06459 0.812195 7.19771 0.683641 7.37877C0.555086 7.55984 0.490455 7.77854 0.499936 8.00039V32.4604C0.526409 39.3526 2.8957 46.0311 7.21878 51.399C11.5418 56.767 17.5617 60.5054 24.2899 62.0004H24.4999H24.7099C31.4381 60.5054 37.458 56.767 41.7811 51.399C46.1042 46.0311 48.4735 39.3526 48.4999 32.4604V8.00039C48.5094 7.77854 48.4448 7.55984 48.3162 7.37877C48.1877 7.19771 48.0025 7.06459 47.7899 7.00039ZM46.4999 32.4604C46.4743 38.8588 44.2873 45.0607 40.2938 50.0599C36.3003 55.0591 30.7346 58.562 24.4999 60.0004C18.2653 58.562 12.6996 55.0591 8.70609 50.0599C4.71257 45.0607 2.52555 38.8588 2.49994 32.4604V8.74039L24.4999 2.00039L46.4999 8.70039V32.4604Z" fill="#161617"/>
<path opacity="0.5" d="M24.5 2L2.5 8.74V32.46C2.52562 38.8584 4.71263 45.0603 8.70615 50.0595C12.6997 55.0587 18.2653 58.5616 24.5 60C30.7347 58.5616 36.3003 55.0587 40.2938 50.0595C44.2874 45.0603 46.4744 38.8584 46.5 32.46V8.74L24.5 2ZM43.5 32.46C43.4937 38.0171 41.6536 43.4167 38.2652 47.8212C34.8769 52.2257 30.1296 55.3889 24.76 56.82C24.5907 56.873 24.4093 56.873 24.24 56.82C18.8704 55.3889 14.1231 52.2257 10.7348 47.8212C7.34639 43.4167 5.50631 38.0171 5.5 32.46V11.71C5.49052 11.4881 5.55515 11.2694 5.6837 11.0884C5.81226 10.9073 5.99742 10.7742 6.21 10.71L24.21 5.23C24.3991 5.1727 24.6009 5.1727 24.79 5.23L42.79 10.71C43.0026 10.7742 43.1877 10.9073 43.3163 11.0884C43.4449 11.2694 43.5095 11.4881 43.5 11.71V32.46Z" fill="#161617"/>
<path d="M42.7899 10.7504L24.7899 5.27039C24.6008 5.21309 24.399 5.21309 24.2099 5.27039L6.20994 10.7504C5.99736 10.8146 5.8122 10.9477 5.68364 11.1288C5.55509 11.3098 5.49045 11.5285 5.49994 11.7504V32.4604C5.50625 38.0174 7.34633 43.4171 10.7347 47.8216C14.1231 52.2261 18.8703 55.3893 24.2399 56.8204C24.4092 56.8734 24.5907 56.8734 24.7599 56.8204C30.1296 55.3893 34.8768 52.2261 38.2652 47.8216C41.6535 43.4171 43.4936 38.0174 43.4999 32.4604V11.7104C43.5006 11.4953 43.4318 11.2857 43.3039 11.1128C43.176 10.9399 42.9958 10.8128 42.7899 10.7504ZM41.4999 32.4604C41.4941 37.5318 39.8296 42.4621 36.7602 46.4993C33.6908 50.5364 29.3851 53.4587 24.4999 54.8204C19.6147 53.4587 15.309 50.5364 12.2397 46.4993C9.17029 42.4621 7.50574 37.5318 7.49994 32.4604V12.4604L24.4999 7.27039L41.4999 12.4504V32.4604Z" fill="#161617"/>
<path d="M24.5 17C21.7311 17 19.0243 17.8211 16.722 19.3594C14.4197 20.8978 12.6253 23.0843 11.5657 25.6424C10.5061 28.2006 10.2288 31.0155 10.769 33.7313C11.3092 36.447 12.6426 38.9416 14.6005 40.8995C16.5584 42.8574 19.053 44.1908 21.7687 44.731C24.4845 45.2712 27.2994 44.9939 29.8576 43.9343C32.4157 42.8747 34.6022 41.0803 36.1406 38.778C37.6789 36.4757 38.5 33.7689 38.5 31C38.5 27.287 37.025 23.726 34.3995 21.1005C31.774 18.475 28.213 17 24.5 17ZM24.5 43C22.1266 43 19.8066 42.2962 17.8332 40.9776C15.8598 39.6591 14.3217 37.7849 13.4135 35.5922C12.5052 33.3995 12.2676 30.9867 12.7306 28.6589C13.1936 26.3311 14.3365 24.1929 16.0147 22.5147C17.693 20.8365 19.8312 19.6936 22.1589 19.2306C24.4867 18.7676 26.8995 19.0052 29.0922 19.9134C31.2849 20.8217 33.1591 22.3598 34.4776 24.3332C35.7962 26.3065 36.5 28.6266 36.5 31C36.5 34.1826 35.2357 37.2348 32.9853 39.4853C30.7349 41.7357 27.6826 43 24.5 43Z" fill="#161617"/>
<path opacity="0.5" d="M24.5 19C22.1266 19 19.8066 19.7038 17.8332 21.0224C15.8598 22.3409 14.3217 24.2151 13.4135 26.4078C12.5052 28.6005 12.2676 31.0133 12.7306 33.3411C13.1936 35.6689 14.3365 37.8071 16.0147 39.4853C17.693 41.1635 19.8312 42.3064 22.1589 42.7694C24.4867 43.2324 26.8995 42.9948 29.0922 42.0866C31.2849 41.1783 33.1591 39.6402 34.4776 37.6668C35.7962 35.6935 36.5 33.3734 36.5 31C36.5 27.8174 35.2357 24.7652 32.9853 22.5147C30.7349 20.2643 27.6826 19 24.5 19ZM26.5 36V37C26.5 37.2652 26.3946 37.5196 26.2071 37.7071C26.0196 37.8946 25.7652 38 25.5 38C25.2348 38 24.9804 37.8946 24.7929 37.7071C24.6054 37.5196 24.5 37.2652 24.5 37V36H23.5V37C23.5 37.2652 23.3946 37.5196 23.2071 37.7071C23.0196 37.8946 22.7652 38 22.5 38C22.2348 38 21.9804 37.8946 21.7929 37.7071C21.6054 37.5196 21.5 37.2652 21.5 37V36H20.5C20.2348 36 19.9804 35.8946 19.7929 35.7071C19.6054 35.5196 19.5 35.2652 19.5 35C19.5 34.7348 19.6054 34.4804 19.7929 34.2929C19.9804 34.1054 20.2348 34 20.5 34V28C20.2348 28 19.9804 27.8946 19.7929 27.7071C19.6054 27.5196 19.5 27.2652 19.5 27C19.5 26.7348 19.6054 26.4804 19.7929 26.2929C19.9804 26.1054 20.2348 26 20.5 26H21.5V25C21.5 24.7348 21.6054 24.4804 21.7929 24.2929C21.9804 24.1054 22.2348 24 22.5 24C22.7652 24 23.0196 24.1054 23.2071 24.2929C23.3946 24.4804 23.5 24.7348 23.5 25V26H24.5V25C24.5 24.7348 24.6054 24.4804 24.7929 24.2929C24.9804 24.1054 25.2348 24 25.5 24C25.7652 24 26.0196 24.1054 26.2071 24.2929C26.3946 24.4804 26.5 24.7348 26.5 25V26.18C27.0836 26.3863 27.589 26.7681 27.9471 27.2729C28.3051 27.7778 28.4983 28.3811 28.5 29C28.4988 29.5141 28.3682 30.0197 28.12 30.47C28.668 30.8192 29.0879 31.3369 29.3163 31.9453C29.5448 32.5537 29.5695 33.2198 29.3869 33.8434C29.2042 34.467 28.8239 35.0145 28.3033 35.4034C27.7827 35.7923 27.1498 36.0017 26.5 36Z" fill="#161617"/>
<path opacity="0.5" d="M26.5 29C26.5 29.2652 26.3946 29.5196 26.2071 29.7071C26.0196 29.8946 25.7652 30 25.5 30H22.5V28H25.5C25.7652 28 26.0196 28.1054 26.2071 28.2929C26.3946 28.4804 26.5 28.7348 26.5 29Z" fill="#161617"/>
<path opacity="0.5" d="M27.5 33C27.5 33.2652 27.3946 33.5196 27.2071 33.7071C27.0196 33.8946 26.7652 34 26.5 34H22.5V32H26.5C26.7652 32 27.0196 32.1054 27.2071 32.2929C27.3946 32.4804 27.5 32.7348 27.5 33Z" fill="#161617"/>
</svg>
