<svg width="36" height="36" viewBox="0 0 36 36" fill="none" xmlns="http://www.w3.org/2000/svg">
<g clip-path="url(#clip0_356_2378)">
<path d="M30.1564 16.7983C29.8727 13.8886 28.5548 11.1773 26.4422 9.1566C24.3295 7.13594 21.5622 5.94005 18.6428 5.78613H17.9999H17.3571C14.2112 5.95913 11.2538 7.34109 9.10279 9.64328C8.72035 10.0455 8.36798 10.4752 8.0485 10.929C6.63711 12.8977 5.84885 15.2446 5.78564 17.6661C5.78564 17.7754 5.78564 17.8911 5.78564 18.0004C5.78564 18.4054 5.78564 18.8104 5.8435 19.2026C6.12717 22.1122 7.44503 24.8236 9.55769 26.8442C11.6704 28.8649 14.4377 30.0608 17.3571 30.2147H17.9999H18.6428C21.7887 30.0417 24.7461 28.6598 26.8971 26.3576C27.2795 25.9554 27.6319 25.5257 27.9514 25.0718C29.3628 23.1031 30.151 20.7562 30.2142 18.3347C30.2142 18.2254 30.2142 18.1097 30.2142 18.0004C30.2142 17.5954 30.2142 17.1904 30.1564 16.7983ZM17.9999 28.929C15.8385 28.929 13.7255 28.288 11.9283 27.0872C10.1311 25.8863 8.7304 24.1795 7.90325 22.1826C7.07609 20.1857 6.85967 17.9883 7.28135 15.8684C7.70303 13.7484 8.74388 11.8011 10.2723 10.2728C11.8007 8.74436 13.7479 7.70352 15.8679 7.28184C17.9878 6.86016 20.1852 7.07658 22.1821 7.90374C24.1791 8.73089 25.8859 10.1316 27.0867 11.9288C28.2876 13.726 28.9285 15.839 28.9285 18.0004C28.9285 20.8989 27.7771 23.6786 25.7276 25.7281C23.6781 27.7776 20.8984 28.929 17.9999 28.929Z" fill="#CBFB45"/>
<path d="M30.1564 16.7983C29.8727 13.8886 28.5548 11.1773 26.4422 9.1566C24.3295 7.13594 21.5622 5.94005 18.6428 5.78613H17.9999H17.3571C14.2112 5.95913 11.2538 7.34109 9.10279 9.64328C8.72035 10.0455 8.36798 10.4752 8.0485 10.929C6.63711 12.8977 5.84885 15.2446 5.78564 17.6661C5.78564 17.7754 5.78564 17.8911 5.78564 18.0004C5.78564 18.4054 5.78564 18.8104 5.8435 19.2026C6.12717 22.1122 7.44503 24.8236 9.55769 26.8442C11.6704 28.8649 14.4377 30.0608 17.3571 30.2147H17.9999H18.6428C21.7887 30.0417 24.7461 28.6598 26.8971 26.3576C27.2795 25.9554 27.6319 25.5257 27.9514 25.0718C29.3628 23.1031 30.151 20.7562 30.2142 18.3347C30.2142 18.2254 30.2142 18.1097 30.2142 18.0004C30.2142 17.5954 30.2142 17.1904 30.1564 16.7983ZM17.9999 28.929C15.8385 28.929 13.7255 28.288 11.9283 27.0872C10.1311 25.8863 8.7304 24.1795 7.90325 22.1826C7.07609 20.1857 6.85967 17.9883 7.28135 15.8684C7.70303 13.7484 8.74388 11.8011 10.2723 10.2728C11.8007 8.74436 13.7479 7.70352 15.8679 7.28184C17.9878 6.86016 20.1852 7.07658 22.1821 7.90374C24.1791 8.73089 25.8859 10.1316 27.0867 11.9288C28.2876 13.726 28.9285 15.839 28.9285 18.0004C28.9285 20.8989 27.7771 23.6786 25.7276 25.7281C23.6781 27.7776 20.8984 28.929 17.9999 28.929Z" fill="#CBFB45"/>
<g opacity="0.5">
<path opacity="0.5" d="M19.0029 15.4286H16.0714V17.3571H19.0029C19.2479 17.3555 19.4823 17.2574 19.6556 17.0841C19.8288 16.9109 19.9269 16.6764 19.9286 16.4314V16.3543C19.9269 16.1093 19.8288 15.8748 19.6556 15.7016C19.4823 15.5283 19.2479 15.4303 19.0029 15.4286ZM19.0029 15.4286H16.0714V17.3571H19.0029C19.2479 17.3555 19.4823 17.2574 19.6556 17.0841C19.8288 16.9109 19.9269 16.6764 19.9286 16.4314V16.3543C19.9269 16.1093 19.8288 15.8748 19.6556 15.7016C19.4823 15.5283 19.2479 15.4303 19.0029 15.4286ZM19.0029 15.4286H16.0714V17.3571H19.0029C19.2479 17.3555 19.4823 17.2574 19.6556 17.0841C19.8288 16.9109 19.9269 16.6764 19.9286 16.4314V16.3543C19.9269 16.1093 19.8288 15.8748 19.6556 15.7016C19.4823 15.5283 19.2479 15.4303 19.0029 15.4286ZM19.6071 18.6429H16.0714V20.5714H19.6071C19.8629 20.5714 20.1082 20.4698 20.289 20.289C20.4698 20.1082 20.5714 19.8629 20.5714 19.6071C20.5714 19.3514 20.4698 19.1061 20.289 18.9253C20.1082 18.7445 19.8629 18.6429 19.6071 18.6429ZM19.6071 18.6429H16.0714V20.5714H19.6071C19.8629 20.5714 20.1082 20.4698 20.289 20.289C20.4698 20.1082 20.5714 19.8629 20.5714 19.6071C20.5714 19.3514 20.4698 19.1061 20.289 18.9253C20.1082 18.7445 19.8629 18.6429 19.6071 18.6429ZM19.0029 15.4286H16.0714V17.3571H19.0029C19.2479 17.3555 19.4823 17.2574 19.6556 17.0841C19.8288 16.9109 19.9269 16.6764 19.9286 16.4314V16.3543C19.9269 16.1093 19.8288 15.8748 19.6556 15.7016C19.4823 15.5283 19.2479 15.4303 19.0029 15.4286ZM19.9286 16.4314V16.3543C19.9269 16.1093 19.8288 15.8748 19.6556 15.7016C19.4823 15.5283 19.2479 15.4303 19.0029 15.4286H16.0714V17.3571H19.0029C19.2479 17.3555 19.4823 17.2574 19.6556 17.0841C19.8288 16.9109 19.9269 16.6764 19.9286 16.4314ZM19.6071 18.6429H16.0714V20.5714H19.6071C19.8629 20.5714 20.1082 20.4698 20.289 20.289C20.4698 20.1082 20.5714 19.8629 20.5714 19.6071C20.5714 19.3514 20.4698 19.1061 20.289 18.9253C20.1082 18.7445 19.8629 18.6429 19.6071 18.6429ZM18 9C16.22 9 14.4799 9.52784 12.9999 10.5168C11.5198 11.5057 10.3663 12.9113 9.68509 14.5558C9.0039 16.2004 8.82567 18.01 9.17294 19.7558C9.5202 21.5016 10.3774 23.1053 11.636 24.364C12.8947 25.6226 14.4984 26.4798 16.2442 26.8271C17.99 27.1743 19.7996 26.9961 21.4442 26.3149C23.0887 25.6337 24.4943 24.4802 25.4832 23.0001C26.4722 21.5201 27 19.78 27 18C27 15.6131 26.0518 13.3239 24.364 11.636C22.6761 9.94821 20.387 9 18 9ZM19.6071 21.8571H19.2857V22.5C19.2857 22.6705 19.218 22.834 19.0974 22.9546C18.9769 23.0751 18.8134 23.1429 18.6429 23.1429C18.4724 23.1429 18.3089 23.0751 18.1883 22.9546C18.0677 22.834 18 22.6705 18 22.5V21.8571H16.7143V22.5C16.7143 22.6705 16.6466 22.834 16.526 22.9546C16.4054 23.0751 16.2419 23.1429 16.0714 23.1429C15.9009 23.1429 15.7374 23.0751 15.6169 22.9546C15.4963 22.834 15.4286 22.6705 15.4286 22.5V21.8571H14.7857C14.6152 21.8571 14.4517 21.7894 14.3311 21.6689C14.2106 21.5483 14.1429 21.3848 14.1429 21.2143C14.1429 21.0438 14.2106 20.8803 14.3311 20.7597C14.4517 20.6392 14.6152 20.5714 14.7857 20.5714V15.4286C14.6152 15.4286 14.4517 15.3608 14.3311 15.2403C14.2106 15.1197 14.1429 14.9562 14.1429 14.7857C14.1429 14.6152 14.2106 14.4517 14.3311 14.3311C14.4517 14.2106 14.6152 14.1429 14.7857 14.1429H15.4286V13.5C15.4286 13.3295 15.4963 13.166 15.6169 13.0454C15.7374 12.9249 15.9009 12.8571 16.0714 12.8571C16.2419 12.8571 16.4054 12.9249 16.526 13.0454C16.6466 13.166 16.7143 13.3295 16.7143 13.5V14.1429H18V13.5C18 13.3295 18.0677 13.166 18.1883 13.0454C18.3089 12.9249 18.4724 12.8571 18.6429 12.8571C18.8134 12.8571 18.9769 12.9249 19.0974 13.0454C19.218 13.166 19.2857 13.3295 19.2857 13.5V14.1429C19.8186 14.2116 20.3083 14.472 20.6632 14.8754C21.0181 15.2788 21.214 15.7977 21.2143 16.335V16.4121C21.2185 16.8737 21.0743 17.3245 20.8029 17.6979C21.1282 17.8983 21.3962 18.1794 21.5809 18.5139C21.7656 18.8485 21.8608 19.225 21.8571 19.6071C21.8571 20.2039 21.6201 20.7762 21.1981 21.1981C20.7762 21.6201 20.2039 21.8571 19.6071 21.8571ZM19.9286 16.4314V16.3543C19.9269 16.1093 19.8288 15.8748 19.6556 15.7016C19.4823 15.5283 19.2479 15.4303 19.0029 15.4286H16.0714V17.3571H19.0029C19.2479 17.3555 19.4823 17.2574 19.6556 17.0841C19.8288 16.9109 19.9269 16.6764 19.9286 16.4314ZM19.6071 18.6429H16.0714V20.5714H19.6071C19.8629 20.5714 20.1082 20.4698 20.289 20.289C20.4698 20.1082 20.5714 19.8629 20.5714 19.6071C20.5714 19.3514 20.4698 19.1061 20.289 18.9253C20.1082 18.7445 19.8629 18.6429 19.6071 18.6429ZM19.6071 18.6429H16.0714V20.5714H19.6071C19.8629 20.5714 20.1082 20.4698 20.289 20.289C20.4698 20.1082 20.5714 19.8629 20.5714 19.6071C20.5714 19.3514 20.4698 19.1061 20.289 18.9253C20.1082 18.7445 19.8629 18.6429 19.6071 18.6429ZM19.0029 15.4286H16.0714V17.3571H19.0029C19.2479 17.3555 19.4823 17.2574 19.6556 17.0841C19.8288 16.9109 19.9269 16.6764 19.9286 16.4314V16.3543C19.9269 16.1093 19.8288 15.8748 19.6556 15.7016C19.4823 15.5283 19.2479 15.4303 19.0029 15.4286ZM19.0029 15.4286H16.0714V17.3571H19.0029C19.2479 17.3555 19.4823 17.2574 19.6556 17.0841C19.8288 16.9109 19.9269 16.6764 19.9286 16.4314V16.3543C19.9269 16.1093 19.8288 15.8748 19.6556 15.7016C19.4823 15.5283 19.2479 15.4303 19.0029 15.4286ZM19.6071 18.6429H16.0714V20.5714H19.6071C19.8629 20.5714 20.1082 20.4698 20.289 20.289C20.4698 20.1082 20.5714 19.8629 20.5714 19.6071C20.5714 19.3514 20.4698 19.1061 20.289 18.9253C20.1082 18.7445 19.8629 18.6429 19.6071 18.6429ZM19.0029 15.4286H16.0714V17.3571H19.0029C19.2479 17.3555 19.4823 17.2574 19.6556 17.0841C19.8288 16.9109 19.9269 16.6764 19.9286 16.4314V16.3543C19.9269 16.1093 19.8288 15.8748 19.6556 15.7016C19.4823 15.5283 19.2479 15.4303 19.0029 15.4286ZM19.0029 15.4286H16.0714V17.3571H19.0029C19.2479 17.3555 19.4823 17.2574 19.6556 17.0841C19.8288 16.9109 19.9269 16.6764 19.9286 16.4314V16.3543C19.9269 16.1093 19.8288 15.8748 19.6556 15.7016C19.4823 15.5283 19.2479 15.4303 19.0029 15.4286Z" fill="#CBFB45"/>
</g>
<g opacity="0.5">
<path opacity="0.5" d="M18.0003 7.07185C17.8298 7.07185 17.6663 7.00412 17.5457 6.88356C17.4252 6.763 17.3574 6.59949 17.3574 6.42899V1.92899C17.3574 1.75849 17.4252 1.59498 17.5457 1.47442C17.6663 1.35386 17.8298 1.28613 18.0003 1.28613H23.786C23.9565 1.28613 24.12 1.35386 24.2406 1.47442C24.3611 1.59498 24.4288 1.75849 24.4288 1.92899C24.4288 2.09949 24.3611 2.263 24.2406 2.38356C24.12 2.50412 23.9565 2.57185 23.786 2.57185H18.6431V6.42899C18.6431 6.59949 18.5754 6.763 18.4548 6.88356C18.3343 7.00412 18.1708 7.07185 18.0003 7.07185Z" fill="#CBFB45"/>
</g>
<path d="M25.0712 7.60392e-06C24.6733 0.00112586 24.2855 0.125287 23.9609 0.355468C23.6364 0.585649 23.391 0.910583 23.2583 1.28572C23.1804 1.49104 23.1412 1.70899 23.1426 1.92858C23.1412 2.14817 23.1804 2.36612 23.2583 2.57144C23.3763 2.905 23.5837 3.1997 23.8579 3.42327C24.1321 3.64684 24.4625 3.79068 24.813 3.83904C25.1635 3.8874 25.5205 3.83842 25.845 3.69746C26.1695 3.55649 26.449 3.32898 26.6528 3.03982C26.8567 2.75066 26.9771 2.41099 27.0008 2.05799C27.0246 1.70499 26.9507 1.35225 26.7874 1.0384C26.6241 0.724543 26.3776 0.461657 26.0749 0.27851C25.7722 0.0953632 25.425 -0.000985738 25.0712 7.60392e-06ZM25.0712 2.57144C24.944 2.57144 24.8198 2.53373 24.714 2.4631C24.6083 2.39246 24.5259 2.29206 24.4773 2.17459C24.4286 2.05712 24.4159 1.92787 24.4407 1.80316C24.4655 1.67846 24.5267 1.56392 24.6166 1.47401C24.7065 1.38411 24.8211 1.32288 24.9458 1.29807C25.0705 1.27327 25.1997 1.286 25.3172 1.33466C25.4347 1.38331 25.5351 1.46571 25.6057 1.57143C25.6763 1.67714 25.714 1.80143 25.714 1.92858C25.714 2.09908 25.6463 2.26259 25.5258 2.38315C25.4052 2.50371 25.2417 2.57144 25.0712 2.57144Z" fill="#CBFB45"/>
<g opacity="0.5">
<path opacity="0.5" d="M17.9999 34.7144H12.2141C12.0436 34.7144 11.8801 34.6467 11.7596 34.5261C11.639 34.4056 11.5713 34.2421 11.5713 34.0716C11.5713 33.9011 11.639 33.7376 11.7596 33.617C11.8801 33.4964 12.0436 33.4287 12.2141 33.4287H17.357V29.5716C17.357 29.4011 17.4247 29.2376 17.5453 29.117C17.6659 28.9964 17.8294 28.9287 17.9999 28.9287C18.1704 28.9287 18.3339 28.9964 18.4544 29.117C18.575 29.2376 18.6427 29.4011 18.6427 29.5716V34.0716C18.6427 34.2421 18.575 34.4056 18.4544 34.5261C18.3339 34.6467 18.1704 34.7144 17.9999 34.7144Z" fill="#CBFB45"/>
</g>
<path d="M12.7415 33.4283C12.5898 32.9994 12.2914 32.6379 11.899 32.4077C11.5066 32.1775 11.0455 32.0934 10.5971 32.1704C10.1487 32.2473 9.74193 32.4803 9.44869 32.8281C9.15546 33.1759 8.99463 33.6162 8.99463 34.0712C8.99463 34.5261 9.15546 34.9664 9.44869 35.3142C9.74193 35.6621 10.1487 35.895 10.5971 35.972C11.0455 36.0489 11.5066 35.9648 11.899 35.7346C12.2914 35.5044 12.5898 35.1429 12.7415 34.714C12.8956 34.2993 12.8956 33.843 12.7415 33.4283ZM10.9286 34.714C10.8015 34.714 10.6772 34.6763 10.5715 34.6057C10.4657 34.535 10.3834 34.4346 10.3347 34.3172C10.286 34.1997 10.2733 34.0704 10.2981 33.9457C10.3229 33.821 10.3841 33.7065 10.474 33.6166C10.564 33.5267 10.6785 33.4655 10.8032 33.4406C10.9279 33.4158 11.0572 33.4286 11.1746 33.4772C11.2921 33.5259 11.3925 33.6083 11.4631 33.714C11.5338 33.8197 11.5715 33.944 11.5715 34.0712C11.5715 34.2417 11.5037 34.4052 11.3832 34.5257C11.2626 34.6463 11.0991 34.714 10.9286 34.714Z" fill="#CBFB45"/>
<path d="M32.1425 1.92871C31.631 1.92871 31.1405 2.1319 30.7788 2.49358C30.4171 2.85525 30.2139 3.34579 30.2139 3.85728C30.2113 4.14307 30.2774 4.4253 30.4068 4.68014C30.5922 5.08376 30.916 5.40761 31.3197 5.593C31.5745 5.72238 31.8567 5.78853 32.1425 5.78585C32.654 5.78585 33.1445 5.58267 33.5062 5.22099C33.8679 4.85931 34.0711 4.36877 34.0711 3.85728C34.0711 3.34579 33.8679 2.85525 33.5062 2.49358C33.1445 2.1319 32.654 1.92871 32.1425 1.92871ZM32.1425 4.50014C31.9863 4.49991 31.8354 4.44278 31.7182 4.33942L31.6604 4.28157C31.557 4.16437 31.4999 4.01354 31.4997 3.85728C31.4997 3.73014 31.5374 3.60585 31.608 3.50013C31.6786 3.39441 31.779 3.31202 31.8965 3.26336C32.014 3.2147 32.1432 3.20197 32.2679 3.22678C32.3926 3.25158 32.5072 3.31281 32.5971 3.40271C32.687 3.49262 32.7482 3.60716 32.773 3.73187C32.7978 3.85657 32.7851 3.98583 32.7364 4.10329C32.6878 4.22076 32.6054 4.32116 32.4997 4.3918C32.3939 4.46244 32.2697 4.50014 32.1425 4.50014Z" fill="#CBFB45"/>
<g opacity="0.5">
<path opacity="0.5" d="M26.1834 10.4594C26.0975 10.4633 26.0118 10.4499 25.9311 10.4201C25.8505 10.3903 25.7767 10.3446 25.7141 10.2858C25.6538 10.226 25.606 10.1549 25.5734 10.0766C25.5407 9.99826 25.5239 9.91423 25.5239 9.82937C25.5239 9.7445 25.5407 9.66048 25.5734 9.58214C25.606 9.5038 25.6538 9.4327 25.7141 9.37294L30.7798 4.30722C30.8397 4.24728 30.9109 4.19974 30.9892 4.1673C31.0675 4.13486 31.1515 4.11816 31.2362 4.11816C31.321 4.11816 31.4049 4.13486 31.4832 4.1673C31.5616 4.19974 31.6327 4.24728 31.6927 4.30722C31.7526 4.36716 31.8001 4.43832 31.8326 4.51663C31.865 4.59495 31.8817 4.67888 31.8817 4.76365C31.8817 4.84842 31.865 4.93235 31.8326 5.01067C31.8001 5.08898 31.7526 5.16014 31.6927 5.22008L26.6398 10.2858C26.5164 10.4014 26.3524 10.4638 26.1834 10.4594Z" fill="#CBFB45"/>
</g>
<path d="M5.593 31.3197C5.40761 30.916 5.08376 30.5922 4.68014 30.4068C4.42531 30.2774 4.14307 30.2113 3.85728 30.2139C3.47585 30.2139 3.10298 30.3271 2.78583 30.539C2.46867 30.7509 2.22148 31.0521 2.07552 31.4045C1.92955 31.7569 1.89135 32.1447 1.96577 32.5188C2.04018 32.8929 2.22386 33.2365 2.49358 33.5062C2.76329 33.7759 3.10693 33.9596 3.48104 34.034C3.85514 34.1084 4.24292 34.0703 4.59532 33.9243C4.94772 33.7783 5.24892 33.5311 5.46083 33.214C5.67275 32.8968 5.78585 32.524 5.78585 32.1425C5.78853 31.8567 5.72238 31.5745 5.593 31.3197ZM3.85728 32.7854C3.68679 32.7854 3.52327 32.7176 3.40271 32.5971C3.28216 32.4765 3.21443 32.313 3.21443 32.1425C3.21443 31.972 3.28216 31.8085 3.40271 31.6879C3.52327 31.5674 3.68679 31.4997 3.85728 31.4997C4.01354 31.4999 4.16437 31.557 4.28157 31.6604C4.35014 31.7206 4.4051 31.7948 4.44279 31.8779C4.48047 31.961 4.50002 32.0512 4.50014 32.1425C4.50014 32.313 4.43241 32.4765 4.31185 32.5971C4.19129 32.7176 4.02778 32.7854 3.85728 32.7854Z" fill="#CBFB45"/>
<g opacity="0.5">
<path opacity="0.5" d="M4.76377 31.8792C4.67917 31.8797 4.5953 31.8635 4.51698 31.8315C4.43865 31.7995 4.36741 31.7523 4.30734 31.6928C4.24709 31.633 4.19926 31.5619 4.16663 31.4836C4.13399 31.4052 4.11719 31.3212 4.11719 31.2363C4.11719 31.1515 4.13399 31.0674 4.16663 30.9891C4.19926 30.9108 4.24709 30.8397 4.30734 30.7799L9.3602 25.7142C9.48296 25.5914 9.64945 25.5225 9.82306 25.5225C9.99666 25.5225 10.1632 25.5914 10.2859 25.7142C10.4087 25.8369 10.4776 26.0034 10.4776 26.177C10.4776 26.3506 10.4087 26.5171 10.2859 26.6399L5.2202 31.6928C5.16013 31.7523 5.08889 31.7995 5.01057 31.8315C4.93225 31.8635 4.84838 31.8797 4.76377 31.8792Z" fill="#CBFB45"/>
</g>
<g opacity="0.5">
<path opacity="0.5" d="M9.37929 10.9284H5.14286C4.97236 10.9284 4.80885 10.8607 4.68829 10.7401C4.56773 10.6196 4.5 10.4561 4.5 10.2856V3.21415C4.5 3.04365 4.56773 2.88014 4.68829 2.75958C4.80885 2.63902 4.97236 2.57129 5.14286 2.57129C5.31335 2.57129 5.47687 2.63902 5.59743 2.75958C5.71798 2.88014 5.78571 3.04365 5.78571 3.21415V9.64272H9.37929C9.54978 9.64272 9.71329 9.71045 9.83385 9.83101C9.95441 9.95157 10.0221 10.1151 10.0221 10.2856C10.0221 10.4561 9.95441 10.6196 9.83385 10.7401C9.71329 10.8607 9.54978 10.9284 9.37929 10.9284Z" fill="#CBFB45"/>
</g>
<path d="M5.14262 0C4.69034 0.00350895 4.25368 0.165866 3.90898 0.458688C3.56427 0.751511 3.33345 1.15617 3.25686 1.60193C3.18027 2.04769 3.26278 2.50619 3.48998 2.89727C3.71717 3.28836 4.07459 3.58716 4.49976 3.74143C4.91447 3.89559 5.37077 3.89559 5.78547 3.74143C6.21064 3.58716 6.56806 3.28836 6.79526 2.89727C7.02245 2.50619 7.10496 2.04769 7.02837 1.60193C6.95178 1.15617 6.72096 0.751511 6.37626 0.458688C6.03155 0.165866 5.59489 0.00350895 5.14262 0ZM5.14262 2.57143C5.01547 2.57143 4.89118 2.53373 4.78546 2.46309C4.67975 2.39245 4.59735 2.29205 4.54869 2.17458C4.50004 2.05712 4.48731 1.92786 4.51211 1.80316C4.53692 1.67845 4.59814 1.56391 4.68805 1.474C4.77795 1.3841 4.8925 1.32287 5.0172 1.29807C5.1419 1.27326 5.27116 1.28599 5.38863 1.33465C5.50609 1.38331 5.6065 1.4657 5.67713 1.57142C5.74777 1.67714 5.78547 1.80143 5.78547 1.92857C5.78547 2.09907 5.71774 2.26258 5.59719 2.38314C5.47663 2.5037 5.31311 2.57143 5.14262 2.57143Z" fill="#CBFB45"/>
<g opacity="0.5">
<path opacity="0.5" d="M30.8568 33.4284C30.6863 33.4284 30.5228 33.3607 30.4023 33.2401C30.2817 33.1196 30.214 32.9561 30.214 32.7856V26.357H26.6204C26.4499 26.357 26.2864 26.2893 26.1658 26.1687C26.0453 26.0482 25.9775 25.8846 25.9775 25.7141C25.9775 25.5436 26.0453 25.3801 26.1658 25.2596C26.2864 25.139 26.4499 25.0713 26.6204 25.0713H30.8568C31.0273 25.0713 31.1908 25.139 31.3114 25.2596C31.432 25.3801 31.4997 25.5436 31.4997 25.7141V32.7856C31.4997 32.9561 31.432 33.1196 31.3114 33.2401C31.1908 33.3607 31.0273 33.4284 30.8568 33.4284Z" fill="#CBFB45"/>
</g>
<path d="M31.5001 32.2582C31.0854 32.104 30.6291 32.104 30.2144 32.2582C29.7855 32.4098 29.424 32.7082 29.1938 33.1006C28.9636 33.4931 28.8796 33.9542 28.9565 34.4026C29.0334 34.851 29.2664 35.2577 29.6142 35.551C29.962 35.8442 30.4023 36.005 30.8573 36.005C31.3122 36.005 31.7525 35.8442 32.1004 35.551C32.4482 35.2577 32.6812 34.851 32.7581 34.4026C32.835 33.9542 32.751 33.4931 32.5208 33.1006C32.2906 32.7082 31.9291 32.4098 31.5001 32.2582ZM30.8573 34.7139C30.7301 34.7139 30.6059 34.6762 30.5001 34.6056C30.3944 34.5349 30.312 34.4345 30.2634 34.3171C30.2147 34.1996 30.202 34.0703 30.2268 33.9456C30.2516 33.8209 30.3128 33.7064 30.4027 33.6165C30.4926 33.5266 30.6072 33.4654 30.7319 33.4406C30.8566 33.4157 30.9858 33.4285 31.1033 33.4771C31.2208 33.5258 31.3212 33.6082 31.3918 33.7139C31.4624 33.8196 31.5001 33.9439 31.5001 34.0711C31.5001 34.2416 31.4324 34.4051 31.3119 34.5256C31.1913 34.6462 31.0278 34.7139 30.8573 34.7139Z" fill="#CBFB45"/>
<path d="M2.57143 22.6158C2.36611 22.5379 2.14816 22.4986 1.92858 22.5C1.70899 22.4986 1.49104 22.5379 1.28572 22.6158C0.856795 22.7674 0.495291 23.0658 0.265098 23.4582C0.0349055 23.8506 -0.0491534 24.3118 0.0277782 24.7601C0.10471 25.2085 0.337678 25.6153 0.685508 25.9085C1.03334 26.2018 1.47363 26.3626 1.92858 26.3626C2.38352 26.3626 2.82381 26.2018 3.17164 25.9085C3.51947 25.6153 3.75244 25.2085 3.82937 24.7601C3.9063 24.3118 3.82225 23.8506 3.59205 23.4582C3.36186 23.0658 3.00036 22.7674 2.57143 22.6158ZM1.92858 25.0715C1.80143 25.0715 1.67714 25.0338 1.57142 24.9631C1.46571 24.8925 1.38331 24.7921 1.33465 24.6746C1.286 24.5571 1.27327 24.4279 1.29807 24.3032C1.32288 24.1785 1.3841 24.0639 1.47401 23.974C1.56391 23.8841 1.67846 23.8229 1.80316 23.7981C1.92786 23.7733 2.05712 23.786 2.17459 23.8347C2.29205 23.8833 2.39245 23.9657 2.46309 24.0715C2.53373 24.1772 2.57143 24.3015 2.57143 24.4286C2.57143 24.5991 2.5037 24.7626 2.38314 24.8832C2.26259 25.0037 2.09907 25.0715 1.92858 25.0715Z" fill="#CBFB45"/>
<g opacity="0.5">
<path opacity="0.5" d="M1.9285 23.7858C1.75801 23.7858 1.59449 23.7181 1.47393 23.5975C1.35337 23.477 1.28564 23.3134 1.28564 23.143V21.2144C1.28612 21.1124 1.31085 21.012 1.3578 20.9214C1.40474 20.8309 1.47256 20.7528 1.55564 20.6937L6.05564 17.4794C6.19405 17.3974 6.35816 17.3703 6.51557 17.4034C6.67299 17.4365 6.81226 17.5275 6.90591 17.6582C6.99956 17.789 7.04078 17.9502 7.02142 18.1099C7.00207 18.2696 6.92354 18.4162 6.80136 18.5208L2.57136 21.5422V23.143C2.57136 23.3134 2.50363 23.477 2.38307 23.5975C2.26251 23.7181 2.099 23.7858 1.9285 23.7858Z" fill="#CBFB45"/>
</g>
<path d="M34.0713 9.64258C33.6191 9.64609 33.1824 9.80844 32.8377 10.1013C32.493 10.3941 32.2622 10.7987 32.1856 11.2445C32.109 11.6903 32.1915 12.1488 32.4187 12.5399C32.6459 12.9309 33.0033 13.2297 33.4285 13.384C33.8432 13.5382 34.2995 13.5382 34.7142 13.384C35.1394 13.2297 35.4968 12.9309 35.724 12.5399C35.9512 12.1488 36.0337 11.6903 35.9571 11.2445C35.8805 10.7987 35.6497 10.3941 35.305 10.1013C34.9603 9.80844 34.5236 9.64609 34.0713 9.64258ZM34.0713 12.214C33.9442 12.214 33.8199 12.1763 33.7142 12.1057C33.6085 12.035 33.5261 11.9346 33.4774 11.8172C33.4288 11.6997 33.416 11.5704 33.4408 11.4457C33.4656 11.321 33.5269 11.2065 33.6168 11.1166C33.7067 11.0267 33.8212 10.9654 33.9459 10.9406C34.0706 10.9158 34.1999 10.9286 34.3173 10.9772C34.4348 11.0259 34.5352 11.1083 34.6058 11.214C34.6765 11.3197 34.7142 11.444 34.7142 11.5711C34.7142 11.7416 34.6465 11.9052 34.5259 12.0257C34.4053 12.1463 34.2418 12.214 34.0713 12.214Z" fill="#CBFB45"/>
<g opacity="0.5">
<path opacity="0.5" d="M29.5714 18.6424C29.4359 18.6416 29.3041 18.5979 29.1949 18.5177C29.0857 18.4375 29.0046 18.3248 28.9633 18.1958C28.9219 18.0667 28.9224 17.9279 28.9647 17.7992C29.0069 17.6704 29.0887 17.5583 29.1985 17.4789L33.4285 14.4574V12.8567C33.4285 12.6862 33.4962 12.5227 33.6168 12.4022C33.7374 12.2816 33.9009 12.2139 34.0714 12.2139C34.2419 12.2139 34.4054 12.2816 34.5259 12.4022C34.6465 12.5227 34.7142 12.6862 34.7142 12.8567V14.7853C34.7137 14.8873 34.689 14.9877 34.6421 15.0782C34.5951 15.1688 34.5273 15.2469 34.4442 15.306L29.9442 18.5203C29.8357 18.5989 29.7053 18.6416 29.5714 18.6424Z" fill="#CBFB45"/>
</g>
</g>
<defs>
<clipPath id="clip0_356_2378">
<rect width="36" height="36" fill="white"/>
</clipPath>
</defs>
</svg>
