<svg width="56" height="56" viewBox="0 0 56 56" fill="none" xmlns="http://www.w3.org/2000/svg">
<path d="M46.91 26.13C46.4687 21.6039 44.4187 17.3862 41.1324 14.243C37.846 11.0997 33.5412 9.23943 29 9H28H27C22.1063 9.2691 17.506 11.4188 14.16 15C13.5651 15.6256 13.017 16.2941 12.52 17C10.3245 20.0624 9.09831 23.7132 9 27.48C9 27.65 9 27.83 9 28C9 28.63 9 29.26 9.09 29.87C9.53127 34.3961 11.5813 38.6138 14.8676 41.757C18.154 44.9003 22.4588 46.7606 27 47H28H29C33.8937 46.7309 38.494 44.5812 41.84 41C42.4349 40.3744 42.983 39.7059 43.48 39C45.6755 35.9376 46.9017 32.2868 47 28.52C47 28.35 47 28.17 47 28C47 27.37 47 26.74 46.91 26.13ZM28 45C24.6377 45 21.3509 44.003 18.5553 42.135C15.7597 40.267 13.5807 37.612 12.294 34.5056C11.0074 31.3993 10.6707 27.9811 11.3267 24.6835C11.9826 21.3858 13.6017 18.3567 15.9792 15.9792C18.3567 13.6017 21.3858 11.9826 24.6835 11.3267C27.9811 10.6707 31.3993 11.0074 34.5056 12.294C37.612 13.5807 40.267 15.7597 42.135 18.5553C44.003 21.3509 45 24.6377 45 28C45 32.5087 43.2089 36.8327 40.0208 40.0208C36.8327 43.2089 32.5087 45 28 45Z" fill="#161617"/>
<path d="M46.91 26.13C46.4687 21.6039 44.4187 17.3862 41.1324 14.243C37.846 11.0997 33.5412 9.23943 29 9H28H27C22.1063 9.2691 17.506 11.4188 14.16 15C13.5651 15.6256 13.017 16.2941 12.52 17C10.3245 20.0624 9.09831 23.7132 9 27.48C9 27.65 9 27.83 9 28C9 28.63 9 29.26 9.09 29.87C9.53127 34.3961 11.5813 38.6138 14.8676 41.757C18.154 44.9003 22.4588 46.7606 27 47H28H29C33.8937 46.7309 38.494 44.5812 41.84 41C42.4349 40.3744 42.983 39.7059 43.48 39C45.6755 35.9376 46.9017 32.2868 47 28.52C47 28.35 47 28.17 47 28C47 27.37 47 26.74 46.91 26.13ZM28 45C24.6377 45 21.3509 44.003 18.5553 42.135C15.7597 40.267 13.5807 37.612 12.294 34.5056C11.0074 31.3993 10.6707 27.9811 11.3267 24.6835C11.9826 21.3858 13.6017 18.3567 15.9792 15.9792C18.3567 13.6017 21.3858 11.9826 24.6835 11.3267C27.9811 10.6707 31.3993 11.0074 34.5056 12.294C37.612 13.5807 40.267 15.7597 42.135 18.5553C44.003 21.3509 45 24.6377 45 28C45 32.5087 43.2089 36.8327 40.0208 40.0208C36.8327 43.2089 32.5087 45 28 45Z" fill="#161617"/>
<g opacity="0.5">
<path opacity="0.5" d="M29.56 24H25V27H29.56C29.9411 26.9974 30.3059 26.8448 30.5753 26.5753C30.8448 26.3059 30.9974 25.9411 31 25.56V25.44C30.9974 25.0589 30.8448 24.6941 30.5753 24.4247C30.3059 24.1552 29.9411 24.0026 29.56 24ZM29.56 24H25V27H29.56C29.9411 26.9974 30.3059 26.8448 30.5753 26.5753C30.8448 26.3059 30.9974 25.9411 31 25.56V25.44C30.9974 25.0589 30.8448 24.6941 30.5753 24.4247C30.3059 24.1552 29.9411 24.0026 29.56 24ZM29.56 24H25V27H29.56C29.9411 26.9974 30.3059 26.8448 30.5753 26.5753C30.8448 26.3059 30.9974 25.9411 31 25.56V25.44C30.9974 25.0589 30.8448 24.6941 30.5753 24.4247C30.3059 24.1552 29.9411 24.0026 29.56 24ZM30.5 29H25V32H30.5C30.8978 32 31.2794 31.842 31.5607 31.5607C31.842 31.2794 32 30.8978 32 30.5C32 30.1022 31.842 29.7206 31.5607 29.4393C31.2794 29.158 30.8978 29 30.5 29ZM30.5 29H25V32H30.5C30.8978 32 31.2794 31.842 31.5607 31.5607C31.842 31.2794 32 30.8978 32 30.5C32 30.1022 31.842 29.7206 31.5607 29.4393C31.2794 29.158 30.8978 29 30.5 29ZM29.56 24H25V27H29.56C29.9411 26.9974 30.3059 26.8448 30.5753 26.5753C30.8448 26.3059 30.9974 25.9411 31 25.56V25.44C30.9974 25.0589 30.8448 24.6941 30.5753 24.4247C30.3059 24.1552 29.9411 24.0026 29.56 24ZM31 25.56V25.44C30.9974 25.0589 30.8448 24.6941 30.5753 24.4247C30.3059 24.1552 29.9411 24.0026 29.56 24H25V27H29.56C29.9411 26.9974 30.3059 26.8448 30.5753 26.5753C30.8448 26.3059 30.9974 25.9411 31 25.56ZM30.5 29H25V32H30.5C30.8978 32 31.2794 31.842 31.5607 31.5607C31.842 31.2794 32 30.8978 32 30.5C32 30.1022 31.842 29.7206 31.5607 29.4393C31.2794 29.158 30.8978 29 30.5 29ZM28 14C25.2311 14 22.5243 14.8211 20.222 16.3594C17.9197 17.8978 16.1253 20.0843 15.0657 22.6424C14.0061 25.2006 13.7288 28.0155 14.269 30.7313C14.8092 33.447 16.1426 35.9416 18.1005 37.8995C20.0584 39.8574 22.553 41.1908 25.2687 41.731C27.9845 42.2712 30.7994 41.9939 33.3576 40.9343C35.9157 39.8747 38.1022 38.0803 39.6406 35.778C41.1789 33.4757 42 30.7689 42 28C42 24.287 40.525 20.726 37.8995 18.1005C35.274 15.475 31.713 14 28 14ZM30.5 34H30V35C30 35.2652 29.8947 35.5196 29.7071 35.7071C29.5196 35.8946 29.2652 36 29 36C28.7348 36 28.4804 35.8946 28.2929 35.7071C28.1054 35.5196 28 35.2652 28 35V34H26V35C26 35.2652 25.8947 35.5196 25.7071 35.7071C25.5196 35.8946 25.2652 36 25 36C24.7348 36 24.4804 35.8946 24.2929 35.7071C24.1054 35.5196 24 35.2652 24 35V34H23C22.7348 34 22.4804 33.8946 22.2929 33.7071C22.1054 33.5196 22 33.2652 22 33C22 32.7348 22.1054 32.4804 22.2929 32.2929C22.4804 32.1054 22.7348 32 23 32V24C22.7348 24 22.4804 23.8946 22.2929 23.7071C22.1054 23.5196 22 23.2652 22 23C22 22.7348 22.1054 22.4804 22.2929 22.2929C22.4804 22.1054 22.7348 22 23 22H24V21C24 20.7348 24.1054 20.4804 24.2929 20.2929C24.4804 20.1054 24.7348 20 25 20C25.2652 20 25.5196 20.1054 25.7071 20.2929C25.8947 20.4804 26 20.7348 26 21V22H28V21C28 20.7348 28.1054 20.4804 28.2929 20.2929C28.4804 20.1054 28.7348 20 29 20C29.2652 20 29.5196 20.1054 29.7071 20.2929C29.8947 20.4804 30 20.7348 30 21V22C30.829 22.1069 31.5907 22.512 32.1428 23.1395C32.6949 23.7671 32.9996 24.5742 33 25.41V25.53C33.0065 26.248 32.7822 26.9492 32.36 27.53C32.8661 27.8418 33.283 28.2791 33.5703 28.7995C33.8576 29.3198 34.0057 29.9056 34 30.5C34 31.4283 33.6313 32.3185 32.9749 32.9749C32.3185 33.6313 31.4283 34 30.5 34ZM31 25.56V25.44C30.9974 25.0589 30.8448 24.6941 30.5753 24.4247C30.3059 24.1552 29.9411 24.0026 29.56 24H25V27H29.56C29.9411 26.9974 30.3059 26.8448 30.5753 26.5753C30.8448 26.3059 30.9974 25.9411 31 25.56ZM30.5 29H25V32H30.5C30.8978 32 31.2794 31.842 31.5607 31.5607C31.842 31.2794 32 30.8978 32 30.5C32 30.1022 31.842 29.7206 31.5607 29.4393C31.2794 29.158 30.8978 29 30.5 29ZM30.5 29H25V32H30.5C30.8978 32 31.2794 31.842 31.5607 31.5607C31.842 31.2794 32 30.8978 32 30.5C32 30.1022 31.842 29.7206 31.5607 29.4393C31.2794 29.158 30.8978 29 30.5 29ZM29.56 24H25V27H29.56C29.9411 26.9974 30.3059 26.8448 30.5753 26.5753C30.8448 26.3059 30.9974 25.9411 31 25.56V25.44C30.9974 25.0589 30.8448 24.6941 30.5753 24.4247C30.3059 24.1552 29.9411 24.0026 29.56 24ZM29.56 24H25V27H29.56C29.9411 26.9974 30.3059 26.8448 30.5753 26.5753C30.8448 26.3059 30.9974 25.9411 31 25.56V25.44C30.9974 25.0589 30.8448 24.6941 30.5753 24.4247C30.3059 24.1552 29.9411 24.0026 29.56 24ZM30.5 29H25V32H30.5C30.8978 32 31.2794 31.842 31.5607 31.5607C31.842 31.2794 32 30.8978 32 30.5C32 30.1022 31.842 29.7206 31.5607 29.4393C31.2794 29.158 30.8978 29 30.5 29ZM29.56 24H25V27H29.56C29.9411 26.9974 30.3059 26.8448 30.5753 26.5753C30.8448 26.3059 30.9974 25.9411 31 25.56V25.44C30.9974 25.0589 30.8448 24.6941 30.5753 24.4247C30.3059 24.1552 29.9411 24.0026 29.56 24ZM29.56 24H25V27H29.56C29.9411 26.9974 30.3059 26.8448 30.5753 26.5753C30.8448 26.3059 30.9974 25.9411 31 25.56V25.44C30.9974 25.0589 30.8448 24.6941 30.5753 24.4247C30.3059 24.1552 29.9411 24.0026 29.56 24Z" fill="#161617"/>
</g>
<g opacity="0.5">
<path opacity="0.5" d="M28 11C27.7348 11 27.4804 10.8946 27.2929 10.7071C27.1054 10.5196 27 10.2652 27 10V3C27 2.73478 27.1054 2.48043 27.2929 2.29289C27.4804 2.10536 27.7348 2 28 2H37C37.2652 2 37.5196 2.10536 37.7071 2.29289C37.8946 2.48043 38 2.73478 38 3C38 3.26522 37.8946 3.51957 37.7071 3.70711C37.5196 3.89464 37.2652 4 37 4H29V10C29 10.2652 28.8946 10.5196 28.7071 10.7071C28.5196 10.8946 28.2652 11 28 11Z" fill="#161617"/>
</g>
<path d="M39.0001 1.18283e-05C38.3811 0.00175134 37.7779 0.19489 37.273 0.55295C36.7681 0.91101 36.3864 1.41646 36.1801 2.00001C36.0589 2.3194 35.9979 2.65843 36.0001 3.00001C35.9979 3.34159 36.0589 3.68063 36.1801 4.00001C36.3635 4.51889 36.6862 4.9773 37.1127 5.32509C37.5392 5.67287 38.0532 5.89662 38.5984 5.97184C39.1436 6.04707 39.699 5.97087 40.2038 5.7516C40.7085 5.53232 41.1433 5.17841 41.4604 4.72861C41.7775 4.2788 41.9648 3.75042 42.0017 3.20131C42.0386 2.6522 41.9238 2.10351 41.6698 1.61529C41.4158 1.12707 41.0323 0.718133 40.5615 0.433238C40.0906 0.148343 39.5504 -0.00153337 39.0001 1.18283e-05ZM39.0001 4.00001C38.8023 4.00001 38.6089 3.94136 38.4445 3.83148C38.28 3.7216 38.1519 3.56542 38.0762 3.3827C38.0005 3.19997 37.9807 2.9989 38.0193 2.80492C38.0579 2.61094 38.1531 2.43276 38.2929 2.29291C38.4328 2.15305 38.611 2.05781 38.805 2.01923C38.9989 1.98064 39.2 2.00044 39.3827 2.07613C39.5655 2.15182 39.7216 2.27999 39.8315 2.44444C39.9414 2.60889 40.0001 2.80223 40.0001 3.00001C40.0001 3.26523 39.8947 3.51958 39.7072 3.70712C39.5196 3.89466 39.2653 4.00001 39.0001 4.00001Z" fill="#161617"/>
<g opacity="0.5">
<path opacity="0.5" d="M28 54H19C18.7348 54 18.4804 53.8946 18.2929 53.7071C18.1054 53.5196 18 53.2652 18 53C18 52.7348 18.1054 52.4804 18.2929 52.2929C18.4804 52.1054 18.7348 52 19 52H27V46C27 45.7348 27.1054 45.4804 27.2929 45.2929C27.4804 45.1054 27.7348 45 28 45C28.2652 45 28.5196 45.1054 28.7071 45.2929C28.8946 45.4804 29 45.7348 29 46V53C29 53.2652 28.8946 53.5196 28.7071 53.7071C28.5196 53.8946 28.2652 54 28 54Z" fill="#161617"/>
</g>
<path d="M19.8201 52C19.5842 51.3328 19.1201 50.7705 18.5096 50.4124C17.8992 50.0543 17.1819 49.9235 16.4844 50.0432C15.7869 50.1629 15.1542 50.5253 14.698 51.0663C14.2419 51.6074 13.9917 52.2923 13.9917 53C13.9917 53.7077 14.2419 54.3926 14.698 54.9337C15.1542 55.4747 15.7869 55.8371 16.4844 55.9568C17.1819 56.0765 17.8992 55.9457 18.5096 55.5876C19.1201 55.2296 19.5842 54.6672 19.8201 54C20.0599 53.3549 20.0599 52.6451 19.8201 52ZM17.0001 54C16.8023 54 16.609 53.9414 16.4446 53.8315C16.2801 53.7216 16.1519 53.5654 16.0762 53.3827C16.0006 53.2 15.9808 52.9989 16.0193 52.8049C16.0579 52.6109 16.1532 52.4328 16.293 52.2929C16.4329 52.153 16.6111 52.0578 16.805 52.0192C16.999 51.9806 17.2001 52.0004 17.3828 52.0761C17.5655 52.1518 17.7217 52.28 17.8316 52.4444C17.9415 52.6089 18.0001 52.8022 18.0001 53C18.0001 53.2652 17.8948 53.5196 17.7072 53.7071C17.5197 53.8946 17.2653 54 17.0001 54Z" fill="#161617"/>
<path d="M50.0001 3C49.2045 3 48.4414 3.31607 47.8788 3.87868C47.3162 4.44129 47.0001 5.20435 47.0001 6C46.996 6.44456 47.0989 6.88359 47.3001 7.28C47.5885 7.90786 48.0923 8.41162 48.7201 8.7C49.1165 8.90127 49.5556 9.00417 50.0001 9C50.7958 9 51.5588 8.68393 52.1214 8.12132C52.684 7.55871 53.0001 6.79565 53.0001 6C53.0001 5.20435 52.684 4.44129 52.1214 3.87868C51.5588 3.31607 50.7958 3 50.0001 3ZM50.0001 7C49.757 6.99965 49.5224 6.91078 49.3401 6.75L49.2501 6.66C49.0893 6.4777 49.0005 6.24307 49.0001 6C49.0001 5.80222 49.0588 5.60888 49.1687 5.44443C49.2785 5.27998 49.4347 5.15181 49.6174 5.07612C49.8002 5.00043 50.0012 4.98063 50.1952 5.01921C50.3892 5.0578 50.5674 5.15304 50.7072 5.29289C50.8471 5.43275 50.9423 5.61093 50.9809 5.80491C51.0195 5.99889 50.9997 6.19996 50.924 6.38268C50.8483 6.56541 50.7201 6.72159 50.5557 6.83147C50.3912 6.94135 50.1979 7 50.0001 7Z" fill="#161617"/>
<g opacity="0.5">
<path opacity="0.5" d="M40.7299 16.2703C40.5964 16.2764 40.4629 16.2557 40.3376 16.2093C40.2122 16.1629 40.0974 16.0919 39.9999 16.0003C39.9062 15.9074 39.8318 15.7968 39.781 15.6749C39.7302 15.5531 39.7041 15.4224 39.7041 15.2903C39.7041 15.1583 39.7302 15.0276 39.781 14.9058C39.8318 14.7839 39.9062 14.6733 39.9999 14.5803L47.8799 6.70034C47.9731 6.6071 48.0838 6.53314 48.2057 6.48268C48.3275 6.43222 48.458 6.40625 48.5899 6.40625C48.7218 6.40625 48.8523 6.43222 48.9742 6.48268C49.096 6.53314 49.2067 6.6071 49.2999 6.70034C49.3931 6.79358 49.4671 6.90427 49.5176 7.02609C49.568 7.14791 49.594 7.27848 49.594 7.41034C49.594 7.5422 49.568 7.67277 49.5176 7.79459C49.4671 7.91641 49.3931 8.0271 49.2999 8.12034L41.4399 16.0003C41.248 16.1802 40.9929 16.2772 40.7299 16.2703Z" fill="#161617"/>
</g>
<path d="M8.7 48.72C8.41163 48.0921 7.90786 47.5884 7.28 47.3C6.88359 47.0987 6.44456 46.9958 6 47C5.40666 47 4.82664 47.1759 4.33329 47.5056C3.83994 47.8352 3.45543 48.3038 3.22836 48.852C3.0013 49.4001 2.94189 50.0033 3.05765 50.5853C3.1734 51.1672 3.45912 51.7018 3.87868 52.1213C4.29824 52.5409 4.83279 52.8266 5.41473 52.9424C5.99667 53.0581 6.59987 52.9987 7.14805 52.7716C7.69623 52.5446 8.16477 52.1601 8.49441 51.6667C8.82405 51.1734 9 50.5933 9 50C9.00417 49.5554 8.90127 49.1164 8.7 48.72ZM6 51C5.73478 51 5.48043 50.8946 5.29289 50.7071C5.10536 50.5196 5 50.2652 5 50C5 49.7348 5.10536 49.4804 5.29289 49.2929C5.48043 49.1054 5.73478 49 6 49C6.24307 49.0003 6.4777 49.0892 6.66 49.25C6.76667 49.3437 6.85216 49.4591 6.91078 49.5884C6.96941 49.7177 6.99982 49.858 7 50C7 50.2652 6.89464 50.5196 6.70711 50.7071C6.51957 50.8946 6.26522 51 6 51Z" fill="#161617"/>
<g opacity="0.5">
<path opacity="0.5" d="M7.4101 49.5904C7.27849 49.5911 7.14803 49.5659 7.02619 49.5162C6.90435 49.4664 6.79354 49.3931 6.7001 49.3004C6.60637 49.2074 6.53197 49.0968 6.4812 48.975C6.43044 48.8531 6.4043 48.7224 6.4043 48.5904C6.4043 48.4584 6.43044 48.3277 6.4812 48.2058C6.53197 48.0839 6.60637 47.9733 6.7001 47.8804L14.5601 40.0004C14.7511 39.8094 15.01 39.7021 15.2801 39.7021C15.5501 39.7021 15.8091 39.8094 16.0001 40.0004C16.1911 40.1913 16.2983 40.4503 16.2983 40.7204C16.2983 40.9904 16.1911 41.2494 16.0001 41.4404L8.1201 49.3004C8.02666 49.3931 7.91584 49.4664 7.794 49.5162C7.67216 49.5659 7.5417 49.5911 7.4101 49.5904Z" fill="#161617"/>
</g>
<g opacity="0.5">
<path opacity="0.5" d="M14.59 17H8C7.73478 17 7.48043 16.8946 7.29289 16.7071C7.10536 16.5196 7 16.2652 7 16V5C7 4.73478 7.10536 4.48043 7.29289 4.29289C7.48043 4.10536 7.73478 4 8 4C8.26522 4 8.51957 4.10536 8.70711 4.29289C8.89464 4.48043 9 4.73478 9 5V15H14.59C14.8552 15 15.1096 15.1054 15.2971 15.2929C15.4846 15.4804 15.59 15.7348 15.59 16C15.59 16.2652 15.4846 16.5196 15.2971 16.7071C15.1096 16.8946 14.8552 17 14.59 17Z" fill="#161617"/>
</g>
<path d="M8.00017 0C7.29663 0.00545837 6.61738 0.258013 6.08118 0.713515C5.54497 1.16902 5.18591 1.79849 5.06677 2.49189C4.94763 3.18529 5.07598 3.89851 5.4294 4.50687C5.78281 5.11523 6.3388 5.58002 7.00017 5.82C7.64527 6.0598 8.35507 6.0598 9.00017 5.82C9.66154 5.58002 10.2175 5.11523 10.5709 4.50687C10.9244 3.89851 11.0527 3.18529 10.9336 2.49189C10.8144 1.79849 10.4554 1.16902 9.91916 0.713515C9.38295 0.258013 8.70371 0.00545837 8.00017 0ZM8.00017 4C7.80239 4 7.60905 3.94135 7.4446 3.83147C7.28015 3.72159 7.15198 3.56541 7.07629 3.38268C7.0006 3.19996 6.9808 2.99889 7.01938 2.80491C7.05797 2.61093 7.15321 2.43275 7.29306 2.29289C7.43291 2.15304 7.6111 2.0578 7.80508 2.01921C7.99906 1.98063 8.20013 2.00043 8.38285 2.07612C8.56558 2.15181 8.72176 2.27998 8.83164 2.44443C8.94152 2.60888 9.00017 2.80222 9.00017 3C9.00017 3.26522 8.89481 3.51957 8.70728 3.70711C8.51974 3.89464 8.26539 4 8.00017 4Z" fill="#161617"/>
<g opacity="0.5">
<path opacity="0.5" d="M48.0002 52C47.7349 52 47.4806 51.8946 47.293 51.7071C47.1055 51.5196 47.0002 51.2652 47.0002 51V41H41.4102C41.1449 41 40.8906 40.8946 40.703 40.7071C40.5155 40.5196 40.4102 40.2652 40.4102 40C40.4102 39.7348 40.5155 39.4804 40.703 39.2929C40.8906 39.1054 41.1449 39 41.4102 39H48.0002C48.2654 39 48.5197 39.1054 48.7073 39.2929C48.8948 39.4804 49.0002 39.7348 49.0002 40V51C49.0002 51.2652 48.8948 51.5196 48.7073 51.7071C48.5197 51.8946 48.2654 52 48.0002 52Z" fill="#161617"/>
</g>
<path d="M49 50.18C48.3549 49.9402 47.6451 49.9402 47 50.18C46.3328 50.4159 45.7705 50.88 45.4124 51.4905C45.0543 52.1009 44.9235 52.8182 45.0432 53.5157C45.1629 54.2132 45.5253 54.8459 46.0663 55.3021C46.6074 55.7582 47.2923 56.0084 48 56.0084C48.7077 56.0084 49.3926 55.7582 49.9337 55.3021C50.4747 54.8459 50.8371 54.2132 50.9568 53.5157C51.0765 52.8182 50.9457 52.1009 50.5876 51.4905C50.2296 50.88 49.6672 50.4159 49 50.18ZM48 54C47.8022 54 47.6089 53.9413 47.4444 53.8314C47.28 53.7216 47.1518 53.5654 47.0761 53.3827C47.0004 53.1999 46.9806 52.9989 47.0192 52.8049C47.0578 52.6109 47.153 52.4327 47.2929 52.2929C47.4328 52.153 47.6109 52.0578 47.8049 52.0192C47.9989 51.9806 48.2 52.0004 48.3827 52.0761C48.5654 52.1518 48.7216 52.28 48.8315 52.4444C48.9414 52.6089 49 52.8022 49 53C49 53.2652 48.8946 53.5195 48.7071 53.7071C48.5196 53.8946 48.2652 54 48 54Z" fill="#161617"/>
<path d="M4.00001 35.18C3.68062 35.0589 3.34159 34.9978 3.00001 35C2.65843 34.9978 2.31939 35.0589 2.00001 35.18C1.33279 35.4159 0.770452 35.8801 0.412375 36.4905C0.0542975 37.1009 -0.0764608 37.8182 0.0432105 38.5157C0.162882 39.2132 0.525277 39.846 1.06635 40.3021C1.60741 40.7582 2.29232 41.0084 3.00001 41.0084C3.70769 41.0084 4.3926 40.7582 4.93367 40.3021C5.47474 39.846 5.83713 39.2132 5.9568 38.5157C6.07647 37.8182 5.94571 37.1009 5.58764 36.4905C5.22956 35.8801 4.66722 35.4159 4.00001 35.18ZM3.00001 39C2.80222 39 2.60889 38.9413 2.44444 38.8315C2.27999 38.7216 2.15181 38.5654 2.07613 38.3827C2.00044 38.2 1.98064 37.9989 2.01922 37.8049C2.05781 37.6109 2.15305 37.4327 2.2929 37.2929C2.43275 37.153 2.61093 37.0578 2.80492 37.0192C2.9989 36.9806 3.19996 37.0004 3.38269 37.0761C3.56542 37.1518 3.72159 37.28 3.83148 37.4444C3.94136 37.6089 4.00001 37.8022 4.00001 38C4.00001 38.2652 3.89465 38.5196 3.70711 38.7071C3.51958 38.8946 3.26522 39 3.00001 39Z" fill="#161617"/>
<g opacity="0.5">
<path opacity="0.5" d="M3 37.0004C2.73478 37.0004 2.48043 36.895 2.29289 36.7075C2.10536 36.5199 2 36.2656 2 36.0004V33.0004C2.00073 32.8417 2.0392 32.6855 2.11223 32.5447C2.18527 32.4038 2.29076 32.2824 2.42 32.1904L9.42 27.1904C9.6353 27.0629 9.89058 27.0207 10.1354 27.0722C10.3803 27.1237 10.597 27.2651 10.7426 27.4686C10.8883 27.672 10.9524 27.9227 10.9223 28.1711C10.8922 28.4195 10.7701 28.6476 10.58 28.8104L4 33.5104V36.0004C4 36.2656 3.89464 36.5199 3.70711 36.7075C3.51957 36.895 3.26522 37.0004 3 37.0004Z" fill="#161617"/>
</g>
<path d="M53.0002 15C52.2966 15.0055 51.6174 15.258 51.0812 15.7135C50.545 16.169 50.1859 16.7985 50.0668 17.4919C49.9476 18.1853 50.076 18.8985 50.4294 19.5069C50.7828 20.1152 51.3388 20.58 52.0002 20.82C52.6453 21.0598 53.3551 21.0598 54.0002 20.82C54.6615 20.58 55.2175 20.1152 55.5709 19.5069C55.9244 18.8985 56.0527 18.1853 55.9336 17.4919C55.8144 16.7985 55.4554 16.169 54.9192 15.7135C54.383 15.258 53.7037 15.0055 53.0002 15ZM53.0002 19C52.8024 19 52.609 18.9414 52.4446 18.8315C52.2802 18.7216 52.152 18.5654 52.0763 18.3827C52.0006 18.2 51.9808 17.9989 52.0194 17.8049C52.058 17.6109 52.1532 17.4327 52.2931 17.2929C52.4329 17.153 52.6111 17.0578 52.8051 17.0192C52.9991 16.9806 53.2001 17.0004 53.3829 17.0761C53.5656 17.1518 53.7218 17.28 53.8316 17.4444C53.9415 17.6089 54.0002 17.8022 54.0002 18C54.0002 18.2652 53.8948 18.5196 53.7073 18.7071C53.5197 18.8946 53.2654 19 53.0002 19Z" fill="#161617"/>
<g opacity="0.5">
<path opacity="0.5" d="M45.9999 29C45.7892 28.9987 45.5842 28.9307 45.4143 28.806C45.2445 28.6812 45.1184 28.5059 45.054 28.3052C44.9897 28.1045 44.9905 27.8885 45.0562 27.6883C45.1219 27.488 45.2492 27.3136 45.4199 27.19L51.9999 22.49V20C51.9999 19.7348 52.1053 19.4804 52.2928 19.2929C52.4804 19.1054 52.7347 19 52.9999 19C53.2652 19 53.5195 19.1054 53.7071 19.2929C53.8946 19.4804 53.9999 19.7348 53.9999 20V23C53.9992 23.1587 53.9607 23.3148 53.8877 23.4557C53.8147 23.5965 53.7092 23.718 53.5799 23.81L46.5799 28.81C46.4111 28.9322 46.2084 28.9987 45.9999 29Z" fill="#161617"/>
</g>
</svg>
