<svg width="141" height="25" viewBox="0 0 141 25" fill="none" xmlns="http://www.w3.org/2000/svg">
<path d="M28.4575 7.13518C23.3353 7.13518 19.333 10.9927 19.333 16.1567C19.333 21.3208 23.2342 25.1453 28.4575 25.1453C33.6808 25.1453 37.6498 21.2548 37.6498 16.1237C37.6498 11.0257 33.7487 7.13518 28.4575 7.13518ZM28.4921 21.4236C25.5752 21.4236 23.4377 19.1762 23.4377 16.158C23.4377 13.1055 25.5406 10.8594 28.4575 10.8594C31.409 10.8594 33.5452 13.1398 33.5452 16.158C33.5452 19.1762 31.409 21.4236 28.4921 21.4236ZM38.7685 11.06H41.3129V24.8113H45.383V7.47038H38.7685V11.06ZM9.0899 10.8581C11.2274 10.8581 12.9233 12.1659 13.567 14.1112H17.8752C17.0945 9.95278 13.6349 7.13518 9.1245 7.13518C4.0023 7.13518 0 10.9927 0 16.158C0 21.3233 3.9012 25.1465 9.1245 25.1465C13.5338 25.1465 17.0612 22.329 17.8419 18.1363H13.567C12.9565 20.0815 11.2606 21.4236 9.1232 21.4236C6.1717 21.4236 4.1034 19.1762 4.1034 16.158C4.1047 13.1055 6.1397 10.8581 9.0899 10.8581ZM116.103 14.4807L113.118 14.0451C111.694 13.8445 110.676 13.3747 110.676 12.2675C110.676 11.06 112 10.4568 113.797 10.4568C115.764 10.4568 117.02 11.2949 117.291 12.67H121.225C120.784 9.18198 118.07 7.13648 113.899 7.13648C109.591 7.13648 106.742 9.31658 106.742 12.4021C106.742 15.353 108.608 17.0646 112.372 17.6004L115.357 18.036C116.816 18.2366 117.63 18.808 117.63 19.8809C117.63 21.256 116.206 21.8262 114.238 21.8262C111.83 21.8262 110.473 20.8535 110.269 19.3781H106.267C106.641 22.7658 109.32 25.1465 114.204 25.1465C118.648 25.1465 121.598 23.134 121.598 19.679C121.598 16.5935 119.462 14.9835 116.103 14.4807ZM43.348 0.326778C41.8556 0.326778 40.7357 1.39968 40.7357 2.87518C40.7357 4.35058 41.8543 5.42358 43.348 5.42358C44.8404 5.42358 45.9603 4.35058 45.9603 2.87518C45.9603 1.39968 44.8404 0.326778 43.348 0.326778ZM103.079 13.4077C103.079 9.65178 100.772 7.13648 95.888 7.13648C91.275 7.13648 88.698 9.45118 88.188 13.0065H92.225C92.429 11.6314 93.514 10.4911 95.82 10.4911C97.89 10.4911 98.908 11.3965 98.908 12.5037C98.908 13.9461 97.041 14.3143 94.735 14.5492C91.615 14.8844 87.748 15.9574 87.748 19.9825C87.748 23.1022 90.089 25.1135 93.82 25.1135C96.737 25.1135 98.568 23.906 99.485 21.9938C99.621 23.7041 100.909 24.8113 102.708 24.8113H105.082V21.223H103.08V13.4077H103.079ZM99.077 17.768C99.077 20.0828 97.041 21.7931 94.565 21.7931C93.038 21.7931 91.749 21.1557 91.749 19.8149C91.749 18.1045 93.819 17.6347 95.718 17.4341C97.55 17.2665 98.567 16.864 99.077 16.092V17.768ZM77.47 7.13518C75.197 7.13518 73.298 8.07478 71.941 9.65058V0.15918H67.871V24.8113H71.873V22.5309C73.23 24.1739 75.164 25.1465 77.47 25.1465C82.355 25.1465 86.052 21.3233 86.052 16.158C86.052 10.9927 82.287 7.13518 77.47 7.13518ZM76.86 21.4236C73.943 21.4236 71.806 19.1762 71.806 16.158C71.806 13.1398 73.976 10.8594 76.893 10.8594C79.845 10.8594 81.913 13.1068 81.913 16.158C81.913 19.1762 79.777 21.4236 76.86 21.4236ZM58.136 7.13518C55.49 7.13518 53.76 8.20808 52.743 9.71788V7.47038H48.706V24.8101H52.776V15.386C52.776 12.736 54.472 10.8581 56.982 10.8581C59.323 10.8581 60.78 12.5011 60.78 14.8832V24.8113H64.85V14.5822C64.852 10.2207 62.58 7.13518 58.136 7.13518ZM141 15.5879C141 10.6244 137.337 7.13648 132.418 7.13648C127.195 7.13648 123.362 11.027 123.362 16.158C123.362 21.5582 127.466 25.1465 132.486 25.1465C136.726 25.1465 140.05 22.6642 140.898 19.1432H136.657C136.047 20.6859 134.554 21.5582 132.553 21.5582C129.94 21.5582 127.973 19.9482 127.533 17.1306H140.999V15.5879H141ZM127.771 14.2458C128.416 11.8307 130.247 10.6575 132.35 10.6575C134.657 10.6575 136.42 11.9653 136.827 14.2458H127.771Z" fill="#161617"/>
</svg>
