<svg width="36" height="36" viewBox="0 0 36 36" fill="none" xmlns="http://www.w3.org/2000/svg">
<path d="M6.74372 6.51135L6.42872 6.33778L1.96729 3.85635L0.958001 3.29706C0.860274 3.24064 0.749418 3.21094 0.636573 3.21094C0.523728 3.21094 0.412871 3.24064 0.315144 3.29706C0.212951 3.35468 0.128472 3.43916 0.0708582 3.54135C0.0221544 3.63908 -0.00211101 3.74718 0.000143962 3.85635V10.9278C0.000340263 11.0417 0.0308011 11.1535 0.0884086 11.2518C0.146016 11.35 0.228701 11.4312 0.328001 11.4871L4.50014 13.8013L5.65086 14.4442L6.10729 14.7014C6.158 14.7293 6.21198 14.7509 6.268 14.7656C6.37676 14.8001 6.49353 14.8001 6.60229 14.7656C6.65361 14.752 6.70321 14.7326 6.75014 14.7078C6.8492 14.6506 6.93121 14.568 6.98771 14.4686C7.04422 14.3691 7.07316 14.2564 7.07157 14.1421V7.07064C7.07138 6.95672 7.04092 6.84491 6.98331 6.74664C6.9257 6.64837 6.84302 6.56717 6.74372 6.51135ZM5.55443 12.9399L1.28586 10.5485V4.94921L5.78586 7.44992V13.0492L5.62514 12.9592L5.55443 12.9399Z" fill="#CBFB45"/>
<path opacity="0.5" d="M5.78613 7.44993V13.0492L5.62542 12.9592L5.5547 12.9206L1.28613 10.5485V4.94922L5.78613 7.44993Z" fill="#CBFB45"/>
<path d="M12.774 3.54135C12.7164 3.43916 12.6319 3.35468 12.5297 3.29706C12.432 3.24064 12.3211 3.21094 12.2083 3.21094C12.0954 3.21094 11.9846 3.24064 11.8868 3.29706L10.8904 3.85635L6.42899 6.33778L6.11399 6.51135C6.01469 6.56717 5.932 6.64837 5.8744 6.74664C5.81679 6.84491 5.78633 6.95672 5.78613 7.07064V14.1421C5.78615 14.2536 5.8152 14.3633 5.87043 14.4602C5.92566 14.5571 6.00517 14.638 6.10113 14.6949C6.15184 14.7229 6.20582 14.7445 6.26185 14.7592C6.37061 14.7937 6.48737 14.7937 6.59613 14.7592C6.64745 14.7456 6.69706 14.7262 6.74399 14.7014L12.5297 11.4871C12.629 11.4312 12.7117 11.35 12.7693 11.2518C12.8269 11.1535 12.8574 11.0417 12.8576 10.9278V3.85635C12.8559 3.7461 12.8272 3.63795 12.774 3.54135ZM11.5718 10.5485L7.07185 13.0492V7.44992L11.5718 4.94921V10.5485Z" fill="#CBFB45"/>
<path opacity="0.5" d="M11.5713 4.94922V10.5485L7.07129 13.0492V7.44993L11.5713 4.94922Z" fill="#CBFB45"/>
<path d="M12.7737 3.54177C12.7161 3.43957 12.6316 3.3551 12.5294 3.29748L6.74372 0.0831968C6.64599 0.0267743 6.53513 -0.00292969 6.42229 -0.00292969C6.30944 -0.00292969 6.19859 0.0267743 6.10086 0.0831968L0.315144 3.29748C0.212951 3.3551 0.128472 3.43957 0.0708583 3.54177C0.0221544 3.6395 -0.00211101 3.74759 0.000143962 3.85677C0.000340263 3.97068 0.0308011 4.08249 0.0884086 4.18077C0.146016 4.27904 0.228701 4.36024 0.328001 4.41605L1.28586 4.94962L5.78586 7.45034L6.11372 7.63034C6.21144 7.68676 6.3223 7.71647 6.43514 7.71647C6.54799 7.71647 6.65885 7.68676 6.75657 7.63034L7.08443 7.45034L11.5716 4.94962L12.5294 4.41605C12.6287 4.36024 12.7114 4.27904 12.769 4.18077C12.8266 4.08249 12.8571 3.97068 12.8573 3.85677C12.8556 3.74652 12.8269 3.63837 12.7737 3.54177ZM6.42872 6.3382L1.96729 3.85677L6.42872 1.37534L10.8901 3.85677L6.42872 6.3382Z" fill="#CBFB45"/>
<path opacity="0.5" d="M10.8901 3.85643L6.42871 6.33786L1.96729 3.85643L6.42871 1.375L10.8901 3.85643Z" fill="#CBFB45"/>
<path d="M29.8863 6.51135L29.5713 6.33778L25.1099 3.85635L24.1006 3.29706C24.0029 3.24064 23.892 3.21094 23.7792 3.21094C23.6663 3.21094 23.5554 3.24064 23.4577 3.29706C23.3555 3.35468 23.2711 3.43916 23.2134 3.54135C23.1647 3.63908 23.1405 3.74718 23.1427 3.85635V10.9278C23.1429 11.0417 23.1734 11.1535 23.231 11.2518C23.2886 11.35 23.3713 11.4312 23.4706 11.4871L29.2563 14.7014C29.307 14.7293 29.361 14.7509 29.417 14.7656C29.5258 14.8001 29.6425 14.8001 29.7513 14.7656C29.8026 14.752 29.8522 14.7326 29.8991 14.7078C29.997 14.6498 30.0777 14.5669 30.1331 14.4675C30.1884 14.3681 30.2164 14.2558 30.2141 14.1421V7.07064C30.214 6.95672 30.1835 6.84491 30.1259 6.74664C30.0683 6.64837 29.9856 6.56717 29.8863 6.51135ZM24.4284 4.94921L28.9284 7.44992V13.0492L24.4284 10.5485V4.94921Z" fill="#CBFB45"/>
<path opacity="0.5" d="M28.9287 7.44993V13.0492L24.4287 10.5485V4.94922L28.9287 7.44993Z" fill="#CBFB45"/>
<path d="M35.9166 3.54135C35.859 3.43916 35.7745 3.35468 35.6723 3.29706C35.5746 3.24064 35.4637 3.21094 35.3509 3.21094C35.238 3.21094 35.1271 3.24064 35.0294 3.29706L34.033 3.85635L29.5716 6.33778L29.2566 6.51135C29.1573 6.56717 29.0746 6.64837 29.017 6.74664C28.9594 6.84491 28.9289 6.95672 28.9287 7.07064V14.1421C28.9287 14.2536 28.9578 14.3633 29.013 14.4602C29.0682 14.5571 29.1477 14.638 29.2437 14.6949C29.2944 14.7229 29.3484 14.7445 29.4044 14.7592C29.5132 14.7937 29.63 14.7937 29.7387 14.7592C29.79 14.7456 29.8396 14.7262 29.8866 14.7014L30.343 14.4442L31.4937 13.8014L35.6594 11.4871C35.7611 11.4329 35.8464 11.3525 35.9063 11.2541C35.9663 11.1557 35.9987 11.043 36.0001 10.9278V3.85635C35.9984 3.7461 35.9697 3.63795 35.9166 3.54135ZM34.7144 10.5485L30.4459 12.9206L30.3751 12.9592L30.2144 13.0492V7.44992L34.7144 4.94921V10.5485Z" fill="#CBFB45"/>
<path opacity="0.5" d="M34.7144 4.94922V10.5485L30.4458 12.9206L30.3751 12.9592L30.2144 13.0492V7.44993L34.7144 4.94922Z" fill="#CBFB45"/>
<path d="M35.9168 3.54177C35.8592 3.43957 35.7747 3.3551 35.6725 3.29748L29.8868 0.0831968C29.7891 0.0267743 29.6782 -0.00292969 29.5654 -0.00292969C29.4525 -0.00292969 29.3417 0.0267743 29.2439 0.0831968L23.4582 3.29748C23.356 3.3551 23.2715 3.43957 23.2139 3.54177C23.1652 3.6395 23.141 3.74759 23.1432 3.85677C23.1434 3.97068 23.1739 4.08249 23.2315 4.18077C23.2891 4.27904 23.3718 4.36024 23.4711 4.41605L24.4289 4.94962L28.9289 7.45034L29.2568 7.63034C29.3545 7.68676 29.4654 7.71647 29.5782 7.71647C29.6911 7.71647 29.8019 7.68676 29.8996 7.63034L30.2275 7.45034L34.7146 4.94962L35.6725 4.41605C35.7718 4.36024 35.8545 4.27904 35.9121 4.18077C35.9697 4.08249 36.0002 3.97068 36.0004 3.85677C35.9986 3.74652 35.9699 3.63837 35.9168 3.54177ZM29.5718 6.3382L25.1104 3.85677L29.5718 1.37534L34.0332 3.85677L29.5718 6.3382Z" fill="#CBFB45"/>
<path opacity="0.5" d="M34.0332 3.85643L29.5718 6.33786L25.1104 3.85643L29.5718 1.375L34.0332 3.85643Z" fill="#CBFB45"/>
<path d="M6.74372 27.7262L6.42872 27.5526L1.96729 25.0712L0.958001 24.5119C0.860275 24.4555 0.749418 24.4258 0.636573 24.4258C0.523728 24.4258 0.412871 24.4555 0.315144 24.5119C0.212951 24.5695 0.128472 24.654 0.0708583 24.7562C0.0221544 24.8539 -0.00211101 24.962 0.000143962 25.0712V32.1426C0.000340263 32.2565 0.0308011 32.3684 0.0884086 32.4666C0.146016 32.5649 0.228701 32.6461 0.328001 32.7019L6.11372 35.9162C6.16442 35.9442 6.21841 35.9658 6.27443 35.9805C6.38319 36.015 6.49996 36.015 6.60872 35.9805C6.66003 35.9669 6.70964 35.9474 6.75657 35.9226C6.85444 35.8646 6.93516 35.7817 6.9905 35.6823C7.04584 35.5829 7.07382 35.4706 7.07157 35.3569V28.2855C7.07138 28.1716 7.04092 28.0598 6.98331 27.9615C6.9257 27.8632 6.84302 27.782 6.74372 27.7262ZM1.28586 26.1641L5.78586 28.6648V34.2641L1.28586 31.7633V26.1641Z" fill="#CBFB45"/>
<path opacity="0.5" d="M5.78613 28.6648V34.2641L1.28613 31.7633V26.1641L5.78613 28.6648Z" fill="#CBFB45"/>
<path d="M12.774 24.7562C12.7164 24.654 12.6319 24.5695 12.5297 24.5119C12.432 24.4555 12.3211 24.4258 12.2083 24.4258C12.0954 24.4258 11.9846 24.4555 11.8868 24.5119L10.8904 25.0712L6.42899 27.5526L6.11399 27.7262C6.01469 27.782 5.932 27.8632 5.8744 27.9615C5.81679 28.0598 5.78633 28.1716 5.78613 28.2855V35.3569C5.78615 35.4685 5.8152 35.5781 5.87043 35.675C5.92566 35.772 6.00517 35.8529 6.10113 35.9098C6.15184 35.9378 6.20582 35.9593 6.26185 35.974C6.37061 36.0085 6.48737 36.0085 6.59613 35.974C6.64745 35.9604 6.69706 35.941 6.74399 35.9162L12.5297 32.7019C12.629 32.6461 12.7117 32.5649 12.7693 32.4666C12.8269 32.3683 12.8574 32.2565 12.8576 32.1426V25.0712C12.8559 24.9609 12.8272 24.8528 12.774 24.7562ZM11.5718 31.7633L7.07185 34.264V28.6648L11.5718 26.1641V31.7633Z" fill="#CBFB45"/>
<path opacity="0.5" d="M11.5713 26.1641V31.7633L7.07129 34.2641V28.6648L11.5713 26.1641Z" fill="#CBFB45"/>
<path d="M12.7736 24.7556C12.716 24.6534 12.6315 24.569 12.5293 24.5113L6.74357 21.2971C6.64584 21.2406 6.53499 21.2109 6.42214 21.2109C6.3093 21.2109 6.19844 21.2406 6.10071 21.2971L5.63143 21.5606L4.5 22.1971L0.327857 24.5113C0.225664 24.569 0.141185 24.6534 0.0835714 24.7556C0.0304044 24.8522 0.00171097 24.9604 0 25.0706C0.000196301 25.1845 0.0306571 25.2964 0.0882646 25.3946C0.145872 25.4929 0.228557 25.5741 0.327857 25.6299L1.28571 26.1635L5.78571 28.6642L6.11357 28.8442C6.2113 28.9006 6.32215 28.9303 6.435 28.9303C6.54784 28.9303 6.6587 28.9006 6.75643 28.8442L7.08429 28.6642L11.5843 26.1635L12.5421 25.6299C12.639 25.5725 12.7192 25.4906 12.7744 25.3924C12.8297 25.2942 12.8582 25.1833 12.8571 25.0706C12.8554 24.9604 12.8267 24.8522 12.7736 24.7556ZM6.42857 27.5521L1.96714 25.0706L5.535 23.0906L5.63143 23.0328H5.66357L6.42857 22.5892L10.89 25.0706L6.42857 27.5521Z" fill="#CBFB45"/>
<path opacity="0.5" d="M10.8901 25.0713L6.42871 27.5527L1.96729 25.0713L5.53514 23.0913L5.63157 23.0334H5.66371L6.42871 22.5898L10.8901 25.0713Z" fill="#CBFB45"/>
<path d="M29.8863 27.7262L29.5713 27.5526L25.1099 25.0712L24.1006 24.5119C24.0029 24.4555 23.892 24.4258 23.7792 24.4258C23.6663 24.4258 23.5554 24.4555 23.4577 24.5119C23.3555 24.5695 23.2711 24.654 23.2134 24.7562C23.1647 24.8539 23.1405 24.962 23.1427 25.0712V32.1426C23.1429 32.2565 23.1734 32.3684 23.231 32.4666C23.2886 32.5649 23.3713 32.6461 23.4706 32.7019L29.2563 35.9162C29.307 35.9442 29.361 35.9658 29.417 35.9805C29.5258 36.0146 29.6425 36.0146 29.7513 35.9805C29.8026 35.9669 29.8522 35.9475 29.8991 35.9226C29.997 35.8646 30.0777 35.7817 30.1331 35.6823C30.1884 35.5829 30.2164 35.4706 30.2141 35.3569V28.2855C30.214 28.1716 30.1835 28.0598 30.1259 27.9615C30.0683 27.8632 29.9856 27.782 29.8863 27.7262ZM24.4284 26.1641L28.9284 28.6648V34.2641L24.4284 31.7633V26.1641Z" fill="#CBFB45"/>
<path opacity="0.5" d="M28.9287 28.6648V34.2641L24.4287 31.7633V26.1641L28.9287 28.6648Z" fill="#CBFB45"/>
<path d="M35.9166 24.7562C35.859 24.654 35.7745 24.5695 35.6723 24.5119C35.5746 24.4555 35.4637 24.4258 35.3509 24.4258C35.238 24.4258 35.1271 24.4555 35.0294 24.5119L34.033 25.0712L29.5716 27.5526L29.2566 27.7262C29.1573 27.782 29.0746 27.8632 29.017 27.9615C28.9594 28.0598 28.9289 28.1716 28.9287 28.2855V35.3569C28.9287 35.4685 28.9578 35.5781 29.013 35.675C29.0682 35.772 29.1477 35.8529 29.2437 35.9098C29.2944 35.9378 29.3484 35.9593 29.4044 35.9741C29.5132 36.0081 29.6299 36.0081 29.7387 35.9741C29.79 35.9604 29.8396 35.941 29.8866 35.9162L35.6723 32.7019C35.7716 32.6461 35.8543 32.5649 35.9119 32.4666C35.9695 32.3684 35.9999 32.2565 36.0001 32.1426V25.0712C35.9984 24.9609 35.9697 24.8528 35.9166 24.7562ZM34.7144 31.7633L30.2144 34.2641V28.6648L34.7144 26.1641V31.7633Z" fill="#CBFB45"/>
<path opacity="0.5" d="M34.7144 26.1641V31.7633L30.2144 34.2641V28.6648L34.7144 26.1641Z" fill="#CBFB45"/>
<path d="M30.1248 22.2812C30.2084 22.0433 30.2855 21.8055 30.3562 21.5612L29.8869 21.2976C29.7892 21.2412 29.6783 21.2115 29.5655 21.2115C29.4526 21.2115 29.3418 21.2412 29.2441 21.2976L23.4584 24.5119C23.5561 24.4555 23.6669 24.4258 23.7798 24.4258C23.8926 24.4258 24.0035 24.4555 24.1012 24.5119L25.1105 25.0712L29.5719 22.5898L30.3305 23.0076C30.224 22.9237 30.1467 22.8083 30.1098 22.6778C30.0728 22.5473 30.0781 22.4085 30.1248 22.2812ZM35.9105 24.7562C35.8529 24.654 35.7684 24.5695 35.6662 24.5119L31.5005 22.1976L30.3498 21.5548L29.8805 21.2912C29.7828 21.2348 29.6719 21.2051 29.5591 21.2051C29.4462 21.2051 29.3354 21.2348 29.2376 21.2912L23.4519 24.5055C23.3497 24.5631 23.2652 24.6476 23.2076 24.7498C23.1601 24.85 23.138 24.9604 23.1434 25.0712C23.1435 25.1851 23.174 25.2969 23.2316 25.3952C23.2892 25.4935 23.3719 25.5747 23.4712 25.6305L24.4291 26.1641L28.9291 28.6648L29.2569 28.8448C29.3546 28.9012 29.4655 28.9309 29.5783 28.9309C29.6912 28.9309 29.8021 28.9012 29.8998 28.8448L30.2276 28.6648L34.7276 26.1641L35.6855 25.6305C35.7824 25.573 35.8625 25.4911 35.9178 25.393C35.9731 25.2948 36.0016 25.1839 36.0005 25.0712C35.9988 24.961 35.9701 24.8528 35.9169 24.7562H35.9105ZM29.5719 27.5526L25.1105 25.0712L29.5719 22.5898L30.3305 23.0076L30.4269 23.0655L34.0333 25.0712L29.5719 27.5526Z" fill="#CBFB45"/>
<path opacity="0.5" d="M34.0332 25.0713L29.5718 27.5527L25.1104 25.0713L29.5718 22.5898L30.3303 23.0077L30.4268 23.0656L34.0332 25.0713Z" fill="#CBFB45"/>
<path opacity="0.5" d="M5.66996 23.0078H5.63781L5.54138 23.0657H5.49638C5.42649 23.1044 5.35033 23.1305 5.27138 23.1428C5.13927 23.1428 5.01038 23.102 4.90225 23.0261C4.79413 22.9502 4.71202 22.8428 4.6671 22.7185C4.60281 22.5428 4.54496 22.3692 4.49353 22.1978C3.6458 19.4631 3.64805 16.5355 4.49996 13.8021C4.55138 13.6264 4.60924 13.4528 4.67353 13.2814C4.73155 13.1212 4.85082 12.9905 5.00512 12.9182C5.15941 12.8459 5.33611 12.8378 5.49638 12.8957H5.56067L5.63138 12.9342C5.69353 12.9842 5.74585 13.0452 5.78567 13.1142C5.84962 13.1996 5.89133 13.2995 5.90704 13.405C5.92276 13.5105 5.91197 13.6182 5.87567 13.7185C5.84353 13.8085 5.81138 13.8921 5.78567 13.9821C5.75996 14.0721 5.68924 14.2842 5.64424 14.4385C4.97553 16.7657 4.97553 19.2342 5.64424 21.5614C5.71496 21.8057 5.7921 22.0435 5.87567 22.2814C5.92238 22.4087 5.92764 22.5475 5.89069 22.678C5.85374 22.8084 5.77648 22.9239 5.66996 23.0078Z" fill="#CBFB45"/>
<path opacity="0.5" d="M18.0001 32.1425C15.9026 32.1501 13.8304 31.6843 11.938 30.7796C11.7837 30.7063 11.6648 30.5747 11.6076 30.4137C11.5503 30.2528 11.5593 30.0757 11.6326 29.9214C11.706 29.7671 11.8376 29.6482 11.9985 29.591C12.1595 29.5337 12.3366 29.5427 12.4909 29.616C14.2127 30.4326 16.0945 30.8562 18.0001 30.8562C19.9058 30.8562 21.7876 30.4326 23.5094 29.616C23.6637 29.5427 23.8408 29.5337 24.0018 29.591C24.1627 29.6482 24.2943 29.7671 24.3676 29.9214C24.441 30.0757 24.45 30.2528 24.3927 30.4137C24.3354 30.5747 24.2166 30.7063 24.0623 30.7796C22.1699 31.6843 20.0977 32.1501 18.0001 32.1425Z" fill="#CBFB45"/>
<path opacity="0.5" d="M32.1428 17.9996C32.1434 19.4235 31.9266 20.8391 31.5 22.1975C31.4485 22.3689 31.3907 22.5425 31.3264 22.7182C31.2815 22.8424 31.1994 22.9498 31.0912 23.0257C30.9831 23.1017 30.8542 23.1424 30.7221 23.1425C30.6476 23.1417 30.5738 23.1286 30.5035 23.1039H30.4585L30.3621 23.0461C30.2556 22.9621 30.1783 22.8467 30.1414 22.7162C30.1044 22.5857 30.1097 22.4469 30.1564 22.3196C30.24 22.0818 30.3171 21.8439 30.3878 21.5996C31.0565 19.2724 31.0565 16.804 30.3878 14.4768C30.3428 14.3225 30.2978 14.1682 30.2464 14.0203C30.195 13.8725 30.1885 13.8468 30.1564 13.7568C30.1085 13.654 30.0886 13.5405 30.0988 13.4276C30.1089 13.3147 30.1488 13.2065 30.2142 13.1139C30.2584 13.0535 30.3128 13.0013 30.375 12.9596L30.4457 12.9211H30.51C30.6702 12.8632 30.8469 12.8713 31.0012 12.9436C31.1555 13.0159 31.2748 13.1465 31.3328 13.3068C31.3971 13.4782 31.4549 13.6518 31.5064 13.8275C31.9283 15.178 32.1429 16.5847 32.1428 17.9996Z" fill="#CBFB45"/>
<path opacity="0.5" d="M23.7859 6.42785C23.69 6.42867 23.5952 6.40663 23.5095 6.36356C21.7865 5.55094 19.9052 5.12953 18.0002 5.12953C16.0952 5.12953 14.2138 5.55094 12.4909 6.36356C12.3374 6.43643 12.1613 6.44555 12.001 6.38893C11.8408 6.33231 11.7095 6.21456 11.6359 6.06142C11.5988 5.98508 11.5772 5.90216 11.5723 5.81743C11.5675 5.7327 11.5794 5.64785 11.6075 5.56777C11.6356 5.48768 11.6793 5.41395 11.736 5.35083C11.7927 5.28771 11.8614 5.23644 11.938 5.19999C13.8342 4.30687 15.9042 3.84375 18.0002 3.84375C20.0961 3.84375 22.1662 4.30687 24.0623 5.19999C24.1967 5.26119 24.306 5.36679 24.3717 5.49906C24.4374 5.63133 24.4556 5.78218 24.4231 5.92626C24.3907 6.07035 24.3096 6.19887 24.1936 6.29021C24.0775 6.38156 23.9336 6.43016 23.7859 6.42785Z" fill="#CBFB45"/>
<path d="M20.8031 17.7036C21.0724 17.3292 21.2165 16.8791 21.2145 16.4179V16.3472C21.2188 15.8072 21.0248 15.2845 20.6693 14.8781C20.3138 14.4717 19.8216 14.2098 19.2859 14.1422V13.4993C19.2859 13.3288 19.2182 13.1653 19.0976 13.0447C18.9771 12.9242 18.8136 12.8564 18.6431 12.8564C18.4726 12.8564 18.3091 12.9242 18.1885 13.0447C18.0679 13.1653 18.0002 13.3288 18.0002 13.4993V14.1422H16.7145V13.4993C16.7145 13.3288 16.6468 13.1653 16.5262 13.0447C16.4056 12.9242 16.2421 12.8564 16.0716 12.8564C15.9011 12.8564 15.7376 12.9242 15.6171 13.0447C15.4965 13.1653 15.4288 13.3288 15.4288 13.4993V14.1422H14.7859C14.6154 14.1422 14.4519 14.2099 14.3314 14.3304C14.2108 14.451 14.1431 14.6145 14.1431 14.785C14.1431 14.9555 14.2108 15.119 14.3314 15.2396C14.4519 15.3601 14.6154 15.4279 14.7859 15.4279V20.5707C14.6154 20.5707 14.4519 20.6385 14.3314 20.759C14.2108 20.8796 14.1431 21.0431 14.1431 21.2136C14.1431 21.3841 14.2108 21.5476 14.3314 21.6682C14.4519 21.7887 14.6154 21.8564 14.7859 21.8564H15.4288V22.4993C15.4288 22.6698 15.4965 22.8333 15.6171 22.9539C15.7376 23.0744 15.9011 23.1422 16.0716 23.1422C16.2421 23.1422 16.4056 23.0744 16.5262 22.9539C16.6468 22.8333 16.7145 22.6698 16.7145 22.4993V21.8564H18.0002V22.4993C18.0002 22.6698 18.0679 22.8333 18.1885 22.9539C18.3091 23.0744 18.4726 23.1422 18.6431 23.1422C18.8136 23.1422 18.9771 23.0744 19.0976 22.9539C19.2182 22.8333 19.2859 22.6698 19.2859 22.4993V21.8564H19.6074C20.0947 21.8554 20.5685 21.6961 20.9575 21.4026C21.3465 21.1091 21.6297 20.6973 21.7646 20.229C21.8994 19.7607 21.8785 19.2613 21.7052 18.8059C21.5318 18.3505 21.2152 17.9636 20.8031 17.7036ZM18.6431 15.4279H19.0031C19.2481 15.4296 19.4825 15.5276 19.6558 15.7009C19.829 15.8741 19.9271 16.1086 19.9288 16.3536V16.4243C19.9288 16.6704 19.8315 16.9065 19.658 17.0812C19.4846 17.2558 19.2492 17.3547 19.0031 17.3564H16.0716V15.4279H18.6431ZM19.6074 20.5707H16.0716V18.6422H19.6074C19.8631 18.6422 20.1084 18.7438 20.2892 18.9246C20.47 19.1054 20.5716 19.3507 20.5716 19.6064C20.5716 19.8622 20.47 20.1075 20.2892 20.2883C20.1084 20.4691 19.8631 20.5707 19.6074 20.5707Z" fill="#CBFB45"/>
</svg>
