<svg width="180" height="22" viewBox="0 0 180 22" fill="none" xmlns="http://www.w3.org/2000/svg">
<g clip-path="url(#clip0_326_1813)">
<path d="M9.35263 6.77633C9.35263 3.62031 7.82451 0.899809 6.65911 0.0108731C6.65911 0.0108731 6.56992 -0.042821 6.58181 0.0884312C6.47478 6.21552 3.37694 7.84424 1.67045 10.0696C-0.927934 13.2793 -0.440366 17.9865 2.75261 20.5876C3.45424 21.1604 4.25694 21.6019 5.1191 21.8823C7.20613 22.4669 4.63154 20.8561 4.30451 17.4495C3.90613 13.3091 9.35263 10.1889 9.35263 6.77633Z" fill="#161617"/>
<path d="M11.3943 8.8764C11.3765 8.85254 11.3468 8.84657 11.323 8.8585C11.317 8.86447 11.3111 8.87043 11.3051 8.8764C10.9127 10.2963 10.2468 11.6327 9.34295 12.7961C5.75754 17.9089 7.8089 20.3729 8.95647 21.6615C9.61647 22.4312 8.95647 21.6615 10.6273 20.874C12.637 19.7465 13.9749 17.712 14.2127 15.4151C14.397 12.9034 13.3446 10.4633 11.3943 8.8764Z" fill="#161617"/>
<path d="M73.5206 8.42745C74.4335 8.42745 75.1735 7.68489 75.1735 6.7689C75.1735 5.85291 74.4335 5.11035 73.5206 5.11035C72.6078 5.11035 71.8677 5.85291 71.8677 6.7689C71.8677 7.68489 72.6078 8.42745 73.5206 8.42745Z" fill="#161617"/>
<path d="M27.8561 5.13086V11.5384H21.5176V5.9661C21.5176 5.50672 21.143 5.13086 20.6852 5.13086H18.5328V20.4456C18.5268 20.905 18.8955 21.2809 19.3533 21.2868H21.5593V14.1336H27.8917V20.4516C27.8917 20.911 28.2663 21.2868 28.7242 21.2868H30.8647V5.9661C30.8647 5.50672 30.4901 5.13086 30.0323 5.13086H27.8561ZM40.4259 9.13405V16.8123C40.4318 17.5103 40.0691 18.1606 39.4745 18.5246C38.4458 19.1927 37.0723 18.8944 36.4123 17.8623C36.1864 17.5103 36.0615 17.0987 36.0615 16.6811V9.96929C36.0615 9.50991 35.6869 9.13405 35.2291 9.13405H33.0885V16.9436C33.1004 19.4612 35.128 21.4956 37.6372 21.5076H38.8502C41.3594 21.4956 43.387 19.4612 43.3988 16.9436V9.96929C43.3988 9.50991 43.0242 9.13405 42.5664 9.13405H40.4259Z" fill="#161617"/>
<path d="M72.868 21.2845H75.0087V10.4084C75.0087 9.9491 74.634 9.57324 74.1762 9.57324H72.0474V20.4373C72.0415 20.9027 72.4101 21.2785 72.868 21.2845Z" fill="#161617"/>
<path d="M51.0706 9.12502C48.0857 8.9878 45.5587 11.3026 45.4219 14.2916C45.4219 14.3393 45.416 14.393 45.416 14.4408V16.1232C45.4635 19.1121 47.9252 21.4985 50.9041 21.4448C50.9576 21.4448 51.0171 21.4448 51.0706 21.4389C54.0495 21.5821 56.5766 19.2732 56.7193 16.2902C56.7193 16.2365 56.7252 16.1769 56.7252 16.1232V14.4408C56.6717 11.4458 54.2041 9.06536 51.2192 9.11905C51.1657 9.11905 51.1182 9.12502 51.0706 9.12502ZM53.7165 16.3678C53.7165 17.8533 52.5155 19.0525 51.0409 19.0525C49.5663 19.0525 48.3652 17.8473 48.3652 16.3678V14.2677C48.3652 12.7822 49.5663 11.583 51.0409 11.583C52.5155 11.583 53.7165 12.7882 53.7165 14.2677V16.3678Z" fill="#161617"/>
<path d="M64.386 9.12581C63.4703 9.12581 62.5606 9.33462 61.7341 9.74031V5.98172C61.7341 5.52234 61.3595 5.14648 60.9016 5.14648H58.7314V16.1717C58.7789 19.1606 61.2406 21.5471 64.2195 21.4934C64.273 21.4934 64.3325 21.4934 64.386 21.4874C67.3649 21.6306 69.8919 19.3217 70.0346 16.3387C70.0346 16.285 70.0406 16.2254 70.0406 16.1717V14.4893C70.0109 11.4943 67.5671 9.09001 64.5762 9.11984C64.5108 9.11984 64.4514 9.11984 64.386 9.12581ZM67.0379 16.3686C67.0379 17.8541 65.8368 19.0533 64.3622 19.0533C62.8816 19.0533 61.6865 17.8481 61.6865 16.3686V14.2685C61.6865 12.783 62.8876 11.5838 64.3622 11.5838C65.8427 11.5838 67.0379 12.7889 67.0379 14.2685V16.3686Z" fill="#161617"/>
<path d="M122.063 8.97704C121.148 8.97704 120.238 9.18585 119.411 9.59153V5.83295C119.411 5.37357 119.037 4.99771 118.579 4.99771H116.438V16.0229C116.486 19.0119 118.948 21.3983 121.926 21.3446C121.98 21.3446 122.039 21.3446 122.093 21.3386C125.072 21.4818 127.599 19.173 127.742 16.19C127.742 16.1363 127.748 16.0766 127.748 16.0229V14.3405C127.718 11.3456 125.274 8.94124 122.289 8.97107C122.218 8.97107 122.14 8.97107 122.063 8.97704ZM124.715 16.2138C124.715 17.6994 123.514 18.8985 122.039 18.8985C120.559 18.8985 119.364 17.6934 119.364 16.2138V14.1138C119.364 12.6283 120.565 11.4291 122.039 11.4291C123.52 11.4291 124.715 12.6342 124.715 14.1138V16.2138ZM94.1943 11.5962H88.391V13.1831C88.391 13.6723 88.7894 14.072 89.277 14.072H92.0359V15.4741C92.0776 16.3093 91.7862 17.1266 91.2213 17.7411C89.824 19.0596 87.6597 19.1253 86.1851 17.8903C85.4002 17.1207 85.2337 16.2795 85.2337 13.1652C85.2337 10.051 85.4002 9.22761 86.1851 8.45799C86.9283 7.8256 87.8619 7.4736 88.837 7.4557C92.0062 7.4557 93.0705 8.58328 93.8614 9.60943H93.9684V7.36025C93.9684 7.01422 93.8138 6.68609 93.5462 6.47131C92.2203 5.40936 90.8943 5.01561 88.617 5.01561C86.8748 4.96191 85.1862 5.58238 83.8899 6.75171C82.124 8.32674 82.124 10.1225 82.124 13.0698V13.3024C82.124 16.2556 82.124 18.0454 83.8899 19.6204C86.6548 21.9949 90.7516 21.9472 93.457 19.5071C94.5868 18.4153 95.0446 16.3272 95.0446 14.1914V12.4195C95.0089 11.972 94.6462 11.6141 94.1943 11.5962ZM102.768 21.285V19.4057C102.768 18.9582 102.406 18.6002 101.966 18.6002H100.473C99.2544 18.6002 99.3138 17.9857 99.3138 16.4048V5.76732C99.3138 5.31987 98.9511 4.96191 98.5111 4.96191H96.323V16.7746C96.323 19.6264 97.0544 21.2969 100.122 21.2969H102.774L102.768 21.285ZM147.381 21.3565V19.4713C147.399 19.0238 147.06 18.648 146.614 18.6301C146.608 18.6301 146.608 18.6301 146.602 18.6301H145.11C143.891 18.6301 143.95 18.0156 143.95 16.4346V5.86278C143.95 5.41533 143.588 5.05737 143.148 5.05737H140.96V16.8522C140.96 19.704 141.691 21.3744 144.759 21.3744H147.411L147.381 21.3565ZM109.499 8.95914C106.514 8.82192 103.987 11.1368 103.851 14.1257C103.851 14.1735 103.845 14.2272 103.845 14.2749V15.9692C103.892 18.9582 106.354 21.3446 109.333 21.2909C109.386 21.2909 109.446 21.2909 109.499 21.285C112.478 21.4281 115.005 19.1193 115.148 16.1363C115.148 16.0826 115.154 16.0229 115.154 15.9692V14.2868C115.106 11.2919 112.645 8.90544 109.66 8.95317C109.606 8.95317 109.553 8.95317 109.499 8.95914ZM112.151 16.1959C112.151 17.6815 110.95 18.8806 109.476 18.8806C107.995 18.8806 106.8 17.6755 106.8 16.1959V14.084C106.8 12.5984 108.001 11.3993 109.476 11.3993C110.956 11.3993 112.151 12.6044 112.151 14.084V16.1959ZM138.07 10.045C136.946 9.26937 135.596 8.88755 134.235 8.97107C133.587 8.97107 132.932 9.0188 132.29 9.10232C131.749 9.17391 130.994 9.2813 130.471 9.39466C130.257 9.44835 130.215 9.6154 130.215 9.81228V11.4172C130.215 11.7035 130.215 11.966 130.524 11.8885C131.089 11.7453 132.183 11.5067 132.475 11.453C132.98 11.3754 133.485 11.3336 133.997 11.3396C134.657 11.2919 135.323 11.447 135.894 11.7811C136.345 12.1689 136.571 12.7655 136.494 13.3561V13.4456H134.71C134.021 13.4456 133.331 13.5232 132.659 13.6843C132.035 13.8334 131.434 14.0899 130.893 14.436C130.388 14.7641 129.965 15.1996 129.656 15.7187C129.347 16.2556 129.192 16.8701 129.198 17.4906C129.181 18.1051 129.317 18.7136 129.585 19.2625C129.846 19.7517 130.233 20.1693 130.697 20.4795C131.238 20.8196 131.838 21.0523 132.463 21.1597C133.188 21.3028 133.925 21.3685 134.663 21.3625C135.245 21.3625 139.479 21.3029 139.479 19.2863V13.4516C139.574 12.1689 139.051 10.9041 138.07 10.045ZM136.458 15.7724V18.8806C136.227 18.9224 135.971 18.9582 135.697 18.988C135.031 19.0537 134.365 19.0537 133.7 18.988C133.438 18.9642 133.176 18.8926 132.938 18.7733C132.718 18.6599 132.528 18.4988 132.391 18.296C132.231 18.0275 132.159 17.7173 132.177 17.407C132.142 16.888 132.385 16.3869 132.82 16.1065C133.462 15.7604 134.187 15.6053 134.912 15.653H135.798L136.458 15.7724Z" fill="#161617"/>
</g>
<defs>
<clipPath id="clip0_326_1813">
<rect width="180" height="22" fill="white"/>
</clipPath>
</defs>
</svg>
