<svg width="136" height="26" viewBox="0 0 136 26" fill="none" xmlns="http://www.w3.org/2000/svg">
	<path d="M9.59449 9.51077C11.5273 9.51077 13.0824 10.1008 14.2617 11.2788C15.4597 12.4588 16.0588 14.2068 16.0588 16.5248V25.6018H11.5371V17.2318C11.5371 15.9748 11.2656 15.0418 10.7247 14.4318C10.1837 13.8038 9.40171 13.4898 8.37679 13.4898C7.23679 13.4898 6.32892 13.8528 5.6522 14.5798C4.97548 15.2868 4.63712 16.3478 4.63712 17.7628V25.6028H0.115479V9.74577H4.43449V11.6028C5.03449 10.9348 5.7781 10.4228 6.66728 10.0698C7.55548 9.69677 8.53122 9.50977 9.59449 9.50977V9.51077Z" fill="#161617" />
	<path d="M29.3434 22.1537C30.1548 22.1537 30.8699 22.0357 31.4876 21.7997C32.1479 21.5297 32.749 21.1293 33.2562 20.6217L35.6621 23.2737C34.1935 24.9837 32.0483 25.8377 29.2273 25.8377C27.4686 25.8377 25.9126 25.4937 24.5601 24.8067C23.2076 24.0987 22.164 23.1267 21.4293 21.8887C20.6945 20.6507 20.3276 19.2457 20.3276 17.6747C20.3276 16.1217 20.6857 14.7267 21.3998 13.4897C22.1107 12.2551 23.1444 11.245 24.386 10.5717C25.6617 9.86472 27.0909 9.51172 28.6765 9.51172C30.1647 9.51172 31.5171 9.83472 32.7348 10.4837C33.9434 11.1039 34.9499 12.0658 35.6335 13.2537C36.3673 14.4517 36.7352 15.8767 36.7352 17.5267L25.1975 19.7967C25.526 20.5817 26.0385 21.1717 26.7339 21.5647C27.4489 21.9577 28.3185 22.1547 29.3434 22.1547V22.1537ZM28.6765 12.9887C27.5355 12.9887 26.6089 13.3617 25.8929 14.1087C25.1788 14.8547 24.8011 15.8867 24.7627 17.2027L32.3581 15.6997C32.1661 14.9054 31.7037 14.2057 31.0529 13.7247C30.3958 13.2347 29.604 12.9887 28.6765 12.9887Z" fill="#161617" />
	<path d="M56.6454 9.74709V25.6021H52.3559V23.7161C51.7632 24.3991 51.0311 24.9425 50.2106 25.3081C49.3558 25.6663 48.4391 25.8465 47.5145 25.8381C45.4657 25.8381 43.8427 25.2381 42.6447 24.0401C41.4467 22.8421 40.8467 21.0641 40.8467 18.7061V9.74609H45.3693V18.0281C45.3693 20.5821 46.4218 21.8601 48.5286 21.8601C49.6106 21.8601 50.4811 21.5061 51.1382 20.7991C51.7952 20.0721 52.1237 19.0011 52.1237 17.5861V9.74609H56.6454V9.74709Z" fill="#161617" />
	<path d="M71.3867 24.8362C70.9421 25.1702 70.3913 25.4262 69.7343 25.6022C69.0793 25.7615 68.408 25.8408 67.7346 25.8382C65.8599 25.8382 64.4198 25.3572 63.4146 24.3942C62.4103 23.4312 61.9077 22.0172 61.9077 20.1502V6.24023H66.4294V10.1002H70.2851V13.6372H66.4294V20.0912C66.4294 20.7592 66.5936 21.2802 66.9221 21.6532C67.2507 22.0072 67.7248 22.1832 68.3435 22.1832C69.0389 22.1832 69.6576 21.9872 70.1985 21.5942L71.3867 24.8362Z" fill="#161617" />
	<path d="M79.4196 11.8378C79.9606 11.0718 80.6845 10.4928 81.5934 10.0998C82.5209 9.70677 83.5842 9.50977 84.7822 9.50977V13.7538C84.4445 13.7234 84.106 13.7038 83.7671 13.6948C82.4727 13.6948 81.4576 14.0678 80.7239 14.8148C79.9891 15.5418 79.6222 16.6418 79.6222 18.1148V25.6008H75.1006V9.74577H79.4186V11.8378H79.4196Z" fill="#161617" />
	<path d="M88.6304 9.74609H93.153V25.6011H88.6304V9.74609Z" fill="#161617" />
	<path d="M107.989 9.51077C109.92 9.51077 111.476 10.1008 112.655 11.2788C113.853 12.4588 114.453 14.2068 114.453 16.5248V25.6018H109.93V17.2318C109.93 15.9748 109.66 15.0418 109.119 14.4318C108.578 13.8038 107.795 13.4898 106.771 13.4898C105.631 13.4898 104.722 13.8528 104.045 14.5798C103.37 15.2868 103.031 16.3478 103.031 17.7628V25.6028H98.5085V9.74577H102.829V11.6028C103.428 10.9348 104.171 10.4228 105.06 10.0698C105.95 9.69677 106.925 9.50977 107.989 9.50977V9.51077Z" fill="#161617" />
	<path d="M127.302 25.8387C125.659 25.8387 124.181 25.4937 122.867 24.8067C121.572 24.0987 120.557 23.1267 119.823 21.8887C119.089 20.6507 118.722 19.2457 118.722 17.6747C118.722 16.1027 119.089 14.6977 119.823 13.4597C120.557 12.2227 121.572 11.2597 122.867 10.5717C124.181 9.86472 125.659 9.51172 127.302 9.51172C128.944 9.51172 130.413 9.86472 131.708 10.5717C133.003 11.2597 134.018 12.2217 134.752 13.4597C135.486 14.6977 135.853 16.1027 135.853 17.6747C135.853 19.2457 135.486 20.6507 134.752 21.8887C134.018 23.1267 133.003 24.0987 131.708 24.8067C130.413 25.4937 128.944 25.8377 127.302 25.8377V25.8387ZM127.302 22.0657C128.461 22.0657 129.409 21.6727 130.142 20.8857C130.896 20.0807 131.273 19.0107 131.273 17.6747C131.273 16.3387 130.896 15.2777 130.142 14.4917C129.409 13.6857 128.461 13.2827 127.302 13.2827C126.142 13.2827 125.186 13.6857 124.432 14.4917C123.678 15.2777 123.301 16.3387 123.301 17.6747C123.301 19.0107 123.678 20.0807 124.432 20.8867C125.186 21.6727 126.142 22.0657 127.302 22.0657Z" fill="#161617" />
	<path d="M90.8609 0.917969L94.4875 4.60497L90.8609 8.29097L87.2344 4.60497L90.8609 0.917969Z" fill="#161617" />
</svg>
