<svg width="180" height="26" viewBox="0 0 180 26" fill="none" xmlns="http://www.w3.org/2000/svg">
<g clip-path="url(#clip0_326_1786)">
<path d="M9.47902 9.37197C11.4118 9.37197 12.9669 9.96197 14.1462 11.14C15.3443 12.32 15.9433 14.068 15.9433 16.386V25.463H11.4216V17.093C11.4216 15.836 11.1502 14.903 10.6092 14.293C10.0682 13.665 9.28623 13.351 8.26131 13.351C7.12131 13.351 6.21344 13.714 5.53672 14.441C4.86 15.148 4.52164 16.209 4.52164 17.624V25.464H0V9.60697H4.31902V11.464C4.91902 10.796 5.66262 10.284 6.5518 9.93097C7.44 9.55797 8.41574 9.37097 9.47902 9.37097V9.37197Z" fill="#161617"/>
<path d="M29.2277 22.015C30.0391 22.015 30.7542 21.897 31.3719 21.661C32.0322 21.391 32.6333 20.9907 33.1404 20.483L35.5463 23.135C34.0778 24.845 31.9326 25.699 29.1116 25.699C27.3529 25.699 25.7968 25.355 24.4444 24.668C23.0919 23.96 22.0483 22.988 21.3136 21.75C20.5788 20.512 20.2119 19.107 20.2119 17.536C20.2119 15.983 20.5699 14.588 21.284 13.351C21.995 12.1164 23.0286 11.1063 24.2703 10.433C25.546 9.72605 26.9752 9.37305 28.5608 9.37305C30.049 9.37305 31.4014 9.69605 32.6191 10.345C33.8276 10.9652 34.8342 11.9271 35.5178 13.115C36.2516 14.313 36.6195 15.738 36.6195 17.388L25.0817 19.658C25.4103 20.443 25.9227 21.033 26.6181 21.426C27.3332 21.819 28.2027 22.016 29.2277 22.016V22.015ZM28.5608 12.85C27.4198 12.85 26.4932 13.223 25.7772 13.97C25.0631 14.716 24.6854 15.748 24.647 17.064L32.2424 15.561C32.0503 14.7667 31.588 14.067 30.9372 13.586C30.2801 13.096 29.4883 12.85 28.5608 12.85Z" fill="#161617"/>
<path d="M56.5301 9.60842V25.4634H52.2406V23.5774C51.648 24.2605 50.9159 24.8038 50.0954 25.1694C49.2406 25.5276 48.3238 25.7079 47.3993 25.6994C45.3505 25.6994 43.7275 25.0994 42.5295 23.9014C41.3314 22.7034 40.7314 20.9254 40.7314 18.5674V9.60742H45.2541V17.8894C45.2541 20.4434 46.3065 21.7214 48.4134 21.7214C49.4954 21.7214 50.3659 21.3674 51.0229 20.6604C51.68 19.9334 52.0085 18.8624 52.0085 17.4474V9.60742H56.5301V9.60842Z" fill="#161617"/>
<path d="M71.2715 24.6966C70.8269 25.0306 70.2761 25.2866 69.619 25.4626C68.9641 25.6219 68.2928 25.7011 67.6194 25.6986C65.7446 25.6986 64.3046 25.2176 63.2994 24.2546C62.2951 23.2916 61.7925 21.8776 61.7925 20.0106V6.10059H66.3141V9.96059H70.1699V13.4976H66.3141V19.9516C66.3141 20.6196 66.4784 21.1406 66.8069 21.5136C67.1354 21.8676 67.6095 22.0436 68.2282 22.0436C68.9236 22.0436 69.5423 21.8476 70.0833 21.4546L71.2715 24.6966Z" fill="#161617"/>
<path d="M79.3044 11.7001C79.8453 10.9341 80.5693 10.3551 81.4781 9.96207C82.4057 9.56907 83.469 9.37207 84.667 9.37207V13.6161C84.3293 13.5857 83.9908 13.5661 83.6519 13.5571C82.3575 13.5571 81.3424 13.9301 80.6086 14.6771C79.8739 15.4041 79.507 16.5041 79.507 17.9771V25.4631H74.9854V9.60807H79.3034V11.7001H79.3044Z" fill="#161617"/>
<path d="M88.5146 9.6084H93.0373V25.4634H88.5146V9.6084Z" fill="#161617"/>
<path d="M107.873 9.37197C109.805 9.37197 111.361 9.96197 112.539 11.14C113.737 12.32 114.337 14.068 114.337 16.386V25.463H109.815V17.093C109.815 15.836 109.544 14.903 109.003 14.293C108.462 13.665 107.679 13.351 106.655 13.351C105.515 13.351 104.607 13.714 103.93 14.441C103.254 15.148 102.916 16.209 102.916 17.624V25.464H98.3931V9.60697H102.713V11.464C103.312 10.796 104.056 10.284 104.945 9.93097C105.834 9.55797 106.81 9.37097 107.873 9.37097V9.37197Z" fill="#161617"/>
<path d="M127.186 25.7C125.544 25.7 124.065 25.355 122.751 24.668C121.457 23.96 120.442 22.988 119.708 21.75C118.973 20.512 118.606 19.107 118.606 17.536C118.606 15.964 118.973 14.559 119.708 13.321C120.442 12.084 121.457 11.121 122.751 10.433C124.065 9.72605 125.544 9.37305 127.186 9.37305C128.829 9.37305 130.298 9.72605 131.593 10.433C132.887 11.121 133.903 12.083 134.636 13.321C135.371 14.559 135.738 15.964 135.738 17.536C135.738 19.107 135.371 20.512 134.636 21.75C133.903 22.988 132.887 23.96 131.593 24.668C130.298 25.355 128.829 25.699 127.186 25.699V25.7ZM127.186 21.927C128.346 21.927 129.293 21.534 130.027 20.747C130.781 19.942 131.158 18.872 131.158 17.536C131.158 16.2 130.781 15.139 130.027 14.353C129.293 13.547 128.346 13.144 127.186 13.144C126.027 13.144 125.071 13.547 124.316 14.353C123.563 15.139 123.186 16.2 123.186 17.536C123.186 18.872 123.563 19.942 124.316 20.748C125.071 21.534 126.027 21.927 127.186 21.927Z" fill="#161617"/>
<path d="M90.7457 0.780273L94.3723 4.46727L90.7457 8.15327L87.1191 4.46727L90.7457 0.780273Z" fill="#161617"/>
</g>
<defs>
<clipPath id="clip0_326_1786">
<rect width="180" height="26" fill="white"/>
</clipPath>
</defs>
</svg>
