<svg width="124" height="28" viewBox="0 0 124 28" fill="none" xmlns="http://www.w3.org/2000/svg">
<path d="M18.6947 9.33571V0.0078125L0 0.0078125L0 18.6636H9.3474V9.33571H18.6947Z" fill="#161617"/>
<path d="M18.6945 9.33594V18.6638H9.34717V27.9918H28.0419V9.33594H18.6945Z" fill="#161617"/>
<path d="M104.535 9.49121H100.433V24.0013H104.535H106.301V22.2394H104.535V9.49121Z" fill="#161617"/>
<path d="M102.457 8.40281C103.652 8.40281 104.638 7.4182 104.638 6.2263C104.638 5.0344 103.652 4.0498 102.457 4.0498C101.263 4.0498 100.276 5.0344 100.276 6.2263C100.276 7.4182 101.263 8.40281 102.457 8.40281Z" fill="#161617"/>
<path d="M121.568 22.2398V14.5701C121.568 12.9118 121.153 11.5645 120.27 10.6317C119.387 9.69886 118.193 9.18066 116.635 9.18066C116.115 9.18066 115.648 9.23247 115.233 9.38797C114.817 9.49157 114.454 9.69887 114.09 9.90617C113.727 10.1135 113.415 10.3726 113.155 10.6317C112.896 10.8908 112.636 11.2017 112.376 11.5126V9.43977H108.274V23.9499H112.376V15.9175C112.376 14.9329 112.584 14.2074 113.051 13.6892C113.519 13.1709 114.142 12.9637 114.921 12.9637C115.7 12.9637 116.323 13.2228 116.79 13.6892C117.206 14.2074 117.465 14.9329 117.465 15.9175V24.0017H121.568H123.334V22.2398H121.568Z" fill="#161617"/>
<path d="M68.8592 11.0974C68.1842 10.4237 67.3532 9.9055 66.3662 9.4909C65.4322 9.1282 64.3932 8.9209 63.2512 8.9209C62.1082 8.9209 61.0702 9.1282 60.1352 9.4909C59.2002 9.9055 58.3692 10.4237 57.6422 11.0974C56.9152 11.7711 56.3962 12.6002 55.9802 13.4812C55.5652 14.414 55.4092 15.3468 55.4092 16.3832V16.4351C55.4092 17.4715 55.6172 18.4561 55.9802 19.3889C56.3962 20.3217 56.9152 21.099 57.6422 21.7727C58.3172 22.4464 59.1482 22.9646 60.1352 23.3792C61.0702 23.7419 62.1082 23.9492 63.2512 23.9492C64.3932 23.9492 65.4322 23.7419 66.3662 23.3792C67.3012 22.9646 68.1322 22.4464 68.8592 21.7727C69.5862 21.099 70.1052 20.2699 70.5212 19.3889C70.9362 18.4561 71.0922 17.5233 71.0922 16.4351V16.3832C71.0922 15.3468 70.8842 14.3622 70.5212 13.4294C70.1052 12.6002 69.5342 11.7711 68.8592 11.0974ZM67.0412 16.5387C67.0412 17.0569 66.9382 17.5751 66.7822 18.0415C66.6262 18.5079 66.3662 18.9225 66.0552 19.2853C65.7432 19.648 65.3282 19.9071 64.8602 20.1144C64.3932 20.3217 63.8742 20.4253 63.3032 20.4253C62.7312 20.4253 62.2122 20.3217 61.7452 20.1144C61.2772 19.9071 60.8622 19.5962 60.5502 19.2334C60.1872 18.8707 59.9272 18.4561 59.7712 17.9897C59.6152 17.5233 59.5122 17.0051 59.5122 16.4869V16.4351C59.5122 15.9168 59.6152 15.3986 59.7712 14.9322C59.9272 14.4658 60.1872 14.0512 60.4982 13.6885C60.8102 13.3257 61.2252 13.0666 61.6932 12.8593C62.1602 12.6521 62.6792 12.5484 63.2512 12.5484C63.8222 12.5484 64.3412 12.6521 64.8082 12.8593C65.2762 13.0666 65.6912 13.3776 66.0032 13.7403C66.3662 14.1031 66.6262 14.5176 66.7822 14.984C66.9382 15.4504 67.0412 15.9687 67.0412 16.4869V16.5387Z" fill="#161617"/>
<path d="M86.4632 11.0974C85.7882 10.4237 84.9572 9.9055 83.9702 9.4909C83.0362 9.1282 81.9972 8.9209 80.8552 8.9209C79.7122 8.9209 78.6742 9.1282 77.7392 9.4909C76.8042 9.9055 75.9732 10.4237 75.2462 11.0974C74.5192 11.7711 74.0002 12.6002 73.5842 13.4812C73.1692 14.414 73.0132 15.3468 73.0132 16.3832V16.4351C73.0132 17.4715 73.2212 18.4561 73.5842 19.3889C74.0002 20.3217 74.5192 21.099 75.2462 21.7727C75.9212 22.4464 76.7522 22.9646 77.7392 23.3792C78.6742 23.7419 79.7122 23.9492 80.8552 23.9492C81.9972 23.9492 83.0362 23.7419 83.9702 23.3792C84.9052 22.9646 85.7362 22.4464 86.4632 21.7727C87.1902 21.099 87.7092 20.2699 88.1252 19.3889C88.5402 18.4561 88.6962 17.5233 88.6962 16.4351V16.3832C88.6962 15.3468 88.4882 14.3622 88.1252 13.4294C87.7092 12.6002 87.1902 11.7711 86.4632 11.0974ZM84.6452 16.5387C84.6452 17.0569 84.5422 17.5751 84.3862 18.0415C84.2302 18.5079 83.9702 18.9225 83.6592 19.2853C83.3472 19.648 82.9322 19.9071 82.4642 20.1144C81.9972 20.3217 81.4782 20.4253 80.9072 20.4253C80.3352 20.4253 79.8162 20.3217 79.3492 20.1144C78.8812 19.9071 78.4662 19.5962 78.1542 19.2334C77.7912 18.8707 77.5312 18.4561 77.3752 17.9897C77.2192 17.5233 77.1162 17.0051 77.1162 16.4869V16.4351C77.1162 15.9168 77.2192 15.3986 77.3752 14.9322C77.5312 14.4658 77.7912 14.0512 78.1022 13.6885C78.4142 13.3257 78.8292 13.0666 79.2972 12.8593C79.7642 12.6521 80.2832 12.5484 80.8552 12.5484C81.4262 12.5484 81.9452 12.6521 82.4122 12.8593C82.8802 13.0666 83.2952 13.3776 83.6072 13.7403C83.9702 14.1031 84.2302 14.5176 84.3862 14.984C84.5422 15.4504 84.6452 15.9687 84.6452 16.4869V16.5387Z" fill="#161617"/>
<path d="M51.514 6.89964C50.891 6.32964 50.112 5.86324 49.2289 5.55234C48.3469 5.24134 47.308 5.08594 46.166 5.08594H38.48V22.2389H36.7144V24.0008H38.48H42.634V18.3523H45.802C46.841 18.3523 47.879 18.1968 48.814 17.9377C49.749 17.6786 50.58 17.264 51.255 16.694C51.93 16.1239 52.501 15.4502 52.916 14.6211C53.332 13.7919 53.488 12.8073 53.488 11.7191V11.6672C53.488 10.6826 53.332 9.80174 52.968 9.02434C52.605 8.19524 52.138 7.46974 51.514 6.89964ZM49.2289 11.7709C49.2289 12.6 48.918 13.2737 48.347 13.7919C47.775 14.362 46.945 14.6211 45.906 14.6211H42.582V8.86894H45.802C46.841 8.86894 47.672 9.12804 48.295 9.59444C48.918 10.0608 49.178 10.7863 49.178 11.7191V11.7709H49.2289Z" fill="#161617"/>
<path d="M92.4349 22.239H90.6689V24.0009H92.4349H96.5379V4.30859H92.4349V22.239Z" fill="#161617"/>
</svg>
