<svg width="63" height="50" viewBox="0 0 63 50" fill="none" xmlns="http://www.w3.org/2000/svg">
<path d="M24.09 44.999L23.5 43.909L19.19 35.999L19.07 35.769C18.7752 35.2316 18.341 34.7836 17.8131 34.4721C17.2851 34.1606 16.683 33.9972 16.07 33.999H8.92002C8.30704 33.9972 7.70491 34.1606 7.17697 34.4721C6.64903 34.7836 6.21482 35.2316 5.92001 35.769L0.910015 44.999C0.644241 45.4943 0.503493 46.047 0.500015 46.609C0.498695 47.0546 0.585478 47.496 0.755374 47.9079C0.92527 48.3198 1.17493 48.694 1.48998 49.0091C1.80503 49.3241 2.17927 49.5738 2.59116 49.7437C3.00305 49.9136 3.44446 50.0004 3.89001 49.999H21.11C22.0068 49.991 22.8647 49.632 23.5 48.999C23.8176 48.6833 24.0695 48.3078 24.2412 47.8941C24.4128 47.4805 24.5008 47.0369 24.5 46.589C24.4906 46.0341 24.3501 45.4893 24.09 44.999ZM21.09 47.999H3.89001C3.52217 47.9964 3.17014 47.8491 2.91003 47.589C2.64992 47.3289 2.50263 46.9769 2.50001 46.609C2.50184 46.3753 2.56017 46.1454 2.67001 45.939L7.67001 36.729C7.79033 36.5035 7.97091 36.3159 8.19162 36.187C8.41233 36.0581 8.6645 35.993 8.92002 35.999H16.08C16.3305 35.9986 16.5763 36.0662 16.7913 36.1948C17.0062 36.3234 17.182 36.5081 17.3 36.729L22.3 45.929C22.4089 46.1394 22.4671 46.3722 22.47 46.609C22.4701 46.9726 22.3278 47.3216 22.0736 47.5815C21.8193 47.8413 21.4734 47.9912 21.11 47.999H21.09Z" fill="#161617"/>
<path d="M27.81 35.9991L23.5 43.8991L24.09 44.9991C24.3532 45.4954 24.4938 46.0474 24.5 46.6091C24.5018 46.3754 24.5602 46.1455 24.67 45.9391L29.67 36.7291C29.8201 36.4576 30.0556 36.2432 30.34 36.1191L30.49 36.0591H30.62L27.81 35.9991ZM27.78 35.9991L23.5 43.8991L24.09 44.9991C24.3532 45.4954 24.4938 46.0474 24.5 46.6091C24.5018 46.3754 24.5602 46.1455 24.67 45.9391L29.67 36.7291C29.8201 36.4576 30.0556 36.2432 30.34 36.1191L30.49 36.0591H30.62L27.78 35.9991ZM27.75 35.9991L23.5 43.8991L24.09 44.9991C24.3532 45.4954 24.4938 46.0474 24.5 46.6091C24.5018 46.3754 24.5602 46.1455 24.67 45.9391L29.67 36.7291C29.8201 36.4576 30.0556 36.2432 30.34 36.1191L30.49 36.0591H30.62L27.75 35.9991ZM27.72 35.9991L23.5 43.8991L24.09 44.9991C24.3532 45.4954 24.4938 46.0474 24.5 46.6091C24.5018 46.3754 24.5602 46.1455 24.67 45.9391L29.67 36.7291C29.8201 36.4576 30.0556 36.2432 30.34 36.1191L30.49 36.0591H30.62L27.72 35.9991ZM27.69 35.9991L23.5 43.8991L24.09 44.9991C24.3532 45.4954 24.4938 46.0474 24.5 46.6091C24.5018 46.3754 24.5602 46.1455 24.67 45.9391L29.67 36.7291C29.8201 36.4576 30.0556 36.2432 30.34 36.1191L30.49 36.0591H30.62L27.69 35.9991ZM27.66 35.9991L23.5 43.8991L24.09 44.9991C24.3532 45.4954 24.4938 46.0474 24.5 46.6091C24.5018 46.3754 24.5602 46.1455 24.67 45.9391L29.67 36.7291C29.8201 36.4576 30.0556 36.2432 30.34 36.1191L30.49 36.0591H30.62L27.66 35.9991ZM27.66 35.9991L23.5 43.8991L24.09 44.9991C24.3532 45.4954 24.4938 46.0474 24.5 46.6091C24.5018 46.3754 24.5602 46.1455 24.67 45.9391L29.67 36.7291C29.8201 36.4576 30.0556 36.2432 30.34 36.1191L30.49 36.0591H30.62L27.66 35.9991ZM45.94 44.9991L41.04 35.9991L40.92 35.7691C40.6252 35.2317 40.191 34.7837 39.663 34.4722C39.1351 34.1607 38.533 33.9973 37.92 33.9991H30.79C30.6637 33.9847 30.5363 33.9847 30.41 33.9991C30.2841 34.0123 30.1601 34.0392 30.04 34.0791C29.9171 34.1055 29.7967 34.1423 29.68 34.1891C29.2855 34.3499 28.9231 34.5803 28.61 34.8691L28.5 34.9991C28.2846 35.2202 28.0996 35.4691 27.95 35.7391L27.83 35.9691L23.5 43.8991L22.91 44.9991C22.6442 45.4944 22.5035 46.0471 22.5 46.6091C22.5002 47.0539 22.5887 47.4941 22.7604 47.9044C22.932 48.3146 23.1834 48.6868 23.5 48.9991C23.8127 49.3152 24.1849 49.5663 24.5951 49.738C25.0053 49.9096 25.4454 49.9984 25.89 49.9991H43.11C44.0083 49.9965 44.869 49.6385 45.5042 49.0033C46.1394 48.3681 46.4974 47.5074 46.5 46.6091C46.4938 46.0474 46.3532 45.4954 46.09 44.9991H45.94ZM42.94 47.9991H25.89C25.5222 47.9965 25.1701 47.8492 24.91 47.5891C24.6499 47.329 24.5026 46.977 24.5 46.6091C24.5018 46.3754 24.5602 46.1455 24.67 45.9391L29.67 36.7291C29.8201 36.4576 30.0556 36.2432 30.34 36.1191L30.49 36.0591H30.62H37.97C38.2205 36.0586 38.4663 36.1263 38.6812 36.2549C38.8962 36.3835 39.072 36.5682 39.19 36.7891L44.19 45.9891C44.2989 46.1995 44.3571 46.4323 44.36 46.6691C44.3472 47.0043 44.2136 47.3236 43.9839 47.568C43.7541 47.8125 43.4438 47.9656 43.11 47.9991H42.94ZM27.81 35.9991L23.5 43.8991L24.09 44.9991C24.3532 45.4954 24.4938 46.0474 24.5 46.6091C24.5018 46.3754 24.5602 46.1455 24.67 45.9391L29.67 36.7291C29.8201 36.4576 30.0556 36.2432 30.34 36.1191L30.49 36.0591H30.62L27.81 35.9991ZM27.84 35.9991L23.5 43.8991L24.09 44.9991C24.3532 45.4954 24.4938 46.0474 24.5 46.6091C24.5018 46.3754 24.5602 46.1455 24.67 45.9391L29.67 36.7291C29.8201 36.4576 30.0556 36.2432 30.34 36.1191L30.49 36.0591H30.62L27.84 35.9991ZM27.87 35.9991L23.5 43.8991L24.09 44.9991C24.3532 45.4954 24.4938 46.0474 24.5 46.6091C24.5018 46.3754 24.5602 46.1455 24.67 45.9391L29.67 36.7291C29.8201 36.4576 30.0556 36.2432 30.34 36.1191L30.49 36.0591H30.62L27.87 35.9991ZM27.9 35.9991L23.5 43.8991L24.09 44.9991C24.3532 45.4954 24.4938 46.0474 24.5 46.6091C24.5018 46.3754 24.5602 46.1455 24.67 45.9391L29.67 36.7291C29.8201 36.4576 30.0556 36.2432 30.34 36.1191L30.49 36.0591H30.62L27.9 35.9991ZM27.93 35.9991L23.5 43.8991L24.09 44.9991C24.3532 45.4954 24.4938 46.0474 24.5 46.6091C24.5018 46.3754 24.5602 46.1455 24.67 45.9391L29.67 36.7291C29.8201 36.4576 30.0556 36.2432 30.34 36.1191L30.49 36.0591H30.62L27.93 35.9991ZM27.96 35.9991L23.5 43.8991L24.09 44.9991C24.3532 45.4954 24.4938 46.0474 24.5 46.6091C24.5018 46.3754 24.5602 46.1455 24.67 45.9391L29.67 36.7291C29.8201 36.4576 30.0556 36.2432 30.34 36.1191L30.49 36.0591H30.62L27.96 35.9991ZM27.99 35.9991L23.5 43.8991L24.09 44.9991C24.3532 45.4954 24.4938 46.0474 24.5 46.6091C24.5018 46.3754 24.5602 46.1455 24.67 45.9391L29.67 36.7291C29.8201 36.4576 30.0556 36.2432 30.34 36.1191L30.49 36.0591H30.62L27.99 35.9991Z" fill="#161617"/>
<path d="M25.8899 49.9995H21.1099C20.8446 49.9995 20.5903 49.8941 20.4028 49.7066C20.2152 49.5191 20.1099 49.2647 20.1099 48.9995C20.1099 48.7343 20.2152 48.4799 20.4028 48.2924C20.5903 48.1049 20.8446 47.9995 21.1099 47.9995C21.4785 47.9995 21.8321 47.8531 22.0927 47.5924C22.3534 47.3317 22.4999 46.9781 22.4999 46.6095C22.4999 46.3443 22.6052 46.0899 22.7928 45.9024C22.9803 45.7149 23.2346 45.6095 23.4999 45.6095C23.7651 45.6095 24.0194 45.7149 24.207 45.9024C24.3945 46.0899 24.4999 46.3443 24.4999 46.6095C24.495 46.7955 24.529 46.9805 24.5996 47.1527C24.6702 47.3248 24.7758 47.4804 24.9099 47.6095C25.0389 47.7435 25.1945 47.8492 25.3667 47.9198C25.5389 47.9904 25.7238 48.0243 25.9099 48.0195C26.1751 48.0195 26.4294 48.1249 26.617 48.3124C26.8045 48.4999 26.9099 48.7543 26.9099 49.0195C26.9099 49.2847 26.8045 49.5391 26.617 49.7266C26.4294 49.9141 26.1751 50.0195 25.9099 50.0195L25.8899 49.9995Z" fill="#161617"/>
<path d="M62.0898 44.9995L57.0898 35.7895C56.795 35.2521 56.3608 34.8041 55.8329 34.4926C55.305 34.1811 54.7028 34.0177 54.0898 34.0195H38.0898C37.8246 34.0195 37.5703 34.1249 37.3827 34.3124C37.1952 34.5 37.0898 34.7543 37.0898 35.0195C37.0898 35.2848 37.1952 35.5391 37.3827 35.7267C37.5703 35.9142 37.8246 36.0195 38.0898 36.0195C38.3403 36.0191 38.5862 36.0867 38.8011 36.2153C39.016 36.3439 39.1919 36.5286 39.3098 36.7495L44.3098 45.9495C44.4187 46.1599 44.4769 46.3927 44.4798 46.6295C44.4747 46.9913 44.3287 47.3368 44.0729 47.5926C43.8171 47.8484 43.4716 47.9944 43.1098 47.9995C42.8446 47.9995 42.5903 48.1049 42.4027 48.2924C42.2152 48.48 42.1098 48.7343 42.1098 48.9995C42.1098 49.2648 42.2152 49.5191 42.4027 49.7067C42.5903 49.8942 42.8446 49.9995 43.1098 49.9995H59.1098C60.0089 49.9995 60.8712 49.6424 61.5069 49.0066C62.1427 48.3709 62.4998 47.5086 62.4998 46.6095C62.4936 46.0479 62.353 45.4958 62.0898 44.9995ZM59.0898 47.9995H46.1998C46.3967 47.5625 46.4989 47.0888 46.4998 46.6095C46.4936 46.0479 46.353 45.4958 46.0898 44.9995L41.1798 35.9995H54.0798C54.3303 35.9991 54.5762 36.0667 54.7911 36.1953C55.006 36.3239 55.1819 36.5086 55.2998 36.7295L60.2998 45.9295C60.4087 46.1399 60.4669 46.3727 60.4698 46.6095C60.4699 46.9731 60.3276 47.3221 60.0734 47.582C59.8192 47.8418 59.4733 47.9917 59.1098 47.9995H59.0898Z" fill="#161617"/>
<path opacity="0.5" d="M60.4999 46.61C60.4999 46.9787 60.3535 47.3322 60.0928 47.5929C59.8321 47.8536 59.4786 48 59.1099 48H46.1999C46.3968 47.563 46.499 47.0893 46.4999 46.61C46.4937 46.0483 46.3531 45.4963 46.0899 45L41.1899 36H54.0799C54.3304 35.9995 54.5763 36.0672 54.7912 36.1958C55.0061 36.3244 55.182 36.5091 55.2999 36.73L60.2999 45.93C60.4193 46.1377 60.4878 46.3707 60.4999 46.61Z" fill="#161617"/>
<path d="M31.5001 34.21C31.3255 34.0745 31.111 34.0007 30.8901 34H16.0801C15.8149 34 15.5605 34.1054 15.373 34.2929C15.1854 34.4804 15.0801 34.7348 15.0801 35C15.0801 35.2652 15.1854 35.5196 15.373 35.7071C15.5605 35.8946 15.8149 36 16.0801 36C16.3305 35.9995 16.5764 36.0672 16.7913 36.1958C17.0062 36.3244 17.1821 36.5091 17.3001 36.73L22.3001 45.93C22.4089 46.1403 22.4672 46.3732 22.4701 46.61C22.4701 46.8752 22.5754 47.1296 22.763 47.3171C22.9505 47.5046 23.2049 47.61 23.4701 47.61C23.7353 47.61 23.9896 47.5046 24.1772 47.3171C24.3647 47.1296 24.4701 46.8752 24.4701 46.61C24.4719 46.3762 24.5302 46.1464 24.6401 45.94L29.6401 36.73C29.7902 36.4585 30.0257 36.2441 30.3101 36.12C30.3625 36.0897 30.4202 36.0693 30.4801 36.06H30.6101H30.9301H31.0401C31.1746 36.0263 31.3006 35.965 31.4101 35.88C31.5343 35.7869 31.6351 35.6661 31.7045 35.5272C31.7739 35.3884 31.8101 35.2352 31.8101 35.08C31.8321 34.9207 31.8155 34.7585 31.7615 34.6071C31.7076 34.4556 31.6179 34.3194 31.5001 34.21ZM23.5001 43.9L19.1801 36H27.8201L23.5001 43.9Z" fill="#161617"/>
<path opacity="0.5" d="M27.8099 36L23.4999 43.9L19.1899 36H27.8099Z" fill="#161617"/>
<path d="M30.1898 21.9395L30.8198 21.9995L31.4998 22.0195H30.1398V21.9395H30.1898Z" fill="#161617"/>
<path opacity="0.5" d="M49.4999 32.61C49.4999 32.7925 49.464 32.9733 49.3941 33.1419C49.3243 33.3106 49.2219 33.4638 49.0928 33.5929C48.9637 33.722 48.8105 33.8243 48.6419 33.8942C48.4732 33.964 48.2925 34 48.1099 34H35.1999C35.3968 33.563 35.499 33.0893 35.4999 32.61C35.4937 32.0483 35.3531 31.4963 35.0899 31L30.1899 22H43.0799C43.3304 21.9995 43.5763 22.0672 43.7912 22.1958C44.0061 22.3244 44.182 22.5091 44.2999 22.73L49.2999 31.93C49.4193 32.1377 49.4878 32.3707 49.4999 32.61Z" fill="#161617"/>
<path d="M42.5 9.89952C42.3097 8.07108 41.6642 6.31947 40.6225 4.80479C39.5808 3.29011 38.1761 2.06065 36.5368 1.22878C34.8975 0.396906 33.0758 -0.0108529 31.2382 0.0427669C29.4007 0.0963867 27.6059 0.609675 26.0179 1.53572C24.4298 2.46177 23.0992 3.77105 22.1476 5.34389C21.196 6.91674 20.6537 8.703 20.5704 10.5394C20.4871 12.3759 20.8653 14.2039 21.6705 15.8565C22.4758 17.509 23.6824 18.9334 25.18 19.9995C25.5019 20.2241 25.8357 20.4311 26.18 20.6195C27.1623 21.162 28.2209 21.5531 29.32 21.7795C29.6 21.8395 29.88 21.8795 30.16 21.9195H30.21L30.84 21.9795L31.5 21.9995C34.4174 21.9995 37.2153 20.8406 39.2782 18.7777C41.3411 16.7148 42.5 13.9169 42.5 10.9995C42.5 10.6295 42.5 10.2695 42.5 9.89952ZM31.5 19.9995C29.72 19.9995 27.9799 19.4717 26.4999 18.4827C25.0198 17.4938 23.8663 16.0882 23.1851 14.4437C22.5039 12.7991 22.3257 10.9895 22.6729 9.24371C23.0202 7.49788 23.8774 5.89423 25.136 4.63556C26.3947 3.37689 27.9984 2.51972 29.7442 2.17245C31.49 1.82519 33.2996 2.00342 34.9441 2.6846C36.5887 3.36579 37.9943 4.51935 38.9832 5.99939C39.9722 7.47943 40.5 9.21949 40.5 10.9995C40.5 12.1814 40.2672 13.3517 39.8149 14.4437C39.3626 15.5356 38.6997 16.5278 37.864 17.3635C37.0282 18.1992 36.0361 18.8621 34.9441 19.3144C33.8522 19.7667 32.6819 19.9995 31.5 19.9995Z" fill="#161617"/>
<path opacity="0.5" d="M40.5002 10.0899C40.3815 7.74539 39.3515 5.54001 37.6298 3.9442C35.908 2.34838 33.6309 1.48844 31.2841 1.5478C28.9374 1.60716 26.7066 2.58112 25.0678 4.26194C23.429 5.94276 22.5117 8.19739 22.5117 10.5449C22.5117 12.8925 23.429 15.1471 25.0678 16.8279C26.7066 18.5087 28.9374 19.4827 31.2841 19.542C33.6309 19.6014 35.908 18.7415 37.6298 17.1457C39.3515 15.5498 40.3815 13.3445 40.5002 10.9999C40.5154 10.6968 40.5154 10.3931 40.5002 10.0899ZM33.5002 15.9999V16.9999C33.5002 17.2651 33.3949 17.5195 33.2073 17.707C33.0198 17.8946 32.7654 17.9999 32.5002 17.9999C32.235 17.9999 31.9806 17.8946 31.7931 17.707C31.6056 17.5195 31.5002 17.2651 31.5002 16.9999V15.9999H30.5002V16.9999C30.5002 17.2651 30.3949 17.5195 30.2073 17.707C30.0198 17.8946 29.7654 17.9999 29.5002 17.9999C29.235 17.9999 28.9806 17.8946 28.7931 17.707C28.6056 17.5195 28.5002 17.2651 28.5002 16.9999V15.9999H27.5002C27.235 15.9999 26.9806 15.8946 26.7931 15.707C26.6056 15.5195 26.5002 15.2651 26.5002 14.9999C26.5002 14.7347 26.6056 14.4804 26.7931 14.2928C26.9806 14.1053 27.235 13.9999 27.5002 13.9999V7.99993C27.235 7.99993 26.9806 7.89457 26.7931 7.70703C26.6056 7.5195 26.5002 7.26514 26.5002 6.99993C26.5002 6.73471 26.6056 6.48035 26.7931 6.29282C26.9806 6.10528 27.235 5.99993 27.5002 5.99993H28.5002V4.99993C28.5002 4.73471 28.6056 4.48036 28.7931 4.29282C28.9806 4.10528 29.235 3.99993 29.5002 3.99993C29.7654 3.99993 30.0198 4.10528 30.2073 4.29282C30.3949 4.48036 30.5002 4.73471 30.5002 4.99993V5.99993H31.5002V4.99993C31.5002 4.73471 31.6056 4.48036 31.7931 4.29282C31.9806 4.10528 32.235 3.99993 32.5002 3.99993C32.7654 3.99993 33.0198 4.10528 33.2073 4.29282C33.3949 4.48036 33.5002 4.73471 33.5002 4.99993V6.17992C34.0838 6.38624 34.5892 6.768 34.9473 7.27286C35.3053 7.77772 35.4985 8.38098 35.5002 8.99993C35.4991 9.51407 35.3684 10.0196 35.1202 10.4699C35.6682 10.8191 36.0881 11.3369 36.3165 11.9452C36.545 12.5536 36.5698 13.2197 36.3871 13.8433C36.2044 14.467 35.8241 15.0144 35.3035 15.4033C34.7829 15.7923 34.1501 16.0016 33.5002 15.9999Z" fill="#161617"/>
<path opacity="0.5" d="M33.5 9C33.5 9.26522 33.3946 9.51957 33.2071 9.70711C33.0196 9.89464 32.7652 10 32.5 10H29.5V8H32.5C32.7652 8 33.0196 8.10536 33.2071 8.29289C33.3946 8.48043 33.5 8.73478 33.5 9Z" fill="#161617"/>
<path opacity="0.5" d="M34.5 13C34.5 13.2652 34.3946 13.5196 34.2071 13.7071C34.0196 13.8946 33.7652 14 33.5 14H29.5V12H33.5C33.7652 12 34.0196 12.1054 34.2071 12.2929C34.3946 12.4804 34.5 12.7348 34.5 13Z" fill="#161617"/>
</svg>
