<svg width="57" height="56" viewBox="0 0 57 56" fill="none" xmlns="http://www.w3.org/2000/svg">
<g clip-path="url(#clip0_5210_7954)">
<path d="M55.5 0H1.5C1.23478 0 0.98043 0.105357 0.792893 0.292893C0.605357 0.48043 0.5 0.734784 0.5 1L0.5 43C0.5 43.2652 0.605357 43.5196 0.792893 43.7071C0.98043 43.8946 1.23478 44 1.5 44H16.5C16.7652 44 17.0196 43.8946 17.2071 43.7071C17.3946 43.5196 17.5 43.2652 17.5 43C17.5 40.0826 18.6589 37.2847 20.7218 35.2218C22.7847 33.1589 25.5826 32 28.5 32C31.4174 32 34.2153 33.1589 36.2782 35.2218C38.3411 37.2847 39.5 40.0826 39.5 43C39.5 43.2652 39.6054 43.5196 39.7929 43.7071C39.9804 43.8946 40.2348 44 40.5 44H55.5C55.7652 44 56.0196 43.8946 56.2071 43.7071C56.3946 43.5196 56.5 43.2652 56.5 43V1C56.5 0.734784 56.3946 0.48043 56.2071 0.292893C56.0196 0.105357 55.7652 0 55.5 0V0ZM54.5 42H41.5C41.472 41.5838 41.4185 41.1697 41.34 40.76L41.22 40.15C41.22 39.95 41.12 39.76 41.07 39.56C41.0406 39.4172 41.0005 39.2768 40.95 39.14C40.909 38.9904 40.8589 38.8435 40.8 38.7C40.6378 38.221 40.444 37.7533 40.22 37.3C40.13 37.12 40.04 36.94 39.94 36.77C39.8497 36.5912 39.7496 36.4176 39.64 36.25C39.48 36 39.32 35.74 39.15 35.5C38.98 35.26 38.8 35.02 38.61 34.79C38.42 34.56 38.38 34.52 38.26 34.38L37.86 34C37.7 33.83 37.53 33.66 37.35 33.5C37.0635 33.2241 36.7595 32.9669 36.44 32.73L35.96 32.37C35.8263 32.2675 35.686 32.174 35.54 32.09C35.0425 31.7614 34.521 31.4706 33.98 31.22C33.72 31.11 33.46 30.99 33.19 30.89C32.92 30.79 32.64 30.69 32.36 30.6C32.0022 30.4835 31.6384 30.3867 31.27 30.31L30.92 30.24C29.3212 29.9334 27.6788 29.9334 26.08 30.24L25.73 30.31C25.3616 30.3867 24.9978 30.4835 24.64 30.6C24.36 30.69 24.08 30.78 23.81 30.89C23.54 31 23.28 31.11 23.02 31.22C22.479 31.4706 21.9575 31.7614 21.46 32.09C21.314 32.174 21.1737 32.2675 21.04 32.37L20.56 32.73L20.12 33.08C19.9562 33.2119 19.7994 33.352 19.65 33.5C19.47 33.66 19.3 33.83 19.14 34L18.78 34.39C18.66 34.53 18.54 34.66 18.43 34.8C18.32 34.94 18.06 35.27 17.89 35.51C17.72 35.75 17.56 36.01 17.4 36.26C17.2904 36.4276 17.1903 36.6012 17.1 36.78C17 36.95 16.91 37.13 16.82 37.31C16.596 37.7633 16.4022 38.231 16.24 38.71C16.1811 38.8535 16.131 39.0004 16.09 39.15C16.0395 39.2868 15.9994 39.4272 15.97 39.57C15.92 39.77 15.86 39.96 15.82 40.16L15.7 40.77C15.6084 41.1756 15.5417 41.5863 15.5 42H2.5V2H54.5V42Z" fill="#161617"/>
<path d="M55.5 0H1.5C1.23478 0 0.98043 0.105357 0.792893 0.292893C0.605357 0.48043 0.5 0.734784 0.5 1L0.5 9C0.5 9.26522 0.605357 9.51957 0.792893 9.70711C0.98043 9.89464 1.23478 10 1.5 10H55.5C55.7652 10 56.0196 9.89464 56.2071 9.70711C56.3946 9.51957 56.5 9.26522 56.5 9V1C56.5 0.734784 56.3946 0.48043 56.2071 0.292893C56.0196 0.105357 55.7652 0 55.5 0V0ZM54.5 8H2.5V2H54.5V8Z" fill="#161617"/>
<path opacity="0.5" d="M2.5 2V8H54.5V2H2.5ZM6.5 6C6.30222 6 6.10888 5.94135 5.94443 5.83147C5.77998 5.72159 5.65181 5.56541 5.57612 5.38268C5.50043 5.19996 5.48063 4.99889 5.51921 4.80491C5.5578 4.61093 5.65304 4.43275 5.79289 4.29289C5.93275 4.15304 6.11093 4.0578 6.30491 4.01921C6.49889 3.98063 6.69996 4.00043 6.88268 4.07612C7.06541 4.15181 7.22159 4.27998 7.33147 4.44443C7.44135 4.60888 7.5 4.80222 7.5 5C7.5 5.26522 7.39464 5.51957 7.20711 5.70711C7.01957 5.89464 6.76522 6 6.5 6ZM10.5 6C10.3022 6 10.1089 5.94135 9.94443 5.83147C9.77998 5.72159 9.65181 5.56541 9.57612 5.38268C9.50043 5.19996 9.48063 4.99889 9.51921 4.80491C9.5578 4.61093 9.65304 4.43275 9.79289 4.29289C9.93275 4.15304 10.1109 4.0578 10.3049 4.01921C10.4989 3.98063 10.7 4.00043 10.8827 4.07612C11.0654 4.15181 11.2216 4.27998 11.3315 4.44443C11.4414 4.60888 11.5 4.80222 11.5 5C11.5 5.26522 11.3946 5.51957 11.2071 5.70711C11.0196 5.89464 10.7652 6 10.5 6ZM14.5 6C14.3022 6 14.1089 5.94135 13.9444 5.83147C13.78 5.72159 13.6518 5.56541 13.5761 5.38268C13.5004 5.19996 13.4806 4.99889 13.5192 4.80491C13.5578 4.61093 13.653 4.43275 13.7929 4.29289C13.9327 4.15304 14.1109 4.0578 14.3049 4.01921C14.4989 3.98063 14.7 4.00043 14.8827 4.07612C15.0654 4.15181 15.2216 4.27998 15.3315 4.44443C15.4414 4.60888 15.5 4.80222 15.5 5C15.5 5.26522 15.3946 5.51957 15.2071 5.70711C15.0196 5.89464 14.7652 6 14.5 6Z" fill="#161617"/>
<path d="M27.5002 24C27.3686 24.0008 27.2381 23.9755 27.1163 23.9258C26.9944 23.876 26.8836 23.8027 26.7902 23.71L22.7902 19.71C22.6019 19.5217 22.4961 19.2663 22.4961 19C22.4961 18.7337 22.6019 18.4783 22.7902 18.29C22.9785 18.1017 23.2339 17.9959 23.5002 17.9959C23.7665 17.9959 24.0219 18.1017 24.2102 18.29L28.2102 22.29C28.3039 22.383 28.3783 22.4936 28.4291 22.6154C28.4798 22.7373 28.506 22.868 28.506 23C28.506 23.132 28.4798 23.2627 28.4291 23.3846C28.3783 23.5064 28.3039 23.617 28.2102 23.71C28.1167 23.8027 28.0059 23.876 27.8841 23.9258C27.7623 23.9755 27.6318 24.0008 27.5002 24Z" fill="#161617"/>
<path d="M27.4999 24C27.3683 24.0008 27.2379 23.9755 27.116 23.9258C26.9942 23.876 26.8834 23.8027 26.7899 23.71C26.6962 23.617 26.6218 23.5064 26.571 23.3846C26.5203 23.2627 26.4941 23.132 26.4941 23C26.4941 22.868 26.5203 22.7373 26.571 22.6154C26.6218 22.4936 26.6962 22.383 26.7899 22.29L34.7899 14.29C34.9782 14.1017 35.2336 13.9959 35.4999 13.9959C35.7662 13.9959 36.0216 14.1017 36.2099 14.29C36.3982 14.4783 36.504 14.7337 36.504 15C36.504 15.2663 36.3982 15.5217 36.2099 15.71L28.2099 23.71C28.1165 23.8027 28.0057 23.876 27.8838 23.9258C27.762 23.9755 27.6315 24.0008 27.4999 24Z" fill="#161617"/>
<path d="M41.5 41.9997C41.4719 41.5835 41.4185 41.1694 41.34 40.7597L41.22 40.1497C41.22 39.9497 41.12 39.7597 41.07 39.5597C41.0406 39.4169 41.0005 39.2765 40.95 39.1397C40.909 38.9901 40.8589 38.8432 40.8 38.6997C40.6378 38.2207 40.444 37.753 40.22 37.2997C40.13 37.1197 40.04 36.9397 39.94 36.7697C39.8497 36.5909 39.7496 36.4173 39.64 36.2497C39.48 35.9997 39.32 35.7397 39.15 35.4997C38.98 35.2597 38.8 35.0197 38.61 34.7897C38.42 34.5597 38.38 34.5197 38.26 34.3797L37.86 33.9997C37.7 33.8297 37.53 33.6597 37.35 33.4997C37.0635 33.2238 36.7595 32.9666 36.44 32.7297L35.96 32.3697C35.8263 32.2672 35.686 32.1737 35.54 32.0897C35.0425 31.7611 34.521 31.4703 33.98 31.2197C33.72 31.1097 33.46 30.9897 33.19 30.8897C32.92 30.7897 32.64 30.6897 32.36 30.5997C32.0022 30.4832 31.6383 30.3864 31.27 30.3097L30.92 30.2397C29.3212 29.9331 27.6787 29.9331 26.08 30.2397L25.73 30.3097C25.3616 30.3864 24.9977 30.4832 24.64 30.5997C24.36 30.6897 24.08 30.7797 23.81 30.8897C23.54 30.9997 23.28 31.1097 23.02 31.2197C22.479 31.4703 21.9575 31.7611 21.46 32.0897C21.314 32.1737 21.1737 32.2672 21.04 32.3697L20.56 32.7297L20.12 33.0797C19.9562 33.2116 19.7993 33.3517 19.65 33.4997C19.47 33.6597 19.3 33.8297 19.14 33.9997L18.78 34.3897C18.66 34.5297 18.54 34.6597 18.43 34.7997C18.32 34.9397 18.06 35.2697 17.89 35.5097C17.72 35.7497 17.56 36.0097 17.4 36.2597C17.2904 36.4273 17.1902 36.6009 17.1 36.7797C17 36.9497 16.91 37.1297 16.82 37.3097C16.5959 37.763 16.4022 38.2307 16.24 38.7097C16.1811 38.8532 16.131 39.0001 16.09 39.1497C16.0395 39.2865 15.9994 39.4269 15.97 39.5697C15.92 39.7697 15.86 39.9597 15.82 40.1597L15.7 40.7697C15.6084 41.1753 15.5416 41.586 15.5 41.9997C15.5 42.3297 15.5 42.6597 15.5 42.9997C15.4964 43.3337 15.5131 43.6677 15.55 43.9997C15.7551 47.3017 17.2113 50.4012 19.6221 52.6669C22.0328 54.9325 25.2167 56.1939 28.525 56.1939C31.8333 56.1939 35.0172 54.9325 37.4279 52.6669C39.8386 50.4012 41.2949 47.3017 41.5 43.9997C41.5 43.6697 41.5 43.3397 41.5 42.9997C41.5 42.6597 41.5 42.3297 41.5 41.9997ZM28.5 53.9997C26.3244 53.9997 24.1976 53.3546 22.3887 52.1459C20.5798 50.9372 19.1699 49.2192 18.3373 47.2092C17.5047 45.1992 17.2869 42.9875 17.7113 40.8537C18.1358 38.7199 19.1834 36.7599 20.7218 35.2215C22.2602 33.6831 24.2202 32.6355 26.354 32.2111C28.4878 31.7866 30.6995 32.0045 32.7095 32.837C34.7195 33.6696 36.4374 35.0795 37.6461 36.8884C38.8548 38.6974 39.5 40.8241 39.5 42.9997C39.5 45.9171 38.3411 48.715 36.2782 50.7779C34.2153 52.8408 31.4174 53.9997 28.5 53.9997Z" fill="#161617"/>
<path opacity="0.5" d="M28.5 32C26.3244 32 24.1977 32.6451 22.3887 33.8538C20.5798 35.0625 19.1699 36.7805 18.3373 38.7905C17.5048 40.8005 17.2869 43.0122 17.7114 45.146C18.1358 47.2798 19.1835 49.2398 20.7218 50.7782C22.2602 52.3166 24.2202 53.3642 26.354 53.7886C28.4878 54.2131 30.6995 53.9952 32.7095 53.1627C34.7195 52.3301 36.4375 50.9202 37.6462 49.1113C38.8549 47.3023 39.5 45.1756 39.5 43C39.5 40.0826 38.3411 37.2847 36.2782 35.2218C34.2153 33.1589 31.4174 32 28.5 32ZM31 49H30.5V50C30.5 50.2652 30.3946 50.5196 30.2071 50.7071C30.0196 50.8946 29.7652 51 29.5 51C29.2348 51 28.9804 50.8946 28.7929 50.7071C28.6054 50.5196 28.5 50.2652 28.5 50V49H26.5V50C26.5 50.2652 26.3946 50.5196 26.2071 50.7071C26.0196 50.8946 25.7652 51 25.5 51C25.2348 51 24.9804 50.8946 24.7929 50.7071C24.6054 50.5196 24.5 50.2652 24.5 50V49H23.5C23.2348 49 22.9804 48.8946 22.7929 48.7071C22.6054 48.5196 22.5 48.2652 22.5 48C22.5 47.7348 22.6054 47.4804 22.7929 47.2929C22.9804 47.1054 23.2348 47 23.5 47V39C23.2348 39 22.9804 38.8946 22.7929 38.7071C22.6054 38.5196 22.5 38.2652 22.5 38C22.5 37.7348 22.6054 37.4804 22.7929 37.2929C22.9804 37.1054 23.2348 37 23.5 37H24.5V36C24.5 35.7348 24.6054 35.4804 24.7929 35.2929C24.9804 35.1054 25.2348 35 25.5 35C25.7652 35 26.0196 35.1054 26.2071 35.2929C26.3946 35.4804 26.5 35.7348 26.5 36V37H28.5V36C28.5 35.7348 28.6054 35.4804 28.7929 35.2929C28.9804 35.1054 29.2348 35 29.5 35C29.7652 35 30.0196 35.1054 30.2071 35.2929C30.3946 35.4804 30.5 35.7348 30.5 36V37C31.329 37.1069 32.0907 37.512 32.6428 38.1395C33.1949 38.7671 33.4996 39.5742 33.5 40.41V40.53C33.5065 41.248 33.2822 41.9492 32.86 42.53C33.3705 42.8444 33.7902 43.2865 34.0778 43.8126C34.3654 44.3386 34.5109 44.9306 34.5 45.53C34.4921 46.453 34.1199 47.3356 33.4643 47.9855C32.8088 48.6354 31.9231 49 31 49Z" fill="#161617"/>
<g opacity="0.5">
<path opacity="0.5" d="M31.5 40.44V40.56C31.4974 40.9411 31.3448 41.3059 31.0753 41.5753C30.8059 41.8448 30.4411 41.9974 30.06 42H25.5V39H30.06C30.4411 39.0026 30.8059 39.1552 31.0753 39.4247C31.3448 39.6941 31.4974 40.0589 31.5 40.44Z" fill="#161617"/>
</g>
<g opacity="0.5">
<path opacity="0.5" d="M32.5 45.5C32.5 45.8978 32.342 46.2794 32.0607 46.5607C31.7794 46.842 31.3978 47 31 47H25.5V44H31C31.3978 44 31.7794 44.158 32.0607 44.4393C32.342 44.7206 32.5 45.1022 32.5 45.5Z" fill="#161617"/>
</g>
<g opacity="0.5">
<path opacity="0.5" d="M14.5 15H7.5C7.23478 15 6.98043 14.8946 6.79289 14.7071C6.60536 14.5196 6.5 14.2652 6.5 14C6.5 13.7348 6.60536 13.4804 6.79289 13.2929C6.98043 13.1054 7.23478 13 7.5 13H14.5C14.7652 13 15.0196 13.1054 15.2071 13.2929C15.3946 13.4804 15.5 13.7348 15.5 14C15.5 14.2652 15.3946 14.5196 15.2071 14.7071C15.0196 14.8946 14.7652 15 14.5 15Z" fill="#161617"/>
</g>
<g opacity="0.5">
<path opacity="0.5" d="M14.5 19H7.5C7.23478 19 6.98043 18.8946 6.79289 18.7071C6.60536 18.5196 6.5 18.2652 6.5 18C6.5 17.7348 6.60536 17.4804 6.79289 17.2929C6.98043 17.1054 7.23478 17 7.5 17H14.5C14.7652 17 15.0196 17.1054 15.2071 17.2929C15.3946 17.4804 15.5 17.7348 15.5 18C15.5 18.2652 15.3946 18.5196 15.2071 18.7071C15.0196 18.8946 14.7652 19 14.5 19Z" fill="#161617"/>
</g>
</g>
<defs>
<clipPath id="clip0_5210_7954">
<rect width="56" height="56" fill="white" transform="translate(0.5)"/>
</clipPath>
</defs>
</svg>
