<svg width="36" height="36" viewBox="0 0 36 36" fill="none" xmlns="http://www.w3.org/2000/svg">
	<g clip-path="url(#clip0_356_2354)">
		<path d="M25.4636 33.5574C24.7438 33.0191 24.1594 32.3206 23.7565 31.5172C23.3537 30.7138 23.1436 29.8276 23.1429 28.9288C23.1386 27.6752 23.5475 26.4552 24.3064 25.4574C24.379 25.362 24.4234 25.2483 24.4348 25.129C24.4462 25.0098 24.424 24.8897 24.3707 24.7824C24.3163 24.6744 24.2326 24.5839 24.1291 24.5214C24.0256 24.4589 23.9066 24.4268 23.7857 24.4288H2.57143C1.88944 24.4288 1.23539 24.6997 0.753154 25.182C0.270918 25.6642 0 26.3182 0 27.0002L0 32.1431C0 32.8251 0.270918 33.4791 0.753154 33.9614C1.23539 34.4436 1.88944 34.7145 2.57143 34.7145H25.0714C25.2064 34.7145 25.3379 34.6721 25.4473 34.5932C25.5568 34.5143 25.6386 34.403 25.6813 34.275C25.724 34.1469 25.7253 34.0088 25.685 33.88C25.6448 33.7512 25.5651 33.6383 25.4571 33.5574H25.4636ZM2.57143 33.4288C2.23044 33.4288 1.90341 33.2933 1.66229 33.0522C1.42117 32.8111 1.28571 32.4841 1.28571 32.1431V27.0002C1.28571 26.6592 1.42117 26.3322 1.66229 26.0911C1.90341 25.85 2.23044 25.7145 2.57143 25.7145H22.6286C22.545 25.8817 22.4679 26.0488 22.3971 26.2224C22.3264 26.3959 22.2879 26.4924 22.2364 26.6338C22.2364 26.6338 22.2364 26.6917 22.2364 26.7238C22.1783 26.8904 22.1289 27.0599 22.0886 27.2317C22.0436 27.3988 22.0114 27.5724 21.9793 27.7459V27.9002C21.9544 28.0383 21.9394 28.1779 21.9343 28.3181C21.9312 28.3372 21.9312 28.3568 21.9343 28.3759C21.8987 28.5587 21.873 28.7433 21.8571 28.9288C21.8571 29.0702 21.8571 29.2052 21.8571 29.3402C21.8633 29.4715 21.8762 29.6024 21.8957 29.7324C21.9094 29.8986 21.933 30.0639 21.9664 30.2274C21.9664 30.3302 22.0114 30.4331 22.0307 30.5359C22.1003 30.8291 22.1905 31.117 22.3007 31.3974C22.3469 31.5403 22.4028 31.6799 22.4679 31.8152C22.4679 31.8795 22.5257 31.9438 22.5579 32.0081C22.59 32.0724 22.7121 32.3167 22.8021 32.4645C22.8866 32.6184 22.9811 32.7666 23.085 32.9081C23.2026 33.0895 23.3314 33.2634 23.4707 33.4288H2.57143Z" fill="#CBFB45" />
		<path opacity="0.5" d="M23.0978 32.9074C22.9938 32.766 22.8993 32.6178 22.8149 32.4639C22.7249 32.316 22.6478 32.1617 22.5706 32.0074C22.4935 31.8532 22.5064 31.8789 22.4806 31.8146C22.4156 31.6792 22.3597 31.5396 22.3135 31.3967C22.2033 31.1163 22.1131 30.8284 22.0435 30.5353C22.0435 30.4324 21.9985 30.3296 21.9792 30.2267C21.9458 30.0633 21.9222 29.898 21.9085 29.7317C21.889 29.6018 21.8761 29.4709 21.8699 29.3396C21.8699 29.2046 21.8699 29.0696 21.8699 28.9282C21.8602 28.744 21.8602 28.5595 21.8699 28.3753C21.8668 28.3561 21.8668 28.3366 21.8699 28.3174C21.875 28.1773 21.8901 28.0376 21.9149 27.8996V27.7453C21.9471 27.5717 21.9792 27.3982 22.0242 27.231C22.0646 27.0593 22.1139 26.8897 22.1721 26.7232C22.1721 26.7232 22.1721 26.6653 22.1721 26.6332C22.2235 26.4917 22.2749 26.3567 22.3328 26.2217C22.3906 26.0867 22.4806 25.881 22.5642 25.7139H2.57136C2.23037 25.7139 1.90334 25.8493 1.66222 26.0904C1.4211 26.3316 1.28564 26.6586 1.28564 26.9996V32.1424C1.28564 32.4834 1.4211 32.8105 1.66222 33.0516C1.90334 33.2927 2.23037 33.4282 2.57136 33.4282H23.4835C23.3442 33.2628 23.2154 33.0889 23.0978 32.9074ZM4.49993 30.8567C4.49993 31.0272 4.4322 31.1907 4.31164 31.3113C4.19108 31.4319 4.02757 31.4996 3.85707 31.4996C3.68658 31.4996 3.52306 31.4319 3.4025 31.3113C3.28195 31.1907 3.21422 31.0272 3.21422 30.8567V28.2853C3.21422 28.1148 3.28195 27.9513 3.4025 27.8307C3.52306 27.7102 3.68658 27.6424 3.85707 27.6424C4.02757 27.6424 4.19108 27.7102 4.31164 27.8307C4.4322 27.9513 4.49993 28.1148 4.49993 28.2853V30.8567ZM7.07136 30.8567C7.07136 31.0272 7.00363 31.1907 6.88307 31.3113C6.76251 31.4319 6.599 31.4996 6.4285 31.4996C6.258 31.4996 6.09449 31.4319 5.97393 31.3113C5.85337 31.1907 5.78564 31.0272 5.78564 30.8567V28.2853C5.78564 28.1148 5.85337 27.9513 5.97393 27.8307C6.09449 27.7102 6.258 27.6424 6.4285 27.6424C6.599 27.6424 6.76251 27.7102 6.88307 27.8307C7.00363 27.9513 7.07136 28.1148 7.07136 28.2853V30.8567ZM9.64279 30.8567C9.64279 31.0272 9.57506 31.1907 9.4545 31.3113C9.33394 31.4319 9.17043 31.4996 8.99993 31.4996C8.82943 31.4996 8.66592 31.4319 8.54536 31.3113C8.4248 31.1907 8.35707 31.0272 8.35707 30.8567V28.2853C8.35707 28.1148 8.4248 27.9513 8.54536 27.8307C8.66592 27.7102 8.82943 27.6424 8.99993 27.6424C9.17043 27.6424 9.33394 27.7102 9.4545 27.8307C9.57506 27.9513 9.64279 28.1148 9.64279 28.2853V30.8567ZM20.1921 30.4774C19.9521 30.7189 19.6261 30.8553 19.2856 30.8567H12.8571C12.5161 30.8567 12.1891 30.7213 11.9479 30.4801C11.7068 30.239 11.5714 29.912 11.5714 29.571C11.5714 29.23 11.7068 28.903 11.9479 28.6619C12.1891 28.4208 12.5161 28.2853 12.8571 28.2853H19.2856C19.6266 28.2853 19.9537 28.4208 20.1948 28.6619C20.4359 28.903 20.5714 29.23 20.5714 29.571C20.5699 29.9115 20.4335 30.2374 20.1921 30.4774Z" fill="#CBFB45" />
		<path d="M27 0H2.57143C1.88944 0 1.23539 0.270918 0.753154 0.753154C0.270918 1.23539 0 1.88944 0 2.57143L0 7.71429C0 8.39627 0.270918 9.05032 0.753154 9.53256C1.23539 10.0148 1.88944 10.2857 2.57143 10.2857H27C27.682 10.2857 28.336 10.0148 28.8183 9.53256C29.3005 9.05032 29.5714 8.39627 29.5714 7.71429V2.57143C29.5714 1.88944 29.3005 1.23539 28.8183 0.753154C28.336 0.270918 27.682 0 27 0V0ZM28.2857 7.71429C28.2857 8.05528 28.1503 8.38231 27.9091 8.62342C27.668 8.86454 27.341 9 27 9H2.57143C2.23044 9 1.90341 8.86454 1.66229 8.62342C1.42117 8.38231 1.28571 8.05528 1.28571 7.71429V2.57143C1.28571 2.23044 1.42117 1.90341 1.66229 1.66229C1.90341 1.42117 2.23044 1.28571 2.57143 1.28571H27C27.341 1.28571 27.668 1.42117 27.9091 1.66229C28.1503 1.90341 28.2857 2.23044 28.2857 2.57143V7.71429Z" fill="#CBFB45" />
		<path opacity="0.5" d="M26.9999 1.28613H2.57136C2.23037 1.28613 1.90334 1.42159 1.66222 1.66271C1.4211 1.90383 1.28564 2.23085 1.28564 2.57185V7.7147C1.28564 8.0557 1.4211 8.38272 1.66222 8.62384C1.90334 8.86496 2.23037 9.00042 2.57136 9.00042H26.9999C27.3409 9.00042 27.6679 8.86496 27.9091 8.62384C28.1502 8.38272 28.2856 8.0557 28.2856 7.7147V2.57185C28.2856 2.23085 28.1502 1.90383 27.9091 1.66271C27.6679 1.42159 27.3409 1.28613 26.9999 1.28613ZM4.49993 6.42899C4.49993 6.59949 4.4322 6.763 4.31164 6.88356C4.19108 7.00412 4.02757 7.07185 3.85707 7.07185C3.68658 7.07185 3.52306 7.00412 3.4025 6.88356C3.28195 6.763 3.21422 6.59949 3.21422 6.42899V3.85756C3.21422 3.68707 3.28195 3.52355 3.4025 3.40299C3.52306 3.28243 3.68658 3.2147 3.85707 3.2147C4.02757 3.2147 4.19108 3.28243 4.31164 3.40299C4.4322 3.52355 4.49993 3.68707 4.49993 3.85756V6.42899ZM7.07136 6.42899C7.07136 6.59949 7.00363 6.763 6.88307 6.88356C6.76251 7.00412 6.599 7.07185 6.4285 7.07185C6.258 7.07185 6.09449 7.00412 5.97393 6.88356C5.85337 6.763 5.78564 6.59949 5.78564 6.42899V3.85756C5.78564 3.68707 5.85337 3.52355 5.97393 3.40299C6.09449 3.28243 6.258 3.2147 6.4285 3.2147C6.599 3.2147 6.76251 3.28243 6.88307 3.40299C7.00363 3.52355 7.07136 3.68707 7.07136 3.85756V6.42899ZM9.64279 6.42899C9.64279 6.59949 9.57506 6.763 9.4545 6.88356C9.33394 7.00412 9.17043 7.07185 8.99993 7.07185C8.82943 7.07185 8.66592 7.00412 8.54536 6.88356C8.4248 6.763 8.35707 6.59949 8.35707 6.42899V3.85756C8.35707 3.68707 8.4248 3.52355 8.54536 3.40299C8.66592 3.28243 8.82943 3.2147 8.99993 3.2147C9.17043 3.2147 9.33394 3.28243 9.4545 3.40299C9.57506 3.52355 9.64279 3.68707 9.64279 3.85756V6.42899ZM20.1921 6.0497C19.9521 6.29115 19.6261 6.42755 19.2856 6.42899H12.8571C12.5161 6.42899 12.1891 6.29353 11.9479 6.05241C11.7068 5.81129 11.5714 5.48427 11.5714 5.14328C11.5714 4.80228 11.7068 4.47526 11.9479 4.23414C12.1891 3.99302 12.5161 3.85756 12.8571 3.85756H19.2856C19.6266 3.85756 19.9537 3.99302 20.1948 4.23414C20.4359 4.47526 20.5714 4.80228 20.5714 5.14328C20.5699 5.48372 20.4335 5.80969 20.1921 6.0497ZM24.4285 6.42899C24.1742 6.42899 23.9256 6.35358 23.7142 6.21231C23.5028 6.07103 23.338 5.87023 23.2407 5.6353C23.1433 5.40036 23.1179 5.14185 23.1675 4.89245C23.2171 4.64304 23.3396 4.41395 23.5194 4.23414C23.6992 4.05433 23.9283 3.93188 24.1777 3.88227C24.4271 3.83266 24.6856 3.85812 24.9205 3.95543C25.1555 4.05274 25.3563 4.21754 25.4975 4.42897C25.6388 4.64041 25.7142 4.88899 25.7142 5.14328C25.7142 5.48427 25.5788 5.81129 25.3376 6.05241C25.0965 6.29353 24.7695 6.42899 24.4285 6.42899Z" fill="#CBFB45" />
		<path d="M27 12.2139H2.57143C1.88944 12.2139 1.23539 12.4848 0.753154 12.967C0.270918 13.4493 0 14.1033 0 14.7853L0 19.9282C0 20.6101 0.270918 21.2642 0.753154 21.7464C1.23539 22.2287 1.88944 22.4996 2.57143 22.4996H27C27.682 22.4996 28.336 22.2287 28.8183 21.7464C29.3005 21.2642 29.5714 20.6101 29.5714 19.9282V14.7853C29.5714 14.1033 29.3005 13.4493 28.8183 12.967C28.336 12.4848 27.682 12.2139 27 12.2139ZM2.57143 21.2139C2.23044 21.2139 1.90341 21.0784 1.66229 20.8373C1.42117 20.5962 1.28571 20.2691 1.28571 19.9282V14.7853C1.28571 14.4443 1.42117 14.1173 1.66229 13.8762C1.90341 13.635 2.23044 13.4996 2.57143 13.4996H27C27.341 13.4996 27.668 13.635 27.9091 13.8762C28.1503 14.1173 28.2857 14.4443 28.2857 14.7853V19.9282C28.2857 20.2691 28.1503 20.5962 27.9091 20.8373C27.668 21.0784 27.341 21.2139 27 21.2139H2.57143Z" fill="#CBFB45" />
		<path opacity="0.5" d="M26.9999 13.5H2.57136C2.23037 13.5 1.90334 13.6355 1.66222 13.8766C1.4211 14.1177 1.28564 14.4447 1.28564 14.7857V19.9286C1.28564 20.2696 1.4211 20.5966 1.66222 20.8377C1.90334 21.0788 2.23037 21.2143 2.57136 21.2143H26.9999C27.3409 21.2143 27.6679 21.0788 27.9091 20.8377C28.1502 20.5966 28.2856 20.2696 28.2856 19.9286V14.7857C28.2856 14.4447 28.1502 14.1177 27.9091 13.8766C27.6679 13.6355 27.3409 13.5 26.9999 13.5ZM4.49993 18.6429C4.49993 18.8134 4.4322 18.9769 4.31164 19.0974C4.19108 19.218 4.02757 19.2857 3.85707 19.2857C3.68658 19.2857 3.52306 19.218 3.4025 19.0974C3.28195 18.9769 3.21422 18.8134 3.21422 18.6429V16.0714C3.21422 15.9009 3.28195 15.7374 3.4025 15.6169C3.52306 15.4963 3.68658 15.4286 3.85707 15.4286C4.02757 15.4286 4.19108 15.4963 4.31164 15.6169C4.4322 15.7374 4.49993 15.9009 4.49993 16.0714V18.6429ZM7.07136 18.6429C7.07136 18.8134 7.00363 18.9769 6.88307 19.0974C6.76251 19.218 6.599 19.2857 6.4285 19.2857C6.258 19.2857 6.09449 19.218 5.97393 19.0974C5.85337 18.9769 5.78564 18.8134 5.78564 18.6429V16.0714C5.78564 15.9009 5.85337 15.7374 5.97393 15.6169C6.09449 15.4963 6.258 15.4286 6.4285 15.4286C6.599 15.4286 6.76251 15.4963 6.88307 15.6169C7.00363 15.7374 7.07136 15.9009 7.07136 16.0714V18.6429ZM9.64279 18.6429C9.64279 18.8134 9.57506 18.9769 9.4545 19.0974C9.33394 19.218 9.17043 19.2857 8.99993 19.2857C8.82943 19.2857 8.66592 19.218 8.54536 19.0974C8.4248 18.9769 8.35707 18.8134 8.35707 18.6429V16.0714C8.35707 15.9009 8.4248 15.7374 8.54536 15.6169C8.66592 15.4963 8.82943 15.4286 8.99993 15.4286C9.17043 15.4286 9.33394 15.4963 9.4545 15.6169C9.57506 15.7374 9.64279 15.9009 9.64279 16.0714V18.6429ZM20.1921 18.2636C19.9521 18.505 19.6261 18.6414 19.2856 18.6429H12.8571C12.5161 18.6429 12.1891 18.5074 11.9479 18.2663C11.7068 18.0252 11.5714 17.6981 11.5714 17.3571C11.5714 17.0162 11.7068 16.6891 11.9479 16.448C12.1891 16.2069 12.5161 16.0714 12.8571 16.0714H19.2856C19.6266 16.0714 19.9537 16.2069 20.1948 16.448C20.4359 16.6891 20.5714 17.0162 20.5714 17.3571C20.5699 17.6976 20.4335 18.0236 20.1921 18.2636ZM24.4285 18.6429C24.1742 18.6429 23.9256 18.5675 23.7142 18.4262C23.5028 18.2849 23.338 18.0841 23.2407 17.8492C23.1433 17.6142 23.1179 17.3557 23.1675 17.1063C23.2171 16.8569 23.3396 16.6278 23.5194 16.448C23.6992 16.2682 23.9283 16.1457 24.1777 16.0961C24.4271 16.0465 24.6856 16.072 24.9205 16.1693C25.1555 16.2666 25.3563 16.4314 25.4975 16.6428C25.6388 16.8543 25.7142 17.1029 25.7142 17.3571C25.7142 17.6981 25.5788 18.0252 25.3376 18.2663C25.0965 18.5074 24.7695 18.6429 24.4285 18.6429Z" fill="#CBFB45" />
		<path d="M36.0003 28.2218C35.8244 26.4715 35.0024 24.8495 33.6948 23.6727C32.3873 22.4959 30.688 21.8487 28.9289 21.8575H28.691C27.6895 21.8881 26.7063 22.1336 25.8079 22.5772C24.9095 23.0209 24.117 23.6524 23.4838 24.4289C23.4131 24.5125 23.3424 24.5961 23.2781 24.6861C23.0355 25.0104 22.8205 25.3545 22.6353 25.7147C22.5517 25.8818 22.4746 26.0489 22.4038 26.2225C22.3331 26.3961 22.2946 26.4925 22.2431 26.6339C22.2431 26.6339 22.2431 26.6918 22.2431 26.7239C22.185 26.8905 22.1356 27.06 22.0953 27.2318C22.0503 27.3989 22.0181 27.5725 21.986 27.7461V27.9004C21.9611 28.0384 21.9461 28.1781 21.941 28.3182C21.9379 28.3374 21.9379 28.3569 21.941 28.3761C21.9033 28.5587 21.8754 28.7433 21.8574 28.9289C21.8574 29.0704 21.8574 29.2054 21.8574 29.3404C21.8636 29.4717 21.8765 29.6025 21.896 29.7325C21.9096 29.8988 21.9333 30.0641 21.9667 30.2275C21.9667 30.3304 22.0117 30.4332 22.031 30.5361C22.1006 30.8292 22.1908 31.1171 22.301 31.3975C22.3472 31.5404 22.4031 31.68 22.4681 31.8154C22.4681 31.8797 22.526 31.9439 22.5581 32.0082C22.5903 32.0725 22.7124 32.3168 22.8024 32.4647C22.8868 32.6186 22.9813 32.7668 23.0853 32.9082C23.2029 33.0897 23.3317 33.2636 23.471 33.4289C23.8269 33.8609 24.2326 34.2493 24.6796 34.5861C24.7369 34.6325 24.797 34.6755 24.8596 34.7147C25.6525 35.2732 26.5518 35.6627 27.5017 35.8589C27.9713 35.9552 28.4495 36.0026 28.9289 36.0004C30.8043 36.0004 32.603 35.2553 33.9291 33.9292C35.2553 32.603 36.0003 30.8044 36.0003 28.9289C36.0003 28.6911 36.0003 28.4597 36.0003 28.2218ZM28.9289 34.7147C27.3944 34.7147 25.9228 34.1051 24.8377 33.0201C23.7527 31.935 23.1431 30.4634 23.1431 28.9289C23.0656 27.3945 23.6007 25.892 24.6309 24.7522C25.6611 23.6123 27.1019 22.9283 28.6363 22.8507C30.1708 22.7732 31.6733 23.3083 32.8131 24.3385C33.953 25.3687 34.637 26.8095 34.7146 28.3439C34.7966 29.1514 34.7079 29.9671 34.4541 30.7381C34.2004 31.509 33.7872 32.2179 33.2415 32.8188C32.6959 33.4196 32.0299 33.8989 31.2869 34.2255C30.5439 34.5522 29.7405 34.7188 28.9289 34.7147Z" fill="#CBFB45" />
		<path opacity="0.5" d="M31.2558 28.588C31.4153 28.2985 31.4993 27.9735 31.5001 27.643C31.499 27.2451 31.3748 26.8573 31.1446 26.5327C30.9144 26.2082 30.5895 25.9628 30.2144 25.8301V25.0716C30.2144 24.9011 30.1466 24.7376 30.0261 24.617C29.9055 24.4964 29.742 24.4287 29.5715 24.4287C29.401 24.4287 29.2375 24.4964 29.1169 24.617C28.9964 24.7376 28.9286 24.9011 28.9286 25.0716V25.7144H28.2858V25.0716C28.2858 24.9011 28.2181 24.7376 28.0975 24.617C27.9769 24.4964 27.8134 24.4287 27.6429 24.4287C27.4724 24.4287 27.3089 24.4964 27.1884 24.617C27.0678 24.7376 27.0001 24.9011 27.0001 25.0716V25.7144H26.3572C26.1867 25.7144 26.0232 25.7822 25.9026 25.9027C25.7821 26.0233 25.7144 26.1868 25.7144 26.3573C25.7144 26.5278 25.7821 26.6913 25.9026 26.8119C26.0232 26.9324 26.1867 27.0001 26.3572 27.0001V30.8573C26.1867 30.8573 26.0232 30.925 25.9026 31.0456C25.7821 31.1661 25.7144 31.3296 25.7144 31.5001C25.7144 31.6706 25.7821 31.8341 25.9026 31.9547C26.0232 32.0753 26.1867 32.143 26.3572 32.143H27.0001V32.7859C27.0001 32.9564 27.0678 33.1199 27.1884 33.2404C27.3089 33.361 27.4724 33.4287 27.6429 33.4287C27.8134 33.4287 27.9769 33.361 28.0975 33.2404C28.2181 33.1199 28.2858 32.9564 28.2858 32.7859V32.143H28.9286V32.7859C28.9286 32.9564 28.9964 33.1199 29.1169 33.2404C29.2375 33.361 29.401 33.4287 29.5715 33.4287C29.742 33.4287 29.9055 33.361 30.0261 33.2404C30.1466 33.1199 30.2144 32.9564 30.2144 32.7859V32.143C30.6321 32.1441 31.0389 32.0095 31.3736 31.7595C31.7083 31.5095 31.9527 31.1575 32.0702 30.7566C32.1876 30.3557 32.1717 29.9275 32.0249 29.5364C31.878 29.1453 31.6081 28.8125 31.2558 28.588ZM29.5715 27.0001C29.742 27.0001 29.9055 27.0679 30.0261 27.1884C30.1466 27.309 30.2144 27.4725 30.2144 27.643C30.2144 27.8135 30.1466 27.977 30.0261 28.0976C29.9055 28.2181 29.742 28.2859 29.5715 28.2859H27.6429V27.0001H29.5715ZM30.2144 30.8573H27.6429V29.5716H30.2144C30.3849 29.5716 30.5484 29.6393 30.6689 29.7599C30.7895 29.8804 30.8572 30.0439 30.8572 30.2144C30.8572 30.3849 30.7895 30.5484 30.6689 30.669C30.5484 30.7896 30.3849 30.8573 30.2144 30.8573Z" fill="#CBFB45" />
		<path d="M4.50007 3.85672V6.42815C4.50007 6.59865 4.43234 6.76216 4.31178 6.88272C4.19122 7.00328 4.02771 7.07101 3.85721 7.07101C3.68672 7.07101 3.5232 7.00328 3.40264 6.88272C3.28208 6.76216 3.21436 6.59865 3.21436 6.42815V3.85672C3.21436 3.68623 3.28208 3.52271 3.40264 3.40216C3.5232 3.2816 3.68672 3.21387 3.85721 3.21387C4.02771 3.21387 4.19122 3.2816 4.31178 3.40216C4.43234 3.52271 4.50007 3.68623 4.50007 3.85672Z" fill="#CBFB45" />
		<path d="M7.07136 3.85672V6.42815C7.07136 6.59865 7.00363 6.76216 6.88307 6.88272C6.76251 7.00328 6.599 7.07101 6.4285 7.07101C6.25801 7.07101 6.09449 7.00328 5.97393 6.88272C5.85337 6.76216 5.78564 6.59865 5.78564 6.42815V3.85672C5.78564 3.68623 5.85337 3.52271 5.97393 3.40216C6.09449 3.2816 6.25801 3.21387 6.4285 3.21387C6.599 3.21387 6.76251 3.2816 6.88307 3.40216C7.00363 3.52271 7.07136 3.68623 7.07136 3.85672Z" fill="#CBFB45" />
		<path d="M9.64314 3.85672V6.42815C9.64314 6.59865 9.57541 6.76216 9.45485 6.88272C9.33429 7.00328 9.17078 7.07101 9.00028 7.07101C8.82978 7.07101 8.66627 7.00328 8.54571 6.88272C8.42515 6.76216 8.35742 6.59865 8.35742 6.42815V3.85672C8.35742 3.68623 8.42515 3.52271 8.54571 3.40216C8.66627 3.2816 8.82978 3.21387 9.00028 3.21387C9.17078 3.21387 9.33429 3.2816 9.45485 3.40216C9.57541 3.52271 9.64314 3.68623 9.64314 3.85672Z" fill="#CBFB45" />
		<path d="M4.50007 16.0716V18.643C4.50007 18.8135 4.43234 18.977 4.31178 19.0976C4.19122 19.2181 4.02771 19.2859 3.85721 19.2859C3.68672 19.2859 3.5232 19.2181 3.40264 19.0976C3.28208 18.977 3.21436 18.8135 3.21436 18.643V16.0716C3.21436 15.9011 3.28208 15.7376 3.40264 15.617C3.5232 15.4964 3.68672 15.4287 3.85721 15.4287C4.02771 15.4287 4.19122 15.4964 4.31178 15.617C4.43234 15.7376 4.50007 15.9011 4.50007 16.0716Z" fill="#CBFB45" />
		<path d="M7.07136 16.0716V18.643C7.07136 18.8135 7.00363 18.977 6.88307 19.0976C6.76251 19.2181 6.599 19.2859 6.4285 19.2859C6.25801 19.2859 6.09449 19.2181 5.97393 19.0976C5.85337 18.977 5.78564 18.8135 5.78564 18.643V16.0716C5.78564 15.9011 5.85337 15.7376 5.97393 15.617C6.09449 15.4964 6.25801 15.4287 6.4285 15.4287C6.599 15.4287 6.76251 15.4964 6.88307 15.617C7.00363 15.7376 7.07136 15.9011 7.07136 16.0716Z" fill="#CBFB45" />
		<path d="M9.64314 16.0716V18.643C9.64314 18.8135 9.57541 18.977 9.45485 19.0976C9.33429 19.2181 9.17078 19.2859 9.00028 19.2859C8.82978 19.2859 8.66627 19.2181 8.54571 19.0976C8.42515 18.977 8.35742 18.8135 8.35742 18.643V16.0716C8.35742 15.9011 8.42515 15.7376 8.54571 15.617C8.66627 15.4964 8.82978 15.4287 9.00028 15.4287C9.17078 15.4287 9.33429 15.4964 9.45485 15.617C9.57541 15.7376 9.64314 15.9011 9.64314 16.0716Z" fill="#CBFB45" />
		<path d="M4.50007 28.2854V30.8569C4.50007 31.0274 4.43234 31.1909 4.31178 31.3114C4.19122 31.432 4.02771 31.4997 3.85721 31.4997C3.68672 31.4997 3.5232 31.432 3.40264 31.3114C3.28208 31.1909 3.21436 31.0274 3.21436 30.8569V28.2854C3.21436 28.1149 3.28208 27.9514 3.40264 27.8309C3.5232 27.7103 3.68672 27.6426 3.85721 27.6426C4.02771 27.6426 4.19122 27.7103 4.31178 27.8309C4.43234 27.9514 4.50007 28.1149 4.50007 28.2854Z" fill="#CBFB45" />
		<path d="M7.07136 28.2854V30.8569C7.07136 31.0274 7.00363 31.1909 6.88307 31.3114C6.76251 31.432 6.599 31.4997 6.4285 31.4997C6.25801 31.4997 6.09449 31.432 5.97393 31.3114C5.85337 31.1909 5.78564 31.0274 5.78564 30.8569V28.2854C5.78564 28.1149 5.85337 27.9514 5.97393 27.8309C6.09449 27.7103 6.25801 27.6426 6.4285 27.6426C6.599 27.6426 6.76251 27.7103 6.88307 27.8309C7.00363 27.9514 7.07136 28.1149 7.07136 28.2854Z" fill="#CBFB45" />
		<path d="M9.64314 28.2854V30.8569C9.64314 31.0274 9.57541 31.1909 9.45485 31.3114C9.33429 31.432 9.17078 31.4997 9.00028 31.4997C8.82978 31.4997 8.66627 31.432 8.54571 31.3114C8.42515 31.1909 8.35742 31.0274 8.35742 30.8569V28.2854C8.35742 28.1149 8.42515 27.9514 8.54571 27.8309C8.66627 27.7103 8.82978 27.6426 9.00028 27.6426C9.17078 27.6426 9.33429 27.7103 9.45485 27.8309C9.57541 27.9514 9.64314 28.1149 9.64314 28.2854Z" fill="#CBFB45" />
		<g opacity="0.5">
			<path opacity="0.5" d="M14.7859 13.5C14.6154 13.5 14.4519 13.4323 14.3314 13.3117C14.2108 13.1912 14.1431 13.0276 14.1431 12.8571V9.64286C14.1431 9.47236 14.2108 9.30885 14.3314 9.18829C14.4519 9.06773 14.6154 9 14.7859 9C14.9564 9 15.1199 9.06773 15.2405 9.18829C15.3611 9.30885 15.4288 9.47236 15.4288 9.64286V12.8571C15.4288 13.0276 15.3611 13.1912 15.2405 13.3117C15.1199 13.4323 14.9564 13.5 14.7859 13.5Z" fill="#CBFB45" />
		</g>
		<g opacity="0.5">
			<path opacity="0.5" d="M14.7854 25.7139C14.6149 25.7139 14.4514 25.6461 14.3309 25.5256C14.2103 25.405 14.1426 25.2415 14.1426 25.071V21.8567C14.1426 21.6862 14.2103 21.5227 14.3309 21.4022C14.4514 21.2816 14.6149 21.2139 14.7854 21.2139C14.9559 21.2139 15.1194 21.2816 15.24 21.4022C15.3606 21.5227 15.4283 21.6862 15.4283 21.8567V25.071C15.4283 25.2415 15.3606 25.405 15.24 25.5256C15.1194 25.6461 14.9559 25.7139 14.7854 25.7139Z" fill="#CBFB45" />
		</g>
	</g>
	<defs>
		<clipPath id="clip0_356_2354">
			<rect width="36" height="36" fill="white" />
		</clipPath>
	</defs>
</svg>
