<svg width="112" height="36" viewBox="0 0 112 36" fill="none" xmlns="http://www.w3.org/2000/svg">
<g clip-path="url(#clip0_326_1822)">
<path d="M23.082 0.103507C22.668 0 22.1504 0 21.7364 0H13.4559C13.0419 0 12.5243 0 12.1103 0.103507C5.27884 0.724547 0 6.52093 0 13.4559V21.7364C0 28.8784 5.58937 34.7783 12.7313 35.1923H13.4559H21.7364H22.461C29.6029 34.7783 35.1923 28.8784 35.1923 21.7364V13.4559C35.1923 6.52093 29.9135 0.724547 23.082 0.103507ZM31.6731 21.7364C31.6731 27.2223 27.2223 31.6731 21.7364 31.6731H13.4559C7.97002 31.6731 3.51923 27.2223 3.51923 21.7364V13.4559C3.51923 7.97002 7.97002 3.51923 13.4559 3.51923H21.7364C27.2223 3.51923 31.6731 7.97002 31.6731 13.4559V21.7364Z" fill="#161617"/>
<path d="M25.3603 19.3593C25.0498 19.1523 24.6358 18.9453 24.3253 18.9453C23.7042 18.9453 23.1867 19.2558 22.7727 19.6699C21.5306 21.2225 19.564 22.154 17.5973 22.2575C15.5272 22.154 13.6641 21.2225 12.422 19.6699C11.801 18.8418 10.6624 18.7383 9.83433 19.3593C9.10978 19.9804 8.90276 21.0154 9.4203 21.8435C11.3869 24.3277 14.3886 25.7768 17.4938 25.8803C20.7025 25.7768 23.6007 24.3277 25.5674 21.8435C25.8779 21.4295 25.9814 21.0154 25.8779 20.4979C25.9814 20.0839 25.7744 19.5664 25.3603 19.3593Z" fill="#161617"/>
<path opacity="0.999" d="M48.4409 25.881C46.6813 25.9845 44.9217 25.5705 43.3691 24.6389C42.748 24.3284 42.4375 23.7074 42.4375 23.0863C42.4375 22.7758 42.541 22.4653 42.748 22.1548C42.955 21.9478 43.2656 21.7407 43.5761 21.8443C44.0936 21.8443 44.5076 22.0513 44.9217 22.2583C45.4392 22.5688 46.0602 22.7758 46.5778 22.8793C47.1988 23.0863 47.8199 23.0863 48.5444 23.0863C49.1654 23.0863 49.89 22.9828 50.4075 22.6723C50.8215 22.4653 51.1321 22.0513 51.1321 21.5337C51.1321 21.2232 51.0286 21.0162 50.8215 20.7057C50.511 20.4987 50.2005 20.2917 49.89 20.1881C49.1654 19.9811 48.4409 19.7741 47.7163 19.6706C46.3708 19.4636 45.1287 18.9461 44.0936 18.2215C43.3691 17.6005 42.955 16.5654 42.955 15.6339C42.955 14.8058 43.162 13.9777 43.6796 13.3567C44.1971 12.6322 44.9217 12.1146 45.7497 11.8041C46.6813 11.3901 47.7163 11.1831 48.7514 11.2866C49.5795 11.2866 50.304 11.3901 51.0286 11.5971C51.7531 11.8041 52.3741 12.1146 52.9952 12.4251C53.5127 12.7357 53.9267 13.3567 53.9267 13.9777C53.9267 14.2883 53.8232 14.7023 53.6162 14.9093C53.4092 15.1163 53.0987 15.3233 52.7882 15.3233C52.5812 15.3233 52.3742 15.3233 52.1671 15.2198C51.8566 15.1163 51.6496 15.0128 51.4426 14.8058C51.0286 14.5988 50.511 14.3918 49.9935 14.1848C49.476 13.9777 48.9584 13.9777 48.5444 13.9777C47.9234 13.9777 47.4058 14.0813 46.8883 14.3918C46.4743 14.5988 46.2673 15.1163 46.2673 15.5303C46.2673 15.9444 46.4743 16.4619 46.8883 16.6689C47.6128 17.0829 48.4409 17.29 49.3725 17.3935C50.4075 17.6005 51.4426 17.911 52.3741 18.325C52.9952 18.6355 53.5127 19.0496 53.9267 19.5671C54.2373 20.1881 54.4443 20.8092 54.4443 21.5337C54.4443 22.7758 53.8232 24.0179 52.7882 24.6389C51.4426 25.467 49.9935 25.881 48.4409 25.881ZM74.5246 11.1831C75.8702 11.0796 77.1123 11.5971 78.0438 12.5286C78.9754 13.7707 79.3894 15.3233 79.2859 16.9794V24.0179C79.2859 24.5354 79.1824 24.9495 78.7684 25.26C78.3543 25.5705 77.9403 25.7775 77.4228 25.674C76.9053 25.674 76.4912 25.5705 76.1807 25.26C75.8702 24.9495 75.6632 24.4319 75.6632 24.0179V16.9794C75.7667 16.1514 75.5597 15.4268 75.1456 14.7023C74.7316 14.1848 74.1106 13.9777 73.386 13.9777C72.558 13.9777 71.7299 14.2883 71.1089 14.9093C70.4878 15.6339 70.1773 16.5654 70.2808 17.497V23.9144C70.2808 24.4319 70.1773 24.846 69.7633 25.1565C69.4528 25.467 68.9352 25.5705 68.5212 25.5705C68.0037 25.5705 67.5896 25.467 67.2791 25.1565C66.9686 24.846 66.7616 24.3284 66.7616 23.9144V16.8759C66.8651 16.0479 66.6581 15.3233 66.2441 14.5988C65.83 14.0813 65.209 13.8742 64.4844 13.8742C63.6564 13.8742 62.8283 14.1848 62.2073 14.8058C61.5862 15.5303 61.3792 16.4619 61.3792 17.3935V23.8109C61.3792 24.3284 61.1722 24.7424 60.8617 25.053C60.5512 25.3635 60.0336 25.467 59.6196 25.467C59.1021 25.467 58.6881 25.3635 58.3775 25.053C58.067 24.7424 57.86 24.2249 57.86 23.8109V12.9427C57.86 12.4251 58.067 12.0111 58.3775 11.7006C58.7916 11.3901 59.2056 11.2866 59.6196 11.2866C60.0336 11.2866 60.5512 11.3901 60.8617 11.7006C61.1722 12.0111 61.3792 12.4251 61.3792 12.9427V13.6672C61.7933 12.9427 62.4143 12.3216 63.1389 11.9076C63.9669 11.4936 64.795 11.2866 65.7265 11.2866C67.5896 11.0796 69.3493 12.2181 69.9703 13.9777C70.3843 13.1497 71.0054 12.5286 71.8334 12.0111C72.6615 11.4936 73.593 11.1831 74.5246 11.1831ZM85.2893 25.7775C84.7718 25.7775 84.3577 25.674 84.0472 25.3635C83.7367 25.053 83.5297 24.5354 83.5297 24.1214V12.9427C83.5297 12.4251 83.6332 12.0111 84.0472 11.7006C84.3577 11.3901 84.8753 11.2866 85.2893 11.2866C85.8068 11.2866 86.2209 11.3901 86.5314 11.7006C86.8419 12.0111 87.0489 12.5286 87.0489 12.9427V24.0179C87.0489 24.5354 86.8419 24.9495 86.5314 25.26C86.2209 25.674 85.8068 25.7775 85.2893 25.7775ZM85.2893 8.6989C84.7718 8.6989 84.1507 8.49189 83.7367 8.18137C83.3227 7.87085 83.1157 7.35331 83.1157 6.83578C83.1157 6.31824 83.3227 5.80071 83.7367 5.49019C84.1507 5.07616 84.7718 4.97266 85.2893 4.97266C85.8068 4.97266 86.4279 5.17967 86.8419 5.49019C87.2559 5.80071 87.4629 6.31824 87.4629 6.83578C87.4629 7.35331 87.2559 7.87085 86.8419 8.18137C86.4279 8.59539 85.9103 8.6989 85.2893 8.6989ZM93.1558 25.7775C92.6383 25.7775 92.2243 25.674 91.9137 25.3635C91.6032 25.053 91.3962 24.5354 91.3962 24.1214V6.93928C91.3962 6.42175 91.4997 6.00772 91.9137 5.6972C92.3278 5.38668 92.7418 5.17967 93.1558 5.17967C93.6733 5.17967 94.0874 5.28318 94.3979 5.5937C94.7084 5.90422 94.9154 6.42175 94.9154 6.83578V24.0179C94.9154 24.5354 94.7084 24.9495 94.3979 25.26C94.0874 25.674 93.6733 25.7775 93.1558 25.7775ZM110.441 21.7408C110.752 21.7408 111.062 21.8443 111.269 22.1548C111.477 22.4653 111.58 22.7758 111.58 23.1898C111.58 23.8109 111.166 24.4319 110.545 24.6389C109.82 25.053 109.096 25.3635 108.371 25.467C107.647 25.674 106.819 25.7775 105.991 25.7775C104.024 25.881 102.057 25.1565 100.608 23.8109C99.2627 22.3618 98.5382 20.3952 98.6417 18.4285C98.6417 17.0829 98.9522 15.8409 99.4697 14.5988C99.9873 13.5637 100.815 12.6322 101.85 12.0111C102.885 11.3901 104.128 11.0796 105.37 11.0796C106.508 11.0796 107.647 11.3901 108.682 11.9076C109.613 12.4251 110.338 13.2532 110.855 14.2883C111.373 15.4268 111.684 16.6689 111.684 17.911C111.684 18.7391 111.269 19.1531 110.545 19.1531H102.057C102.057 20.1881 102.471 21.2232 103.196 22.0513C103.921 22.6723 104.956 23.0863 105.991 22.9828C106.508 22.9828 107.129 22.8793 107.647 22.7758C108.164 22.5688 108.682 22.3618 109.199 22.1548C109.51 21.9478 109.924 21.8443 110.441 21.7408ZM105.473 13.7707C104.645 13.7707 103.713 14.0813 103.092 14.7023C102.471 15.4268 102.057 16.3584 102.057 17.3935H108.578C108.578 16.4619 108.268 15.5303 107.75 14.7023C107.129 13.9777 106.301 13.6672 105.473 13.7707Z" fill="#161617"/>
</g>
<defs>
<clipPath id="clip0_326_1822">
<rect width="112" height="36" fill="white"/>
</clipPath>
</defs>
</svg>
