<svg width="180" height="33" viewBox="0 0 180 33" fill="none" xmlns="http://www.w3.org/2000/svg">
<g clip-path="url(#clip0_326_1796)">
<path d="M4.565 12.7476C4.565 13.3336 4.891 13.7956 5.533 14.1366C6.177 14.4766 6.963 14.7706 7.89 15.0166C8.816 15.2606 9.747 15.5516 10.686 15.8786C11.626 16.2066 12.416 16.7686 13.062 17.5506C13.705 18.3366 14.029 19.3266 14.029 20.5206C14.029 22.2096 13.376 23.5326 12.077 24.4946C10.774 25.4566 9.142 25.9376 7.171 25.9376C5.436 25.9376 3.948 25.5746 2.707 24.8476C1.466 24.1236 0.56 23.1126 0 21.8226L3.266 19.9206C3.875 21.6096 5.177 22.4516 7.171 22.4516C9.164 22.4516 10.161 21.7966 10.161 20.4846C10.161 19.9206 9.835 19.4656 9.192 19.1126C8.549 18.7586 7.762 18.4626 6.836 18.2176C5.89289 17.9661 4.95986 17.6782 4.039 17.3546C3.11313 17.0367 2.29183 16.4717 1.664 15.7206C1.02 14.9536 0.696 13.9896 0.696 12.8136C0.696 11.1966 1.31 9.89362 2.546 8.90862C3.776 7.92462 5.303 7.43262 7.133 7.43262C8.588 7.43262 9.881 7.75762 11.021 8.39962C12.1363 9.02285 13.0457 9.95764 13.638 11.0896L10.438 12.8846C9.828 11.5486 8.728 10.8786 7.132 10.8786C6.405 10.8786 5.795 11.0376 5.305 11.3516C4.815 11.6716 4.565 12.1376 4.565 12.7486V12.7476Z" fill="#161617"/>
<path d="M37.0832 7.8916H41.0922L35.5702 25.4756H31.8412L28.1822 13.6236L24.4912 25.4756H20.7622L15.2402 7.8916H19.2502L22.6602 20.0226L26.3522 7.8926H29.9752L33.6352 20.0226L37.0832 7.8926V7.8916Z" fill="#161617"/>
<path d="M73.8973 7.43362C76.3103 7.43362 78.3753 8.33162 80.0843 10.1236C81.7933 11.9176 82.6503 14.1026 82.6503 16.6816C82.6503 19.2836 81.7933 21.4736 80.0843 23.2576C78.3733 25.0416 76.3063 25.9286 73.8973 25.9286C71.2273 25.9286 69.1733 24.9436 67.7433 22.9726V32.5026H63.9453V7.89262H67.7433V10.4226C69.1773 8.43262 71.2263 7.43262 73.8973 7.43262V7.43362ZM69.3273 20.7116C70.3843 21.7786 71.7093 22.3106 73.3003 22.3106C74.8933 22.3106 76.2203 21.7786 77.2743 20.7116C78.3323 19.6446 78.8563 18.3016 78.8563 16.6836C78.8563 15.0666 78.3303 13.7266 77.2743 12.6556C76.2203 11.5886 74.8953 11.0566 73.3003 11.0566C71.7063 11.0566 70.3803 11.5886 69.3263 12.6556C68.2733 13.7226 67.7453 15.0656 67.7453 16.6836C67.7453 18.3006 68.2733 19.6446 69.3263 20.7116H69.3273Z" fill="#161617"/>
<path d="M89.5638 25.1239C89.3227 25.3733 89.0331 25.5705 88.7129 25.7034C88.3926 25.8364 88.0485 25.9022 87.7018 25.8969C87.3551 25.902 87.011 25.836 86.6908 25.7031C86.3706 25.5702 86.0809 25.3731 85.8398 25.1239C85.5895 24.8834 85.3915 24.594 85.2578 24.2737C85.1241 23.9534 85.0577 23.609 85.0628 23.2619C85.0628 22.5349 85.3128 21.9139 85.8168 21.3989C86.3228 20.8809 86.9508 20.6219 87.6978 20.6219C88.4248 20.6219 89.0458 20.8809 89.5608 21.3989C90.0768 21.9159 90.3338 22.5349 90.3338 23.2619C90.3398 23.6085 90.2746 23.9526 90.1421 24.2729C90.0097 24.5932 89.8128 24.8829 89.5638 25.1239Z" fill="#161617"/>
<path d="M107.998 7.89232V25.4763H104.196V11.5503H98.3601V25.4803H94.5621V11.5503H91.8921V7.89232H94.5621V7.53832C94.5641 2.78232 97.2091 0.40332 102.512 0.40332C103.753 0.40332 105.052 0.55632 106.416 0.85832V4.34032C105.124 4.14979 103.819 4.05619 102.512 4.06032C101.104 4.06032 100.06 4.31832 99.3821 4.83232C98.7011 5.34932 98.3641 6.25332 98.3641 7.53932V7.89332H108V7.89132H107.998V7.89232Z" fill="#161617"/>
<path fill-rule="evenodd" clip-rule="evenodd" d="M60.9458 18.747C61.1798 17.93 61.3058 17.067 61.3058 16.175C61.3058 11.038 57.1428 6.875 52.0058 6.875C50.3402 6.87445 48.705 7.32141 47.2713 8.16916C45.8376 9.0169 44.6579 10.2343 43.8558 11.694L46.7758 14.159C47.1579 13.1686 47.8134 12.307 48.666 11.6744C49.5186 11.0419 50.5332 10.6643 51.5919 10.5858C52.6507 10.5072 53.7099 10.7308 54.6465 11.2306C55.5831 11.7304 56.3586 12.4858 56.8828 13.409L55.1208 13.855L57.7078 16.008L60.9458 18.747ZM59.9918 20.944C58.8502 22.8605 57.0577 24.3029 54.9412 25.0078C52.8248 25.7128 50.5254 25.6334 48.4626 24.7842C46.3998 23.9349 44.711 22.3725 43.7043 20.3817C42.6976 18.391 42.4401 16.1048 42.9788 13.94L45.7338 16.266L48.4798 18.552L47.1078 18.9C47.6122 19.8053 48.3576 20.5531 49.2612 21.0605C50.1649 21.5678 51.1915 21.8149 52.227 21.7742C53.2625 21.7335 54.2665 21.4066 55.1276 20.8299C55.9886 20.2531 56.673 19.4491 57.1048 18.507L59.9918 20.944Z" fill="#161617"/>
<path fill-rule="evenodd" clip-rule="evenodd" d="M60.946 18.747C61.18 17.93 61.306 17.067 61.306 16.175C61.306 11.038 57.143 6.875 52.006 6.875C50.3404 6.87445 48.7052 7.32141 47.2715 8.16916C45.8377 9.0169 44.6581 10.2343 43.856 11.694L46.776 14.159C47.1581 13.1686 47.8136 12.307 48.6662 11.6744C49.5188 11.0419 50.5334 10.6643 51.5921 10.5858C52.6508 10.5072 53.7101 10.7308 54.6467 11.2306C55.5833 11.7304 56.3588 12.4858 56.883 13.409L55.121 13.855L57.708 16.008L60.946 18.747Z" fill="#161617"/>
</g>
<defs>
<clipPath id="clip0_326_1796">
<rect width="180" height="33" fill="white"/>
</clipPath>
</defs>
</svg>
