<svg width="359" height="30" viewBox="0 0 359 30" fill="none" xmlns="http://www.w3.org/2000/svg">
<rect width="77" height="30" rx="5" fill="#7D32F9"/>
<rect x="94" width="77" height="30" rx="5" fill="#7D32F9"/>
<rect x="188" width="77" height="30" rx="5" fill="#7D32F9"/>
<rect x="282" width="77" height="30" rx="5" fill="#7D32F9"/>
<path d="M52.3812 10.1426H50.3336C49.7145 10.1426 49.2383 10.3331 48.9526 10.9521L45.0479 19.8569H47.8098C47.8098 19.8569 48.2859 18.6664 48.3812 18.3807C48.6669 18.3807 51.3812 18.3807 51.7621 18.3807C51.8574 18.714 52.0955 19.8092 52.0955 19.8092H54.5717L52.3812 10.1426ZM49.1431 16.3807C49.3812 15.8092 50.1907 13.6664 50.1907 13.6664C50.1907 13.714 50.4288 13.095 50.524 12.7616L50.7145 13.6188C50.7145 13.6188 51.2383 15.9521 51.3336 16.4283H49.1431V16.3807Z" fill="#F3F3F3"/>
<path d="M45.2379 16.6667C45.2379 18.6667 43.4284 20 40.6189 20C39.4284 20 38.2856 19.7619 37.6665 19.4762L38.0475 17.2857L38.3808 17.4286C39.2379 17.8095 39.8094 17.9524 40.857 17.9524C41.6189 17.9524 42.4284 17.6667 42.4284 17C42.4284 16.5714 42.0951 16.2857 41.0475 15.8095C40.0475 15.3333 38.7141 14.5714 38.7141 13.1905C38.7141 11.2857 40.5713 10 43.1903 10C44.1903 10 45.0475 10.1905 45.5713 10.4286L45.1903 12.5238L44.9998 12.3333C44.5236 12.1429 43.9046 11.9524 42.9998 11.9524C41.9998 12 41.5236 12.4286 41.5236 12.8095C41.5236 13.2381 42.0951 13.5714 42.9998 14C44.5236 14.7143 45.2379 15.5238 45.2379 16.6667Z" fill="#F3F3F3"/>
<path d="M22 10.2383L22.0476 10.0479H26.1429C26.7143 10.0479 27.1429 10.2383 27.2857 10.8574L28.1905 15.1431C27.2857 12.8574 25.1905 11.0002 22 10.2383Z" fill="#F9B50B"/>
<path d="M33.9525 10.1433L29.8096 19.81H27.0001L24.6191 11.7148C26.3334 12.81 27.762 14.5243 28.2858 15.7148L28.5715 16.7148L31.143 10.0957H33.9525V10.1433Z" fill="#F3F3F3"/>
<path d="M35.0475 10.0957H37.6666L35.9999 19.81H33.3809L35.0475 10.0957Z" fill="#F3F3F3"/>
<path d="M137.182 8.5742L130.787 8.59619L130.981 20.3036L137.376 20.2816L137.182 8.5742Z" fill="#FF5F00"/>
<path d="M131.208 14.4739C131.168 12.0927 132.235 9.97688 133.906 8.60448C132.645 7.61485 131.064 7.01975 129.35 7.02562C125.289 7.03953 122.06 10.3845 122.128 14.505C122.197 18.6255 125.537 21.9479 129.597 21.934C131.311 21.9281 132.872 21.3223 134.101 20.3241C132.385 18.984 131.247 16.8551 131.208 14.4739Z" fill="#EB001B"/>
<path d="M146.034 14.3735C146.102 18.494 142.873 21.8389 138.813 21.8528C137.099 21.8587 135.518 21.2636 134.256 20.274C135.948 18.9015 136.994 16.7858 136.954 14.4046C136.915 12.0234 135.778 9.91513 134.062 8.55433C135.29 7.55618 136.851 6.95032 138.565 6.94445C142.625 6.93054 145.966 10.2737 146.034 14.3735Z" fill="#F79E1B"/>
<path d="M214.35 10.4852C213.879 10.162 213.266 10 212.509 10H209.579C209.347 10 209.218 10.116 209.194 10.3479L208.004 17.8201C207.991 17.8935 208.01 17.9606 208.059 18.0216C208.107 18.0827 208.168 18.1131 208.242 18.1131H209.634C209.878 18.1131 210.012 17.9974 210.037 17.7652L210.366 15.7507C210.378 15.6531 210.421 15.5737 210.494 15.5126C210.568 15.4516 210.659 15.4117 210.769 15.3934C210.879 15.3753 210.983 15.3661 211.08 15.3661C211.178 15.3661 211.294 15.3723 211.429 15.3845C211.563 15.3966 211.648 15.4026 211.685 15.4026C212.735 15.4026 213.559 15.1067 214.157 14.5144C214.755 13.9223 215.055 13.1013 215.055 12.051C215.055 11.3307 214.82 10.8088 214.35 10.4851V10.4852ZM212.839 12.7289C212.778 13.1563 212.619 13.437 212.363 13.5713C212.106 13.7059 211.74 13.7728 211.264 13.7728L210.659 13.7911L210.971 11.8314C210.995 11.6972 211.074 11.63 211.209 11.63H211.557C212.045 11.63 212.399 11.7004 212.619 11.8406C212.839 11.9811 212.912 12.2773 212.839 12.7289Z" fill="white"/>
<path d="M245.273 10H243.918C243.783 10 243.704 10.0672 243.68 10.2016L242.49 17.8204L242.471 17.857C242.471 17.9184 242.496 17.9761 242.545 18.0311C242.593 18.0859 242.654 18.1134 242.728 18.1134H243.937C244.168 18.1134 244.296 17.9976 244.321 17.7655L245.512 10.2749V10.2567C245.512 10.0856 245.432 10.0002 245.273 10.0002V10Z" fill="#009CDE"/>
<path d="M228.9 12.9489C228.9 12.888 228.876 12.8299 228.827 12.7751C228.778 12.7202 228.723 12.6925 228.662 12.6925H227.252C227.118 12.6925 227.008 12.7539 226.922 12.8756L224.981 15.7328L224.175 12.9856C224.114 12.7904 223.98 12.6925 223.772 12.6925H222.399C222.337 12.6925 222.282 12.72 222.234 12.7751C222.185 12.8299 222.161 12.8881 222.161 12.9489C222.161 12.9735 222.28 13.3335 222.518 14.0295C222.756 14.7256 223.012 15.4765 223.287 16.2824C223.562 17.0881 223.705 17.5157 223.717 17.5641C222.716 18.9318 222.216 19.6644 222.216 19.7619C222.216 19.9208 222.295 20 222.454 20H223.864C223.998 20 224.108 19.9391 224.194 19.817L228.864 13.077C228.888 13.0528 228.9 13.0103 228.9 12.9488V12.9489Z" fill="white"/>
<path d="M242.032 12.6926H240.64C240.469 12.6926 240.366 12.8942 240.329 13.2972C240.011 12.8089 239.432 12.5645 238.589 12.5645C237.71 12.5645 236.962 12.8942 236.346 13.5535C235.729 14.2128 235.421 14.9884 235.421 15.8796C235.421 16.6001 235.631 17.1739 236.053 17.6011C236.474 18.0287 237.038 18.2421 237.747 18.2421C238.101 18.2421 238.461 18.1687 238.827 18.0223C239.194 17.8758 239.48 17.6806 239.688 17.4363C239.688 17.4485 239.676 17.5033 239.652 17.6009C239.627 17.6988 239.615 17.7723 239.615 17.8207C239.615 18.0163 239.694 18.1137 239.853 18.1137H241.117C241.349 18.1137 241.483 17.9979 241.519 17.7658L242.271 12.9856C242.283 12.9123 242.264 12.8453 242.216 12.7842C242.166 12.7233 242.106 12.6926 242.032 12.6926ZM239.642 16.3008C239.331 16.606 238.955 16.7586 238.516 16.7586C238.162 16.7586 237.875 16.6611 237.655 16.4656C237.435 16.2707 237.325 16.002 237.325 15.6597C237.325 15.2083 237.478 14.8264 237.783 14.5151C238.088 14.2038 238.467 14.0481 238.919 14.0481C239.26 14.0481 239.544 14.1489 239.77 14.3502C239.996 14.5517 240.109 14.8295 240.109 15.1837C240.109 15.6232 239.954 15.9957 239.642 16.3008Z" fill="#009CDE"/>
<path d="M221.227 12.6926H219.835C219.664 12.6926 219.56 12.8942 219.524 13.2972C219.194 12.8089 218.614 12.5645 217.784 12.5645C216.905 12.5645 216.157 12.8942 215.54 13.5535C214.923 14.2128 214.615 14.9884 214.615 15.8796C214.615 16.6001 214.826 17.1739 215.247 17.6011C215.668 18.0287 216.233 18.2421 216.941 18.2421C217.283 18.2421 217.637 18.1687 218.003 18.0223C218.37 17.8758 218.663 17.6806 218.882 17.4363C218.834 17.5827 218.809 17.7109 218.809 17.8207C218.809 18.0163 218.889 18.1137 219.047 18.1137H220.311C220.543 18.1137 220.677 17.9979 220.714 17.7658L221.465 12.9856C221.477 12.9123 221.459 12.8453 221.41 12.7842C221.361 12.7233 221.3 12.6926 221.227 12.6926ZM218.837 16.3098C218.525 16.6093 218.144 16.7586 217.692 16.7586C217.338 16.7586 217.054 16.6611 216.841 16.4656C216.627 16.2707 216.52 16.002 216.52 15.6597C216.52 15.2083 216.673 14.8264 216.978 14.5151C217.283 14.2038 217.661 14.0481 218.113 14.0481C218.455 14.0481 218.739 14.1489 218.965 14.3502C219.191 14.5517 219.304 14.8295 219.304 15.1837C219.304 15.6355 219.148 16.011 218.837 16.3098Z" fill="white"/>
<path d="M235.155 10.4852C234.685 10.162 234.071 10 233.314 10H230.402C230.158 10 230.024 10.116 229.999 10.3479L228.809 17.8201C228.797 17.8935 228.815 17.9606 228.864 18.0216C228.912 18.0827 228.974 18.1131 229.047 18.1131H230.549C230.695 18.1131 230.793 18.0339 230.842 17.8751L231.171 15.7507C231.184 15.6531 231.226 15.5737 231.3 15.5126C231.373 15.4516 231.464 15.4117 231.574 15.3934C231.684 15.3753 231.788 15.3661 231.886 15.3661C231.983 15.3661 232.099 15.3723 232.234 15.3845C232.368 15.3966 232.454 15.4026 232.49 15.4026C233.54 15.4026 234.364 15.1067 234.963 14.5144C235.561 13.9223 235.86 13.1013 235.86 12.051C235.86 11.3307 235.625 10.8087 235.155 10.4851V10.4852ZM233.278 13.498C233.009 13.6811 232.606 13.7726 232.069 13.7726L231.483 13.791L231.794 11.8313C231.818 11.6971 231.898 11.6298 232.032 11.6298H232.362C232.63 11.6298 232.844 11.6421 233.003 11.6665C233.161 11.691 233.314 11.7672 233.461 11.8953C233.607 12.0236 233.681 12.2099 233.681 12.4539C233.681 12.9669 233.546 13.3147 233.278 13.498Z" fill="#009CDE"/>
<path d="M326.755 14.9787C326.759 13.9729 326.382 12.9658 325.623 12.2068C324.863 11.4462 323.853 11.0695 322.845 11.0755C322.84 11.0755 322.836 11.0752 322.831 11.0752C320.642 11.0752 318.906 12.8107 318.906 14.9997C318.906 17.1672 320.664 18.924 322.831 18.924C325.02 18.924 326.755 17.1882 326.755 14.9997C326.755 14.9925 326.755 14.9858 326.755 14.9787Z" fill="#F26E21"/>
<path d="M318.177 16.6602C317.59 17.2474 317.049 17.4768 316.465 17.4893C315.045 17.4765 314 16.4245 314 14.9246C314 14.1695 314.286 13.5507 314.739 13.0221C315.164 12.6189 315.711 12.3584 316.34 12.3584C317.019 12.3584 317.548 12.5848 318.151 13.1886V11.4528C317.548 11.151 317.019 11 316.34 11C315.381 11.0686 314.476 11.4562 313.782 12.0649C313.582 12.2448 313.391 12.4434 313.228 12.6708C312.721 13.3277 312.415 14.1321 312.415 15.0003C312.415 17.1887 314.151 18.849 316.34 18.849C316.351 18.849 316.361 18.8481 316.372 18.848C316.386 18.8482 316.401 18.849 316.415 18.849C317.019 18.849 317.548 18.6984 318.227 18.3965L318.177 16.6602C318.151 16.6857 318.202 16.7094 318.177 16.7335V16.6602Z" fill="white"/>
<path d="M331.71 12.0811L330.001 16.2833L328.038 11.3018H326.454L329.548 18.9245H330.378L333.623 11.3018H332.039L331.71 12.0811Z" fill="white"/>
<path d="M334.227 14.6226V18.6984H338.302H338.377V17.4904H337.094H335.736V16.1323V15.4532H338.302V14.1698H335.736V12.585H338.377V11.3018H334.227V14.6226Z" fill="white"/>
<path d="M300.114 11.3018H298V18.6984H300.114C301.245 18.6984 302.075 18.3963 302.755 17.8679C303.585 17.1887 304.113 16.1324 304.113 15.0005C304.113 12.8112 302.528 11.3018 300.114 11.3018ZM301.849 16.8871C301.396 17.2643 300.793 17.4904 299.887 17.4904H299.434V12.5849H299.811C300.717 12.5849 301.321 12.7358 301.774 13.1885C302.302 13.641 302.604 14.3207 302.604 15.0001C302.68 15.6794 302.378 16.4338 301.849 16.8871Z" fill="white"/>
<path d="M306.227 11.3008H304.793V18.6972H306.227V11.3008Z" fill="white"/>
<path d="M309.849 14.1696C308.944 13.8678 308.717 13.6412 308.717 13.264C308.717 12.8111 309.17 12.4338 309.774 12.4338C310.227 12.4338 310.604 12.5848 310.981 13.0377L311.736 12.0566C311.132 11.5281 310.378 11.2266 309.547 11.2266C308.264 11.2266 307.207 12.1323 307.207 13.3394C307.207 14.3963 307.661 14.8491 309.019 15.3774C309.623 15.6035 309.849 15.6792 310.001 15.8302C310.302 15.9809 310.453 16.283 310.453 16.5845C310.453 17.1884 310.001 17.6414 309.321 17.6414C308.641 17.6414 308.038 17.2641 307.736 16.6602L306.83 17.5659C307.51 18.547 308.34 18.9998 309.396 18.9998C310.906 18.9998 311.962 18.0187 311.962 16.5845C311.962 15.3018 311.51 14.7735 309.849 14.1696Z" fill="white"/>
<path d="M342.454 15.6036C343.586 15.3775 344.19 14.6225 344.19 13.4907C344.19 12.1324 343.208 11.3018 341.548 11.3018H339.359V18.6984H340.793V15.7546H341.02L343.057 18.6984H344.793L342.454 15.6036ZM341.246 14.6979H340.793V12.434H341.246C342.152 12.434 342.68 12.8112 342.68 13.5664C342.68 14.3208 342.152 14.6979 341.246 14.6979Z" fill="white"/>
</svg>
