<svg width="56" height="56" viewBox="0 0 56 56" fill="none" xmlns="http://www.w3.org/2000/svg">
<g clip-path="url(#clip0_270_1948)">
<path d="M14 0C11.2311 0 8.52431 0.821086 6.22202 2.35943C3.91973 3.89777 2.12532 6.08427 1.06569 8.64243C0.00606608 11.2006 -0.271181 14.0155 0.269012 16.7313C0.809205 19.447 2.14258 21.9416 4.10051 23.8995C6.05845 25.8574 8.55301 27.1908 11.2687 27.731C13.9845 28.2712 16.7994 27.9939 19.3576 26.9343C21.9157 25.8747 24.1022 24.0803 25.6406 21.778C27.1789 19.4757 28 16.7689 28 14C28 10.287 26.525 6.72601 23.8995 4.1005C21.274 1.475 17.713 0 14 0ZM14 26C11.6266 26 9.30655 25.2962 7.33316 23.9776C5.35977 22.6591 3.8217 20.7849 2.91345 18.5922C2.0052 16.3995 1.76756 13.9867 2.23058 11.6589C2.69361 9.33114 3.83649 7.19295 5.51472 5.51472C7.19296 3.83649 9.33115 2.6936 11.6589 2.23058C13.9867 1.76755 16.3995 2.00519 18.5922 2.91345C20.7849 3.8217 22.6591 5.35977 23.9776 7.33316C25.2962 9.30655 26 11.6266 26 14C26 17.1826 24.7357 20.2348 22.4853 22.4853C20.2348 24.7357 17.1826 26 14 26Z" fill="#CBFB45"/>
<path opacity="0.5" d="M14 2C11.6266 2 9.30655 2.70379 7.33316 4.02236C5.35977 5.34094 3.8217 7.21509 2.91345 9.4078C2.0052 11.6005 1.76756 14.0133 2.23058 16.3411C2.6936 18.6689 3.83649 20.8071 5.51472 22.4853C7.19295 24.1635 9.33115 25.3064 11.6589 25.7694C13.9867 26.2324 16.3995 25.9948 18.5922 25.0866C20.7849 24.1783 22.6591 22.6402 23.9776 20.6668C25.2962 18.6935 26 16.3734 26 14C26 10.8174 24.7357 7.76515 22.4853 5.51472C20.2348 3.26428 17.1826 2 14 2ZM16 19V20C16 20.2652 15.8946 20.5196 15.7071 20.7071C15.5196 20.8946 15.2652 21 15 21C14.7348 21 14.4804 20.8946 14.2929 20.7071C14.1054 20.5196 14 20.2652 14 20V19H13V20C13 20.2652 12.8946 20.5196 12.7071 20.7071C12.5196 20.8946 12.2652 21 12 21C11.7348 21 11.4804 20.8946 11.2929 20.7071C11.1054 20.5196 11 20.2652 11 20V19H10C9.73479 19 9.48043 18.8946 9.2929 18.7071C9.10536 18.5196 9.00001 18.2652 9.00001 18C9.00001 17.7348 9.10536 17.4804 9.2929 17.2929C9.48043 17.1054 9.73479 17 10 17V11C9.73479 11 9.48043 10.8946 9.2929 10.7071C9.10536 10.5196 9.00001 10.2652 9.00001 10C9.00001 9.73478 9.10536 9.48043 9.2929 9.29289C9.48043 9.10536 9.73479 9 10 9H11V8C11 7.73478 11.1054 7.48043 11.2929 7.29289C11.4804 7.10536 11.7348 7 12 7C12.2652 7 12.5196 7.10536 12.7071 7.29289C12.8946 7.48043 13 7.73478 13 8V9H14V8C14 7.73478 14.1054 7.48043 14.2929 7.29289C14.4804 7.10536 14.7348 7 15 7C15.2652 7 15.5196 7.10536 15.7071 7.29289C15.8946 7.48043 16 7.73478 16 8V9.18C16.5836 9.38631 17.089 9.76807 17.4471 10.2729C17.8051 10.7778 17.9983 11.3811 18 12C17.9988 12.5141 17.8682 13.0197 17.62 13.47C18.168 13.8192 18.5879 14.3369 18.8163 14.9453C19.0448 15.5537 19.0695 16.2198 18.8869 16.8434C18.7042 17.467 18.3239 18.0145 17.8033 18.4034C17.2827 18.7923 16.6498 19.0017 16 19Z" fill="#CBFB45"/>
<path d="M42 28C39.2311 28 36.5243 28.8211 34.222 30.3594C31.9197 31.8978 30.1253 34.0843 29.0657 36.6424C28.0061 39.2006 27.7288 42.0155 28.269 44.7313C28.8092 47.447 30.1426 49.9416 32.1005 51.8995C34.0584 53.8574 36.553 55.1908 39.2687 55.731C41.9845 56.2712 44.7994 55.9939 47.3576 54.9343C49.9157 53.8747 52.1022 52.0803 53.6406 49.778C55.1789 47.4757 56 44.7689 56 42C56 38.287 54.525 34.726 51.8995 32.1005C49.274 29.475 45.713 28 42 28ZM42 54C39.6266 54 37.3066 53.2962 35.3332 51.9776C33.3598 50.6591 31.8217 48.7849 30.9135 46.5922C30.0052 44.3995 29.7676 41.9867 30.2306 39.6589C30.6936 37.3311 31.8365 35.1929 33.5147 33.5147C35.193 31.8365 37.3312 30.6936 39.6589 30.2306C41.9867 29.7676 44.3995 30.0052 46.5922 30.9134C48.7849 31.8217 50.6591 33.3598 51.9776 35.3332C53.2962 37.3065 54 39.6266 54 42C54 45.1826 52.7357 48.2348 50.4853 50.4853C48.2349 52.7357 45.1826 54 42 54Z" fill="#CBFB45"/>
<path opacity="0.5" d="M42 30C39.6266 30 37.3066 30.7038 35.3332 32.0224C33.3598 33.3409 31.8217 35.2151 30.9135 37.4078C30.0052 39.6005 29.7676 42.0133 30.2306 44.3411C30.6936 46.6689 31.8365 48.8071 33.5147 50.4853C35.193 52.1635 37.3311 53.3064 39.6589 53.7694C41.9867 54.2324 44.3995 53.9948 46.5922 53.0866C48.7849 52.1783 50.6591 50.6402 51.9776 48.6668C53.2962 46.6935 54 44.3734 54 42C54 38.8174 52.7357 35.7652 50.4853 33.5147C48.2348 31.2643 45.1826 30 42 30ZM41 41H43C43.7957 41 44.5587 41.3161 45.1213 41.8787C45.6839 42.4413 46 43.2044 46 44C46 44.7956 45.6839 45.5587 45.1213 46.1213C44.5587 46.6839 43.7957 47 43 47V48C43 48.2652 42.8946 48.5196 42.7071 48.7071C42.5196 48.8946 42.2652 49 42 49C41.7348 49 41.4804 48.8946 41.2929 48.7071C41.1054 48.5196 41 48.2652 41 48V47H39C38.7348 47 38.4804 46.8946 38.2929 46.7071C38.1054 46.5196 38 46.2652 38 46C38 45.7348 38.1054 45.4804 38.2929 45.2929C38.4804 45.1054 38.7348 45 39 45H43C43.2652 45 43.5196 44.8946 43.7071 44.7071C43.8946 44.5196 44 44.2652 44 44C44 43.7348 43.8946 43.4804 43.7071 43.2929C43.5196 43.1054 43.2652 43 43 43H41C40.2044 43 39.4413 42.6839 38.8787 42.1213C38.3161 41.5587 38 40.7956 38 40C38 39.2044 38.3161 38.4413 38.8787 37.8787C39.4413 37.3161 40.2044 37 41 37V36C41 35.7348 41.1054 35.4804 41.2929 35.2929C41.4804 35.1054 41.7348 35 42 35C42.2652 35 42.5196 35.1054 42.7071 35.2929C42.8946 35.4804 43 35.7348 43 36V37H45C45.2652 37 45.5196 37.1054 45.7071 37.2929C45.8946 37.4804 46 37.7348 46 38C46 38.2652 45.8946 38.5196 45.7071 38.7071C45.5196 38.8946 45.2652 39 45 39H41C40.7348 39 40.4804 39.1054 40.2929 39.2929C40.1054 39.4804 40 39.7348 40 40C40 40.2652 40.1054 40.5196 40.2929 40.7071C40.4804 40.8946 40.7348 41 41 41Z" fill="#CBFB45"/>
<g opacity="0.5">
<path opacity="0.5" d="M16 12C16 12.2652 15.8946 12.5196 15.7071 12.7071C15.5196 12.8946 15.2652 13 15 13H12V11H15C15.2652 11 15.5196 11.1054 15.7071 11.2929C15.8946 11.4804 16 11.7348 16 12Z" fill="#CBFB45"/>
</g>
<g opacity="0.5">
<path opacity="0.5" d="M17 16C17 16.2652 16.8946 16.5196 16.7071 16.7071C16.5196 16.8946 16.2652 17 16 17H12V15H16C16.2652 15 16.5196 15.1054 16.7071 15.2929C16.8946 15.4804 17 15.7348 17 16Z" fill="#CBFB45"/>
</g>
<path opacity="0.5" d="M24.9999 41.9999H20.9999C19.1434 41.9999 17.3629 41.2624 16.0502 39.9496C14.7374 38.6369 13.9999 36.8564 13.9999 34.9999V33.4099L16.2899 35.7099C16.3829 35.8036 16.4935 35.878 16.6154 35.9288C16.7372 35.9796 16.8679 36.0057 16.9999 36.0057C17.132 36.0057 17.2627 35.9796 17.3845 35.9288C17.5064 35.878 17.617 35.8036 17.7099 35.7099C17.8037 35.6169 17.8781 35.5063 17.9288 35.3845C17.9796 35.2626 18.0057 35.1319 18.0057 34.9999C18.0057 34.8679 17.9796 34.7372 17.9288 34.6153C17.8781 34.4935 17.8037 34.3829 17.7099 34.2899L13.7099 30.2899C13.6148 30.1989 13.5027 30.1275 13.3799 30.0799C13.1365 29.9799 12.8634 29.9799 12.6199 30.0799C12.4972 30.1275 12.385 30.1989 12.2899 30.2899L8.28994 34.2899C8.10164 34.4782 7.99585 34.7336 7.99585 34.9999C7.99585 35.2662 8.10164 35.5216 8.28994 35.7099C8.47825 35.8982 8.73364 36.004 8.99994 36.004C9.26624 36.004 9.52164 35.8982 9.70994 35.7099L11.9999 33.4099V34.9999C11.9999 37.3868 12.9482 39.676 14.636 41.3639C16.3238 43.0517 18.613 43.9999 20.9999 43.9999H24.9999C25.2652 43.9999 25.5195 43.8945 25.707 43.707C25.8946 43.5195 25.9999 43.2651 25.9999 42.9999C25.9999 42.7347 25.8946 42.4803 25.707 42.2928C25.5195 42.1053 25.2652 41.9999 24.9999 41.9999Z" fill="#CBFB45"/>
<path opacity="0.5" d="M47.71 20.29C47.617 20.1963 47.5064 20.1219 47.3846 20.0711C47.2627 20.0203 47.132 19.9942 47 19.9942C46.868 19.9942 46.7373 20.0203 46.6154 20.0711C46.4936 20.1219 46.383 20.1963 46.29 20.29L44 22.59V21C44 18.6131 43.0518 16.3239 41.364 14.636C39.6761 12.9482 37.3869 12 35 12H31C30.7348 12 30.4804 12.1054 30.2929 12.2929C30.1054 12.4804 30 12.7348 30 13C30 13.2652 30.1054 13.5196 30.2929 13.7071C30.4804 13.8946 30.7348 14 31 14H35C36.8565 14 38.637 14.7375 39.9497 16.0503C41.2625 17.363 42 19.1435 42 21V22.59L39.71 20.29C39.6168 20.1968 39.5061 20.1228 39.3843 20.0723C39.2624 20.0219 39.1319 19.9959 39 19.9959C38.8681 19.9959 38.7376 20.0219 38.6157 20.0723C38.4939 20.1228 38.3832 20.1968 38.29 20.29C38.1968 20.3832 38.1228 20.4939 38.0723 20.6158C38.0219 20.7376 37.9959 20.8681 37.9959 21C37.9959 21.1319 38.0219 21.2624 38.0723 21.3842C38.1228 21.5061 38.1968 21.6168 38.29 21.71L42.29 25.71C42.3851 25.801 42.4972 25.8724 42.62 25.92C42.7397 25.9729 42.8691 26.0002 43 26.0002C43.1309 26.0002 43.2603 25.9729 43.38 25.92C43.5028 25.8724 43.6149 25.801 43.71 25.71L47.71 21.71C47.8037 21.617 47.8781 21.5064 47.9289 21.3846C47.9797 21.2627 48.0058 21.132 48.0058 21C48.0058 20.868 47.9797 20.7373 47.9289 20.6154C47.8781 20.4936 47.8037 20.383 47.71 20.29Z" fill="#CBFB45"/>
</g>
<defs>
<clipPath id="clip0_270_1948">
<rect width="56" height="56" fill="white"/>
</clipPath>
</defs>
</svg>
