<svg width="180" height="25" viewBox="0 0 180 25" fill="none" xmlns="http://www.w3.org/2000/svg">
<g clip-path="url(#clip0_287_1606)">
<path d="M28.4575 7.6342C23.3353 7.6342 19.333 11.4917 19.333 16.6557C19.333 21.8198 23.2342 25.6443 28.4575 25.6443C33.6808 25.6443 37.6498 21.7538 37.6498 16.6227C37.6498 11.5247 33.7487 7.6342 28.4575 7.6342ZM28.4921 21.9226C25.5752 21.9226 23.4377 19.6752 23.4377 16.657C23.4377 13.6045 25.5406 11.3584 28.4575 11.3584C31.409 11.3584 33.5452 13.6388 33.5452 16.657C33.5452 19.6752 31.409 21.9226 28.4921 21.9226ZM38.7685 11.559H41.3129V25.3103H45.383V7.9694H38.7685V11.559ZM9.0899 11.3571C11.2274 11.3571 12.9233 12.6649 13.567 14.6102H17.8752C17.0945 10.4518 13.6349 7.6342 9.1245 7.6342C4.0023 7.6342 0 11.4917 0 16.657C0 21.8223 3.9012 25.6455 9.1245 25.6455C13.5338 25.6455 17.0612 22.828 17.8419 18.6353H13.567C12.9565 20.5805 11.2606 21.9226 9.1232 21.9226C6.1717 21.9226 4.1034 19.6752 4.1034 16.657C4.1047 13.6045 6.1397 11.3571 9.0899 11.3571ZM116.103 14.9797L113.118 14.5441C111.694 14.3435 110.676 13.8737 110.676 12.7665C110.676 11.559 112 10.9558 113.797 10.9558C115.764 10.9558 117.02 11.7939 117.291 13.169H121.225C120.784 9.68101 118.07 7.6355 113.899 7.6355C109.591 7.6355 106.742 9.8156 106.742 12.9011C106.742 15.852 108.608 17.5636 112.372 18.0994L115.357 18.535C116.816 18.7356 117.63 19.307 117.63 20.3799C117.63 21.755 116.206 22.3252 114.238 22.3252C111.83 22.3252 110.473 21.3525 110.269 19.8771H106.267C106.641 23.2648 109.32 25.6455 114.204 25.6455C118.648 25.6455 121.598 23.633 121.598 20.178C121.598 17.0925 119.462 15.4825 116.103 14.9797ZM43.348 0.825802C41.8556 0.825802 40.7357 1.8987 40.7357 3.3742C40.7357 4.8496 41.8543 5.9226 43.348 5.9226C44.8404 5.9226 45.9603 4.8496 45.9603 3.3742C45.9603 1.8987 44.8404 0.825802 43.348 0.825802ZM103.079 13.9067C103.079 10.1508 100.772 7.6355 95.888 7.6355C91.275 7.6355 88.698 9.9502 88.188 13.5055H92.225C92.429 12.1304 93.514 10.9901 95.82 10.9901C97.89 10.9901 98.908 11.8955 98.908 13.0027C98.908 14.4451 97.041 14.8133 94.735 15.0482C91.615 15.3834 87.748 16.4564 87.748 20.4815C87.748 23.6012 90.089 25.6125 93.82 25.6125C96.737 25.6125 98.568 24.405 99.485 22.4928C99.621 24.2031 100.909 25.3103 102.708 25.3103H105.082V21.722H103.08V13.9067H103.079ZM99.077 18.267C99.077 20.5818 97.041 22.2921 94.565 22.2921C93.038 22.2921 91.749 21.6547 91.749 20.3139C91.749 18.6035 93.819 18.1337 95.718 17.9331C97.55 17.7655 98.567 17.363 99.077 16.591V18.267ZM77.47 7.6342C75.197 7.6342 73.298 8.5738 71.941 10.1496V0.658203H67.871V25.3103H71.873V23.0299C73.23 24.6729 75.164 25.6455 77.47 25.6455C82.355 25.6455 86.052 21.8223 86.052 16.657C86.052 11.4917 82.287 7.6342 77.47 7.6342ZM76.86 21.9226C73.943 21.9226 71.806 19.6752 71.806 16.657C71.806 13.6388 73.976 11.3584 76.893 11.3584C79.845 11.3584 81.913 13.6058 81.913 16.657C81.913 19.6752 79.777 21.9226 76.86 21.9226ZM58.136 7.6342C55.49 7.6342 53.76 8.7071 52.743 10.2169V7.9694H48.706V25.3091H52.776V15.885C52.776 13.235 54.472 11.3571 56.982 11.3571C59.323 11.3571 60.78 13.0001 60.78 15.3822V25.3103H64.85V15.0812C64.852 10.7197 62.58 7.6342 58.136 7.6342ZM141 16.0869C141 11.1234 137.337 7.6355 132.418 7.6355C127.195 7.6355 123.362 11.526 123.362 16.657C123.362 22.0572 127.466 25.6455 132.486 25.6455C136.726 25.6455 140.05 23.1632 140.898 19.6422H136.657C136.047 21.1849 134.554 22.0572 132.553 22.0572C129.94 22.0572 127.973 20.4472 127.533 17.6296H140.999V16.0869H141ZM127.771 14.7448C128.416 12.3297 130.247 11.1565 132.35 11.1565C134.657 11.1565 136.42 12.4643 136.827 14.7448H127.771Z" fill="#898990"/>
</g>
<defs>
<clipPath id="clip0_287_1606">
<rect width="180" height="25" fill="white"/>
</clipPath>
</defs>
</svg>
