<svg width="80" height="80" viewBox="0 0 80 80" fill="none" xmlns="http://www.w3.org/2000/svg">
<circle cx="40" cy="40" r="40" fill="#CBFB45"/>
<g clip-path="url(#clip0_277_11163)">
<path d="M52.1564 38.7978C51.8727 35.8882 50.5548 33.1768 48.4422 31.1561C46.3295 29.1355 43.5622 27.9396 40.6428 27.7856H39.9999H39.3571C36.2112 27.9586 33.2538 29.3406 31.1028 31.6428C30.7204 32.045 30.368 32.4747 30.0485 32.9285C28.6371 34.8972 27.8488 37.2441 27.7856 39.6656C27.7856 39.7749 27.7856 39.8906 27.7856 39.9999C27.7856 40.4049 27.7856 40.8099 27.8435 41.2021C28.1272 44.1117 29.445 46.8231 31.5577 48.8437C33.6704 50.8644 36.4377 52.0603 39.3571 52.2142H39.9999H40.6428C43.7887 52.0412 46.7461 50.6593 48.8971 48.3571C49.2795 47.9549 49.6319 47.5252 49.9514 47.0714C51.3628 45.1026 52.151 42.7558 52.2142 40.3342C52.2142 40.2249 52.2142 40.1092 52.2142 39.9999C52.2142 39.5949 52.2142 39.1899 52.1564 38.7978ZM39.9999 50.9285C37.8385 50.9285 35.7255 50.2876 33.9283 49.0867C32.1311 47.8859 30.7304 46.1791 29.9032 44.1821C29.0761 42.1852 28.8597 39.9878 29.2813 37.8679C29.703 35.7479 30.7439 33.8007 32.2723 32.2723C33.8007 30.7439 35.7479 29.703 37.8679 29.2813C39.9878 28.8597 42.1852 29.0761 44.1821 29.9032C46.1791 30.7304 47.8859 32.1311 49.0867 33.9283C50.2876 35.7255 50.9285 37.8385 50.9285 39.9999C50.9285 42.8984 49.7771 45.6781 47.7276 47.7276C45.6781 49.7771 42.8984 50.9285 39.9999 50.9285Z" fill="#161617"/>
<path d="M52.1564 38.7978C51.8727 35.8882 50.5548 33.1768 48.4422 31.1561C46.3295 29.1355 43.5622 27.9396 40.6428 27.7856H39.9999H39.3571C36.2112 27.9586 33.2538 29.3406 31.1028 31.6428C30.7204 32.045 30.368 32.4747 30.0485 32.9285C28.6371 34.8972 27.8488 37.2441 27.7856 39.6656C27.7856 39.7749 27.7856 39.8906 27.7856 39.9999C27.7856 40.4049 27.7856 40.8099 27.8435 41.2021C28.1272 44.1117 29.445 46.8231 31.5577 48.8437C33.6704 50.8644 36.4377 52.0603 39.3571 52.2142H39.9999H40.6428C43.7887 52.0412 46.7461 50.6593 48.8971 48.3571C49.2795 47.9549 49.6319 47.5252 49.9514 47.0714C51.3628 45.1026 52.151 42.7558 52.2142 40.3342C52.2142 40.2249 52.2142 40.1092 52.2142 39.9999C52.2142 39.5949 52.2142 39.1899 52.1564 38.7978ZM39.9999 50.9285C37.8385 50.9285 35.7255 50.2876 33.9283 49.0867C32.1311 47.8859 30.7304 46.1791 29.9032 44.1821C29.0761 42.1852 28.8597 39.9878 29.2813 37.8679C29.703 35.7479 30.7439 33.8007 32.2723 32.2723C33.8007 30.7439 35.7479 29.703 37.8679 29.2813C39.9878 28.8597 42.1852 29.0761 44.1821 29.9032C46.1791 30.7304 47.8859 32.1311 49.0867 33.9283C50.2876 35.7255 50.9285 37.8385 50.9285 39.9999C50.9285 42.8984 49.7771 45.6781 47.7276 47.7276C45.6781 49.7771 42.8984 50.9285 39.9999 50.9285Z" fill="#161617"/>
<g opacity="0.5">
<path opacity="0.5" d="M41.0029 37.4286H38.0714V39.3571H41.0029C41.2479 39.3555 41.4823 39.2574 41.6556 39.0841C41.8288 38.9109 41.9269 38.6764 41.9286 38.4314V38.3543C41.9269 38.1093 41.8288 37.8748 41.6556 37.7016C41.4823 37.5283 41.2479 37.4303 41.0029 37.4286ZM41.0029 37.4286H38.0714V39.3571H41.0029C41.2479 39.3555 41.4823 39.2574 41.6556 39.0841C41.8288 38.9109 41.9269 38.6764 41.9286 38.4314V38.3543C41.9269 38.1093 41.8288 37.8748 41.6556 37.7016C41.4823 37.5283 41.2479 37.4303 41.0029 37.4286ZM41.0029 37.4286H38.0714V39.3571H41.0029C41.2479 39.3555 41.4823 39.2574 41.6556 39.0841C41.8288 38.9109 41.9269 38.6764 41.9286 38.4314V38.3543C41.9269 38.1093 41.8288 37.8748 41.6556 37.7016C41.4823 37.5283 41.2479 37.4303 41.0029 37.4286ZM41.6071 40.6429H38.0714V42.5714H41.6071C41.8629 42.5714 42.1082 42.4698 42.289 42.289C42.4698 42.1082 42.5714 41.8629 42.5714 41.6071C42.5714 41.3514 42.4698 41.1061 42.289 40.9253C42.1082 40.7445 41.8629 40.6429 41.6071 40.6429ZM41.6071 40.6429H38.0714V42.5714H41.6071C41.8629 42.5714 42.1082 42.4698 42.289 42.289C42.4698 42.1082 42.5714 41.8629 42.5714 41.6071C42.5714 41.3514 42.4698 41.1061 42.289 40.9253C42.1082 40.7445 41.8629 40.6429 41.6071 40.6429ZM41.0029 37.4286H38.0714V39.3571H41.0029C41.2479 39.3555 41.4823 39.2574 41.6556 39.0841C41.8288 38.9109 41.9269 38.6764 41.9286 38.4314V38.3543C41.9269 38.1093 41.8288 37.8748 41.6556 37.7016C41.4823 37.5283 41.2479 37.4303 41.0029 37.4286ZM41.9286 38.4314V38.3543C41.9269 38.1093 41.8288 37.8748 41.6556 37.7016C41.4823 37.5283 41.2479 37.4303 41.0029 37.4286H38.0714V39.3571H41.0029C41.2479 39.3555 41.4823 39.2574 41.6556 39.0841C41.8288 38.9109 41.9269 38.6764 41.9286 38.4314ZM41.6071 40.6429H38.0714V42.5714H41.6071C41.8629 42.5714 42.1082 42.4698 42.289 42.289C42.4698 42.1082 42.5714 41.8629 42.5714 41.6071C42.5714 41.3514 42.4698 41.1061 42.289 40.9253C42.1082 40.7445 41.8629 40.6429 41.6071 40.6429ZM40 31C38.22 31 36.4799 31.5278 34.9999 32.5168C33.5198 33.5057 32.3663 34.9113 31.6851 36.5558C31.0039 38.2004 30.8257 40.01 31.1729 41.7558C31.5202 43.5016 32.3774 45.1053 33.636 46.364C34.8947 47.6226 36.4984 48.4798 38.2442 48.8271C39.99 49.1743 41.7996 48.9961 43.4442 48.3149C45.0887 47.6337 46.4943 46.4802 47.4832 45.0001C48.4722 43.5201 49 41.78 49 40C49 37.6131 48.0518 35.3239 46.364 33.636C44.6761 31.9482 42.387 31 40 31ZM41.6071 43.8571H41.2857V44.5C41.2857 44.6705 41.218 44.834 41.0974 44.9546C40.9769 45.0751 40.8134 45.1429 40.6429 45.1429C40.4724 45.1429 40.3089 45.0751 40.1883 44.9546C40.0677 44.834 40 44.6705 40 44.5V43.8571H38.7143V44.5C38.7143 44.6705 38.6466 44.834 38.526 44.9546C38.4054 45.0751 38.2419 45.1429 38.0714 45.1429C37.9009 45.1429 37.7374 45.0751 37.6169 44.9546C37.4963 44.834 37.4286 44.6705 37.4286 44.5V43.8571H36.7857C36.6152 43.8571 36.4517 43.7894 36.3311 43.6689C36.2106 43.5483 36.1429 43.3848 36.1429 43.2143C36.1429 43.0438 36.2106 42.8803 36.3311 42.7597C36.4517 42.6392 36.6152 42.5714 36.7857 42.5714V37.4286C36.6152 37.4286 36.4517 37.3608 36.3311 37.2403C36.2106 37.1197 36.1429 36.9562 36.1429 36.7857C36.1429 36.6152 36.2106 36.4517 36.3311 36.3311C36.4517 36.2106 36.6152 36.1429 36.7857 36.1429H37.4286V35.5C37.4286 35.3295 37.4963 35.166 37.6169 35.0454C37.7374 34.9249 37.9009 34.8571 38.0714 34.8571C38.2419 34.8571 38.4054 34.9249 38.526 35.0454C38.6466 35.166 38.7143 35.3295 38.7143 35.5V36.1429H40V35.5C40 35.3295 40.0677 35.166 40.1883 35.0454C40.3089 34.9249 40.4724 34.8571 40.6429 34.8571C40.8134 34.8571 40.9769 34.9249 41.0974 35.0454C41.218 35.166 41.2857 35.3295 41.2857 35.5V36.1429C41.8186 36.2116 42.3083 36.472 42.6632 36.8754C43.0181 37.2788 43.214 37.7977 43.2143 38.335V38.4121C43.2185 38.8737 43.0743 39.3245 42.8029 39.6979C43.1282 39.8983 43.3962 40.1794 43.5809 40.5139C43.7656 40.8485 43.8608 41.225 43.8571 41.6071C43.8571 42.2039 43.6201 42.7762 43.1981 43.1981C42.7762 43.6201 42.2039 43.8571 41.6071 43.8571ZM41.9286 38.4314V38.3543C41.9269 38.1093 41.8288 37.8748 41.6556 37.7016C41.4823 37.5283 41.2479 37.4303 41.0029 37.4286H38.0714V39.3571H41.0029C41.2479 39.3555 41.4823 39.2574 41.6556 39.0841C41.8288 38.9109 41.9269 38.6764 41.9286 38.4314ZM41.6071 40.6429H38.0714V42.5714H41.6071C41.8629 42.5714 42.1082 42.4698 42.289 42.289C42.4698 42.1082 42.5714 41.8629 42.5714 41.6071C42.5714 41.3514 42.4698 41.1061 42.289 40.9253C42.1082 40.7445 41.8629 40.6429 41.6071 40.6429ZM41.6071 40.6429H38.0714V42.5714H41.6071C41.8629 42.5714 42.1082 42.4698 42.289 42.289C42.4698 42.1082 42.5714 41.8629 42.5714 41.6071C42.5714 41.3514 42.4698 41.1061 42.289 40.9253C42.1082 40.7445 41.8629 40.6429 41.6071 40.6429ZM41.0029 37.4286H38.0714V39.3571H41.0029C41.2479 39.3555 41.4823 39.2574 41.6556 39.0841C41.8288 38.9109 41.9269 38.6764 41.9286 38.4314V38.3543C41.9269 38.1093 41.8288 37.8748 41.6556 37.7016C41.4823 37.5283 41.2479 37.4303 41.0029 37.4286ZM41.0029 37.4286H38.0714V39.3571H41.0029C41.2479 39.3555 41.4823 39.2574 41.6556 39.0841C41.8288 38.9109 41.9269 38.6764 41.9286 38.4314V38.3543C41.9269 38.1093 41.8288 37.8748 41.6556 37.7016C41.4823 37.5283 41.2479 37.4303 41.0029 37.4286ZM41.6071 40.6429H38.0714V42.5714H41.6071C41.8629 42.5714 42.1082 42.4698 42.289 42.289C42.4698 42.1082 42.5714 41.8629 42.5714 41.6071C42.5714 41.3514 42.4698 41.1061 42.289 40.9253C42.1082 40.7445 41.8629 40.6429 41.6071 40.6429ZM41.0029 37.4286H38.0714V39.3571H41.0029C41.2479 39.3555 41.4823 39.2574 41.6556 39.0841C41.8288 38.9109 41.9269 38.6764 41.9286 38.4314V38.3543C41.9269 38.1093 41.8288 37.8748 41.6556 37.7016C41.4823 37.5283 41.2479 37.4303 41.0029 37.4286ZM41.0029 37.4286H38.0714V39.3571H41.0029C41.2479 39.3555 41.4823 39.2574 41.6556 39.0841C41.8288 38.9109 41.9269 38.6764 41.9286 38.4314V38.3543C41.9269 38.1093 41.8288 37.8748 41.6556 37.7016C41.4823 37.5283 41.2479 37.4303 41.0029 37.4286Z" fill="#161617"/>
</g>
<g opacity="0.5">
<path opacity="0.5" d="M40 29.0714C39.8295 29.0714 39.666 29.0036 39.5455 28.8831C39.4249 28.7625 39.3572 28.599 39.3572 28.4285V23.9285C39.3572 23.758 39.4249 23.5945 39.5455 23.4739C39.666 23.3534 39.8295 23.2856 40 23.2856H45.7857C45.9562 23.2856 46.1198 23.3534 46.2403 23.4739C46.3609 23.5945 46.4286 23.758 46.4286 23.9285C46.4286 24.099 46.3609 24.2625 46.2403 24.3831C46.1198 24.5036 45.9562 24.5714 45.7857 24.5714H40.6429V28.4285C40.6429 28.599 40.5752 28.7625 40.4546 28.8831C40.334 29.0036 40.1705 29.0714 40 29.0714Z" fill="#161617"/>
</g>
<path d="M47.0714 22C46.6735 22.0011 46.2857 22.1253 45.9612 22.3555C45.6366 22.5856 45.3912 22.9106 45.2586 23.2857C45.1807 23.491 45.1415 23.709 45.1429 23.9286C45.1415 24.1482 45.1807 24.3661 45.2586 24.5714C45.3765 24.905 45.5839 25.1997 45.8581 25.4233C46.1323 25.6468 46.4628 25.7907 46.8132 25.839C47.1637 25.8874 47.5207 25.8384 47.8452 25.6975C48.1697 25.5565 48.4492 25.329 48.6531 25.0398C48.8569 24.7507 48.9773 24.411 49.0011 24.058C49.0248 23.705 48.951 23.3523 48.7877 23.0384C48.6244 22.7245 48.3779 22.4617 48.0752 22.2785C47.7725 22.0954 47.4252 21.999 47.0714 22ZM47.0714 24.5714C46.9443 24.5714 46.82 24.5337 46.7143 24.4631C46.6086 24.3925 46.5262 24.2921 46.4775 24.1746C46.4289 24.0571 46.4161 23.9279 46.4409 23.8032C46.4657 23.6785 46.527 23.5639 46.6169 23.474C46.7068 23.3841 46.8213 23.3229 46.946 23.2981C47.0707 23.2733 47.2 23.286 47.3174 23.3347C47.4349 23.3833 47.5353 23.4657 47.6059 23.5714C47.6766 23.6771 47.7143 23.8014 47.7143 23.9286C47.7143 24.0991 47.6466 24.2626 47.526 24.3831C47.4054 24.5037 47.2419 24.5714 47.0714 24.5714Z" fill="#161617"/>
<g opacity="0.5">
<path opacity="0.5" d="M40.0001 56.7142H34.2144C34.0439 56.7142 33.8804 56.6465 33.7598 56.5259C33.6393 56.4053 33.5715 56.2418 33.5715 56.0713C33.5715 55.9008 33.6393 55.7373 33.7598 55.6168C33.8804 55.4962 34.0439 55.4285 34.2144 55.4285H39.3572V51.5713C39.3572 51.4008 39.425 51.2373 39.5455 51.1168C39.6661 50.9962 39.8296 50.9285 40.0001 50.9285C40.1706 50.9285 40.3341 50.9962 40.4547 51.1168C40.5752 51.2373 40.643 51.4008 40.643 51.5713V56.0713C40.643 56.2418 40.5752 56.4053 40.4547 56.5259C40.3341 56.6465 40.1706 56.7142 40.0001 56.7142Z" fill="#161617"/>
</g>
<path d="M34.7415 55.4285C34.5898 54.9996 34.2914 54.6381 33.899 54.4079C33.5066 54.1777 33.0455 54.0937 32.5971 54.1706C32.1487 54.2475 31.7419 54.4805 31.4487 54.8283C31.1555 55.1762 30.9946 55.6165 30.9946 56.0714C30.9946 56.5263 31.1555 56.9666 31.4487 57.3145C31.7419 57.6623 32.1487 57.8953 32.5971 57.9722C33.0455 58.0491 33.5066 57.9651 33.899 57.7349C34.2914 57.5047 34.5898 57.1432 34.7415 56.7143C34.8956 56.2995 34.8956 55.8432 34.7415 55.4285ZM32.9286 56.7143C32.8015 56.7143 32.6772 56.6766 32.5715 56.6059C32.4657 56.5353 32.3834 56.4349 32.3347 56.3174C32.286 56.1999 32.2733 56.0707 32.2981 55.946C32.3229 55.8213 32.3841 55.7067 32.474 55.6168C32.564 55.5269 32.6785 55.4657 32.8032 55.4409C32.9279 55.4161 33.0572 55.4288 33.1746 55.4775C33.2921 55.5261 33.3925 55.6085 33.4631 55.7142C33.5338 55.82 33.5715 55.9443 33.5715 56.0714C33.5715 56.2419 33.5037 56.4054 33.3832 56.526C33.2626 56.6465 33.0991 56.7143 32.9286 56.7143Z" fill="#161617"/>
<path d="M54.1428 23.9285C53.6313 23.9285 53.1407 24.1317 52.7791 24.4933C52.4174 24.855 52.2142 25.3455 52.2142 25.857C52.2115 26.1428 52.2777 26.4251 52.407 26.6799C52.5924 27.0835 52.9163 27.4074 53.3199 27.5928C53.5747 27.7221 53.857 27.7883 54.1428 27.7856C54.6542 27.7856 55.1448 27.5824 55.5065 27.2207C55.8681 26.8591 56.0713 26.3685 56.0713 25.857C56.0713 25.3455 55.8681 24.855 55.5065 24.4933C55.1448 24.1317 54.6542 23.9285 54.1428 23.9285ZM54.1428 26.4999C53.9865 26.4997 53.8357 26.4425 53.7185 26.3392L53.6606 26.2813C53.5573 26.1641 53.5001 26.0133 53.4999 25.857C53.4999 25.7299 53.5376 25.6056 53.6082 25.4999C53.6789 25.3942 53.7793 25.3118 53.8968 25.2631C54.0142 25.2145 54.1435 25.2017 54.2682 25.2265C54.3929 25.2513 54.5074 25.3126 54.5973 25.4025C54.6872 25.4924 54.7485 25.6069 54.7733 25.7316C54.7981 25.8563 54.7853 25.9856 54.7367 26.103C54.688 26.2205 54.6056 26.3209 54.4999 26.3916C54.3942 26.4622 54.2699 26.4999 54.1428 26.4999Z" fill="#161617"/>
<g opacity="0.5">
<path opacity="0.5" d="M48.1836 32.4594C48.0978 32.4633 48.012 32.4499 47.9314 32.4201C47.8508 32.3903 47.777 32.3446 47.7143 32.2858C47.6541 32.226 47.6062 32.1549 47.5736 32.0766C47.541 31.9983 47.5242 31.9142 47.5242 31.8294C47.5242 31.7445 47.541 31.6605 47.5736 31.5821C47.6062 31.5038 47.6541 31.4327 47.7143 31.3729L52.78 26.3072C52.84 26.2473 52.9111 26.1997 52.9895 26.1673C53.0678 26.1349 53.1517 26.1182 53.2365 26.1182C53.3212 26.1182 53.4052 26.1349 53.4835 26.1673C53.5618 26.1997 53.633 26.2473 53.6929 26.3072C53.7528 26.3672 53.8004 26.4383 53.8328 26.5166C53.8653 26.5949 53.882 26.6789 53.882 26.7637C53.882 26.8484 53.8653 26.9324 53.8328 27.0107C53.8004 27.089 53.7528 27.1601 53.6929 27.2201L48.64 32.2858C48.5166 32.4014 48.3527 32.4638 48.1836 32.4594Z" fill="#161617"/>
</g>
<path d="M27.5928 53.3199C27.4074 52.9163 27.0835 52.5924 26.6799 52.407C26.4251 52.2777 26.1428 52.2115 25.857 52.2142C25.4756 52.2142 25.1027 52.3273 24.7856 52.5392C24.4684 52.7511 24.2212 53.0523 24.0753 53.4047C23.9293 53.7571 23.8911 54.1449 23.9655 54.519C24.0399 54.8931 24.2236 55.2368 24.4933 55.5065C24.763 55.7762 25.1067 55.9599 25.4808 56.0343C25.8549 56.1087 26.2427 56.0705 26.5951 55.9245C26.9475 55.7786 27.2487 55.5314 27.4606 55.2142C27.6725 54.8971 27.7856 54.5242 27.7856 54.1428C27.7883 53.857 27.7221 53.5747 27.5928 53.3199ZM25.857 54.7856C25.6865 54.7856 25.523 54.7179 25.4025 54.5973C25.2819 54.4768 25.2142 54.3133 25.2142 54.1428C25.2142 53.9723 25.2819 53.8088 25.4025 53.6882C25.523 53.5676 25.6865 53.4999 25.857 53.4999C26.0133 53.5001 26.1641 53.5573 26.2813 53.6606C26.3499 53.7209 26.4049 53.795 26.4425 53.8781C26.4802 53.9613 26.4998 54.0515 26.4999 54.1428C26.4999 54.3133 26.4322 54.4768 26.3116 54.5973C26.191 54.7179 26.0275 54.7856 25.857 54.7856Z" fill="#161617"/>
<g opacity="0.5">
<path opacity="0.5" d="M26.7635 53.8792C26.6789 53.8797 26.5951 53.8635 26.5167 53.8315C26.4384 53.7995 26.3672 53.7523 26.3071 53.6928C26.2468 53.633 26.199 53.5619 26.1664 53.4836C26.1337 53.4052 26.1169 53.3212 26.1169 53.2363C26.1169 53.1515 26.1337 53.0674 26.1664 52.9891C26.199 52.9108 26.2468 52.8397 26.3071 52.7799L31.36 47.7142C31.4827 47.5914 31.6492 47.5225 31.8228 47.5225C31.9964 47.5225 32.1629 47.5914 32.2857 47.7142C32.4084 47.8369 32.4774 48.0034 32.4774 48.177C32.4774 48.3506 32.4084 48.5171 32.2857 48.6399L27.22 53.6928C27.1599 53.7523 27.0886 53.7995 27.0103 53.8315C26.932 53.8635 26.8481 53.8797 26.7635 53.8792Z" fill="#161617"/>
</g>
<g opacity="0.5">
<path opacity="0.5" d="M31.3793 32.9287H27.1429C26.9724 32.9287 26.8088 32.8609 26.6883 32.7404C26.5677 32.6198 26.5 32.4563 26.5 32.2858V25.2144C26.5 25.0439 26.5677 24.8804 26.6883 24.7598C26.8088 24.6393 26.9724 24.5715 27.1429 24.5715C27.3134 24.5715 27.4769 24.6393 27.5974 24.7598C27.718 24.8804 27.7857 25.0439 27.7857 25.2144V31.643H31.3793C31.5498 31.643 31.7133 31.7107 31.8339 31.8313C31.9544 31.9518 32.0221 32.1153 32.0221 32.2858C32.0221 32.4563 31.9544 32.6198 31.8339 32.7404C31.7133 32.8609 31.5498 32.9287 31.3793 32.9287Z" fill="#161617"/>
</g>
<path d="M27.1429 22C26.6906 22.0035 26.2539 22.1659 25.9092 22.4587C25.5645 22.7515 25.3337 23.1562 25.2571 23.6019C25.1805 24.0477 25.263 24.5062 25.4902 24.8973C25.7174 25.2884 26.0748 25.5872 26.5 25.7414C26.9147 25.8956 27.371 25.8956 27.7857 25.7414C28.2109 25.5872 28.5683 25.2884 28.7955 24.8973C29.0227 24.5062 29.1052 24.0477 29.0286 23.6019C28.952 23.1562 28.7212 22.7515 28.3765 22.4587C28.0318 22.1659 27.5951 22.0035 27.1429 22ZM27.1429 24.5714C27.0157 24.5714 26.8914 24.5337 26.7857 24.4631C26.68 24.3924 26.5976 24.292 26.5489 24.1746C26.5003 24.0571 26.4876 23.9279 26.5124 23.8032C26.5372 23.6785 26.5984 23.5639 26.6883 23.474C26.7782 23.3841 26.8927 23.3229 27.0174 23.2981C27.1421 23.2733 27.2714 23.286 27.3889 23.3346C27.5063 23.3833 27.6067 23.4657 27.6774 23.5714C27.748 23.6771 27.7857 23.8014 27.7857 23.9286C27.7857 24.0991 27.718 24.2626 27.5974 24.3831C27.4769 24.5037 27.3134 24.5714 27.1429 24.5714Z" fill="#161617"/>
<g opacity="0.5">
<path opacity="0.5" d="M52.8571 55.4287C52.6866 55.4287 52.5231 55.3609 52.4025 55.2404C52.2819 55.1198 52.2142 54.9563 52.2142 54.7858V48.3572H48.6206C48.4501 48.3572 48.2866 48.2895 48.1661 48.169C48.0455 48.0484 47.9778 47.8849 47.9778 47.7144C47.9778 47.5439 48.0455 47.3804 48.1661 47.2598C48.2866 47.1393 48.4501 47.0715 48.6206 47.0715H52.8571C53.0276 47.0715 53.1911 47.1393 53.3116 47.2598C53.4322 47.3804 53.4999 47.5439 53.4999 47.7144V54.7858C53.4999 54.9563 53.4322 55.1198 53.3116 55.2404C53.1911 55.3609 53.0276 55.4287 52.8571 55.4287Z" fill="#161617"/>
</g>
<path d="M53.4999 54.2587C53.0852 54.1045 52.6289 54.1045 52.2142 54.2587C51.7853 54.4103 51.4238 54.7087 51.1936 55.1011C50.9634 55.4935 50.8793 55.9547 50.9562 56.4031C51.0332 56.8515 51.2661 57.2582 51.614 57.5515C51.9618 57.8447 52.4021 58.0055 52.857 58.0055C53.312 58.0055 53.7523 57.8447 54.1001 57.5515C54.4479 57.2582 54.6809 56.8515 54.7578 56.4031C54.8348 55.9547 54.7507 55.4935 54.5205 55.1011C54.2903 54.7087 53.9288 54.4103 53.4999 54.2587ZM52.857 56.7144C52.7299 56.7144 52.6056 56.6767 52.4999 56.6061C52.3942 56.5354 52.3118 56.435 52.2631 56.3176C52.2145 56.2001 52.2017 56.0708 52.2265 55.9461C52.2513 55.8214 52.3126 55.7069 52.4025 55.617C52.4924 55.5271 52.6069 55.4658 52.7316 55.441C52.8563 55.4162 52.9856 55.429 53.1031 55.4776C53.2205 55.5263 53.3209 55.6087 53.3916 55.7144C53.4622 55.8201 53.4999 55.9444 53.4999 56.0715C53.4999 56.242 53.4322 56.4056 53.3116 56.5261C53.1911 56.6467 53.0275 56.7144 52.857 56.7144Z" fill="#161617"/>
<path d="M24.5714 44.6158C24.3661 44.5379 24.1482 44.4986 23.9286 44.5C23.709 44.4986 23.491 44.5379 23.2857 44.6158C22.8568 44.7674 22.4953 45.0658 22.2651 45.4582C22.0349 45.8506 21.9508 46.3118 22.0278 46.7601C22.1047 47.2085 22.3377 47.6153 22.6855 47.9085C23.0333 48.2018 23.4736 48.3626 23.9286 48.3626C24.3835 48.3626 24.8238 48.2018 25.1716 47.9085C25.5195 47.6153 25.7524 47.2085 25.8294 46.7601C25.9063 46.3118 25.8222 45.8506 25.5921 45.4582C25.3619 45.0658 25.0004 44.7674 24.5714 44.6158ZM23.9286 47.0715C23.8014 47.0715 23.6771 47.0338 23.5714 46.9631C23.4657 46.8925 23.3833 46.7921 23.3347 46.6746C23.286 46.5571 23.2733 46.4279 23.2981 46.3032C23.3229 46.1785 23.3841 46.0639 23.474 45.974C23.5639 45.8841 23.6785 45.8229 23.8032 45.7981C23.9279 45.7733 24.0571 45.786 24.1746 45.8347C24.2921 45.8833 24.3925 45.9657 24.4631 46.0715C24.5337 46.1772 24.5714 46.3015 24.5714 46.4286C24.5714 46.5991 24.5037 46.7626 24.3831 46.8832C24.2626 47.0037 24.0991 47.0715 23.9286 47.0715Z" fill="#161617"/>
<g opacity="0.5">
<path opacity="0.5" d="M23.9285 45.7858C23.758 45.7858 23.5945 45.7181 23.4739 45.5975C23.3534 45.477 23.2856 45.3134 23.2856 45.143V43.2144C23.2861 43.1124 23.3108 43.012 23.3578 42.9214C23.4047 42.8309 23.4726 42.7528 23.5556 42.6937L28.0556 39.4794C28.1941 39.3974 28.3582 39.3703 28.5156 39.4034C28.673 39.4365 28.8123 39.5275 28.9059 39.6582C28.9996 39.789 29.0408 39.9502 29.0214 40.1099C29.0021 40.2696 28.9235 40.4162 28.8014 40.5208L24.5714 43.5422V45.143C24.5714 45.3134 24.5036 45.477 24.3831 45.5975C24.2625 45.7181 24.099 45.7858 23.9285 45.7858Z" fill="#161617"/>
</g>
<path d="M56.0713 31.6428C55.6191 31.6463 55.1824 31.8087 54.8377 32.1015C54.493 32.3943 54.2622 32.799 54.1856 33.2448C54.109 33.6905 54.1915 34.149 54.4187 34.5401C54.6459 34.9312 55.0033 35.23 55.4285 35.3843C55.8432 35.5384 56.2995 35.5384 56.7142 35.3843C57.1394 35.23 57.4968 34.9312 57.724 34.5401C57.9512 34.149 58.0337 33.6905 57.9571 33.2448C57.8805 32.799 57.6497 32.3943 57.305 32.1015C56.9603 31.8087 56.5236 31.6463 56.0713 31.6428ZM56.0713 34.2143C55.9442 34.2143 55.8199 34.1765 55.7142 34.1059C55.6085 34.0353 55.5261 33.9349 55.4774 33.8174C55.4288 33.6999 55.416 33.5707 55.4408 33.446C55.4656 33.3213 55.5269 33.2067 55.6168 33.1168C55.7067 33.0269 55.8212 32.9657 55.9459 32.9409C56.0706 32.9161 56.1999 32.9288 56.3173 32.9775C56.4348 33.0261 56.5352 33.1085 56.6058 33.2142C56.6765 33.32 56.7142 33.4442 56.7142 33.5714C56.7142 33.7419 56.6465 33.9054 56.5259 34.026C56.4053 34.1465 56.2418 34.2143 56.0713 34.2143Z" fill="#161617"/>
<g opacity="0.5">
<path opacity="0.5" d="M51.5714 40.6429C51.4359 40.6421 51.3041 40.5984 51.1949 40.5182C51.0857 40.438 51.0046 40.3253 50.9633 40.1963C50.9219 40.0672 50.9224 39.9284 50.9647 39.7997C51.0069 39.6709 51.0887 39.5588 51.1985 39.4794L55.4285 36.4579V34.8572C55.4285 34.6867 55.4962 34.5232 55.6168 34.4026C55.7374 34.2821 55.9009 34.2144 56.0714 34.2144C56.2419 34.2144 56.4054 34.2821 56.5259 34.4026C56.6465 34.5232 56.7142 34.6867 56.7142 34.8572V36.7858C56.7137 36.8878 56.689 36.9882 56.6421 37.0787C56.5951 37.1693 56.5273 37.2473 56.4442 37.3065L51.9442 40.5208C51.8357 40.5994 51.7053 40.6421 51.5714 40.6429Z" fill="#161617"/>
</g>
</g>
<defs>
<clipPath id="clip0_277_11163">
<rect width="36" height="36" fill="white" transform="translate(22 22)"/>
</clipPath>
</defs>
</svg>
