<svg width="110" height="110" viewBox="0 0 110 110" fill="none" xmlns="http://www.w3.org/2000/svg">
<circle cx="55" cy="55" r="55" fill="#151517"/>
<g clip-path="url(#clip0_270_2015)">
<path d="M50.5801 50.0795L50.4101 49.9995L50.0001 49.7995L49.5201 49.5295L49.0001 49.2495L48.5401 48.9395C48.2501 48.7195 47.9601 48.4895 47.6901 48.2495C46.0475 46.7898 44.8748 44.8758 44.3201 42.7495C44.2634 42.5295 44.1334 42.3353 43.9517 42.199C43.7699 42.0627 43.5471 41.9923 43.3201 41.9995H31.7501C30.4574 42.0336 29.2311 42.5793 28.3405 43.5167C27.4499 44.4542 26.9678 45.7068 27.0001 46.9995C26.9997 47.3354 27.0332 47.6704 27.1001 47.9995C27.2793 48.9448 27.7191 49.8211 28.3701 50.5295C28.5629 50.7316 28.7738 50.9157 29.0001 51.0795C29.7908 51.6799 30.7572 52.0032 31.7501 51.9995H50.2001C50.4295 51.9968 50.6511 51.9153 50.8276 51.7686C51.0041 51.6218 51.1247 51.4189 51.1693 51.1937C51.2138 50.9686 51.1796 50.735 51.0723 50.5321C50.965 50.3292 50.7912 50.1694 50.5801 50.0795ZM31.7501 49.9995C31.3888 49.9973 31.0319 49.9207 30.7015 49.7744C30.3712 49.6282 30.0745 49.4155 29.8301 49.1495C29.4327 48.7195 29.1656 48.1854 29.0601 47.6095C29.0212 47.4085 29.0011 47.2043 29.0001 46.9995C28.9702 46.2379 29.2424 45.4953 29.7575 44.9334C30.2725 44.3715 30.9887 44.0359 31.7501 43.9995H42.6301L42.8101 44.5195C42.8701 44.6895 42.9301 44.8495 43.0001 44.9995C43.2304 45.547 43.4977 46.0782 43.8001 46.5895C43.9401 46.8295 44.0801 47.0595 44.2401 47.2895C44.7851 48.1007 45.4228 48.8457 46.1401 49.5095C46.2794 49.6475 46.4263 49.7777 46.5801 49.8995L46.6901 49.9995H31.7501Z" fill="#CBFB45"/>
<path opacity="0.5" d="M46.69 50H32C31.2061 50.002 30.4437 49.6891 29.88 49.13C29.4687 48.7109 29.1844 48.1839 29.06 47.61C29.0212 47.409 29.0011 47.2048 29 47C28.9701 46.2384 29.2424 45.4958 29.7574 44.9339C30.2725 44.372 30.9887 44.0363 31.75 44H42.63L42.81 44.52C42.87 44.68 42.93 44.84 43 45C43.2304 45.5475 43.4977 46.0787 43.8 46.59C43.94 46.83 44.08 47.06 44.24 47.29C44.7851 48.1012 45.4227 48.8462 46.14 49.51C46.2794 49.648 46.4263 49.7782 46.58 49.9L46.69 50Z" fill="#CBFB45"/>
<path d="M70.0002 41.9995H66.6202C66.3931 41.9923 66.1703 42.0627 65.9885 42.199C65.8068 42.3353 65.6768 42.5295 65.6202 42.7495C65.6202 42.9495 65.5102 43.1495 65.4502 43.3495C65.3902 43.5495 65.3302 43.7095 65.2602 43.8795C65.1872 44.0837 65.1037 44.2839 65.0102 44.4795C64.9337 44.6675 64.8469 44.8511 64.7502 45.0295C64.6502 45.2295 64.5402 45.4295 64.4202 45.6195C64.3196 45.7987 64.2095 45.9723 64.0902 46.1395C63.9202 46.3895 63.7502 46.6295 63.5602 46.8595L63.4902 46.9495C63.3102 47.1695 63.1202 47.3895 62.9302 47.5895C62.7302 47.7995 62.5102 48.0095 62.2902 48.1995C62.0472 48.4289 61.7901 48.6426 61.5202 48.8395C61.2031 49.0803 60.8689 49.2976 60.5202 49.4895C60.3423 49.5993 60.1587 49.6994 59.9702 49.7895L59.5702 49.9795L59.4002 50.0595C59.1874 50.1501 59.0127 50.3116 58.9056 50.5166C58.7986 50.7215 58.7659 50.9572 58.813 51.1835C58.8602 51.4099 58.9843 51.6129 59.1643 51.758C59.3443 51.9031 59.569 51.9814 59.8002 51.9795H73.0002C73.2654 51.9795 73.5197 51.8742 73.7073 51.6866C73.8948 51.4991 74.0002 51.2447 74.0002 50.9795V45.9995C74.0002 44.9387 73.5787 43.9212 72.8286 43.1711C72.0784 42.421 71.061 41.9995 70.0002 41.9995ZM63.3102 49.9995C63.5402 49.8095 63.7502 49.6095 63.9602 49.4095C64.1702 49.2095 64.3402 49.0295 64.5202 48.8295C64.6941 48.6489 64.8576 48.4586 65.0102 48.2595C65.3223 47.8889 65.6096 47.498 65.8702 47.0895C66.0118 46.8869 66.142 46.6766 66.2602 46.4595C66.4202 46.1795 66.5702 45.8895 66.7102 45.5895C66.8202 45.3695 66.9102 45.1495 67.0002 44.9295C67.0902 44.7095 67.2302 44.3495 67.3202 44.0595H70.0002C70.5306 44.0595 71.0393 44.2702 71.4144 44.6453C71.7894 45.0204 72.0002 45.5291 72.0002 46.0595V50.0595L63.3102 49.9995Z" fill="#CBFB45"/>
<path opacity="0.5" d="M72.0001 45.9996V49.9996H63.3101C63.5401 49.8096 63.7501 49.6096 63.9601 49.4096C64.1701 49.2096 64.3401 49.0296 64.5201 48.8296C64.6968 48.6515 64.8605 48.461 65.0101 48.2596C65.3222 47.8889 65.6095 47.4981 65.8701 47.0896C66.0101 46.8896 66.1401 46.6696 66.2601 46.4596C66.4259 46.178 66.5761 45.8876 66.7101 45.5896C66.821 45.3761 66.9179 45.1557 67.0001 44.9296C67.1201 44.6396 67.2301 44.3496 67.3201 44.0596H70.0001C70.5203 44.0593 71.0201 44.2618 71.3935 44.624C71.7669 44.9862 71.9845 45.4796 72.0001 45.9996Z" fill="#CBFB45"/>
<path d="M80.0001 57.5C79.7349 57.5 79.4805 57.6054 79.293 57.7929C79.1054 57.9804 79.0001 58.2348 79.0001 58.5C79.001 58.8295 78.936 59.1558 78.809 59.4598C78.6819 59.7638 78.4953 60.0392 78.2601 60.27C78.174 60.3581 78.0803 60.4384 77.9801 60.51C77.8806 60.5824 77.7771 60.6492 77.6701 60.71L77.3701 60.84C77.2518 60.9042 77.1279 60.9578 77.0001 61C76.8338 61.0153 76.6664 61.0153 76.5001 61H74.0001C72.6766 61.0003 71.4071 61.5253 70.4701 62.46C69.5859 63.3384 69.0617 64.5152 69.0001 65.76C68.9709 66.4188 69.0774 67.0765 69.3131 67.6924C69.5487 68.3082 69.9085 68.8691 70.3701 69.34C70.8674 69.8638 71.4661 70.2811 72.1296 70.5664C72.7932 70.8518 73.5078 70.9993 74.2301 71H77.0001C78.061 71 79.0784 70.5786 79.8285 69.8284C80.5787 69.0783 81.0001 68.0609 81.0001 67V58.5C81.0001 58.2348 80.8947 57.9804 80.7072 57.7929C80.5197 57.6054 80.2653 57.5 80.0001 57.5ZM79.0001 67C79.0001 67.5304 78.7894 68.0391 78.4143 68.4142C78.0392 68.7893 77.5305 69 77.0001 69H74.2301C73.7819 69.003 73.3377 68.916 72.9237 68.7443C72.5098 68.5725 72.1345 68.3194 71.8201 68C71.5458 67.7255 71.3314 67.3973 71.1903 67.0358C71.0491 66.6744 70.9844 66.2877 71.0001 65.9C71.0071 65.7143 71.0339 65.53 71.0801 65.35C71.1231 65.1725 71.1799 64.9986 71.2501 64.83C71.3281 64.6636 71.4184 64.5031 71.5201 64.35C71.6226 64.1957 71.7398 64.0517 71.8701 63.92C72.1463 63.6329 72.4768 63.4037 72.8426 63.2458C73.2083 63.0878 73.6018 63.0043 74.0001 63H76.5001C76.8744 62.9991 77.2472 62.9521 77.6101 62.86L78.0501 62.73C78.4043 62.6133 78.7408 62.4484 79.0501 62.24L79.0001 67Z" fill="#CBFB45"/>
<path opacity="0.5" d="M79.0001 62.2402V67.0002C79.0001 67.5307 78.7894 68.0394 78.4143 68.4144C78.0392 68.7895 77.5305 69.0002 77.0001 69.0002H74.2301C73.7819 69.0032 73.3377 68.9163 72.9237 68.7445C72.5098 68.5727 72.1345 68.3197 71.8201 68.0002C71.5458 67.7258 71.3314 67.3975 71.1903 67.0361C71.0491 66.6746 70.9844 66.2879 71.0001 65.9002C71.0215 65.5319 71.1061 65.1699 71.2501 64.8302C71.3281 64.6638 71.4184 64.5033 71.5201 64.3502C71.6317 64.2 71.7519 64.0565 71.8801 63.9202C72.1551 63.6343 72.4841 63.4058 72.848 63.2479C73.2119 63.09 73.6035 63.0058 74.0001 63.0002H76.5001C76.8745 62.9993 77.2473 62.9523 77.6101 62.8602C77.7597 62.8275 77.9067 62.7841 78.0501 62.7302C78.3869 62.6094 78.7064 62.4446 79.0001 62.2402Z" fill="#CBFB45"/>
<path d="M50.2 52H59.81C59.5788 52.0019 59.3541 51.9236 59.1741 51.7785C58.9941 51.6333 58.87 51.4303 58.8229 51.204C58.7757 50.9776 58.8084 50.742 58.9155 50.537C59.0225 50.3321 59.1973 50.1706 59.41 50.08L59.58 50H50.41L50.58 50.08C50.7912 50.1699 50.965 50.3297 51.0723 50.5326C51.1795 50.7355 51.2138 50.9691 51.1692 51.1942C51.1247 51.4194 51.004 51.6223 50.8275 51.769C50.6511 51.9158 50.4295 51.9973 50.2 52ZM50.2 52H59.81C59.5788 52.0019 59.3541 51.9236 59.1741 51.7785C58.9941 51.6333 58.87 51.4303 58.8229 51.204C58.7757 50.9776 58.8084 50.742 58.9155 50.537C59.0225 50.3321 59.1973 50.1706 59.41 50.08L59.58 50H50.41L50.58 50.08C50.7912 50.1699 50.965 50.3297 51.0723 50.5326C51.1795 50.7355 51.2138 50.9691 51.1692 51.1942C51.1247 51.4194 51.004 51.6223 50.8275 51.769C50.6511 51.9158 50.4295 51.9973 50.2 52ZM50.2 52H59.81C59.5788 52.0019 59.3541 51.9236 59.1741 51.7785C58.9941 51.6333 58.87 51.4303 58.8229 51.204C58.7757 50.9776 58.8084 50.742 58.9155 50.537C59.0225 50.3321 59.1973 50.1706 59.41 50.08L59.58 50H50.41L50.58 50.08C50.7912 50.1699 50.965 50.3297 51.0723 50.5326C51.1795 50.7355 51.2138 50.9691 51.1692 51.1942C51.1247 51.4194 51.004 51.6223 50.8275 51.769C50.6511 51.9158 50.4295 51.9973 50.2 52ZM74 50.13C73.6743 50.0407 73.3377 49.997 73 50H32C31.2061 50.002 30.4437 49.6891 29.88 49.13C29.4686 48.7109 29.1843 48.1839 29.06 47.61C29.0212 47.409 29.0011 47.2048 29 47C29 46.7348 28.8946 46.4804 28.7071 46.2929C28.5196 46.1054 28.2652 46 28 46C27.7348 46 27.4804 46.1054 27.2929 46.2929C27.1054 46.4804 27 46.7348 27 47V79C27 80.0609 27.4214 81.0783 28.1716 81.8284C28.9217 82.5786 29.9391 83 31 83H73C74.0609 83 75.0783 82.5786 75.8284 81.8284C76.5786 81.0783 77 80.0609 77 79V70C77 69.7348 76.8946 69.4804 76.7071 69.2929C76.5196 69.1054 76.2652 69 76 69H74.23C73.7818 69.003 73.3376 68.916 72.9236 68.7443C72.5097 68.5725 72.1344 68.3194 71.82 68C71.5457 67.7255 71.3313 67.3973 71.1902 67.0358C71.049 66.6744 70.9843 66.2877 71 65.9C71.0214 65.5316 71.106 65.1697 71.25 64.83C71.328 64.6636 71.4183 64.5031 71.52 64.35C71.6316 64.1998 71.7518 64.0562 71.88 63.92C72.155 63.6341 72.484 63.4056 72.8479 63.2477C73.2118 63.0898 73.6034 63.0056 74 63H76C76.2652 63 76.5196 62.8946 76.7071 62.7071C76.8946 62.5196 77 62.2652 77 62V54C76.9993 53.1137 76.7044 52.2528 76.1614 51.5523C75.6184 50.8519 74.8581 50.3516 74 50.13ZM70.47 62.46C69.5858 63.3384 69.0616 64.5152 69 65.76C68.9708 66.4188 69.0773 67.0765 69.313 67.6924C69.5487 68.3082 69.9084 68.8691 70.37 69.34C70.8673 69.8638 71.466 70.2811 72.1295 70.5664C72.7931 70.8518 73.5077 70.9993 74.23 71H75V79C75 79.5304 74.7893 80.0391 74.4142 80.4142C74.0391 80.7893 73.5304 81 73 81H31C30.4696 81 29.9609 80.7893 29.5858 80.4142C29.2107 80.0391 29 79.5304 29 79V51C29.8655 51.6491 30.9181 52 32 52H73C73.5304 52 74.0391 52.2107 74.4142 52.5858C74.7893 52.9609 75 53.4696 75 54V61H74C72.6765 61.0003 71.4071 61.5253 70.47 62.46ZM50.2 52H59.81C59.5788 52.0019 59.3541 51.9236 59.1741 51.7785C58.9941 51.6333 58.87 51.4303 58.8229 51.204C58.7757 50.9776 58.8084 50.742 58.9155 50.537C59.0225 50.3321 59.1973 50.1706 59.41 50.08L59.58 50H50.41L50.58 50.08C50.7912 50.1699 50.965 50.3297 51.0723 50.5326C51.1795 50.7355 51.2138 50.9691 51.1692 51.1942C51.1247 51.4194 51.004 51.6223 50.8275 51.769C50.6511 51.9158 50.4295 51.9973 50.2 52ZM50.2 52H59.81C59.5788 52.0019 59.3541 51.9236 59.1741 51.7785C58.9941 51.6333 58.87 51.4303 58.8229 51.204C58.7757 50.9776 58.8084 50.742 58.9155 50.537C59.0225 50.3321 59.1973 50.1706 59.41 50.08L59.58 50H50.41L50.58 50.08C50.7912 50.1699 50.965 50.3297 51.0723 50.5326C51.1795 50.7355 51.2138 50.9691 51.1692 51.1942C51.1247 51.4194 51.004 51.6223 50.8275 51.769C50.6511 51.9158 50.4295 51.9973 50.2 52Z" fill="#CBFB45"/>
<path d="M77 53.9999C76.8335 53.9896 76.6665 53.9896 76.5 53.9999H76C75.7348 53.9999 75.4804 54.1052 75.2929 54.2928C75.1054 54.4803 75 54.7347 75 54.9999V61.9999C75 62.2651 75.1054 62.5194 75.2929 62.707C75.4804 62.8945 75.7348 62.9999 76 62.9999H76.5C76.8743 62.9989 77.2471 62.9519 77.61 62.8599L78.05 62.7299C78.4042 62.6131 78.7407 62.4483 79.05 62.2399C79.2931 62.0782 79.5178 61.8904 79.72 61.6799C80.1348 61.2621 80.4618 60.7655 80.6816 60.2193C80.9015 59.6732 81.0097 59.0885 81 58.4999C81.0069 57.3882 80.602 56.3133 79.8634 55.4824C79.1248 54.6515 78.1048 54.1234 77 53.9999ZM78.26 60.2399C78.1739 60.328 78.0802 60.4083 77.98 60.4799C77.8805 60.5523 77.777 60.6191 77.67 60.6799L77.37 60.8099C77.2528 60.8844 77.1289 60.948 77 60.9999V56.0999C77.5647 56.2151 78.0722 56.522 78.4367 56.9684C78.8011 57.4149 79.0001 57.9735 79 58.5499C78.9886 59.1981 78.7228 59.8159 78.26 60.2699V60.2399Z" fill="#CBFB45"/>
<path opacity="0.5" d="M79 58.4996C79.0009 58.8291 78.936 59.1554 78.8089 59.4594C78.6818 59.7634 78.4952 60.0388 78.26 60.2696C78.1739 60.3577 78.0802 60.438 77.98 60.5096C77.8805 60.582 77.777 60.6488 77.67 60.7096L77.37 60.8396C77.2517 60.9039 77.1279 60.9574 77 60.9996V56.0996C77.5564 56.2131 78.0575 56.5125 78.421 56.9487C78.7846 57.3849 78.9887 57.9319 79 58.4996Z" fill="#CBFB45"/>
<path d="M55 27C51.5522 27 48.2456 28.3696 45.8077 30.8076C43.3697 33.2456 42 36.5522 42 40C41.9982 40.6699 42.0518 41.3389 42.16 42C42.2183 42.4213 42.3018 42.8387 42.41 43.25C42.48 43.5 42.55 43.75 42.63 44L42.81 44.52C42.87 44.69 42.93 44.85 43 45C43.2304 45.5475 43.4977 46.0787 43.8 46.59C43.94 46.83 44.08 47.06 44.24 47.29C44.7851 48.1012 45.4228 48.8462 46.14 49.51C46.2794 49.648 46.4263 49.7782 46.58 49.9L46.69 50C47.253 50.4781 47.8589 50.9033 48.5 51.27C48.9211 51.5168 49.3588 51.734 49.81 51.92C49.9303 51.9712 50.0594 51.9984 50.19 52H59.8C59.9372 51.9985 60.0729 51.9714 60.2 51.92C61.3241 51.4338 62.3717 50.7871 63.31 50C63.54 49.81 63.75 49.61 63.96 49.41C64.17 49.21 64.34 49.03 64.52 48.83C64.6939 48.6493 64.8575 48.459 65.01 48.26C65.3222 47.8894 65.6095 47.4985 65.87 47.09C66.0117 46.8874 66.1419 46.6771 66.26 46.46C66.42 46.18 66.57 45.89 66.71 45.59C66.82 45.37 66.91 45.15 67 44.93C67.09 44.71 67.23 44.35 67.32 44.06C67.39 43.81 67.47 43.56 67.53 43.31C67.6609 42.8803 67.7645 42.4428 67.84 42C67.9483 41.3389 68.0019 40.6699 68 40C68 36.5522 66.6304 33.2456 64.1924 30.8076C61.7545 28.3696 58.4479 27 55 27ZM65.48 43.35C65.42 43.53 65.36 43.71 65.29 43.88C65.2171 44.0842 65.1336 44.2844 65.04 44.48C64.96 44.67 64.87 44.85 64.78 45.03C64.69 45.21 64.57 45.43 64.45 45.62C64.3495 45.7992 64.2393 45.9727 64.12 46.14C63.95 46.39 63.78 46.63 63.59 46.86L63.52 46.95C63.34 47.17 63.15 47.39 62.96 47.59C62.76 47.8 62.54 48.01 62.32 48.2C62.0771 48.4294 61.82 48.6431 61.55 48.84C61.233 49.0808 60.8988 49.298 60.55 49.49C60.3722 49.5997 60.1886 49.6999 60 49.79C59.88 49.86 59.75 49.92 59.62 49.98H50.41L50 49.8L49.52 49.54L49 49.25L48.54 48.94C48.25 48.72 47.96 48.5 47.69 48.25C46.0475 46.7903 44.8747 44.8763 44.32 42.75C43.7183 40.4169 43.8992 37.9507 44.835 35.7304C45.7708 33.5101 47.4098 31.6585 49.5 30.46C51.1733 29.494 53.0714 28.9857 55.0035 28.9863C56.9355 28.9869 58.8334 29.4963 60.506 30.4634C62.1786 31.4305 63.567 32.8211 64.5315 34.4952C65.4959 36.1693 66.0025 38.0679 66 40C65.9998 40.9278 65.8822 41.8518 65.65 42.75C65.6 43 65.54 43.15 65.48 43.35Z" fill="#CBFB45"/>
<path opacity="0.5" d="M58.6 39.47C58.8602 39.0237 58.9981 38.5166 59 38C58.9983 37.3811 58.8051 36.7778 58.4471 36.2729C58.089 35.7681 57.5835 35.3863 57 35.18V34C57 33.7348 56.8946 33.4804 56.7071 33.2929C56.5196 33.1054 56.2652 33 56 33C55.7348 33 55.4804 33.1054 55.2929 33.2929C55.1054 33.4804 55 33.7348 55 34V35H54V34C54 33.7348 53.8946 33.4804 53.7071 33.2929C53.5196 33.1054 53.2652 33 53 33C52.7348 33 52.4804 33.1054 52.2929 33.2929C52.1054 33.4804 52 33.7348 52 34V35H51C50.7348 35 50.4804 35.1054 50.2929 35.2929C50.1054 35.4804 50 35.7348 50 36C50 36.2652 50.1054 36.5196 50.2929 36.7071C50.4804 36.8946 50.7348 37 51 37V43C50.7348 43 50.4804 43.1054 50.2929 43.2929C50.1054 43.4804 50 43.7348 50 44C50 44.2652 50.1054 44.5196 50.2929 44.7071C50.4804 44.8946 50.7348 45 51 45H52V46C52 46.2652 52.1054 46.5196 52.2929 46.7071C52.4804 46.8946 52.7348 47 53 47C53.2652 47 53.5196 46.8946 53.7071 46.7071C53.8946 46.5196 54 46.2652 54 46V45H55V46C55 46.2652 55.1054 46.5196 55.2929 46.7071C55.4804 46.8946 55.7348 47 56 47C56.2652 47 56.5196 46.8946 56.7071 46.7071C56.8946 46.5196 57 46.2652 57 46V45C57.6481 44.9974 58.278 44.7849 58.7953 44.3944C59.3126 44.0039 59.6895 43.4564 59.8697 42.8338C60.0498 42.2112 60.0235 41.547 59.7946 40.9406C59.5657 40.3342 59.1466 39.8183 58.6 39.47ZM56 37C56.2652 37 56.5196 37.1054 56.7071 37.2929C56.8946 37.4804 57 37.7348 57 38C57 38.2652 56.8946 38.5196 56.7071 38.7071C56.5196 38.8946 56.2652 39 56 39H53V37H56ZM57 43H53V41H57C57.2652 41 57.5196 41.1054 57.7071 41.2929C57.8946 41.4804 58 41.7348 58 42C58 42.2652 57.8946 42.5196 57.7071 42.7071C57.5196 42.8946 57.2652 43 57 43Z" fill="#CBFB45"/>
</g>
<defs>
<clipPath id="clip0_270_2015">
<rect width="54" height="56" fill="white" transform="translate(27 27)"/>
</clipPath>
</defs>
</svg>
