<svg width="80" height="80" viewBox="0 0 80 80" fill="none" xmlns="http://www.w3.org/2000/svg">
<circle cx="40" cy="40" r="40" fill="#CBFB45"/>
<g clip-path="url(#clip0_277_11129)">
<path d="M38.0715 43.6962C38.0772 43.6665 38.0772 43.636 38.0715 43.6062C38.0401 43.5296 37.9943 43.4598 37.9365 43.4005C37.8704 43.3344 37.7908 43.2835 37.7031 43.2513C37.6154 43.2191 37.5217 43.2064 37.4286 43.2141H26.5C26.3295 43.2141 26.166 43.2818 26.0455 43.4024C25.9249 43.5229 25.8572 43.6865 25.8572 43.857V57.357C25.8572 57.5275 25.9249 57.691 26.0455 57.8115C26.166 57.9321 26.3295 57.9998 26.5 57.9998H37.4286C37.5991 57.9998 37.7626 57.9321 37.8832 57.8115C38.0037 57.691 38.0715 57.5275 38.0715 57.357V43.857C38.0812 43.8038 38.0812 43.7494 38.0715 43.6962ZM27.1429 56.7141V44.4998H36.7857V56.7141H27.1429Z" fill="#161617"/>
<path opacity="0.5" d="M36.7857 44.5V56.7143H33.5714V54.1429C33.5714 53.9724 33.5037 53.8088 33.3831 53.6883C33.2625 53.5677 33.099 53.5 32.9285 53.5H31C30.8295 53.5 30.666 53.5677 30.5454 53.6883C30.4248 53.8088 30.3571 53.9724 30.3571 54.1429V56.7143H27.1428V44.5H36.7857Z" fill="#161617"/>
<path d="M38.0715 43.6962C38.0772 43.6665 38.0772 43.636 38.0715 43.6062C38.0401 43.5296 37.9943 43.4598 37.9365 43.4005L37.6986 43.2141L37.4286 42.9441L34.0279 39.5434C33.9678 39.4838 33.8966 39.4367 33.8183 39.4047C33.74 39.3727 33.6561 39.3565 33.5715 39.3569H22.6429C22.516 39.3576 22.3921 39.3958 22.2869 39.4667C22.1816 39.5376 22.0997 39.6381 22.0515 39.7555C22.0023 39.8726 21.9888 40.0016 22.0128 40.1263C22.0369 40.251 22.0973 40.3658 22.1865 40.4562L25.8572 44.1269L26.0436 44.3134C26.1037 44.373 26.1749 44.4201 26.2533 44.4521C26.3316 44.4841 26.4155 44.5003 26.5001 44.4998H37.4286C37.5991 44.4998 37.7626 44.4321 37.8832 44.3115C38.0038 44.191 38.0715 44.0274 38.0715 43.8569C38.0813 43.8038 38.0813 43.7494 38.0715 43.6962ZM26.7636 43.2141L24.1922 40.6427H33.3079L35.8793 43.2141H26.7636Z" fill="#161617"/>
<path opacity="0.5" d="M35.8793 43.2143H26.7636L24.1921 40.6428H33.3079L35.8793 43.2143Z" fill="#161617"/>
<path d="M53.5002 43.2141H37.4287C37.3441 43.2136 37.2603 43.2298 37.1819 43.2618C37.1036 43.2938 37.0324 43.341 36.9723 43.4006C36.9145 43.4598 36.8687 43.5296 36.8373 43.6063C36.8316 43.636 36.8316 43.6665 36.8373 43.6963C36.81 43.7461 36.7926 43.8006 36.7859 43.857V57.357C36.7859 57.5275 36.8536 57.691 36.9742 57.8116C37.0947 57.9321 37.2582 57.9998 37.4287 57.9998H53.5002C53.6707 57.9998 53.8342 57.9321 53.9547 57.8116C54.0753 57.691 54.143 57.5275 54.143 57.357V43.857C54.143 43.6865 54.0753 43.523 53.9547 43.4024C53.8342 43.2819 53.6707 43.2141 53.5002 43.2141ZM52.8573 56.7141H38.0716V44.4998H52.8573V56.7141Z" fill="#161617"/>
<path opacity="0.5" d="M52.8572 44.5H38.0715V56.7143H52.8572V44.5Z" fill="#161617"/>
<path d="M57.9487 39.7555C57.9005 39.6381 57.8186 39.5376 57.7134 39.4667C57.6081 39.3958 57.4842 39.3576 57.3573 39.3569H41.2859C41.2013 39.3565 41.1174 39.3727 41.0391 39.4047C40.9608 39.4367 40.8895 39.4838 40.8295 39.5434L37.4287 42.9441L37.1587 43.2141L36.9723 43.4005C36.9145 43.4598 36.8687 43.5296 36.8373 43.6062C36.8316 43.636 36.8316 43.6665 36.8373 43.6962C36.81 43.746 36.7926 43.8006 36.7859 43.8569C36.7859 44.0274 36.8536 44.191 36.9742 44.3115C37.0947 44.4321 37.2582 44.4998 37.4287 44.4998H53.5002C53.5848 44.5003 53.6686 44.4841 53.747 44.4521C53.8253 44.4201 53.8965 44.373 53.9566 44.3134L54.143 44.1269L57.8137 40.4562C57.9029 40.3658 57.9634 40.251 57.9874 40.1263C58.0114 40.0016 57.998 39.8726 57.9487 39.7555ZM53.2366 43.2141H38.978L41.5495 40.6427H55.808L53.2366 43.2141Z" fill="#161617"/>
<path opacity="0.5" d="M55.808 40.6428L53.2366 43.2143H38.978L41.5495 40.6428H55.808Z" fill="#161617"/>
<path d="M33.5715 56.7141H30.3572V57.357H33.5715V56.7141Z" fill="#161617"/>
<path d="M48.3186 29.5213C48.1683 27.9819 47.5938 26.5144 46.659 25.2822C45.7241 24.05 44.4657 23.1013 43.0237 22.5419C41.5817 21.9825 40.0128 21.8342 38.4915 22.1135C36.9703 22.3929 35.5564 23.0889 34.4072 24.1242C33.2581 25.1594 32.4188 26.4933 31.9828 27.9773C31.5467 29.4612 31.5311 31.0371 31.9375 32.5294C32.344 34.0218 33.1566 35.372 34.285 36.4299C35.4133 37.4878 36.8131 38.2118 38.3286 38.5213C38.878 38.6406 39.4378 38.7052 40 38.7142C42.2164 38.7142 44.3421 37.8337 45.9094 36.2664C47.4766 34.6992 48.3571 32.5735 48.3571 30.357C48.3571 30.0742 48.3571 29.8042 48.3186 29.5213ZM40 37.4285C39.525 37.4298 39.051 37.3824 38.5857 37.287C37.3043 37.0259 36.1204 36.4146 35.1656 35.5211C34.2108 34.6275 33.5225 33.4867 33.1772 32.2254C32.8319 30.9641 32.843 29.6317 33.2095 28.3764C33.5759 27.1211 34.2833 25.992 35.253 25.1146C36.2226 24.2371 37.4166 23.6458 38.7022 23.4062C39.9878 23.1667 41.3146 23.2883 42.5352 23.7576C43.7558 24.2268 44.8224 25.0254 45.6164 26.0645C46.4104 27.1035 46.9007 28.3424 47.0328 29.6435C47.0589 29.8804 47.0718 30.1186 47.0714 30.357C47.0714 32.2325 46.3264 34.0311 45.0002 35.3573C43.6741 36.6834 41.8754 37.4285 40 37.4285Z" fill="#161617"/>
<path opacity="0.5" d="M42.3273 30.0162C42.4868 29.7267 42.5709 29.4017 42.5716 29.0712C42.5705 28.6733 42.4463 28.2855 42.2161 27.961C41.986 27.6364 41.661 27.391 41.2859 27.2584V26.4998C41.2859 26.3293 41.2182 26.1658 41.0976 26.0452C40.977 25.9247 40.8135 25.8569 40.643 25.8569C40.4725 25.8569 40.309 25.9247 40.1885 26.0452C40.0679 26.1658 40.0002 26.3293 40.0002 26.4998V27.1426H39.3573V26.4998C39.3573 26.3293 39.2896 26.1658 39.169 26.0452C39.0485 25.9247 38.885 25.8569 38.7145 25.8569C38.544 25.8569 38.3805 25.9247 38.2599 26.0452C38.1393 26.1658 38.0716 26.3293 38.0716 26.4998V27.1426H37.4287C37.2582 27.1426 37.0947 27.2104 36.9742 27.3309C36.8536 27.4515 36.7859 27.615 36.7859 27.7855C36.7859 27.956 36.8536 28.1195 36.9742 28.2401C37.0947 28.3606 37.2582 28.4284 37.4287 28.4284V32.2855C37.2582 32.2855 37.0947 32.3532 36.9742 32.4738C36.8536 32.5944 36.7859 32.7579 36.7859 32.9284C36.7859 33.0989 36.8536 33.2624 36.9742 33.3829C37.0947 33.5035 37.2582 33.5712 37.4287 33.5712H38.0716V34.2141C38.0716 34.3846 38.1393 34.5481 38.2599 34.6686C38.3805 34.7892 38.544 34.8569 38.7145 34.8569C38.885 34.8569 39.0485 34.7892 39.169 34.6686C39.2896 34.5481 39.3573 34.3846 39.3573 34.2141V33.5712H40.0002V34.2141C40.0002 34.3846 40.0679 34.5481 40.1885 34.6686C40.309 34.7892 40.4725 34.8569 40.643 34.8569C40.8135 34.8569 40.977 34.7892 41.0976 34.6686C41.2182 34.5481 41.2859 34.3846 41.2859 34.2141V33.5712C41.7036 33.5723 42.1105 33.4377 42.4451 33.1877C42.7798 32.9377 43.0243 32.5857 43.1417 32.1848C43.2592 31.7839 43.2433 31.3557 43.0964 30.9646C42.9495 30.5735 42.6796 30.2407 42.3273 30.0162ZM38.7145 28.4284H40.643C40.8135 28.4284 40.977 28.4961 41.0976 28.6167C41.2182 28.7372 41.2859 28.9007 41.2859 29.0712C41.2859 29.2417 41.2182 29.4052 41.0976 29.5258C40.977 29.6463 40.8135 29.7141 40.643 29.7141H38.7145V28.4284ZM41.2859 32.2855H38.7145V30.9998H41.2859C41.4564 30.9998 41.6199 31.0675 41.7405 31.1881C41.861 31.3086 41.9287 31.4722 41.9287 31.6426C41.9287 31.8131 41.861 31.9767 41.7405 32.0972C41.6199 32.2178 41.4564 32.2855 41.2859 32.2855Z" fill="#161617"/>
</g>
<defs>
<clipPath id="clip0_277_11129">
<rect width="36" height="36" fill="white" transform="translate(22 22)"/>
</clipPath>
</defs>
</svg>
