<svg width="39" height="32" viewBox="0 0 39 32" fill="none" xmlns="http://www.w3.org/2000/svg">
<path d="M31.283 10.0314C29.7203 7.05272 27.2018 4.68575 24.1321 3.31067C21.0623 1.93558 17.6194 1.63219 14.3565 2.44923C11.0935 3.26627 8.19992 5.15632 6.1404 7.81578C4.08088 10.4752 2.97501 13.7498 3.00043 17.1133C3.02584 20.4769 4.18107 23.7343 6.28053 26.3624C8.38 28.9904 11.3019 30.8365 14.5768 31.6042C17.8517 32.3718 21.2896 32.0164 24.3382 30.5951C27.3869 29.1738 29.8693 26.769 31.3868 23.7671L24.2426 20.1557C23.5349 21.5555 22.3773 22.6769 20.9557 23.3397C19.534 24.0025 17.9308 24.1682 16.4037 23.8103C14.8765 23.4523 13.514 22.5914 12.5349 21.3659C11.5559 20.1404 11.0172 18.6214 11.0053 17.0528C10.9935 15.4843 11.5092 13.9573 12.4696 12.7172C13.43 11.477 14.7794 10.5956 16.3009 10.2146C17.8225 9.83362 19.428 9.9751 20.8595 10.6163C22.291 11.2576 23.4655 12.3613 24.1942 13.7504L31.283 10.0314Z" fill="#CBFB45"/>
<rect x="33" y="6" width="3" height="3" fill="#CBFB45"/>
<rect x="36" y="1" width="3" height="3" fill="#CBFB45"/>
<rect x="30" width="3" height="3" fill="#CBFB45"/>
<rect y="16" width="18" height="2" fill="#CBFB45"/>
</svg>
