<svg width="80" height="80" viewBox="0 0 80 80" fill="none" xmlns="http://www.w3.org/2000/svg">
<circle cx="40" cy="40" r="40" fill="#CBFB45"/>
<g clip-path="url(#clip0_277_11146)">
<path d="M52.7564 57.5085H51.2561C51.0572 57.5085 50.8663 57.5876 50.7257 57.7283C50.585 57.8689 50.506 58.0597 50.506 58.2587C50.506 58.4577 50.4269 58.6485 50.2862 58.7891C50.1456 58.9298 49.9547 59.0089 49.7558 59.0089H30.2517C30.0528 59.0089 29.862 58.9298 29.7213 58.7891C29.5806 58.6485 29.5016 58.4577 29.5016 58.2587C29.5016 58.0597 29.4225 57.8689 29.2819 57.7283C29.1412 57.5876 28.9504 57.5085 28.7514 57.5085H27.2511C26.6542 57.5085 26.0818 57.7456 25.6598 58.1677C25.2377 58.5897 25.0006 59.1622 25.0006 59.759C24.9974 60.5711 25.2609 61.3618 25.7508 62.0095C26.1002 62.4753 26.5532 62.8534 27.074 63.1138C27.5948 63.3742 28.1691 63.5098 28.7514 63.5098H51.2561C51.7495 63.5097 52.2381 63.4122 52.6938 63.223C53.1494 63.0338 53.5633 62.7565 53.9117 62.4071C54.0368 62.2837 54.1522 62.1508 54.2567 62.0095C54.7481 61.3626 55.0119 60.5714 55.0069 59.759C55.0069 59.1622 54.7698 58.5897 54.3477 58.1677C53.9257 57.7456 53.3533 57.5085 52.7564 57.5085ZM28.7514 62.0095C28.1546 62.0095 27.5821 61.7724 27.1601 61.3503C26.7381 60.9283 26.501 60.3559 26.501 59.759C26.5023 59.6592 26.5236 59.5607 26.5636 59.4693C26.6035 59.3778 26.6613 59.2953 26.7335 59.2264C26.8 59.1563 26.8804 59.1007 26.9695 59.0633C27.0586 59.0258 27.1545 59.0073 27.2511 59.0089H28.1288C28.1407 59.0427 28.1557 59.0754 28.1738 59.1064C28.2017 59.1833 28.2343 59.2584 28.2713 59.3314C28.322 59.4192 28.3771 59.5043 28.4364 59.5865C28.5818 59.782 28.7564 59.954 28.954 60.0966C29.0421 60.1587 29.1349 60.2139 29.2315 60.2616C29.3444 60.32 29.4624 60.3677 29.5841 60.4041C29.6745 60.4346 29.7674 60.4571 29.8617 60.4717C29.9903 60.4955 30.1209 60.508 30.2517 60.5092H49.7558C49.8856 60.5205 50.0161 60.5205 50.1459 60.5092C50.2402 60.4947 50.333 60.4721 50.4234 60.4417C50.5451 60.4052 50.6632 60.3575 50.776 60.2991C50.8727 60.2514 50.9655 60.1962 51.0536 60.1341C51.2511 59.9915 51.4257 59.8195 51.5712 59.624C51.6305 59.5418 51.6855 59.4567 51.7362 59.3689C51.7732 59.2959 51.8058 59.2208 51.8337 59.1439C51.8518 59.1129 51.8669 59.0802 51.8787 59.0464H52.7564C52.9554 59.0464 53.1462 59.1254 53.2869 59.2661C53.4275 59.4068 53.5066 59.5976 53.5066 59.7965C53.5066 60.3934 53.2695 60.9658 52.8474 61.3878C52.4254 61.8099 51.853 62.047 51.2561 62.047L28.7514 62.0095Z" fill="#161617"/>
<path d="M49.7559 41.7551H30.2518C29.655 41.7551 29.0825 41.9922 28.6605 42.4143C28.2385 42.8363 28.0014 43.4087 28.0014 44.0056V58.2586C28.0005 58.5499 28.0592 58.8384 28.1739 59.1062C28.2018 59.1832 28.2344 59.2583 28.2714 59.3313C28.3221 59.419 28.3772 59.5042 28.4364 59.5863C28.5819 59.7818 28.7565 59.9538 28.9541 60.0965C29.0421 60.1586 29.1349 60.2138 29.2316 60.2615C29.3444 60.3199 29.4625 60.3676 29.5842 60.404C29.6746 60.4344 29.7675 60.457 29.8617 60.4715C29.9904 60.4953 30.121 60.5079 30.2518 60.509H49.7559C49.8857 60.5203 50.0162 60.5203 50.146 60.509C50.2402 60.4945 50.3331 60.4719 50.4235 60.4415C50.5452 60.4051 50.6633 60.3574 50.7761 60.299C50.8728 60.2513 50.9656 60.1961 51.0537 60.134C51.2512 59.9914 51.4258 59.8193 51.5713 59.6238C51.6305 59.5417 51.6856 59.4565 51.7363 59.3688C51.7733 59.2958 51.8059 59.2207 51.8338 59.1438C51.9536 58.8643 52.0124 58.5625 52.0064 58.2586V44.0056C52.0064 43.4087 51.7692 42.8363 51.3472 42.4143C50.9252 41.9922 50.3527 41.7551 49.7559 41.7551ZM49.7559 59.0087H30.2518C30.0529 59.0087 29.8621 58.9297 29.7214 58.789C29.5807 58.6483 29.5017 58.4575 29.5017 58.2586V44.0056C29.5017 43.8066 29.5807 43.6158 29.7214 43.4752C29.8621 43.3345 30.0529 43.2554 30.2518 43.2554H49.7559C49.9548 43.2554 50.1456 43.3345 50.2863 43.4752C50.427 43.6158 50.506 43.8066 50.506 44.0056V58.2586C50.506 58.4575 50.427 58.6483 50.2863 58.789C50.1456 58.9297 49.9548 59.0087 49.7559 59.0087Z" fill="#161617"/>
<path opacity="0.5" d="M42.6969 51.1096C42.8928 50.7747 42.9987 50.3948 43.0045 50.0069C43.0032 49.5426 42.8583 49.09 42.5897 48.7113C42.3211 48.3326 41.9419 48.0462 41.5041 47.8914V47.0063C41.5041 46.8073 41.4251 46.6165 41.2844 46.4758C41.1437 46.3351 40.9529 46.2561 40.754 46.2561C40.555 46.2561 40.3642 46.3351 40.2235 46.4758C40.0829 46.6165 40.0038 46.8073 40.0038 47.0063V47.7564H39.2537V47.0063C39.2537 46.8073 39.1746 46.6165 39.034 46.4758C38.8933 46.3351 38.7025 46.2561 38.5035 46.2561C38.3046 46.2561 38.1138 46.3351 37.9731 46.4758C37.8324 46.6165 37.7534 46.8073 37.7534 47.0063V47.7564H37.0032C36.8043 47.7564 36.6134 47.8355 36.4728 47.9761C36.3321 48.1168 36.2531 48.3076 36.2531 48.5066C36.2531 48.7055 36.3321 48.8963 36.4728 49.037C36.6134 49.1777 36.8043 49.2567 37.0032 49.2567V53.7577C36.8043 53.7577 36.6134 53.8367 36.4728 53.9774C36.3321 54.1181 36.2531 54.3089 36.2531 54.5078C36.2531 54.7068 36.3321 54.8976 36.4728 55.0383C36.6134 55.1789 36.8043 55.258 37.0032 55.258H37.7534V56.0081C37.7534 56.2071 37.8324 56.3979 37.9731 56.5386C38.1138 56.6793 38.3046 56.7583 38.5035 56.7583C38.7025 56.7583 38.8933 56.6793 39.034 56.5386C39.1746 56.3979 39.2537 56.2071 39.2537 56.0081V55.258H40.0038V56.0081C40.0038 56.2071 40.0829 56.3979 40.2235 56.5386C40.3642 56.6793 40.555 56.7583 40.754 56.7583C40.9529 56.7583 41.1437 56.6793 41.2844 56.5386C41.4251 56.3979 41.5041 56.2071 41.5041 56.0081V55.258C41.9897 55.2544 42.4611 55.0939 42.8479 54.8004C43.2348 54.5069 43.5163 54.0961 43.6505 53.6294C43.7846 53.1628 43.7643 52.6652 43.5924 52.2111C43.4206 51.7569 43.1064 51.3705 42.6969 51.1096ZM40.754 49.2567C40.9529 49.2567 41.1437 49.3358 41.2844 49.4764C41.4251 49.6171 41.5041 49.8079 41.5041 50.0069C41.5041 50.2058 41.4251 50.3966 41.2844 50.5373C41.1437 50.678 40.9529 50.757 40.754 50.757H38.5035V49.2567H40.754ZM41.5041 53.7577H38.5035V52.2574H41.5041C41.7031 52.2574 41.8939 52.3364 42.0346 52.4771C42.1753 52.6178 42.2543 52.8086 42.2543 53.0075C42.2543 53.2065 42.1753 53.3973 42.0346 53.538C41.8939 53.6786 41.7031 53.7577 41.5041 53.7577Z" fill="#161617"/>
<path d="M56.1997 45.5659C55.8865 42.8776 54.6705 40.375 52.7506 38.4673C50.8306 36.5596 48.3203 35.3597 45.63 35.0638C45.5507 35.0487 45.4692 35.0487 45.3899 35.0638C44.6492 35.2557 43.8977 35.4035 43.1395 35.5063L42.7419 35.5589H42.4343C42.1192 35.5589 41.8042 35.6189 41.5116 35.6339H41.2791H41.1891H41.129C40.994 35.6339 40.8665 35.6789 40.7165 35.7014C40.6165 35.707 40.5163 35.707 40.4164 35.7014H39.7187H39.3437L38.9086 35.7539H38.6685H38.406L37.9859 35.7164C37.6708 35.7164 37.3708 35.6714 37.0632 35.6264L36.0955 35.4838H36.0505C35.7204 35.4238 35.4053 35.3563 35.0978 35.2813L34.6627 35.1763C34.5737 35.1574 34.4817 35.1574 34.3926 35.1763C33.511 35.2709 32.6428 35.4647 31.8046 35.7539C29.6841 36.4769 27.8098 37.7819 26.3957 39.5196C24.9816 41.2573 24.0849 43.3578 23.8079 45.5809L22.0001 62.6845C21.9893 62.7885 22.0005 62.8937 22.0328 62.9931C22.0651 63.0926 22.1178 63.1842 22.1876 63.2621C22.2586 63.3408 22.3454 63.4035 22.4424 63.4462C22.5394 63.4888 22.6443 63.5105 22.7502 63.5097H57.2574C57.3621 63.5094 57.4655 63.4873 57.5611 63.4446C57.6568 63.402 57.7424 63.3398 57.8125 63.2621C57.8836 63.1849 57.9378 63.0935 57.9714 62.994C58.005 62.8945 58.0173 62.7891 58.0076 62.6845L56.1997 45.5659ZM39.0286 35.8139C39.0908 35.8496 39.1487 35.8924 39.2011 35.9414C39.1453 35.8955 39.085 35.8552 39.0211 35.8214L39.0286 35.8139ZM23.5829 62.0094L25.2932 45.746C25.5641 43.4199 26.6095 41.2524 28.2613 39.5924C29.9132 37.9324 32.0754 36.8764 34.4001 36.5941L34.7602 36.6766C35.0603 36.7516 35.3603 36.8116 35.6379 36.8641H35.8179H35.9905H36.0655H36.208L36.6806 36.9316L37.0407 36.9767H37.1382H37.3633L37.8584 37.0142H38.0234H38.646L39.1261 37.0967L39.6062 37.1342H40.4239C40.5896 37.1276 40.7548 37.1126 40.919 37.0892L41.3241 37.0217H41.4141H41.4591H41.5041C41.8567 37.0217 42.2018 36.9767 42.4643 36.9466H42.7344H42.8094L43.297 36.8791H43.357L44.0021 36.7816H44.1522L44.3547 36.7441C44.476 36.7257 44.5962 36.7007 44.7148 36.6691C45.0098 36.6091 45.3024 36.5416 45.5925 36.4665C47.9354 36.7545 50.112 37.8267 51.7682 39.5088C53.4244 41.1909 54.4627 43.3838 54.7144 45.731L56.4247 62.0094H23.5829ZM41.3841 37.2092C41.1851 37.2291 40.9864 37.1691 40.8317 37.0425C40.6769 36.9159 40.5788 36.733 40.5589 36.5341C40.539 36.3351 40.599 36.1364 40.7256 35.9816C40.8522 35.8269 41.0351 35.7288 41.2341 35.7089H41.144H41.084C40.949 35.7089 40.8215 35.7539 40.6714 35.7764C40.5715 35.782 40.4713 35.782 40.3714 35.7764H39.6737H39.2987L38.9086 35.7539H38.7585C38.9292 35.7905 39.0817 35.8854 39.1898 36.0223C39.298 36.1593 39.355 36.3296 39.3512 36.5041C39.3325 36.6897 39.2453 36.8618 39.1066 36.9866C38.9679 37.1115 38.7876 37.1801 38.601 37.1792H38.6385L39.1186 37.2617L39.5987 37.2992H40.4164C40.5821 37.2927 40.7473 37.2777 40.9115 37.2542L41.3166 37.1867H41.4066L41.3841 37.2092ZM39.0211 35.8064C39.0833 35.8421 39.1412 35.8849 39.1936 35.9339C39.1405 35.8858 39.0827 35.843 39.0211 35.8064ZM42.7719 36.8266H42.7344C42.3469 36.9741 41.948 37.0895 41.5416 37.1717H41.5041C41.8567 37.1717 42.2018 37.1267 42.4643 37.0967H42.7344H42.8094L42.7719 36.8266Z" fill="#161617"/>
<path opacity="0.5" d="M54.2568 62.0094C54.7482 61.3625 55.0119 60.5713 55.0069 59.759C55.0069 59.1621 54.7698 58.5897 54.3478 58.1677C53.9257 57.7456 53.3533 57.5085 52.7565 57.5085H52.0063V44.0057C52.0063 43.4088 51.7692 42.8364 51.3472 42.4144C50.9251 41.9923 50.3527 41.7552 49.7558 41.7552H30.2518C29.6549 41.7552 29.0825 41.9923 28.6605 42.4144C28.2384 42.8364 28.0013 43.4088 28.0013 44.0057V57.5085H27.2512C26.6543 57.5085 26.0819 57.7456 25.6598 58.1677C25.2378 58.5897 25.0007 59.1621 25.0007 59.759C24.9974 60.5711 25.261 61.3617 25.7508 62.0094H23.5829L25.2932 45.7461C25.5641 43.4199 26.6095 41.2525 28.2613 39.5925C29.9132 37.9325 32.0754 36.8764 34.4001 36.5941L34.7602 36.6767C35.0603 36.7517 35.3603 36.8117 35.6379 36.8642H35.8179H35.9605H36.0355H36.178L36.6506 36.9317L37.0107 36.9767H37.1082H37.3333H37.4458L37.9934 37.0217H38.1284H38.2784H38.616L39.0961 37.1043L39.5762 37.1418H40.3939C40.5596 37.1352 40.7248 37.1202 40.889 37.0968L41.2941 37.0292C41.3388 37.0364 41.3844 37.0364 41.4291 37.0292C41.4291 37.0292 41.4291 37.0292 41.4666 37.0292C41.8192 37.0292 42.1643 36.9842 42.4268 36.9542H42.6969H42.7719L43.2595 36.8867H43.3195L43.8821 36.8117H43.9496C44.0681 36.7978 44.1858 36.7778 44.3022 36.7517C44.4235 36.7333 44.5437 36.7083 44.6623 36.6767L45.1799 36.5716L45.54 36.4741C47.8912 36.7507 50.0791 37.817 51.7457 39.4985C53.4122 41.1801 54.4589 43.3774 54.7144 45.731L56.4247 62.0094H54.2568Z" fill="#161617"/>
<path d="M47.1828 26.3696L47.2803 26.4596C47.3512 26.5291 47.4075 26.612 47.4462 26.7034C47.4848 26.7948 47.5049 26.893 47.5053 26.9922V29.8428C47.5112 30.5872 47.4049 31.3281 47.1903 32.0408C47.1528 32.1608 47.1077 32.2959 47.0627 32.4234C46.9398 32.7639 46.7918 33.0949 46.6201 33.4136L46.6201 33.4137C46.5526 33.5337 46.4851 33.6537 46.4101 33.7737C46.3271 33.9181 46.237 34.0583 46.14 34.1937C45.9389 34.4786 45.7183 34.7493 45.4799 35.0039C45.357 35.0162 45.2328 35.0086 45.1123 34.9814C44.9452 35.1647 44.7647 35.3352 44.5722 35.4915C44.1251 35.8636 43.6368 36.1832 43.1169 36.4442L43.0419 36.4817L42.5093 36.7068C42.1218 36.8542 41.7229 36.9696 41.3165 37.0518H41.279H41.234H41.144L40.7389 37.1194C40.5748 37.1428 40.4095 37.1578 40.2438 37.1644H39.4261L38.946 37.1269L38.4659 37.0443H38.3909H38.2784C38.0834 37.0068 37.9033 36.9618 37.7158 36.9093H37.5883L37.4082 36.8493L37.1007 36.7368L37.0181 36.6993L36.5981 36.5267H36.5455H36.478C36.3355 36.4592 36.193 36.3767 36.0504 36.2942C35.9378 36.2352 35.8299 36.1675 35.7279 36.0916L35.6529 36.0391L35.5103 35.9491L35.3603 35.8366L35.1277 35.6566L34.9627 35.5215L34.7977 35.379C34.7302 35.3265 34.6252 35.2215 34.5202 35.1165L34.5201 35.1164L34.4826 35.0714L34.3701 34.9439C34.2951 34.8689 34.2201 34.7864 34.1525 34.7039L34.025 34.5613C33.7449 34.2284 33.4939 33.872 33.2749 33.4961C33.1859 33.3459 33.1057 33.1906 33.0348 33.031V32.986C32.9691 32.852 32.9115 32.7142 32.8623 32.5734L32.7798 32.3784C32.7798 32.3334 32.8173 32.3634 32.7798 32.3334C32.7422 32.3034 32.7422 32.2658 32.7422 32.2208V32.1533C32.7214 32.102 32.7038 32.0494 32.6897 31.9958C32.6875 31.9733 32.6875 31.9507 32.6897 31.9283C32.687 31.8933 32.687 31.8582 32.6897 31.8233C32.6678 31.7621 32.6502 31.6994 32.6372 31.6357C32.6175 31.5719 32.6025 31.5067 32.5922 31.4407C32.5397 31.3582 32.5397 31.2831 32.5397 31.2081C32.5366 31.1732 32.5366 31.138 32.5397 31.1031V31.0281C32.5236 30.9562 32.511 30.8836 32.5022 30.8105V30.503C32.5034 30.257 32.521 30.0114 32.5547 29.7678V26.9172C32.5551 26.818 32.5752 26.7198 32.6139 26.6284C32.6525 26.5369 32.7089 26.4541 32.7798 26.3846L32.8173 26.3471C33.093 26.105 33.3809 25.8772 33.6799 25.6645C33.9207 25.4903 34.1711 25.33 34.4301 25.1844C35.4066 24.596 36.4699 24.1656 37.5808 23.9091C37.8958 23.8341 38.2709 23.8041 38.541 23.7291C38.811 23.6541 39.0811 23.6541 39.3511 23.6541H40.0038C42.6472 23.6568 45.1992 24.6222 47.1828 26.3696Z" fill="#161617"/>
<path d="M50.9486 31.9131L49.5833 29.37C49.4558 29.1375 49.3207 28.9049 49.1782 28.6874C49.0357 28.4773 48.9006 28.2673 48.7506 28.0723C48.6006 27.8772 48.4805 27.7122 48.3305 27.5397C48.1805 27.3671 48.0455 27.2096 47.8954 27.0521C47.8292 26.9783 47.7591 26.9082 47.6854 26.842C47.5579 26.7145 47.4303 26.587 47.2953 26.4744C47.187 26.3793 47.0536 26.3174 46.911 26.2961C46.7684 26.2748 46.6227 26.295 46.4913 26.3544C46.36 26.4137 46.2485 26.5097 46.1702 26.6308C46.0919 26.7518 46.0502 26.8929 46.05 27.037V29.8876C46.0527 30.4748 45.9667 31.059 45.795 31.6205C45.795 31.7255 45.7275 31.8305 45.6825 31.9581C45.3123 32.9492 44.6921 33.8279 43.8821 34.5086C43.5373 34.8013 43.1597 35.053 42.7569 35.2588H42.6893H42.6443C42.5148 35.3284 42.3792 35.3861 42.2392 35.4313C41.9496 35.5455 41.651 35.6359 41.3466 35.7014H41.2866C41.0876 35.7212 40.9047 35.8194 40.7781 35.9741C40.6515 36.1289 40.5915 36.3276 40.6114 36.5265C40.6313 36.7255 40.7294 36.9084 40.8842 37.035C41.0389 37.1616 41.2376 37.2216 41.4366 37.2017H41.5116H41.5041C41.8567 37.2017 42.2017 37.1567 42.4643 37.1266H42.7344V36.8641H42.7719L42.8319 37.1342L43.3195 37.0666H43.3795L43.9421 36.9916H44.0096H44.1597L44.3622 36.9541C44.4835 36.9357 44.6037 36.9107 44.7223 36.8791L45.2399 36.7741L45.5999 36.6766L45.7425 36.639L46.5451 36.4065C46.8152 36.3165 47.0703 36.234 47.2953 36.1439L47.5654 36.0389L48.2105 35.7539L48.2855 35.7164L48.4055 35.6563L48.6606 35.5213L48.9606 35.3413L49.2307 35.1687C49.4126 35.0429 49.5879 34.9077 49.7558 34.7637C49.784 34.7479 49.8093 34.7276 49.8308 34.7036C50.3171 34.311 50.6857 33.7919 50.8961 33.2033C50.937 33.0909 50.9696 32.9755 50.9936 32.8583C51.0184 32.7449 51.031 32.6292 51.0311 32.5132C51.0347 32.4708 51.0347 32.4281 51.0311 32.3857C51.0597 32.2233 51.0305 32.0561 50.9486 31.9131ZM49.4483 32.5957C49.3187 32.9528 49.0928 33.2669 48.7956 33.5034L48.7281 33.5634L48.428 33.8035C48.3247 33.8605 48.2245 33.9231 48.128 33.991L47.9329 34.1035L47.7154 34.2235L47.6179 34.2686C47.4153 34.3661 47.2053 34.4561 46.9727 34.5536L46.7627 34.6361C46.5526 34.7186 46.3276 34.8012 46.1026 34.8687C45.8775 34.9362 45.63 35.0112 45.3524 35.0787L45.4799 35.0037C45.7183 34.7491 45.9389 34.4784 46.1401 34.1935C46.237 34.0581 46.3272 33.9179 46.4101 33.7735C46.4851 33.6534 46.5526 33.5334 46.6202 33.4134C46.7918 33.0946 46.9398 32.7637 47.0628 32.4232C47.1078 32.2956 47.1528 32.1606 47.1903 32.0406C47.405 31.3279 47.5112 30.5869 47.5053 29.8426V28.9124L47.5654 28.9875C47.6629 29.115 47.7454 29.2425 47.8354 29.37C47.9254 29.4976 48.128 29.8351 48.263 30.1202L49.5233 32.4682C49.5121 32.512 49.4971 32.5546 49.4783 32.5957H49.4483Z" fill="#161617"/>
<path opacity="0.5" d="M49.5233 32.4308C49.5141 32.4848 49.499 32.5377 49.4783 32.5884C49.3417 32.9518 49.105 33.2691 48.7956 33.5036L48.7281 33.5636L48.4281 33.8036C48.3247 33.8607 48.2246 33.9233 48.128 33.9912L47.933 34.1037L47.7154 34.2237L47.6179 34.2687C47.4153 34.3662 47.2053 34.4563 46.9728 34.5538L46.7627 34.6363C46.5527 34.7188 46.3276 34.8013 46.1026 34.8688C45.8775 34.9364 45.63 35.0114 45.3524 35.0789L45.4799 35.0039C45.7183 34.7493 45.9389 34.4786 46.1401 34.1937C46.2371 34.0583 46.3272 33.9181 46.4101 33.7736C46.4852 33.6536 46.5527 33.5336 46.6202 33.4135C46.7919 33.0948 46.9398 32.7638 47.0628 32.4233C47.1078 32.2958 47.1528 32.1608 47.1903 32.0407C47.405 31.328 47.5112 30.5871 47.5054 29.8428V28.9126L47.5654 28.9876C47.6554 29.1076 47.7454 29.2352 47.8354 29.3702C47.9855 29.6027 48.128 29.8353 48.263 30.1203L49.5233 32.4308Z" fill="#161617"/>
<path d="M32.5623 30.7954C32.5711 30.8685 32.5837 30.9411 32.5998 31.013C32.5998 31.0355 32.5623 31.088 32.5623 31.088C32.5587 31.0581 32.5587 31.0279 32.5623 30.998C32.5587 30.9305 32.5587 30.8629 32.5623 30.7954Z" fill="#161617"/>
<path opacity="0.5" d="M34.6477 35.1015L33.8976 34.8914C33.6575 34.8164 33.4325 34.7339 33.2149 34.6514C32.9974 34.5688 32.6373 34.4188 32.4047 34.3063L32.2997 34.2538C32.2327 34.2109 32.1625 34.1733 32.0897 34.1413L31.9997 34.0887L31.7521 33.9387L31.4971 33.7662L31.3245 33.6386L31.227 33.5036H31.1895L30.9644 33.2861C30.885 33.2024 30.8099 33.1148 30.7394 33.0235C30.7142 32.9732 30.684 32.9254 30.6494 32.881C30.5927 32.7674 30.5451 32.6495 30.5068 32.5284C30.5026 32.496 30.5026 32.4633 30.5068 32.4309L31.7521 30.0904C31.8496 29.9104 31.9546 29.7303 32.0672 29.5578C32.1797 29.3853 32.2097 29.3328 32.2847 29.2202C32.3522 29.1152 32.4272 29.0177 32.5023 28.9202V29.8504C32.4895 30.0677 32.4895 30.2856 32.5023 30.503C32.5023 30.608 32.5023 30.713 32.5023 30.8106C32.4986 30.878 32.4986 30.9456 32.5023 31.0131C32.4986 31.043 32.4986 31.0732 32.5023 31.1031C32.4991 31.1381 32.4991 31.1732 32.5023 31.2081C32.5023 31.2832 32.5023 31.3582 32.5548 31.4407C32.5651 31.5067 32.5801 31.5719 32.5998 31.6357C32.6128 31.6994 32.6303 31.7621 32.6523 31.8233C32.6495 31.8582 32.6495 31.8933 32.6523 31.9283C32.6501 31.9507 32.6501 31.9734 32.6523 31.9958C32.6664 32.0494 32.6839 32.102 32.7048 32.1533V32.2209C32.7048 32.2659 32.7048 32.3034 32.7423 32.3334C32.7798 32.3634 32.7423 32.3334 32.7423 32.3784L32.8248 32.5734C32.8741 32.7143 32.9317 32.852 32.9974 32.986V33.031C33.0683 33.1906 33.1484 33.3459 33.2374 33.4961C33.4565 33.872 33.7075 34.2284 33.9876 34.5613L34.1151 34.7039C34.1826 34.7864 34.2576 34.8689 34.3326 34.9439L34.6477 35.1015Z" fill="#161617"/>
<path d="M49.1632 23.879L48.5556 22.5887C48.4731 22.4162 48.3831 22.2437 48.293 22.0636C47.2129 20.0397 45.4509 18.4637 43.3195 17.6152C43.1418 17.5395 42.9588 17.4768 42.7719 17.4277C42.6218 17.3748 42.4691 17.3297 42.3143 17.2926C42.2488 17.2681 42.1809 17.2505 42.1118 17.2401L41.8642 17.1876L41.6617 17.1426H41.4366C41.1966 17.1426 40.964 17.0826 40.6865 17.0526C40.2569 17.0225 39.8258 17.0225 39.3962 17.0526H39.2537C39.0211 17.0526 38.7811 17.0976 38.586 17.1351C38.4447 17.1485 38.3044 17.1711 38.1659 17.2026L37.8659 17.2626C37.7967 17.273 37.7288 17.2906 37.6633 17.3151C37.5287 17.3447 37.3959 17.3822 37.2658 17.4277C37.072 17.4812 36.8816 17.5463 36.6956 17.6227C34.5592 18.4235 32.7971 19.9904 31.7521 22.0186C31.681 22.1287 31.6183 22.2441 31.5646 22.3637L30.8144 23.864C29.5935 26.4963 28.9636 29.364 28.969 32.2657C28.9654 32.3082 28.9654 32.3508 28.969 32.3933C28.9942 32.5372 29.0608 32.6707 29.1607 32.7773C29.2607 32.8839 29.3896 32.959 29.5316 32.9934C29.6935 33.033 29.8639 33.0177 30.016 32.9498C30.1681 32.8819 30.2933 32.7653 30.3718 32.6183L30.4768 32.4308L31.7521 30.0903C31.8496 29.9103 31.9546 29.7302 32.0672 29.5577C32.1336 29.4414 32.2062 29.3287 32.2847 29.2201C32.3522 29.1151 32.4272 29.0176 32.5023 28.92C32.8734 28.4016 33.3011 27.9261 33.7775 27.5023L33.2524 26.9771L33.83 27.4647L33.9876 27.3297C34.2857 27.083 34.5989 26.855 34.9253 26.6471C35.0603 26.5571 35.2028 26.467 35.3529 26.3845C35.8473 26.1034 36.3672 25.8698 36.9057 25.6869L37.1832 25.5894C37.3109 25.5439 37.4411 25.5064 37.5733 25.4768C37.8199 25.4032 38.0703 25.3431 38.3235 25.2968L38.7286 25.2368C38.9298 25.2056 39.1327 25.1856 39.3362 25.1768C39.5387 25.1768 39.7488 25.1768 39.9513 25.1768C40.1539 25.1768 40.3639 25.1768 40.5664 25.1768C40.7724 25.1852 40.9778 25.2053 41.1816 25.2368L41.5641 25.2968C41.7055 25.3171 41.8457 25.3446 41.9842 25.3793L42.3818 25.4768C42.8974 25.617 43.3995 25.8027 43.8821 26.0319L44.1822 26.1745L44.3922 26.287C44.9005 26.5587 45.3805 26.8804 45.825 27.2472L45.9301 27.3372L46.0501 27.4347L46.1851 27.5548C46.6718 27.9541 47.1144 28.4042 47.5054 28.8975L47.5654 28.9726C47.6629 29.1001 47.7454 29.2276 47.8355 29.3551C47.9255 29.4827 48.128 29.8202 48.263 30.1053L49.5233 32.4533L49.6283 32.6333C49.6921 32.7531 49.7872 32.8533 49.9034 32.9234C50.0197 32.9934 50.1528 33.0305 50.2885 33.0309C50.3483 33.0381 50.4087 33.0381 50.4685 33.0309C50.6105 32.9965 50.7395 32.9214 50.8394 32.8148C50.9394 32.7082 51.006 32.5747 51.0311 32.4308C51.0347 32.3883 51.0347 32.3457 51.0311 32.3033C51.0343 29.3921 50.3965 26.516 49.1632 23.879ZM48.3306 27.5023C48.1955 27.3297 48.0455 27.1722 47.8955 27.0147C47.8293 26.9409 47.7591 26.8708 47.6854 26.8046C47.5579 26.6771 47.4304 26.5496 47.2953 26.437L47.1978 26.347C45.2071 24.6043 42.6495 23.6468 40.0038 23.6539H39.3512C39.0811 23.6539 38.8111 23.6539 38.541 23.729C38.271 23.804 37.8959 23.834 37.5808 23.909C36.47 24.1655 35.4067 24.5959 34.4302 25.1843C34.1751 25.3343 33.9276 25.4918 33.68 25.6644C33.381 25.8771 33.0931 26.1049 32.8173 26.347L33.3199 26.8871L32.7423 26.3995C32.5698 26.5496 32.3972 26.7071 32.2397 26.8721C32.0822 27.0372 31.9396 27.1872 31.7896 27.3522L31.6996 27.4572C31.5871 27.5923 31.482 27.7273 31.377 27.8698L31.257 28.0274C31.107 28.2224 30.9719 28.4249 30.8444 28.6275C31.1292 27.2035 31.5825 25.8185 32.1947 24.5016L32.9449 23.0013C32.9806 22.9217 33.0207 22.844 33.0649 22.7688C33.959 21.0297 35.4747 19.6908 37.3108 19.018C37.4531 18.9459 37.6011 18.8857 37.7534 18.8379L38.1359 18.7329H38.2034L38.5035 18.6504L38.8411 18.5979C39.0361 18.5979 39.2312 18.5454 39.4412 18.5229C39.8157 18.4928 40.192 18.4928 40.5664 18.5229C40.769 18.5229 40.9715 18.5604 41.2116 18.5979H41.3241H41.4591H41.5792C41.6542 18.5979 41.7217 18.5979 41.7967 18.6429H41.8642L42.3068 18.7704C42.4479 18.8068 42.5859 18.8544 42.7194 18.913C44.5246 19.6275 46.02 20.9556 46.9428 22.6637C47.0178 22.8063 47.0928 22.9488 47.1678 23.1138L47.8054 24.5016C48.4303 25.8286 48.8913 27.2266 49.1782 28.665C49.0357 28.455 48.9007 28.2449 48.7506 28.0499C48.6006 27.8548 48.4806 27.7048 48.3306 27.5023Z" fill="#161617"/>
<path opacity="0.5" d="M49.1783 28.6799C49.0357 28.4698 48.9007 28.2598 48.7507 28.0648C48.6006 27.8697 48.4806 27.7047 48.3306 27.5322C48.1806 27.3596 48.0455 27.2021 47.8955 27.0445C47.8293 26.9708 47.7592 26.9007 47.6855 26.8345C47.5579 26.707 47.4304 26.5795 47.2954 26.4669L47.1979 26.3769C45.2116 24.6233 42.6535 23.655 40.0039 23.6538H39.3512C39.0812 23.6538 38.8111 23.6538 38.5411 23.7289C38.271 23.8039 37.8959 23.8339 37.5809 23.9089C36.47 24.1654 35.4067 24.5958 34.4302 25.1842C34.1712 25.3298 33.9208 25.4901 33.68 25.6643C33.381 25.877 33.0931 26.1048 32.8174 26.3469L32.7799 26.3844C32.6073 26.5344 32.4348 26.692 32.2772 26.857C32.1197 27.022 31.9772 27.1721 31.8272 27.3371L31.7371 27.4421C31.6246 27.5772 31.5196 27.7122 31.4146 27.8547L31.2945 28.0122C31.1445 28.2073 31.0095 28.4098 30.882 28.6124C31.1559 27.1951 31.5965 25.8152 32.1947 24.5015L32.9449 23.0012C32.9806 22.9216 33.0207 22.8439 33.0649 22.7687C33.959 21.0296 35.4747 19.6907 37.3108 19.0179C37.4531 18.9458 37.6012 18.8856 37.7534 18.8378L38.136 18.7328H38.2035L38.5035 18.6503L38.8411 18.5978C39.0362 18.5978 39.2312 18.5453 39.4412 18.5228C39.8157 18.4927 40.192 18.4927 40.5665 18.5228C40.769 18.5228 40.9716 18.5603 41.2116 18.5978H41.3241H41.4592H41.5792C41.6542 18.5978 41.7217 18.5978 41.7967 18.6428H41.8642L42.3068 18.7703C42.448 18.8067 42.586 18.8543 42.7194 18.9129C44.5246 19.6273 46.0201 20.9555 46.9428 22.6636C47.0178 22.8062 47.0928 22.9487 47.1678 23.1137L47.8055 24.5015C48.4315 25.8332 48.8925 27.2364 49.1783 28.6799Z" fill="#161617"/>
</g>
<defs>
<clipPath id="clip0_277_11146">
<rect width="36" height="46.5097" fill="white" transform="translate(22 17)"/>
</clipPath>
</defs>
</svg>
