<svg width="16" height="13" viewBox="0 0 16 13" fill="none" xmlns="http://www.w3.org/2000/svg">
<path d="M14.3718 3.22505C14.3718 3.3816 14.3718 3.50685 14.3718 3.66341C14.3718 8.01566 11.0841 12.9941 5.0411 12.9941C3.16243 12.9941 1.44031 12.4618 0 11.5225C0.250489 11.5538 0.500978 11.5851 0.782779 11.5851C2.31703 11.5851 3.72603 11.0528 4.85323 10.1761C3.41292 10.1448 2.19178 9.20548 1.78474 7.89041C2.00391 7.92172 2.19178 7.95303 2.41096 7.95303C2.69276 7.95303 3.00587 7.89041 3.25636 7.82779C1.75342 7.51468 0.626223 6.19961 0.626223 4.60274V4.57143C1.06458 4.82192 1.59687 4.94716 2.12916 4.97847C1.22114 4.38356 0.657534 3.3816 0.657534 2.2544C0.657534 1.62818 0.81409 1.06458 1.09589 0.594912C2.72407 2.56751 5.16634 3.88258 7.89041 4.03914C7.82779 3.78865 7.79648 3.53816 7.79648 3.28767C7.79648 1.47162 9.2681 0 11.0841 0C12.0235 0 12.8689 0.375734 13.4951 1.03327C14.2153 0.876712 14.9354 0.594912 15.5616 0.219178C15.3112 1.00196 14.8102 1.62818 14.1213 2.03523C14.7789 1.9726 15.4364 1.78474 16 1.53425C15.5616 2.19178 14.998 2.75538 14.3718 3.22505Z" fill="#F3F3F3"/>
</svg>
