<svg width="690" height="33" viewBox="0 0 690 33" fill="none" xmlns="http://www.w3.org/2000/svg">
<g clip-path="url(#clip0_287_1570)">
<path d="M18.6947 9.33571V0.0078125H0V18.6636H9.3474V9.33571H18.6947Z" fill="#898990"/>
<path d="M18.6945 9.33594V18.6638H9.34717V27.9918H28.0419V9.33594H18.6945Z" fill="#898990"/>
<path d="M104.535 9.49219H100.433V24.0023H104.535H106.301V22.2404H104.535V9.49219Z" fill="#898990"/>
<path d="M102.457 8.40378C103.652 8.40378 104.638 7.41918 104.638 6.22728C104.638 5.03538 103.652 4.05078 102.457 4.05078C101.263 4.05078 100.276 5.03538 100.276 6.22728C100.276 7.41918 101.263 8.40378 102.457 8.40378Z" fill="#898990"/>
<path d="M121.568 22.2388V14.5691C121.568 12.9108 121.153 11.5635 120.27 10.6307C119.387 9.69789 118.193 9.17969 116.635 9.17969C116.115 9.17969 115.648 9.23149 115.233 9.38699C114.817 9.49059 114.454 9.69789 114.09 9.90519C113.727 10.1125 113.415 10.3716 113.155 10.6307C112.896 10.8898 112.636 11.2007 112.376 11.5116V9.43879H108.274V23.9489H112.376V15.9165C112.376 14.9319 112.584 14.2064 113.051 13.6882C113.519 13.1699 114.142 12.9627 114.921 12.9627C115.7 12.9627 116.323 13.2218 116.79 13.6882C117.206 14.2064 117.465 14.9319 117.465 15.9165V24.0007H121.568H123.334V22.2388H121.568Z" fill="#898990"/>
<path d="M68.8589 11.0984C68.1839 10.4247 67.3529 9.90648 66.3659 9.49188C65.4319 9.12918 64.3929 8.92188 63.2509 8.92188C62.1079 8.92188 61.0699 9.12918 60.1349 9.49188C59.1999 9.90648 58.3689 10.4247 57.6419 11.0984C56.9149 11.7721 56.3959 12.6012 55.9799 13.4822C55.5649 14.415 55.4089 15.3478 55.4089 16.3842V16.4361C55.4089 17.4725 55.6169 18.4571 55.9799 19.3899C56.3959 20.3227 56.9149 21.1 57.6419 21.7737C58.3169 22.4474 59.1479 22.9656 60.1349 23.3802C61.0699 23.7429 62.1079 23.9502 63.2509 23.9502C64.3929 23.9502 65.4319 23.7429 66.3659 23.3802C67.3009 22.9656 68.1319 22.4474 68.8589 21.7737C69.5859 21.1 70.1049 20.2709 70.5209 19.3899C70.9359 18.4571 71.0919 17.5243 71.0919 16.4361V16.3842C71.0919 15.3478 70.8839 14.3632 70.5209 13.4304C70.1049 12.6012 69.5339 11.7721 68.8589 11.0984ZM67.0409 16.5397C67.0409 17.0579 66.9379 17.5761 66.7819 18.0425C66.6259 18.5089 66.3659 18.9235 66.0549 19.2863C65.7429 19.649 65.3279 19.9081 64.8599 20.1154C64.3929 20.3227 63.8739 20.4263 63.3029 20.4263C62.7309 20.4263 62.2119 20.3227 61.7449 20.1154C61.2769 19.9081 60.8619 19.5972 60.5499 19.2344C60.1869 18.8717 59.9269 18.4571 59.7709 17.9907C59.6149 17.5243 59.5119 17.0061 59.5119 16.4879V16.4361C59.5119 15.9178 59.6149 15.3996 59.7709 14.9332C59.9269 14.4668 60.1869 14.0522 60.4979 13.6895C60.8099 13.3267 61.2249 13.0676 61.6929 12.8603C62.1599 12.6531 62.6789 12.5494 63.2509 12.5494C63.8219 12.5494 64.3409 12.6531 64.8079 12.8603C65.2759 13.0676 65.6909 13.3786 66.0029 13.7413C66.3659 14.1041 66.6259 14.5186 66.7819 14.985C66.9379 15.4514 67.0409 15.9697 67.0409 16.4879V16.5397Z" fill="#898990"/>
<path d="M86.4629 11.0984C85.7879 10.4247 84.9569 9.90648 83.9699 9.49188C83.0359 9.12918 81.9969 8.92188 80.8549 8.92188C79.7119 8.92188 78.6739 9.12918 77.7389 9.49188C76.8039 9.90648 75.9729 10.4247 75.2459 11.0984C74.5189 11.7721 73.9999 12.6012 73.5839 13.4822C73.1689 14.415 73.0129 15.3478 73.0129 16.3842V16.4361C73.0129 17.4725 73.2209 18.4571 73.5839 19.3899C73.9999 20.3227 74.5189 21.1 75.2459 21.7737C75.9209 22.4474 76.7519 22.9656 77.7389 23.3802C78.6739 23.7429 79.7119 23.9502 80.8549 23.9502C81.9969 23.9502 83.0359 23.7429 83.9699 23.3802C84.9049 22.9656 85.7359 22.4474 86.4629 21.7737C87.1899 21.1 87.7089 20.2709 88.1249 19.3899C88.5399 18.4571 88.6959 17.5243 88.6959 16.4361V16.3842C88.6959 15.3478 88.4879 14.3632 88.1249 13.4304C87.7089 12.6012 87.1899 11.7721 86.4629 11.0984ZM84.6449 16.5397C84.6449 17.0579 84.5419 17.5761 84.3859 18.0425C84.2299 18.5089 83.9699 18.9235 83.6589 19.2863C83.3469 19.649 82.9319 19.9081 82.4639 20.1154C81.9969 20.3227 81.4779 20.4263 80.9069 20.4263C80.3349 20.4263 79.8159 20.3227 79.3489 20.1154C78.8809 19.9081 78.4659 19.5972 78.1539 19.2344C77.7909 18.8717 77.5309 18.4571 77.3749 17.9907C77.2189 17.5243 77.1159 17.0061 77.1159 16.4879V16.4361C77.1159 15.9178 77.2189 15.3996 77.3749 14.9332C77.5309 14.4668 77.7909 14.0522 78.1019 13.6895C78.4139 13.3267 78.8289 13.0676 79.2969 12.8603C79.7639 12.6531 80.2829 12.5494 80.8549 12.5494C81.4259 12.5494 81.9449 12.6531 82.4119 12.8603C82.8799 13.0676 83.2949 13.3786 83.6069 13.7413C83.9699 14.1041 84.2299 14.5186 84.3859 14.985C84.5419 15.4514 84.6449 15.9697 84.6449 16.4879V16.5397Z" fill="#898990"/>
<path d="M51.514 6.89964C50.891 6.32964 50.112 5.86324 49.229 5.55234C48.347 5.24134 47.308 5.08594 46.166 5.08594H38.48V22.2389H36.7144V24.0008H38.48H42.634V18.3523H45.802C46.841 18.3523 47.879 18.1968 48.814 17.9377C49.749 17.6786 50.58 17.264 51.255 16.694C51.93 16.1239 52.501 15.4502 52.916 14.6211C53.332 13.7919 53.488 12.8073 53.488 11.7191V11.6672C53.488 10.6826 53.332 9.80174 52.968 9.02434C52.605 8.19524 52.138 7.46974 51.514 6.89964ZM49.229 11.7709C49.229 12.6 48.918 13.2737 48.347 13.7919C47.775 14.362 46.945 14.6211 45.906 14.6211H42.582V8.86894H45.802C46.841 8.86894 47.672 9.12804 48.295 9.59444C48.918 10.0608 49.178 10.7863 49.178 11.7191V11.7709H49.229Z" fill="#898990"/>
<path d="M92.4349 22.239H90.6689V24.0009H92.4349H96.5379V4.30859H92.4349V22.239Z" fill="#898990"/>
</g>
<g clip-path="url(#clip1_287_1570)">
<path d="M264.479 9.37209C266.412 9.37209 267.967 9.96209 269.146 11.1401C270.344 12.3201 270.943 14.0681 270.943 16.3861V25.4631H266.422V17.0931C266.422 15.8361 266.15 14.9031 265.609 14.2931C265.068 13.6651 264.286 13.3511 263.261 13.3511C262.121 13.3511 261.213 13.7141 260.537 14.4411C259.86 15.1481 259.522 16.2091 259.522 17.6241V25.4641H255V9.60709H259.319V11.4641C259.919 10.7961 260.663 10.2841 261.552 9.93109C262.44 9.55809 263.416 9.37109 264.479 9.37109V9.37209Z" fill="#F3F3F3"/>
<path d="M284.228 22.015C285.039 22.015 285.754 21.897 286.372 21.661C287.032 21.391 287.634 20.9907 288.141 20.483L290.547 23.135C289.078 24.845 286.933 25.699 284.112 25.699C282.353 25.699 280.797 25.355 279.445 24.668C278.092 23.96 277.049 22.988 276.314 21.75C275.579 20.512 275.212 19.107 275.212 17.536C275.212 15.983 275.57 14.588 276.284 13.351C276.995 12.1164 278.029 11.1063 279.271 10.433C280.546 9.72605 281.975 9.37305 283.561 9.37305C285.049 9.37305 286.402 9.69605 287.619 10.345C288.828 10.9652 289.834 11.9271 290.518 13.115C291.252 14.313 291.62 15.738 291.62 17.388L280.082 19.658C280.411 20.443 280.923 21.033 281.618 21.426C282.333 21.819 283.203 22.016 284.228 22.016V22.015ZM283.561 12.85C282.42 12.85 281.493 13.223 280.777 13.97C280.063 14.716 279.686 15.748 279.647 17.064L287.243 15.561C287.051 14.7667 286.588 14.067 285.937 13.586C285.28 13.096 284.489 12.85 283.561 12.85Z" fill="#F3F3F3"/>
<path d="M311.53 9.60842V25.4634H307.24V23.5774C306.648 24.2605 305.916 24.8038 305.095 25.1694C304.24 25.5276 303.324 25.7079 302.399 25.6994C300.35 25.6994 298.727 25.0994 297.529 23.9014C296.331 22.7034 295.731 20.9254 295.731 18.5674V9.60742H300.254V17.8894C300.254 20.4434 301.306 21.7214 303.413 21.7214C304.495 21.7214 305.366 21.3674 306.023 20.6604C306.68 19.9334 307.008 18.8624 307.008 17.4474V9.60742H311.53V9.60842Z" fill="#F3F3F3"/>
<path d="M326.271 24.6976C325.827 25.0316 325.276 25.2876 324.619 25.4636C323.964 25.6229 323.293 25.7021 322.619 25.6996C320.744 25.6996 319.304 25.2186 318.299 24.2556C317.295 23.2926 316.792 21.8786 316.792 20.0116V6.10156H321.314V9.96156H325.17V13.4986H321.314V19.9526C321.314 20.6206 321.478 21.1416 321.807 21.5146C322.135 21.8686 322.609 22.0446 323.228 22.0446C323.923 22.0446 324.542 21.8486 325.083 21.4556L326.271 24.6976Z" fill="#F3F3F3"/>
<path d="M334.304 11.6991C334.845 10.9331 335.569 10.3541 336.478 9.96109C337.405 9.56809 338.469 9.37109 339.667 9.37109V13.6151C339.329 13.5848 338.991 13.5651 338.652 13.5561C337.357 13.5561 336.342 13.9291 335.608 14.6761C334.874 15.4031 334.507 16.5031 334.507 17.9761V25.4621H329.985V9.60709H334.303V11.6991H334.304Z" fill="#F3F3F3"/>
<path d="M343.515 9.60742H348.038V25.4624H343.515V9.60742Z" fill="#F3F3F3"/>
<path d="M362.873 9.37209C364.805 9.37209 366.361 9.96209 367.539 11.1401C368.737 12.3201 369.337 14.0681 369.337 16.3861V25.4631H364.815V17.0931C364.815 15.8361 364.544 14.9031 364.003 14.2931C363.462 13.6651 362.679 13.3511 361.655 13.3511C360.515 13.3511 359.607 13.7141 358.93 14.4411C358.254 15.1481 357.916 16.2091 357.916 17.6241V25.4641H353.393V9.60709H357.713V11.4641C358.312 10.7961 359.056 10.2841 359.945 9.93109C360.834 9.55809 361.81 9.37109 362.873 9.37109V9.37209Z" fill="#F3F3F3"/>
<path d="M382.186 25.7C380.544 25.7 379.065 25.355 377.751 24.668C376.457 23.96 375.442 22.988 374.708 21.75C373.973 20.512 373.606 19.107 373.606 17.536C373.606 15.964 373.973 14.559 374.708 13.321C375.442 12.084 376.457 11.121 377.751 10.433C379.065 9.72605 380.544 9.37305 382.186 9.37305C383.829 9.37305 385.297 9.72605 386.593 10.433C387.887 11.121 388.902 12.083 389.636 13.321C390.371 14.559 390.738 15.964 390.738 17.536C390.738 19.107 390.371 20.512 389.636 21.75C388.902 22.988 387.887 23.96 386.593 24.668C385.297 25.355 383.829 25.699 382.186 25.699V25.7ZM382.186 21.927C383.346 21.927 384.293 21.534 385.027 20.747C385.78 19.942 386.158 18.872 386.158 17.536C386.158 16.2 385.78 15.139 385.027 14.353C384.293 13.547 383.346 13.144 382.186 13.144C381.027 13.144 380.07 13.547 379.316 14.353C378.563 15.139 378.186 16.2 378.186 17.536C378.186 18.872 378.563 19.942 379.316 20.748C380.07 21.534 381.027 21.927 382.186 21.927Z" fill="#F3F3F3"/>
<path d="M345.745 0.779297L349.372 4.4663L345.745 8.1523L342.119 4.4663L345.745 0.779297Z" fill="#F3F3F3"/>
</g>
<g clip-path="url(#clip2_287_1570)">
<path d="M514.565 12.7486C514.565 13.3346 514.891 13.7966 515.533 14.1376C516.177 14.4776 516.963 14.7716 517.89 15.0176C518.816 15.2616 519.747 15.5526 520.686 15.8796C521.626 16.2076 522.416 16.7696 523.062 17.5516C523.705 18.3376 524.029 19.3276 524.029 20.5216C524.029 22.2106 523.376 23.5336 522.077 24.4956C520.774 25.4576 519.142 25.9386 517.171 25.9386C515.436 25.9386 513.948 25.5756 512.707 24.8486C511.466 24.1246 510.56 23.1136 510 21.8236L513.266 19.9216C513.875 21.6106 515.177 22.4526 517.171 22.4526C519.164 22.4526 520.161 21.7976 520.161 20.4856C520.161 19.9216 519.835 19.4666 519.192 19.1136C518.549 18.7596 517.762 18.4636 516.836 18.2186C515.893 17.9671 514.96 17.6792 514.039 17.3556C513.113 17.0377 512.292 16.4727 511.664 15.7216C511.02 14.9546 510.696 13.9906 510.696 12.8146C510.696 11.1976 511.31 9.89459 512.546 8.90959C513.776 7.92559 515.303 7.43359 517.133 7.43359C518.588 7.43359 519.881 7.75859 521.021 8.40059C522.136 9.02383 523.046 9.95862 523.638 11.0906L520.438 12.8856C519.828 11.5496 518.728 10.8796 517.132 10.8796C516.405 10.8796 515.795 11.0386 515.305 11.3526C514.815 11.6726 514.565 12.1386 514.565 12.7496V12.7486Z" fill="#8C8C8C"/>
<path d="M547.083 7.89258H551.092L545.57 25.4766H541.841L538.182 13.6246L534.491 25.4766H530.762L525.24 7.89258H529.25L532.66 20.0236L536.352 7.89358H539.975L543.635 20.0236L547.083 7.89358V7.89258Z" fill="#8C8C8C"/>
<path d="M583.897 7.43459C586.31 7.43459 588.375 8.33259 590.084 10.1246C591.793 11.9186 592.65 14.1036 592.65 16.6826C592.65 19.2846 591.793 21.4746 590.084 23.2586C588.373 25.0426 586.306 25.9296 583.897 25.9296C581.227 25.9296 579.173 24.9446 577.743 22.9736V32.5036H573.945V7.89359H577.743V10.4236C579.177 8.43359 581.226 7.43359 583.897 7.43359V7.43459ZM579.327 20.7126C580.384 21.7796 581.709 22.3116 583.3 22.3116C584.893 22.3116 586.22 21.7796 587.274 20.7126C588.332 19.6456 588.856 18.3026 588.856 16.6846C588.856 15.0676 588.33 13.7276 587.274 12.6566C586.22 11.5896 584.895 11.0576 583.3 11.0576C581.706 11.0576 580.38 11.5896 579.326 12.6566C578.273 13.7236 577.745 15.0666 577.745 16.6846C577.745 18.3016 578.273 19.6456 579.326 20.7126H579.327Z" fill="#8C8C8C"/>
<path d="M599.564 25.1231C599.323 25.3724 599.033 25.5696 598.713 25.7026C598.393 25.8355 598.049 25.9014 597.702 25.8961C597.355 25.9012 597.011 25.8352 596.691 25.7022C596.371 25.5693 596.081 25.3722 595.84 25.1231C595.59 24.8826 595.392 24.5931 595.258 24.2728C595.124 23.9525 595.058 23.6081 595.063 23.2611C595.063 22.5341 595.313 21.9131 595.817 21.3981C596.323 20.8801 596.951 20.6211 597.698 20.6211C598.425 20.6211 599.046 20.8801 599.561 21.3981C600.077 21.9151 600.334 22.5341 600.334 23.2611C600.34 23.6076 600.275 23.9518 600.142 24.2721C600.01 24.5924 599.813 24.882 599.564 25.1231Z" fill="#8C8C8C"/>
<path d="M617.998 7.89134V25.4753H614.196V11.5493H608.36V25.4793H604.562V11.5493H601.892V7.89134H604.562V7.53734C604.564 2.78134 607.209 0.402344 612.512 0.402344C613.753 0.402344 615.052 0.555344 616.416 0.857344V4.33934C615.123 4.14881 613.818 4.05521 612.512 4.05934C611.104 4.05934 610.06 4.31734 609.382 4.83134C608.701 5.34834 608.364 6.25234 608.364 7.53834V7.89234H618V7.89034H617.998V7.89134Z" fill="#8C8C8C"/>
<path fill-rule="evenodd" clip-rule="evenodd" d="M570.946 18.747C571.18 17.93 571.306 17.067 571.306 16.175C571.306 11.038 567.143 6.875 562.006 6.875C560.34 6.87445 558.705 7.32141 557.272 8.16916C555.838 9.0169 554.658 10.2343 553.856 11.694L556.776 14.159C557.158 13.1686 557.814 12.307 558.666 11.6744C559.519 11.0419 560.533 10.6643 561.592 10.5858C562.651 10.5072 563.71 10.7308 564.647 11.2306C565.583 11.7304 566.359 12.4858 566.883 13.409L565.121 13.855L567.708 16.008L570.946 18.747ZM569.992 20.944C568.85 22.8605 567.058 24.3029 564.941 25.0078C562.825 25.7128 560.526 25.6334 558.463 24.7842C556.4 23.9349 554.711 22.3725 553.705 20.3817C552.698 18.391 552.44 16.1048 552.979 13.94L555.734 16.266L558.48 18.552L557.108 18.9C557.612 19.8053 558.358 20.5531 559.261 21.0605C560.165 21.5678 561.192 21.8149 562.227 21.7742C563.263 21.7335 564.267 21.4066 565.128 20.8299C565.989 20.2531 566.673 19.4491 567.105 18.507L569.992 20.944Z" fill="#8C8C8C"/>
<path fill-rule="evenodd" clip-rule="evenodd" d="M570.946 18.747C571.18 17.93 571.306 17.067 571.306 16.175C571.306 11.038 567.143 6.875 562.006 6.875C560.34 6.87445 558.705 7.32141 557.271 8.16916C555.838 9.0169 554.658 10.2343 553.856 11.694L556.776 14.159C557.158 13.1686 557.814 12.307 558.666 11.6744C559.519 11.0419 560.533 10.6643 561.592 10.5858C562.651 10.5072 563.71 10.7308 564.647 11.2306C565.583 11.7304 566.359 12.4858 566.883 13.409L565.121 13.855L567.708 16.008L570.946 18.747Z" fill="#B9B9B9"/>
</g>
<defs>
<clipPath id="clip0_287_1570">
<rect width="180" height="28" fill="white"/>
</clipPath>
<clipPath id="clip1_287_1570">
<rect width="180" height="26" fill="white" transform="translate(255)"/>
</clipPath>
<clipPath id="clip2_287_1570">
<rect width="180" height="33" fill="white" transform="translate(510)"/>
</clipPath>
</defs>
</svg>
