<svg width="1424" height="24" viewBox="0 0 1424 24" fill="none" xmlns="http://www.w3.org/2000/svg">
<g clip-path="url(#clip0_5193_8200)">
<path fill-rule="evenodd" clip-rule="evenodd" d="M2 12C2 6.47715 6.47715 2 12 2C17.5228 2 22 6.47715 22 12C22 17.5228 17.5228 22 12 22C6.47715 22 2 17.5228 2 12ZM13.7071 9.70711C14.0976 9.31658 14.0976 8.68342 13.7071 8.29289C13.3166 7.90237 12.6834 7.90237 12.2929 8.29289L9.29289 11.2929C8.90237 11.6834 8.90237 12.3166 9.29289 12.7071L12.2929 15.7071C12.6834 16.0976 13.3166 16.0976 13.7071 15.7071C14.0976 15.3166 14.0976 14.6834 13.7071 14.2929L11.4142 12L13.7071 9.70711Z" fill="#242328"/>
</g>
<g clip-path="url(#clip1_5193_8200)">
<path fill-rule="evenodd" clip-rule="evenodd" d="M1402 12C1402 6.47715 1406.48 2 1412 2C1417.52 2 1422 6.47715 1422 12C1422 17.5228 1417.52 22 1412 22C1406.48 22 1402 17.5228 1402 12ZM1410.29 14.2929C1409.9 14.6834 1409.9 15.3166 1410.29 15.7071C1410.68 16.0976 1411.32 16.0976 1411.71 15.7071L1414.71 12.7071C1415.1 12.3166 1415.1 11.6834 1414.71 11.2929L1411.71 8.29289C1411.32 7.90237 1410.68 7.90237 1410.29 8.29289C1409.9 8.68342 1409.9 9.31658 1410.29 9.70711L1412.59 12L1410.29 14.2929Z" fill="#242328"/>
</g>
<defs>
<clipPath id="clip0_5193_8200">
<rect width="24" height="24" fill="white"/>
</clipPath>
<clipPath id="clip1_5193_8200">
<rect width="24" height="24" fill="white" transform="translate(1400)"/>
</clipPath>
</defs>
</svg>
