<svg width="110" height="110" viewBox="0 0 110 110" fill="none" xmlns="http://www.w3.org/2000/svg">
<circle cx="55" cy="55" r="55" fill="#151517"/>
<g clip-path="url(#clip0_270_2013)">
<path d="M37.49 37.1299L37 36.8599L30.06 32.9999L28.49 32.1299C28.338 32.0422 28.1655 31.996 27.99 31.996C27.8144 31.996 27.642 32.0422 27.49 32.1299C27.331 32.2196 27.1996 32.351 27.11 32.5099C27.0342 32.662 26.9965 32.8301 27 32.9999V43.9999C27.0003 44.1771 27.0477 44.3511 27.1373 44.5039C27.2269 44.6568 27.3555 44.7831 27.51 44.8699L34 48.4699L35.79 49.4699L36.5 49.8699C36.5789 49.9135 36.6628 49.9471 36.75 49.9699C36.9192 50.0236 37.1008 50.0236 37.27 49.9699C37.3498 49.9488 37.427 49.9186 37.5 49.8799C37.6541 49.791 37.7816 49.6626 37.8695 49.5079C37.9574 49.3532 38.0025 49.1778 38 48.9999V37.9999C37.9997 37.8228 37.9523 37.6488 37.8627 37.496C37.7731 37.3431 37.6444 37.2168 37.49 37.1299ZM35.64 47.1299L29 43.4099V34.6999L36 38.5899V47.2999L35.75 47.1599L35.64 47.1299Z" fill="#CBFB45"/>
<path opacity="0.5" d="M36 38.5901V47.3001L35.75 47.1601L35.64 47.1001L29 43.4101V34.7001L36 38.5901Z" fill="#CBFB45"/>
<path d="M46.87 32.5099C46.7804 32.351 46.649 32.2196 46.49 32.1299C46.338 32.0422 46.1655 31.996 45.99 31.996C45.8145 31.996 45.642 32.0422 45.49 32.1299L43.94 32.9999L37 36.8599L36.51 37.1299C36.3555 37.2168 36.2269 37.3431 36.1373 37.496C36.0477 37.6488 36.0003 37.8228 36 37.9999V48.9999C36 49.1735 36.0452 49.344 36.1311 49.4948C36.217 49.6456 36.3407 49.7714 36.49 49.8599C36.5689 49.9035 36.6529 49.9371 36.74 49.9599C36.9092 50.0136 37.0908 50.0136 37.26 49.9599C37.3398 49.9388 37.417 49.9086 37.49 49.8699L46.49 44.8699C46.6445 44.7831 46.7731 44.6568 46.8627 44.5039C46.9523 44.3511 46.9997 44.1771 47 43.9999V32.9999C46.9973 32.8284 46.9527 32.6602 46.87 32.5099ZM45 43.4099L38 47.2999V38.5899L45 34.6999V43.4099Z" fill="#CBFB45"/>
<path opacity="0.5" d="M45 34.7001V43.4101L38 47.3001V38.5901L45 34.7001Z" fill="#CBFB45"/>
<path d="M46.87 32.5099C46.7804 32.351 46.6489 32.2196 46.49 32.1299L37.49 27.1299C37.338 27.0422 37.1655 26.996 36.99 26.996C36.8144 26.996 36.642 27.0422 36.49 27.1299L27.49 32.1299C27.331 32.2196 27.1996 32.351 27.11 32.5099C27.0342 32.662 26.9965 32.8301 27 32.9999C27.0003 33.1771 27.0477 33.3511 27.1373 33.5039C27.2269 33.6568 27.3555 33.7831 27.51 33.8699L29 34.6999L36 38.5899L36.51 38.8699C36.662 38.9577 36.8344 39.0039 37.01 39.0039C37.1855 39.0039 37.358 38.9577 37.51 38.8699L38.02 38.5899L45 34.6999L46.49 33.8699C46.6444 33.7831 46.7731 33.6568 46.8627 33.5039C46.9523 33.3511 46.9997 33.1771 47 32.9999C46.9973 32.8284 46.9527 32.6602 46.87 32.5099ZM37 36.8599L30.06 32.9999L37 29.1399L43.94 32.9999L37 36.8599Z" fill="#CBFB45"/>
<path opacity="0.5" d="M43.9401 32.9995L37.0001 36.8595L30.0601 32.9995L37.0001 29.1395L43.9401 32.9995Z" fill="#CBFB45"/>
<path d="M73.49 37.1299L73 36.8599L66.06 32.9999L64.49 32.1299C64.338 32.0422 64.1655 31.996 63.99 31.996C63.8144 31.996 63.642 32.0422 63.49 32.1299C63.331 32.2196 63.1996 32.351 63.11 32.5099C63.0342 32.662 62.9965 32.8301 63 32.9999V43.9999C63.0003 44.1771 63.0477 44.3511 63.1373 44.5039C63.2269 44.6568 63.3555 44.7831 63.51 44.8699L72.51 49.8699C72.5889 49.9135 72.6728 49.9471 72.76 49.9699C72.9292 50.0236 73.1108 50.0236 73.28 49.9699C73.3598 49.9488 73.437 49.9186 73.51 49.8799C73.6622 49.7897 73.7878 49.6607 73.8739 49.5061C73.9599 49.3515 74.0035 49.1769 74 48.9999V37.9999C73.9997 37.8228 73.9523 37.6488 73.8627 37.496C73.7731 37.3431 73.6444 37.2168 73.49 37.1299ZM65 34.6999L72 38.5899V47.2999L65 43.4099V34.6999Z" fill="#CBFB45"/>
<path opacity="0.5" d="M72 38.5901V47.3001L65 43.4101V34.7001L72 38.5901Z" fill="#CBFB45"/>
<path d="M82.87 32.5099C82.7804 32.351 82.649 32.2196 82.49 32.1299C82.338 32.0422 82.1655 31.996 81.99 31.996C81.8145 31.996 81.642 32.0422 81.49 32.1299L79.94 32.9999L73 36.8599L72.51 37.1299C72.3555 37.2168 72.2269 37.3431 72.1373 37.496C72.0477 37.6488 72.0003 37.8228 72 37.9999V48.9999C72 49.1735 72.0452 49.344 72.1311 49.4948C72.217 49.6456 72.3407 49.7714 72.49 49.8599C72.5689 49.9035 72.6529 49.9371 72.74 49.9599C72.9092 50.0136 73.0908 50.0136 73.26 49.9599C73.3398 49.9388 73.417 49.9086 73.49 49.8699L74.2 49.4699L75.99 48.4699L82.47 44.8699C82.6282 44.7857 82.7608 44.6605 82.8541 44.5075C82.9473 44.3544 82.9977 44.1791 83 43.9999V32.9999C82.9973 32.8284 82.9527 32.6602 82.87 32.5099ZM81 43.4099L74.36 47.0999L74.25 47.1599L74 47.2999V38.5899L81 34.6999V43.4099Z" fill="#CBFB45"/>
<path opacity="0.5" d="M81 34.7001V43.4101L74.36 47.1001L74.25 47.1601L74 47.3001V38.5901L81 34.7001Z" fill="#CBFB45"/>
<path d="M82.87 32.5099C82.7804 32.351 82.6489 32.2196 82.49 32.1299L73.49 27.1299C73.338 27.0422 73.1655 26.996 72.99 26.996C72.8144 26.996 72.642 27.0422 72.49 27.1299L63.49 32.1299C63.331 32.2196 63.1996 32.351 63.11 32.5099C63.0342 32.662 62.9965 32.8301 63 32.9999C63.0003 33.1771 63.0477 33.3511 63.1373 33.5039C63.2269 33.6568 63.3555 33.7831 63.51 33.8699L65 34.6999L72 38.5899L72.51 38.8699C72.662 38.9577 72.8344 39.0039 73.01 39.0039C73.1855 39.0039 73.358 38.9577 73.51 38.8699L74.02 38.5899L81 34.6999L82.49 33.8699C82.6444 33.7831 82.7731 33.6568 82.8627 33.5039C82.9523 33.3511 82.9997 33.1771 83 32.9999C82.9973 32.8284 82.9527 32.6602 82.87 32.5099ZM73 36.8599L66.06 32.9999L73 29.1399L79.94 32.9999L73 36.8599Z" fill="#CBFB45"/>
<path opacity="0.5" d="M79.9401 32.9995L73.0001 36.8595L66.0601 32.9995L73.0001 29.1395L79.9401 32.9995Z" fill="#CBFB45"/>
<path d="M37.49 70.1299L37 69.8599L30.06 65.9999L28.49 65.1299C28.338 65.0422 28.1655 64.996 27.99 64.996C27.8144 64.996 27.642 65.0422 27.49 65.1299C27.331 65.2196 27.1996 65.351 27.11 65.5099C27.0342 65.662 26.9965 65.8301 27 65.9999V76.9999C27.0003 77.1771 27.0477 77.3511 27.1373 77.5039C27.2269 77.6568 27.3555 77.7831 27.51 77.8699L36.51 82.8699C36.5889 82.9135 36.6728 82.9471 36.76 82.9699C36.9292 83.0236 37.1108 83.0236 37.28 82.9699C37.3598 82.9488 37.437 82.9186 37.51 82.8799C37.6622 82.7897 37.7878 82.6607 37.8739 82.5061C37.9599 82.3515 38.0035 82.1769 38 81.9999V70.9999C37.9997 70.8228 37.9523 70.6488 37.8627 70.4959C37.7731 70.3431 37.6444 70.2168 37.49 70.1299ZM29 67.6999L36 71.5899V80.2999L29 76.4099V67.6999Z" fill="#CBFB45"/>
<path opacity="0.5" d="M36 71.5901V80.3001L29 76.4101V67.7001L36 71.5901Z" fill="#CBFB45"/>
<path d="M46.87 65.5099C46.7804 65.351 46.649 65.2196 46.49 65.1299C46.338 65.0422 46.1655 64.996 45.99 64.996C45.8145 64.996 45.642 65.0422 45.49 65.1299L43.94 65.9999L37 69.8599L36.51 70.1299C36.3555 70.2168 36.2269 70.3431 36.1373 70.4959C36.0477 70.6488 36.0003 70.8228 36 70.9999V81.9999C36 82.1735 36.0452 82.344 36.1311 82.4948C36.217 82.6456 36.3407 82.7714 36.49 82.8599C36.5689 82.9035 36.6529 82.9371 36.74 82.9599C36.9092 83.0136 37.0908 83.0136 37.26 82.9599C37.3398 82.9388 37.417 82.9086 37.49 82.8699L46.49 77.8699C46.6445 77.7831 46.7731 77.6568 46.8627 77.5039C46.9523 77.3511 46.9997 77.1771 47 76.9999V65.9999C46.9973 65.8284 46.9527 65.6602 46.87 65.5099ZM45 76.4099L38 80.2999V71.5899L45 67.6999V76.4099Z" fill="#CBFB45"/>
<path opacity="0.5" d="M45 67.7001V76.4101L38 80.3001V71.5901L45 67.7001Z" fill="#CBFB45"/>
<path d="M46.87 65.5099C46.7804 65.351 46.649 65.2196 46.49 65.1299L37.49 60.1299C37.338 60.0422 37.1655 59.996 36.99 59.996C36.8145 59.996 36.642 60.0422 36.49 60.1299L35.76 60.5399L34 61.5299L27.51 65.1299C27.351 65.2196 27.2196 65.351 27.13 65.5099C27.0473 65.6602 27.0027 65.8284 27 65.9999C27.0003 66.1771 27.0477 66.3511 27.1373 66.5039C27.2269 66.6568 27.3555 66.7831 27.51 66.8699L29 67.6999L36 71.5899L36.51 71.8699C36.662 71.9577 36.8345 72.0039 37.01 72.0039C37.1855 72.0039 37.358 71.9577 37.51 71.8699L38.02 71.5899L45.02 67.6999L46.51 66.8699C46.6607 66.7806 46.7854 66.6532 46.8714 66.5005C46.9574 66.3478 47.0017 66.1752 47 65.9999C46.9973 65.8284 46.9527 65.6602 46.87 65.5099ZM37 69.8599L30.06 65.9999L35.61 62.9199L35.76 62.8299H35.81L37 62.1399L43.94 65.9999L37 69.8599Z" fill="#CBFB45"/>
<path opacity="0.5" d="M43.9401 65.9995L37.0001 69.8595L30.0601 65.9995L35.6101 62.9195L35.7601 62.8295H35.8101L37.0001 62.1395L43.9401 65.9995Z" fill="#CBFB45"/>
<path d="M73.49 70.1299L73 69.8599L66.06 65.9999L64.49 65.1299C64.338 65.0422 64.1655 64.996 63.99 64.996C63.8144 64.996 63.642 65.0422 63.49 65.1299C63.331 65.2196 63.1996 65.351 63.11 65.5099C63.0342 65.662 62.9965 65.8301 63 65.9999V76.9999C63.0003 77.1771 63.0477 77.3511 63.1373 77.5039C63.2269 77.6568 63.3555 77.7831 63.51 77.8699L72.51 82.8699C72.5889 82.9135 72.6728 82.9471 72.76 82.9699C72.9293 83.023 73.1107 83.023 73.28 82.9699C73.3598 82.9488 73.437 82.9186 73.51 82.8799C73.6622 82.7897 73.7878 82.6607 73.8739 82.5061C73.9599 82.3515 74.0035 82.1769 74 81.9999V70.9999C73.9997 70.8228 73.9523 70.6488 73.8627 70.4959C73.7731 70.3431 73.6444 70.2168 73.49 70.1299ZM65 67.6999L72 71.5899V80.2999L65 76.4099V67.6999Z" fill="#CBFB45"/>
<path opacity="0.5" d="M72 71.5901V80.3001L65 76.4101V67.7001L72 71.5901Z" fill="#CBFB45"/>
<path d="M82.87 65.5099C82.7804 65.351 82.649 65.2196 82.49 65.1299C82.338 65.0422 82.1655 64.996 81.99 64.996C81.8145 64.996 81.642 65.0422 81.49 65.1299L79.94 65.9999L73 69.8599L72.51 70.1299C72.3555 70.2168 72.2269 70.3431 72.1373 70.4959C72.0477 70.6488 72.0003 70.8228 72 70.9999V81.9999C72 82.1735 72.0452 82.344 72.1311 82.4948C72.217 82.6456 72.3407 82.7714 72.49 82.8599C72.5689 82.9035 72.6529 82.9371 72.74 82.9599C72.9093 83.013 73.0907 83.013 73.26 82.9599C73.3398 82.9388 73.417 82.9086 73.49 82.8699L82.49 77.8699C82.6445 77.7831 82.7731 77.6568 82.8627 77.5039C82.9523 77.3511 82.9997 77.1771 83 76.9999V65.9999C82.9973 65.8284 82.9527 65.6602 82.87 65.5099ZM81 76.4099L74 80.2999V71.5899L81 67.6999V76.4099Z" fill="#CBFB45"/>
<path opacity="0.5" d="M81 67.7001V76.4101L74 80.3001V71.5901L81 67.7001Z" fill="#CBFB45"/>
<path d="M73.86 61.6602C73.99 61.2902 74.11 60.9202 74.22 60.5402L73.49 60.1302C73.338 60.0424 73.1655 59.9962 72.99 59.9962C72.8144 59.9962 72.642 60.0424 72.49 60.1302L63.49 65.1302C63.642 65.0424 63.8144 64.9962 63.99 64.9962C64.1655 64.9962 64.338 65.0424 64.49 65.1302L66.06 66.0002L73 62.1402L74.18 62.7902C74.0143 62.6597 73.8941 62.4801 73.8366 62.2771C73.7791 62.0741 73.7873 61.8582 73.86 61.6602ZM82.86 65.5102C82.7704 65.3512 82.6389 65.2198 82.48 65.1302L76 61.5302L74.21 60.5302L73.48 60.1202C73.328 60.0324 73.1555 59.9862 72.98 59.9862C72.8044 59.9862 72.632 60.0324 72.48 60.1202L63.48 65.1202C63.321 65.2098 63.1896 65.3412 63.1 65.5002C63.0261 65.6561 62.9917 65.8278 63 66.0002C63.0003 66.1774 63.0477 66.3513 63.1373 66.5042C63.2269 66.657 63.3555 66.7834 63.51 66.8702L65 67.7002L72 71.5902L72.51 71.8702C72.662 71.9579 72.8344 72.0042 73.01 72.0042C73.1855 72.0042 73.358 71.9579 73.51 71.8702L74.02 71.5902L81.02 67.7002L82.51 66.8702C82.6607 66.7808 82.7853 66.6534 82.8713 66.5007C82.9573 66.348 83.0017 66.1754 83 66.0002C82.9973 65.8287 82.9527 65.6604 82.87 65.5102H82.86ZM73 69.8602L66.06 66.0002L73 62.1402L74.18 62.7902L74.33 62.8802L79.94 66.0002L73 69.8602Z" fill="#CBFB45"/>
<path opacity="0.5" d="M79.9401 65.9995L73.0001 69.8595L66.0601 65.9995L73.0001 62.1395L74.1801 62.7895L74.3301 62.8795L79.9401 65.9995Z" fill="#CBFB45"/>
<path opacity="0.5" d="M35.8199 62.7903H35.7699L35.6199 62.8803H35.5499C35.4411 62.9406 35.3227 62.9812 35.1999 63.0003C34.9944 63.0003 34.7939 62.9369 34.6257 62.8188C34.4575 62.7007 34.3298 62.5336 34.2599 62.3403C34.1599 62.067 34.0699 61.797 33.9899 61.5303C32.6712 57.2764 32.6747 52.7223 33.9999 48.4703C34.0799 48.197 34.1699 47.927 34.2699 47.6603C34.3601 47.4111 34.5457 47.2079 34.7857 47.0954C35.0257 46.9829 35.3006 46.9703 35.5499 47.0603H35.6499L35.7599 47.1203C35.8565 47.198 35.9379 47.2929 35.9999 47.4003C36.0994 47.5331 36.1642 47.6886 36.1887 47.8526C36.2131 48.0167 36.1963 48.1843 36.1399 48.3403C36.0899 48.4803 36.0399 48.6103 35.9999 48.7503C35.9599 48.8903 35.8499 49.2203 35.7799 49.4603C34.7397 53.0804 34.7397 56.9203 35.7799 60.5403C35.8899 60.9203 36.0099 61.2903 36.1399 61.6603C36.2125 61.8584 36.2207 62.0743 36.1632 62.2773C36.1058 62.4802 35.9856 62.6598 35.8199 62.7903Z" fill="#CBFB45"/>
<path opacity="0.5" d="M55 76.9995C51.7372 77.0114 48.5138 76.2868 45.57 74.8795C45.33 74.7655 45.1451 74.5607 45.056 74.3104C44.9669 74.06 44.981 73.7845 45.095 73.5445C45.2091 73.3045 45.4138 73.1196 45.6641 73.0305C45.9145 72.9414 46.19 72.9555 46.43 73.0695C49.1084 74.3397 52.0357 74.9987 55 74.9987C57.9643 74.9987 60.8916 74.3397 63.57 73.0695C63.81 72.9555 64.0855 72.9414 64.3359 73.0305C64.5862 73.1196 64.791 73.3045 64.905 73.5445C65.019 73.7845 65.0331 74.06 64.944 74.3104C64.8549 74.5607 64.67 74.7655 64.43 74.8795C61.4863 76.2868 58.2628 77.0114 55 76.9995Z" fill="#CBFB45"/>
<path opacity="0.5" d="M77 55.0004C77.001 57.2153 76.6638 59.4173 76 61.5304C75.92 61.797 75.83 62.067 75.73 62.3404C75.6602 62.5337 75.5324 62.7007 75.3642 62.8188C75.196 62.9369 74.9955 63.0003 74.79 63.0004C74.6742 62.9991 74.5593 62.9788 74.45 62.9404H74.38L74.23 62.8504C74.0643 62.7198 73.9441 62.5403 73.8867 62.3373C73.8292 62.1343 73.8374 61.9184 73.91 61.7204C74.04 61.3504 74.16 60.9804 74.27 60.6004C75.3103 56.9803 75.3103 53.1405 74.27 49.5204C74.2 49.2804 74.13 49.0404 74.05 48.8104C73.97 48.5804 73.96 48.5404 73.91 48.4004C73.8355 48.2406 73.8046 48.0639 73.8204 47.8883C73.8362 47.7126 73.8982 47.5443 74 47.4004C74.0688 47.3064 74.1534 47.2252 74.25 47.1604L74.36 47.1004H74.46C74.7093 47.0103 74.9842 47.0229 75.2242 47.1354C75.4642 47.2479 75.6498 47.4511 75.74 47.7004C75.84 47.967 75.93 48.237 76.01 48.5104C76.6664 50.6112 77.0002 52.7994 77 55.0004Z" fill="#CBFB45"/>
<path opacity="0.5" d="M64 37.0001C63.8508 37.0013 63.7034 36.9671 63.57 36.9001C60.8899 35.636 57.9633 34.9805 55 34.9805C52.0367 34.9805 49.1102 35.636 46.43 36.9001C46.1912 37.0134 45.9173 37.0276 45.668 36.9395C45.4188 36.8514 45.2146 36.6683 45.1 36.4301C45.0423 36.3113 45.0087 36.1823 45.0012 36.0505C44.9936 35.9187 45.0122 35.7867 45.0559 35.6621C45.0996 35.5376 45.1675 35.4229 45.2557 35.3247C45.344 35.2265 45.4508 35.1468 45.57 35.0901C48.5196 33.7008 51.7397 32.9803 55 32.9803C58.2604 32.9803 61.4805 33.7008 64.43 35.0901C64.6391 35.1852 64.809 35.3495 64.9113 35.5553C65.0135 35.761 65.0417 35.9957 64.9913 36.2198C64.9408 36.4439 64.8147 36.6439 64.6342 36.786C64.4537 36.9281 64.2297 37.0037 64 37.0001Z" fill="#CBFB45"/>
<path d="M59.36 54.54C59.779 53.9576 60.003 53.2575 60 52.54V52.43C60.0066 51.5901 59.7049 50.777 59.1519 50.1448C58.599 49.5126 57.8333 49.1053 57 49V48C57 47.7348 56.8946 47.4804 56.7071 47.2929C56.5196 47.1054 56.2652 47 56 47C55.7348 47 55.4804 47.1054 55.2929 47.2929C55.1054 47.4804 55 47.7348 55 48V49H53V48C53 47.7348 52.8946 47.4804 52.7071 47.2929C52.5196 47.1054 52.2652 47 52 47C51.7348 47 51.4804 47.1054 51.2929 47.2929C51.1054 47.4804 51 47.7348 51 48V49H50C49.7348 49 49.4804 49.1054 49.2929 49.2929C49.1054 49.4804 49 49.7348 49 50C49 50.2652 49.1054 50.5196 49.2929 50.7071C49.4804 50.8946 49.7348 51 50 51V59C49.7348 59 49.4804 59.1054 49.2929 59.2929C49.1054 59.4804 49 59.7348 49 60C49 60.2652 49.1054 60.5196 49.2929 60.7071C49.4804 60.8946 49.7348 61 50 61H51V62C51 62.2652 51.1054 62.5196 51.2929 62.7071C51.4804 62.8946 51.7348 63 52 63C52.2652 63 52.5196 62.8946 52.7071 62.7071C52.8946 62.5196 53 62.2652 53 62V61H55V62C55 62.2652 55.1054 62.5196 55.2929 62.7071C55.4804 62.8946 55.7348 63 56 63C56.2652 63 56.5196 62.8946 56.7071 62.7071C56.8946 62.5196 57 62.2652 57 62V61H57.5C58.258 60.9983 58.9951 60.7506 59.6002 60.2941C60.2053 59.8375 60.6459 59.1969 60.8556 58.4684C61.0654 57.74 61.033 56.9631 60.7632 56.2547C60.4935 55.5462 60.0011 54.9445 59.36 54.54ZM56 51H56.56C56.9411 51.0026 57.3059 51.1552 57.5753 51.4247C57.8448 51.6941 57.9974 52.0589 58 52.44V52.55C58 52.9328 57.8486 53.3001 57.5788 53.5718C57.3091 53.8434 56.9428 53.9974 56.56 54H52V51H56ZM57.5 59H52V56H57.5C57.8978 56 58.2794 56.158 58.5607 56.4393C58.842 56.7206 59 57.1022 59 57.5C59 57.8978 58.842 58.2794 58.5607 58.5607C58.2794 58.842 57.8978 59 57.5 59Z" fill="#CBFB45"/>
</g>
<defs>
<clipPath id="clip0_270_2013">
<rect width="56" height="56" fill="white" transform="translate(27 27)"/>
</clipPath>
</defs>
</svg>
