<svg width="56" height="57" viewBox="0 0 56 57" fill="none" xmlns="http://www.w3.org/2000/svg">
<g clip-path="url(#clip0_270_1975)">
<path d="M56 55C56 55.2652 55.8946 55.5196 55.7071 55.7071C55.5196 55.8946 55.2652 56 55 56H1C0.734784 56 0.48043 55.8946 0.292893 55.7071C0.105357 55.5196 0 55.2652 0 55C0 54.7348 0.105357 54.4804 0.292893 54.2929C0.48043 54.1054 0.734784 54 1 54H55C55.2652 54 55.5196 54.1054 55.7071 54.2929C55.8946 54.4804 56 54.7348 56 55Z" fill="#161617"/>
<path d="M37.2801 13.2598C36.393 11.1128 35.1487 9.13145 33.6001 7.39982C33.3201 7.06982 33.0301 6.75982 32.7201 6.39982L32.2201 5.89982L30.8001 4.52982L29.3901 3.11982L26.5601 0.289816C26.3728 0.103565 26.1193 -0.000976562 25.8551 -0.000976562C25.5909 -0.000976563 25.3375 0.103565 25.1501 0.289816L20.9001 4.52982C20.7174 4.72145 20.6138 4.97505 20.6101 5.23982C20.6025 5.37974 20.6244 5.51971 20.6743 5.65064C20.7243 5.78156 20.8012 5.90053 20.9001 5.99982L28.0001 12.9998L31.2101 16.2098C32.2855 17.3191 33.2224 18.5548 34.0001 19.8898L37.0001 24.8898C37.089 25.0358 37.2138 25.1565 37.3626 25.2406C37.5114 25.3246 37.6792 25.3691 37.8501 25.3698C37.9398 25.3796 38.0304 25.3796 38.1201 25.3698C38.3364 25.3093 38.5261 25.1778 38.6585 24.9964C38.7909 24.815 38.8584 24.5943 38.8501 24.3698V21.3698C38.8689 18.5892 38.3352 15.8325 37.2801 13.2598ZM35.7601 18.8598C34.8673 17.4072 33.8067 16.0646 32.6001 14.8598L28.6801 10.8998L25.8501 8.06982L23.0001 5.23982L25.8301 2.40982L31.4901 8.06982C34.7981 11.4623 36.7111 15.9736 36.8501 20.7098L35.7601 18.8598Z" fill="#161617"/>
<path d="M28.6799 10.9001L25.8499 8.07009C25.6626 7.88384 25.4091 7.7793 25.1449 7.7793C24.8808 7.7793 24.6273 7.88384 24.4399 8.07009L23.7299 8.78009L7.46995 25.0001C7.37727 25.0935 7.30394 25.2043 7.25418 25.3262C7.20441 25.448 7.17919 25.5785 7.17995 25.7101C7.18105 25.9724 7.2852 26.2238 7.46995 26.4101L10.2999 29.2401C10.4873 29.4263 10.7408 29.5309 11.0049 29.5309C11.2691 29.5309 11.5226 29.4263 11.7099 29.2401L27.9999 13.0001L28.7099 12.2901C28.8962 12.1027 29.0007 11.8493 29.0007 11.5851C29.0007 11.3209 28.8962 11.0675 28.7099 10.8801L28.6799 10.9001ZM10.9999 27.1601L9.58995 25.7501L25.1499 10.2001L26.5599 11.6101L10.9999 27.1601Z" fill="#161617"/>
<path opacity="0.5" d="M25.1541 10.1971L9.59229 25.748L10.9989 27.1557L26.5607 11.6048L25.1541 10.1971Z" fill="#161617"/>
<path d="M34.34 2.40959C33.7775 1.84778 33.015 1.53223 32.22 1.53223C31.425 1.53223 30.6625 1.84778 30.1 2.40959L29.39 3.11959L28.68 3.82959C28.4937 4.01695 28.3892 4.2704 28.3892 4.53459C28.3892 4.79877 28.4937 5.05222 28.68 5.23959L31.51 8.06959C31.6034 8.16227 31.7142 8.23559 31.836 8.28536C31.9579 8.33512 32.0883 8.36035 32.22 8.35959C32.4823 8.35848 32.7337 8.25433 32.92 8.06959L33.6 7.39959L34.34 6.65959C34.6196 6.38088 34.8415 6.0497 34.993 5.68504C35.1444 5.32039 35.2223 4.92943 35.2223 4.53459C35.2223 4.13974 35.1444 3.74879 34.993 3.38413C34.8415 3.01948 34.6196 2.6883 34.34 2.40959ZM30.8 4.52959L31.51 3.82959C31.5996 3.7249 31.7099 3.63988 31.834 3.57986C31.958 3.51984 32.0932 3.48611 32.2309 3.48079C32.3686 3.47547 32.506 3.49867 32.6343 3.54895C32.7626 3.59922 32.8791 3.67548 32.9766 3.77294C33.0741 3.87039 33.1503 3.98694 33.2006 4.11526C33.2509 4.24359 33.2741 4.38092 33.2688 4.51864C33.2634 4.65636 33.2297 4.79149 33.1697 4.91556C33.1097 5.03962 33.0246 5.14994 32.92 5.23959L32.22 5.94959L30.8 4.52959Z" fill="#161617"/>
<path opacity="0.5" d="M32.92 5.24001L32.2201 5.95001L30.8 4.53001L31.51 3.83001C31.5997 3.72533 31.71 3.64031 31.8341 3.58029C31.9581 3.52026 32.0933 3.48653 32.231 3.48121C32.3687 3.47589 32.506 3.4991 32.6344 3.54937C32.7627 3.59965 32.8792 3.67591 32.9767 3.77336C33.0742 3.87082 33.1504 3.98736 33.2007 4.11569C33.251 4.24401 33.2742 4.38135 33.2688 4.51907C33.2635 4.65678 33.2298 4.79192 33.1698 4.91598C33.1098 5.04005 33.0247 5.15036 32.92 5.24001Z" fill="#161617"/>
<path d="M51.71 49.3198L50 47.6098L48 45.6098L44 41.6098V40.9998C44.015 40.72 44.015 40.4396 44 40.1598C43.9888 39.9249 43.962 39.6911 43.92 39.4598C43.9082 39.369 43.8915 39.2788 43.87 39.1898C43.7753 38.6836 43.6415 38.1854 43.47 37.6998C43.39 37.4731 43.3 37.2431 43.2 37.0098C42.4972 35.3738 41.3704 33.9551 39.9358 32.9003C38.5013 31.8455 36.8112 31.1928 35.04 31.0098C35.04 29.4185 34.4079 27.8924 33.2827 26.7671C32.1574 25.6419 30.6313 25.0098 29.04 25.0098C28.9084 25.009 28.778 25.0342 28.6561 25.084C28.5343 25.1338 28.4235 25.2071 28.33 25.2998L25.59 27.9998H21C20.8684 27.999 20.738 28.0242 20.6161 28.074C20.4943 28.1238 20.3835 28.1971 20.29 28.2898L14.57 33.9998C13.0544 34.1087 11.6365 34.7886 10.6027 35.9022C9.56889 37.0158 8.99611 38.4803 9.00002 39.9998V43.9998C8.99964 44.1872 9.05195 44.371 9.15096 44.5301C9.24998 44.6892 9.39172 44.8173 9.56002 44.8998C9.7207 44.9729 9.89786 45.0021 10.0735 44.9845C10.2491 44.967 10.417 44.9032 10.56 44.7998C11.1229 44.3685 11.7945 44.1019 12.5 44.0298L16.18 48.6198C16.2773 48.743 16.4022 48.8417 16.5446 48.9077C16.6871 48.9737 16.8431 49.0053 17 48.9998C17.5305 48.9998 18.0392 49.2105 18.4142 49.5856C18.7893 49.9606 19 50.4693 19 50.9998C19 51.265 19.1054 51.5194 19.2929 51.7069C19.4804 51.8944 19.7348 51.9998 20 51.9998C20.173 51.9847 20.347 51.9847 20.52 51.9998C20.6457 52.0191 20.7695 52.0492 20.89 52.0898C21.0523 52.1383 21.2096 52.202 21.36 52.2798C21.4889 52.3434 21.6126 52.417 21.73 52.4998C21.9934 52.6899 22.2261 52.9192 22.42 53.1798C22.499 53.2893 22.5725 53.4028 22.64 53.5198C22.6917 53.6159 22.7352 53.7163 22.77 53.8198C22.7755 53.8428 22.7755 53.8668 22.77 53.8898C22.7744 53.9095 22.7744 53.93 22.77 53.9498C22.9145 54.2814 22.9926 54.6381 23 54.9998C23 55.265 23.1054 55.5194 23.2929 55.7069C23.4804 55.8944 23.7348 55.9998 24 55.9998H51C51.2652 55.9998 51.5196 55.8944 51.7071 55.7069C51.8947 55.5194 52 55.265 52 54.9998V49.9998C51.9938 49.7444 51.89 49.5011 51.71 49.3198ZM24.9 53.9998L24.81 53.6298L24.69 53.2598C24.5815 52.9848 24.4546 52.7176 24.31 52.4598C24.2392 52.3426 24.1625 52.2291 24.08 52.1198C24.0055 52.0065 23.9219 51.8995 23.83 51.7998C23.7407 51.6805 23.6403 51.57 23.53 51.4698C23.435 51.3681 23.3349 51.2713 23.23 51.1798C23.0442 51.0221 22.847 50.8784 22.64 50.7498L22.46 50.6398L22.15 50.4798L21.77 50.3198C21.4892 50.2096 21.1976 50.1291 20.9 50.0798C20.7047 49.2973 20.2775 48.5921 19.6743 48.0567C19.0711 47.5213 18.3202 47.1808 17.52 47.0798L13.79 42.4298C13.7011 42.3014 13.5833 42.1956 13.4461 42.1209C13.3089 42.0463 13.1561 42.0048 13 41.9998C12.6647 42.0003 12.33 42.0304 12 42.0898L11.51 42.1898C11.344 42.2306 11.1804 42.2807 11.02 42.3398V39.9998C11.02 38.9389 11.4414 37.9215 12.1916 37.1714C12.9417 36.4212 13.9592 35.9998 15.02 35.9998C15.1516 36.0005 15.2821 35.9753 15.4039 35.9256C15.5258 35.8758 15.6366 35.8025 15.73 35.7098L21.41 29.9998H26C26.1316 30.0005 26.2621 29.9753 26.3839 29.9256C26.5058 29.8758 26.6166 29.8025 26.71 29.7098L29.4 27.0198C30.3867 27.1189 31.3013 27.5811 31.9665 28.3165C32.6317 29.0519 33 30.0082 33 30.9998V31.9998C33 32.265 33.1054 32.5194 33.2929 32.7069C33.4804 32.8944 33.7348 32.9998 34 32.9998C36.1218 32.9998 38.1566 33.8426 39.6569 35.3429C41.1572 36.8432 42 38.8781 42 40.9998V41.9998C41.9993 42.1314 42.0245 42.2619 42.0742 42.3837C42.124 42.5055 42.1973 42.6163 42.29 42.7098L48.29 48.7098H48.35L50 50.4398V53.9998H24.9Z" fill="#161617"/>
<path opacity="0.5" d="M48.35 48.79H48.29L42.29 42.79C42.1872 42.6873 42.1079 42.5634 42.0579 42.427C42.0078 42.2906 41.988 42.1448 42 42V41C42 38.8783 41.1571 36.8434 39.6569 35.3431C38.1566 33.8429 36.1217 33 34 33C33.7348 33 33.4804 32.8946 33.2929 32.7071C33.1054 32.5196 33 32.2652 33 32V31C33.005 30.0049 32.6389 29.0437 31.9732 28.3041C31.3076 27.5645 30.3901 27.0995 29.4 27L26.71 29.69C26.6182 29.7863 26.5082 29.8633 26.3862 29.9165C26.2643 29.9698 26.133 29.9982 26 30H21.41L15.71 35.71C15.6166 35.8027 15.5057 35.876 15.3839 35.9258C15.2621 35.9755 15.1316 36.0008 15 36C13.9391 36 12.9217 36.4214 12.1716 37.1716C11.4214 37.9217 11 38.9391 11 40V42.34C11.1604 42.2809 11.324 42.2308 11.49 42.19C11.651 42.1461 11.8147 42.1127 11.98 42.09C12.3166 42.0294 12.658 41.9993 13 42C13.1502 42.0007 13.2983 42.0352 13.4334 42.101C13.5684 42.1668 13.6869 42.2621 13.78 42.38L17.51 47.03C18.3102 47.131 19.0611 47.4715 19.6643 48.0069C20.2675 48.5423 20.6947 49.2475 20.89 50.03C21.1876 50.0793 21.4792 50.1598 21.76 50.27L22.14 50.43L22.45 50.59L22.63 50.7C22.837 50.8286 23.0342 50.9723 23.22 51.13C23.3248 51.2215 23.425 51.3183 23.52 51.42C23.6302 51.5202 23.7307 51.6307 23.82 51.75C23.9148 51.8472 23.9987 51.9545 24.07 52.07C24.1524 52.1793 24.2292 52.2928 24.3 52.41C24.4446 52.6678 24.5715 52.9351 24.68 53.21L24.8 53.58L24.89 53.95H50V50.44L48.35 48.79ZM30 48V49C30 49.2652 29.8946 49.5196 29.7071 49.7071C29.5196 49.8946 29.2652 50 29 50C28.7348 50 28.4804 49.8946 28.2929 49.7071C28.1054 49.5196 28 49.2652 28 49V48H27V49C27 49.2652 26.8946 49.5196 26.7071 49.7071C26.5196 49.8946 26.2652 50 26 50C25.7348 50 25.4804 49.8946 25.2929 49.7071C25.1054 49.5196 25 49.2652 25 49V48H24C23.7348 48 23.4804 47.8946 23.2929 47.7071C23.1054 47.5196 23 47.2652 23 47C23 46.7348 23.1054 46.4804 23.2929 46.2929C23.4804 46.1054 23.7348 46 24 46V40C23.7348 40 23.4804 39.8946 23.2929 39.7071C23.1054 39.5196 23 39.2652 23 39C23 38.7348 23.1054 38.4804 23.2929 38.2929C23.4804 38.1054 23.7348 38 24 38H25V37C25 36.7348 25.1054 36.4804 25.2929 36.2929C25.4804 36.1054 25.7348 36 26 36C26.2652 36 26.5196 36.1054 26.7071 36.2929C26.8946 36.4804 27 36.7348 27 37V38H28V37C28 36.7348 28.1054 36.4804 28.2929 36.2929C28.4804 36.1054 28.7348 36 29 36C29.2652 36 29.5196 36.1054 29.7071 36.2929C29.8946 36.4804 30 36.7348 30 37V38.18C30.5835 38.3863 31.089 38.7681 31.4471 39.2729C31.8051 39.7778 31.9983 40.3811 32 41C31.9988 41.5141 31.8682 42.0197 31.62 42.47C32.168 42.8192 32.5879 43.3369 32.8163 43.9453C33.0448 44.5537 33.0695 45.2198 32.8869 45.8434C32.7042 46.467 32.3239 47.0145 31.8033 47.4034C31.2827 47.7923 30.6498 48.0017 30 48Z" fill="#161617"/>
<path opacity="0.5" d="M30 41C30 41.2652 29.8946 41.5196 29.7071 41.7071C29.5196 41.8946 29.2652 42 29 42H26V40H29C29.2652 40 29.5196 40.1054 29.7071 40.2929C29.8946 40.4804 30 40.7348 30 41Z" fill="#161617"/>
<path opacity="0.5" d="M31 45C31 45.2652 30.8946 45.5196 30.7071 45.7071C30.5196 45.8946 30.2652 46 30 46H26V44H30C30.2652 44 30.5196 44.1054 30.7071 44.2929C30.8946 44.4804 31 44.7348 31 45Z" fill="#161617"/>
<path d="M48.0001 39.0897C47.3717 38.4385 46.6204 37.9184 45.7895 37.5597C44.9587 37.2009 44.065 37.0106 43.1601 36.9997H43.0001C42.787 36.9845 42.5732 36.9845 42.3601 36.9997C42.2127 37.0196 42.0716 37.0721 41.947 37.1534C41.8224 37.2347 41.7176 37.3427 41.6401 37.4697C41.5632 37.5959 41.5153 37.7376 41.4997 37.8846C41.4841 38.0316 41.5013 38.1802 41.5501 38.3197C41.8534 39.1804 42.0056 40.0871 42.0001 40.9997V41.9997C41.9993 42.1313 42.0246 42.2618 42.0743 42.3836C42.1241 42.5054 42.1974 42.6163 42.2901 42.7097L48.2901 48.7097H48.3501C48.5239 48.8828 48.7552 48.986 49.0001 48.9997C49.1313 49.0031 49.2614 48.9757 49.3801 48.9197C49.5627 48.8447 49.719 48.7173 49.8294 48.5536C49.9397 48.3898 49.9991 48.1971 50.0001 47.9997V43.9997C50.0075 43.0898 49.8345 42.1874 49.4913 41.3446C49.148 40.5019 48.6412 39.7355 48.0001 39.0897ZM44.0001 41.6197V40.9997C44.015 40.7199 44.015 40.4395 44.0001 40.1597C43.9888 39.9249 43.9621 39.691 43.9201 39.4597C43.9083 39.3689 43.8916 39.2787 43.8701 39.1897C43.8749 39.1465 43.8749 39.1029 43.8701 39.0597C45.0301 39.2647 46.0805 39.8726 46.8361 40.7764C47.5917 41.6802 48.0039 42.8217 48.0001 43.9997V45.5897L44.0001 41.6197Z" fill="#161617"/>
<path d="M24.9 54L24.81 53.63L24.69 53.26C24.5815 52.9851 24.4546 52.7178 24.31 52.46C24.2392 52.3428 24.1624 52.2293 24.08 52.12C24.0054 52.0068 23.9218 51.8997 23.83 51.8C23.7407 51.6807 23.6402 51.5702 23.53 51.47C23.435 51.3683 23.3348 51.2715 23.23 51.18C23.0442 51.0223 22.847 50.8786 22.64 50.75L22.46 50.64L22.15 50.48L21.77 50.32C21.4892 50.2098 21.1976 50.1293 20.9 50.08C20.7047 49.2975 20.2775 48.5923 19.6743 48.0569C19.0711 47.5215 18.3202 47.181 17.52 47.08L13.79 42.43C13.701 42.3016 13.5833 42.1958 13.4461 42.1212C13.3089 42.0465 13.1561 42.005 13 42C12.6647 42.0005 12.33 42.0306 12 42.09L11.51 42.19C11.344 42.2308 11.1804 42.2809 11.02 42.34C10.4455 42.5424 9.90574 42.8325 9.42 43.2L9.02 43.54C7.98153 44.4697 7.29914 45.7319 7.09 47.11C6.21186 47.3152 5.4288 47.811 4.8679 48.5171C4.30699 49.2233 4.00115 50.0982 4 51V55C4 55.2652 4.10536 55.5196 4.29289 55.7071C4.48043 55.8946 4.73478 56 5 56H24C24.2652 56 24.5196 55.8946 24.7071 55.7071C24.8946 55.5196 25 55.2652 25 55C25.0019 54.6641 24.9684 54.3289 24.9 54ZM6 54V51C6 50.4696 6.21071 49.9609 6.58579 49.5858C6.96086 49.2107 7.46957 49 8 49C8.26522 49 8.51957 48.8946 8.70711 48.7071C8.89464 48.5196 9 48.2652 9 48C9 47.379 9.14458 46.7666 9.42229 46.2111C9.7 45.6557 10.1032 45.1726 10.6 44.8C11.1629 44.3687 11.8345 44.1021 12.54 44.03L16.22 48.62C16.3131 48.7379 16.4316 48.8332 16.5666 48.899C16.7017 48.9648 16.8498 48.9993 17 49C17.5304 49 18.0391 49.2107 18.4142 49.5858C18.7893 49.9609 19 50.4696 19 51C19 51.2652 19.1054 51.5196 19.2929 51.7071C19.4804 51.8946 19.7348 52 20 52C20.173 51.9849 20.347 51.9849 20.52 52C20.6457 52.0193 20.7695 52.0495 20.89 52.09C21.0522 52.1386 21.2096 52.2022 21.36 52.28C21.4889 52.3436 21.6126 52.4172 21.73 52.5C21.9934 52.6901 22.2261 52.9194 22.42 53.18C22.499 53.2895 22.5725 53.403 22.64 53.52C22.6917 53.6162 22.7352 53.7165 22.77 53.82C22.7755 53.843 22.7755 53.867 22.77 53.89V53.95L6 54Z" fill="#161617"/>
</g>
<defs>
<clipPath id="clip0_270_1975">
<rect width="56" height="56.03" fill="white"/>
</clipPath>
</defs>
</svg>
