<svg width="180" height="22" viewBox="0 0 180 22" fill="none" xmlns="http://www.w3.org/2000/svg">
<g clip-path="url(#clip0_287_1609)">
<path d="M9.35263 6.77633C9.35263 3.62031 7.82451 0.899809 6.65911 0.0108731C6.65911 0.0108731 6.56992 -0.042821 6.58181 0.0884312C6.47478 6.21552 3.37694 7.84424 1.67045 10.0696C-0.927934 13.2793 -0.440366 17.9865 2.75261 20.5876C3.45424 21.1604 4.25694 21.6019 5.1191 21.8823C7.20613 22.4669 4.63154 20.8561 4.30451 17.4495C3.90613 13.3091 9.35263 10.1889 9.35263 6.77633Z" fill="#898990"/>
<path d="M11.394 8.87738C11.3762 8.85352 11.3465 8.84755 11.3227 8.85948C11.3167 8.86545 11.3108 8.87141 11.3048 8.87738C10.9124 10.2973 10.2465 11.6337 9.34271 12.7971C5.7573 17.9099 7.80866 20.3739 8.95623 21.6625C9.61623 22.4322 8.95623 21.6625 10.627 20.875C12.6367 19.7475 13.9746 17.713 14.2124 15.4161C14.3967 12.9044 13.3443 10.4643 11.394 8.87738Z" fill="#898990"/>
<path d="M73.5203 8.42843C74.4332 8.42843 75.1732 7.68587 75.1732 6.76988C75.1732 5.85389 74.4332 5.11133 73.5203 5.11133C72.6075 5.11133 71.8674 5.85389 71.8674 6.76988C71.8674 7.68587 72.6075 8.42843 73.5203 8.42843Z" fill="#898990"/>
<path d="M27.8563 5.13086V11.5384H21.5178V5.9661C21.5178 5.50672 21.1432 5.13086 20.6854 5.13086H18.533V20.4456C18.527 20.905 18.8957 21.2809 19.3535 21.2868H21.5595V14.1336H27.8919V20.4516C27.8919 20.911 28.2665 21.2868 28.7244 21.2868H30.8649V5.9661C30.8649 5.50672 30.4903 5.13086 30.0325 5.13086H27.8563ZM40.4261 9.13405V16.8123C40.432 17.5103 40.0693 18.1606 39.4747 18.5246C38.446 19.1927 37.0725 18.8944 36.4125 17.8623C36.1866 17.5103 36.0617 17.0987 36.0617 16.6811V9.96929C36.0617 9.50991 35.6871 9.13405 35.2293 9.13405H33.0887V16.9436C33.1006 19.4612 35.1282 21.4956 37.6374 21.5076H38.8504C41.3596 21.4956 43.3872 19.4612 43.399 16.9436V9.96929C43.399 9.50991 43.0244 9.13405 42.5666 9.13405H40.4261Z" fill="#898990"/>
<path d="M72.8678 21.2836H75.0085V10.4075C75.0085 9.94813 74.6338 9.57227 74.176 9.57227H72.0472V20.4364C72.0413 20.9018 72.4099 21.2776 72.8678 21.2836Z" fill="#898990"/>
<path d="M51.0706 9.126C48.0857 8.98878 45.5587 11.3036 45.4219 14.2926C45.4219 14.3403 45.416 14.394 45.416 14.4418V16.1242C45.4635 19.1131 47.9252 21.4995 50.9041 21.4458C50.9576 21.4458 51.0171 21.4458 51.0706 21.4399C54.0495 21.5831 56.5766 19.2742 56.7193 16.2912C56.7193 16.2375 56.7252 16.1779 56.7252 16.1242V14.4418C56.6717 11.4468 54.2041 9.06634 51.2192 9.12003C51.1657 9.12003 51.1182 9.126 51.0706 9.126ZM53.7165 16.3688C53.7165 17.8543 52.5155 19.0535 51.0409 19.0535C49.5663 19.0535 48.3652 17.8483 48.3652 16.3688V14.2687C48.3652 12.7832 49.5663 11.584 51.0409 11.584C52.5155 11.584 53.7165 12.7892 53.7165 14.2687V16.3688Z" fill="#898990"/>
<path d="M64.3858 9.12581C63.4701 9.12581 62.5604 9.33462 61.7339 9.74031V5.98172C61.7339 5.52234 61.3593 5.14648 60.9014 5.14648H58.7312V16.1717C58.7787 19.1606 61.2404 21.5471 64.2193 21.4934C64.2728 21.4934 64.3323 21.4934 64.3858 21.4874C67.3647 21.6306 69.8917 19.3217 70.0344 16.3387C70.0344 16.285 70.0404 16.2254 70.0404 16.1717V14.4893C70.0107 11.4943 67.5669 9.09001 64.576 9.11984C64.5106 9.11984 64.4512 9.11984 64.3858 9.12581ZM67.0377 16.3686C67.0377 17.8541 65.8366 19.0533 64.362 19.0533C62.8814 19.0533 61.6863 17.8481 61.6863 16.3686V14.2685C61.6863 12.783 62.8874 11.5838 64.362 11.5838C65.8425 11.5838 67.0377 12.7889 67.0377 14.2685V16.3686Z" fill="#898990"/>
<path d="M122.063 8.97607C121.148 8.97607 120.238 9.18488 119.411 9.59056V5.83198C119.411 5.3726 119.037 4.99674 118.579 4.99674H116.438V16.0219C116.486 19.0109 118.948 21.3973 121.926 21.3436C121.98 21.3436 122.039 21.3436 122.093 21.3376C125.072 21.4808 127.599 19.172 127.742 16.189C127.742 16.1353 127.748 16.0756 127.748 16.0219V14.3395C127.718 11.3446 125.274 8.94027 122.289 8.9701C122.218 8.9701 122.14 8.9701 122.063 8.97607ZM124.715 16.2128C124.715 17.6984 123.514 18.8975 122.039 18.8975C120.559 18.8975 119.364 17.6924 119.364 16.2128V14.1128C119.364 12.6273 120.565 11.4281 122.039 11.4281C123.52 11.4281 124.715 12.6332 124.715 14.1128V16.2128ZM94.1943 11.5952H88.391V13.1821C88.391 13.6713 88.7894 14.071 89.277 14.071H92.0359V15.4731C92.0776 16.3083 91.7862 17.1256 91.2213 17.7401C89.824 19.0586 87.6597 19.1243 86.1851 17.8893C85.4002 17.1197 85.2337 16.2785 85.2337 13.1642C85.2337 10.05 85.4002 9.22664 86.1851 8.45702C86.9283 7.82463 87.8619 7.47263 88.837 7.45473C92.0062 7.45473 93.0705 8.58231 93.8614 9.60846H93.9684V7.35928C93.9684 7.01325 93.8138 6.68512 93.5462 6.47034C92.2203 5.40839 90.8943 5.01464 88.617 5.01464C86.8748 4.96094 85.1862 5.58141 83.8899 6.75074C82.124 8.32577 82.124 10.1215 82.124 13.0688V13.3014C82.124 16.2546 82.124 18.0444 83.8899 19.6194C86.6548 21.9939 90.7516 21.9462 93.457 19.5061C94.5868 18.4143 95.0446 16.3262 95.0446 14.1904V12.4185C95.0089 11.971 94.6462 11.6131 94.1943 11.5952ZM102.768 21.284V19.4047C102.768 18.9572 102.406 18.5992 101.966 18.5992H100.473C99.2544 18.5992 99.3138 17.9847 99.3138 16.4038V5.76635C99.3138 5.3189 98.9511 4.96094 98.5111 4.96094H96.323V16.7736C96.323 19.6254 97.0544 21.2959 100.122 21.2959H102.774L102.768 21.284ZM147.381 21.3555V19.4703C147.399 19.0228 147.06 18.647 146.614 18.6291C146.608 18.6291 146.608 18.6291 146.602 18.6291H145.11C143.891 18.6291 143.95 18.0146 143.95 16.4336V5.86181C143.95 5.41436 143.588 5.0564 143.148 5.0564H140.96V16.8512C140.96 19.703 141.691 21.3734 144.759 21.3734H147.411L147.381 21.3555ZM109.499 8.95817C106.514 8.82095 103.987 11.1358 103.851 14.1247C103.851 14.1725 103.845 14.2262 103.845 14.2739V15.9682C103.892 18.9572 106.354 21.3436 109.333 21.2899C109.386 21.2899 109.446 21.2899 109.499 21.284C112.478 21.4271 115.005 19.1183 115.148 16.1353C115.148 16.0816 115.154 16.0219 115.154 15.9682V14.2858C115.106 11.2909 112.645 8.90447 109.66 8.9522C109.606 8.9522 109.553 8.9522 109.499 8.95817ZM112.151 16.1949C112.151 17.6805 110.95 18.8796 109.476 18.8796C107.995 18.8796 106.8 17.6745 106.8 16.1949V14.083C106.8 12.5974 108.001 11.3983 109.476 11.3983C110.956 11.3983 112.151 12.6034 112.151 14.083V16.1949ZM138.07 10.044C136.946 9.2684 135.596 8.88658 134.235 8.9701C133.587 8.9701 132.932 9.01783 132.29 9.10135C131.749 9.17294 130.994 9.28033 130.471 9.39369C130.257 9.44738 130.215 9.61443 130.215 9.81131V11.4162C130.215 11.7025 130.215 11.965 130.524 11.8875C131.089 11.7443 132.183 11.5057 132.475 11.452C132.98 11.3744 133.485 11.3326 133.997 11.3386C134.657 11.2909 135.323 11.446 135.894 11.7801C136.345 12.1679 136.571 12.7645 136.494 13.3551V13.4446H134.71C134.021 13.4446 133.331 13.5222 132.659 13.6833C132.035 13.8324 131.434 14.0889 130.893 14.435C130.388 14.7631 129.965 15.1986 129.656 15.7177C129.347 16.2546 129.192 16.8691 129.198 17.4896C129.181 18.1041 129.317 18.7126 129.585 19.2615C129.846 19.7507 130.233 20.1683 130.697 20.4785C131.238 20.8186 131.838 21.0513 132.463 21.1587C133.188 21.3018 133.925 21.3675 134.663 21.3615C135.245 21.3615 139.479 21.3019 139.479 19.2853V13.4506C139.574 12.1679 139.051 10.9031 138.07 10.044ZM136.458 15.7714V18.8796C136.227 18.9214 135.971 18.9572 135.697 18.987C135.031 19.0527 134.365 19.0527 133.7 18.987C133.438 18.9632 133.176 18.8916 132.938 18.7723C132.718 18.6589 132.528 18.4978 132.391 18.295C132.231 18.0265 132.159 17.7163 132.177 17.406C132.142 16.887 132.385 16.3859 132.82 16.1055C133.462 15.7594 134.187 15.6043 134.912 15.652H135.798L136.458 15.7714Z" fill="#898990"/>
</g>
<defs>
<clipPath id="clip0_287_1609">
<rect width="180" height="22" fill="white"/>
</clipPath>
</defs>
</svg>
