<svg width="57" height="57" viewBox="0 0 57 57" fill="none" xmlns="http://www.w3.org/2000/svg">
<path opacity="0.2" d="M43.1886 42.3111C35.5609 50.4234 22.801 50.8163 14.6887 43.1886C6.57633 35.5609 6.18345 22.8011 13.8112 14.6887C21.4389 6.57636 34.1987 6.18348 42.311 13.8112C50.4234 21.4389 50.8163 34.1987 43.1886 42.3111Z" fill="#F70000"/>
<path fill-rule="evenodd" clip-rule="evenodd" d="M44.0482 26.5043L26.1694 26.6419L27.1388 44.6664L20.9524 21.8127L44.0482 26.5043ZM28.6845 31.4738L28.6951 31.4624L28.3886 28.6217L31.3288 28.6614L28.6951 31.4624L28.6977 31.4862L28.6845 31.4738ZM36.3758 28.4879L28.7591 36.5886L28.6334 33.3774L33.2285 28.5322L36.3559 28.4686L36.3758 28.4879Z" fill="#F70000"/>
</svg>
