<svg width="381" height="558" viewBox="0 0 381 558" fill="none" xmlns="http://www.w3.org/2000/svg">
<g opacity="0.5">
<path d="M68.5 556.5L160.5 520L86 451L68.5 556.5ZM68.5 556.5L1 480L82.5 449.5L68.5 369L73 321.5" stroke="white" stroke-opacity="0.4"/>
<path d="M180.5 296L151 220" stroke="white" stroke-opacity="0.4"/>
<path d="M143 360.5L72 322.5M143 360.5L180.5 295.5M143 360.5L232.5 311" stroke="white" stroke-opacity="0.4"/>
<path d="M233 314L179.5 296" stroke="white" stroke-opacity="0.4"/>
<path opacity="0.3" d="M300 175.5V46L376 158L248 117M248 117L263 1L376 10M248 117L151.5 218.5M151.5 218.5L232.5 311M151.5 218.5L72 321L180 294.5" stroke="white" stroke-opacity="0.4"/>
<path opacity="0.4" d="M374.5 11L301 46M301 46L247.5 118L301 173.5L374.5 160M301 46L262 1.5" stroke="white"/>
<path opacity="0.2" d="M141 360L86 449.5L72 321.5M141 360L229 350.5M141 360L68 370M68 370L179 295M68 370L1.5 480" stroke="white" stroke-opacity="0.4"/>
<path opacity="0.1" d="M151 218.5L141.5 361.5" stroke="white" stroke-opacity="0.4"/>
<circle cx="247.5" cy="116.5" r="2.5" fill="white" fill-opacity="0.6"/>
<circle cx="151.5" cy="219.5" r="2.5" fill="white" fill-opacity="0.6"/>
<circle cx="180.5" cy="295.5" r="2.5" fill="white" fill-opacity="0.9"/>
<path d="M144 360C144 360.552 143.552 361 143 361C142.448 361 142 360.552 142 360C142 359.448 142.448 359 143 359C143.552 359 144 359.448 144 360Z" fill="white" fill-opacity="0.9"/>
<circle opacity="0.7" cx="232" cy="312" r="4" fill="white" fill-opacity="0.9"/>
<circle opacity="0.8" cx="85" cy="450" r="4" fill="white" fill-opacity="0.9"/>
<circle opacity="0.8" cx="160.5" cy="519.5" r="1.5" fill="white" fill-opacity="0.9"/>
<circle opacity="0.8" cx="68.5" cy="556.5" r="1.5" fill="white" fill-opacity="0.9"/>
<circle opacity="0.8" cx="1.5" cy="479.5" r="1.5" fill="white" fill-opacity="0.9"/>
<circle opacity="0.8" cx="72.5" cy="320.5" r="1.5" fill="white" fill-opacity="0.9"/>
<circle cx="300.5" cy="46.5" r="2.5" fill="white" fill-opacity="0.8"/>
<circle cx="263" cy="2" r="2" fill="white" fill-opacity="0.8"/>
<circle cx="375" cy="10" r="2" fill="white" fill-opacity="0.8"/>
<circle opacity="0.6" cx="376" cy="158" r="5" fill="#C4C4C4"/>
</g>
</svg>
