<svg width="182" height="29" viewBox="0 0 182 29" fill="none" xmlns="http://www.w3.org/2000/svg">
	<g clip-path="url(#clip0_56_709)">
		<path d="M29.2779 10.2901C24.1565 10.3795 20.2221 14.3063 20.3123 19.4695C20.4024 24.6328 24.3697 28.3886 29.5922 28.2975C34.8147 28.2063 38.7152 24.2471 38.6257 19.1168C38.5367 14.0196 34.5683 10.1978 29.2779 10.2901ZM29.5619 24.5757C26.6454 24.6266 24.469 22.4169 24.4163 19.3991C24.3631 16.3471 26.4265 14.0647 29.3429 14.0137C32.294 13.9622 34.4696 16.205 34.5223 19.2227C34.575 22.2405 32.4783 24.5248 29.5619 24.5757ZM39.6558 14.0344L42.1999 13.99L42.4398 27.7392L46.5093 27.6681L46.2067 10.3299L39.5932 10.4453L39.6558 14.0344ZM9.97824 14.3505C12.1154 14.3132 13.8339 15.5912 14.5114 17.5249L18.819 17.4497C17.9658 13.3056 14.4576 10.5488 9.94786 10.6275C4.82644 10.7169 0.892074 14.6437 0.982221 19.8082C1.07237 24.9727 5.0397 28.7272 10.2622 28.6361C14.6708 28.5591 18.1485 25.6805 18.8559 21.4748L14.5817 21.5494C14.0052 23.505 12.333 24.8765 10.1959 24.9138C7.24488 24.9653 5.13767 22.7543 5.085 19.7366C5.03302 16.6845 7.02849 14.4019 9.97824 14.3505ZM117.038 16.1049L114.046 15.7214C112.619 15.5457 111.593 15.0938 111.573 13.9867C111.552 12.7794 112.866 12.1532 114.662 12.1218C116.629 12.0875 117.9 12.9036 118.194 14.2737L122.128 14.2051C121.626 10.7253 118.877 8.72746 114.706 8.80025C110.399 8.87544 107.589 11.1049 107.642 14.19C107.694 17.1404 109.589 18.8192 113.362 19.2892L116.354 19.6726C117.817 19.8478 118.641 20.4049 118.659 21.4776C118.683 22.8525 117.269 23.4475 115.302 23.4818C112.894 23.5238 111.52 22.575 111.291 21.1033L107.289 21.1732C107.722 24.5538 110.442 26.8874 115.326 26.8022C119.769 26.7246 122.683 24.6609 122.623 21.2065C122.569 18.1214 120.406 16.549 117.038 16.1049ZM44.0473 3.22287C42.5551 3.24892 41.4541 4.3412 41.4799 5.81648C41.5056 7.29165 42.6428 8.34497 44.1363 8.3189C45.6284 8.29285 46.7294 7.20047 46.7037 5.7253C46.6779 4.25002 45.5395 3.19683 44.0473 3.22287ZM103.998 15.2593C103.932 11.504 101.581 9.02935 96.6982 9.11459C92.0859 9.1951 89.5497 11.5544 89.1018 15.1181L93.1382 15.0476C93.3181 13.6692 94.3831 12.5101 96.6887 12.4699C98.7584 12.4337 99.7921 13.3212 99.8114 14.4283C99.8366 15.8704 97.9763 16.2712 95.6747 16.5463C92.561 16.9359 88.7134 18.0762 88.7836 22.1007C88.838 25.2199 91.2138 27.1901 94.9442 27.1249C97.8608 27.074 99.6704 25.8348 100.554 23.9069C100.72 25.6145 102.027 26.6991 103.826 26.6677L106.199 26.6262L106.137 23.0385L104.135 23.0734L103.999 15.2593L103.998 15.2593ZM100.072 19.6888C100.113 22.0033 98.1068 23.7488 95.6312 23.792C94.1044 23.8187 92.8045 23.2039 92.7811 21.8633C92.7512 20.1532 94.8127 19.6473 96.7079 19.4136C98.5367 19.214 99.5465 18.7939 100.043 18.0131L100.072 19.6888ZM78.2829 9.43473C76.0103 9.4744 74.128 10.447 72.7987 12.0462L72.633 2.55629L68.5637 2.62732L68.9939 27.2757L72.9953 27.2058L72.9555 24.9258C74.341 26.5448 76.2916 27.4835 78.5973 27.4433C83.4815 27.358 87.1113 23.4709 87.0211 18.3064C86.931 13.1419 83.0992 9.35066 78.2829 9.43473ZM77.9224 23.7316C75.0059 23.7825 72.83 21.5727 72.7773 18.555C72.7246 15.5373 74.8545 13.2193 77.771 13.1684C80.7226 13.1169 82.8295 15.3279 82.8827 18.3786C82.9354 21.3964 80.839 23.6807 77.9224 23.7316ZM58.9519 9.77215C56.3063 9.81833 54.5953 10.9213 53.6048 12.4486L53.5656 10.2014L49.5292 10.2719L49.8318 27.6089L53.9012 27.5379L53.7367 18.1152C53.6905 15.4656 55.3534 13.5584 57.863 13.5146C60.2037 13.4738 61.6891 15.0911 61.7307 17.4728L61.904 27.3994L65.9734 27.3284L65.7948 17.1008C65.7207 12.74 63.3952 9.6946 58.9519 9.77215ZM141.951 16.7774C141.864 11.8146 138.141 8.3912 133.223 8.47705C128 8.56821 124.236 12.525 124.325 17.6552C124.42 23.0546 128.586 26.5707 133.605 26.4831C137.844 26.4091 141.124 23.8692 141.911 20.3339L137.67 20.4079C137.088 21.9611 135.61 22.8593 133.609 22.8942C130.997 22.9398 129.002 21.3644 128.513 18.5549L141.977 18.3199L141.95 16.7774L141.951 16.7774ZM128.7 15.6664C129.303 13.2404 131.113 12.0354 133.216 11.9987C135.523 11.9584 137.308 13.2353 137.755 15.5083L128.7 15.6664Z" fill="#161617" />
	</g>
	<defs>
		<clipPath id="clip0_56_709">
			<rect width="180" height="25" fill="white" transform="translate(0.691498 3.15302) rotate(-1)" />
		</clipPath>
	</defs>
</svg>
