<svg width="182" height="26" viewBox="0 0 182 26" fill="none" xmlns="http://www.w3.org/2000/svg">
	<g clip-path="url(#clip0_56_712)">
		<path d="M10.1462 10.5702C10.0911 7.41466 8.51572 4.72125 7.33498 3.85278C7.33498 3.85278 7.24487 3.80065 7.25905 3.93168C7.25897 10.0597 4.19002 11.7422 2.52263 13.997C-0.0193399 17.2516 0.550306 21.9496 3.78819 24.4946C4.49971 25.055 5.30999 25.4824 6.17692 25.7478C8.27383 26.2958 5.67152 24.7302 5.28509 21.3298C4.81451 17.197 10.2057 13.9823 10.1462 10.5702Z" fill="#161617" />
		<path d="M12.2241 12.6348C12.2059 12.6113 12.1761 12.6058 12.1525 12.6182C12.1466 12.6242 12.1408 12.6303 12.1349 12.6364C11.7673 14.0629 11.1249 15.4107 10.2415 16.5897C6.74585 21.7643 8.8399 24.1922 10.0098 25.4605C10.6831 26.2186 10.0098 25.4605 11.6666 24.644C13.6563 23.4816 14.9585 21.4241 15.1562 19.1234C15.2966 16.6088 14.2018 14.1875 12.2241 12.6348Z" fill="#161617" />
		<path d="M74.333 11.1013C75.2457 11.0854 75.9727 10.3301 75.9567 9.4142C75.9407 8.49835 75.1878 7.76882 74.2751 7.78475C73.3624 7.80068 72.6354 8.55605 72.6514 9.4719C72.6674 10.3877 73.4203 11.1173 74.333 11.1013Z" fill="#161617" />
		<path d="M28.6182 8.60175L28.73 15.0083L22.3925 15.1189L22.2953 9.54748C22.2872 9.08817 21.9061 8.71891 21.4484 8.7269L19.2963 8.76446L19.5636 24.0769C19.5656 24.5363 19.9408 24.9057 20.3987 24.9036L22.6043 24.8651L22.4795 17.713L28.8109 17.6025L28.9212 23.9195C28.9292 24.3789 29.3103 24.7481 29.7681 24.7401L31.9083 24.7027L31.6409 9.38436C31.6329 8.92505 31.2518 8.55578 30.7941 8.56377L28.6182 8.60175ZM41.256 12.385L41.39 20.062C41.408 20.7598 41.0568 21.4163 40.4686 21.7907C39.4517 22.4766 38.0732 22.2023 37.3953 21.1819C37.1633 20.8339 37.0312 20.4246 37.0239 20.007L36.9068 13.2962C36.8988 12.8369 36.5177 12.4677 36.06 12.4757L33.9197 12.513L34.056 20.3214C34.1118 22.8384 36.1746 24.8371 38.6836 24.8053L39.8965 24.7841C42.4051 24.7283 44.3968 22.6588 44.3647 20.1414L44.243 13.1682C44.235 12.7089 43.8539 12.3396 43.3961 12.3476L41.256 12.385Z" fill="#161617" />
		<path d="M73.9049 23.9675L76.0453 23.9301L75.8555 13.0557C75.8475 12.5964 75.4663 12.2271 75.0085 12.2351L72.8801 12.2723L73.0697 23.1347C73.0719 23.6002 73.447 23.9695 73.9049 23.9675Z" fill="#161617" />
		<path d="M51.8987 12.1909C48.9118 12.1058 46.4256 14.4644 46.341 17.4553C46.3418 17.503 46.3369 17.5568 46.3377 17.6046L46.3671 19.2867C46.4667 22.2743 48.9697 24.6174 51.9472 24.5117C52.0007 24.5108 52.0602 24.5098 52.1136 24.5029C55.0945 24.5941 57.5809 22.2415 57.6716 19.2564C57.6706 19.2027 57.6755 19.143 57.6745 19.0894L57.6452 17.4072C57.5394 14.4136 55.0307 12.0766 52.0471 12.1824C51.9937 12.1833 51.9463 12.1901 51.8987 12.1909ZM54.6706 19.3864C54.6965 20.8717 53.5166 22.0917 52.0422 22.1174C50.5679 22.1432 49.3459 20.9591 49.3201 19.4798L49.2834 17.38C49.2575 15.8948 50.4375 14.6748 51.9119 14.6491C53.3862 14.6233 54.6081 15.8074 54.6339 17.2866L54.6706 19.3864Z" fill="#161617" />
		<path d="M65.2118 11.9589C64.2963 11.9749 63.3904 12.1995 62.5711 12.6196L62.5055 8.86157C62.4975 8.40226 62.1163 8.03299 61.6585 8.04098L59.4886 8.07886L59.6811 19.1024C59.7807 22.09 62.2837 24.4332 65.2612 24.3275C65.3147 24.3266 65.3742 24.3255 65.4276 24.3186C68.4085 24.4098 70.8948 22.0571 70.9855 19.0721C70.9845 19.0184 70.9895 18.9587 70.9885 18.905L70.9592 17.2229C70.8772 14.2288 68.3918 11.8676 65.4019 11.9496C65.3365 11.9507 65.2771 11.9518 65.2118 11.9589ZM67.9897 19.1543C68.0157 20.6396 66.8357 21.8595 65.3613 21.8853C63.8809 21.9111 62.665 20.727 62.6392 19.2477L62.6025 17.1479C62.5766 15.6626 63.7566 14.4427 65.2309 14.4169C66.7112 14.3911 67.9273 15.5751 67.9531 17.0545L67.9897 19.1543Z" fill="#161617" />
		<path d="M122.878 10.8033C121.963 10.8193 121.057 11.044 120.237 11.464L120.171 7.706C120.163 7.24669 119.783 6.87741 119.325 6.88541L117.184 6.92277L117.377 17.9462C117.477 20.9339 119.98 23.277 122.957 23.1714C123.011 23.1704 123.07 23.1694 123.123 23.1624C126.105 23.2536 128.591 20.9011 128.682 17.916C128.681 17.8623 128.686 17.8025 128.685 17.7489L128.655 16.0667C128.573 13.0728 126.088 10.7115 123.104 10.7934C123.033 10.7947 122.955 10.796 122.878 10.8033ZM125.656 17.9927C125.682 19.478 124.502 20.6979 123.027 20.7237C121.547 20.7495 120.331 19.5654 120.305 18.086L120.269 15.9864C120.243 14.5011 121.423 13.2811 122.897 13.2554C124.377 13.2295 125.593 14.4136 125.619 15.893L125.656 17.9927ZM95.059 13.9084L89.2566 14.0097L89.2843 15.5964C89.2928 16.0855 89.6981 16.4782 90.1857 16.4697L92.9441 16.4215L92.9686 17.8234C93.0249 18.6577 92.7478 19.48 92.1937 20.1043C90.8196 21.447 88.6568 21.5504 87.1609 20.3413C86.3627 19.5856 86.1815 18.7474 86.1272 15.6336C86.0728 12.5198 86.2249 11.6937 86.9962 10.9105C87.7283 10.2652 88.6556 9.89701 89.6303 9.86209C92.799 9.80678 93.8828 10.9156 94.6915 11.9278L94.7985 11.9259L94.7592 9.6771C94.7532 9.33112 94.5929 9.00574 94.3216 8.79566C92.9773 7.75702 91.6447 7.38647 89.3677 7.42621C87.6248 7.40293 85.9473 8.05277 84.6716 9.24455C82.9335 10.8502 82.9648 12.6456 83.0163 15.5925L83.0203 15.825C83.0719 18.7778 83.1031 20.5673 84.8962 22.1112C87.7021 24.4371 91.7975 24.3179 94.4599 21.831C95.5705 20.7196 95.9917 18.6239 95.9545 16.4884L95.9235 14.7168C95.88 14.2699 95.5111 13.9184 95.059 13.9084ZM103.8 23.4461L103.768 21.5671C103.76 21.1197 103.392 20.768 102.952 20.7757L101.459 20.8018C100.241 20.823 100.289 20.2076 100.262 18.6269L100.076 7.99112C100.068 7.54374 99.6993 7.19217 99.2594 7.19985L97.0716 7.23803L97.2777 19.0489C97.3275 21.9002 98.088 23.5577 101.155 23.5042L103.807 23.4579L103.8 23.4461ZM148.408 22.739L148.375 20.8541C148.385 20.4063 148.04 20.0365 147.593 20.0264C147.587 20.0265 147.587 20.0265 147.581 20.0266L146.09 20.0527C144.871 20.0739 144.919 19.4585 144.892 17.8777L144.707 7.30756C144.699 6.86018 144.331 6.50859 143.891 6.51627L141.703 6.55446L141.909 18.3474C141.959 21.1988 142.719 22.8562 145.787 22.8027L148.438 22.7564L148.408 22.739ZM110.315 11.0047C107.328 10.9196 104.842 13.2782 104.758 16.269C104.759 16.3168 104.754 16.3706 104.755 16.4183L104.785 18.1123C104.884 21.1001 107.387 23.4431 110.365 23.3374C110.418 23.3365 110.478 23.3355 110.53 23.3286C113.512 23.4197 115.998 21.0672 116.089 18.0821C116.088 18.0284 116.093 17.9687 116.092 17.915L116.062 16.2328C115.962 13.2392 113.46 10.8961 110.476 10.9959C110.422 10.9969 110.369 10.9978 110.315 11.0047ZM113.093 18.194C113.119 19.6794 111.939 20.8993 110.466 20.925C108.985 20.9509 107.769 19.7668 107.743 18.2874L107.706 16.1758C107.68 14.6905 108.86 13.4706 110.335 13.4449C111.815 13.419 113.031 14.6031 113.056 16.0825L113.093 18.194ZM138.901 11.5917C137.764 10.8359 136.407 10.4777 135.048 10.5849C134.4 10.5962 133.746 10.6554 133.105 10.7501C132.566 10.8311 131.813 10.9517 131.292 11.0741C131.079 11.1316 131.04 11.2993 131.043 11.4962L131.071 13.1008C131.076 13.3871 131.081 13.6495 131.388 13.5666C131.951 13.4136 133.04 13.1559 133.331 13.0972C133.835 13.0108 134.339 12.9601 134.851 12.9572C135.51 12.898 136.179 13.0415 136.756 13.3655C137.213 13.7454 137.45 14.338 137.383 14.9298L137.385 15.0193L135.601 15.0504C134.912 15.0625 134.223 15.1521 133.554 15.3249C132.933 15.4849 132.337 15.7518 131.802 16.1073C131.302 16.4442 130.887 16.887 130.587 17.4114C130.288 17.9536 130.143 18.5707 130.16 19.191C130.154 19.8057 130.301 20.4118 130.578 20.9559C130.848 21.4405 131.242 21.8513 131.711 22.1533C132.258 22.4839 132.862 22.7061 133.489 22.8026C134.216 22.933 134.954 22.9858 135.692 22.967C136.274 22.9568 140.506 22.8233 140.471 20.807L140.369 14.9732C140.442 13.6891 139.897 12.4336 138.901 11.5917ZM137.389 17.3464L137.443 20.4541C137.213 20.4999 136.958 20.5402 136.684 20.5748C136.02 20.6521 135.354 20.6637 134.688 20.6096C134.425 20.5904 134.162 20.5234 133.922 20.4083C133.7 20.2987 133.507 20.141 133.367 19.9406C133.202 19.6749 133.125 19.366 133.137 19.0554C133.093 18.5371 133.327 18.0319 133.758 17.7439C134.393 17.3867 135.116 17.2189 135.841 17.254L136.727 17.2385L137.389 17.3464Z" fill="#161617" />
	</g>
	<defs>
		<clipPath id="clip0_56_712">
			<rect width="180" height="22" fill="white" transform="translate(0.676697 3.95813) rotate(-1)" />
		</clipPath>
	</defs>
</svg>
