<svg width="182" height="30" viewBox="0 0 182 30" fill="none" xmlns="http://www.w3.org/2000/svg">
	<g clip-path="url(#clip0_56_685)">
		<path d="M10.4968 12.6627C12.4293 12.6289 13.9945 13.1917 15.1942 14.3489C16.4126 15.5078 17.042 17.2451 17.0825 19.5628L17.2409 28.6384L12.72 28.7173L12.5739 20.3486C12.552 19.0918 12.2642 18.1636 11.7127 17.5632C11.1608 16.9447 10.3735 16.6444 9.34874 16.6623C8.20891 16.6822 7.30752 17.061 6.64359 17.7997C5.97931 18.5184 5.65952 19.5851 5.68421 20.9999L5.82104 28.8387L1.30009 28.9176L1.02334 13.0631L5.3417 12.9877L5.37411 14.8444C5.96236 14.166 6.69692 13.6411 7.5798 13.2727C8.46136 12.8842 9.43368 12.6802 10.4968 12.6617L10.4968 12.6627Z" fill="#161617" />
		<path d="M30.4633 24.959C31.2747 24.9449 31.9876 24.8144 32.6011 24.5677C33.2565 24.2862 33.8505 23.8754 34.3488 23.359L36.8006 25.9686C35.3621 27.704 33.2321 28.5953 30.4115 28.6445C28.6531 28.6752 27.0913 28.3584 25.727 27.6951C24.3624 27.0108 23.302 26.0572 22.5458 24.8322C21.7895 23.6072 21.3982 22.2088 21.3708 20.6381C21.3437 19.0853 21.6773 17.6843 22.3697 16.435C23.0589 15.1881 24.0749 14.1602 25.3045 13.4653C26.5677 12.7362 27.9906 12.3583 29.5759 12.3306C31.0639 12.3046 32.4217 12.604 33.6506 13.2316C34.8697 13.8306 35.8929 14.7748 36.5972 15.9506C37.3517 17.1356 37.7444 18.554 37.7732 20.2037L26.2769 22.6748C26.6191 23.4539 27.1417 24.0349 27.8439 24.4157C28.5657 24.7961 29.4386 24.9779 30.4633 24.96L30.4633 24.959ZM29.6366 15.8071C28.4958 15.827 27.5758 16.2161 26.8729 16.9755C26.172 17.7338 25.8123 18.7723 25.7969 20.0887L33.365 18.4534C33.1591 17.6625 32.6845 16.9711 32.0254 16.5015C31.3599 16.023 30.564 15.7909 29.6366 15.8071Z" fill="#161617" />
		<path d="M57.5446 12.0774L57.8213 27.93L53.5324 28.0049L53.4995 26.1192C52.9189 26.8125 52.1964 27.3685 51.3824 27.7484C50.534 28.1215 49.6205 28.3176 48.696 28.3253C46.6474 28.3611 45.0143 27.7895 43.7955 26.6126C42.5768 25.4357 41.9458 23.6684 41.9047 21.3108L41.7483 12.3522L46.2702 12.2732L46.4148 20.554C46.4593 23.1076 47.5339 24.367 49.6405 24.3303C50.7223 24.3114 51.5865 23.9422 52.2311 23.2239C52.8754 22.4855 53.1851 21.409 53.1604 19.9942L53.0236 12.1554L57.5446 12.0764L57.5446 12.0774Z" fill="#161617" />
		<path d="M72.547 26.9069C72.1083 27.2486 71.562 27.5142 70.9082 27.7016C70.2561 27.8723 69.5863 27.9633 68.9129 27.9725C67.0384 28.0052 65.5903 27.5494 64.5684 26.6041C63.5474 25.6588 63.0202 24.2538 62.9876 22.3871L62.7449 8.47919L67.2658 8.40027L67.3332 12.2597L71.1883 12.1924L71.2501 15.7289L67.3949 15.7961L67.5076 22.2492C67.5192 22.9171 67.6925 23.4351 68.0275 23.8023C68.3622 24.1505 68.8393 24.3182 69.4579 24.3074C70.1532 24.2953 70.7684 24.0885 71.3024 23.6862L72.547 26.9069Z" fill="#161617" />
		<path d="M80.3521 13.7717C80.8796 12.9964 81.5933 12.4048 82.4952 11.996C83.4157 11.5869 84.4754 11.3713 85.6732 11.3504L85.7473 15.5938C85.4091 15.5694 85.0703 15.5556 84.7313 15.5525C83.4371 15.5751 82.4287 15.9658 81.7081 16.7255C80.9861 17.4652 80.6385 18.5714 80.6642 20.0442L80.7948 27.529L76.2739 27.608L75.9972 11.7554L80.3146 11.68L80.3511 13.7717L80.3521 13.7717Z" fill="#161617" />
		<path d="M89.5246 11.5193L94.0466 11.4404L94.3233 27.2929L89.8013 27.3719L89.5246 11.5193Z" fill="#161617" />
		<path d="M108.876 10.9455C110.807 10.9118 112.374 11.4745 113.572 12.6318C114.791 13.7907 115.421 15.5279 115.462 17.8456L115.62 26.9212L111.098 27.0001L110.952 18.6314C110.93 17.3746 110.643 16.4465 110.092 15.846C109.54 15.2275 108.752 14.9273 107.728 14.9451C106.588 14.965 105.686 15.3438 105.022 16.0825C104.358 16.8012 104.039 17.868 104.063 19.2827L104.2 27.1215L99.6782 27.2005L99.4015 11.3459L103.721 11.2705L103.753 13.1272C104.34 12.4489 105.075 11.924 105.958 11.5555C106.84 11.167 107.813 10.963 108.876 10.9445L108.876 10.9455Z" fill="#161617" />
		<path d="M128.471 26.9339C126.829 26.9626 125.345 26.6434 124.019 25.9795C122.712 25.2942 121.68 24.34 120.925 23.115C120.169 21.8901 119.777 20.4917 119.75 18.9209C119.722 17.3492 120.065 15.938 120.778 14.6873C121.49 13.4377 122.488 12.4571 123.77 11.7467C125.072 11.0168 126.544 10.6381 128.186 10.6094C129.828 10.5807 131.303 10.9081 132.61 11.5923C133.917 12.2577 134.948 13.2018 135.704 14.4268C136.46 15.6518 136.851 17.0502 136.879 18.6219C136.906 20.1927 136.564 21.6039 135.851 22.8545C135.139 24.1051 134.141 25.0947 132.859 25.8252C131.576 26.5347 130.113 26.9043 128.471 26.9329L128.471 26.9339ZM128.405 23.1615C129.565 23.1413 130.505 22.7318 131.225 21.9321C131.964 21.1141 132.323 20.0376 132.3 18.7019C132.276 17.3661 131.88 16.3118 131.113 15.5391C130.366 14.746 129.411 14.3596 128.252 14.3798C127.092 14.4001 126.144 14.8197 125.403 15.6387C124.664 16.4378 124.306 17.5052 124.329 18.841C124.352 20.1768 124.748 21.24 125.515 22.0328C126.283 22.8055 127.246 23.1817 128.405 23.1615Z" fill="#161617" />
		<path d="M91.601 2.65369L95.2914 6.27683L91.7297 10.0256L88.0394 6.40342L91.601 2.65369Z" fill="#161617" />
	</g>
	<defs>
		<clipPath id="clip0_56_685">
			<rect width="180" height="26" fill="white" transform="translate(0.855682 3.45752) rotate(-1)" />
		</clipPath>
	</defs>
</svg>
