<svg width="182" height="32" viewBox="0 0 182 32" fill="none" xmlns="http://www.w3.org/2000/svg">
	<g clip-path="url(#clip0_56_674)">
		<path d="M19.7519 12.1955L19.5891 2.86898L0.897217 3.19525L1.22281 21.8482L10.5688 21.6851L10.406 12.3586L19.7519 12.1955Z" fill="currentColor" />
		<path d="M19.7516 12.1957L19.9144 21.5222L10.5686 21.6853L10.7314 31.0119L29.4232 30.6856L29.0976 12.0326L19.7516 12.1957Z" fill="currentColor" />
		<path d="M105.582 10.853L101.48 10.9246L101.734 25.4325L105.835 25.3609L107.601 25.3301L107.57 23.5685L105.804 23.5993L105.582 10.853Z" fill="currentColor" />
		<path d="M103.485 9.80103C104.68 9.78017 105.649 8.77851 105.628 7.58679C105.607 6.39508 104.604 5.42784 103.409 5.44869C102.215 5.46953 101.246 6.4712 101.266 7.66292C101.287 8.85464 102.291 9.82187 103.485 9.80103Z" fill="currentColor" />
		<path d="M122.835 23.3019L122.701 15.6334C122.672 13.9753 122.233 12.6355 121.334 11.7182C120.435 10.801 119.232 10.3037 117.674 10.3309C117.154 10.34 116.688 10.3999 116.276 10.5626C115.862 10.6735 115.503 10.8871 115.142 11.1007C114.783 11.3143 114.476 11.5788 114.22 11.8424C113.966 12.106 113.711 12.4214 113.457 12.7368L113.421 10.6643L109.319 10.7359L109.572 25.2438L113.674 25.1722L113.534 17.141C113.516 16.1565 113.712 15.4275 114.17 14.9013C114.629 14.3749 115.248 14.1568 116.027 14.1432C116.806 14.1296 117.433 14.3778 117.908 14.836C118.333 15.3469 118.605 16.0677 118.622 17.0522L118.763 25.1351L122.865 25.0635L124.631 25.0327L124.6 23.2711L122.835 23.3019Z" fill="currentColor" />
		<path d="M69.9392 13.0816C69.2526 12.4198 68.4127 11.9162 67.4186 11.5189C66.4784 11.1725 65.4359 10.9834 64.2941 11.0033C63.1513 11.0233 62.1171 11.2487 61.1885 11.6276C60.2609 12.0585 59.4391 12.5911 58.724 13.2774C58.0088 13.9637 57.5044 14.8017 57.1038 15.6898C56.7052 16.6297 56.5655 17.5651 56.5835 18.6014L56.5844 18.6533C56.6025 19.6895 56.8277 20.6703 57.2069 21.5966C57.6391 22.522 58.1716 23.2902 58.9103 23.9511C59.5969 24.6129 60.4368 25.1165 61.4309 25.5138C62.3721 25.8601 63.4136 26.0493 64.5564 26.0293C65.6982 26.0094 66.7334 25.784 67.661 25.4051C68.5886 24.9742 69.4104 24.4416 70.1256 23.7553C70.8407 23.069 71.3451 22.231 71.7457 21.3429C72.1444 20.403 72.2841 19.4676 72.2651 18.3795L72.2642 18.3277C72.2461 17.2914 72.0209 16.3106 71.6417 15.3843C71.2113 14.5625 70.6259 13.7435 69.9392 13.0816ZM68.2165 18.5538C68.2255 19.072 68.1316 19.5919 67.9838 20.0609C67.8359 20.53 67.5832 20.949 67.2786 21.3172C66.9729 21.6853 66.5625 21.9516 66.0982 22.1671C65.6349 22.3825 65.1178 22.4951 64.5469 22.5051C63.975 22.5151 63.4542 22.4205 62.9837 22.2214C62.5122 22.0223 62.0918 21.7187 61.7735 21.3614C61.4042 21.0051 61.137 20.5951 60.9729 20.1315C60.8088 19.6679 60.6968 19.1516 60.6877 18.6334L60.6868 18.5816C60.6778 18.0634 60.7717 17.5435 60.9196 17.0745C61.0674 16.6054 61.3201 16.1863 61.6247 15.8183C61.9304 15.4501 62.3408 15.1838 62.8051 14.9683C63.2684 14.753 63.7855 14.6403 64.3574 14.6303C64.9283 14.6203 65.4491 14.7149 65.9196 14.914C66.3912 15.1131 66.8115 15.4168 67.1298 15.774C67.4991 16.1304 67.7663 16.5403 67.9304 17.0039C68.0945 17.4675 68.2065 17.9839 68.2156 18.502L68.2165 18.5538Z" fill="currentColor" />
		<path d="M87.5406 12.7744C86.8539 12.1126 86.014 11.6089 85.0199 11.2116C84.0797 10.8653 83.0373 10.6762 81.8955 10.6961C80.7526 10.716 79.7184 10.9414 78.7899 11.3204C77.8623 11.7512 77.0404 12.2839 76.3253 12.9701C75.6102 13.6564 75.1057 14.4945 74.7052 15.3826C74.3065 16.3225 74.1668 17.2579 74.1849 18.2941L74.1858 18.346C74.2039 19.3822 74.429 20.3631 74.8083 21.2894C75.2405 22.2148 75.773 22.9829 76.5116 23.6438C77.1983 24.3056 78.0382 24.8093 79.0323 25.2066C79.9735 25.5529 81.0149 25.742 82.1577 25.7221C83.2996 25.7022 84.3348 25.4768 85.2623 25.0978C86.1899 24.667 87.0118 24.1343 87.7269 23.4481C88.442 22.7618 88.9465 21.9237 89.347 21.0356C89.7457 20.0957 89.8854 19.1603 89.8664 18.0723L89.8655 18.0204C89.8474 16.9842 89.6223 16.0033 89.243 15.077C88.8126 14.2552 88.2792 13.4353 87.5406 12.7744ZM85.8178 18.2466C85.8269 18.7647 85.7329 19.2846 85.5851 19.7537C85.4373 20.2227 85.1845 20.6418 84.8799 21.01C84.5743 21.3781 84.1639 21.6444 83.6996 21.8598C83.2363 22.0752 82.7191 22.1879 82.1482 22.1978C81.5763 22.2078 81.0556 22.1133 80.585 21.9142C80.1135 21.7151 79.6931 21.4115 79.3749 21.0542C79.0056 20.6978 78.7384 20.2878 78.5743 19.8242C78.4101 19.3606 78.2981 18.8443 78.2891 18.3262L78.2882 18.2744C78.2791 17.7562 78.3731 17.2363 78.5209 16.7672C78.6687 16.2982 78.9215 15.8791 79.2261 15.511C79.5317 15.1428 79.9421 14.8765 80.4064 14.6611C80.8697 14.4458 81.3869 14.333 81.9588 14.323C82.5297 14.3131 83.0504 14.4077 83.521 14.6067C83.9925 14.8058 84.4129 15.1095 84.7311 15.4667C85.1004 15.8231 85.3676 16.233 85.5317 16.6966C85.6959 17.1602 85.8079 17.6767 85.8169 18.1948L85.8178 18.2466Z" fill="currentColor" />
		<path d="M52.5236 9.18746C51.8908 8.62842 51.1038 8.17569 50.2155 7.88024C49.3282 7.58468 48.2866 7.44744 47.1448 7.46737L39.46 7.60151L39.7593 24.7519L37.994 24.7827L38.0248 26.5443L39.7901 26.5135L43.9435 26.441L43.8449 20.7934L47.0124 20.7381C48.0512 20.72 49.0864 20.5464 50.0167 20.271C50.947 19.9956 51.7707 19.5666 52.4356 18.9849C53.1006 18.4031 53.6597 17.7195 54.0602 16.8833C54.4616 16.047 54.6004 15.0598 54.5814 13.9718L54.5805 13.9199C54.5634 12.9354 54.392 12.0574 54.0145 11.2865C53.6371 10.4638 53.1575 9.74658 52.5236 9.18746ZM50.324 14.0979C50.3385 14.9269 50.0393 15.6059 49.4774 16.134C48.9154 16.714 48.0901 16.9875 47.0512 17.0057L43.7278 17.0637L43.6274 11.3123L46.8469 11.2561C47.8857 11.238 48.7211 11.4826 49.3522 11.938C49.9832 12.3935 50.2558 13.1143 50.2721 14.047L50.273 14.0988L50.324 14.0979Z" fill="currentColor" />
		<path d="M93.7061 23.8102L91.9404 23.8411L91.9711 25.6027L93.7369 25.5719L97.8392 25.5003L97.4956 5.81096L93.3932 5.88257L93.7061 23.8102Z" fill="currentColor" />
	</g>
	<defs>
		<clipPath id="clip0_56_674">
			<rect width="180" height="28" fill="white" transform="translate(0.896973 3.18713) rotate(-1)" />
		</clipPath>
	</defs>
</svg>
