<svg width="38" height="38" viewBox="0 0 38 38" fill="none" xmlns="http://www.w3.org/2000/svg">
	<g clip-path="url(#clip0_101_619)">
		<path d="M19 36.5513C28.6933 36.5513 36.5513 28.6933 36.5513 19C36.5513 9.30672 28.6933 1.44876 19 1.44876C9.30672 1.44876 1.44876 9.30672 1.44876 19C1.44876 28.6933 9.30672 36.5513 19 36.5513Z" fill="black" />
		<path d="M12.2797 23.8379C12.3461 23.7651 12.427 23.707 12.5172 23.6673C12.6071 23.628 12.7041 23.6075 12.8022 23.607L28.8862 23.6203C28.9547 23.6203 29.0218 23.6403 29.0792 23.6777C29.1366 23.7152 29.1819 23.7685 29.2095 23.8312C29.2371 23.894 29.2459 23.9634 29.2348 24.031C29.2237 24.0986 29.1932 24.1616 29.1469 24.2122L25.7217 27.9837C25.6555 28.0564 25.5748 28.1146 25.4849 28.1543C25.3949 28.1941 25.2976 28.2146 25.1992 28.2145L9.11574 28.2012C9.04728 28.201 8.98036 28.1809 8.92309 28.1435C8.86581 28.106 8.82063 28.0527 8.79303 27.99C8.76543 27.9274 8.75659 27.8581 8.76758 27.7905C8.77858 27.723 8.80893 27.66 8.85496 27.6094L12.2797 23.8379ZM29.1455 20.6986C29.1918 20.7492 29.2223 20.8121 29.2334 20.8798C29.2445 20.9474 29.2357 21.0168 29.2081 21.0795C29.1804 21.1423 29.1352 21.1956 29.0778 21.233C29.0203 21.2705 28.9533 21.2904 28.8847 21.2904L12.8013 21.3037C12.7029 21.3038 12.6056 21.2833 12.5156 21.2435C12.4256 21.2038 12.345 21.1457 12.2788 21.0729L8.85449 17.2995C8.80844 17.2487 8.77808 17.1857 8.76709 17.118C8.75595 17.0505 8.76471 16.9812 8.79229 16.9185C8.81987 16.8558 8.86508 16.8025 8.92241 16.7651C8.97981 16.7277 9.04675 16.7076 9.11526 16.7072L25.1992 16.6943C25.2976 16.6941 25.395 16.7146 25.485 16.7543C25.575 16.7941 25.6556 16.8523 25.7217 16.9252L29.1455 20.6986ZM12.2797 10.0163C12.3458 9.94343 12.4265 9.88523 12.5165 9.84547C12.6065 9.8057 12.7038 9.78526 12.8022 9.78546L28.8862 9.79876C28.9547 9.79884 29.0216 9.81881 29.079 9.85626C29.1363 9.8937 29.1816 9.94699 29.2092 10.0097C29.2368 10.0722 29.2456 10.1414 29.2345 10.2089C29.2235 10.2764 29.1931 10.3392 29.1469 10.3897L25.7217 14.1612C25.6555 14.2339 25.5748 14.2921 25.4849 14.3318C25.3949 14.3716 25.2976 14.3921 25.1992 14.392L9.11574 14.3787C9.04717 14.3787 8.9801 14.3587 8.92273 14.3212C8.86535 14.2836 8.82018 14.2302 8.79274 14.1673C8.76537 14.1047 8.75669 14.0356 8.76773 13.9682C8.77877 13.9007 8.80906 13.8379 8.85496 13.7873L12.2797 10.0163Z" fill="url(#paint0_linear_101_619)" />
	</g>
	<defs>
		<linearGradient id="paint0_linear_101_619" x1="9.38411" y1="28.6159" x2="28.6159" y2="9.38412" gradientUnits="userSpaceOnUse">
			<stop stop-color="#9945FF" />
			<stop offset="0.2" stop-color="#7962E7" />
			<stop offset="1" stop-color="#00D18C" />
		</linearGradient>
		<clipPath id="clip0_101_619">
			<rect width="38" height="38" fill="white" />
		</clipPath>
	</defs>
</svg>
