<svg
width="182"
height="37"
viewBox="0 0 182 37"
fill="none"
xmlns="http://www.w3.org/2000/svg"
>
<g clip-path="url(#clip0_56_695)">
  <path
    d="M5.60119 16.3943C5.61141 16.9802 5.94543 17.4365 6.59328 17.7662C7.24312 18.0949 8.03413 18.3752 8.96528 18.6049C9.8954 18.8327 10.8313 19.1074 11.7759 19.418C12.7215 19.7296 13.5212 20.2777 14.1807 21.0483C14.8373 21.8229 15.1786 22.8071 15.1994 24.001C15.2289 25.6897 14.5991 27.0239 13.3171 28.0084C12.031 28.993 10.4077 29.5024 8.43699 29.5368C6.70225 29.5671 5.20814 29.2301 3.95464 28.5249C2.7012 27.8227 1.77769 26.8276 1.19526 25.5476L4.42757 23.5889C5.06595 25.267 6.38245 26.0861 8.37615 26.0513C10.3688 26.0166 11.3543 25.3443 11.3314 24.0325C11.3215 23.4686 10.9876 23.0193 10.3386 22.6776C9.68949 22.3349 8.89744 22.0526 7.96731 21.8238C7.01995 21.5888 6.08204 21.3173 5.15567 21.0098C4.22439 20.7081 3.39336 20.1575 2.75251 19.4175C2.09523 18.6618 1.75445 17.7036 1.73393 16.5278C1.70571 14.9111 2.29687 13.5976 3.51549 12.5911C4.72813 11.5858 6.24631 11.0672 8.07604 11.0353C9.53081 11.0099 10.8293 11.3123 11.9803 11.9343C13.1063 12.538 14.0319 13.4568 14.6439 14.5782L11.4757 16.4288C10.8425 15.1036 9.73093 14.4529 8.13518 14.4808C7.40829 14.4935 6.80116 14.6631 6.31671 14.9856C5.83237 15.3141 5.59054 15.7844 5.6012 16.3953L5.60119 16.3943Z"
    fill="#161617"
  />
  <path
    d="M38.0295 10.9715L42.0379 10.9015L36.8236 28.5792L33.0952 28.6443L29.2299 16.858L25.7463 28.7726L22.0179 28.8377L16.1898 11.3527L20.1992 11.2827L23.8204 23.3524L27.3001 11.1598L30.9226 11.0966L34.7937 23.1608L38.0295 10.9725L38.0295 10.9715Z"
    fill="#161617"
  />
  <path
    d="M74.8299 9.87108C77.2425 9.82896 79.3229 10.6908 81.0629 12.4527C82.8029 14.2166 83.6979 16.3863 83.743 18.9649C83.7884 21.5665 82.9697 23.7711 81.2921 25.5847C79.6125 27.3983 77.5613 28.3212 75.1527 28.3633C72.4831 28.4099 70.4122 27.4609 68.948 25.5151L69.1143 35.0437L65.3169 35.1099L64.8874 10.5037L68.6848 10.4374L68.729 12.967C70.128 10.9523 72.1593 9.91669 74.8299 9.87008L74.8299 9.87108ZM70.4923 23.2268C71.5678 24.2752 72.9019 24.784 74.4926 24.7562C76.0854 24.7284 77.4029 24.1733 78.4381 23.0881C79.4773 22.0028 79.9778 20.6509 79.9496 19.0331C79.9213 17.4164 79.372 16.0858 78.2975 15.0333C77.225 13.9849 75.891 13.4761 74.2962 13.5039C72.7024 13.5318 71.3859 14.0868 70.3507 15.1721C69.3165 16.2573 68.812 17.6093 68.8403 19.227C68.8685 20.8438 69.4198 22.1784 70.4913 23.2268L70.4923 23.2268Z"
    fill="#161617"
  />
  <path
    d="M90.8032 27.285C90.5666 27.5385 90.2805 27.7407 89.9626 27.8792C89.6447 28.0178 89.3018 28.0896 88.955 28.0904C88.6085 28.1015 88.2633 28.0415 87.9408 27.9142C87.6183 27.7869 87.3253 27.5949 87.0798 27.35C86.8254 27.1139 86.6223 26.8279 86.4831 26.51C86.3438 26.1921 86.2715 25.8489 86.2704 25.5018C86.2577 24.7749 86.4969 24.1497 86.9918 23.626C87.4887 23.0992 88.1121 22.8293 88.8589 22.8163C89.5858 22.8036 90.2113 23.0517 90.7352 23.5606C91.2602 24.0685 91.5279 24.683 91.5406 25.4098C91.5527 25.7562 91.4935 26.1014 91.3666 26.424C91.2398 26.7466 91.048 27.0396 90.8032 27.285Z"
    fill="#161617"
  />
  <path
    d="M108.934 9.73387L109.241 27.3152L105.439 27.3815L105.196 13.4577L99.361 13.5595L99.6041 27.4874L95.8067 27.5537L95.5636 13.6258L92.894 13.6724L92.8301 10.015L95.4997 9.96836L95.4935 9.61441C95.4125 4.8591 98.0156 2.43431 103.318 2.34176C104.559 2.3201 105.86 2.4504 107.229 2.72855L107.29 6.21002C105.994 6.04207 104.688 5.97127 103.382 5.9982C101.974 6.02277 100.935 6.29895 100.266 6.82471C99.5937 7.35351 99.2725 8.26326 99.295 9.54906L99.3012 9.90301L108.936 9.73484L108.936 9.73284L108.934 9.73287L108.934 9.73387Z"
    fill="#161617"
  />
  <path
    fill-rule="evenodd"
    clip-rule="evenodd"
    d="M62.0783 21.4084C62.298 20.5874 62.4089 19.7224 62.3934 18.8305C62.3037 13.6943 58.0687 9.60457 52.9325 9.69422C51.2671 9.72274 49.64 10.1982 48.2213 11.0708C46.8026 11.9434 45.6444 13.1812 44.8678 14.6547L47.8304 17.0684C48.1952 16.0714 48.8356 15.1985 49.677 14.5512C50.5184 13.9039 51.5263 13.5087 52.5835 13.4117C53.6406 13.3146 54.7036 13.5197 55.6488 14.0031C56.594 14.4864 57.3826 15.2282 57.9228 16.1421L56.1688 16.6188L58.793 18.7263L62.0783 21.4084ZM61.1628 23.6217C60.0548 25.5579 58.2878 27.0313 56.1839 27.773C54.0801 28.5148 51.7797 28.4756 49.7024 27.6625C47.6251 26.8494 45.9093 25.3166 44.868 23.3438C43.8267 21.371 43.5294 19.0895 44.0301 16.9157L46.8253 19.1933L49.6108 21.431L48.2451 21.8029C48.7652 22.6992 49.5235 23.4339 50.4359 23.9254C51.3483 24.417 52.379 24.646 53.4137 24.5873C54.4483 24.5285 55.4465 24.1841 56.2973 23.5925C57.1482 23.0008 57.8184 22.185 58.2337 21.2355L61.1628 23.6217Z"
    fill="#161617"
  />
  <path
    fill-rule="evenodd"
    clip-rule="evenodd"
    d="M62.0783 21.4084C62.298 20.5875 62.4089 19.7224 62.3934 18.8305C62.3037 13.6943 58.0687 9.6046 52.9325 9.69425C51.2671 9.72276 49.64 10.1982 48.2213 11.0708C46.8026 11.9435 45.6444 13.1813 44.8678 14.6548L47.8304 17.0684C48.1952 16.0715 48.8356 15.1985 49.677 14.5512C50.5184 13.9039 51.5263 13.5087 52.5835 13.4117C53.6406 13.3147 54.7036 13.5198 55.6488 14.0031C56.594 14.4865 57.3826 15.2282 57.9228 16.1421L56.1688 16.6188L58.793 18.7263L62.0783 21.4084Z"
    fill="#161617"
  />
</g>
<defs>
  <clipPath id="clip0_56_695">
    <rect
      width="180"
      height="33"
      fill="white"
      transform="translate(0.8144 3.72791) rotate(-1)"
    />
  </clipPath>
</defs>
</svg>