<svg width="37" height="37" viewBox="0 0 37 37" fill="none" xmlns="http://www.w3.org/2000/svg">
	<g clip-path="url(#clip0_66_317)">
		<path d="M16.5179 22.2991C16.5237 22.2685 16.5237 22.2371 16.5179 22.2066C16.4857 22.1278 16.4385 22.0561 16.3791 21.9952C16.3113 21.9272 16.2294 21.8749 16.1393 21.8418C16.0491 21.8087 15.9528 21.7957 15.8571 21.8036H4.625C4.44977 21.8036 4.28171 21.8732 4.1578 21.9971C4.0339 22.121 3.96429 22.289 3.96429 22.4643V36.3393C3.96429 36.5145 4.0339 36.6826 4.1578 36.8065C4.28171 36.9304 4.44977 37 4.625 37H15.8571C16.0324 37 16.2004 36.9304 16.3243 36.8065C16.4482 36.6826 16.5179 36.5145 16.5179 36.3393V22.4643C16.5279 22.4097 16.5279 22.3537 16.5179 22.2991ZM5.28571 35.6786V23.125H15.1964V35.6786H5.28571Z" fill="#CBFB45" />
		<path opacity="0.5" d="M15.1964 23.125V35.6786H11.8929V33.0357C11.8929 32.8605 11.8232 32.6924 11.6993 32.5685C11.5754 32.4446 11.4074 32.375 11.2321 32.375H9.25C9.07477 32.375 8.90671 32.4446 8.78281 32.5685C8.6589 32.6924 8.58929 32.8605 8.58929 33.0357V35.6786H5.28571V23.125H15.1964Z" fill="#CBFB45" />
		<path d="M16.5178 22.2991C16.5237 22.2686 16.5237 22.2372 16.5178 22.2066C16.4856 22.1279 16.4385 22.0561 16.379 21.9952L16.1346 21.8036L15.8571 21.5261L12.3619 18.0309C12.3002 17.9697 12.2269 17.9212 12.1464 17.8883C12.0659 17.8555 11.9797 17.8388 11.8928 17.8393H0.660645C0.530203 17.8399 0.402873 17.8792 0.294701 17.9521C0.186528 18.025 0.102355 18.1283 0.052788 18.2489C0.00219085 18.3693 -0.0116331 18.5019 0.0130606 18.63C0.0377542 18.7582 0.0998588 18.8762 0.191538 18.9691L3.96422 22.7418L4.15582 22.9334C4.21756 22.9946 4.29078 23.0431 4.37128 23.076C4.45178 23.1088 4.53798 23.1255 4.62493 23.125H15.8571C16.0323 23.125 16.2004 23.0554 16.3243 22.9315C16.4482 22.8076 16.5178 22.6395 16.5178 22.4643C16.5278 22.4097 16.5278 22.3537 16.5178 22.2991ZM4.89582 21.8036L2.25297 19.1607H11.6219L14.2648 21.8036H4.89582Z" fill="#CBFB45" />
		<path opacity="0.5" d="M14.2649 21.8036H4.89594L2.25308 19.1607H11.622L14.2649 21.8036Z" fill="#CBFB45" />
		<path d="M32.375 21.8036H15.8571C15.7702 21.8031 15.684 21.8197 15.6035 21.8526C15.523 21.8855 15.4498 21.934 15.388 21.9952C15.3286 22.0561 15.2815 22.1279 15.2493 22.2066C15.2434 22.2372 15.2434 22.2686 15.2493 22.2991C15.2213 22.3503 15.2033 22.4064 15.1964 22.4643V36.3393C15.1964 36.5145 15.266 36.6826 15.3899 36.8065C15.5139 36.9304 15.6819 37 15.8571 37H32.375C32.5502 37 32.7183 36.9304 32.8422 36.8065C32.9661 36.6826 33.0357 36.5145 33.0357 36.3393V22.4643C33.0357 22.2891 32.9661 22.121 32.8422 21.9971C32.7183 21.8732 32.5502 21.8036 32.375 21.8036ZM31.7143 35.6786H16.5179V23.125H31.7143V35.6786Z" fill="#CBFB45" />
		<path opacity="0.5" d="M31.7144 23.125H16.518V35.6786H31.7144V23.125Z" fill="#CBFB45" />
		<path d="M36.9471 18.2489C36.8976 18.1283 36.8134 18.025 36.7052 17.9521C36.5971 17.8792 36.4697 17.84 36.3393 17.8393H19.8214C19.7345 17.8388 19.6483 17.8555 19.5678 17.8883C19.4873 17.9212 19.4141 17.9697 19.3523 18.0309L15.8571 21.5261L15.5796 21.8036L15.388 21.9952C15.3286 22.0561 15.2815 22.1279 15.2493 22.2066C15.2434 22.2372 15.2434 22.2686 15.2493 22.2991C15.2213 22.3503 15.2033 22.4064 15.1964 22.4643C15.1964 22.6395 15.266 22.8076 15.3899 22.9315C15.5139 23.0554 15.6819 23.125 15.8571 23.125H32.375C32.462 23.1255 32.5482 23.1089 32.6287 23.076C32.7092 23.0431 32.7824 22.9946 32.8441 22.9334L33.0357 22.7418L36.8084 18.9691C36.9001 18.8762 36.9622 18.7582 36.9869 18.6301C37.0116 18.5019 36.9977 18.3693 36.9471 18.2489ZM32.1041 21.8036H17.4495L20.0923 19.1607H34.747L32.1041 21.8036Z" fill="#CBFB45" />
		<path opacity="0.5" d="M34.7469 19.1607L32.104 21.8036H17.4494L20.0923 19.1607H34.7469Z" fill="#CBFB45" />
		<path d="M11.8929 35.6786H8.58929V36.3393H11.8929V35.6786Z" fill="#CBFB45" />
		<path d="M27.0495 7.73036C26.895 6.14821 26.3046 4.63996 25.3438 3.3735C24.383 2.10703 23.0896 1.13205 21.6076 0.557066C20.1255 -0.0179146 18.513 -0.170329 16.9495 0.116788C15.3859 0.403905 13.9328 1.11929 12.7517 2.18331C11.5707 3.24733 10.708 4.61823 10.2599 6.14342C9.81176 7.66861 9.79567 9.28825 10.2134 10.822C10.6312 12.3558 11.4664 13.7436 12.6261 14.8309C13.7858 15.9181 15.2245 16.6622 16.782 16.9804C17.3466 17.103 17.9221 17.1694 18.4998 17.1786C20.7778 17.1786 22.9626 16.2736 24.5734 14.6628C26.1842 13.052 27.0891 10.8673 27.0891 8.58929C27.0891 8.29857 27.0891 8.02107 27.0495 7.73036ZM18.4998 15.8571C18.0116 15.8585 17.5245 15.8098 17.0463 15.7118C15.7293 15.4434 14.5125 14.8151 13.5312 13.8968C12.5499 12.9784 11.8424 11.8058 11.4875 10.5095C11.1326 9.21319 11.1441 7.84383 11.5207 6.55365C11.8973 5.26346 12.6244 4.10298 13.621 3.20119C14.6176 2.2994 15.8447 1.69162 17.166 1.4454C18.4873 1.19919 19.851 1.32419 21.1055 1.8065C22.36 2.28881 23.4562 3.10955 24.2723 4.17749C25.0883 5.24543 25.5922 6.51874 25.728 7.85589C25.7548 8.09943 25.7681 8.34428 25.7677 8.58929C25.7677 10.5168 25.002 12.3655 23.639 13.7284C22.276 15.0914 20.4274 15.8571 18.4998 15.8571Z" fill="#CBFB45" />
		<path opacity="0.5" d="M20.8918 8.23911C21.0557 7.94159 21.1421 7.60756 21.1429 7.26786C21.1417 6.85891 21.0141 6.46033 20.7775 6.12676C20.5409 5.79319 20.207 5.54096 19.8214 5.40464V4.625C19.8214 4.44977 19.7518 4.28171 19.6279 4.15781C19.504 4.0339 19.3359 3.96429 19.1607 3.96429C18.9855 3.96429 18.8174 4.0339 18.6935 4.15781C18.5696 4.28171 18.5 4.44977 18.5 4.625V5.28572H17.8393V4.625C17.8393 4.44977 17.7697 4.28171 17.6458 4.15781C17.5219 4.0339 17.3538 3.96429 17.1786 3.96429C17.0033 3.96429 16.8353 4.0339 16.7114 4.15781C16.5875 4.28171 16.5179 4.44977 16.5179 4.625V5.28572H15.8571C15.6819 5.28572 15.5139 5.35533 15.3899 5.47923C15.266 5.60314 15.1964 5.7712 15.1964 5.94643C15.1964 6.12166 15.266 6.28972 15.3899 6.41363C15.5139 6.53753 15.6819 6.60714 15.8571 6.60714V10.5714C15.6819 10.5714 15.5139 10.641 15.3899 10.7649C15.266 10.8889 15.1964 11.0569 15.1964 11.2321C15.1964 11.4074 15.266 11.5754 15.3899 11.6993C15.5139 11.8232 15.6819 11.8929 15.8571 11.8929H16.5179V12.5536C16.5179 12.7288 16.5875 12.8969 16.7114 13.0208C16.8353 13.1447 17.0033 13.2143 17.1786 13.2143C17.3538 13.2143 17.5219 13.1447 17.6458 13.0208C17.7697 12.8969 17.8393 12.7288 17.8393 12.5536V11.8929H18.5V12.5536C18.5 12.7288 18.5696 12.8969 18.6935 13.0208C18.8174 13.1447 18.9855 13.2143 19.1607 13.2143C19.3359 13.2143 19.504 13.1447 19.6279 13.0208C19.7518 12.8969 19.8214 12.7288 19.8214 12.5536V11.8929C20.2508 11.894 20.6689 11.7557 21.0129 11.4987C21.3569 11.2417 21.6081 10.88 21.7288 10.468C21.8495 10.0559 21.8332 9.61582 21.6822 9.21387C21.5313 8.81191 21.2539 8.46984 20.8918 8.23911ZM17.1786 6.60714H19.1607C19.3359 6.60714 19.504 6.67675 19.6279 6.80066C19.7518 6.92457 19.8214 7.09263 19.8214 7.26786C19.8214 7.44309 19.7518 7.61115 19.6279 7.73505C19.504 7.85896 19.3359 7.92857 19.1607 7.92857H17.1786V6.60714ZM19.8214 10.5714H17.1786V9.25H19.8214C19.9967 9.25 20.1647 9.31961 20.2886 9.44352C20.4125 9.56743 20.4821 9.73548 20.4821 9.91072C20.4821 10.0859 20.4125 10.254 20.2886 10.3779C20.1647 10.5018 19.9967 10.5714 19.8214 10.5714Z" fill="#CBFB45" />
	</g>
	<defs>
		<clipPath id="clip0_66_317">
			<rect width="37" height="37" fill="white" />
		</clipPath>
	</defs>
</svg>
