<svg width="37" height="35" viewBox="0 0 37 35" fill="none" xmlns="http://www.w3.org/2000/svg">
	<g clip-path="url(#clip0_62_263)">
		<path d="M30.5685 14.9981C30.536 14.8101 30.4906 14.6157 30.4387 14.4277C30.3868 14.2398 30.3348 14.0389 30.2764 13.8509C30.2234 13.6619 30.1606 13.4759 30.0882 13.2935C30.0938 13.2744 30.0938 13.2542 30.0882 13.2351C29.8217 12.5084 29.4848 11.8094 29.0822 11.1481C29.0647 11.1077 29.0405 11.0705 29.0109 11.0379C28.9265 10.8953 28.8356 10.7592 28.7383 10.6166C28.6409 10.474 28.5111 10.2926 28.3943 10.137C28.2775 9.98145 28.1736 9.84533 28.0568 9.70274L27.9919 9.62496L27.6479 9.23608C27.6479 9.23608 27.6479 9.23607 27.6479 9.20367C27.6479 9.17126 27.4922 9.03515 27.4143 8.95089C27.3364 8.86663 27.3494 8.87959 27.3104 8.84719C27.2483 8.77749 27.181 8.7125 27.1093 8.65274L26.8561 8.42589L26.7912 8.36756L26.7198 8.30922C26.5985 8.19196 26.4707 8.0816 26.3369 7.97867C26.3369 7.97867 26.1357 7.81663 26.0384 7.74533L25.8891 7.63515L25.7528 7.53145L25.5841 7.4083L25.4997 7.34996L25.4153 7.29163C25.2466 7.17496 25.0779 7.06478 24.9026 6.96108L24.5392 6.75367C24.4216 6.68249 24.3002 6.61758 24.1757 6.55922H24.1173L24.0135 6.48145C21.16 5.03403 17.8548 4.75125 14.7964 5.69286C11.738 6.63447 9.16602 8.7267 7.62393 11.5274C6.08184 14.3281 5.69049 17.6178 6.53259 20.7014C7.37469 23.785 9.38426 26.4208 12.1366 28.0518C12.4222 28.2203 12.7077 28.3759 13.0063 28.5185C14.6659 29.354 16.4956 29.7975 18.3541 29.8148H18.4969C21.2744 29.8165 23.9711 28.8817 26.1502 27.1619C28.3294 25.4421 29.8633 23.0379 30.5036 20.3389C30.549 20.1444 30.5944 19.95 30.6269 19.7555C30.6593 19.5611 30.6853 19.4314 30.7113 19.2694C30.7372 19.1074 30.7502 19.0101 30.7632 18.874C30.7762 18.7379 30.7632 18.5759 30.8021 18.4203C30.812 18.2822 30.812 18.1436 30.8021 18.0055C30.8053 17.9862 30.8053 17.9665 30.8021 17.9472C30.8426 16.9584 30.7642 15.9683 30.5685 14.9981ZM7.46375 17.5C7.46375 14.5777 8.62617 11.7751 10.6953 9.7087C12.7644 7.64232 15.5707 6.48145 18.4969 6.48145C18.8719 6.48131 19.2467 6.50078 19.6197 6.53978C19.9421 6.57095 20.2627 6.61854 20.5802 6.68237L21.0475 6.77959C21.5061 6.88834 21.957 7.0269 22.3974 7.19441C22.6962 7.3036 22.9887 7.42909 23.2736 7.57033C23.5563 7.70185 23.8315 7.84899 24.0979 8.01108C24.4972 8.24771 24.8809 8.50967 25.2466 8.79533C25.3699 8.88608 25.4867 8.9833 25.61 9.087C25.8437 9.28145 26.0708 9.49533 26.2591 9.73515C26.3824 9.8583 26.5057 9.98793 26.6225 10.1176C26.7393 10.2472 26.8626 10.3833 26.973 10.5194C27.2038 10.7888 27.4204 11.0701 27.622 11.362C28.0209 11.9523 28.3621 12.5796 28.6409 13.2351C28.7123 13.4037 28.7772 13.5657 28.8421 13.7342C28.907 13.9027 28.9654 14.0777 29.0173 14.2463C29.1758 14.7708 29.2972 15.3057 29.3808 15.8472C29.4145 16.0294 29.4384 16.2133 29.4522 16.3981C29.5053 16.904 29.5227 17.413 29.5041 17.9213C29.5041 18.025 29.5041 18.1287 29.5041 18.2259C29.5041 18.3231 29.5041 18.4787 29.5041 18.6018C29.5041 18.725 29.4716 18.9064 29.4457 19.0555C29.4197 19.2046 29.4457 19.2759 29.3938 19.3861L29.3548 19.6064C29.3302 19.7598 29.2955 19.9113 29.251 20.0601C28.6738 22.4733 27.2979 24.6212 25.3462 26.1562C23.3945 27.6913 20.9812 28.5236 18.4969 28.5185H18.3606C15.4581 28.4827 12.6867 27.306 10.647 25.2435C8.60722 23.181 7.46353 20.3988 7.46375 17.5Z" fill="#CBFB45" />
		<path d="M30.5685 14.9981C30.536 14.8101 30.4906 14.6157 30.4387 14.4277C30.3868 14.2398 30.3348 14.0389 30.2764 13.8509C30.2234 13.6619 30.1606 13.4759 30.0882 13.2935C30.0938 13.2744 30.0938 13.2542 30.0882 13.2351C29.8217 12.5084 29.4848 11.8094 29.0822 11.1481C29.0647 11.1077 29.0405 11.0705 29.0109 11.0379C28.9265 10.8953 28.8356 10.7592 28.7383 10.6166C28.6409 10.474 28.5111 10.2926 28.3943 10.137C28.2775 9.98145 28.1736 9.84533 28.0568 9.70274L27.9919 9.62496L27.6479 9.23608C27.6479 9.23608 27.6479 9.23607 27.6479 9.20367C27.6479 9.17126 27.4922 9.03515 27.4143 8.95089C27.3364 8.86663 27.3494 8.87959 27.3104 8.84719C27.2483 8.77749 27.181 8.7125 27.1093 8.65274L26.8561 8.42589L26.7912 8.36756L26.7198 8.30922C26.5985 8.19196 26.4707 8.0816 26.3369 7.97867C26.3369 7.97867 26.1357 7.81663 26.0384 7.74533L25.8891 7.63515L25.7528 7.53145L25.5841 7.4083L25.4997 7.34996L25.4153 7.29163C25.2466 7.17496 25.0779 7.06478 24.9026 6.96108L24.5392 6.75367C24.4216 6.68249 24.3002 6.61758 24.1757 6.55922H24.1173L24.0135 6.48145C21.16 5.03403 17.8548 4.75125 14.7964 5.69286C11.738 6.63447 9.16602 8.7267 7.62393 11.5274C6.08184 14.3281 5.69049 17.6178 6.53259 20.7014C7.37469 23.785 9.38426 26.4208 12.1366 28.0518C12.4222 28.2203 12.7077 28.3759 13.0063 28.5185C14.6659 29.354 16.4956 29.7975 18.3541 29.8148H18.4969C21.2744 29.8165 23.9711 28.8817 26.1502 27.1619C28.3294 25.4421 29.8633 23.0379 30.5036 20.3389C30.549 20.1444 30.5944 19.95 30.6269 19.7555C30.6593 19.5611 30.6853 19.4314 30.7113 19.2694C30.7372 19.1074 30.7502 19.0101 30.7632 18.874C30.7762 18.7379 30.7632 18.5759 30.8021 18.4203C30.812 18.2822 30.812 18.1436 30.8021 18.0055C30.8053 17.9862 30.8053 17.9665 30.8021 17.9472C30.8426 16.9584 30.7642 15.9683 30.5685 14.9981ZM7.46375 17.5C7.46375 14.5777 8.62617 11.7751 10.6953 9.7087C12.7644 7.64232 15.5707 6.48145 18.4969 6.48145C18.8719 6.48131 19.2467 6.50078 19.6197 6.53978C19.9421 6.57095 20.2627 6.61854 20.5802 6.68237L21.0475 6.77959C21.5061 6.88834 21.957 7.0269 22.3974 7.19441C22.6962 7.3036 22.9887 7.42909 23.2736 7.57033C23.5563 7.70185 23.8315 7.84899 24.0979 8.01108C24.4972 8.24771 24.8809 8.50967 25.2466 8.79533C25.3699 8.88608 25.4867 8.9833 25.61 9.087C25.8437 9.28145 26.0708 9.49533 26.2591 9.73515C26.3824 9.8583 26.5057 9.98793 26.6225 10.1176C26.7393 10.2472 26.8626 10.3833 26.973 10.5194C27.2038 10.7888 27.4204 11.0701 27.622 11.362C28.0209 11.9523 28.3621 12.5796 28.6409 13.2351C28.7123 13.4037 28.7772 13.5657 28.8421 13.7342C28.907 13.9027 28.9654 14.0777 29.0173 14.2463C29.1758 14.7708 29.2972 15.3057 29.3808 15.8472C29.4145 16.0294 29.4384 16.2133 29.4522 16.3981C29.5053 16.904 29.5227 17.413 29.5041 17.9213C29.5041 18.025 29.5041 18.1287 29.5041 18.2259C29.5041 18.3231 29.5041 18.4787 29.5041 18.6018C29.5041 18.725 29.4716 18.9064 29.4457 19.0555C29.4197 19.2046 29.4457 19.2759 29.3938 19.3861L29.3548 19.6064C29.3302 19.7598 29.2955 19.9113 29.251 20.0601C28.6738 22.4733 27.2979 24.6212 25.3462 26.1562C23.3945 27.6913 20.9812 28.5236 18.4969 28.5185H18.3606C15.4581 28.4827 12.6867 27.306 10.647 25.2435C8.60722 23.181 7.46353 20.3988 7.46375 17.5Z" fill="#CBFB45" />
		<path opacity="0.5" d="M19.5093 14.9074H16.5498V16.8518H19.5093C19.7567 16.8501 19.9934 16.7513 20.1683 16.5766C20.3432 16.4019 20.4422 16.1655 20.4439 15.9185V15.8407C20.4422 15.5937 20.3432 15.3573 20.1683 15.1826C19.9934 15.008 19.7567 14.9091 19.5093 14.9074ZM19.5093 14.9074H16.5498V16.8518H19.5093C19.7567 16.8501 19.9934 16.7513 20.1683 16.5766C20.3432 16.4019 20.4422 16.1655 20.4439 15.9185V15.8407C20.4422 15.5937 20.3432 15.3573 20.1683 15.1826C19.9934 15.008 19.7567 14.9091 19.5093 14.9074ZM19.5093 14.9074H16.5498V16.8518H19.5093C19.7567 16.8501 19.9934 16.7513 20.1683 16.5766C20.3432 16.4019 20.4422 16.1655 20.4439 15.9185V15.8407C20.4422 15.5937 20.3432 15.3573 20.1683 15.1826C19.9934 15.008 19.7567 14.9091 19.5093 14.9074ZM20.1194 18.1481H16.5498V20.0926H20.1194C20.3776 20.0926 20.6252 19.9901 20.8078 19.8078C20.9903 19.6255 21.0929 19.3782 21.0929 19.1204C21.0929 18.8625 20.9903 18.6152 20.8078 18.4329C20.6252 18.2506 20.3776 18.1481 20.1194 18.1481ZM20.1194 18.1481H16.5498V20.0926H20.1194C20.3776 20.0926 20.6252 19.9901 20.8078 19.8078C20.9903 19.6255 21.0929 19.3782 21.0929 19.1204C21.0929 18.8625 20.9903 18.6152 20.8078 18.4329C20.6252 18.2506 20.3776 18.1481 20.1194 18.1481ZM19.5093 14.9074H16.5498V16.8518H19.5093C19.7567 16.8501 19.9934 16.7513 20.1683 16.5766C20.3432 16.4019 20.4422 16.1655 20.4439 15.9185V15.8407C20.4422 15.5937 20.3432 15.3573 20.1683 15.1826C19.9934 15.008 19.7567 14.9091 19.5093 14.9074ZM20.4439 15.9185V15.8407C20.4422 15.5937 20.3432 15.3573 20.1683 15.1826C19.9934 15.008 19.7567 14.9091 19.5093 14.9074H16.5498V16.8518H19.5093C19.7567 16.8501 19.9934 16.7513 20.1683 16.5766C20.3432 16.4019 20.4422 16.1655 20.4439 15.9185ZM20.1194 18.1481H16.5498V20.0926H20.1194C20.3776 20.0926 20.6252 19.9901 20.8078 19.8078C20.9903 19.6255 21.0929 19.3782 21.0929 19.1204C21.0929 18.8625 20.9903 18.6152 20.8078 18.4329C20.6252 18.2506 20.3776 18.1481 20.1194 18.1481ZM18.4969 8.42591C16.6998 8.42591 14.9431 8.9581 13.4489 9.95517C11.9547 10.9522 10.7901 12.3694 10.1024 14.0275C9.41467 15.6856 9.23474 17.5101 9.58533 19.2702C9.93592 21.0304 10.8013 22.6473 12.072 23.9163C13.3427 25.1854 14.9617 26.0496 16.7243 26.3997C18.4868 26.7498 20.3137 26.5701 21.974 25.8833C23.6342 25.1965 25.0533 24.0335 26.0517 22.5413C27.0501 21.049 27.583 19.2947 27.583 17.5C27.583 15.0934 26.6257 12.7854 24.9217 11.0836C23.2177 9.38193 20.9067 8.42591 18.4969 8.42591ZM20.1194 21.3889H19.7949V22.037C19.7949 22.2089 19.7265 22.3738 19.6048 22.4953C19.4831 22.6169 19.318 22.6852 19.1459 22.6852C18.9737 22.6852 18.8087 22.6169 18.687 22.4953C18.5652 22.3738 18.4969 22.2089 18.4969 22.037V21.3889H17.1988V22.037C17.1988 22.2089 17.1305 22.3738 17.0088 22.4953C16.887 22.6169 16.722 22.6852 16.5498 22.6852C16.3777 22.6852 16.2126 22.6169 16.0909 22.4953C15.9692 22.3738 15.9008 22.2089 15.9008 22.037V21.3889H15.2518C15.0797 21.3889 14.9146 21.3206 14.7929 21.199C14.6712 21.0775 14.6028 20.9126 14.6028 20.7407C14.6028 20.5688 14.6712 20.404 14.7929 20.2824C14.9146 20.1609 15.0797 20.0926 15.2518 20.0926V14.9074C15.0797 14.9074 14.9146 14.8391 14.7929 14.7176C14.6712 14.596 14.6028 14.4311 14.6028 14.2592C14.6028 14.0873 14.6712 13.9225 14.7929 13.8009C14.9146 13.6794 15.0797 13.6111 15.2518 13.6111H15.9008V12.9629C15.9008 12.791 15.9692 12.6262 16.0909 12.5046C16.2126 12.3831 16.3777 12.3148 16.5498 12.3148C16.722 12.3148 16.887 12.3831 17.0088 12.5046C17.1305 12.6262 17.1988 12.791 17.1988 12.9629V13.6111H18.4969V12.9629C18.4969 12.791 18.5652 12.6262 18.687 12.5046C18.8087 12.3831 18.9737 12.3148 19.1459 12.3148C19.318 12.3148 19.4831 12.3831 19.6048 12.5046C19.7265 12.6262 19.7949 12.791 19.7949 12.9629V13.6111C20.3329 13.6804 20.8272 13.9429 21.1856 14.3497C21.5439 14.7564 21.7416 15.2795 21.7419 15.8213V15.8991C21.7461 16.3644 21.6005 16.8189 21.3265 17.1954C21.655 17.3975 21.9256 17.6809 22.112 18.0182C22.2985 18.3554 22.3946 18.7351 22.3909 19.1204C22.3909 19.722 22.1516 20.299 21.7256 20.7244C21.2996 21.1499 20.7218 21.3889 20.1194 21.3889ZM20.4439 15.9185V15.8407C20.4422 15.5937 20.3432 15.3573 20.1683 15.1826C19.9934 15.008 19.7567 14.9091 19.5093 14.9074H16.5498V16.8518H19.5093C19.7567 16.8501 19.9934 16.7513 20.1683 16.5766C20.3432 16.4019 20.4422 16.1655 20.4439 15.9185ZM20.1194 18.1481H16.5498V20.0926H20.1194C20.3776 20.0926 20.6252 19.9901 20.8078 19.8078C20.9903 19.6255 21.0929 19.3782 21.0929 19.1204C21.0929 18.8625 20.9903 18.6152 20.8078 18.4329C20.6252 18.2506 20.3776 18.1481 20.1194 18.1481ZM20.1194 18.1481H16.5498V20.0926H20.1194C20.3776 20.0926 20.6252 19.9901 20.8078 19.8078C20.9903 19.6255 21.0929 19.3782 21.0929 19.1204C21.0929 18.8625 20.9903 18.6152 20.8078 18.4329C20.6252 18.2506 20.3776 18.1481 20.1194 18.1481ZM19.5093 14.9074H16.5498V16.8518H19.5093C19.7567 16.8501 19.9934 16.7513 20.1683 16.5766C20.3432 16.4019 20.4422 16.1655 20.4439 15.9185V15.8407C20.4422 15.5937 20.3432 15.3573 20.1683 15.1826C19.9934 15.008 19.7567 14.9091 19.5093 14.9074ZM19.5093 14.9074H16.5498V16.8518H19.5093C19.7567 16.8501 19.9934 16.7513 20.1683 16.5766C20.3432 16.4019 20.4422 16.1655 20.4439 15.9185V15.8407C20.4422 15.5937 20.3432 15.3573 20.1683 15.1826C19.9934 15.008 19.7567 14.9091 19.5093 14.9074ZM20.1194 18.1481H16.5498V20.0926H20.1194C20.3776 20.0926 20.6252 19.9901 20.8078 19.8078C20.9903 19.6255 21.0929 19.3782 21.0929 19.1204C21.0929 18.8625 20.9903 18.6152 20.8078 18.4329C20.6252 18.2506 20.3776 18.1481 20.1194 18.1481ZM20.1194 18.1481H16.5498V20.0926H20.1194C20.3776 20.0926 20.6252 19.9901 20.8078 19.8078C20.9903 19.6255 21.0929 19.3782 21.0929 19.1204C21.0929 18.8625 20.9903 18.6152 20.8078 18.4329C20.6252 18.2506 20.3776 18.1481 20.1194 18.1481ZM19.5093 14.9074H16.5498V16.8518H19.5093C19.7567 16.8501 19.9934 16.7513 20.1683 16.5766C20.3432 16.4019 20.4422 16.1655 20.4439 15.9185V15.8407C20.4422 15.5937 20.3432 15.3573 20.1683 15.1826C19.9934 15.008 19.7567 14.9091 19.5093 14.9074ZM19.5093 14.9074H16.5498V16.8518H19.5093C19.7567 16.8501 19.9934 16.7513 20.1683 16.5766C20.3432 16.4019 20.4422 16.1655 20.4439 15.9185V15.8407C20.4422 15.5937 20.3432 15.3573 20.1683 15.1826C19.9934 15.008 19.7567 14.9091 19.5093 14.9074Z" fill="#CBFB45" />
		<path d="M36.8054 3.75276L33.2359 0.187947C33.1446 0.0980116 33.0287 0.0370881 32.9028 0.0128642C32.7769 -0.0113598 32.6466 0.00220118 32.5284 0.051836C32.4099 0.10046 32.3085 0.183033 32.2369 0.289148C32.1652 0.395263 32.1267 0.520171 32.1261 0.648132V1.94443H18.8668C10.1441 1.94443 2.99205 8.86665 2.92065 17.3704C2.92065 17.6555 2.92065 17.9342 2.92065 18.2129C3.02761 20.3879 3.7209 22.4937 4.92726 24.3077C6.13362 26.1217 7.80825 27.5765 9.77419 28.5185C11.5232 29.3758 13.4463 29.8194 15.3946 29.8148H18.3541C21.14 29.7866 23.8392 28.8433 26.035 27.1307C28.2308 25.4181 29.8011 23.0314 30.5035 20.3389C30.549 20.1444 30.5944 19.95 30.6268 19.7555C30.6593 19.5611 30.6853 19.4315 30.7112 19.2694C30.7372 19.1074 30.7502 19.0102 30.7631 18.8741C30.7761 18.7379 30.7631 18.5759 30.8021 18.4204C30.812 18.2823 30.812 18.1436 30.8021 18.0055C30.8052 17.9862 30.8052 17.9665 30.8021 17.9472C30.8362 16.9576 30.7512 15.9675 30.549 14.9981C30.5165 14.8102 30.4711 14.6157 30.4192 14.4278C30.3672 14.2398 30.3153 14.0389 30.2569 13.8509C30.2039 13.662 30.1411 13.4759 30.0687 13.2935C30.0743 13.2745 30.0743 13.2542 30.0687 13.2352C29.8022 12.5085 29.4652 11.8095 29.0627 11.1481C29.0451 11.1077 29.021 11.0705 28.9913 11.0379C28.907 10.8954 28.8161 10.7592 28.7188 10.6166C28.6214 10.4741 28.4916 10.2926 28.3748 10.137C28.258 9.98147 28.1541 9.84535 28.0373 9.70276L27.9724 9.62498L27.6284 9.23609C27.6284 9.23609 27.6284 9.23609 27.6284 9.20369C27.6284 9.17128 27.4727 9.03517 27.3948 8.95091C27.3169 8.86665 27.3299 8.87961 27.2909 8.84721C27.2288 8.77751 27.1615 8.71252 27.0897 8.65276L26.8561 8.42591L26.7912 8.36758L26.7198 8.30924C26.5985 8.19198 26.4706 8.08162 26.3369 7.97869C26.3369 7.97869 26.1357 7.81665 26.0384 7.74535L25.915 7.64813L25.7787 7.54443L25.61 7.42128L25.5256 7.36295L25.4413 7.30461C25.2725 7.18795 25.1038 7.07776 24.9285 6.97406L24.5651 6.76665C24.4475 6.69547 24.3262 6.63057 24.2017 6.57221H24.1432L24.0134 6.48147H32.1261V7.77776C32.1267 7.90572 32.1652 8.03063 32.2369 8.13675C32.3085 8.24286 32.4099 8.32543 32.5284 8.37406C32.6466 8.42369 32.7769 8.43725 32.9028 8.41303C33.0287 8.38881 33.1446 8.32788 33.2359 8.23795L36.8054 4.67313C36.8662 4.61288 36.9145 4.54119 36.9475 4.46221C36.9804 4.38323 36.9974 4.29851 36.9974 4.21295C36.9974 4.12738 36.9804 4.04267 36.9475 3.96368C36.9145 3.8847 36.8662 3.81302 36.8054 3.75276ZM33.4241 6.21572V5.83332C33.4241 5.66142 33.3557 5.49656 33.234 5.37501C33.1123 5.25346 32.9472 5.18517 32.7751 5.18517H18.4969C18.3247 5.18517 18.1597 5.25346 18.0379 5.37501C17.9162 5.49656 17.8479 5.66142 17.8479 5.83332C17.8479 6.00522 17.9162 6.17008 18.0379 6.29163C18.1597 6.41318 18.3247 6.48147 18.4969 6.48147C18.8719 6.48133 19.2467 6.5008 19.6197 6.5398C19.9421 6.57097 20.2626 6.61856 20.5802 6.68239L21.0475 6.77961C21.506 6.88836 21.957 7.02692 22.3974 7.19443C22.6961 7.30362 22.9886 7.42911 23.2736 7.57035C23.5563 7.70187 23.8315 7.84901 24.0978 8.01109C24.5019 8.24023 24.8861 8.50255 25.2466 8.79535C25.3699 8.88609 25.4867 8.98332 25.61 9.08702C25.8436 9.28147 26.0708 9.49535 26.259 9.73517C26.3097 9.77716 26.3574 9.82265 26.4018 9.87128C26.4805 9.94861 26.5542 10.0309 26.6225 10.1176C26.7481 10.2436 26.8652 10.3778 26.9729 10.5194C27.2083 10.7852 27.4251 11.0667 27.6219 11.362C28.0293 11.9472 28.371 12.5754 28.6409 13.2352C28.7174 13.3976 28.7846 13.5642 28.8421 13.7342C28.907 13.9028 28.9654 14.0778 29.0173 14.2463C29.1805 14.7695 29.302 15.3048 29.3807 15.8472C29.4145 16.0294 29.4383 16.2133 29.4521 16.3981C29.5053 16.904 29.5227 17.413 29.5041 17.9213C29.5041 18.025 29.5041 18.1287 29.5041 18.2259C29.5041 18.3231 29.5041 18.4787 29.5041 18.6018C29.5041 18.725 29.4716 18.9065 29.4456 19.0555C29.4197 19.2046 29.4457 19.2759 29.3937 19.3861L29.3548 19.6065C29.3548 19.762 29.2899 19.9111 29.2509 20.0602C28.616 22.4678 27.206 24.6001 25.2381 26.1286C23.2701 27.657 20.8535 28.4968 18.3606 28.5185H15.3946C14.2961 28.519 13.2033 28.3619 12.1496 28.0518C9.95897 27.4344 8.01713 26.1471 6.59693 24.3707C5.17674 22.5944 4.34956 20.4182 4.23165 18.1481C4.23165 17.8954 4.23165 17.6361 4.23165 17.3704C4.28357 9.58609 10.858 3.24072 18.8668 3.24072H32.7751C32.9472 3.24072 33.1123 3.17244 33.234 3.05089C33.3557 2.92933 33.4241 2.76448 33.4241 2.59258V2.21017L35.4295 4.21295L33.4241 6.21572Z" fill="#CBFB45" />
		<path opacity="0.5" d="M33.4241 6.21572V5.83332C33.4241 5.66142 33.3557 5.49656 33.234 5.37501C33.1122 5.25345 32.9472 5.18517 32.775 5.18517H18.4968C15.8012 5.1846 13.1796 6.06619 11.0334 7.69501C8.88711 9.32383 7.33442 11.6101 6.61295 14.204C5.89147 16.7979 6.04096 19.5564 7.03854 22.0573C8.03611 24.5583 9.82681 26.6639 12.1366 28.0518C9.94838 27.4322 8.00939 26.1438 6.59167 24.3677C5.17395 22.5915 4.34867 20.4166 4.23163 18.1481C4.23163 17.8954 4.23163 17.6361 4.23163 17.3704C4.28355 9.58609 10.858 3.24072 18.8668 3.24072H32.775C32.9472 3.24072 33.1122 3.17244 33.234 3.05088C33.3557 2.92933 33.4241 2.76447 33.4241 2.59257V2.21017L35.4295 4.21294L33.4241 6.21572Z" fill="#CBFB45" />
		<path d="M25.8956 7.64813L26.0448 7.75832L25.8956 7.64813ZM34.0601 16.787C33.9544 14.6134 33.263 12.5086 32.059 10.6947C30.855 8.88085 29.183 7.42523 27.2195 6.48147C25.4706 5.62416 23.5474 5.1806 21.5991 5.18517H18.4969C18.3247 5.18517 18.1596 5.25346 18.0379 5.37501C17.9162 5.49656 17.8478 5.66142 17.8478 5.83332C17.8478 6.00522 17.9162 6.17008 18.0379 6.29163C18.1596 6.41318 18.3247 6.48147 18.4969 6.48147C18.8719 6.48133 19.2467 6.50081 19.6196 6.5398C19.942 6.57097 20.2626 6.61856 20.5802 6.68239L21.0475 6.77961C21.506 6.88836 21.957 7.02692 22.3974 7.19443C22.6961 7.30362 22.9886 7.42911 23.2736 7.57036C23.5563 7.70187 23.8315 7.84901 24.0978 8.0111C24.5018 8.24023 24.8861 8.50255 25.2465 8.79535C25.3699 8.8861 25.4867 8.98332 25.61 9.08702C25.8436 9.28147 26.0708 9.49536 26.259 9.73517C26.3097 9.77717 26.3574 9.82265 26.4018 9.87128C26.4805 9.94861 26.5542 10.0309 26.6224 10.1176C26.7481 10.2436 26.8652 10.3778 26.9729 10.5194C27.2082 10.7852 27.4251 11.0667 27.6219 11.362C28.0293 11.9472 28.371 12.5754 28.6409 13.2352C28.7174 13.3976 28.7846 13.5642 28.8421 13.7342C28.907 13.9028 28.9654 14.0778 29.0173 14.2463C29.1805 14.7695 29.302 15.3048 29.3807 15.8472C29.4145 16.0294 29.4383 16.2133 29.4521 16.3981C29.5053 16.904 29.5226 17.413 29.504 17.9213C29.504 18.025 29.504 18.1287 29.504 18.2259C29.504 18.3231 29.504 18.4787 29.504 18.6018C29.504 18.725 29.4716 18.9065 29.4456 19.0555C29.4197 19.2046 29.4456 19.2759 29.3937 19.3861L29.3548 19.6065C29.3548 19.762 29.2899 19.9111 29.2509 20.0602C28.616 22.4678 27.206 24.6001 25.238 26.1286C23.2701 27.657 20.8535 28.4968 18.3606 28.5185H4.86767V27.2222C4.86703 27.0942 4.82848 26.9693 4.75687 26.8632C4.68526 26.7571 4.5838 26.6745 4.46528 26.6259C4.34709 26.5763 4.21683 26.5627 4.09093 26.5869C3.96502 26.6112 3.84913 26.6721 3.75786 26.762L0.188314 30.3268C0.127483 30.3871 0.0792005 30.4588 0.0462512 30.5378C0.0133018 30.6167 -0.00366211 30.7015 -0.00366211 30.787C-0.00366211 30.8726 0.0133018 30.9573 0.0462512 31.0363C0.0792005 31.1153 0.127483 31.187 0.188314 31.2472L3.75786 34.812C3.81851 34.8721 3.89043 34.9196 3.9695 34.9519C4.04857 34.9841 4.13324 35.0005 4.21866 35C4.30379 35.0022 4.38826 34.9844 4.46528 34.9481C4.5838 34.8995 4.68526 34.8169 4.75687 34.7108C4.82848 34.6047 4.86703 34.4798 4.86767 34.3518V33.0555H18.1269C22.3139 33.0582 26.3371 31.4306 29.3418 28.5185C30.8151 27.1083 31.9923 25.4191 32.8046 23.5495C33.617 21.68 34.0482 19.6675 34.0731 17.6296C34.0731 17.3444 34.0666 17.0657 34.0601 16.787ZM18.1269 31.7592H4.21866C4.04653 31.7592 3.88145 31.8275 3.75974 31.9491C3.63803 32.0706 3.56965 32.2355 3.56965 32.4074V32.7898L1.56421 30.787L3.56965 28.7842V29.1667C3.56965 29.3385 3.63803 29.5034 3.75974 29.625C3.88145 29.7465 4.04653 29.8148 4.21866 29.8148H18.3541C21.14 29.7866 23.8392 28.8433 26.035 27.1307C28.2308 25.4181 29.8011 23.0314 30.5035 20.3389C30.549 20.1444 30.5944 19.95 30.6268 19.7555C30.6593 19.5611 30.6852 19.4315 30.7112 19.2694C30.7372 19.1074 30.7501 19.0102 30.7631 18.8741C30.7761 18.7379 30.7631 18.5759 30.8021 18.4204C30.8119 18.2823 30.8119 18.1436 30.8021 18.0055C30.8052 17.9862 30.8052 17.9665 30.8021 17.9472C30.8362 16.9576 30.7512 15.9675 30.549 14.9981C30.5165 14.8102 30.4711 14.6157 30.4191 14.4278C30.3672 14.2398 30.3153 14.0389 30.2569 13.8509C30.2039 13.662 30.1411 13.4759 30.0687 13.2935C30.0743 13.2745 30.0743 13.2542 30.0687 13.2352C29.8022 12.5085 29.4652 11.8095 29.0627 11.1481C29.0451 11.1077 29.021 11.0705 28.9913 11.0379C28.907 10.8954 28.8161 10.7592 28.7187 10.6167C28.6214 10.4741 28.4916 10.2926 28.3748 10.137C28.2579 9.98147 28.1541 9.84536 28.0373 9.70276L27.9724 9.62498L27.6284 9.2361C27.6284 9.2361 27.6284 9.2361 27.6284 9.20369C27.6284 9.17128 27.4726 9.03517 27.3948 8.95091C27.3169 8.86665 27.3299 8.87961 27.2909 8.84721C27.2288 8.77751 27.1615 8.71252 27.0897 8.65276L26.8561 8.42591L26.7912 8.36758L26.7198 8.30924C26.5985 8.19198 26.4706 8.08162 26.3369 7.97869C26.3369 7.97869 26.1357 7.81665 26.0383 7.74535L25.915 7.64813L25.7787 7.54443L25.61 7.42128L25.5256 7.36295L25.4413 7.30461C25.2725 7.18795 25.1038 7.07776 24.9285 6.97406C27.1004 7.60306 29.0219 8.89242 30.4259 10.6628C31.8299 12.4331 32.6465 14.5965 32.7621 16.8518C32.7621 17.1046 32.7621 17.3639 32.7621 17.6296C32.7102 25.4139 26.1357 31.7592 18.1269 31.7592ZM25.915 7.64813L26.0643 7.75832L25.915 7.64813Z" fill="#CBFB45" />
		<path opacity="0.5" d="M32.775 17.6231C32.7101 25.4139 26.1357 31.7592 18.1269 31.7592H4.21866C4.04653 31.7592 3.88145 31.8275 3.75974 31.9491C3.63802 32.0706 3.56965 32.2355 3.56965 32.4074V32.7898L1.56421 30.787L3.56965 28.7842V29.1666C3.56965 29.3385 3.63802 29.5034 3.75974 29.625C3.88145 29.7465 4.04653 29.8148 4.21866 29.8148H18.4969C21.2743 29.8165 23.971 28.8818 26.1502 27.1619C28.3293 25.4421 29.8632 23.0379 30.5035 20.3389C30.5489 20.1444 30.5944 19.95 30.6268 19.7555C30.6593 19.5611 30.6852 19.4315 30.7112 19.2694C30.7372 19.1074 30.7501 19.0102 30.7631 18.8741C30.7761 18.7379 30.7631 18.5759 30.8021 18.4204C30.8119 18.2823 30.8119 18.1436 30.8021 18.0055C30.8052 17.9862 30.8052 17.9665 30.8021 17.9472C30.8362 16.9576 30.7512 15.9675 30.5489 14.9981C30.5165 14.8102 30.4711 14.6157 30.4191 14.4278C30.375 14.2328 30.3208 14.0403 30.2569 13.8509C30.2039 13.662 30.1411 13.4759 30.0687 13.2935C30.0743 13.2745 30.0743 13.2542 30.0687 13.2352C29.8022 12.5085 29.4652 11.8095 29.0627 11.1481C29.0451 11.1077 29.021 11.0705 28.9913 11.0379C28.907 10.8954 28.8161 10.7592 28.7187 10.6167C28.6214 10.4741 28.4916 10.2926 28.3748 10.137C28.2579 9.98147 28.1541 9.84536 28.0373 9.70276L27.9724 9.62499L27.6284 9.2361C27.6284 9.2361 27.6284 9.2361 27.6284 9.20369C27.6284 9.17128 27.4726 9.03517 27.3948 8.95091C27.3169 8.86665 27.3299 8.87961 27.2909 8.84721C27.2288 8.77751 27.1615 8.71252 27.0897 8.65276L26.8561 8.42591L26.7912 8.36758L26.7198 8.30924C26.5985 8.19198 26.4706 8.08162 26.3369 7.97869C26.3369 7.97869 26.1357 7.81665 26.0383 7.74536L25.915 7.64813L25.7787 7.54443L25.61 7.42128L25.5256 7.36295L25.4412 7.30462C25.2725 7.18795 25.1038 7.07776 24.9285 6.97406C27.1004 7.60306 29.0219 8.89242 30.4259 10.6628C31.8299 12.4331 32.6465 14.5965 32.7621 16.8518C32.7686 17.0981 32.775 17.3574 32.775 17.6231Z" fill="#CBFB45" />
	</g>
	<defs>
		<clipPath id="clip0_62_263">
			<rect width="37" height="35" fill="white" />
		</clipPath>
	</defs>
</svg>
