<svg width="36" height="36" viewBox="0 0 36 36" fill="none" xmlns="http://www.w3.org/2000/svg">
	<g clip-path="url(#clip0_66_331)">
		<path d="M35.6207 7.77221L18.2636 0.0579279C18.1807 0.0206737 18.0909 0.00141144 18 0.00141144C17.9091 0.00141144 17.8193 0.0206737 17.7364 0.0579279L0.379286 7.77221C0.266496 7.82292 0.170724 7.90507 0.10345 8.00883C0.036177 8.11259 0.000258018 8.23355 0 8.35721L0 12.2144C0 12.3849 0.0677294 12.5484 0.188289 12.6689C0.308848 12.7895 0.472361 12.8572 0.642857 12.8572H35.3571C35.5276 12.8572 35.6912 12.7895 35.8117 12.6689C35.9323 12.5484 36 12.3849 36 12.2144V8.35721C35.9997 8.23355 35.9638 8.11259 35.8965 8.00883C35.8293 7.90507 35.7335 7.82292 35.6207 7.77221ZM34.7143 11.5715H1.28571V8.77507L18 1.34364L34.7143 8.77507V11.5715Z" fill="#CBFB45" />
		<path opacity="0.5" d="M18 1.34357L1.28571 8.77499V11.5714H34.7143V8.77499L18 1.34357ZM18 9.64285C17.4914 9.64285 16.9943 9.49204 16.5714 9.20949C16.1485 8.92694 15.8189 8.52533 15.6243 8.05547C15.4297 7.5856 15.3788 7.06857 15.478 6.56976C15.5772 6.07095 15.8221 5.61277 16.1817 5.25315C16.5413 4.89353 16.9995 4.64862 17.4983 4.54941C17.9971 4.45019 18.5142 4.50111 18.984 4.69573C19.4539 4.89036 19.8555 5.21995 20.1381 5.64282C20.4206 6.06568 20.5714 6.56284 20.5714 7.07142C20.5714 7.75341 20.3005 8.40746 19.8183 8.8897C19.336 9.37193 18.682 9.64285 18 9.64285Z" fill="#CBFB45" />
		<path d="M35.3571 31.5H0.642857C0.472361 31.5 0.308848 31.5677 0.188289 31.6883C0.0677294 31.8088 0 31.9724 0 32.1429L0 35.3571C0 35.5276 0.0677294 35.6912 0.188289 35.8117C0.308848 35.9323 0.472361 36 0.642857 36H35.3571C35.5276 36 35.6912 35.9323 35.8117 35.8117C35.9323 35.6912 36 35.5276 36 35.3571V32.1429C36 31.9724 35.9323 31.8088 35.8117 31.6883C35.6912 31.5677 35.5276 31.5 35.3571 31.5ZM34.7143 34.7143H1.28571V32.7857H34.7143V34.7143Z" fill="#CBFB45" />
		<path opacity="0.5" d="M34.7143 32.7857H1.28571V34.7143H34.7143V32.7857Z" fill="#CBFB45" />
		<path d="M24.4286 28.9286V28.2857H11.5714V28.9286C11.5714 29.0991 11.5037 29.2626 11.3831 29.3831C11.2626 29.5037 11.0991 29.5714 10.9286 29.5714H25.0714C24.9009 29.5714 24.7374 29.5037 24.6169 29.3831C24.4963 29.2626 24.4286 29.0991 24.4286 28.9286ZM34.0714 28.2857H1.92856C1.75807 28.2857 1.59455 28.3534 1.47399 28.474C1.35343 28.5946 1.28571 28.7581 1.28571 28.9286V32.1429C1.28571 32.3133 1.35343 32.4769 1.47399 32.5974C1.59455 32.718 1.75807 32.7857 1.92856 32.7857H34.0714C34.2419 32.7857 34.4054 32.718 34.526 32.5974C34.6465 32.4769 34.7143 32.3133 34.7143 32.1429V28.9286C34.7143 28.7581 34.6465 28.5946 34.526 28.474C34.4054 28.3534 34.2419 28.2857 34.0714 28.2857ZM2.57142 31.5V29.5714H33.4286V31.5H2.57142ZM24.4286 28.9286V28.2857H11.5714V28.9286C11.5714 29.0991 11.5037 29.2626 11.3831 29.3831C11.2626 29.5037 11.0991 29.5714 10.9286 29.5714H25.0714C24.9009 29.5714 24.7374 29.5037 24.6169 29.3831C24.4963 29.2626 24.4286 29.0991 24.4286 28.9286Z" fill="#CBFB45" />
		<path opacity="0.5" d="M33.4287 29.5714H2.57153V31.5H33.4287V29.5714Z" fill="#CBFB45" />
		<path d="M9.64296 25.155C9.43356 25.0976 9.21722 25.0695 9.0001 25.0714H5.14296C4.92585 25.0695 4.70951 25.0976 4.5001 25.155C3.94845 25.2975 3.45972 25.6191 3.11066 26.0694C2.76159 26.5197 2.57196 27.0731 2.57153 27.6429V28.9286C2.57153 29.0991 2.63926 29.2626 2.75982 29.3832C2.88038 29.5037 3.04389 29.5714 3.21439 29.5714H10.9287C11.0992 29.5714 11.2627 29.5037 11.3832 29.3832C11.5038 29.2626 11.5715 29.0991 11.5715 28.9286V27.6429C11.5711 27.0731 11.3815 26.5197 11.0324 26.0694C10.6833 25.6191 10.1946 25.2975 9.64296 25.155ZM3.85725 28.2857V27.6429C3.85725 27.3019 3.99271 26.9749 4.23382 26.7337C4.47494 26.4926 4.80197 26.3572 5.14296 26.3572H9.0001C9.3411 26.3572 9.66812 26.4926 9.90924 26.7337C10.1504 26.9749 10.2858 27.3019 10.2858 27.6429V28.2857H3.85725Z" fill="#CBFB45" />
		<path d="M10.9287 11.5714H3.21439C3.04389 11.5714 2.88038 11.6391 2.75982 11.7597C2.63926 11.8803 2.57153 12.0438 2.57153 12.2143V13.5C2.57196 14.0697 2.76159 14.6232 3.11066 15.0735C3.45972 15.5238 3.94845 15.8454 4.5001 15.9878C4.70951 16.0452 4.92585 16.0734 5.14296 16.0714H9.0001C9.21722 16.0734 9.43356 16.0452 9.64296 15.9878C10.1946 15.8454 10.6833 15.5238 11.0324 15.0735C11.3815 14.6232 11.5711 14.0697 11.5715 13.5V12.2143C11.5715 12.0438 11.5038 11.8803 11.3832 11.7597C11.2627 11.6391 11.0992 11.5714 10.9287 11.5714ZM10.2858 13.5C10.2858 13.841 10.1504 14.168 9.90924 14.4091C9.66812 14.6502 9.3411 14.7857 9.0001 14.7857H5.14296C4.80197 14.7857 4.47494 14.6502 4.23382 14.4091C3.99271 14.168 3.85725 13.841 3.85725 13.5V12.8571H10.2858V13.5Z" fill="#CBFB45" />
		<path d="M31.4999 25.155C31.2905 25.0976 31.0742 25.0695 30.857 25.0714H26.9999C26.7828 25.0695 26.5664 25.0976 26.357 25.155C25.8054 25.2975 25.3167 25.6191 24.9676 26.0694C24.6185 26.5197 24.4289 27.0731 24.4285 27.6429V28.9286C24.4285 29.0991 24.4962 29.2626 24.6168 29.3832C24.7373 29.5037 24.9008 29.5714 25.0713 29.5714H32.7856C32.9561 29.5714 33.1196 29.5037 33.2402 29.3832C33.3607 29.2626 33.4285 29.0991 33.4285 28.9286V27.6429C33.428 27.0731 33.2384 26.5197 32.8893 26.0694C32.5403 25.6191 32.0515 25.2975 31.4999 25.155ZM25.7142 28.2857V27.6429C25.7142 27.3019 25.8496 26.9749 26.0908 26.7337C26.3319 26.4926 26.6589 26.3572 26.9999 26.3572H30.857C31.198 26.3572 31.5251 26.4926 31.7662 26.7337C32.0073 26.9749 32.1428 27.3019 32.1428 27.6429V28.2857H25.7142Z" fill="#CBFB45" />
		<path d="M32.7856 11.5714H25.0713C24.9008 11.5714 24.7373 11.6391 24.6168 11.7597C24.4962 11.8803 24.4285 12.0438 24.4285 12.2143V13.5C24.4289 14.0697 24.6185 14.6232 24.9676 15.0735C25.3167 15.5238 25.8054 15.8454 26.357 15.9878C26.5664 16.0452 26.7828 16.0734 26.9999 16.0714H30.857C31.0742 16.0734 31.2905 16.0452 31.4999 15.9878C32.0515 15.8454 32.5403 15.5238 32.8893 15.0735C33.2384 14.6232 33.428 14.0697 33.4285 13.5V12.2143C33.4285 12.0438 33.3607 11.8803 33.2402 11.7597C33.1196 11.6391 32.9561 11.5714 32.7856 11.5714ZM32.1428 13.5C32.1428 13.841 32.0073 14.168 31.7662 14.4091C31.5251 14.6502 31.198 14.7857 30.857 14.7857H26.9999C26.6589 14.7857 26.3319 14.6502 26.0908 14.4091C25.8496 14.168 25.7142 13.841 25.7142 13.5V12.8571H32.1428V13.5Z" fill="#CBFB45" />
		<path d="M9 14.7857H5.14286C4.97236 14.7857 4.80885 14.8534 4.68829 14.974C4.56773 15.0946 4.5 15.2581 4.5 15.4286V25.7143C4.5 25.8848 4.56773 26.0483 4.68829 26.1688C4.80885 26.2894 4.97236 26.3571 5.14286 26.3571H9C9.1705 26.3571 9.33401 26.2894 9.45457 26.1688C9.57513 26.0483 9.64286 25.8848 9.64286 25.7143V15.4286C9.64286 15.2581 9.57513 15.0946 9.45457 14.974C9.33401 14.8534 9.1705 14.7857 9 14.7857ZM5.78571 25.0714V16.0714H8.35714V25.0714H5.78571Z" fill="#CBFB45" />
		<path d="M30.8571 14.7857H27C26.8295 14.7857 26.666 14.8534 26.5454 14.974C26.4249 15.0946 26.3571 15.2581 26.3571 15.4286V25.7143C26.3571 25.8848 26.4249 26.0483 26.5454 26.1688C26.666 26.2894 26.8295 26.3571 27 26.3571H30.8571C31.0276 26.3571 31.1912 26.2894 31.3117 26.1688C31.4323 26.0483 31.5 25.8848 31.5 25.7143V15.4286C31.5 15.2581 31.4323 15.0946 31.3117 14.974C31.1912 14.8534 31.0276 14.7857 30.8571 14.7857ZM27.6429 25.0714V16.0714H30.2143V25.0714H27.6429Z" fill="#CBFB45" />
		<g opacity="0.5">
			<path opacity="0.5" d="M24.4286 13.5V12.8571H11.5714V13.5C11.571 14.0697 11.3814 14.6232 11.0323 15.0735C10.6832 15.5238 10.1945 15.8454 9.64285 15.9879V25.155C10.1945 25.2974 10.6832 25.619 11.0323 26.0693C11.3814 26.5196 11.571 27.0731 11.5714 27.6428V28.2857H24.4286V27.6428C24.429 27.0731 24.6186 26.5196 24.9677 26.0693C25.3168 25.619 25.8055 25.2974 26.3571 25.155V15.9879C25.8055 15.8454 25.3168 15.5238 24.9677 15.0735C24.6186 14.6232 24.429 14.0697 24.4286 13.5ZM19.6071 25.0714H19.2857V25.7143C19.2857 25.8848 19.218 26.0483 19.0974 26.1688C18.9769 26.2894 18.8133 26.3571 18.6429 26.3571C18.4724 26.3571 18.3088 26.2894 18.1883 26.1688C18.0677 26.0483 18 25.8848 18 25.7143V25.0714H16.7143V25.7143C16.7143 25.8848 16.6466 26.0483 16.526 26.1688C16.4054 26.2894 16.2419 26.3571 16.0714 26.3571C15.9009 26.3571 15.7374 26.2894 15.6169 26.1688C15.4963 26.0483 15.4286 25.8848 15.4286 25.7143V25.0714H14.7857C14.6152 25.0714 14.4517 25.0037 14.3311 24.8831C14.2106 24.7626 14.1429 24.5991 14.1429 24.4286C14.1429 24.2581 14.2106 24.0946 14.3311 23.974C14.4517 23.8534 14.6152 23.7857 14.7857 23.7857V18.6429C14.6152 18.6429 14.4517 18.5751 14.3311 18.4546C14.2106 18.334 14.1429 18.1705 14.1429 18C14.1429 17.8295 14.2106 17.666 14.3311 17.5454C14.4517 17.4249 14.6152 17.3571 14.7857 17.3571H15.4286V16.7143C15.4286 16.5438 15.4963 16.3803 15.6169 16.2597C15.7374 16.1392 15.9009 16.0714 16.0714 16.0714C16.2419 16.0714 16.4054 16.1392 16.526 16.2597C16.6466 16.3803 16.7143 16.5438 16.7143 16.7143V17.3571H18V16.7143C18 16.5438 18.0677 16.3803 18.1883 16.2597C18.3088 16.1392 18.4724 16.0714 18.6429 16.0714C18.8133 16.0714 18.9769 16.1392 19.0974 16.2597C19.218 16.3803 19.2857 16.5438 19.2857 16.7143V17.3571C19.8186 17.4259 20.3083 17.6863 20.6632 18.0897C21.0181 18.4931 21.214 19.012 21.2143 19.5493V19.6264C21.2185 20.088 21.0742 20.5387 20.8029 20.9121C21.131 21.1143 21.4008 21.3985 21.5857 21.7366C21.7706 22.0748 21.8641 22.4553 21.8571 22.8407C21.8521 23.4341 21.6128 24.0015 21.1914 24.4192C20.7699 24.837 20.2006 25.0714 19.6071 25.0714Z" fill="#CBFB45" />
			<path opacity="0.5" d="M20.5713 22.8214C20.5713 23.0772 20.4697 23.3224 20.2889 23.5033C20.108 23.6841 19.8628 23.7857 19.607 23.7857H16.0713V21.8571H19.607C19.8628 21.8571 20.108 21.9587 20.2889 22.1396C20.4697 22.3204 20.5713 22.5657 20.5713 22.8214Z" fill="#CBFB45" />
			<path opacity="0.5" d="M19.9285 19.5686V19.6457C19.9268 19.8907 19.8287 20.1252 19.6555 20.2984C19.4822 20.4717 19.2477 20.5697 19.0027 20.5714H16.0713V18.6429H19.0027C19.2477 18.6445 19.4822 18.7426 19.6555 18.9158C19.8287 19.0891 19.9268 19.3236 19.9285 19.5686Z" fill="#CBFB45" />
		</g>
	</g>
	<defs>
		<clipPath id="clip0_66_331">
			<rect width="36" height="36" fill="white" />
		</clipPath>
	</defs>
</svg>
