<svg width="77" height="30" viewBox="0 0 77 30" fill="none" xmlns="http://www.w3.org/2000/svg">
<rect width="77" height="30" rx="5" fill="#1E1E1F"/>
<path d="M44.7546 14.9787C44.7589 13.9729 44.3818 12.9658 43.6229 12.2068C42.8623 11.4462 41.8527 11.0695 40.8449 11.0755C40.8401 11.0755 40.8354 11.0752 40.8304 11.0752C38.6419 11.0752 36.906 12.8107 36.906 14.9997C36.906 17.1672 38.6633 18.924 40.8304 18.924C43.0194 18.924 44.7551 17.1882 44.7551 14.9997C44.7551 14.9925 44.7546 14.9858 44.7546 14.9787Z" fill="#F26E21"/>
<path d="M36.1763 16.6602C35.5898 17.2474 35.0484 17.4768 34.4653 17.4893C33.0447 17.4765 32.0003 16.4245 32.0003 14.9246C32.0003 14.1695 32.2861 13.5507 32.739 13.0221C33.1637 12.6189 33.7108 12.3584 34.3399 12.3584C35.0191 12.3584 35.5476 12.5848 36.151 13.1886V11.4528C35.5477 11.151 35.019 11 34.3399 11C33.3806 11.0686 32.476 11.4562 31.7821 12.0649C31.5821 12.2448 31.3905 12.4434 31.228 12.6708C30.7212 13.3277 30.4149 14.1321 30.4149 15.0003C30.4149 17.1887 32.1513 18.849 34.3398 18.849C34.3505 18.849 34.361 18.8481 34.3713 18.848C34.3861 18.8482 34.4006 18.849 34.4152 18.849C35.0189 18.849 35.5476 18.6984 36.2267 18.3965L36.1763 16.6602C36.1509 16.6857 36.2016 16.7094 36.1763 16.7335V16.6602Z" fill="white"/>
<path d="M49.7098 12.0811L48.0007 16.2833L46.0383 11.3018H44.4536L47.5478 18.9245H48.378L51.6233 11.3018H50.0386L49.7098 12.0811Z" fill="white"/>
<path d="M52.2268 14.6226V18.6984H56.3025H56.3776V17.4904H55.0947H53.7362V16.1323V15.4532H56.3025V14.1698H53.7362V12.585H56.3776V11.3018H52.2268V14.6226Z" fill="white"/>
<path d="M18.1136 11.3018H16V18.6984H18.1135C19.2454 18.6984 20.0755 18.3963 20.7547 17.8679C21.5848 17.1887 22.1133 16.1324 22.1133 15.0005C22.1134 12.8112 20.5282 11.3018 18.1136 11.3018ZM19.8493 16.8871C19.3964 17.2643 18.7927 17.4904 17.8869 17.4904H17.4341V12.5849H17.8114C18.7171 12.5849 19.3209 12.7358 19.7738 13.1885C20.3021 13.641 20.6041 14.3207 20.6041 15.0001C20.6796 15.6794 20.3777 16.4338 19.8493 16.8871Z" fill="white"/>
<path d="M24.2274 11.3008H22.7935V18.6972H24.2274V11.3008Z" fill="white"/>
<path d="M27.8495 14.1696C26.9439 13.8678 26.7172 13.6412 26.7172 13.264C26.7172 12.8111 27.1701 12.4338 27.7739 12.4338C28.2268 12.4338 28.6041 12.5848 28.9815 13.0377L29.7364 12.0566C29.1324 11.5281 28.378 11.2266 27.5477 11.2266C26.2644 11.2266 25.2077 12.1323 25.2077 13.3394C25.2077 14.3963 25.661 14.8491 27.0193 15.3774C27.6231 15.6035 27.8496 15.6792 28.0008 15.8302C28.3021 15.9809 28.4534 16.283 28.4534 16.5845C28.4534 17.1884 28.0008 17.6414 27.3211 17.6414C26.6413 17.6414 26.038 17.2641 25.7361 16.6602L24.8303 17.5659C25.5099 18.547 26.34 18.9998 27.3967 18.9998C28.906 18.9998 29.9621 18.0187 29.9621 16.5845C29.9623 15.3018 29.5099 14.7735 27.8495 14.1696Z" fill="white"/>
<path d="M60.4537 15.6036C61.5854 15.3775 62.1894 14.6225 62.1894 13.4907C62.1894 12.1324 61.2081 11.3018 59.548 11.3018H57.3591V18.6984H58.7931V15.7546H59.0198L61.057 18.6984H62.7931L60.4537 15.6036ZM59.2457 14.6979H58.7932V12.434H59.2457C60.1515 12.434 60.68 12.8112 60.68 13.5664C60.68 14.3208 60.1516 14.6979 59.2457 14.6979Z" fill="white"/>
</svg>
