<svg width="586" height="350" viewBox="0 0 586 350" fill="none" xmlns="http://www.w3.org/2000/svg">
<rect x="363" y="109" width="15" height="15" fill="#CBFB45"/>
<path d="M393.48 115.2C395.56 114.384 396.344 113.296 396.344 110.72H401.32V122H398.76V112.8L399.24 111.36H398.6C398.408 114.272 397.848 116.448 394.376 117.52L393.48 115.2ZM402.921 117.856H405.481C405.481 119.216 406.233 119.92 408.233 119.92C410.041 119.92 410.633 119.216 410.633 117.808C410.633 116.608 410.041 116 408.841 116C407.897 116 407.145 116.384 406.505 117.2L403.625 115.536V110.72H412.297V112.96H406.185V114.576L405.705 116.016L406.233 116.32C406.841 114.56 408.025 113.76 409.609 113.76C411.593 113.76 413.193 115.152 413.193 117.744C413.193 120.848 411.209 122.16 408.233 122.16C405.257 122.16 402.921 120.928 402.921 117.856ZM425.087 109.136L426.895 109.84L421.487 123.904L419.679 123.2L425.087 109.136ZM418.191 117.504C415.967 117.504 414.479 115.824 414.479 113.792C414.479 111.76 415.967 110.08 418.191 110.08C420.415 110.08 421.903 111.76 421.903 113.792C421.903 115.824 420.415 117.504 418.191 117.504ZM418.191 115.584C419.247 115.584 419.983 114.768 419.983 113.792C419.983 112.816 419.247 112 418.191 112C417.135 112 416.399 112.816 416.399 113.792C416.399 114.768 417.135 115.584 418.191 115.584ZM428.335 123.12C426.111 123.12 424.623 121.44 424.623 119.408C424.623 117.376 426.111 115.696 428.335 115.696C430.559 115.696 432.047 117.376 432.047 119.408C432.047 121.44 430.559 123.12 428.335 123.12ZM428.335 121.2C429.391 121.2 430.127 120.384 430.127 119.408C430.127 118.432 429.391 117.616 428.335 117.616C427.279 117.616 426.543 118.432 426.543 119.408C426.543 120.384 427.279 121.2 428.335 121.2ZM442.664 110.72C445.512 110.72 447.688 111.264 447.688 114.672C447.688 118.096 445.512 118.64 442.664 118.64H441.176V122H438.616V110.72H442.664ZM442.824 116.4C444.344 116.4 445.128 116.24 445.128 114.672C445.128 113.12 444.344 112.96 442.824 112.96H441.176V116.4H442.824ZM448.804 122V115.136C448.804 114.256 449.3 113.776 450.18 113.792L455.476 113.92V116.16L451.364 116.064V122H448.804ZM459.593 113.12C458.649 113.12 458.089 112.672 458.089 111.84C458.089 111.024 458.649 110.56 459.593 110.56C460.537 110.56 461.129 111.024 461.129 111.84C461.129 112.672 460.537 113.12 459.593 113.12ZM456.281 122V119.76H458.569V116.064L456.601 116.16V113.92L459.641 113.76C460.537 113.712 461.033 114.208 461.033 115.104V119.76H463.321V122H456.281ZM469.712 113.92H472.24L470.192 122H464.912L462.848 113.92H465.376L467.232 121.36H467.872L469.712 113.92ZM472.562 119.792C472.562 118.4 473.394 117.584 475.794 117.248L478.338 116.896C478.338 116.24 477.826 115.84 476.722 115.84C475.698 115.84 475.122 116.272 475.122 117.008H472.722C472.722 114.96 474.466 113.76 476.722 113.76C478.946 113.76 480.898 114.832 480.898 117.488V119.76H482.066V122H480.29C479.522 122 479.09 121.568 479.09 120.8V120.64L479.49 119.68H478.85C478.546 121.024 477.762 122.16 475.506 122.16C472.994 122.16 472.562 120.624 472.562 119.792ZM475.122 119.312C475.122 119.776 475.57 119.92 476.002 119.92C477.41 119.92 478.338 119.328 478.338 118.336L476.274 118.624C475.506 118.736 475.122 118.848 475.122 119.312ZM486.218 119.92L489.194 119.76V122L485.018 122.16C484.138 122.192 483.658 121.68 483.658 120.8V116.16H481.738V113.92H483.658V112.4L486.218 111.6V113.92H488.874V116.16H486.218V119.92ZM489.828 117.856C489.828 115.296 491.572 113.76 494.084 113.76C496.596 113.76 498.356 115.248 498.356 117.696V118.496H492.228C492.228 119.424 492.9 120.08 494.356 120.08C495.252 120.08 495.924 119.76 496.084 119.152H498.644C498.484 120.32 497.156 122.16 494.356 122.16C491.252 122.16 489.828 120.144 489.828 117.856ZM492.228 117.056H495.956C495.956 116.448 495.508 115.84 494.084 115.84C492.66 115.84 492.228 116.448 492.228 117.056ZM514.662 118.896C514.662 120.832 513.302 122.16 509.83 122.16C505.766 122.16 504.246 120.496 504.246 117.648H506.806C506.806 119.376 507.67 119.92 509.91 119.92C511.558 119.92 512.102 119.536 512.102 118.928C512.102 118.112 510.726 117.744 509.078 117.184C506.694 116.384 504.758 115.744 504.758 113.536C504.758 111.616 506.278 110.56 509.19 110.56C512.646 110.56 514.198 112.32 514.198 114.56H511.638C511.638 113.184 510.582 112.8 509.19 112.8C508.038 112.8 507.318 113.056 507.318 113.632C507.318 114.144 507.59 114.336 509.398 114.944C511.478 115.648 514.662 116.544 514.662 118.896ZM515.468 119.792C515.468 118.4 516.3 117.584 518.7 117.248L521.244 116.896C521.244 116.24 520.732 115.84 519.628 115.84C518.604 115.84 518.028 116.272 518.028 117.008H515.628C515.628 114.96 517.372 113.76 519.628 113.76C521.852 113.76 523.804 114.832 523.804 117.488V119.76H524.972V122H523.196C522.428 122 521.996 121.568 521.996 120.8V120.64L522.396 119.68H521.756C521.452 121.024 520.668 122.16 518.412 122.16C515.9 122.16 515.468 120.624 515.468 119.792ZM518.028 119.312C518.028 119.776 518.476 119.92 518.908 119.92C520.316 119.92 521.244 119.328 521.244 118.336L519.18 118.624C518.412 118.736 518.028 118.848 518.028 119.312ZM525.605 122V119.76H527.845V112.384L525.925 112.48V110.24L529.013 110.128C529.909 110.096 530.405 110.576 530.405 111.472V119.76H532.645V122H525.605ZM533.124 117.856C533.124 115.296 534.868 113.76 537.38 113.76C539.892 113.76 541.652 115.248 541.652 117.696V118.496H535.524C535.524 119.424 536.196 120.08 537.652 120.08C538.548 120.08 539.22 119.76 539.38 119.152H541.94C541.78 120.32 540.452 122.16 537.652 122.16C534.548 122.16 533.124 120.144 533.124 117.856ZM535.524 117.056H539.252C539.252 116.448 538.804 115.84 537.38 115.84C535.956 115.84 535.524 116.448 535.524 117.056Z" fill="white"/>
<rect x="363" y="152" width="15" height="15" fill="#96B837"/>
<path d="M393.48 158.2C395.56 157.384 396.344 156.296 396.344 153.72H401.32V165H398.76V155.8L399.24 154.36H398.6C398.408 157.272 397.848 159.448 394.376 160.52L393.48 158.2ZM402.921 160.856H405.481C405.481 162.216 406.233 162.92 408.233 162.92C410.041 162.92 410.633 162.216 410.633 160.808C410.633 159.608 410.041 159 408.841 159C407.897 159 407.145 159.384 406.505 160.2L403.625 158.536V153.72H412.297V155.96H406.185V157.576L405.705 159.016L406.233 159.32C406.841 157.56 408.025 156.76 409.609 156.76C411.593 156.76 413.193 158.152 413.193 160.744C413.193 163.848 411.209 165.16 408.233 165.16C405.257 165.16 402.921 163.928 402.921 160.856ZM425.087 152.136L426.895 152.84L421.487 166.904L419.679 166.2L425.087 152.136ZM418.191 160.504C415.967 160.504 414.479 158.824 414.479 156.792C414.479 154.76 415.967 153.08 418.191 153.08C420.415 153.08 421.903 154.76 421.903 156.792C421.903 158.824 420.415 160.504 418.191 160.504ZM418.191 158.584C419.247 158.584 419.983 157.768 419.983 156.792C419.983 155.816 419.247 155 418.191 155C417.135 155 416.399 155.816 416.399 156.792C416.399 157.768 417.135 158.584 418.191 158.584ZM428.335 166.12C426.111 166.12 424.623 164.44 424.623 162.408C424.623 160.376 426.111 158.696 428.335 158.696C430.559 158.696 432.047 160.376 432.047 162.408C432.047 164.44 430.559 166.12 428.335 166.12ZM428.335 164.2C429.391 164.2 430.127 163.384 430.127 162.408C430.127 161.432 429.391 160.616 428.335 160.616C427.279 160.616 426.543 161.432 426.543 162.408C426.543 163.384 427.279 164.2 428.335 164.2ZM442.664 153.72C445.512 153.72 447.688 154.264 447.688 157.672C447.688 161.096 445.512 161.64 442.664 161.64H441.176V165H438.616V153.72H442.664ZM442.824 159.4C444.344 159.4 445.128 159.24 445.128 157.672C445.128 156.12 444.344 155.96 442.824 155.96H441.176V159.4H442.824ZM453.04 162.92C454.432 162.92 455.344 162.184 455.344 159.912V156.92H457.904V165H455.344V164.024L455.824 162.584H455.184C454.864 164.024 453.856 165.16 452.128 165.16C450.064 165.16 448.816 163.784 448.816 161.288V156.92H451.376V160.888C451.376 162.36 451.808 162.92 453.04 162.92ZM459.351 165V153.24H461.911V157.416L461.431 158.856H462.071C462.487 157.784 463.255 156.76 465.255 156.76C467.591 156.76 468.759 158.664 468.759 160.952C468.759 163.24 467.591 165.16 465.255 165.16C463.255 165.16 462.487 164.136 462.071 163.064H461.431L461.911 164.504V165H459.351ZM461.911 160.952C461.911 162.312 462.679 162.92 464.055 162.92C465.431 162.92 466.199 162.312 466.199 160.952C466.199 159.592 465.431 159 464.055 159C462.679 159 461.911 159.592 461.911 160.952ZM469.402 165V162.76H471.642V155.384L469.722 155.48V153.24L472.81 153.128C473.706 153.096 474.202 153.576 474.202 154.472V162.76H476.442V165H469.402ZM480.561 156.12C479.617 156.12 479.057 155.672 479.057 154.84C479.057 154.024 479.617 153.56 480.561 153.56C481.505 153.56 482.097 154.024 482.097 154.84C482.097 155.672 481.505 156.12 480.561 156.12ZM477.249 165V162.76H479.537V159.064L477.569 159.16V156.92L480.609 156.76C481.505 156.712 482.001 157.208 482.001 158.104V162.76H484.289V165H477.249ZM484.765 160.952C484.765 158.264 486.605 156.76 489.181 156.76C491.389 156.76 493.405 157.96 493.517 160.264H490.957C490.861 159.544 490.205 159 489.181 159C487.965 159 487.325 159.72 487.325 160.952C487.325 162.2 487.965 162.92 489.181 162.92C490.205 162.92 490.861 162.376 490.957 161.656H493.517C493.405 163.96 491.389 165.16 489.181 165.16C486.605 165.16 484.765 163.656 484.765 160.952ZM509.537 161.896C509.537 163.832 508.177 165.16 504.705 165.16C500.641 165.16 499.121 163.496 499.121 160.648H501.681C501.681 162.376 502.545 162.92 504.785 162.92C506.433 162.92 506.977 162.536 506.977 161.928C506.977 161.112 505.601 160.744 503.953 160.184C501.569 159.384 499.633 158.744 499.633 156.536C499.633 154.616 501.153 153.56 504.065 153.56C507.521 153.56 509.073 155.32 509.073 157.56H506.513C506.513 156.184 505.457 155.8 504.065 155.8C502.913 155.8 502.193 156.056 502.193 156.632C502.193 157.144 502.465 157.336 504.273 157.944C506.353 158.648 509.537 159.544 509.537 161.896ZM510.343 162.792C510.343 161.4 511.175 160.584 513.575 160.248L516.119 159.896C516.119 159.24 515.607 158.84 514.503 158.84C513.479 158.84 512.903 159.272 512.903 160.008H510.503C510.503 157.96 512.247 156.76 514.503 156.76C516.727 156.76 518.679 157.832 518.679 160.488V162.76H519.847V165H518.071C517.303 165 516.871 164.568 516.871 163.8V163.64L517.271 162.68H516.631C516.327 164.024 515.543 165.16 513.287 165.16C510.775 165.16 510.343 163.624 510.343 162.792ZM512.903 162.312C512.903 162.776 513.351 162.92 513.783 162.92C515.191 162.92 516.119 162.328 516.119 161.336L514.055 161.624C513.287 161.736 512.903 161.848 512.903 162.312ZM520.48 165V162.76H522.72V155.384L520.8 155.48V153.24L523.888 153.128C524.784 153.096 525.28 153.576 525.28 154.472V162.76H527.52V165H520.48ZM527.999 160.856C527.999 158.296 529.743 156.76 532.255 156.76C534.767 156.76 536.527 158.248 536.527 160.696V161.496H530.399C530.399 162.424 531.071 163.08 532.527 163.08C533.423 163.08 534.095 162.76 534.255 162.152H536.815C536.655 163.32 535.327 165.16 532.527 165.16C529.423 165.16 527.999 163.144 527.999 160.856ZM530.399 160.056H534.127C534.127 159.448 533.679 158.84 532.255 158.84C530.831 158.84 530.399 159.448 530.399 160.056Z" fill="white"/>
<rect x="363" y="192" width="15" height="15" fill="#6E8727"/>
<path d="M393.48 198.2C395.56 197.384 396.344 196.296 396.344 193.72H401.32V205H398.76V195.8L399.24 194.36H398.6C398.408 197.272 397.848 199.448 394.376 200.52L393.48 198.2ZM402.921 200.856H405.481C405.481 202.216 406.233 202.92 408.233 202.92C410.041 202.92 410.633 202.216 410.633 200.808C410.633 199.608 410.041 199 408.841 199C407.897 199 407.145 199.384 406.505 200.2L403.625 198.536V193.72H412.297V195.96H406.185V197.576L405.705 199.016L406.233 199.32C406.841 197.56 408.025 196.76 409.609 196.76C411.593 196.76 413.193 198.152 413.193 200.744C413.193 203.848 411.209 205.16 408.233 205.16C405.257 205.16 402.921 203.928 402.921 200.856ZM425.087 192.136L426.895 192.84L421.487 206.904L419.679 206.2L425.087 192.136ZM418.191 200.504C415.967 200.504 414.479 198.824 414.479 196.792C414.479 194.76 415.967 193.08 418.191 193.08C420.415 193.08 421.903 194.76 421.903 196.792C421.903 198.824 420.415 200.504 418.191 200.504ZM418.191 198.584C419.247 198.584 419.983 197.768 419.983 196.792C419.983 195.816 419.247 195 418.191 195C417.135 195 416.399 195.816 416.399 196.792C416.399 197.768 417.135 198.584 418.191 198.584ZM428.335 206.12C426.111 206.12 424.623 204.44 424.623 202.408C424.623 200.376 426.111 198.696 428.335 198.696C430.559 198.696 432.047 200.376 432.047 202.408C432.047 204.44 430.559 206.12 428.335 206.12ZM428.335 204.2C429.391 204.2 430.127 203.384 430.127 202.408C430.127 201.432 429.391 200.616 428.335 200.616C427.279 200.616 426.543 201.432 426.543 202.408C426.543 203.384 427.279 204.2 428.335 204.2ZM448.552 201.896C448.552 203.832 447.192 205.16 443.72 205.16C439.656 205.16 438.136 203.496 438.136 200.648H440.696C440.696 202.376 441.56 202.92 443.8 202.92C445.448 202.92 445.992 202.536 445.992 201.928C445.992 201.112 444.616 200.744 442.968 200.184C440.584 199.384 438.648 198.744 438.648 196.536C438.648 194.616 440.168 193.56 443.08 193.56C446.536 193.56 448.088 195.32 448.088 197.56H445.528C445.528 196.184 444.472 195.8 443.08 195.8C441.928 195.8 441.208 196.056 441.208 196.632C441.208 197.144 441.48 197.336 443.288 197.944C445.368 198.648 448.552 199.544 448.552 201.896ZM453.515 202.92L456.491 202.76V205L452.315 205.16C451.435 205.192 450.955 204.68 450.955 203.8V199.16H449.035V196.92H450.955V195.4L453.515 194.6V196.92H456.171V199.16H453.515V202.92ZM457.453 202.792C457.453 201.4 458.285 200.584 460.685 200.248L463.229 199.896C463.229 199.24 462.717 198.84 461.613 198.84C460.589 198.84 460.013 199.272 460.013 200.008H457.613C457.613 197.96 459.357 196.76 461.613 196.76C463.837 196.76 465.789 197.832 465.789 200.488V202.76H466.957V205H465.181C464.413 205 463.981 204.568 463.981 203.8V203.64L464.381 202.68H463.741C463.437 204.024 462.653 205.16 460.397 205.16C457.885 205.16 457.453 203.624 457.453 202.792ZM460.013 202.312C460.013 202.776 460.461 202.92 460.893 202.92C462.301 202.92 463.229 202.328 463.229 201.336L461.165 201.624C460.397 201.736 460.013 201.848 460.013 202.312ZM474.265 205L472.249 201.88L470.473 202.712V205H467.913V193.24H470.473V200.072L474.169 198.376L474.137 196.92H476.697V198.68C476.697 199.448 476.393 199.944 475.689 200.28L474.441 200.856L477.177 205H474.265ZM481.124 196.12C480.18 196.12 479.62 195.672 479.62 194.84C479.62 194.024 480.18 193.56 481.124 193.56C482.068 193.56 482.66 194.024 482.66 194.84C482.66 195.672 482.068 196.12 481.124 196.12ZM477.812 205V202.76H480.1V199.064L478.132 199.16V196.92L481.172 196.76C482.068 196.712 482.564 197.208 482.564 198.104V202.76H484.852V205H477.812ZM490.683 199C489.291 199 488.379 199.736 488.379 202.008V205H485.819V196.92H488.379V197.896L487.899 199.336H488.539C488.859 197.896 489.867 196.76 491.595 196.76C493.659 196.76 494.907 198.136 494.907 200.632V205H492.347V201.032C492.347 199.56 491.915 199 490.683 199ZM505.495 196.92H506.199V199.16H505.655C505.415 199.16 505.127 199.16 504.903 199.304C504.999 199.432 505.127 199.8 505.127 200.232C505.127 201.752 503.703 202.712 501.479 203.464C503.319 203.352 505.031 203.832 505.031 205.544C505.031 207.928 502.231 208.2 496.231 208.2V205.96C501.463 205.96 502.455 205.88 502.455 205C502.455 203.816 499.559 204.344 497.079 204.76L496.807 203.32C498.647 203.128 500.311 202.936 501.783 202.584V201.944C498.823 203 495.703 202.568 495.703 199.912C495.703 197.784 497.719 196.76 500.263 196.76C501.495 196.76 502.615 197 503.463 197.624C503.943 197 504.775 196.92 505.495 196.92ZM500.423 201.144C501.959 201.144 502.567 200.76 502.567 200.072C502.567 199.4 501.959 199 500.423 199C498.887 199 498.263 199.4 498.263 200.072C498.263 200.76 498.887 201.144 500.423 201.144ZM511.804 205V193.72H516.172C518.86 193.72 521.196 194.344 521.196 196.872C521.196 198.728 519.692 199.24 518.332 199.4V200.04H519.98C520.86 200.04 521.34 200.52 521.34 201.4V205H518.78V201.032H514.364V205H511.804ZM514.364 198.792H516.172C517.692 198.792 518.636 198.792 518.636 197.384C518.636 195.96 517.692 195.96 516.172 195.96H514.364V198.792ZM522.296 200.856C522.296 198.296 524.04 196.76 526.552 196.76C529.064 196.76 530.824 198.248 530.824 200.696V201.496H524.696C524.696 202.424 525.368 203.08 526.824 203.08C527.72 203.08 528.392 202.76 528.552 202.152H531.112C530.952 203.32 529.624 205.16 526.824 205.16C523.72 205.16 522.296 203.144 522.296 200.856ZM524.696 200.056H528.424C528.424 199.448 527.976 198.84 526.552 198.84C525.128 198.84 524.696 199.448 524.696 200.056ZM531.426 196.92H533.874L534.914 204.36H535.554L536.178 196.92H541.522L542.146 204.36H542.786L543.842 196.92H546.274L545.138 205H539.794L539.17 197.56H538.53L537.906 205H532.562L531.426 196.92ZM546.593 202.792C546.593 201.4 547.425 200.584 549.825 200.248L552.369 199.896C552.369 199.24 551.857 198.84 550.753 198.84C549.729 198.84 549.153 199.272 549.153 200.008H546.753C546.753 197.96 548.497 196.76 550.753 196.76C552.977 196.76 554.929 197.832 554.929 200.488V202.76H556.097V205H554.321C553.553 205 553.121 204.568 553.121 203.8V203.64L553.521 202.68H552.881C552.577 204.024 551.793 205.16 549.537 205.16C547.025 205.16 546.593 203.624 546.593 202.792ZM549.153 202.312C549.153 202.776 549.601 202.92 550.033 202.92C551.441 202.92 552.369 202.328 552.369 201.336L550.305 201.624C549.537 201.736 549.153 201.848 549.153 202.312ZM557.054 205V198.136C557.054 197.256 557.55 196.776 558.43 196.792L563.726 196.92V199.16L559.614 199.064V205H557.054ZM573.782 205H571.222V204.504L571.702 203.064H571.062C570.646 204.136 569.878 205.16 567.878 205.16C565.542 205.16 564.374 203.24 564.374 200.952C564.374 198.664 565.542 196.76 567.878 196.76C569.878 196.76 570.646 197.784 571.062 198.856H571.702L571.222 197.416V193.24H573.782V205ZM571.222 200.952C571.222 199.592 570.454 199 569.078 199C567.702 199 566.934 199.592 566.934 200.952C566.934 202.312 567.702 202.92 569.078 202.92C570.454 202.92 571.222 202.312 571.222 200.952Z" fill="white"/>
<rect x="363" y="232" width="15" height="15" fill="#CFFA57"/>
<path d="M393.48 238.2C395.56 237.384 396.344 236.296 396.344 233.72H401.32V245H398.76V235.8L399.24 234.36H398.6C398.408 237.272 397.848 239.448 394.376 240.52L393.48 238.2ZM408.361 233.56C411.769 233.56 413.785 235.912 413.785 239.352C413.785 242.808 411.769 245.16 408.361 245.16C404.937 245.16 402.921 242.808 402.921 239.352C402.921 235.912 404.937 233.56 408.361 233.56ZM408.361 235.8C406.553 235.8 405.481 237.032 405.481 239.352C405.481 239.912 405.545 240.392 405.657 240.824L409.961 236.232C409.529 235.944 408.985 235.8 408.361 235.8ZM408.361 242.92C410.169 242.92 411.225 241.688 411.225 239.352C411.225 238.808 411.161 238.312 411.049 237.88L406.745 242.472C407.193 242.776 407.737 242.92 408.361 242.92ZM426.15 232.136L427.958 232.84L422.55 246.904L420.742 246.2L426.15 232.136ZM419.254 240.504C417.03 240.504 415.542 238.824 415.542 236.792C415.542 234.76 417.03 233.08 419.254 233.08C421.478 233.08 422.966 234.76 422.966 236.792C422.966 238.824 421.478 240.504 419.254 240.504ZM419.254 238.584C420.31 238.584 421.046 237.768 421.046 236.792C421.046 235.816 420.31 235 419.254 235C418.198 235 417.462 235.816 417.462 236.792C417.462 237.768 418.198 238.584 419.254 238.584ZM429.398 246.12C427.174 246.12 425.686 244.44 425.686 242.408C425.686 240.376 427.174 238.696 429.398 238.696C431.622 238.696 433.11 240.376 433.11 242.408C433.11 244.44 431.622 246.12 429.398 246.12ZM429.398 244.2C430.454 244.2 431.19 243.384 431.19 242.408C431.19 241.432 430.454 240.616 429.398 240.616C428.342 240.616 427.606 241.432 427.606 242.408C427.606 243.384 428.342 244.2 429.398 244.2ZM443.727 233.72C446.575 233.72 448.751 234.264 448.751 237.672C448.751 241.096 446.575 241.64 443.727 241.64H442.239V245H439.679V233.72H443.727ZM443.887 239.4C445.407 239.4 446.191 239.24 446.191 237.672C446.191 236.12 445.407 235.96 443.887 235.96H442.239V239.4H443.887ZM449.234 242.792C449.234 241.4 450.066 240.584 452.466 240.248L455.01 239.896C455.01 239.24 454.498 238.84 453.394 238.84C452.37 238.84 451.794 239.272 451.794 240.008H449.394C449.394 237.96 451.138 236.76 453.394 236.76C455.618 236.76 457.57 237.832 457.57 240.488V242.76H458.738V245H456.962C456.194 245 455.762 244.568 455.762 243.8V243.64L456.162 242.68H455.522C455.218 244.024 454.434 245.16 452.178 245.16C449.666 245.16 449.234 243.624 449.234 242.792ZM451.794 242.312C451.794 242.776 452.242 242.92 452.674 242.92C454.082 242.92 455.01 242.328 455.01 241.336L452.946 241.624C452.178 241.736 451.794 241.848 451.794 242.312ZM459.694 245V238.136C459.694 237.256 460.19 236.776 461.07 236.792L466.366 236.92V239.16L462.254 239.064V245H459.694ZM471.328 242.92L474.304 242.76V245L470.128 245.16C469.248 245.192 468.768 244.68 468.768 243.8V239.16H466.848V236.92H468.768V235.4L471.328 234.6V236.92H473.984V239.16H471.328V242.92ZM480.293 239C478.901 239 477.989 239.736 477.989 242.008V245H475.429V236.92H477.989V237.896L477.509 239.336H478.149C478.469 237.896 479.477 236.76 481.205 236.76C483.269 236.76 484.517 238.136 484.517 240.632V245H481.957V241.032C481.957 239.56 481.525 239 480.293 239ZM485.468 240.856C485.468 238.296 487.212 236.76 489.724 236.76C492.236 236.76 493.996 238.248 493.996 240.696V241.496H487.868C487.868 242.424 488.54 243.08 489.996 243.08C490.892 243.08 491.564 242.76 491.724 242.152H494.284C494.124 243.32 492.796 245.16 489.996 245.16C486.892 245.16 485.468 243.144 485.468 240.856ZM487.868 240.056H491.596C491.596 239.448 491.148 238.84 489.724 238.84C488.3 238.84 487.868 239.448 487.868 240.056ZM502.934 242.776C502.934 244.136 501.958 245.16 499.174 245.16C496.198 245.16 494.918 243.96 494.918 242.072H497.478C497.478 242.696 497.91 243.24 499.254 243.24C499.942 243.24 500.374 243.08 500.374 242.696C500.374 242.28 499.926 242.168 498.63 241.736C497.126 241.24 495.286 240.84 495.286 239.032C495.286 237.592 496.582 236.76 498.806 236.76C501.542 236.76 502.661 238.12 502.661 239.688H500.102C500.102 239.112 499.67 238.68 498.79 238.68C498.182 238.68 497.846 238.824 497.846 239.144C497.846 239.528 498.646 239.768 499.926 240.184C501.494 240.696 502.934 241.096 502.934 242.776ZM509.674 236.76C511.738 236.76 512.986 238.136 512.986 240.632V245H510.426V241.032C510.426 239.56 509.994 239 508.762 239C507.37 239 506.458 239.736 506.458 242.008V245H503.898V233.24H506.458V237.896L505.978 239.336H506.618C506.938 237.896 507.946 236.76 509.674 236.76ZM517.249 236.12C516.305 236.12 515.745 235.672 515.745 234.84C515.745 234.024 516.305 233.56 517.249 233.56C518.193 233.56 518.785 234.024 518.785 234.84C518.785 235.672 518.193 236.12 517.249 236.12ZM513.937 245V242.76H516.225V239.064L514.257 239.16V236.92L517.297 236.76C518.193 236.712 518.689 237.208 518.689 238.104V242.76H520.977V245H513.937ZM522.101 236.92H524.661V237.416L524.181 238.856H524.821C525.237 237.784 526.005 236.76 528.005 236.76C530.341 236.76 531.509 238.68 531.509 240.968C531.509 243.256 530.341 245.16 528.005 245.16C526.005 245.16 525.237 244.136 524.821 243.064H524.181L524.661 244.504V248.04H522.101V236.92ZM524.661 240.968C524.661 242.344 525.429 242.92 526.805 242.92C528.181 242.92 528.949 242.344 528.949 240.968C528.949 239.592 528.181 239 526.805 239C525.429 239 524.661 239.592 524.661 240.968ZM537.601 245V233.72H545.649V235.96H540.161V239.208L545.281 238.888V241.16L540.161 241.48V245H537.601ZM550.665 242.92C552.057 242.92 552.969 242.184 552.969 239.912V236.92H555.529V245H552.969V244.024L553.449 242.584H552.809C552.489 244.024 551.481 245.16 549.753 245.16C547.689 245.16 546.441 243.784 546.441 241.288V236.92H549.001V240.888C549.001 242.36 549.433 242.92 550.665 242.92ZM561.668 239C560.276 239 559.364 239.736 559.364 242.008V245H556.804V236.92H559.364V237.896L558.884 239.336H559.524C559.844 237.896 560.852 236.76 562.58 236.76C564.644 236.76 565.892 238.136 565.892 240.632V245H563.332V241.032C563.332 239.56 562.9 239 561.668 239ZM576.251 245H573.691V244.504L574.171 243.064H573.531C573.115 244.136 572.347 245.16 570.347 245.16C568.011 245.16 566.843 243.24 566.843 240.952C566.843 238.664 568.011 236.76 570.347 236.76C572.347 236.76 573.115 237.784 573.531 238.856H574.171L573.691 237.416V233.24H576.251V245ZM573.691 240.952C573.691 239.592 572.923 239 571.547 239C570.171 239 569.403 239.592 569.403 240.952C569.403 242.312 570.171 242.92 571.547 242.92C572.923 242.92 573.691 242.312 573.691 240.952ZM585.402 242.776C585.402 244.136 584.426 245.16 581.642 245.16C578.666 245.16 577.386 243.96 577.386 242.072H579.946C579.946 242.696 580.378 243.24 581.722 243.24C582.41 243.24 582.842 243.08 582.842 242.696C582.842 242.28 582.394 242.168 581.098 241.736C579.594 241.24 577.754 240.84 577.754 239.032C577.754 237.592 579.05 236.76 581.274 236.76C584.01 236.76 585.13 238.12 585.13 239.688H582.57C582.57 239.112 582.138 238.68 581.258 238.68C580.65 238.68 580.314 238.824 580.314 239.144C580.314 239.528 581.114 239.768 582.394 240.184C583.962 240.696 585.402 241.096 585.402 242.776Z" fill="white"/>
<rect x="363" y="272" width="15" height="15" fill="#DEEBBC"/>
<path d="M393.64 280.856C393.64 283.928 395.976 285.16 398.952 285.16C401.928 285.16 403.912 283.848 403.912 280.744C403.912 278.152 402.312 276.76 400.328 276.76C398.744 276.76 397.56 277.56 396.952 279.32L396.424 279.016L396.904 277.576V275.96H403.016V273.72H394.344V278.536L397.224 280.2C397.864 279.384 398.616 279 399.56 279C400.76 279 401.352 279.608 401.352 280.808C401.352 282.216 400.76 282.92 398.952 282.92C396.952 282.92 396.2 282.216 396.2 280.856H393.64ZM415.806 272.136L410.398 286.2L412.206 286.904L417.614 272.84L415.806 272.136ZM408.91 280.504C411.134 280.504 412.622 278.824 412.622 276.792C412.622 274.76 411.134 273.08 408.91 273.08C406.686 273.08 405.198 274.76 405.198 276.792C405.198 278.824 406.686 280.504 408.91 280.504ZM408.91 278.584C407.854 278.584 407.118 277.768 407.118 276.792C407.118 275.816 407.854 275 408.91 275C409.966 275 410.702 275.816 410.702 276.792C410.702 277.768 409.966 278.584 408.91 278.584ZM419.054 286.12C421.278 286.12 422.766 284.44 422.766 282.408C422.766 280.376 421.278 278.696 419.054 278.696C416.83 278.696 415.342 280.376 415.342 282.408C415.342 284.44 416.83 286.12 419.054 286.12ZM419.054 284.2C417.998 284.2 417.262 283.384 417.262 282.408C417.262 281.432 417.998 280.616 419.054 280.616C420.11 280.616 420.846 281.432 420.846 282.408C420.846 283.384 420.11 284.2 419.054 284.2ZM438.791 273.72H428.855V275.96H432.551V285H435.111V275.96H438.791V273.72ZM437.343 280.856C437.343 283.144 438.767 285.16 441.871 285.16C444.671 285.16 445.999 283.32 446.159 282.152H443.599C443.439 282.76 442.767 283.08 441.871 283.08C440.415 283.08 439.743 282.424 439.743 281.496H445.871V280.696C445.871 278.248 444.111 276.76 441.599 276.76C439.087 276.76 437.343 278.296 437.343 280.856ZM439.743 280.056C439.743 279.448 440.175 278.84 441.599 278.84C443.023 278.84 443.471 279.448 443.471 280.056H439.743ZM446.953 282.792C446.953 283.624 447.385 285.16 449.897 285.16C452.153 285.16 452.937 284.024 453.241 282.68H453.881L453.481 283.64V283.8C453.481 284.568 453.913 285 454.681 285H456.457V282.76H455.289V280.488C455.289 277.832 453.337 276.76 451.113 276.76C448.857 276.76 447.113 277.96 447.113 280.008H449.513C449.513 279.272 450.089 278.84 451.113 278.84C452.217 278.84 452.729 279.24 452.729 279.896L450.185 280.248C447.785 280.584 446.953 281.4 446.953 282.792ZM449.513 282.312C449.513 281.848 449.897 281.736 450.665 281.624L452.729 281.336C452.729 282.328 451.801 282.92 450.393 282.92C449.961 282.92 449.513 282.776 449.513 282.312ZM468.229 276.76C466.661 276.76 465.941 277.736 465.621 279.176H465.157C464.917 277.768 464.277 276.76 462.757 276.76C461.189 276.76 460.453 277.736 460.133 279.176H459.493L459.973 277.736V276.92H457.413V285H459.973V282.168C459.973 280.216 460.293 279 461.685 279C462.629 279 462.885 279.432 462.885 280.968V285H465.445V282.168C465.445 280.216 465.765 279 467.157 279C468.101 279 468.357 279.432 468.357 280.968V285H470.917V280.792C470.917 278.616 470.293 276.76 468.229 276.76ZM481.211 273.72H477.163V285H479.723V281.64H481.211C484.059 281.64 486.235 281.096 486.235 277.672C486.235 274.264 484.059 273.72 481.211 273.72ZM481.371 279.4H479.723V275.96H481.371C482.891 275.96 483.675 276.12 483.675 277.672C483.675 279.24 482.891 279.4 481.371 279.4ZM486.718 280.952C486.718 283.784 488.734 285.16 491.278 285.16C493.806 285.16 495.822 283.784 495.822 280.952C495.822 278.136 493.806 276.76 491.278 276.76C488.734 276.76 486.718 278.136 486.718 280.952ZM489.278 280.952C489.278 279.608 490.062 279 491.278 279C492.478 279 493.262 279.608 493.262 280.952C493.262 282.312 492.478 282.92 491.278 282.92C490.062 282.92 489.278 282.312 489.278 280.952ZM496.624 280.952C496.624 283.784 498.64 285.16 501.184 285.16C503.712 285.16 505.728 283.784 505.728 280.952C505.728 278.136 503.712 276.76 501.184 276.76C498.64 276.76 496.624 278.136 496.624 280.952ZM499.184 280.952C499.184 279.608 499.968 279 501.184 279C502.384 279 503.168 279.608 503.168 280.952C503.168 282.312 502.384 282.92 501.184 282.92C499.968 282.92 499.184 282.312 499.184 280.952ZM506.371 285H513.411V282.76H511.171V274.472C511.171 273.576 510.675 273.096 509.779 273.128L506.691 273.24V275.48L508.611 275.384V282.76H506.371V285Z" fill="white"/>
<path d="M175 0C202.772 3.31175e-07 230.145 6.60959 254.856 19.2824C279.568 31.9553 300.909 50.3275 317.115 72.8805L175 175V0Z" fill="#CBFB45"/>
<path d="M298.926 87.3266C310.359 103.461 318.546 121.665 323.029 140.926L174.5 175.5L298.926 87.3266Z" fill="#B8DB56"/>
<path d="M318.377 143.565C324.417 170.266 322.882 198.123 313.943 223.997C305.005 249.872 289.019 272.737 267.786 290.016L175 176L318.377 143.565Z" fill="#96B837"/>
<path d="M284.698 309.13C255.875 332.123 220.476 345.337 183.636 346.853C146.796 348.37 110.431 338.111 79.8157 317.564C49.2002 297.017 25.9264 267.251 13.3703 232.584C0.814095 197.917 -0.371508 160.151 9.98544 124.764L176.5 173.5L284.698 309.13Z" fill="#6E8727"/>
<path d="M35.132 131.132C44.8546 98.6516 65.5782 70.5677 93.7468 51.6991L175 173L35.132 131.132Z" fill="#CFFA57"/>
<path d="M109.447 73.6834C128.538 61.0823 150.857 54.2507 173.731 54.0068L175 173L109.447 73.6834Z" fill="#DEEBBC"/>
<circle cx="174" cy="173" r="50" fill="white"/>
<path d="M162.26 147.72V149.96H158.58V159H156.02V149.96H152.324V147.72H162.26ZM160.812 154.952C160.812 152.136 162.828 150.76 165.372 150.76C167.9 150.76 169.916 152.136 169.916 154.952C169.916 157.784 167.9 159.16 165.372 159.16C162.828 159.16 160.812 157.784 160.812 154.952ZM163.372 154.952C163.372 156.312 164.156 156.92 165.372 156.92C166.572 156.92 167.356 156.312 167.356 154.952C167.356 153.608 166.572 153 165.372 153C164.156 153 163.372 153.608 163.372 154.952ZM174.718 156.92L177.694 156.76V159L173.518 159.16C172.638 159.192 172.158 158.68 172.158 157.8V153.16H170.238V150.92H172.158V149.4L174.718 148.6V150.92H177.374V153.16H174.718V156.92ZM178.656 156.792C178.656 155.4 179.488 154.584 181.888 154.248L184.432 153.896C184.432 153.24 183.92 152.84 182.816 152.84C181.792 152.84 181.216 153.272 181.216 154.008H178.816C178.816 151.96 180.56 150.76 182.816 150.76C185.04 150.76 186.992 151.832 186.992 154.488V156.76H188.16V159H186.384C185.616 159 185.184 158.568 185.184 157.8V157.64L185.584 156.68H184.944C184.64 158.024 183.856 159.16 181.6 159.16C179.088 159.16 178.656 157.624 178.656 156.792ZM181.216 156.312C181.216 156.776 181.664 156.92 182.096 156.92C183.504 156.92 184.432 156.328 184.432 155.336L182.368 155.624C181.6 155.736 181.216 155.848 181.216 156.312ZM188.793 159V156.76H191.033V149.384L189.113 149.48V147.24L192.201 147.128C193.097 147.096 193.593 147.576 193.593 148.472V156.76H195.833V159H188.793ZM155.232 173.896C155.232 175.832 153.872 177.16 150.4 177.16C146.336 177.16 144.816 175.496 144.816 172.648H147.376C147.376 174.376 148.24 174.92 150.48 174.92C152.128 174.92 152.672 174.536 152.672 173.928C152.672 173.112 151.296 172.744 149.648 172.184C147.264 171.384 145.328 170.744 145.328 168.536C145.328 166.616 146.848 165.56 149.76 165.56C153.216 165.56 154.768 167.32 154.768 169.56H152.208C152.208 168.184 151.152 167.8 149.76 167.8C148.608 167.8 147.888 168.056 147.888 168.632C147.888 169.144 148.16 169.336 149.968 169.944C152.048 170.648 155.232 171.544 155.232 173.896ZM160.422 174.92C161.814 174.92 162.726 174.184 162.726 171.912V168.92H165.286V177H162.726V176.024L163.206 174.584H162.566C162.246 176.024 161.238 177.16 159.51 177.16C157.446 177.16 156.198 175.784 156.198 173.288V168.92H158.758V172.888C158.758 174.36 159.19 174.92 160.422 174.92ZM166.562 168.92H169.122V169.416L168.642 170.856H169.282C169.698 169.784 170.466 168.76 172.466 168.76C174.802 168.76 175.97 170.68 175.97 172.968C175.97 175.256 174.802 177.16 172.466 177.16C170.466 177.16 169.698 176.136 169.282 175.064H168.642L169.122 176.504V180.04H166.562V168.92ZM169.122 172.968C169.122 174.344 169.89 174.92 171.266 174.92C172.642 174.92 173.41 174.344 173.41 172.968C173.41 171.592 172.642 171 171.266 171C169.89 171 169.122 171.592 169.122 172.968ZM176.937 168.92H179.497V169.416L179.017 170.856H179.657C180.073 169.784 180.841 168.76 182.841 168.76C185.177 168.76 186.345 170.68 186.345 172.968C186.345 175.256 185.177 177.16 182.841 177.16C180.841 177.16 180.073 176.136 179.657 175.064H179.017L179.497 176.504V180.04H176.937V168.92ZM179.497 172.968C179.497 174.344 180.265 174.92 181.641 174.92C183.017 174.92 183.785 174.344 183.785 172.968C183.785 171.592 183.017 171 181.641 171C180.265 171 179.497 171.592 179.497 172.968ZM186.988 177V174.76H189.228V167.384L187.308 167.48V165.24L190.396 165.128C191.292 165.096 191.788 165.576 191.788 166.472V174.76H194.028V177H186.988ZM200.45 168.92H203.346L199.65 176.52V179.016C199.65 179.912 199.154 180.392 198.274 180.36L194.322 180.248V178.008L197.09 178.056V176.52L193.394 168.92H196.274L198.05 173.368V174.648H198.69V173.368L200.45 168.92ZM163.171 190.856H165.731C165.731 192.216 166.483 192.92 168.483 192.92C170.291 192.92 170.883 192.216 170.883 190.808C170.883 189.608 170.291 189 169.091 189C168.147 189 167.395 189.384 166.755 190.2L163.875 188.536V183.72H172.547V185.96H166.435V187.576L165.955 189.016L166.483 189.32C167.091 187.56 168.275 186.76 169.859 186.76C171.843 186.76 173.443 188.152 173.443 190.744C173.443 193.848 171.459 195.16 168.483 195.16C165.507 195.16 163.171 193.928 163.171 190.856ZM175.21 195V183.72H179.178C182.314 183.72 183.834 184.264 183.834 186.488C183.834 188.6 182.33 188.648 181.13 188.744V189.384C182.842 189.448 184.666 189.608 184.666 192.008C184.666 194.568 182.314 195 179.37 195H175.21ZM177.77 188.008H179.498C180.538 188.008 181.274 188.008 181.274 186.984C181.274 185.96 180.538 185.96 179.498 185.96H177.77V188.008ZM177.77 192.76H179.69C181.21 192.76 182.106 192.76 182.106 191.512C182.106 190.248 181.21 190.248 179.69 190.248H177.77V192.76Z" fill="black"/>
<rect x="225" y="185" width="86" height="24" rx="5" fill="#040404" fill-opacity="0.8"/>
<rect x="230" y="191" width="12" height="12" fill="#96B837"/>
<path d="M249.96 194.2H246.816V202H247.8V199.084H249.924C251.436 199.084 252.504 198.064 252.504 196.624C252.504 195.208 251.448 194.2 249.96 194.2ZM249.96 198.136H247.8V195.16H250.008C250.872 195.16 251.496 195.784 251.496 196.648C251.496 197.512 250.848 198.136 249.96 198.136ZM255.978 195.88C255.234 195.88 254.658 196.396 254.406 197.176L254.298 196H253.506V202H254.466V198.736C254.49 197.728 255.066 196.984 255.882 196.984C256.266 196.984 256.53 197.08 256.722 197.224L256.746 196.072C256.602 195.952 256.314 195.88 255.978 195.88ZM262.77 200.32L261.738 199.936C261.642 200.704 260.97 201.22 260.106 201.22C259.098 201.22 258.354 200.452 258.282 199.372H262.866C262.878 199.24 262.878 199.084 262.878 198.952C262.878 197.152 261.738 195.856 260.106 195.856C258.45 195.856 257.226 197.176 257.226 199C257.226 200.824 258.474 202.144 260.154 202.144C261.402 202.144 262.53 201.376 262.77 200.32ZM258.27 198.448C258.342 197.464 259.134 196.756 260.094 196.756C261.054 196.756 261.846 197.464 261.894 198.448H258.27ZM266.143 199.528C266.239 201.064 267.607 202.144 269.407 202.144C271.063 202.144 272.191 201.16 272.191 199.744C272.191 198.736 271.447 197.944 270.343 197.704L268.831 197.368C268.063 197.2 267.559 196.792 267.559 196.168C267.559 195.448 268.207 194.968 269.119 194.968C270.079 194.968 270.823 195.544 270.871 196.408L271.951 196.12C271.807 194.92 270.631 194.056 269.167 194.056C267.607 194.056 266.527 194.968 266.527 196.264C266.527 197.272 267.343 198.028 268.543 198.304L270.007 198.64C270.679 198.796 271.135 199.288 271.135 199.816C271.135 200.632 270.415 201.184 269.431 201.184C268.183 201.184 267.271 200.392 267.271 199.288L266.143 199.528ZM278.072 202L278.024 200.8V197.992C278.024 196.744 277.064 195.856 275.72 195.856C274.4 195.856 273.368 196.72 273.248 197.992L274.304 198.136C274.328 197.272 274.904 196.72 275.696 196.72C276.488 196.72 277.064 197.248 277.064 198.016V198.112C277.064 198.304 276.92 198.424 276.68 198.448L274.616 198.688C273.704 198.784 273.104 199.408 273.104 200.272C273.104 201.376 274.016 202.096 275.168 202.096C276.068 202.096 276.764 201.652 277.1 200.968L277.184 202H278.072ZM275.264 201.136C274.592 201.136 274.088 200.752 274.088 200.224C274.088 199.792 274.376 199.504 274.904 199.432L276.656 199.24C276.86 199.216 277.028 199.18 277.064 199.144V199.552C277.064 200.464 276.32 201.136 275.264 201.136ZM279.558 193.84V202H280.518V193.84H279.558ZM287.356 200.32L286.324 199.936C286.228 200.704 285.556 201.22 284.692 201.22C283.684 201.22 282.94 200.452 282.868 199.372H287.452C287.464 199.24 287.464 199.084 287.464 198.952C287.464 197.152 286.324 195.856 284.692 195.856C283.036 195.856 281.812 197.176 281.812 199C281.812 200.824 283.06 202.144 284.74 202.144C285.988 202.144 287.116 201.376 287.356 200.32ZM282.856 198.448C282.928 197.464 283.72 196.756 284.68 196.756C285.64 196.756 286.432 197.464 286.48 198.448H282.856ZM289.215 197.908C289.635 197.908 289.959 197.584 289.959 197.152C289.959 196.72 289.635 196.396 289.215 196.396C288.795 196.396 288.471 196.72 288.471 197.152C288.471 197.584 288.795 197.908 289.215 197.908ZM289.215 202.048C289.635 202.048 289.959 201.724 289.959 201.292C289.959 200.86 289.635 200.536 289.215 200.536C288.795 200.536 288.471 200.86 288.471 201.292C288.471 201.724 288.795 202.048 289.215 202.048ZM296.606 196.984L296.75 196.852L298.67 195.112V194.2H293.942V195.16H297.326L295.106 197.176L295.658 197.872C295.826 197.776 296.018 197.752 296.21 197.752C297.218 197.752 297.902 198.472 297.902 199.456C297.902 200.464 297.194 201.184 296.186 201.184C295.178 201.184 294.446 200.44 294.446 199.432V198.616H293.462V199.456C293.462 201.016 294.602 202.144 296.186 202.144C297.77 202.144 298.91 200.992 298.91 199.432C298.91 198.088 297.95 197.092 296.606 196.984ZM302.439 198.184C300.699 198.808 299.871 199.768 299.871 201.256V202H304.863V200.992H300.975C300.999 200.08 301.539 199.552 302.799 199.072C304.131 198.568 304.911 197.704 304.911 196.456C304.911 195.064 303.843 194.056 302.403 194.056C300.939 194.056 299.871 195.112 299.871 196.6C299.871 196.816 299.871 197.068 299.883 197.176L300.927 197.056C300.903 196.912 300.879 196.708 300.879 196.576C300.879 195.64 301.515 194.968 302.427 194.968C303.291 194.968 303.927 195.616 303.927 196.48C303.927 197.344 303.447 197.824 302.439 198.184Z" fill="white"/>
<path d="M298 209H284L291 215L298 209Z" fill="#040404" fill-opacity="0.6"/>
</svg>
