<svg width="613" height="350" viewBox="0 0 613 350" fill="none" xmlns="http://www.w3.org/2000/svg">
<rect x="381" y="247" width="15" height="15" fill="#CBFB45"/>
<path d="M411.48 253.2C413.56 252.384 414.344 251.296 414.344 248.72H419.32V260H416.76V250.8L417.24 249.36H416.6C416.408 252.272 415.848 254.448 412.376 255.52L411.48 253.2ZM426.361 248.56C429.769 248.56 431.785 250.912 431.785 254.352C431.785 257.808 429.769 260.16 426.361 260.16C422.937 260.16 420.921 257.808 420.921 254.352C420.921 250.912 422.937 248.56 426.361 248.56ZM426.361 250.8C424.553 250.8 423.481 252.032 423.481 254.352C423.481 254.912 423.545 255.392 423.657 255.824L427.961 251.232C427.529 250.944 426.985 250.8 426.361 250.8ZM426.361 257.92C428.169 257.92 429.225 256.688 429.225 254.352C429.225 253.808 429.161 253.312 429.049 252.88L424.745 257.472C425.193 257.776 425.737 257.92 426.361 257.92ZM444.15 247.136L445.958 247.84L440.55 261.904L438.742 261.2L444.15 247.136ZM437.254 255.504C435.03 255.504 433.542 253.824 433.542 251.792C433.542 249.76 435.03 248.08 437.254 248.08C439.478 248.08 440.966 249.76 440.966 251.792C440.966 253.824 439.478 255.504 437.254 255.504ZM437.254 253.584C438.31 253.584 439.046 252.768 439.046 251.792C439.046 250.816 438.31 250 437.254 250C436.198 250 435.462 250.816 435.462 251.792C435.462 252.768 436.198 253.584 437.254 253.584ZM447.398 261.12C445.174 261.12 443.686 259.44 443.686 257.408C443.686 255.376 445.174 253.696 447.398 253.696C449.622 253.696 451.11 255.376 451.11 257.408C451.11 259.44 449.622 261.12 447.398 261.12ZM447.398 259.2C448.454 259.2 449.19 258.384 449.19 257.408C449.19 256.432 448.454 255.616 447.398 255.616C446.342 255.616 445.606 256.432 445.606 257.408C445.606 258.384 446.342 259.2 447.398 259.2ZM462.163 260V248.72H467.203L468.851 259.36H469.491L471.139 248.72H476.179V260H473.619V250.96L474.099 249.36H473.459L471.651 260H466.691L464.883 249.36H464.243L464.723 250.96V260H462.163ZM477.296 257.792C477.296 256.4 478.128 255.584 480.528 255.248L483.072 254.896C483.072 254.24 482.56 253.84 481.456 253.84C480.432 253.84 479.856 254.272 479.856 255.008H477.456C477.456 252.96 479.2 251.76 481.456 251.76C483.68 251.76 485.632 252.832 485.632 255.488V257.76H486.8V260H485.024C484.256 260 483.824 259.568 483.824 258.8V258.64L484.224 257.68H483.584C483.28 259.024 482.496 260.16 480.24 260.16C477.728 260.16 477.296 258.624 477.296 257.792ZM479.856 257.312C479.856 257.776 480.304 257.92 480.736 257.92C482.144 257.92 483.072 257.328 483.072 256.336L481.008 256.624C480.24 256.736 479.856 256.848 479.856 257.312ZM487.757 260V253.136C487.757 252.256 488.253 251.776 489.133 251.792L494.429 251.92V254.16L490.317 254.064V260H487.757ZM495.078 255.856C495.078 253.296 496.822 251.76 499.334 251.76C501.846 251.76 503.606 253.248 503.606 255.696V256.496H497.478C497.478 257.424 498.15 258.08 499.606 258.08C500.502 258.08 501.174 257.76 501.334 257.152H503.894C503.734 258.32 502.406 260.16 499.606 260.16C496.502 260.16 495.078 258.144 495.078 255.856ZM497.478 255.056H501.206C501.206 254.448 500.758 253.84 499.334 253.84C497.91 253.84 497.478 254.448 497.478 255.056ZM511.203 260L509.187 256.88L507.411 257.712V260H504.851V248.24H507.411V255.072L511.107 253.376L511.075 251.92H513.635V253.68C513.635 254.448 513.331 254.944 512.627 255.28L511.379 255.856L514.115 260H511.203ZM518.921 257.92L521.897 257.76V260L517.721 260.16C516.841 260.192 516.361 259.68 516.361 258.8V254.16H514.441V251.92H516.361V250.4L518.921 249.6V251.92H521.577V254.16H518.921V257.92ZM526.171 251.12C525.227 251.12 524.667 250.672 524.667 249.84C524.667 249.024 525.227 248.56 526.171 248.56C527.115 248.56 527.707 249.024 527.707 249.84C527.707 250.672 527.115 251.12 526.171 251.12ZM522.859 260V257.76H525.147V254.064L523.179 254.16V251.92L526.219 251.76C527.115 251.712 527.611 252.208 527.611 253.104V257.76H529.899V260H522.859ZM535.73 254C534.338 254 533.426 254.736 533.426 257.008V260H530.866V251.92H533.426V252.896L532.946 254.336H533.586C533.906 252.896 534.914 251.76 536.642 251.76C538.706 251.76 539.954 253.136 539.954 255.632V260H537.394V256.032C537.394 254.56 536.962 254 535.73 254ZM550.541 251.92H551.245V254.16H550.701C550.461 254.16 550.173 254.16 549.949 254.304C550.045 254.432 550.173 254.8 550.173 255.232C550.173 256.752 548.749 257.712 546.525 258.464C548.365 258.352 550.077 258.832 550.077 260.544C550.077 262.928 547.277 263.2 541.277 263.2V260.96C546.509 260.96 547.501 260.88 547.501 260C547.501 258.816 544.605 259.344 542.125 259.76L541.853 258.32C543.693 258.128 545.357 257.936 546.829 257.584V256.944C543.869 258 540.749 257.568 540.749 254.912C540.749 252.784 542.765 251.76 545.309 251.76C546.541 251.76 547.661 252 548.509 252.624C548.989 252 549.821 251.92 550.541 251.92ZM545.469 256.144C547.005 256.144 547.613 255.76 547.613 255.072C547.613 254.4 547.005 254 545.469 254C543.933 254 543.309 254.4 543.309 255.072C543.309 255.76 543.933 256.144 545.469 256.144ZM570.947 260.224L568.931 261.6L566.979 259.104C565.843 259.792 564.435 260.16 562.819 260.16C559.315 260.16 557.011 258.688 557.011 255.84C557.011 253.664 558.627 252.752 560.051 252.752C561.075 252.752 561.747 253.184 562.259 253.744V253.104L559.699 249.824V248.72H568.435V250.96H563.219L567.107 255.632C567.587 254.752 567.843 253.664 567.843 252.4H570.403C570.403 254.48 569.811 256.256 568.739 257.584L570.947 260.224ZM562.819 257.92C563.891 257.92 564.803 257.696 565.539 257.264L564.579 256.032C563.603 254.784 562.755 254.288 561.587 254.288C560.467 254.288 559.571 254.848 559.571 255.936C559.571 257.296 560.691 257.92 562.819 257.92ZM420.604 266.72C423.612 266.72 426.748 267.504 426.748 272.352C426.748 277.216 423.612 278 420.604 278H416.444V266.72H420.604ZM420.604 275.76C422.604 275.76 424.188 275.6 424.188 272.352C424.188 269.12 422.604 268.96 420.604 268.96H419.004V275.76H420.604ZM427.546 273.856C427.546 271.296 429.29 269.76 431.802 269.76C434.314 269.76 436.074 271.248 436.074 273.696V274.496H429.946C429.946 275.424 430.618 276.08 432.074 276.08C432.97 276.08 433.642 275.76 433.802 275.152H436.362C436.202 276.32 434.874 278.16 432.074 278.16C428.97 278.16 427.546 276.144 427.546 273.856ZM429.946 273.056H433.674C433.674 272.448 433.226 271.84 431.802 271.84C430.378 271.84 429.946 272.448 429.946 273.056ZM443.54 269.92H446.068L444.02 278H438.74L436.676 269.92H439.204L441.06 277.36H441.7L443.54 269.92ZM446.39 273.856C446.39 271.296 448.134 269.76 450.646 269.76C453.158 269.76 454.918 271.248 454.918 273.696V274.496H448.79C448.79 275.424 449.462 276.08 450.918 276.08C451.814 276.08 452.486 275.76 452.646 275.152H455.206C455.046 276.32 453.718 278.16 450.918 278.16C447.814 278.16 446.39 276.144 446.39 273.856ZM448.79 273.056H452.518C452.518 272.448 452.07 271.84 450.646 271.84C449.222 271.84 448.79 272.448 448.79 273.056ZM455.839 278V275.76H458.079V268.384L456.159 268.48V266.24L459.247 266.128C460.143 266.096 460.639 266.576 460.639 267.472V275.76H462.879V278H455.839ZM463.359 273.952C463.359 271.136 465.375 269.76 467.919 269.76C470.447 269.76 472.463 271.136 472.463 273.952C472.463 276.784 470.447 278.16 467.919 278.16C465.375 278.16 463.359 276.784 463.359 273.952ZM465.919 273.952C465.919 275.312 466.703 275.92 467.919 275.92C469.119 275.92 469.903 275.312 469.903 273.952C469.903 272.608 469.119 272 467.919 272C466.703 272 465.919 272.608 465.919 273.952ZM473.429 269.92H475.989V270.416L475.509 271.856H476.149C476.565 270.784 477.333 269.76 479.333 269.76C481.669 269.76 482.837 271.68 482.837 273.968C482.837 276.256 481.669 278.16 479.333 278.16C477.333 278.16 476.565 277.136 476.149 276.064H475.509L475.989 277.504V281.04H473.429V269.92ZM475.989 273.968C475.989 275.344 476.757 275.92 478.133 275.92C479.509 275.92 480.277 275.344 480.277 273.968C480.277 272.592 479.509 272 478.133 272C476.757 272 475.989 272.592 475.989 273.968ZM494.776 269.76C496.84 269.76 497.464 271.616 497.464 273.792V278H494.904V273.968C494.904 272.432 494.648 272 493.704 272C492.312 272 491.992 273.216 491.992 275.168V278H489.432V273.968C489.432 272.432 489.176 272 488.232 272C486.84 272 486.52 273.216 486.52 275.168V278H483.96V269.92H486.52V270.736L486.04 272.176H486.68C487 270.736 487.736 269.76 489.304 269.76C490.824 269.76 491.464 270.768 491.704 272.176H492.168C492.488 270.736 493.208 269.76 494.776 269.76ZM498.421 273.856C498.421 271.296 500.165 269.76 502.677 269.76C505.189 269.76 506.949 271.248 506.949 273.696V274.496H500.821C500.821 275.424 501.493 276.08 502.949 276.08C503.845 276.08 504.517 275.76 504.677 275.152H507.237C507.077 276.32 505.749 278.16 502.949 278.16C499.845 278.16 498.421 276.144 498.421 273.856ZM500.821 273.056H504.549C504.549 272.448 504.101 271.84 502.677 271.84C501.253 271.84 500.821 272.448 500.821 273.056ZM513.215 272C511.823 272 510.911 272.736 510.911 275.008V278H508.351V269.92H510.911V270.896L510.431 272.336H511.071C511.391 270.896 512.399 269.76 514.127 269.76C516.191 269.76 517.439 271.136 517.439 273.632V278H514.879V274.032C514.879 272.56 514.447 272 513.215 272ZM522.718 275.92L525.694 275.76V278L521.518 278.16C520.638 278.192 520.158 277.68 520.158 276.8V272.16H518.238V269.92H520.158V268.4L522.718 267.6V269.92H525.374V272.16H522.718V275.92Z" fill="white"/>
<rect x="381" y="103" width="15" height="15" fill="#96B837"/>
<path d="M411.48 109.2C413.56 108.384 414.344 107.296 414.344 104.72H419.32V116H416.76V106.8L417.24 105.36H416.6C416.408 108.272 415.848 110.448 412.376 111.52L411.48 109.2ZM426.361 104.56C429.769 104.56 431.785 106.912 431.785 110.352C431.785 113.808 429.769 116.16 426.361 116.16C422.937 116.16 420.921 113.808 420.921 110.352C420.921 106.912 422.937 104.56 426.361 104.56ZM426.361 106.8C424.553 106.8 423.481 108.032 423.481 110.352C423.481 110.912 423.545 111.392 423.657 111.824L427.961 107.232C427.529 106.944 426.985 106.8 426.361 106.8ZM426.361 113.92C428.169 113.92 429.225 112.688 429.225 110.352C429.225 109.808 429.161 109.312 429.049 108.88L424.745 113.472C425.193 113.776 425.737 113.92 426.361 113.92ZM444.15 103.136L445.958 103.84L440.55 117.904L438.742 117.2L444.15 103.136ZM437.254 111.504C435.03 111.504 433.542 109.824 433.542 107.792C433.542 105.76 435.03 104.08 437.254 104.08C439.478 104.08 440.966 105.76 440.966 107.792C440.966 109.824 439.478 111.504 437.254 111.504ZM437.254 109.584C438.31 109.584 439.046 108.768 439.046 107.792C439.046 106.816 438.31 106 437.254 106C436.198 106 435.462 106.816 435.462 107.792C435.462 108.768 436.198 109.584 437.254 109.584ZM447.398 117.12C445.174 117.12 443.686 115.44 443.686 113.408C443.686 111.376 445.174 109.696 447.398 109.696C449.622 109.696 451.11 111.376 451.11 113.408C451.11 115.44 449.622 117.12 447.398 117.12ZM447.398 115.2C448.454 115.2 449.19 114.384 449.19 113.408C449.19 112.432 448.454 111.616 447.398 111.616C446.342 111.616 445.606 112.432 445.606 113.408C445.606 114.384 446.342 115.2 447.398 115.2ZM457.519 110.352C457.519 107.072 459.695 104.56 463.279 104.56C466.847 104.56 469.023 107.072 469.023 110.352C469.023 113.648 466.847 116.16 463.279 116.16C459.695 116.16 457.519 113.648 457.519 110.352ZM460.079 110.352C460.079 112.528 461.151 113.92 463.279 113.92C465.407 113.92 466.463 112.528 466.463 110.352C466.463 108.192 465.407 106.8 463.279 106.8C461.151 106.8 460.079 108.192 460.079 110.352ZM470.476 107.92H473.036V108.416L472.556 109.856H473.196C473.612 108.784 474.38 107.76 476.38 107.76C478.716 107.76 479.884 109.68 479.884 111.968C479.884 114.256 478.716 116.16 476.38 116.16C474.38 116.16 473.612 115.136 473.196 114.064H472.556L473.036 115.504V119.04H470.476V107.92ZM473.036 111.968C473.036 113.344 473.804 113.92 475.18 113.92C476.556 113.92 477.324 113.344 477.324 111.968C477.324 110.592 476.556 110 475.18 110C473.804 110 473.036 110.592 473.036 111.968ZM480.687 111.856C480.687 109.296 482.431 107.76 484.943 107.76C487.455 107.76 489.215 109.248 489.215 111.696V112.496H483.087C483.087 113.424 483.759 114.08 485.215 114.08C486.111 114.08 486.783 113.76 486.943 113.152H489.503C489.343 114.32 488.015 116.16 485.215 116.16C482.111 116.16 480.687 114.144 480.687 111.856ZM483.087 111.056H486.815C486.815 110.448 486.367 109.84 484.943 109.84C483.519 109.84 483.087 110.448 483.087 111.056ZM490.616 116V109.136C490.616 108.256 491.112 107.776 491.992 107.792L497.288 107.92V110.16L493.176 110.064V116H490.616ZM497.781 113.792C497.781 112.4 498.613 111.584 501.013 111.248L503.557 110.896C503.557 110.24 503.045 109.84 501.941 109.84C500.917 109.84 500.341 110.272 500.341 111.008H497.941C497.941 108.96 499.685 107.76 501.941 107.76C504.165 107.76 506.117 108.832 506.117 111.488V113.76H507.285V116H505.509C504.741 116 504.309 115.568 504.309 114.8V114.64L504.709 113.68H504.069C503.765 115.024 502.981 116.16 500.725 116.16C498.213 116.16 497.781 114.624 497.781 113.792ZM500.341 113.312C500.341 113.776 500.789 113.92 501.221 113.92C502.629 113.92 503.557 113.328 503.557 112.336L501.493 112.624C500.725 112.736 500.341 112.848 500.341 113.312ZM511.437 113.92L514.413 113.76V116L510.237 116.16C509.357 116.192 508.877 115.68 508.877 114.8V110.16H506.957V107.92H508.877V106.4L511.437 105.6V107.92H514.093V110.16H511.437V113.92ZM518.686 107.12C517.742 107.12 517.182 106.672 517.182 105.84C517.182 105.024 517.742 104.56 518.686 104.56C519.63 104.56 520.222 105.024 520.222 105.84C520.222 106.672 519.63 107.12 518.686 107.12ZM515.374 116V113.76H517.662V110.064L515.694 110.16V107.92L518.734 107.76C519.63 107.712 520.126 108.208 520.126 109.104V113.76H522.414V116H515.374ZM522.89 111.952C522.89 109.136 524.906 107.76 527.45 107.76C529.978 107.76 531.994 109.136 531.994 111.952C531.994 114.784 529.978 116.16 527.45 116.16C524.906 116.16 522.89 114.784 522.89 111.952ZM525.45 111.952C525.45 113.312 526.234 113.92 527.45 113.92C528.65 113.92 529.434 113.312 529.434 111.952C529.434 110.608 528.65 110 527.45 110C526.234 110 525.45 110.608 525.45 111.952ZM537.98 110C536.588 110 535.676 110.736 535.676 113.008V116H533.116V107.92H535.676V108.896L535.196 110.336H535.836C536.156 108.896 537.164 107.76 538.892 107.76C540.956 107.76 542.204 109.136 542.204 111.632V116H539.644V112.032C539.644 110.56 539.212 110 537.98 110ZM551.012 113.776C551.012 115.136 550.036 116.16 547.252 116.16C544.276 116.16 542.996 114.96 542.996 113.072H545.556C545.556 113.696 545.988 114.24 547.332 114.24C548.02 114.24 548.452 114.08 548.452 113.696C548.452 113.28 548.004 113.168 546.708 112.736C545.204 112.24 543.364 111.84 543.364 110.032C543.364 108.592 544.66 107.76 546.884 107.76C549.62 107.76 550.74 109.12 550.74 110.688H548.18C548.18 110.112 547.748 109.68 546.868 109.68C546.26 109.68 545.924 109.824 545.924 110.144C545.924 110.528 546.724 110.768 548.004 111.184C549.572 111.696 551.012 112.096 551.012 113.776Z" fill="white"/>
<rect x="381" y="151" width="15" height="15" fill="#6E8727"/>
<path d="M411.64 159.856H414.2C414.2 161.216 414.952 161.92 416.952 161.92C418.76 161.92 419.352 161.216 419.352 159.808C419.352 158.608 418.76 158 417.56 158C416.616 158 415.864 158.384 415.224 159.2L412.344 157.536V152.72H421.016V154.96H414.904V156.576L414.424 158.016L414.952 158.32C415.56 156.56 416.744 155.76 418.328 155.76C420.312 155.76 421.912 157.152 421.912 159.744C421.912 162.848 419.928 164.16 416.952 164.16C413.976 164.16 411.64 162.928 411.64 159.856ZM433.806 151.136L435.614 151.84L430.206 165.904L428.398 165.2L433.806 151.136ZM426.91 159.504C424.686 159.504 423.198 157.824 423.198 155.792C423.198 153.76 424.686 152.08 426.91 152.08C429.134 152.08 430.622 153.76 430.622 155.792C430.622 157.824 429.134 159.504 426.91 159.504ZM426.91 157.584C427.966 157.584 428.702 156.768 428.702 155.792C428.702 154.816 427.966 154 426.91 154C425.854 154 425.118 154.816 425.118 155.792C425.118 156.768 425.854 157.584 426.91 157.584ZM437.054 165.12C434.83 165.12 433.342 163.44 433.342 161.408C433.342 159.376 434.83 157.696 437.054 157.696C439.278 157.696 440.766 159.376 440.766 161.408C440.766 163.44 439.278 165.12 437.054 165.12ZM437.054 163.2C438.11 163.2 438.846 162.384 438.846 161.408C438.846 160.432 438.11 159.616 437.054 159.616C435.998 159.616 435.262 160.432 435.262 161.408C435.262 162.384 435.998 163.2 437.054 163.2ZM448.711 164.16C447.831 164.176 447.335 163.696 447.335 162.816V152.72H449.895V161.92L455.383 161.76V164L448.711 164.16ZM456.031 159.856C456.031 157.296 457.775 155.76 460.287 155.76C462.799 155.76 464.559 157.248 464.559 159.696V160.496H458.431C458.431 161.424 459.103 162.08 460.559 162.08C461.455 162.08 462.127 161.76 462.287 161.152H464.847C464.687 162.32 463.359 164.16 460.559 164.16C457.455 164.16 456.031 162.144 456.031 159.856ZM458.431 159.056H462.159C462.159 158.448 461.711 157.84 460.287 157.84C458.863 157.84 458.431 158.448 458.431 159.056ZM475.12 155.92H475.824V158.16H475.28C475.04 158.16 474.752 158.16 474.528 158.304C474.624 158.432 474.752 158.8 474.752 159.232C474.752 160.752 473.328 161.712 471.104 162.464C472.944 162.352 474.656 162.832 474.656 164.544C474.656 166.928 471.856 167.2 465.856 167.2V164.96C471.088 164.96 472.08 164.88 472.08 164C472.08 162.816 469.184 163.344 466.704 163.76L466.432 162.32C468.272 162.128 469.936 161.936 471.408 161.584V160.944C468.448 162 465.328 161.568 465.328 158.912C465.328 156.784 467.344 155.76 469.888 155.76C471.12 155.76 472.24 156 473.088 156.624C473.568 156 474.4 155.92 475.12 155.92ZM470.048 160.144C471.584 160.144 472.192 159.76 472.192 159.072C472.192 158.4 471.584 158 470.048 158C468.512 158 467.888 158.4 467.888 159.072C467.888 159.76 468.512 160.144 470.048 160.144ZM476.312 161.792C476.312 160.4 477.144 159.584 479.544 159.248L482.088 158.896C482.088 158.24 481.576 157.84 480.472 157.84C479.448 157.84 478.872 158.272 478.872 159.008H476.472C476.472 156.96 478.216 155.76 480.472 155.76C482.696 155.76 484.648 156.832 484.648 159.488V161.76H485.816V164H484.04C483.272 164 482.84 163.568 482.84 162.8V162.64L483.24 161.68H482.6C482.296 163.024 481.512 164.16 479.256 164.16C476.744 164.16 476.312 162.624 476.312 161.792ZM478.872 161.312C478.872 161.776 479.32 161.92 479.752 161.92C481.16 161.92 482.088 161.328 482.088 160.336L480.024 160.624C479.256 160.736 478.872 160.848 478.872 161.312ZM486.449 164V161.76H488.689V154.384L486.769 154.48V152.24L489.857 152.128C490.753 152.096 491.249 152.576 491.249 153.472V161.76H493.489V164H486.449ZM503.417 152.72C506.425 152.72 509.561 153.504 509.561 158.352C509.561 163.216 506.425 164 503.417 164H499.257V152.72H503.417ZM503.417 161.76C505.417 161.76 507.001 161.6 507.001 158.352C507.001 155.12 505.417 154.96 503.417 154.96H501.817V161.76H503.417ZM510.359 159.856C510.359 157.296 512.103 155.76 514.615 155.76C517.127 155.76 518.887 157.248 518.887 159.696V160.496H512.759C512.759 161.424 513.431 162.08 514.887 162.08C515.783 162.08 516.455 161.76 516.615 161.152H519.175C519.015 162.32 517.687 164.16 514.887 164.16C511.783 164.16 510.359 162.144 510.359 159.856ZM512.759 159.056H516.487C516.487 158.448 516.039 157.84 514.615 157.84C513.191 157.84 512.759 158.448 512.759 159.056ZM520.132 155.92H522.692V156.416L522.212 157.856H522.852C523.268 156.784 524.036 155.76 526.036 155.76C528.372 155.76 529.54 157.68 529.54 159.968C529.54 162.256 528.372 164.16 526.036 164.16C524.036 164.16 523.268 163.136 522.852 162.064H522.212L522.692 163.504V167.04H520.132V155.92ZM522.692 159.968C522.692 161.344 523.46 161.92 524.836 161.92C526.212 161.92 526.98 161.344 526.98 159.968C526.98 158.592 526.212 158 524.836 158C523.46 158 522.692 158.592 522.692 159.968ZM530.343 161.792C530.343 160.4 531.175 159.584 533.575 159.248L536.119 158.896C536.119 158.24 535.607 157.84 534.503 157.84C533.479 157.84 532.903 158.272 532.903 159.008H530.503C530.503 156.96 532.247 155.76 534.503 155.76C536.727 155.76 538.679 156.832 538.679 159.488V161.76H539.847V164H538.071C537.303 164 536.871 163.568 536.871 162.8V162.64L537.271 161.68H536.631C536.327 163.024 535.543 164.16 533.287 164.16C530.775 164.16 530.343 162.624 530.343 161.792ZM532.903 161.312C532.903 161.776 533.351 161.92 533.783 161.92C535.191 161.92 536.119 161.328 536.119 160.336L534.055 160.624C533.287 160.736 532.903 160.848 532.903 161.312ZM540.804 164V157.136C540.804 156.256 541.3 155.776 542.18 155.792L547.476 155.92V158.16L543.364 158.064V164H540.804ZM552.437 161.92L555.413 161.76V164L551.237 164.16C550.357 164.192 549.877 163.68 549.877 162.8V158.16H547.957V155.92H549.877V154.4L552.437 153.6V155.92H555.093V158.16H552.437V161.92ZM567.354 155.76C569.418 155.76 570.042 157.616 570.042 159.792V164H567.482V159.968C567.482 158.432 567.226 158 566.282 158C564.89 158 564.57 159.216 564.57 161.168V164H562.01V159.968C562.01 158.432 561.754 158 560.81 158C559.418 158 559.098 159.216 559.098 161.168V164H556.538V155.92H559.098V156.736L558.618 158.176H559.258C559.578 156.736 560.314 155.76 561.882 155.76C563.402 155.76 564.042 156.768 564.282 158.176H564.746C565.066 156.736 565.786 155.76 567.354 155.76ZM570.999 159.856C570.999 157.296 572.743 155.76 575.255 155.76C577.767 155.76 579.527 157.248 579.527 159.696V160.496H573.399C573.399 161.424 574.071 162.08 575.527 162.08C576.423 162.08 577.095 161.76 577.255 161.152H579.815C579.655 162.32 578.327 164.16 575.527 164.16C572.423 164.16 570.999 162.144 570.999 159.856ZM573.399 159.056H577.127C577.127 158.448 576.679 157.84 575.255 157.84C573.831 157.84 573.399 158.448 573.399 159.056ZM585.793 158C584.401 158 583.489 158.736 583.489 161.008V164H580.929V155.92H583.489V156.896L583.009 158.336H583.649C583.969 156.896 584.977 155.76 586.705 155.76C588.769 155.76 590.017 157.136 590.017 159.632V164H587.457V160.032C587.457 158.56 587.025 158 585.793 158ZM595.296 161.92L598.272 161.76V164L594.096 164.16C593.216 164.192 592.736 163.68 592.736 162.8V158.16H590.816V155.92H592.736V154.4L595.296 153.6V155.92H597.952V158.16H595.296V161.92Z" fill="white"/>
<rect x="381" y="199" width="15" height="15" fill="#DEEBBC"/>
<path d="M411.48 205.2C413.56 204.384 414.344 203.296 414.344 200.72H419.32V212H416.76V202.8L417.24 201.36H416.6C416.408 204.272 415.848 206.448 412.376 207.52L411.48 205.2ZM421.081 206.448C421.081 202.928 422.633 200.224 426.665 200.56L430.457 200.88V203.12L426.665 202.8C424.617 202.624 423.369 203.216 422.889 205.328L422.249 206.768H422.889C423.081 204.88 424.793 203.76 426.905 203.76C429.705 203.76 431.369 205.312 431.369 207.888C431.369 210.4 429.433 212.16 426.233 212.16C423.129 212.16 421.081 210.352 421.081 206.448ZM423.641 208.048C423.641 209.024 424.441 209.92 426.233 209.92C427.993 209.92 428.809 209.392 428.809 207.888C428.809 206.576 428.025 206 426.297 206C424.425 206 423.641 206.72 423.641 208.048ZM443.087 199.136L444.895 199.84L439.487 213.904L437.679 213.2L443.087 199.136ZM436.191 207.504C433.967 207.504 432.479 205.824 432.479 203.792C432.479 201.76 433.967 200.08 436.191 200.08C438.415 200.08 439.903 201.76 439.903 203.792C439.903 205.824 438.415 207.504 436.191 207.504ZM436.191 205.584C437.247 205.584 437.983 204.768 437.983 203.792C437.983 202.816 437.247 202 436.191 202C435.135 202 434.399 202.816 434.399 203.792C434.399 204.768 435.135 205.584 436.191 205.584ZM446.335 213.12C444.111 213.12 442.623 211.44 442.623 209.408C442.623 207.376 444.111 205.696 446.335 205.696C448.559 205.696 450.047 207.376 450.047 209.408C450.047 211.44 448.559 213.12 446.335 213.12ZM446.335 211.2C447.391 211.2 448.127 210.384 448.127 209.408C448.127 208.432 447.391 207.616 446.335 207.616C445.279 207.616 444.543 208.432 444.543 209.408C444.543 210.384 445.279 211.2 446.335 211.2ZM466.072 200.72V202.96H462.392V212H459.832V202.96H456.136V200.72H466.072ZM464.624 207.856C464.624 205.296 466.368 203.76 468.88 203.76C471.392 203.76 473.152 205.248 473.152 207.696V208.496H467.024C467.024 209.424 467.696 210.08 469.152 210.08C470.048 210.08 470.72 209.76 470.88 209.152H473.44C473.28 210.32 471.952 212.16 469.152 212.16C466.048 212.16 464.624 210.144 464.624 207.856ZM467.024 207.056H470.752C470.752 206.448 470.304 205.84 468.88 205.84C467.456 205.84 467.024 206.448 467.024 207.056ZM474.234 209.792C474.234 208.4 475.066 207.584 477.466 207.248L480.01 206.896C480.01 206.24 479.498 205.84 478.394 205.84C477.37 205.84 476.794 206.272 476.794 207.008H474.394C474.394 204.96 476.138 203.76 478.394 203.76C480.618 203.76 482.57 204.832 482.57 207.488V209.76H483.738V212H481.962C481.194 212 480.762 211.568 480.762 210.8V210.64L481.162 209.68H480.522C480.218 211.024 479.434 212.16 477.178 212.16C474.666 212.16 474.234 210.624 474.234 209.792ZM476.794 209.312C476.794 209.776 477.242 209.92 477.674 209.92C479.082 209.92 480.01 209.328 480.01 208.336L477.946 208.624C477.178 208.736 476.794 208.848 476.794 209.312ZM495.51 203.76C497.574 203.76 498.198 205.616 498.198 207.792V212H495.638V207.968C495.638 206.432 495.382 206 494.438 206C493.046 206 492.726 207.216 492.726 209.168V212H490.166V207.968C490.166 206.432 489.91 206 488.966 206C487.574 206 487.254 207.216 487.254 209.168V212H484.694V203.92H487.254V204.736L486.774 206.176H487.414C487.734 204.736 488.47 203.76 490.038 203.76C491.558 203.76 492.198 204.768 492.438 206.176H492.902C493.222 204.736 493.942 203.76 495.51 203.76ZM504.444 212V200.72H509.484L511.132 211.36H511.772L513.42 200.72H518.46V212H515.9V202.96L516.38 201.36H515.74L513.932 212H508.972L507.164 201.36H506.524L507.004 202.96V212H504.444ZM519.578 209.792C519.578 208.4 520.41 207.584 522.81 207.248L525.354 206.896C525.354 206.24 524.842 205.84 523.738 205.84C522.714 205.84 522.138 206.272 522.138 207.008H519.738C519.738 204.96 521.482 203.76 523.738 203.76C525.962 203.76 527.914 204.832 527.914 207.488V209.76H529.082V212H527.306C526.538 212 526.106 211.568 526.106 210.8V210.64L526.506 209.68H525.866C525.562 211.024 524.778 212.16 522.522 212.16C520.01 212.16 519.578 210.624 519.578 209.792ZM522.138 209.312C522.138 209.776 522.586 209.92 523.018 209.92C524.426 209.92 525.354 209.328 525.354 208.336L523.29 208.624C522.522 208.736 522.138 208.848 522.138 209.312ZM534.902 206C533.51 206 532.598 206.736 532.598 209.008V212H530.038V203.92H532.598V204.896L532.118 206.336H532.758C533.078 204.896 534.086 203.76 535.814 203.76C537.878 203.76 539.126 205.136 539.126 207.632V212H536.566V208.032C536.566 206.56 536.134 206 534.902 206ZM540.249 209.792C540.249 208.4 541.081 207.584 543.481 207.248L546.025 206.896C546.025 206.24 545.513 205.84 544.409 205.84C543.385 205.84 542.809 206.272 542.809 207.008H540.409C540.409 204.96 542.153 203.76 544.409 203.76C546.633 203.76 548.585 204.832 548.585 207.488V209.76H549.753V212H547.977C547.209 212 546.777 211.568 546.777 210.8V210.64L547.177 209.68H546.537C546.233 211.024 545.449 212.16 543.193 212.16C540.681 212.16 540.249 210.624 540.249 209.792ZM542.809 209.312C542.809 209.776 543.257 209.92 543.689 209.92C545.097 209.92 546.025 209.328 546.025 208.336L543.961 208.624C543.193 208.736 542.809 208.848 542.809 209.312ZM559.213 203.92H559.917V206.16H559.373C559.133 206.16 558.845 206.16 558.621 206.304C558.717 206.432 558.845 206.8 558.845 207.232C558.845 208.752 557.421 209.712 555.197 210.464C557.037 210.352 558.749 210.832 558.749 212.544C558.749 214.928 555.949 215.2 549.949 215.2V212.96C555.181 212.96 556.173 212.88 556.173 212C556.173 210.816 553.277 211.344 550.797 211.76L550.525 210.32C552.365 210.128 554.029 209.936 555.501 209.584V208.944C552.541 210 549.421 209.568 549.421 206.912C549.421 204.784 551.437 203.76 553.981 203.76C555.213 203.76 556.333 204 557.181 204.624C557.661 204 558.493 203.92 559.213 203.92ZM554.141 208.144C555.677 208.144 556.285 207.76 556.285 207.072C556.285 206.4 555.677 206 554.141 206C552.605 206 551.981 206.4 551.981 207.072C551.981 207.76 552.605 208.144 554.141 208.144ZM560.406 207.856C560.406 205.296 562.15 203.76 564.662 203.76C567.174 203.76 568.934 205.248 568.934 207.696V208.496H562.806C562.806 209.424 563.478 210.08 564.934 210.08C565.83 210.08 566.502 209.76 566.662 209.152H569.222C569.062 210.32 567.734 212.16 564.934 212.16C561.83 212.16 560.406 210.144 560.406 207.856ZM562.806 207.056H566.534C566.534 206.448 566.086 205.84 564.662 205.84C563.238 205.84 562.806 206.448 562.806 207.056ZM581.151 203.76C583.215 203.76 583.839 205.616 583.839 207.792V212H581.279V207.968C581.279 206.432 581.023 206 580.079 206C578.687 206 578.367 207.216 578.367 209.168V212H575.807V207.968C575.807 206.432 575.551 206 574.607 206C573.215 206 572.895 207.216 572.895 209.168V212H570.335V203.92H572.895V204.736L572.415 206.176H573.055C573.375 204.736 574.111 203.76 575.679 203.76C577.199 203.76 577.839 204.768 578.079 206.176H578.543C578.863 204.736 579.583 203.76 581.151 203.76ZM584.796 207.856C584.796 205.296 586.54 203.76 589.052 203.76C591.564 203.76 593.324 205.248 593.324 207.696V208.496H587.196C587.196 209.424 587.868 210.08 589.324 210.08C590.22 210.08 590.892 209.76 591.052 209.152H593.612C593.452 210.32 592.124 212.16 589.324 212.16C586.22 212.16 584.796 210.144 584.796 207.856ZM587.196 207.056H590.924C590.924 206.448 590.476 205.84 589.052 205.84C587.628 205.84 587.196 206.448 587.196 207.056ZM599.59 206C598.198 206 597.286 206.736 597.286 209.008V212H594.726V203.92H597.286V204.896L596.806 206.336H597.446C597.766 204.896 598.774 203.76 600.502 203.76C602.566 203.76 603.814 205.136 603.814 207.632V212H601.254V208.032C601.254 206.56 600.822 206 599.59 206ZM609.093 209.92L612.069 209.76V212L607.893 212.16C607.013 212.192 606.533 211.68 606.533 210.8V206.16H604.613V203.92H606.533V202.4L609.093 201.6V203.92H611.749V206.16H609.093V209.92Z" fill="white"/>
<path d="M175 0C199.833 2.96133e-07 224.382 5.28522 247.015 15.5044C269.648 25.7236 289.847 40.6428 306.269 59.2704C322.692 77.898 334.962 99.8075 342.264 123.543C349.566 147.278 351.732 172.296 348.62 196.933L175 175V0Z" fill="#CBFB45"/>
<path d="M327.495 192.78C323.836 223.953 310.647 253.237 289.728 276.637C268.81 300.037 241.181 316.412 210.611 323.529C180.042 330.645 148.021 328.155 118.919 316.4C89.8169 304.645 65.0506 284.196 48 257.844L176.035 175L327.495 192.78Z" fill="#B8DB56"/>
<path d="M58.3956 249.096C39.5495 219.184 32.8097 183.214 39.5479 148.508L176 175L58.3956 249.096Z" fill="#96B837"/>
<path d="M17.9999 143.779C21.923 123.931 29.5513 105.006 40.4833 88L175 175L17.9999 143.779Z" fill="#6E8727"/>
<path d="M75.001 110.493C85.8665 93.6491 100.811 79.8228 118.447 70.297C136.083 60.7712 155.839 55.8546 175.883 56.0033L175 175L75.001 110.493Z" fill="#DEEBBC"/>
</svg>
