<svg width="1920" height="27" viewBox="0 0 1920 27" fill="none" xmlns="http://www.w3.org/2000/svg">
<rect opacity="0.2" y="12" width="1920" height="2" fill="#161617"/>
<g clip-path="url(#clip0_1_538)">
<path fill-rule="evenodd" clip-rule="evenodd" d="M310 15C310 9.47715 314.477 5 320 5C325.523 5 330 9.47715 330 15C330 20.5228 325.523 25 320 25C314.477 25 310 20.5228 310 15ZM323.707 13.7072C324.098 13.3167 324.098 12.6835 323.707 12.293C323.317 11.9025 322.683 11.9025 322.293 12.293L319 15.5859L317.707 14.293C317.317 13.9025 316.683 13.9025 316.293 14.293C315.902 14.6835 315.902 15.3167 316.293 15.7072L318.293 17.7072C318.683 18.0978 319.317 18.0978 319.707 17.7072L323.707 13.7072Z" fill="#161617"/>
</g>
<path fill-rule="evenodd" clip-rule="evenodd" d="M753 15C753 9.47715 757.477 5 763 5C768.523 5 773 9.47715 773 15C773 20.5228 768.523 25 763 25C757.477 25 753 20.5228 753 15ZM766.707 13.7072C767.098 13.3167 767.098 12.6835 766.707 12.293C766.317 11.9025 765.683 11.9025 765.293 12.293L762 15.5859L760.707 14.293C760.317 13.9025 759.683 13.9025 759.293 14.293C758.902 14.6835 758.902 15.3167 759.293 15.7072L761.293 17.7072C761.683 18.0978 762.317 18.0978 762.707 17.7072L766.707 13.7072Z" fill="#161617"/>
<g clip-path="url(#clip1_1_538)">
<path fill-rule="evenodd" clip-rule="evenodd" d="M1208 5C1202.48 5 1198 9.47715 1198 15C1198 20.5228 1202.48 25 1208 25C1213.52 25 1218 20.5228 1218 15C1218 9.47715 1213.52 5 1208 5Z" fill="#161617"/>
</g>
<g clip-path="url(#clip2_1_538)">
<path fill-rule="evenodd" clip-rule="evenodd" d="M482 12.9502C482 7.42735 486.477 2.9502 492 2.9502C497.523 2.9502 502 7.42735 502 12.9502C502 18.473 497.523 22.9502 492 22.9502C486.477 22.9502 482 18.473 482 12.9502ZM495.707 11.6574C496.098 11.2669 496.098 10.6337 495.707 10.2432C495.317 9.85269 494.683 9.85269 494.293 10.2432L491 13.5361L489.707 12.2432C489.317 11.8527 488.683 11.8527 488.293 12.2432C487.902 12.6337 487.902 13.2669 488.293 13.6574L490.293 15.6574C490.683 16.0479 491.317 16.0479 491.707 15.6574L495.707 11.6574Z" fill="#161617"/>
</g>
<path fill-rule="evenodd" clip-rule="evenodd" d="M923 12.9502C923 7.42735 927.477 2.9502 933 2.9502C938.523 2.9502 943 7.42735 943 12.9502C943 18.473 938.523 22.9502 933 22.9502C927.477 22.9502 923 18.473 923 12.9502ZM936.707 11.6574C937.098 11.2669 937.098 10.6337 936.707 10.2432C936.317 9.85269 935.683 9.85269 935.293 10.2432L932 13.5361L930.707 12.2432C930.317 11.8527 929.683 11.8527 929.293 12.2432C928.902 12.6337 928.902 13.2669 929.293 13.6574L931.293 15.6574C931.683 16.0479 932.317 16.0479 932.707 15.6574L936.707 11.6574Z" fill="#161617"/>
<g clip-path="url(#clip3_1_538)">
<path fill-rule="evenodd" clip-rule="evenodd" d="M1377 2.9502C1371.48 2.9502 1367 7.42735 1367 12.9502C1367 18.473 1371.48 22.9502 1377 22.9502C1382.52 22.9502 1387 18.473 1387 12.9502C1387 7.42735 1382.52 2.9502 1377 2.9502Z" fill="#161617"/>
</g>
<g clip-path="url(#clip4_1_538)">
<path fill-rule="evenodd" clip-rule="evenodd" d="M242 13C242 7.47715 246.477 3 252 3C257.523 3 262 7.47715 262 13C262 18.5228 257.523 23 252 23C246.477 23 242 18.5228 242 13ZM253.707 10.7071C254.098 10.3166 254.098 9.68342 253.707 9.29289C253.317 8.90237 252.683 8.90237 252.293 9.29289L249.293 12.2929C248.902 12.6834 248.902 13.3166 249.293 13.7071L252.293 16.7071C252.683 17.0976 253.317 17.0976 253.707 16.7071C254.098 16.3166 254.098 15.6834 253.707 15.2929L251.414 13L253.707 10.7071Z" fill="#242328"/>
</g>
<path fill-rule="evenodd" clip-rule="evenodd" d="M1642 13C1642 7.47715 1646.48 3 1652 3C1657.52 3 1662 7.47715 1662 13C1662 18.5228 1657.52 23 1652 23C1646.48 23 1642 18.5228 1642 13ZM1650.29 15.2929C1649.9 15.6834 1649.9 16.3166 1650.29 16.7071C1650.68 17.0976 1651.32 17.0976 1651.71 16.7071L1654.71 13.7071C1655.1 13.3166 1655.1 12.6834 1654.71 12.2929L1651.71 9.29289C1651.32 8.90237 1650.68 8.90237 1650.29 9.29289C1649.9 9.68342 1649.9 10.3166 1650.29 10.7071L1652.59 13L1650.29 15.2929Z" fill="#242328"/>
<defs>
<clipPath id="clip0_1_538">
<rect width="24" height="24" fill="white" transform="translate(308 3)"/>
</clipPath>
<clipPath id="clip1_1_538">
<rect width="24" height="24" fill="white" transform="translate(1196 3)"/>
</clipPath>
<clipPath id="clip2_1_538">
<rect width="24" height="24" fill="white" transform="translate(480 0.950195)"/>
</clipPath>
<clipPath id="clip3_1_538">
<rect width="24" height="24" fill="white" transform="translate(1365 0.950195)"/>
</clipPath>
<clipPath id="clip4_1_538">
<rect width="24" height="24" fill="white" transform="translate(240 1)"/>
</clipPath>
</defs>
</svg>
