<svg width="77" height="30" viewBox="0 0 77 30" fill="none" xmlns="http://www.w3.org/2000/svg">
<rect width="77" height="30" rx="5" fill="#1E1E1F"/>
<path d="M43.1819 8.5742L36.787 8.59619L36.9808 20.3036L43.3757 20.2816L43.1819 8.5742Z" fill="#FF5F00"/>
<path d="M37.208 14.4739C37.1685 12.0927 38.2352 9.97688 39.906 8.60448C38.6448 7.61485 37.0638 7.01975 35.3499 7.02562C31.2895 7.03953 28.0599 10.3845 28.1284 14.505C28.1969 18.6255 31.5373 21.9479 35.5976 21.934C37.3115 21.9281 38.8726 21.3223 40.1007 20.3241C38.3848 18.984 37.2476 16.8551 37.208 14.4739Z" fill="#EB001B"/>
<path d="M52.0341 14.3735C52.1026 18.494 48.873 21.8389 44.8127 21.8528C43.0988 21.8587 41.5177 21.2636 40.2566 20.274C41.9478 18.9015 42.9941 16.7858 42.9545 14.4046C42.9149 12.0234 41.778 9.91513 40.0618 8.55433C41.2899 7.55618 42.851 6.95032 44.5649 6.94445C48.6252 6.93054 51.966 10.2737 52.0341 14.3735Z" fill="#F79E1B"/>
</svg>
