<svg width="77" height="30" viewBox="0 0 77 30" fill="none" xmlns="http://www.w3.org/2000/svg">
<rect width="77" height="30" rx="5" fill="#1E1E1F"/>
<path d="M26.3496 10.4852C25.8794 10.162 25.2659 10 24.509 10H21.5787C21.3466 10 21.2184 10.116 21.1941 10.3479L20.0037 17.8201C19.9914 17.8935 20.0097 17.9606 20.0587 18.0216C20.1073 18.0827 20.1685 18.1131 20.2418 18.1131H21.6336C21.8778 18.1131 22.012 17.9974 22.0366 17.7652L22.3662 15.7507C22.3782 15.6531 22.4212 15.5737 22.4944 15.5126C22.5677 15.4516 22.6593 15.4117 22.7691 15.3934C22.879 15.3753 22.9826 15.3661 23.0805 15.3661C23.1781 15.3661 23.294 15.3723 23.4285 15.3845C23.5627 15.3966 23.6482 15.4026 23.6849 15.4026C24.7349 15.4026 25.559 15.1067 26.1574 14.5144C26.7555 13.9223 27.0548 13.1013 27.0548 12.051C27.0548 11.3307 26.8196 10.8088 26.3496 10.4851V10.4852ZM24.8388 12.7289C24.7775 13.1563 24.619 13.437 24.3626 13.5713C24.1062 13.7059 23.7399 13.7728 23.2638 13.7728L22.6594 13.7911L22.9708 11.8314C22.9951 11.6972 23.0744 11.63 23.2088 11.63H23.5569C24.045 11.63 24.3993 11.7004 24.6191 11.8406C24.8388 11.9811 24.912 12.2773 24.8388 12.7289Z" fill="#0041B8"/>
<path d="M57.2732 10H55.9181C55.7834 10 55.7041 10.0672 55.6799 10.2016L54.4895 17.8204L54.4711 17.857C54.4711 17.9184 54.4955 17.9761 54.5445 18.0311C54.593 18.0859 54.6544 18.1134 54.7275 18.1134H55.9365C56.1681 18.1134 56.2963 17.9976 56.3211 17.7655L57.5115 10.2749V10.2567C57.5114 10.0856 57.4318 10.0002 57.2732 10.0002V10Z" fill="#009CDE"/>
<path d="M40.9003 12.9488C40.9003 12.8879 40.8758 12.8298 40.8273 12.775C40.7783 12.72 40.7233 12.6924 40.6624 12.6924H39.2522C39.1176 12.6924 39.0077 12.7537 38.9224 12.8755L36.9812 15.7326L36.1753 12.9855C36.114 12.7903 35.9798 12.6924 35.7724 12.6924H34.3986C34.3374 12.6924 34.2825 12.7199 34.234 12.775C34.185 12.8298 34.1607 12.888 34.1607 12.9488C34.1607 12.9733 34.2798 13.3334 34.5178 14.0293C34.7558 14.7255 35.0122 15.4764 35.287 16.2823C35.5617 17.088 35.7051 17.5156 35.7173 17.564C34.7161 18.9317 34.2157 19.6643 34.2157 19.7618C34.2157 19.9206 34.2949 19.9999 34.4538 19.9999H35.864C35.9982 19.9999 36.108 19.939 36.1937 19.8169L40.8639 13.0769C40.8882 13.0527 40.9003 13.0102 40.9003 12.9487V12.9488Z" fill="#0041B8"/>
<path d="M54.0321 12.6926H52.6402C52.469 12.6926 52.3656 12.8942 52.329 13.2972C52.0111 12.8089 51.4316 12.5645 50.5889 12.5645C49.7099 12.5645 48.9619 12.8942 48.3455 13.5535C47.7288 14.2128 47.4207 14.9884 47.4207 15.8796C47.4207 16.6001 47.6312 17.1739 48.0524 17.6011C48.4736 18.0287 49.0382 18.2421 49.7466 18.2421C50.1007 18.2421 50.4608 18.1687 50.8271 18.0223C51.1934 17.8758 51.48 17.6806 51.688 17.4363C51.688 17.4485 51.6755 17.5033 51.6514 17.6009C51.6267 17.6988 51.6147 17.7723 51.6147 17.8207C51.6147 18.0163 51.6938 18.1137 51.8528 18.1137H53.1166C53.3483 18.1137 53.4827 17.9979 53.5192 17.7658L54.2703 12.9856C54.2823 12.9123 54.264 12.8453 54.2153 12.7842C54.1662 12.7233 54.1053 12.6926 54.0321 12.6926ZM51.6421 16.3008C51.3307 16.606 50.9552 16.7586 50.5157 16.7586C50.1615 16.7586 49.8748 16.6611 49.655 16.4656C49.4351 16.2707 49.3252 16.002 49.3252 15.6597C49.3252 15.2083 49.4778 14.8264 49.7832 14.5151C50.088 14.2038 50.4669 14.0481 50.9186 14.0481C51.2602 14.0481 51.5441 14.1489 51.7702 14.3502C51.9959 14.5517 52.1092 14.8295 52.1092 15.1837C52.1091 15.6232 51.9534 15.9957 51.6421 16.3008Z" fill="#009CDE"/>
<path d="M33.2266 12.6926H31.8347C31.6635 12.6926 31.5599 12.8942 31.5233 13.2972C31.1936 12.8089 30.6136 12.5645 29.7834 12.5645C28.9043 12.5645 28.1563 12.8942 27.5398 13.5535C26.9232 14.2128 26.615 14.9884 26.615 15.8796C26.615 16.6001 26.8256 17.1739 27.2469 17.6011C27.6681 18.0287 28.2327 18.2421 28.9409 18.2421C29.2826 18.2421 29.6369 18.1687 30.0031 18.0223C30.3694 17.8758 30.6625 17.6806 30.8822 17.4363C30.8333 17.5827 30.809 17.7109 30.809 17.8207C30.809 18.0163 30.8883 18.1137 31.047 18.1137H32.3107C32.5425 18.1137 32.677 17.9979 32.7137 17.7658L33.4645 12.9856C33.4766 12.9123 33.4583 12.8453 33.4096 12.7842C33.3607 12.7233 33.2998 12.6926 33.2266 12.6926ZM30.8366 16.3098C30.5252 16.6093 30.1434 16.7586 29.692 16.7586C29.3377 16.7586 29.0538 16.6611 28.8403 16.4656C28.6265 16.2707 28.5197 16.002 28.5197 15.6597C28.5197 15.2083 28.6723 14.8264 28.9777 14.5151C29.2827 14.2038 29.6612 14.0481 30.1131 14.0481C30.4548 14.0481 30.7387 14.1489 30.9648 14.3502C31.1905 14.5517 31.3036 14.8295 31.3036 15.1837C31.3035 15.6355 31.1479 16.011 30.8366 16.3098Z" fill="#0041B8"/>
<path d="M47.1551 10.4852C46.685 10.162 46.0716 10 45.3145 10H42.4025C42.1582 10 42.0238 10.116 41.9996 10.3479L40.8091 17.8201C40.7968 17.8935 40.8151 17.9606 40.8641 18.0216C40.9125 18.0827 40.9739 18.1131 41.0471 18.1131H42.5489C42.6954 18.1131 42.793 18.0339 42.842 17.8751L43.1716 15.7507C43.1838 15.6531 43.2265 15.5737 43.2999 15.5126C43.3732 15.4516 43.4646 15.4117 43.5746 15.3934C43.6844 15.3753 43.788 15.3661 43.8859 15.3661C43.9836 15.3661 44.0994 15.3723 44.2338 15.3845C44.3681 15.3966 44.4538 15.4026 44.4902 15.4026C45.5404 15.4026 46.3644 15.1067 46.9627 14.5144C47.5611 13.9223 47.8602 13.1013 47.8602 12.051C47.8602 11.3307 47.625 10.8087 47.1551 10.4851V10.4852ZM45.2779 13.498C45.0093 13.6811 44.6063 13.7726 44.0692 13.7726L43.483 13.791L43.7944 11.8313C43.8186 11.6971 43.898 11.6298 44.0324 11.6298H44.362C44.6306 11.6298 44.8442 11.6421 45.0032 11.6665C45.1617 11.691 45.3145 11.7672 45.461 11.8953C45.6076 12.0236 45.6808 12.2099 45.6808 12.4539C45.6808 12.9669 45.5463 13.3147 45.2779 13.498Z" fill="#009CDE"/>
</svg>
