<svg width="905" height="304" viewBox="0 0 905 304" fill="none" xmlns="http://www.w3.org/2000/svg">
	<g filter="url(#filter0_if_57_236)">
		<path d="M208.5 188.5L251.5 214.5M208.5 188.5L262.5 86M208.5 188.5L299.5 208.322M208.5 188.5L207.679 191M208.5 188.5L125 129.5M251.5 214.5L186.5 255.5L207.679 191M251.5 214.5L262.5 86M251.5 214.5L334 247.5M251.5 214.5L299.5 208.322M251.5 214.5L302 123.5M302 123.5V208M302 123.5L393.5 147.5M302 123.5L362.5 195M302 123.5L207.679 191M302 123.5L379 167.5M302 123.5L262.5 86M302 123.5L306.5 42M302 123.5L283.5 42M302 208L362.5 195M302 208L262.5 86M302 208L334 247.5M302 208L299.5 208.322M302 208L393.5 147.5M302 208L379 167.5M362.5 195L379 167.5M362.5 195L334 247.5M362.5 195L379 285M362.5 195L418.5 178.5M379 167.5L393.5 147.5M379 167.5L418.5 178.5M393.5 147.5L418.5 178.5M262.5 86L142 36.5M262.5 86L221 13M262.5 86L297 9.5M262.5 86L272 20M334 247.5L418.5 178.5M334 247.5L379 285M418.5 178.5L379 285M418.5 178.5L470 244M418.5 178.5L526.363 221.84M418.5 178.5L531.5 195M379 285C380.6 286.6 440.333 258.333 470 244M379 285L470 268.148M125 129.5L99.5 46M125 129.5L3 97M142 36.5L125 133M142 36.5L94.5 58M125 133L115.5 36.5M125 133L94.5 58M115.5 36.5L99.5 46M115.5 36.5L3 97M99.5 46L94.5 58M99.5 46L3 97M94.5 58L3 97M470 244L473.5 267.5M470 244L531.5 279M470 244L531.5 195M470 244L526.363 221.84M549.5 178.5L531.5 195M549.5 178.5L626 238.5M549.5 178.5L526.363 221.84M549.5 178.5L602.5 123.5M549.5 178.5L571 113M549.5 178.5L531.5 109M531.5 195L528.5 221M531.5 195L626 238.5M531.5 195L571 113M528.5 221L473.5 267.5M528.5 221L531.5 279M528.5 221L626 238.5M528.5 221L526.363 221.84M528.5 221L585 302M473.5 267.5L470 268.148M531.5 279L626 238.5M531.5 279L528.5 278.471M470 268.148L528.5 278.471M626 238.5L585 302M626 238.5L638 208L722 229.5M626 238.5L602.5 123.5M585 302L528.5 278.471M526.363 221.84L531.5 109M526.363 221.84L549.5 103.5M531.5 109L549.5 103.5M531.5 109L594.5 26M531.5 109L513 46.5M549.5 103.5L571 113M549.5 103.5C564.64 79.3333 594.837 30 594.5 26M549.5 103.5L513 46.5M602.5 123.5L571 113M602.5 123.5L660.5 109M571 113L513 46.5M571 113L565 74M571 113L594.5 26M602.5 121L638 205.5L660.5 109M602.5 121L681 77.5M602.5 121L681 195M602.5 121L565 74M602.5 121L594.5 26M602.5 121L574 36.5M602.5 121C604.177 122.581 661.199 128.659 689.5 131.5M681 77.5L689.5 131.5M681 77.5L574 36.5M681 77.5L662.539 109M681 77.5L740.5 131.5M689.5 131.5L681 195M689.5 131.5C681.806 125.066 672.496 117.294 662.539 109M689.5 131.5H740.5M681 195L660.5 109M681 195L740.5 131.5M565 74L594.5 26M565 74L513 46.5M565 74L660.5 109M660.5 109L739 129.5L794.5 56M574 36.5C576.223 37.3518 624.183 77.0507 662.539 109M740.5 131.5L722 229.5M794.5 56L810.5 1.5H899.5M794.5 56H865L899.5 1.5M794.5 56L899.5 1.5M828 282L804.5 238.5V229.5M804.5 229.5L858 215.5L739 278.471L804.5 229.5ZM804.5 229.5L819 205.5L722 229.5M804.5 229.5H722M804.5 229.5L903.5 247.5L722 229.5" stroke="#778C3A" />
	</g>
	<defs>
		<filter id="filter0_if_57_236" x="0.650574" y="0" width="903.939" height="306.622" filterUnits="userSpaceOnUse" color-interpolation-filters="sRGB">
			<feFlood flood-opacity="0" result="BackgroundImageFix" />
			<feBlend mode="normal" in="SourceGraphic" in2="BackgroundImageFix" result="shape" />
			<feColorMatrix in="SourceAlpha" type="matrix" values="0 0 0 0 0 0 0 0 0 0 0 0 0 0 0 0 0 0 127 0" result="hardAlpha" />
			<feOffset dy="4" />
			<feGaussianBlur stdDeviation="2" />
			<feComposite in2="hardAlpha" operator="arithmetic" k2="-1" k3="1" />
			<feColorMatrix type="matrix" values="0 0 0 0 0.719579 0 0 0 0 0.841667 0 0 0 0 0.37875 0 0 0 1 0" />
			<feBlend mode="normal" in2="shape" result="effect1_innerShadow_57_236" />
			<feGaussianBlur stdDeviation="0.5" result="effect2_foregroundBlur_57_236" />
		</filter>
	</defs>
</svg>
