<svg width="25" height="24" viewBox="0 0 25 24" fill="none" xmlns="http://www.w3.org/2000/svg">
<g opacity="0.5" clip-path="url(#clip0_58_368)">
<path fill-rule="evenodd" clip-rule="evenodd" d="M2.93219 11.9999C2.93219 6.47703 7.40934 1.99988 12.9322 1.99988C18.455 1.99988 22.9322 6.47703 22.9322 11.9999C22.9322 17.5227 18.455 21.9999 12.9322 21.9999C7.40934 21.9999 2.93219 17.5227 2.93219 11.9999ZM16.6393 10.7071C17.0298 10.3166 17.0298 9.68342 16.6393 9.29289C16.2488 8.90237 15.6156 8.90237 15.2251 9.29289L11.9322 12.5858L10.6393 11.2929C10.2488 10.9024 9.61561 10.9024 9.22508 11.2929C8.83456 11.6834 8.83456 12.3166 9.22508 12.7071L11.2251 14.7071C11.6156 15.0976 12.2488 15.0976 12.6393 14.7071L16.6393 10.7071Z" fill="#161617"/>
</g>
<defs>
<clipPath id="clip0_58_368">
<rect width="24" height="24" fill="white" transform="translate(0.93219)"/>
</clipPath>
</defs>
</svg>
