<svg width="77" height="30" viewBox="0 0 77 30" fill="none" xmlns="http://www.w3.org/2000/svg">
<rect width="77" height="30" rx="5" fill="#1E1E1F"/>
<path d="M52.3812 10.1426H50.3336C49.7145 10.1426 49.2383 10.3331 48.9526 10.9521L45.0479 19.8569H47.8098C47.8098 19.8569 48.2859 18.6664 48.3812 18.3807C48.6669 18.3807 51.3812 18.3807 51.7621 18.3807C51.8574 18.714 52.0955 19.8092 52.0955 19.8092H54.5717L52.3812 10.1426ZM49.1431 16.3807C49.3812 15.8092 50.1907 13.6664 50.1907 13.6664C50.1907 13.714 50.4288 13.095 50.524 12.7616L50.7145 13.6188C50.7145 13.6188 51.2383 15.9521 51.3336 16.4283H49.1431V16.3807Z" fill="#F3F3F3"/>
<path d="M45.2379 16.6667C45.2379 18.6667 43.4284 20 40.6189 20C39.4284 20 38.2856 19.7619 37.6665 19.4762L38.0475 17.2857L38.3808 17.4286C39.2379 17.8095 39.8094 17.9524 40.857 17.9524C41.6189 17.9524 42.4284 17.6667 42.4284 17C42.4284 16.5714 42.0951 16.2857 41.0475 15.8095C40.0475 15.3333 38.7141 14.5714 38.7141 13.1905C38.7141 11.2857 40.5713 10 43.1903 10C44.1903 10 45.0475 10.1905 45.5713 10.4286L45.1903 12.5238L44.9998 12.3333C44.5236 12.1429 43.9046 11.9524 42.9998 11.9524C41.9998 12 41.5236 12.4286 41.5236 12.8095C41.5236 13.2381 42.0951 13.5714 42.9998 14C44.5236 14.7143 45.2379 15.5238 45.2379 16.6667Z" fill="#F3F3F3"/>
<path d="M22 10.2383L22.0476 10.0479H26.1429C26.7143 10.0479 27.1429 10.2383 27.2857 10.8574L28.1905 15.1431C27.2857 12.8574 25.1905 11.0002 22 10.2383Z" fill="#F9B50B"/>
<path d="M33.9525 10.1433L29.8096 19.81H27.0001L24.6191 11.7148C26.3334 12.81 27.762 14.5243 28.2858 15.7148L28.5715 16.7148L31.143 10.0957H33.9525V10.1433Z" fill="#F3F3F3"/>
<path d="M35.0475 10.0957H37.6666L35.9999 19.81H33.3809L35.0475 10.0957Z" fill="#F3F3F3"/>
</svg>
