<svg id="OBJECTS" xmlns="http://www.w3.org/2000/svg" viewBox="0 0 402.61 392.78"><defs><style>.cls-1{fill:#cbfb45;}</style></defs><path class="cls-1" d="M305.7,187.2l-.37-.28a2.13,2.13,0,0,1-4.24-.06,1.9,1.9,0,0,1,1-1.65,12.1,12.1,0,0,0-2-.42,3.29,3.29,0,0,0-.64,1.28,3.37,3.37,0,0,0,1,3.29,4.25,4.25,0,0,0,3.06,1.07,3.87,3.87,0,0,0,2.32-1A1.47,1.47,0,0,0,305.7,187.2Z" transform="translate(-49.15 -54)"/><path class="cls-1" d="M296,346.49A48.91,48.91,0,0,1,278.25,366c-.2-20.61-21.44-42.89-21.44-42.89,3.21,26.92-6,40.75-6,40.75-8.21-29.8-30.65-44-30.65-44,6.51,24.13-3,32.86-3,32.86-11.59-27.94-115.35-79.37-60-160.75-10.77,1.21-21.79,7.29-21.79,7.29C156.55,152.11,225,143,225,143c-31.05-7.05-65.91,3.16-79.41,16.6,0,0,6.2-1.1,14.31-2.68-22.64,11.81-51.17,42.44-43.31,103.39l9.88-26.82c-1.91,16.5-4.64,46.71,54.55,99.62,23.75,21.23,27.75,32.2,28.18,44.56,0,0,24.09-5.47,22.79-27.56,14.55,23.85,8.44,39.72,8.44,39.72s24-14.26,24-35.89a51.06,51.06,0,0,1,4.84,25.77C273.64,379,293.47,371.94,296,346.49Z" transform="translate(-49.15 -54)"/><path class="cls-1" d="M345.74,257.76a22.19,22.19,0,0,1-6.73,7.29,19.77,19.77,0,0,1,9,5,23.48,23.48,0,0,0-.39-12.14A1,1,0,0,0,345.74,257.76Z" transform="translate(-49.15 -54)"/><path class="cls-1" d="M360.58,240.78a31.49,31.49,0,0,1-8.26,1.54,17.07,17.07,0,0,1-3.29-.21,20.43,20.43,0,0,1-1.94,6.95.89.89,0,0,0,1.18,1.16A25.84,25.84,0,0,0,360.58,240.78Z" transform="translate(-49.15 -54)"/><path class="cls-1" d="M253.85,182.38c2-.47,3.68-.8,4.83-1a24.21,24.21,0,0,0,.19-7.81c-1.59-11.46-10.78-19.78-20.51-18.59S222,166.43,223.6,177.89a24.29,24.29,0,0,0,3,8.79C215.78,193.87,210,205.92,210,205.92c5.43-6.2,15.39-12.41,20.37-15.31,1.13-.53,2.26-1.05,3.36-1.54a17.57,17.57,0,0,1-2.72-6.31c-1.66-7.83,2-15.21,8.24-16.48s12.59,4,14.24,11.86A17.7,17.7,0,0,1,253.85,182.38Z" transform="translate(-49.15 -54)"/><path class="cls-1" d="M250.21,197.78c-18.52-2-53.24,19.71-44.23,52.91,1.63-6.36,3.66-10.51,8.28-14.68-8.47,27.84,26.62,51,25.3,78.75,17.44-30.33-29-72.2,9.27-97.3-8.82.74-19.61,5.43-24.67,10.18C226.66,216.52,239.89,204.08,250.21,197.78Z" transform="translate(-49.15 -54)"/><path class="cls-1" d="M209.41,180.67a64.41,64.41,0,0,0-19.29,6.13c4.76-12.54,24.9-23,24.75-23.05a60.08,60.08,0,0,0-51.54,21.3c9-4.46,15.4-6.61,23.06-8-6.46,2.82-47.9,56.1,2.4,112.34C146.23,216.54,209.41,180.67,209.41,180.67Z" transform="translate(-49.15 -54)"/><path class="cls-1" d="M250.3,148c8.49,4.17,12.12,9.51,12.12,9.51,19.53-6.4,41,.19,46.68,3.57,3.46,2.06,2.75-.94,2.49-2.12C308.07,143.38,295,136.89,287,134.39c3.81,3.53,6.78,10.38,7.37,16.71C272.35,142.26,250.3,148,250.3,148Z" transform="translate(-49.15 -54)"/><path class="cls-1" d="M352.73,210.74c14.32,5.55,22.76,4.8,26.53,3.85-13.06-5.26-26.84-10.62-39.51-15.94-4-1.69-5.12-3.37-7.24-6.46-.8-1.17-1.47-3.11-2.17-4.22-2.91-8.19-26.25-35.85-65.63-25.16,5.37,7.69,4,17.72.61,26.17-2.35,5.87-1.22,10,2.29,13.08a16.44,16.44,0,0,0,8.6,3.58c5.41.73,11,1.75,15.65,4.48,8.24,4.8,13.83,14.83,10.1,23.57-.2-7.51-4.22-13.67-10.88-17.51a24,24,0,0,0-3.28-1.66c5.89,7,7.16,14,3.47,24.49-1.83,5.21-5.49,10.18-6.84,17.24s-.55,13.91,9.74,20.12c2.59,1.55,17.88,7,25.32,9.77,2.75,1,1.84,13.05-4.85,14.87,8.15,1.91,12.71-1.59,17-7.26,2.47,4.21,2.05,8.44,0,12.7,7.39-3.46,12.67-8.88,15.12-16.18,2-6,.27-11.29-4-15.82-1.81-1.91-3.58-2.52-6.33-3.2-5.93-1.47-13.38-2.36-19.2-4.24-11.4-3.67-13.71-8.71-8.33-18.91a63.84,63.84,0,0,1,3.38-6.11c3.23-4.69,6.68-7.57,10.75-8.92a21.18,21.18,0,0,1-4.08-4.73c-4.69-7.33-.31-16.8,8.53-18.31a15.86,15.86,0,0,0-3.7,4c3.06,5.22,11.81,6.06,17.75,5.85-5.54,2.27-14.47,2.76-19.33-1.34a9.76,9.76,0,0,0,1.75,6.2c4.16,4.41,12.4,4.14,18.41,3.56a38.58,38.58,0,0,0,7.23-1.61,32.8,32.8,0,0,1-14.74,5.67c.74.31,1.49.6,2.25.88l.76.18c1.43.36,3.66,1,4.72,1.24,10.54,2.08,17.73,1.52,24.56-4.09,1.67-2.08,2.7-5.76-5.62-9.47-7.26-3.23-9.84-6.47-10.72-8.65A1.41,1.41,0,0,1,352.73,210.74Zm-62.44-28.33-.37-.17c-1.37-.57-5-2.05-5-2.05s8.79-1.75,20.15,2.87c5.06,2.06,7,2,7,.24.11-3.67-3-6.32-3-6.32s4.89,1.91,6.29,6.07a4.69,4.69,0,0,1-1.55,4.67.4.4,0,0,0-.14.3.5.5,0,0,0,.18.39s5.45,5.41,6.56,8.5a.61.61,0,0,1-.87.69c-1.46-.69-3.21-1.71-5.24-2.73a11.38,11.38,0,0,0-6.62-1,25.16,25.16,0,0,1-4,.3c-3.45-.13-6.34-1.23-8.19-4.51-.74-1.31-1.06-2.7-1.71-4A7.14,7.14,0,0,0,290.29,182.41Zm33,24.41a51.45,51.45,0,0,1-9.45-3.2,11,11,0,0,0-5.58-.9c-3.91.4-11-.21-15.17-8.52a24.86,24.86,0,0,0,16.38,4.42,8.34,8.34,0,0,1,4.57.84c3,1.56,4.27,2.73,9.66,6.53A.47.47,0,0,1,323.26,206.82Z" transform="translate(-49.15 -54)"/><path class="cls-1" d="M445.33,127.46A645.62,645.62,0,0,0,297.52,97.54l-2.85,15.1a627.76,627.76,0,0,1,138.7,27.13A442.61,442.61,0,0,1,379,286.71C347,341.28,304,388.41,251.44,426.8l-1,.73-1-.73c-52.58-38.39-95.5-85.52-127.56-140.09A442.61,442.61,0,0,1,67.53,139.77a627.76,627.76,0,0,1,138.7-27.13l-2.85-15.1A645.17,645.17,0,0,0,55.56,127.46l-6.41,2.11,1,6.23A456.89,456.89,0,0,0,107.42,294c33.13,56.4,77.49,105.11,131.83,144.78,2.13,1.55,4.19,3,6.21,4.46l5,3.53,5-3.53q3-2.13,6.2-4.46C316,399.12,360.35,350.41,393.48,294A457.1,457.1,0,0,0,450.73,135.8l1-6.24Z" transform="translate(-49.15 -54)"/><path class="cls-1" d="M219.13,112.45c.38,2.4-1.73,4.3-4.71,4.3l1.44,7.63a158.62,158.62,0,0,0,32.89,3.67,158.63,158.63,0,0,0,34.77-3.67l1.44-7.63c-3,0-5.09-1.9-4.71-4.3s3.25-4.51,6.38-4.51l7.17-37.89c-7.89,4.24-17.12,11.55-17,19a8.63,8.63,0,0,1,2.42,7.34c-.77,5.43-6.36,9.63-12.52,9.63s-11-4.2-10.86-9.63A10.63,10.63,0,0,1,261,87.93c2.59-3.55,3.12-5.77,2.64-9.77C262.3,67.45,249.69,54,249.69,54s-12.61,13.45-13.9,24.16c-.48,4,.05,6.22,2.64,9.77a10.63,10.63,0,0,1,5.14,8.42c.16,5.43-4.7,9.63-10.86,9.63s-11.75-4.2-12.53-9.63A8.64,8.64,0,0,1,222.61,89c.09-7.41-9.14-14.72-17-19l7.17,37.89C215.87,107.94,218.73,110,219.13,112.45Zm30.66-3.8c4.53,0,8.21,3.4,8.21,7.61s-3.68,7.61-8.21,7.61-8.22-3.41-8.22-7.61S245.25,108.65,249.79,108.65Z" transform="translate(-49.15 -54)"/></svg>