<svg width="250" height="32" viewBox="0 0 250 32" fill="none" xmlns="http://www.w3.org/2000/svg">
	<path d="M44.44 26V9.08H56.512V12.44H48.28V17.312L55.96 16.832V20.24L48.28 20.72V26H44.44ZM57.4656 17.528C57.4656 12.608 60.7296 8.84 66.1056 8.84C71.4576 8.84 74.7216 12.608 74.7216 17.528C74.7216 22.472 71.4576 26.24 66.1056 26.24C60.7296 26.24 57.4656 22.472 57.4656 17.528ZM61.3056 17.528C61.3056 20.792 62.9136 22.88 66.1056 22.88C69.2976 22.88 70.8816 20.792 70.8816 17.528C70.8816 14.288 69.2976 12.2 66.1056 12.2C62.9136 12.2 61.3056 14.288 61.3056 17.528ZM76.9009 26V9.08H83.4529C87.4849 9.08 90.9889 10.016 90.9889 13.808C90.9889 16.592 88.7329 17.36 86.6929 17.6V18.56H89.1649C90.4849 18.56 91.2049 19.28 91.2049 20.6V26H87.3649V20.048H80.7409V26H76.9009ZM80.7409 16.688H83.4529C85.7329 16.688 87.1489 16.688 87.1489 14.576C87.1489 12.44 85.7329 12.44 83.4529 12.44H80.7409V16.688ZM92.8797 17.528C92.8797 12.608 96.1917 8.84 101.568 8.84C106.296 8.84 109.416 11.432 109.92 15.608H106.08C105.696 13.376 103.92 12.2 101.616 12.2C98.6637 12.2 96.7197 14.048 96.7197 17.528C96.7197 21.032 98.6637 22.88 101.616 22.88C103.92 22.88 105.696 21.68 106.08 19.448H109.92C109.416 23.648 106.296 26.24 101.568 26.24C96.1917 26.24 92.8797 22.472 92.8797 17.528ZM112.081 26V9.08H124.153V12.44H115.921V15.848H122.953V19.208H115.921V22.64H124.153V26H112.081ZM133.268 26V9.08H145.34V12.44H137.108V17.312L144.788 16.832V20.24L137.108 20.72V26H133.268ZM158.775 12.44H154.935V22.64H158.775V26H147.255V22.64H151.095V12.44H147.255V9.08H158.775V12.44ZM160.948 26V9.08H168.508L173.62 25.04H174.58L173.86 22.64V9.08H177.7V26H170.14L165.028 10.04H164.068L164.788 12.44V26H160.948ZM193.194 26L191.658 20.576H184.794L183.282 26H179.394L184.266 9.08H192.186L197.082 26H193.194ZM185.73 17.216H190.722L188.706 10.04H187.746L185.73 17.216ZM198.776 26V9.08H206.336L211.448 25.04H212.408L211.688 22.64V9.08H215.528V26H207.968L202.856 10.04H201.896L202.616 12.44V26H198.776ZM217.45 17.528C217.45 12.608 220.762 8.84 226.138 8.84C230.866 8.84 233.986 11.432 234.49 15.608H230.65C230.266 13.376 228.49 12.2 226.186 12.2C223.234 12.2 221.29 14.048 221.29 17.528C221.29 21.032 223.234 22.88 226.186 22.88C228.49 22.88 230.266 21.68 230.65 19.448H234.49C233.986 23.648 230.866 26.24 226.138 26.24C220.762 26.24 217.45 22.472 217.45 17.528ZM236.651 26V9.08H248.723V12.44H240.491V15.848H247.523V19.208H240.491V22.64H248.723V26H236.651Z" fill="white" />
	<path d="M31.283 10.0314C29.7203 7.05272 27.2018 4.68575 24.1321 3.31067C21.0623 1.93558 17.6194 1.63219 14.3565 2.44923C11.0935 3.26627 8.19992 5.15632 6.1404 7.81578C4.08088 10.4752 2.97501 13.7498 3.00043 17.1133C3.02584 20.4769 4.18107 23.7343 6.28053 26.3624C8.38 28.9904 11.3019 30.8365 14.5768 31.6042C17.8517 32.3718 21.2896 32.0164 24.3382 30.5951C27.3869 29.1738 29.8693 26.769 31.3868 23.7671L24.2426 20.1557C23.5349 21.5555 22.3773 22.6769 20.9557 23.3397C19.534 24.0025 17.9308 24.1682 16.4037 23.8103C14.8765 23.4523 13.514 22.5914 12.5349 21.3659C11.5559 20.1404 11.0172 18.6214 11.0053 17.0528C10.9935 15.4843 11.5092 13.9573 12.4696 12.7172C13.43 11.477 14.7794 10.5956 16.3009 10.2146C17.8225 9.83362 19.428 9.9751 20.8595 10.6163C22.291 11.2576 23.4655 12.3613 24.1942 13.7504L31.283 10.0314Z" fill="#CBFB45" />
	<rect x="33" y="6" width="3" height="3" fill="#CBFB45" />
	<rect x="36" y="1" width="3" height="3" fill="#CBFB45" />
	<rect x="30" width="3" height="3" fill="#CBFB45" />
	<rect y="16" width="18" height="2" fill="#CBFB45" />
</svg>
