<svg width="1854" height="1544" viewBox="0 0 1854 1544" fill="none" xmlns="http://www.w3.org/2000/svg">
<g opacity="0.5" filter="url(#filter0_f_1_538)">
<path d="M861.301 790.493C1020.93 793.529 858.716 978.666 757.656 1070.86C591.662 1280.03 606.794 969.645 488.684 1008.64C370.575 1047.63 387.108 654.583 444.065 595.393C501.022 536.202 633.051 545.058 599.789 680.834C566.528 816.61 661.767 786.698 861.301 790.493Z" fill="#7D32F9"/>
</g>
<g opacity="0.5" filter="url(#filter1_f_1_538)">
<path d="M1624.88 630.493C1784.51 633.529 1622.3 818.666 1521.24 910.855C1355.24 1120.03 1370.37 809.645 1252.27 848.639C1134.16 887.632 1150.69 494.583 1207.65 435.393C1264.6 376.202 1396.63 385.058 1363.37 520.834C1330.11 656.61 1425.35 626.698 1624.88 630.493Z" fill="#7D32F9"/>
</g>
<defs>
<filter id="filter0_f_1_538" x="0.296265" y="160.615" width="1328.12" height="1383.32" filterUnits="userSpaceOnUse" color-interpolation-filters="sRGB">
<feFlood flood-opacity="0" result="BackgroundImageFix"/>
<feBlend mode="normal" in="SourceGraphic" in2="BackgroundImageFix" result="shape"/>
<feGaussianBlur stdDeviation="200" result="effect1_foregroundBlur_1_538"/>
</filter>
<filter id="filter1_f_1_538" x="763.877" y="0.615112" width="1328.12" height="1383.32" filterUnits="userSpaceOnUse" color-interpolation-filters="sRGB">
<feFlood flood-opacity="0" result="BackgroundImageFix"/>
<feBlend mode="normal" in="SourceGraphic" in2="BackgroundImageFix" result="shape"/>
<feGaussianBlur stdDeviation="200" result="effect1_foregroundBlur_1_538"/>
</filter>
</defs>
</svg>
