<svg width="624" height="667" viewBox="0 0 624 667" fill="none" xmlns="http://www.w3.org/2000/svg">
<circle cx="310" cy="357" r="309.5" stroke="#898990" stroke-linecap="round" stroke-dasharray="20 0 20 0"/>
<circle cx="312" cy="55" r="55" fill="#151517"/>
<g clip-path="url(#clip0_3_153)">
<path d="M294.49 37.13L294 36.86L287.06 33L285.49 32.13C285.338 32.0422 285.166 31.996 284.99 31.996C284.814 31.996 284.642 32.0422 284.49 32.13C284.331 32.2196 284.2 32.351 284.11 32.51C284.034 32.662 283.996 32.8302 284 33V44C284 44.1772 284.048 44.3511 284.137 44.504C284.227 44.6569 284.356 44.7832 284.51 44.87L291 48.47L292.79 49.47L293.5 49.87C293.579 49.9135 293.663 49.9471 293.75 49.97C293.919 50.0237 294.101 50.0237 294.27 49.97C294.35 49.9488 294.427 49.9186 294.5 49.88V49.88C294.654 49.7911 294.782 49.6626 294.87 49.5079C294.957 49.3532 295.002 49.1779 295 49V38C295 37.8228 294.952 37.6489 294.863 37.496C294.773 37.3431 294.644 37.2168 294.49 37.13ZM292.64 47.13L286 43.41V34.7L293 38.59V47.3L292.75 47.16L292.64 47.13Z" fill="#CBFB45"/>
<path opacity="0.5" d="M293 38.5901V47.3001L292.75 47.1601L292.64 47.1001L286 43.4101V34.7001L293 38.5901Z" fill="#CBFB45"/>
<path d="M303.87 32.51C303.78 32.351 303.649 32.2196 303.49 32.13C303.338 32.0422 303.166 31.996 302.99 31.996C302.814 31.996 302.642 32.0422 302.49 32.13L300.94 33L294 36.86L293.51 37.13C293.356 37.2168 293.227 37.3431 293.137 37.496C293.048 37.6489 293 37.8228 293 38V49C293 49.1736 293.045 49.3441 293.131 49.4949C293.217 49.6457 293.341 49.7715 293.49 49.86C293.569 49.9035 293.653 49.9371 293.74 49.96C293.909 50.0137 294.091 50.0137 294.26 49.96C294.34 49.9388 294.417 49.9086 294.49 49.87V49.87L303.49 44.87C303.644 44.7832 303.773 44.6569 303.863 44.504C303.952 44.3511 304 44.1772 304 44V33C303.997 32.8285 303.953 32.6603 303.87 32.51V32.51ZM302 43.41L295 47.3V38.59L302 34.7V43.41Z" fill="#CBFB45"/>
<path opacity="0.5" d="M302 34.7001V43.4101L295 47.3001V38.5901L302 34.7001Z" fill="#CBFB45"/>
<path d="M303.87 32.51C303.78 32.351 303.649 32.2196 303.49 32.13L294.49 27.13C294.338 27.0422 294.166 26.996 293.99 26.996C293.814 26.996 293.642 27.0422 293.49 27.13L284.49 32.13C284.331 32.2196 284.2 32.351 284.11 32.51C284.034 32.662 283.996 32.8302 284 33C284 33.1772 284.048 33.3511 284.137 33.504C284.227 33.6569 284.356 33.7832 284.51 33.87L286 34.7L293 38.59L293.51 38.87C293.662 38.9578 293.834 39.004 294.01 39.004C294.186 39.004 294.358 38.9578 294.51 38.87L295.02 38.59L302 34.7L303.49 33.87C303.644 33.7832 303.773 33.6569 303.863 33.504C303.952 33.3511 304 33.1772 304 33C303.997 32.8285 303.953 32.6603 303.87 32.51V32.51ZM294 36.86L287.06 33L294 29.14L300.94 33L294 36.86Z" fill="#CBFB45"/>
<path opacity="0.5" d="M300.94 32.9996L294 36.8596L287.06 32.9996L294 29.1396L300.94 32.9996Z" fill="#CBFB45"/>
<path d="M330.49 37.13L330 36.86L323.06 33L321.49 32.13C321.338 32.0422 321.166 31.996 320.99 31.996C320.814 31.996 320.642 32.0422 320.49 32.13C320.331 32.2196 320.2 32.351 320.11 32.51C320.034 32.662 319.996 32.8302 320 33V44C320 44.1772 320.048 44.3511 320.137 44.504C320.227 44.6569 320.356 44.7832 320.51 44.87L329.51 49.87C329.589 49.9135 329.673 49.9471 329.76 49.97C329.929 50.0237 330.111 50.0237 330.28 49.97C330.36 49.9488 330.437 49.9186 330.51 49.88V49.88C330.662 49.7898 330.788 49.6608 330.874 49.5062C330.96 49.3516 331.003 49.1769 331 49V38C331 37.8228 330.952 37.6489 330.863 37.496C330.773 37.3431 330.644 37.2168 330.49 37.13ZM322 34.7L329 38.59V47.3L322 43.41V34.7Z" fill="#CBFB45"/>
<path opacity="0.5" d="M329 38.5901V47.3001L322 43.4101V34.7001L329 38.5901Z" fill="#CBFB45"/>
<path d="M339.87 32.51C339.78 32.351 339.649 32.2196 339.49 32.13C339.338 32.0422 339.166 31.996 338.99 31.996C338.814 31.996 338.642 32.0422 338.49 32.13L336.94 33L330 36.86L329.51 37.13C329.356 37.2168 329.227 37.3431 329.137 37.496C329.048 37.6489 329 37.8228 329 38V49C329 49.1736 329.045 49.3441 329.131 49.4949C329.217 49.6457 329.341 49.7715 329.49 49.86C329.569 49.9035 329.653 49.9371 329.74 49.96C329.909 50.0137 330.091 50.0137 330.26 49.96C330.34 49.9388 330.417 49.9086 330.49 49.87V49.87L331.2 49.47L332.99 48.47L339.47 44.87C339.628 44.7858 339.761 44.6606 339.854 44.5076C339.947 44.3545 339.998 44.1792 340 44V33C339.997 32.8285 339.953 32.6603 339.87 32.51V32.51ZM338 43.41L331.36 47.1L331.25 47.16L331 47.3V38.59L338 34.7V43.41Z" fill="#CBFB45"/>
<path opacity="0.5" d="M338 34.7001V43.4101L331.36 47.1001L331.25 47.1601L331 47.3001V38.5901L338 34.7001Z" fill="#CBFB45"/>
<path d="M339.87 32.51C339.78 32.351 339.649 32.2196 339.49 32.13L330.49 27.13C330.338 27.0422 330.166 26.996 329.99 26.996C329.814 26.996 329.642 27.0422 329.49 27.13L320.49 32.13C320.331 32.2196 320.2 32.351 320.11 32.51C320.034 32.662 319.996 32.8302 320 33C320 33.1772 320.048 33.3511 320.137 33.504C320.227 33.6569 320.356 33.7832 320.51 33.87L322 34.7L329 38.59L329.51 38.87C329.662 38.9578 329.834 39.004 330.01 39.004C330.186 39.004 330.358 38.9578 330.51 38.87L331.02 38.59L338 34.7L339.49 33.87C339.644 33.7832 339.773 33.6569 339.863 33.504C339.952 33.3511 340 33.1772 340 33C339.997 32.8285 339.953 32.6603 339.87 32.51V32.51ZM330 36.86L323.06 33L330 29.14L336.94 33L330 36.86Z" fill="#CBFB45"/>
<path opacity="0.5" d="M336.94 32.9996L330 36.8596L323.06 32.9996L330 29.1396L336.94 32.9996Z" fill="#CBFB45"/>
<path d="M294.49 70.13L294 69.86L287.06 66L285.49 65.13C285.338 65.0422 285.166 64.996 284.99 64.996C284.814 64.996 284.642 65.0422 284.49 65.13C284.331 65.2196 284.2 65.351 284.11 65.51C284.034 65.662 283.996 65.8302 284 66V77C284 77.1772 284.048 77.3511 284.137 77.504C284.227 77.6569 284.356 77.7832 284.51 77.87L293.51 82.87C293.589 82.9135 293.673 82.9471 293.76 82.97C293.929 83.0237 294.111 83.0237 294.28 82.97C294.36 82.9488 294.437 82.9186 294.51 82.88V82.88C294.662 82.7898 294.788 82.6608 294.874 82.5062C294.96 82.3516 295.003 82.1769 295 82V71C295 70.8228 294.952 70.6489 294.863 70.496C294.773 70.3431 294.644 70.2168 294.49 70.13V70.13ZM286 67.7L293 71.59V80.3L286 76.41V67.7Z" fill="#CBFB45"/>
<path opacity="0.5" d="M293 71.5901V80.3001L286 76.4101V67.7001L293 71.5901Z" fill="#CBFB45"/>
<path d="M303.87 65.51C303.78 65.351 303.649 65.2196 303.49 65.13C303.338 65.0422 303.166 64.996 302.99 64.996C302.814 64.996 302.642 65.0422 302.49 65.13L300.94 66L294 69.86L293.51 70.13C293.356 70.2168 293.227 70.3431 293.137 70.496C293.048 70.6489 293 70.8228 293 71V82C293 82.1736 293.045 82.3441 293.131 82.4949C293.217 82.6457 293.341 82.7715 293.49 82.86C293.569 82.9035 293.653 82.9371 293.74 82.96C293.909 83.0137 294.091 83.0137 294.26 82.96C294.34 82.9388 294.417 82.9086 294.49 82.87V82.87L303.49 77.87C303.644 77.7832 303.773 77.6569 303.863 77.504C303.952 77.3511 304 77.1772 304 77V66C303.997 65.8285 303.953 65.6603 303.87 65.51V65.51ZM302 76.41L295 80.3V71.59L302 67.7V76.41Z" fill="#CBFB45"/>
<path opacity="0.5" d="M302 67.7001V76.4101L295 80.3001V71.5901L302 67.7001Z" fill="#CBFB45"/>
<path d="M303.87 65.51C303.78 65.351 303.649 65.2196 303.49 65.13L294.49 60.13C294.338 60.0422 294.166 59.996 293.99 59.996C293.814 59.996 293.642 60.0422 293.49 60.13L292.76 60.54L291 61.53L284.51 65.13C284.351 65.2196 284.22 65.351 284.13 65.51C284.047 65.6603 284.003 65.8285 284 66C284 66.1772 284.048 66.3511 284.137 66.504C284.227 66.6569 284.356 66.7832 284.51 66.87L286 67.7L293 71.59L293.51 71.87C293.662 71.9578 293.834 72.004 294.01 72.004C294.186 72.004 294.358 71.9578 294.51 71.87L295.02 71.59L302.02 67.7L303.51 66.87C303.661 66.7806 303.785 66.6532 303.871 66.5005C303.957 66.3479 304.002 66.1752 304 66C303.997 65.8285 303.953 65.6603 303.87 65.51V65.51ZM294 69.86L287.06 66L292.61 62.92L292.76 62.83H292.81L294 62.14L300.94 66L294 69.86Z" fill="#CBFB45"/>
<path opacity="0.5" d="M300.94 65.9996L294 69.8596L287.06 65.9996L292.61 62.9196L292.76 62.8296H292.81L294 62.1396L300.94 65.9996Z" fill="#CBFB45"/>
<path d="M330.49 70.13L330 69.86L323.06 66L321.49 65.13C321.338 65.0422 321.166 64.996 320.99 64.996C320.814 64.996 320.642 65.0422 320.49 65.13C320.331 65.2196 320.2 65.351 320.11 65.51C320.034 65.662 319.996 65.8302 320 66V77C320 77.1772 320.048 77.3511 320.137 77.504C320.227 77.6569 320.356 77.7832 320.51 77.87L329.51 82.87C329.589 82.9135 329.673 82.9471 329.76 82.97C329.929 83.023 330.111 83.023 330.28 82.97C330.36 82.9488 330.437 82.9186 330.51 82.88C330.662 82.7898 330.788 82.6608 330.874 82.5062C330.96 82.3516 331.003 82.1769 331 82V71C331 70.8228 330.952 70.6489 330.863 70.496C330.773 70.3431 330.644 70.2168 330.49 70.13ZM322 67.7L329 71.59V80.3L322 76.41V67.7Z" fill="#CBFB45"/>
<path opacity="0.5" d="M329 71.5901V80.3001L322 76.4101V67.7001L329 71.5901Z" fill="#CBFB45"/>
<path d="M339.87 65.51C339.78 65.351 339.649 65.2196 339.49 65.13C339.338 65.0422 339.166 64.996 338.99 64.996C338.814 64.996 338.642 65.0422 338.49 65.13L336.94 66L330 69.86L329.51 70.13C329.356 70.2168 329.227 70.3431 329.137 70.496C329.048 70.6489 329 70.8228 329 71V82C329 82.1736 329.045 82.3441 329.131 82.4949C329.217 82.6457 329.341 82.7715 329.49 82.86C329.569 82.9035 329.653 82.9371 329.74 82.96C329.909 83.013 330.091 83.013 330.26 82.96C330.34 82.9388 330.417 82.9086 330.49 82.87V82.87L339.49 77.87C339.644 77.7832 339.773 77.6569 339.863 77.504C339.952 77.3511 340 77.1772 340 77V66C339.997 65.8285 339.953 65.6603 339.87 65.51V65.51ZM338 76.41L331 80.3V71.59L338 67.7V76.41Z" fill="#CBFB45"/>
<path opacity="0.5" d="M338 67.7001V76.4101L331 80.3001V71.5901L338 67.7001Z" fill="#CBFB45"/>
<path d="M330.86 61.6602C330.99 61.2902 331.11 60.9202 331.22 60.5402L330.49 60.1302C330.338 60.0425 330.166 59.9963 329.99 59.9963C329.814 59.9963 329.642 60.0425 329.49 60.1302L320.49 65.1302C320.642 65.0425 320.814 64.9963 320.99 64.9963C321.166 64.9963 321.338 65.0425 321.49 65.1302L323.06 66.0002L330 62.1402L331.18 62.7902C331.014 62.6597 330.894 62.4801 330.837 62.2772C330.779 62.0742 330.787 61.8583 330.86 61.6602V61.6602ZM339.86 65.5102C339.77 65.3513 339.639 65.2199 339.48 65.1302L333 61.5302L331.21 60.5302L330.48 60.1202C330.328 60.0325 330.156 59.9863 329.98 59.9863C329.804 59.9863 329.632 60.0325 329.48 60.1202L320.48 65.1202C320.321 65.2099 320.19 65.3413 320.1 65.5002C320.026 65.6562 319.992 65.8279 320 66.0002C320 66.1774 320.048 66.3514 320.137 66.5042C320.227 66.6571 320.356 66.7834 320.51 66.8702L322 67.7002L329 71.5902L329.51 71.8702C329.662 71.958 329.834 72.0042 330.01 72.0042C330.186 72.0042 330.358 71.958 330.51 71.8702L331.02 71.5902L338.02 67.7002L339.51 66.8702C339.661 66.7809 339.785 66.6535 339.871 66.5008C339.957 66.3481 340.002 66.1755 340 66.0002C339.997 65.8287 339.953 65.6605 339.87 65.5102H339.86ZM330 69.8602L323.06 66.0002L330 62.1402L331.18 62.7902L331.33 62.8802L336.94 66.0002L330 69.8602Z" fill="#CBFB45"/>
<path opacity="0.5" d="M336.94 65.9996L330 69.8596L323.06 65.9996L330 62.1396L331.18 62.7896L331.33 62.8796L336.94 65.9996Z" fill="#CBFB45"/>
<path opacity="0.5" d="M292.82 62.7904H292.77L292.62 62.8804H292.55C292.441 62.9406 292.323 62.9812 292.2 63.0004C291.995 63.0003 291.794 62.9369 291.626 62.8188C291.458 62.7007 291.33 62.5337 291.26 62.3404C291.16 62.0671 291.07 61.7971 290.99 61.5304C289.671 57.2764 289.675 52.7224 291 48.4704C291.08 48.1971 291.17 47.9271 291.27 47.6604C291.36 47.4112 291.546 47.208 291.786 47.0955C292.026 46.9829 292.301 46.9703 292.55 47.0604H292.65L292.76 47.1204C292.857 47.1981 292.938 47.293 293 47.4004C293.099 47.5332 293.164 47.6886 293.189 47.8527C293.213 48.0168 293.196 48.1844 293.14 48.3404C293.09 48.4804 293.04 48.6104 293 48.7504C292.96 48.8904 292.85 49.2204 292.78 49.4604C291.74 53.0805 291.74 56.9203 292.78 60.5404C292.89 60.9204 293.01 61.2904 293.14 61.6604C293.213 61.8584 293.221 62.0744 293.163 62.2773C293.106 62.4803 292.986 62.6599 292.82 62.7904V62.7904Z" fill="#CBFB45"/>
<path opacity="0.5" d="M312 76.9996C308.737 77.0115 305.514 76.2868 302.57 74.8796C302.33 74.7655 302.145 74.5608 302.056 74.3104C301.967 74.0601 301.981 73.7846 302.095 73.5446C302.209 73.3045 302.414 73.1196 302.664 73.0306C302.915 72.9415 303.19 72.9555 303.43 73.0696C306.108 74.3398 309.036 74.9987 312 74.9987C314.964 74.9987 317.892 74.3398 320.57 73.0696C320.81 72.9555 321.086 72.9415 321.336 73.0306C321.586 73.1196 321.791 73.3045 321.905 73.5446C322.019 73.7846 322.033 74.0601 321.944 74.3104C321.855 74.5608 321.67 74.7655 321.43 74.8796C318.486 76.2868 315.263 77.0115 312 76.9996V76.9996Z" fill="#CBFB45"/>
<path opacity="0.5" d="M334 55.0004C334.001 57.2153 333.664 59.4174 333 61.5304C332.92 61.7971 332.83 62.0671 332.73 62.3404C332.66 62.5337 332.532 62.7008 332.364 62.8189C332.196 62.9369 331.996 63.0004 331.79 63.0004C331.674 62.9992 331.559 62.9789 331.45 62.9404H331.38L331.23 62.8504C331.064 62.7199 330.944 62.5403 330.887 62.3374C330.829 62.1344 330.837 61.9185 330.91 61.7204C331.04 61.3504 331.16 60.9804 331.27 60.6004C332.31 56.9804 332.31 53.1405 331.27 49.5204C331.2 49.2804 331.13 49.0404 331.05 48.8104C330.97 48.5804 330.96 48.5404 330.91 48.4004C330.835 48.2406 330.805 48.0639 330.82 47.8883C330.836 47.7127 330.898 47.5444 331 47.4004C331.069 47.3065 331.153 47.2253 331.25 47.1604L331.36 47.1004H331.46C331.709 47.0104 331.984 47.023 332.224 47.1355C332.464 47.248 332.65 47.4512 332.74 47.7004C332.84 47.9671 332.93 48.2371 333.01 48.5104C333.666 50.6113 334 52.7995 334 55.0004V55.0004Z" fill="#CBFB45"/>
<path opacity="0.5" d="M321 37.0001C320.851 37.0014 320.703 36.9671 320.57 36.9001C317.89 35.636 314.963 34.9805 312 34.9805C309.037 34.9805 306.11 35.636 303.43 36.9001C303.191 37.0135 302.917 37.0276 302.668 36.9396C302.419 36.8515 302.215 36.6683 302.1 36.4301C302.042 36.3114 302.009 36.1824 302.001 36.0506C301.994 35.9188 302.012 35.7868 302.056 35.6622C302.1 35.5376 302.167 35.4229 302.256 35.3248C302.344 35.2266 302.451 35.1468 302.57 35.0901C305.52 33.7008 308.74 32.9804 312 32.9804C315.26 32.9804 318.48 33.7008 321.43 35.0901C321.639 35.1853 321.809 35.3496 321.911 35.5553C322.013 35.7611 322.042 35.9957 321.991 36.2199C321.941 36.444 321.815 36.6439 321.634 36.786C321.454 36.9281 321.23 37.0037 321 37.0001V37.0001Z" fill="#CBFB45"/>
<path d="M316.36 54.54C316.779 53.9576 317.003 53.2575 317 52.54V52.43C317.007 51.5901 316.705 50.777 316.152 50.1448C315.599 49.5126 314.833 49.1053 314 49V48C314 47.7348 313.895 47.4804 313.707 47.2929C313.52 47.1054 313.265 47 313 47C312.735 47 312.48 47.1054 312.293 47.2929C312.105 47.4804 312 47.7348 312 48V49H310V48C310 47.7348 309.895 47.4804 309.707 47.2929C309.52 47.1054 309.265 47 309 47C308.735 47 308.48 47.1054 308.293 47.2929C308.105 47.4804 308 47.7348 308 48V49H307C306.735 49 306.48 49.1054 306.293 49.2929C306.105 49.4804 306 49.7348 306 50C306 50.2652 306.105 50.5196 306.293 50.7071C306.48 50.8946 306.735 51 307 51V59C306.735 59 306.48 59.1054 306.293 59.2929C306.105 59.4804 306 59.7348 306 60C306 60.2652 306.105 60.5196 306.293 60.7071C306.48 60.8946 306.735 61 307 61H308V62C308 62.2652 308.105 62.5196 308.293 62.7071C308.48 62.8946 308.735 63 309 63C309.265 63 309.52 62.8946 309.707 62.7071C309.895 62.5196 310 62.2652 310 62V61H312V62C312 62.2652 312.105 62.5196 312.293 62.7071C312.48 62.8946 312.735 63 313 63C313.265 63 313.52 62.8946 313.707 62.7071C313.895 62.5196 314 62.2652 314 62V61H314.5C315.258 60.9983 315.995 60.7506 316.6 60.2941C317.205 59.8375 317.646 59.1969 317.856 58.4684C318.065 57.74 318.033 56.9631 317.763 56.2547C317.494 55.5462 317.001 54.9445 316.36 54.54V54.54ZM313 51H313.56C313.941 51.0026 314.306 51.1552 314.575 51.4247C314.845 51.6941 314.997 52.0589 315 52.44V52.55C315 52.9328 314.849 53.3001 314.579 53.5718C314.309 53.8434 313.943 53.9974 313.56 54H309V51H313ZM314.5 59H309V56H314.5C314.898 56 315.279 56.158 315.561 56.4393C315.842 56.7206 316 57.1022 316 57.5C316 57.8978 315.842 58.2794 315.561 58.5607C315.279 58.842 314.898 59 314.5 59Z" fill="#CBFB45"/>
</g>
<circle cx="569" cy="514" r="55" fill="#CBFB45"/>
<g clip-path="url(#clip1_3_153)">
<path d="M597 541C597 541.265 596.895 541.52 596.707 541.707C596.52 541.895 596.265 542 596 542H542C541.735 542 541.48 541.895 541.293 541.707C541.105 541.52 541 541.265 541 541C541 540.735 541.105 540.48 541.293 540.293C541.48 540.105 541.735 540 542 540H596C596.265 540 596.52 540.105 596.707 540.293C596.895 540.48 597 540.735 597 541Z" fill="#161617"/>
<path d="M578.28 499.26C577.393 497.113 576.149 495.131 574.6 493.4C574.32 493.07 574.03 492.76 573.72 492.4L573.22 491.9L571.8 490.53L570.39 489.12L567.56 486.29C567.373 486.104 567.119 485.999 566.855 485.999C566.591 485.999 566.337 486.104 566.15 486.29L561.9 490.53C561.717 490.721 561.614 490.975 561.61 491.24C561.602 491.38 561.624 491.52 561.674 491.651C561.724 491.782 561.801 491.901 561.9 492L569 499L572.21 502.21C573.285 503.319 574.222 504.555 575 505.89L578 510.89C578.089 511.036 578.214 511.157 578.362 511.241C578.511 511.325 578.679 511.369 578.85 511.37C578.94 511.38 579.03 511.38 579.12 511.37C579.336 511.309 579.526 511.178 579.658 510.996C579.791 510.815 579.858 510.594 579.85 510.37V507.37C579.869 504.589 579.335 501.833 578.28 499.26V499.26ZM576.76 504.86C575.867 503.407 574.807 502.065 573.6 500.86L569.68 496.9L566.85 494.07L564 491.24L566.83 488.41L572.49 494.07C575.798 497.462 577.711 501.974 577.85 506.71L576.76 504.86Z" fill="#161617"/>
<path d="M569.68 496.9L566.85 494.07C566.663 493.884 566.409 493.779 566.145 493.779C565.881 493.779 565.627 493.884 565.44 494.07L564.73 494.78L548.47 511C548.377 511.094 548.304 511.204 548.254 511.326C548.204 511.448 548.179 511.578 548.18 511.71C548.181 511.972 548.285 512.224 548.47 512.41L551.3 515.24C551.487 515.426 551.741 515.531 552.005 515.531C552.269 515.531 552.523 515.426 552.71 515.24L569 499L569.71 498.29C569.896 498.103 570.001 497.849 570.001 497.585C570.001 497.321 569.896 497.067 569.71 496.88L569.68 496.9ZM552 513.16L550.59 511.75L566.15 496.2L567.56 497.61L552 513.16Z" fill="#161617"/>
<path opacity="0.5" d="M566.154 496.197L550.592 511.748L551.999 513.156L567.561 497.605L566.154 496.197Z" fill="#161617"/>
<path d="M575.34 488.41C574.777 487.848 574.015 487.532 573.22 487.532C572.425 487.532 571.662 487.848 571.1 488.41L570.39 489.12L569.68 489.83C569.494 490.017 569.389 490.27 569.389 490.535C569.389 490.799 569.494 491.052 569.68 491.24L572.51 494.07C572.603 494.162 572.714 494.236 572.836 494.285C572.958 494.335 573.088 494.36 573.22 494.36C573.482 494.358 573.734 494.254 573.92 494.07L574.6 493.4L575.34 492.66C575.62 492.381 575.842 492.05 575.993 491.685C576.144 491.32 576.222 490.929 576.222 490.535C576.222 490.14 576.144 489.749 575.993 489.384C575.842 489.019 575.62 488.688 575.34 488.41V488.41ZM571.8 490.53L572.51 489.83C572.6 489.725 572.71 489.64 572.834 489.58C572.958 489.52 573.093 489.486 573.231 489.481C573.369 489.475 573.506 489.499 573.634 489.549C573.763 489.599 573.879 489.675 573.977 489.773C574.074 489.87 574.15 489.987 574.201 490.115C574.251 490.244 574.274 490.381 574.269 490.519C574.263 490.656 574.23 490.791 574.17 490.916C574.11 491.04 574.025 491.15 573.92 491.24L573.22 491.95L571.8 490.53Z" fill="#161617"/>
<path opacity="0.5" d="M573.92 491.24L573.22 491.95L571.8 490.53L572.51 489.83C572.6 489.725 572.71 489.64 572.834 489.58C572.958 489.52 573.093 489.487 573.231 489.481C573.369 489.476 573.506 489.499 573.634 489.549C573.763 489.6 573.879 489.676 573.977 489.773C574.074 489.871 574.15 489.987 574.201 490.116C574.251 490.244 574.274 490.381 574.269 490.519C574.264 490.657 574.23 490.792 574.17 490.916C574.11 491.04 574.025 491.15 573.92 491.24V491.24Z" fill="#161617"/>
<path d="M592.71 535.32L591 533.61L589 531.61L585 527.61V527C585.015 526.72 585.015 526.44 585 526.16C584.989 525.925 584.962 525.691 584.92 525.46C584.908 525.369 584.891 525.279 584.87 525.19C584.775 524.684 584.642 524.185 584.47 523.7C584.39 523.473 584.3 523.243 584.2 523.01C583.497 521.374 582.37 519.955 580.936 518.9C579.501 517.846 577.811 517.193 576.04 517.01C576.04 515.419 575.408 513.892 574.283 512.767C573.157 511.642 571.631 511.01 570.04 511.01C569.908 511.009 569.778 511.034 569.656 511.084C569.534 511.134 569.423 511.207 569.33 511.3L566.59 514H562C561.868 513.999 561.738 514.024 561.616 514.074C561.494 514.124 561.383 514.197 561.29 514.29L555.57 520C554.054 520.109 552.637 520.789 551.603 521.902C550.569 523.016 549.996 524.48 550 526V530C550 530.187 550.052 530.371 550.151 530.53C550.25 530.689 550.392 530.817 550.56 530.9C550.721 530.973 550.898 531.002 551.073 530.985C551.249 530.967 551.417 530.903 551.56 530.8C552.123 530.368 552.795 530.102 553.5 530.03L557.18 534.62C557.277 534.743 557.402 534.842 557.545 534.908C557.687 534.974 557.843 535.005 558 535C558.53 535 559.039 535.211 559.414 535.586C559.789 535.961 560 536.469 560 537C560 537.265 560.105 537.519 560.293 537.707C560.48 537.894 560.735 538 561 538C561.173 537.985 561.347 537.985 561.52 538C561.646 538.019 561.769 538.049 561.89 538.09C562.052 538.138 562.21 538.202 562.36 538.28C562.489 538.343 562.613 538.417 562.73 538.5C562.993 538.69 563.226 538.919 563.42 539.18C563.499 539.289 563.572 539.403 563.64 539.52C563.692 539.616 563.735 539.716 563.77 539.82C563.776 539.843 563.776 539.867 563.77 539.89C563.774 539.91 563.774 539.93 563.77 539.95C563.914 540.281 563.993 540.638 564 541C564 541.265 564.105 541.519 564.293 541.707C564.48 541.894 564.735 542 565 542H592C592.265 542 592.52 541.894 592.707 541.707C592.895 541.519 593 541.265 593 541V536C592.994 535.744 592.89 535.501 592.71 535.32V535.32ZM565.9 540L565.81 539.63L565.69 539.26C565.582 538.985 565.455 538.718 565.31 538.46C565.239 538.343 565.162 538.229 565.08 538.12C565.005 538.007 564.922 537.9 564.83 537.8C564.741 537.681 564.64 537.57 564.53 537.47C564.435 537.368 564.335 537.271 564.23 537.18V537.18C564.044 537.022 563.847 536.878 563.64 536.75L563.46 536.64L563.15 536.48L562.77 536.32C562.489 536.21 562.198 536.129 561.9 536.08C561.705 535.297 561.277 534.592 560.674 534.057C560.071 533.521 559.32 533.181 558.52 533.08L554.79 528.43C554.701 528.301 554.583 528.196 554.446 528.121C554.309 528.046 554.156 528.005 554 528C553.665 528 553.33 528.03 553 528.09L552.51 528.19C552.344 528.231 552.18 528.281 552.02 528.34V526C552.02 524.939 552.441 523.922 553.192 523.171C553.942 522.421 554.959 522 556.02 522C556.152 522.001 556.282 521.975 556.404 521.926C556.526 521.876 556.637 521.802 556.73 521.71L562.41 516H567C567.132 516.001 567.262 515.975 567.384 515.926C567.506 515.876 567.617 515.802 567.71 515.71L570.4 513.02C571.387 513.119 572.301 513.581 572.966 514.316C573.632 515.052 574 516.008 574 517V518C574 518.265 574.105 518.519 574.293 518.707C574.48 518.894 574.735 519 575 519C577.122 519 579.157 519.843 580.657 521.343C582.157 522.843 583 524.878 583 527V528C582.999 528.131 583.024 528.262 583.074 528.384C583.124 528.506 583.197 528.616 583.29 528.71L589.29 534.71H589.35L591 536.44V540H565.9Z" fill="#161617"/>
<path opacity="0.5" d="M589.35 534.79H589.29L583.29 528.79C583.187 528.687 583.108 528.563 583.058 528.427C583.008 528.291 582.988 528.145 583 528V527C583 524.878 582.157 522.843 580.657 521.343C579.157 519.843 577.122 519 575 519C574.735 519 574.48 518.895 574.293 518.707C574.105 518.52 574 518.265 574 518V517C574.005 516.005 573.639 515.044 572.973 514.304C572.308 513.564 571.39 513.099 570.4 513L567.71 515.69C567.618 515.786 567.508 515.863 567.386 515.917C567.264 515.97 567.133 515.998 567 516H562.41L556.71 521.71C556.617 521.803 556.506 521.876 556.384 521.926C556.262 521.976 556.132 522.001 556 522C554.939 522 553.922 522.421 553.172 523.172C552.421 523.922 552 524.939 552 526V528.34C552.16 528.281 552.324 528.231 552.49 528.19C552.651 528.146 552.815 528.113 552.98 528.09C553.317 528.029 553.658 527.999 554 528C554.15 528.001 554.298 528.035 554.433 528.101C554.568 528.167 554.687 528.262 554.78 528.38L558.51 533.03C559.31 533.131 560.061 533.472 560.664 534.007C561.267 534.542 561.695 535.247 561.89 536.03C562.188 536.079 562.479 536.16 562.76 536.27L563.14 536.43L563.45 536.59L563.63 536.7C563.837 536.829 564.034 536.972 564.22 537.13C564.325 537.222 564.425 537.318 564.52 537.42C564.63 537.52 564.731 537.631 564.82 537.75C564.915 537.847 564.999 537.954 565.07 538.07C565.152 538.179 565.229 538.293 565.3 538.41C565.445 538.668 565.572 538.935 565.68 539.21L565.8 539.58L565.89 539.95H591V536.44L589.35 534.79ZM571 534V535C571 535.265 570.895 535.52 570.707 535.707C570.52 535.895 570.265 536 570 536C569.735 536 569.48 535.895 569.293 535.707C569.105 535.52 569 535.265 569 535V534H568V535C568 535.265 567.895 535.52 567.707 535.707C567.52 535.895 567.265 536 567 536C566.735 536 566.48 535.895 566.293 535.707C566.105 535.52 566 535.265 566 535V534H565C564.735 534 564.48 533.895 564.293 533.707C564.105 533.52 564 533.265 564 533C564 532.735 564.105 532.48 564.293 532.293C564.48 532.105 564.735 532 565 532V526C564.735 526 564.48 525.895 564.293 525.707C564.105 525.52 564 525.265 564 525C564 524.735 564.105 524.48 564.293 524.293C564.48 524.105 564.735 524 565 524H566V523C566 522.735 566.105 522.48 566.293 522.293C566.48 522.105 566.735 522 567 522C567.265 522 567.52 522.105 567.707 522.293C567.895 522.48 568 522.735 568 523V524H569V523C569 522.735 569.105 522.48 569.293 522.293C569.48 522.105 569.735 522 570 522C570.265 522 570.52 522.105 570.707 522.293C570.895 522.48 571 522.735 571 523V524.18C571.584 524.386 572.089 524.768 572.447 525.273C572.805 525.778 572.998 526.381 573 527C572.999 527.514 572.868 528.02 572.62 528.47C573.168 528.819 573.588 529.337 573.816 529.945C574.045 530.554 574.07 531.22 573.887 531.843C573.704 532.467 573.324 533.014 572.803 533.403C572.283 533.792 571.65 534.002 571 534Z" fill="#161617"/>
<path opacity="0.5" d="M571 527C571 527.265 570.895 527.52 570.707 527.707C570.52 527.895 570.265 528 570 528H567V526H570C570.265 526 570.52 526.105 570.707 526.293C570.895 526.48 571 526.735 571 527Z" fill="#161617"/>
<path opacity="0.5" d="M572 531C572 531.265 571.895 531.52 571.707 531.707C571.52 531.895 571.265 532 571 532H567V530H571C571.265 530 571.52 530.105 571.707 530.293C571.895 530.48 572 530.735 572 531Z" fill="#161617"/>
<path d="M589 525.09C588.372 524.438 587.62 523.918 586.789 523.56C585.959 523.201 585.065 523.011 584.16 523H584C583.787 522.984 583.573 522.984 583.36 523C583.213 523.02 583.071 523.072 582.947 523.153C582.822 523.235 582.717 523.343 582.64 523.47C582.563 523.596 582.515 523.738 582.5 523.885C582.484 524.032 582.501 524.18 582.55 524.32C582.853 525.18 583.005 526.087 583 527V528C582.999 528.131 583.024 528.262 583.074 528.384C583.124 528.505 583.197 528.616 583.29 528.71L589.29 534.71H589.35C589.524 534.883 589.755 534.986 590 535C590.131 535.003 590.261 534.976 590.38 534.92C590.563 534.845 590.719 534.717 590.829 534.554C590.94 534.39 590.999 534.197 591 534V530C591.007 529.09 590.834 528.187 590.491 527.345C590.148 526.502 589.641 525.735 589 525.09V525.09ZM585 527.62V527C585.015 526.72 585.015 526.439 585 526.16C584.989 525.925 584.962 525.691 584.92 525.46C584.908 525.369 584.891 525.279 584.87 525.19C584.875 525.146 584.875 525.103 584.87 525.06C586.03 525.265 587.08 525.873 587.836 526.776C588.592 527.68 589.004 528.822 589 530V531.59L585 527.62Z" fill="#161617"/>
<path d="M565.9 540L565.81 539.63L565.69 539.26C565.582 538.985 565.455 538.718 565.31 538.46C565.239 538.343 565.162 538.229 565.08 538.12C565.005 538.007 564.922 537.9 564.83 537.8C564.741 537.681 564.64 537.57 564.53 537.47C564.435 537.368 564.335 537.272 564.23 537.18V537.18C564.044 537.022 563.847 536.879 563.64 536.75L563.46 536.64L563.15 536.48L562.77 536.32C562.489 536.21 562.198 536.129 561.9 536.08C561.705 535.297 561.277 534.592 560.674 534.057C560.071 533.522 559.32 533.181 558.52 533.08L554.79 528.43C554.701 528.302 554.583 528.196 554.446 528.121C554.309 528.046 554.156 528.005 554 528C553.665 528 553.33 528.031 553 528.09L552.51 528.19C552.344 528.231 552.18 528.281 552.02 528.34C551.445 528.542 550.906 528.832 550.42 529.2L550.02 529.54C548.982 530.47 548.299 531.732 548.09 533.11C547.212 533.315 546.429 533.811 545.868 534.517C545.307 535.223 545.001 536.098 545 537V541C545 541.265 545.105 541.52 545.293 541.707C545.48 541.895 545.735 542 546 542H565C565.265 542 565.52 541.895 565.707 541.707C565.895 541.52 566 541.265 566 541C566.002 540.664 565.968 540.329 565.9 540V540ZM547 540V537C547 536.47 547.211 535.961 547.586 535.586C547.961 535.211 548.47 535 549 535C549.265 535 549.52 534.895 549.707 534.707C549.895 534.52 550 534.265 550 534C550 533.379 550.145 532.767 550.422 532.211C550.7 531.656 551.103 531.173 551.6 530.8C552.163 530.369 552.835 530.102 553.54 530.03L557.22 534.62C557.313 534.738 557.432 534.833 557.567 534.899C557.702 534.965 557.85 534.999 558 535C558.53 535 559.039 535.211 559.414 535.586C559.789 535.961 560 536.47 560 537C560 537.265 560.105 537.52 560.293 537.707C560.48 537.895 560.735 538 561 538C561.173 537.985 561.347 537.985 561.52 538C561.646 538.019 561.769 538.049 561.89 538.09C562.052 538.139 562.21 538.202 562.36 538.28C562.489 538.344 562.613 538.417 562.73 538.5C562.993 538.69 563.226 538.919 563.42 539.18C563.499 539.29 563.572 539.403 563.64 539.52C563.692 539.616 563.735 539.717 563.77 539.82C563.776 539.843 563.776 539.867 563.77 539.89V539.95L547 540Z" fill="#161617"/>
</g>
<circle cx="55" cy="501" r="55" fill="#151517"/>
<g clip-path="url(#clip2_3_153)">
<path d="M50.58 496.08L50.41 496L50 495.8L49.52 495.53L49 495.25L48.54 494.94C48.25 494.72 47.96 494.49 47.69 494.25C46.0475 492.79 44.8747 490.876 44.32 488.75C44.2633 488.53 44.1334 488.335 43.9516 488.199C43.7699 488.063 43.5471 487.992 43.32 488H31.75C30.4574 488.034 29.2311 488.579 28.3405 489.517C27.4499 490.454 26.9677 491.707 27 493C26.9997 493.335 27.0332 493.67 27.1 494C27.2792 494.945 27.7191 495.821 28.37 496.53C28.5629 496.732 28.7737 496.916 29 497.08C29.7907 497.68 30.7572 498.003 31.75 498H50.2C50.4295 497.997 50.6511 497.915 50.8275 497.769C51.004 497.622 51.1247 497.419 51.1692 497.194C51.2138 496.969 51.1795 496.735 51.0722 496.532C50.965 496.329 50.7912 496.169 50.58 496.08ZM31.75 496C31.3887 495.997 31.0318 495.921 30.7015 495.774C30.3712 495.628 30.0745 495.415 29.83 495.15C29.4326 494.72 29.1656 494.185 29.06 493.61C29.0212 493.408 29.0011 493.204 29 493C28.9701 492.238 29.2423 491.495 29.7574 490.933C30.2725 490.372 30.9886 490.036 31.75 490H42.63L42.81 490.52C42.87 490.69 42.93 490.85 43 491C43.2304 491.547 43.4977 492.078 43.8 492.59C43.94 492.83 44.08 493.06 44.24 493.29C44.7851 494.101 45.4227 494.846 46.14 495.51C46.2794 495.648 46.4263 495.778 46.58 495.9L46.69 496H31.75Z" fill="#CBFB45"/>
<path opacity="0.5" d="M46.69 496H32C31.206 496.002 30.4437 495.689 29.88 495.13C29.4686 494.711 29.1843 494.184 29.06 493.61C29.0212 493.409 29.0011 493.205 29 493C28.9701 492.238 29.2423 491.496 29.7574 490.934C30.2725 490.372 30.9886 490.036 31.75 490H42.63L42.81 490.52C42.87 490.68 42.93 490.84 43 491C43.2304 491.547 43.4977 492.079 43.8 492.59C43.94 492.83 44.08 493.06 44.24 493.29C44.7851 494.101 45.4227 494.846 46.14 495.51C46.2794 495.648 46.4263 495.778 46.58 495.9L46.69 496Z" fill="#CBFB45"/>
<path d="M70 488H66.62C66.3929 487.992 66.1701 488.063 65.9883 488.199C65.8066 488.335 65.6767 488.53 65.62 488.75C65.62 488.95 65.51 489.15 65.45 489.35C65.39 489.55 65.33 489.71 65.26 489.88C65.187 490.084 65.1035 490.284 65.01 490.48C64.9335 490.667 64.8467 490.851 64.75 491.03C64.65 491.23 64.54 491.43 64.42 491.62C64.3194 491.799 64.2093 491.972 64.09 492.14C63.92 492.39 63.75 492.63 63.56 492.86L63.49 492.95C63.31 493.17 63.12 493.39 62.93 493.59C62.73 493.8 62.51 494.01 62.29 494.2C62.0471 494.429 61.7899 494.643 61.52 494.84C61.203 495.08 60.8687 495.298 60.52 495.49C60.3421 495.599 60.1585 495.699 59.97 495.79L59.57 495.98L59.4 496.06C59.1873 496.15 59.0125 496.312 58.9055 496.517C58.7984 496.721 58.7657 496.957 58.8128 497.184C58.86 497.41 58.9841 497.613 59.1641 497.758C59.3441 497.903 59.5688 497.981 59.8 497.98H73C73.2652 497.98 73.5195 497.874 73.7071 497.687C73.8946 497.499 74 497.245 74 496.98V492C74 490.939 73.5785 489.921 72.8284 489.171C72.0783 488.421 71.0608 488 70 488V488ZM63.31 496C63.54 495.81 63.75 495.61 63.96 495.41C64.17 495.21 64.34 495.03 64.52 494.83C64.6939 494.649 64.8575 494.459 65.01 494.26C65.3221 493.889 65.6094 493.498 65.87 493.09C66.0116 492.887 66.1418 492.677 66.26 492.46C66.42 492.18 66.57 491.89 66.71 491.59C66.82 491.37 66.91 491.15 67 490.93C67.09 490.71 67.23 490.35 67.32 490.06H70C70.5304 490.06 71.0391 490.27 71.4142 490.645C71.7893 491.02 72 491.529 72 492.06V496.06L63.31 496Z" fill="#CBFB45"/>
<path opacity="0.5" d="M72 492V496H63.31C63.54 495.81 63.75 495.61 63.96 495.41C64.17 495.21 64.34 495.03 64.52 494.83C64.6967 494.651 64.8604 494.461 65.01 494.26C65.3221 493.889 65.6094 493.498 65.87 493.09C66.01 492.89 66.14 492.67 66.26 492.46C66.4258 492.178 66.576 491.888 66.71 491.59C66.71 491.59 66.71 491.59 66.71 491.59C66.821 491.376 66.9178 491.156 67 490.93C67.12 490.64 67.23 490.35 67.32 490.06H70C70.5202 490.059 71.02 490.262 71.3934 490.624C71.7668 490.986 71.9844 491.48 72 492Z" fill="#CBFB45"/>
<path d="M80 503.5C79.7348 503.5 79.4804 503.605 79.2929 503.793C79.1054 503.98 79 504.235 79 504.5C79.0009 504.829 78.936 505.156 78.8089 505.46C78.6818 505.764 78.4952 506.039 78.26 506.27C78.1739 506.358 78.0802 506.438 77.98 506.51C77.8805 506.582 77.777 506.649 77.67 506.71L77.37 506.84C77.2517 506.904 77.1279 506.958 77 507C76.8337 507.015 76.6663 507.015 76.5 507H74C72.6765 507 71.4071 507.525 70.47 508.46V508.46C69.5859 509.338 69.0616 510.515 69 511.76C68.9708 512.419 69.0773 513.077 69.313 513.692C69.5487 514.308 69.9084 514.869 70.37 515.34C70.8673 515.864 71.466 516.281 72.1295 516.566C72.7931 516.852 73.5077 516.999 74.23 517H77C78.0609 517 79.0783 516.579 79.8284 515.828C80.5786 515.078 81 514.061 81 513V504.5C81 504.235 80.8946 503.98 80.7071 503.793C80.5196 503.605 80.2652 503.5 80 503.5ZM79 513C79 513.53 78.7893 514.039 78.4142 514.414C78.0391 514.789 77.5304 515 77 515H74.23C73.7818 515.003 73.3376 514.916 72.9236 514.744C72.5097 514.573 72.1344 514.319 71.82 514C71.5457 513.726 71.3313 513.397 71.1902 513.036C71.049 512.674 70.9843 512.288 71 511.9C71.007 511.714 71.0338 511.53 71.08 511.35C71.123 511.172 71.1799 510.999 71.25 510.83C71.328 510.664 71.4183 510.503 71.52 510.35C71.6225 510.196 71.7397 510.052 71.87 509.92V509.92C72.1462 509.633 72.4768 509.404 72.8425 509.246C73.2082 509.088 73.6017 509.004 74 509H76.5C76.8743 508.999 77.2471 508.952 77.61 508.86L78.05 508.73C78.4042 508.613 78.7407 508.448 79.05 508.24L79 513Z" fill="#CBFB45"/>
<path opacity="0.5" d="M79 508.24V513C79 513.531 78.7893 514.039 78.4142 514.414C78.0391 514.79 77.5304 515 77 515H74.23C73.7818 515.003 73.3376 514.916 72.9236 514.745C72.5097 514.573 72.1344 514.32 71.82 514C71.5457 513.726 71.3313 513.397 71.1902 513.036C71.049 512.675 70.9843 512.288 71 511.9C71.0214 511.532 71.106 511.17 71.25 510.83C71.328 510.664 71.4182 510.503 71.52 510.35C71.6315 510.2 71.7517 510.056 71.88 509.92C72.155 509.634 72.4839 509.406 72.8478 509.248C73.2117 509.09 73.6033 509.006 74 509H76.5C76.8743 508.999 77.2471 508.952 77.61 508.86C77.7596 508.828 77.9066 508.784 78.05 508.73C78.3868 508.609 78.7062 508.445 79 508.24V508.24Z" fill="#CBFB45"/>
<path d="M50.2 498H59.81C59.5788 498.002 59.3541 497.924 59.1741 497.778C58.9941 497.633 58.87 497.43 58.8229 497.204C58.7757 496.978 58.8084 496.742 58.9155 496.537C59.0225 496.332 59.1973 496.171 59.41 496.08L59.58 496H50.41L50.58 496.08C50.7912 496.17 50.965 496.33 51.0723 496.533C51.1795 496.735 51.2138 496.969 51.1692 497.194C51.1247 497.419 51.004 497.622 50.8275 497.769C50.6511 497.916 50.4295 497.997 50.2 498ZM50.2 498H59.81C59.5788 498.002 59.3541 497.924 59.1741 497.778C58.9941 497.633 58.87 497.43 58.8229 497.204C58.7757 496.978 58.8084 496.742 58.9155 496.537C59.0225 496.332 59.1973 496.171 59.41 496.08L59.58 496H50.41L50.58 496.08C50.7912 496.17 50.965 496.33 51.0723 496.533C51.1795 496.735 51.2138 496.969 51.1692 497.194C51.1247 497.419 51.004 497.622 50.8275 497.769C50.6511 497.916 50.4295 497.997 50.2 498ZM50.2 498H59.81C59.5788 498.002 59.3541 497.924 59.1741 497.778C58.9941 497.633 58.87 497.43 58.8229 497.204C58.7757 496.978 58.8084 496.742 58.9155 496.537C59.0225 496.332 59.1973 496.171 59.41 496.08L59.58 496H50.41L50.58 496.08C50.7912 496.17 50.965 496.33 51.0723 496.533C51.1795 496.735 51.2138 496.969 51.1692 497.194C51.1247 497.419 51.004 497.622 50.8275 497.769C50.6511 497.916 50.4295 497.997 50.2 498ZM74 496.13C73.6743 496.041 73.3377 495.997 73 496H32C31.2061 496.002 30.4437 495.689 29.88 495.13C29.4686 494.711 29.1843 494.184 29.06 493.61C29.0212 493.409 29.0011 493.205 29 493C29 492.735 28.8946 492.48 28.7071 492.293C28.5196 492.105 28.2652 492 28 492C27.7348 492 27.4804 492.105 27.2929 492.293C27.1054 492.48 27 492.735 27 493V525C27 526.061 27.4214 527.078 28.1716 527.828C28.9217 528.579 29.9391 529 31 529H73C74.0609 529 75.0783 528.579 75.8284 527.828C76.5786 527.078 77 526.061 77 525V516C77 515.735 76.8946 515.48 76.7071 515.293C76.5196 515.105 76.2652 515 76 515H74.23C73.7818 515.003 73.3376 514.916 72.9236 514.744C72.5097 514.573 72.1344 514.319 71.82 514C71.5457 513.726 71.3313 513.397 71.1902 513.036C71.049 512.674 70.9843 512.288 71 511.9C71.0214 511.532 71.106 511.17 71.25 510.83C71.328 510.664 71.4183 510.503 71.52 510.35C71.6316 510.2 71.7518 510.056 71.88 509.92C72.155 509.634 72.484 509.406 72.8479 509.248C73.2118 509.09 73.6034 509.006 74 509H76C76.2652 509 76.5196 508.895 76.7071 508.707C76.8946 508.52 77 508.265 77 508V500C76.9993 499.114 76.7044 498.253 76.1614 497.552C75.6184 496.852 74.8581 496.352 74 496.13V496.13ZM70.47 508.46C69.5859 509.338 69.0616 510.515 69 511.76C68.9708 512.419 69.0773 513.077 69.313 513.692C69.5487 514.308 69.9084 514.869 70.37 515.34C70.8673 515.864 71.466 516.281 72.1295 516.566C72.7931 516.852 73.5077 516.999 74.23 517H75V525C75 525.53 74.7893 526.039 74.4142 526.414C74.0391 526.789 73.5304 527 73 527H31C30.4696 527 29.9609 526.789 29.5858 526.414C29.2107 526.039 29 525.53 29 525V497C29.8655 497.649 30.9181 498 32 498H73C73.5304 498 74.0391 498.211 74.4142 498.586C74.7893 498.961 75 499.47 75 500V507H74C72.6765 507 71.4071 507.525 70.47 508.46V508.46ZM50.2 498H59.81C59.5788 498.002 59.3541 497.924 59.1741 497.778C58.9941 497.633 58.87 497.43 58.8229 497.204C58.7757 496.978 58.8084 496.742 58.9155 496.537C59.0225 496.332 59.1973 496.171 59.41 496.08L59.58 496H50.41L50.58 496.08C50.7912 496.17 50.965 496.33 51.0723 496.533C51.1795 496.735 51.2138 496.969 51.1692 497.194C51.1247 497.419 51.004 497.622 50.8275 497.769C50.6511 497.916 50.4295 497.997 50.2 498ZM50.2 498H59.81C59.5788 498.002 59.3541 497.924 59.1741 497.778C58.9941 497.633 58.87 497.43 58.8229 497.204C58.7757 496.978 58.8084 496.742 58.9155 496.537C59.0225 496.332 59.1973 496.171 59.41 496.08L59.58 496H50.41L50.58 496.08C50.7912 496.17 50.965 496.33 51.0723 496.533C51.1795 496.735 51.2138 496.969 51.1692 497.194C51.1247 497.419 51.004 497.622 50.8275 497.769C50.6511 497.916 50.4295 497.997 50.2 498Z" fill="#CBFB45"/>
<path d="M77 500C76.8335 499.99 76.6665 499.99 76.5 500H76C75.7348 500 75.4804 500.105 75.2929 500.293C75.1054 500.48 75 500.735 75 501V508C75 508.265 75.1054 508.519 75.2929 508.707C75.4804 508.895 75.7348 509 76 509H76.5C76.8743 508.999 77.2471 508.952 77.61 508.86L78.05 508.73C78.4042 508.613 78.7407 508.448 79.05 508.24C79.2931 508.078 79.5178 507.89 79.72 507.68C80.1348 507.262 80.4618 506.765 80.6816 506.219C80.9015 505.673 81.0097 505.089 81 504.5C81.0069 503.388 80.602 502.313 79.8634 501.482C79.1248 500.651 78.1048 500.123 77 500V500ZM78.26 506.24C78.1739 506.328 78.0802 506.408 77.98 506.48C77.8805 506.552 77.777 506.619 77.67 506.68L77.37 506.81C77.2528 506.884 77.1289 506.948 77 507V502.1C77.5647 502.215 78.0722 502.522 78.4367 502.968C78.8011 503.415 79.0001 503.974 79 504.55C78.9886 505.198 78.7228 505.816 78.26 506.27V506.24Z" fill="#CBFB45"/>
<path opacity="0.5" d="M79 504.5C79.0009 504.829 78.936 505.155 78.8089 505.459C78.6818 505.763 78.4952 506.039 78.26 506.27C78.1739 506.358 78.0802 506.438 77.98 506.51C77.8805 506.582 77.777 506.649 77.67 506.71L77.37 506.84C77.2517 506.904 77.1279 506.957 77 507V502.1C77.5564 502.213 78.0575 502.513 78.421 502.949C78.7846 503.385 78.9887 503.932 79 504.5V504.5Z" fill="#CBFB45"/>
<path d="M55 473C51.5522 473 48.2456 474.37 45.8076 476.808C43.3696 479.246 42 482.552 42 486C41.9982 486.67 42.0517 487.339 42.16 488C42.2182 488.421 42.3017 488.839 42.41 489.25C42.48 489.5 42.55 489.75 42.63 490L42.81 490.52C42.87 490.69 42.93 490.85 43 491C43.2304 491.547 43.4977 492.079 43.8 492.59C43.94 492.83 44.08 493.06 44.24 493.29C44.7851 494.101 45.4227 494.846 46.14 495.51C46.2794 495.648 46.4263 495.778 46.58 495.9L46.69 496C47.2529 496.478 47.8589 496.903 48.5 497.27C48.921 497.517 49.3587 497.734 49.81 497.92C49.9302 497.971 50.0593 497.998 50.19 498H59.8C59.9371 497.999 60.0728 497.971 60.2 497.92C61.3241 497.434 62.3716 496.787 63.31 496V496C63.54 495.81 63.75 495.61 63.96 495.41C64.17 495.21 64.34 495.03 64.52 494.83C64.6939 494.649 64.8575 494.459 65.01 494.26C65.3221 493.889 65.6094 493.499 65.87 493.09C66.0116 492.887 66.1418 492.677 66.26 492.46C66.42 492.18 66.57 491.89 66.71 491.59C66.82 491.37 66.91 491.15 67 490.93C67.09 490.71 67.23 490.35 67.32 490.06C67.39 489.81 67.47 489.56 67.53 489.31C67.6609 488.88 67.7644 488.443 67.84 488C67.9483 487.339 68.0018 486.67 68 486C68 482.552 66.6303 479.246 64.1924 476.808C61.7544 474.37 58.4478 473 55 473ZM65.48 489.35C65.42 489.53 65.36 489.71 65.29 489.88C65.217 490.084 65.1336 490.284 65.04 490.48C64.96 490.67 64.87 490.85 64.78 491.03C64.69 491.21 64.57 491.43 64.45 491.62C64.3495 491.799 64.2393 491.973 64.12 492.14C63.95 492.39 63.78 492.63 63.59 492.86L63.52 492.95C63.34 493.17 63.15 493.39 62.96 493.59C62.76 493.8 62.54 494.01 62.32 494.2C62.0771 494.429 61.8199 494.643 61.55 494.84C61.233 495.081 60.8987 495.298 60.55 495.49C60.3721 495.6 60.1885 495.7 60 495.79C59.88 495.86 59.75 495.92 59.62 495.98H50.41L50 495.8L49.52 495.54L49 495.25L48.54 494.94C48.25 494.72 47.96 494.5 47.69 494.25C46.0475 492.79 44.8747 490.876 44.32 488.75C43.7182 486.417 43.8991 483.951 44.835 481.73C45.7708 479.51 47.4097 477.658 49.5 476.46C51.1732 475.494 53.0713 474.986 55.0034 474.986C56.9355 474.987 58.8333 475.496 60.5059 476.463C62.1785 477.431 63.5669 478.821 64.5314 480.495C65.4959 482.169 66.0024 484.068 66 486C65.9998 486.928 65.8822 487.852 65.65 488.75C65.6 489 65.54 489.15 65.48 489.35Z" fill="#CBFB45"/>
<path opacity="0.5" d="M58.6 485.47C58.8602 485.024 58.9981 484.517 59 484C58.9983 483.381 58.8051 482.778 58.4471 482.273C58.089 481.768 57.5835 481.386 57 481.18V480C57 479.735 56.8946 479.48 56.7071 479.293C56.5196 479.105 56.2652 479 56 479C55.7348 479 55.4804 479.105 55.2929 479.293C55.1054 479.48 55 479.735 55 480V481H54V480C54 479.735 53.8946 479.48 53.7071 479.293C53.5196 479.105 53.2652 479 53 479C52.7348 479 52.4804 479.105 52.2929 479.293C52.1054 479.48 52 479.735 52 480V481H51C50.7348 481 50.4804 481.105 50.2929 481.293C50.1054 481.48 50 481.735 50 482C50 482.265 50.1054 482.52 50.2929 482.707C50.4804 482.895 50.7348 483 51 483V489C50.7348 489 50.4804 489.105 50.2929 489.293C50.1054 489.48 50 489.735 50 490C50 490.265 50.1054 490.52 50.2929 490.707C50.4804 490.895 50.7348 491 51 491H52V492C52 492.265 52.1054 492.52 52.2929 492.707C52.4804 492.895 52.7348 493 53 493C53.2652 493 53.5196 492.895 53.7071 492.707C53.8946 492.52 54 492.265 54 492V491H55V492C55 492.265 55.1054 492.52 55.2929 492.707C55.4804 492.895 55.7348 493 56 493C56.2652 493 56.5196 492.895 56.7071 492.707C56.8946 492.52 57 492.265 57 492V491C57.6481 490.997 58.278 490.785 58.7953 490.394C59.3126 490.004 59.6895 489.456 59.8697 488.834C60.0498 488.211 60.0235 487.547 59.7946 486.941C59.5657 486.334 59.1466 485.818 58.6 485.47V485.47ZM56 483C56.2652 483 56.5196 483.105 56.7071 483.293C56.8946 483.48 57 483.735 57 484C57 484.265 56.8946 484.52 56.7071 484.707C56.5196 484.895 56.2652 485 56 485H53V483H56ZM57 489H53V487H57C57.2652 487 57.5196 487.105 57.7071 487.293C57.8946 487.48 58 487.735 58 488C58 488.265 57.8946 488.52 57.7071 488.707C57.5196 488.895 57.2652 489 57 489Z" fill="#CBFB45"/>
</g>
<circle cx="569" cy="185" r="55" fill="#151517"/>
<g clip-path="url(#clip3_3_153)">
<path d="M555 157C552.231 157 549.524 157.821 547.222 159.359C544.92 160.898 543.125 163.084 542.066 165.642C541.006 168.201 540.729 171.016 541.269 173.731C541.809 176.447 543.143 178.942 545.101 180.899C547.058 182.857 549.553 184.191 552.269 184.731C554.984 185.271 557.799 184.994 560.358 183.934C562.916 182.875 565.102 181.08 566.641 178.778C568.179 176.476 569 173.769 569 171C569 167.287 567.525 163.726 564.899 161.101C562.274 158.475 558.713 157 555 157V157ZM555 183C552.627 183 550.307 182.296 548.333 180.978C546.36 179.659 544.822 177.785 543.913 175.592C543.005 173.399 542.768 170.987 543.231 168.659C543.694 166.331 544.836 164.193 546.515 162.515C548.193 160.836 550.331 159.694 552.659 159.231C554.987 158.768 557.399 159.005 559.592 159.913C561.785 160.822 563.659 162.36 564.978 164.333C566.296 166.307 567 168.627 567 171C567 174.183 565.736 177.235 563.485 179.485C561.235 181.736 558.183 183 555 183Z" fill="#CBFB45"/>
<path opacity="0.5" d="M555 159C552.627 159 550.307 159.704 548.333 161.022C546.36 162.341 544.822 164.215 543.913 166.408C543.005 168.601 542.768 171.013 543.231 173.341C543.694 175.669 544.836 177.807 546.515 179.485C548.193 181.164 550.331 182.306 552.659 182.769C554.987 183.232 557.399 182.995 559.592 182.087C561.785 181.178 563.659 179.64 564.978 177.667C566.296 175.693 567 173.373 567 171C567 167.817 565.736 164.765 563.485 162.515C561.235 160.264 558.183 159 555 159V159ZM557 176V177C557 177.265 556.895 177.52 556.707 177.707C556.52 177.895 556.265 178 556 178C555.735 178 555.48 177.895 555.293 177.707C555.105 177.52 555 177.265 555 177V176H554V177C554 177.265 553.895 177.52 553.707 177.707C553.52 177.895 553.265 178 553 178C552.735 178 552.48 177.895 552.293 177.707C552.105 177.52 552 177.265 552 177V176H551C550.735 176 550.48 175.895 550.293 175.707C550.105 175.52 550 175.265 550 175C550 174.735 550.105 174.48 550.293 174.293C550.48 174.105 550.735 174 551 174V168C550.735 168 550.48 167.895 550.293 167.707C550.105 167.52 550 167.265 550 167C550 166.735 550.105 166.48 550.293 166.293C550.48 166.105 550.735 166 551 166H552V165C552 164.735 552.105 164.48 552.293 164.293C552.48 164.105 552.735 164 553 164C553.265 164 553.52 164.105 553.707 164.293C553.895 164.48 554 164.735 554 165V166H555V165C555 164.735 555.105 164.48 555.293 164.293C555.48 164.105 555.735 164 556 164C556.265 164 556.52 164.105 556.707 164.293C556.895 164.48 557 164.735 557 165V166.18C557.584 166.386 558.089 166.768 558.447 167.273C558.805 167.778 558.998 168.381 559 169C558.999 169.514 558.868 170.02 558.62 170.47C559.168 170.819 559.588 171.337 559.816 171.945C560.045 172.554 560.07 173.22 559.887 173.843C559.704 174.467 559.324 175.015 558.803 175.403C558.283 175.792 557.65 176.002 557 176V176Z" fill="#CBFB45"/>
<path d="M583 185C580.231 185 577.524 185.821 575.222 187.359C572.92 188.898 571.125 191.084 570.066 193.642C569.006 196.201 568.729 199.016 569.269 201.731C569.809 204.447 571.143 206.942 573.101 208.899C575.058 210.857 577.553 212.191 580.269 212.731C582.984 213.271 585.799 212.994 588.358 211.934C590.916 210.875 593.102 209.08 594.641 206.778C596.179 204.476 597 201.769 597 199C597 195.287 595.525 191.726 592.899 189.101C590.274 186.475 586.713 185 583 185V185ZM583 211C580.627 211 578.307 210.296 576.333 208.978C574.36 207.659 572.822 205.785 571.913 203.592C571.005 201.399 570.768 198.987 571.231 196.659C571.694 194.331 572.836 192.193 574.515 190.515C576.193 188.836 578.331 187.694 580.659 187.231C582.987 186.768 585.399 187.005 587.592 187.913C589.785 188.822 591.659 190.36 592.978 192.333C594.296 194.307 595 196.627 595 199C595 202.183 593.736 205.235 591.485 207.485C589.235 209.736 586.183 211 583 211Z" fill="#CBFB45"/>
<path opacity="0.5" d="M583 187C580.627 187 578.307 187.704 576.333 189.022C574.36 190.341 572.822 192.215 571.913 194.408C571.005 196.601 570.768 199.013 571.231 201.341C571.694 203.669 572.836 205.807 574.515 207.485C576.193 209.164 578.331 210.306 580.659 210.769C582.987 211.232 585.399 210.995 587.592 210.087C589.785 209.178 591.659 207.64 592.978 205.667C594.296 203.693 595 201.373 595 199C595 195.817 593.736 192.765 591.485 190.515C589.235 188.264 586.183 187 583 187ZM582 198H584C584.796 198 585.559 198.316 586.121 198.879C586.684 199.441 587 200.204 587 201C587 201.796 586.684 202.559 586.121 203.121C585.559 203.684 584.796 204 584 204V205C584 205.265 583.895 205.52 583.707 205.707C583.52 205.895 583.265 206 583 206C582.735 206 582.48 205.895 582.293 205.707C582.105 205.52 582 205.265 582 205V204H580C579.735 204 579.48 203.895 579.293 203.707C579.105 203.52 579 203.265 579 203C579 202.735 579.105 202.48 579.293 202.293C579.48 202.105 579.735 202 580 202H584C584.265 202 584.52 201.895 584.707 201.707C584.895 201.52 585 201.265 585 201C585 200.735 584.895 200.48 584.707 200.293C584.52 200.105 584.265 200 584 200H582C581.204 200 580.441 199.684 579.879 199.121C579.316 198.559 579 197.796 579 197C579 196.204 579.316 195.441 579.879 194.879C580.441 194.316 581.204 194 582 194V193C582 192.735 582.105 192.48 582.293 192.293C582.48 192.105 582.735 192 583 192C583.265 192 583.52 192.105 583.707 192.293C583.895 192.48 584 192.735 584 193V194H586C586.265 194 586.52 194.105 586.707 194.293C586.895 194.48 587 194.735 587 195C587 195.265 586.895 195.52 586.707 195.707C586.52 195.895 586.265 196 586 196H582C581.735 196 581.48 196.105 581.293 196.293C581.105 196.48 581 196.735 581 197C581 197.265 581.105 197.52 581.293 197.707C581.48 197.895 581.735 198 582 198Z" fill="#CBFB45"/>
<g opacity="0.5">
<path opacity="0.5" d="M557 169C557 169.265 556.895 169.52 556.707 169.707C556.52 169.895 556.265 170 556 170H553V168H556C556.265 168 556.52 168.105 556.707 168.293C556.895 168.48 557 168.735 557 169Z" fill="#CBFB45"/>
</g>
<g opacity="0.5">
<path opacity="0.5" d="M558 173C558 173.265 557.895 173.52 557.707 173.707C557.52 173.895 557.265 174 557 174H553V172H557C557.265 172 557.52 172.105 557.707 172.293C557.895 172.48 558 172.735 558 173Z" fill="#CBFB45"/>
</g>
<path opacity="0.5" d="M566 199H562C560.143 199 558.363 198.262 557.05 196.95C555.737 195.637 555 193.856 555 192V190.41L557.29 192.71C557.383 192.804 557.494 192.878 557.615 192.929C557.737 192.98 557.868 193.006 558 193.006C558.132 193.006 558.263 192.98 558.385 192.929C558.506 192.878 558.617 192.804 558.71 192.71C558.804 192.617 558.878 192.506 558.929 192.384C558.98 192.263 559.006 192.132 559.006 192C559.006 191.868 558.98 191.737 558.929 191.615C558.878 191.493 558.804 191.383 558.71 191.29L554.71 187.29C554.615 187.199 554.503 187.127 554.38 187.08C554.136 186.98 553.863 186.98 553.62 187.08C553.497 187.127 553.385 187.199 553.29 187.29L549.29 191.29C549.102 191.478 548.996 191.734 548.996 192C548.996 192.266 549.102 192.522 549.29 192.71C549.478 192.898 549.734 193.004 550 193.004C550.266 193.004 550.522 192.898 550.71 192.71L553 190.41V192C553 194.387 553.948 196.676 555.636 198.364C557.324 200.052 559.613 201 562 201H566C566.265 201 566.52 200.895 566.707 200.707C566.895 200.519 567 200.265 567 200C567 199.735 566.895 199.48 566.707 199.293C566.52 199.105 566.265 199 566 199Z" fill="#CBFB45"/>
<path opacity="0.5" d="M588.71 177.29C588.617 177.196 588.506 177.122 588.385 177.071C588.263 177.02 588.132 176.994 588 176.994C587.868 176.994 587.737 177.02 587.615 177.071C587.494 177.122 587.383 177.196 587.29 177.29L585 179.59V178C585 175.613 584.052 173.324 582.364 171.636C580.676 169.948 578.387 169 576 169H572C571.735 169 571.48 169.105 571.293 169.293C571.105 169.48 571 169.735 571 170C571 170.265 571.105 170.52 571.293 170.707C571.48 170.895 571.735 171 572 171H576C577.857 171 579.637 171.737 580.95 173.05C582.263 174.363 583 176.143 583 178V179.59L580.71 177.29C580.617 177.197 580.506 177.123 580.384 177.072C580.262 177.022 580.132 176.996 580 176.996C579.868 176.996 579.738 177.022 579.616 177.072C579.494 177.123 579.383 177.197 579.29 177.29C579.197 177.383 579.123 177.494 579.072 177.616C579.022 177.738 578.996 177.868 578.996 178C578.996 178.132 579.022 178.262 579.072 178.384C579.123 178.506 579.197 178.617 579.29 178.71L583.29 182.71C583.385 182.801 583.497 182.872 583.62 182.92C583.74 182.973 583.869 183 584 183C584.131 183 584.26 182.973 584.38 182.92C584.503 182.872 584.615 182.801 584.71 182.71L588.71 178.71C588.804 178.617 588.878 178.506 588.929 178.385C588.98 178.263 589.006 178.132 589.006 178C589.006 177.868 588.98 177.737 588.929 177.615C588.878 177.494 588.804 177.383 588.71 177.29Z" fill="#CBFB45"/>
</g>
<circle cx="55" cy="172" r="55" fill="#151517"/>
<g clip-path="url(#clip4_3_153)">
<path d="M28 183C27.7348 183 27.4804 182.895 27.2929 182.707C27.1054 182.52 27 182.265 27 182C27 180.674 27.5268 179.402 28.4645 178.464C29.4021 177.527 30.6739 177 32 177C32.2652 177 32.5196 177.105 32.7071 177.293C32.8946 177.48 33 177.735 33 178C33 178.265 32.8946 178.52 32.7071 178.707C32.5196 178.895 32.2652 179 32 179C31.2044 179 30.4413 179.316 29.8787 179.879C29.3161 180.441 29 181.204 29 182C29 182.265 28.8946 182.52 28.7071 182.707C28.5196 182.895 28.2652 183 28 183V183Z" fill="#CBFB45"/>
<path d="M61.26 166.24C61.3943 166.167 61.5245 166.087 61.65 166C61.7057 165.963 61.7591 165.923 61.81 165.88L61.63 166C61.51 166.09 61.39 166.16 61.26 166.24ZM80 174H79.5C78.7428 171.095 77.1833 168.461 75 166.4V157C75 156.735 74.8946 156.481 74.7071 156.293C74.5196 156.105 74.2652 156 74 156C72.2602 155.991 70.5794 156.63 69.2853 157.793C67.9911 158.956 67.1764 160.559 67 162.29C66.4444 162.184 65.8836 162.107 65.32 162.06C64.91 162 64.45 162 64 162H63.49C63.3431 162 63.1979 162.032 63.0648 162.094C62.9317 162.156 62.814 162.247 62.72 162.36C61.7818 163.498 60.6036 164.414 59.2698 165.043C57.936 165.672 56.4796 165.998 55.005 165.998C53.5304 165.998 52.074 165.672 50.7402 165.043C49.4064 164.414 48.2282 163.498 47.29 162.36C47.1928 162.243 47.0702 162.15 46.9316 162.088C46.7929 162.025 46.6419 161.995 46.49 162C45.894 162.018 45.2996 162.071 44.71 162.16C41.0431 162.661 37.6663 164.427 35.1631 167.153C32.6598 169.879 31.1873 173.394 31 177.09C31 177.39 31 177.69 31 178C30.9798 178.387 30.9798 178.774 31 179.16C31.2971 183.147 33.0817 186.877 36 189.61V196C36 196.796 36.3161 197.559 36.8787 198.121C37.4413 198.684 38.2043 199 39 199H47C47.7956 199 48.5587 198.684 49.1213 198.121C49.6839 197.559 50 196.796 50 196V194H55V196C55 196.796 55.3161 197.559 55.8787 198.121C56.4413 198.684 57.2043 199 58 199H66C66.7956 199 67.5587 198.684 68.1213 198.121C68.6839 197.559 69 196.796 69 196V193.19C71.9373 192.215 74.531 190.413 76.47 188H80C80.7956 188 81.5587 187.684 82.1213 187.121C82.6839 186.559 83 185.796 83 185V177C83 176.204 82.6839 175.441 82.1213 174.879C81.5587 174.316 80.7956 174 80 174V174ZM81 185C81 185.265 80.8946 185.52 80.7071 185.707C80.5196 185.895 80.2652 186 80 186H76C75.8447 186 75.6916 186.036 75.5528 186.106C75.4139 186.175 75.2931 186.276 75.2 186.4C73.3433 188.869 70.7251 190.658 67.75 191.49C67.5337 191.551 67.344 191.682 67.2116 191.864C67.0792 192.045 67.0117 192.266 67.02 192.49V196C67.02 196.265 66.9146 196.52 66.7271 196.707C66.5396 196.895 66.2852 197 66.02 197H58C57.7348 197 57.4804 196.895 57.2929 196.707C57.1053 196.52 57 196.265 57 196V193C57 192.735 56.8946 192.481 56.7071 192.293C56.5196 192.105 56.2652 192 56 192H49C48.7348 192 48.4804 192.105 48.2929 192.293C48.1053 192.481 48 192.735 48 193V196C48 196.265 47.8946 196.52 47.7071 196.707C47.5196 196.895 47.2652 197 47 197H39C38.7348 197 38.4804 196.895 38.2929 196.707C38.1053 196.52 38 196.265 38 196V189.17C38.0011 189.029 37.9722 188.889 37.9153 188.76C37.8585 188.631 37.7748 188.515 37.67 188.42C35.6101 186.583 34.139 184.179 33.4415 181.509C32.7441 178.838 32.8515 176.021 33.7501 173.412C34.6488 170.803 36.2987 168.517 38.4924 166.842C40.6862 165.168 43.3259 164.179 46.08 164C46.7522 164.764 47.5221 165.437 48.37 166L48.78 166.27L49.18 166.5C50.1764 167.054 51.2474 167.461 52.36 167.71C52.57 167.76 52.79 167.8 53.01 167.83L53.33 167.88L53.73 167.93C54.1516 167.979 54.5756 168.002 55 168C55.4277 168.002 55.855 167.978 56.28 167.93H56.62C56.75 167.93 56.87 167.93 56.99 167.87C57.11 167.81 57.43 167.8 57.64 167.75L58.37 167.56L58.9 167.39L59.51 167.16C59.71 167.08 59.91 167 60.11 166.9C60.31 166.8 60.5 166.71 60.69 166.61L61.26 166.28C61.3943 166.207 61.5245 166.127 61.65 166.04C61.7057 166.003 61.7591 165.963 61.81 165.92L62.39 165.49L62.86 165.11C63.03 164.97 63.19 164.82 63.35 164.66L63.8 164.2L64 164C65.26 164.001 66.5143 164.169 67.73 164.5C67.879 164.544 68.0361 164.552 68.1889 164.524C68.3416 164.496 68.4858 164.433 68.61 164.34C68.7323 164.246 68.8312 164.125 68.8989 163.986C68.9666 163.847 69.0012 163.695 69 163.54V163C68.9997 161.847 69.3978 160.73 70.1267 159.837C70.8556 158.944 71.8706 158.331 73 158.1V166.84C73.0003 166.98 73.0298 167.118 73.0867 167.245C73.1435 167.373 73.2264 167.487 73.33 167.58C75.5817 169.576 77.1226 172.251 77.72 175.2C77.7667 175.429 77.8924 175.635 78.0751 175.781C78.2578 175.927 78.486 176.005 78.72 176H80C80.2652 176 80.5196 176.105 80.7071 176.293C80.8946 176.481 81 176.735 81 177V185Z" fill="#CBFB45"/>
<path opacity="0.5" d="M81 177.001V185.001C81 185.266 80.8947 185.52 80.7071 185.708C80.5196 185.895 80.2652 186.001 80 186.001H76C75.8448 186.001 75.6917 186.037 75.5528 186.106C75.414 186.176 75.2932 186.276 75.2 186.401C73.3433 188.87 70.7251 190.658 67.75 191.491C67.5337 191.551 67.3441 191.683 67.2117 191.864C67.0792 192.045 67.0117 192.266 67.02 192.491V196.001C67.02 196.266 66.9147 196.52 66.7271 196.708C66.5396 196.895 66.2852 197.001 66.02 197.001H58C57.7348 197.001 57.4804 196.895 57.2929 196.708C57.1054 196.52 57 196.266 57 196.001V193.001C57 192.735 56.8947 192.481 56.7071 192.293C56.5196 192.106 56.2652 192.001 56 192.001H49C48.7348 192.001 48.4804 192.106 48.2929 192.293C48.1054 192.481 48 192.735 48 193.001V196.001C48 196.266 47.8947 196.52 47.7071 196.708C47.5196 196.895 47.2652 197.001 47 197.001H39C38.7348 197.001 38.4804 196.895 38.2929 196.708C38.1054 196.52 38 196.266 38 196.001V189.171C38.0011 189.029 37.9722 188.89 37.9154 188.76C37.8585 188.631 37.7749 188.515 37.67 188.421C35.6101 186.584 34.139 184.179 33.4416 181.509C32.7441 178.839 32.8515 176.022 33.7502 173.412C34.6488 170.803 36.2987 168.517 38.4925 166.843C40.6862 165.168 43.326 164.179 46.08 164.001C46.7522 164.765 47.5222 165.437 48.37 166.001H46C45.7348 166.001 45.4804 166.106 45.2929 166.293C45.1054 166.481 45 166.735 45 167.001C45 167.266 45.1054 167.52 45.2929 167.708C45.4804 167.895 45.7348 168.001 46 168.001H64C64.2652 168.001 64.5196 167.895 64.7071 167.708C64.8947 167.52 65 167.266 65 167.001C65 166.735 64.8947 166.481 64.7071 166.293C64.5196 166.106 64.2652 166.001 64 166.001H61.65C61.7057 165.964 61.7591 165.924 61.81 165.881L62.39 165.451C62.5558 165.336 62.7129 165.209 62.86 165.071C63.03 164.931 63.19 164.781 63.35 164.621C63.51 164.461 63.66 164.321 63.8 164.161L64 164.001C65.26 164.001 66.5144 164.169 67.73 164.501C67.8791 164.544 68.0362 164.552 68.1889 164.524C68.3416 164.497 68.4858 164.434 68.61 164.341C68.7324 164.246 68.8313 164.125 68.8989 163.986C68.9666 163.848 69.0012 163.695 69 163.541V163.001C68.9998 161.848 69.3978 160.731 70.1267 159.838C70.8556 158.945 71.8707 158.331 73 158.101V166.841C73.0003 166.98 73.0299 167.118 73.0867 167.246C73.1435 167.373 73.2264 167.487 73.33 167.581C75.5817 169.577 77.1227 172.251 77.72 175.201C77.7668 175.43 77.8924 175.635 78.0752 175.782C78.2579 175.928 78.4861 176.005 78.72 176.001H80C80.2652 176.001 80.5196 176.106 80.7071 176.293C80.8947 176.481 81 176.735 81 177.001Z" fill="#CBFB45"/>
<path d="M55 144C52.877 144.001 50.7922 144.564 48.9582 145.633C47.1241 146.703 45.6066 148.239 44.5605 150.087C43.5143 151.934 42.9769 154.026 43.0032 156.149C43.0295 158.271 43.6184 160.349 44.71 162.17C45.0014 162.691 45.3359 163.186 45.71 163.65L46.04 164.03C46.7122 164.794 47.4822 165.467 48.33 166.03L48.74 166.3L49.14 166.53C50.1365 167.084 51.2074 167.491 52.32 167.74C52.53 167.79 52.75 167.83 52.97 167.86L53.29 167.91L53.69 167.96C54.1254 168 54.5629 168.014 55 168C55.4277 168.002 55.8551 167.978 56.28 167.93H56.62C56.75 167.93 56.87 167.93 56.99 167.87C57.11 167.81 57.43 167.8 57.64 167.75L58.37 167.56L58.9 167.39L59.51 167.16L60.11 166.9C60.31 166.81 60.5 166.71 60.69 166.61L61.26 166.28C61.39 166.2 61.51 166.13 61.63 166.04L61.81 165.92L62.39 165.49L62.86 165.11C63.03 164.97 63.19 164.82 63.35 164.66L63.8 164.2L64 164L64.31 163.64C65.7622 161.881 66.6831 159.745 66.9647 157.481C67.2462 155.218 66.8769 152.921 65.8998 150.86C64.9228 148.799 63.3786 147.059 61.4481 145.844C59.5177 144.629 57.2809 143.989 55 144V144ZM55 166C52.7278 165.999 50.5236 165.225 48.7504 163.804C46.9771 162.383 45.7406 160.401 45.2444 158.184C44.7483 155.966 45.022 153.646 46.0206 151.605C47.0193 149.564 48.6832 147.924 50.7384 146.955C52.7936 145.986 55.1175 145.746 57.3275 146.274C59.5374 146.802 61.5017 148.067 62.8966 149.861C64.2916 151.654 65.0342 153.869 65.0021 156.141C64.97 158.413 64.1651 160.607 62.72 162.36C61.7815 163.499 60.6026 164.416 59.2679 165.045C57.9331 165.674 56.4757 166.001 55 166V166Z" fill="#CBFB45"/>
<path opacity="0.5" d="M58.6 155.47C58.8602 155.024 58.9981 154.517 59 154C58.9983 153.381 58.8051 152.778 58.4471 152.273C58.089 151.768 57.5835 151.386 57 151.18V150C57 149.735 56.8946 149.48 56.7071 149.293C56.5196 149.105 56.2652 149 56 149C55.7348 149 55.4804 149.105 55.2929 149.293C55.1054 149.48 55 149.735 55 150V151H54V150C54 149.735 53.8946 149.48 53.7071 149.293C53.5196 149.105 53.2652 149 53 149C52.7348 149 52.4804 149.105 52.2929 149.293C52.1054 149.48 52 149.735 52 150V151H51C50.7348 151 50.4804 151.105 50.2929 151.293C50.1054 151.48 50 151.735 50 152C50 152.265 50.1054 152.52 50.2929 152.707C50.4804 152.895 50.7348 153 51 153V159C50.7348 159 50.4804 159.105 50.2929 159.293C50.1054 159.48 50 159.735 50 160C50 160.265 50.1054 160.52 50.2929 160.707C50.4804 160.895 50.7348 161 51 161H52V162C52 162.265 52.1054 162.52 52.2929 162.707C52.4804 162.895 52.7348 163 53 163C53.2652 163 53.5196 162.895 53.7071 162.707C53.8946 162.52 54 162.265 54 162V161H55V162C55 162.265 55.1054 162.52 55.2929 162.707C55.4804 162.895 55.7348 163 56 163C56.2652 163 56.5196 162.895 56.7071 162.707C56.8946 162.52 57 162.265 57 162V161C57.6481 160.997 58.278 160.785 58.7953 160.394C59.3126 160.004 59.6895 159.456 59.8697 158.834C60.0498 158.211 60.0235 157.547 59.7946 156.941C59.5657 156.334 59.1466 155.818 58.6 155.47V155.47ZM56 153C56.2652 153 56.5196 153.105 56.7071 153.293C56.8946 153.48 57 153.735 57 154C57 154.265 56.8946 154.52 56.7071 154.707C56.5196 154.895 56.2652 155 56 155H53V153H56ZM57 159H53V157H57C57.2652 157 57.5196 157.105 57.7071 157.293C57.8946 157.48 58 157.735 58 158C58 158.265 57.8946 158.52 57.7071 158.707C57.5196 158.895 57.2652 159 57 159Z" fill="#CBFB45"/>
<path d="M65 167C65 167.265 64.8946 167.52 64.7071 167.707C64.5196 167.895 64.2652 168 64 168H46C45.7348 168 45.4804 167.895 45.2929 167.707C45.1054 167.52 45 167.265 45 167C45 166.735 45.1054 166.48 45.2929 166.293C45.4804 166.105 45.7348 166 46 166H64C64.2652 166 64.5196 166.105 64.7071 166.293C64.8946 166.48 65 166.735 65 167Z" fill="#CBFB45"/>
</g>
<defs>
<clipPath id="clip0_3_153">
<rect width="56" height="56" fill="white" transform="translate(284 27)"/>
</clipPath>
<clipPath id="clip1_3_153">
<rect width="56" height="56.03" fill="white" transform="translate(541 486)"/>
</clipPath>
<clipPath id="clip2_3_153">
<rect width="54" height="56" fill="white" transform="translate(27 473)"/>
</clipPath>
<clipPath id="clip3_3_153">
<rect width="56" height="56" fill="white" transform="translate(541 157)"/>
</clipPath>
<clipPath id="clip4_3_153">
<rect width="56" height="55" fill="white" transform="translate(27 144)"/>
</clipPath>
</defs>
</svg>
