<svg width="263" height="82" viewBox="0 0 263 82" fill="none" xmlns="http://www.w3.org/2000/svg">
<rect x="0.5" y="1.08447" width="261.824" height="79.8897" rx="39.5" fill="#232325"/>
<rect x="0.5" y="1.08447" width="261.824" height="79.8897" rx="39.5" stroke="url(#paint0_linear_287_1562)"/>
<path opacity="0.2" d="M52.5829 54.6469C45.0622 62.6455 32.4813 63.0329 24.4827 55.5122C16.4841 47.9914 16.0967 35.4105 23.6175 27.4119C31.1382 19.4133 43.7191 19.026 51.7177 26.5467C59.7163 34.0675 60.1037 46.6484 52.5829 54.6469Z" fill="#F70000"/>
<path fill-rule="evenodd" clip-rule="evenodd" d="M53.4305 39.0619L35.8025 39.1975L36.7582 56.9693L30.6586 34.436L53.4305 39.0619ZM38.2822 43.9616L38.2927 43.9504L37.9905 41.1495L40.8895 41.1887L38.2927 43.9504L38.2953 43.9739L38.2822 43.9616ZM45.8657 41.0176L38.3558 49.0047L38.2319 45.8386L42.7625 41.0613L45.8461 40.9986L45.8657 41.0176Z" fill="#F70000"/>
<path d="M79.0004 29.3813C79.0004 32.6773 81.2084 35.1893 84.7924 35.1893C87.9444 35.1893 90.0244 33.4613 90.3604 30.6613H87.8004C87.5444 32.1493 86.3604 32.9493 84.8244 32.9493C82.8564 32.9493 81.5604 31.7173 81.5604 29.3813C81.5604 27.0613 82.8564 25.8293 84.8244 25.8293C86.3604 25.8293 87.5444 26.6133 87.8004 28.1013H90.3604C90.0244 25.3173 87.9444 23.5893 84.7924 23.5893C81.2084 23.5893 79.0004 26.1013 79.0004 29.3813ZM91.1529 30.8853C91.1529 33.1733 92.5769 35.1893 95.6809 35.1893C98.4809 35.1893 99.8089 33.3493 99.9689 32.1813H97.4089C97.2489 32.7893 96.5769 33.1093 95.6809 33.1093C94.2249 33.1093 93.5529 32.4533 93.5529 31.5253H99.6809V30.7253C99.6809 28.2773 97.9209 26.7893 95.4089 26.7893C92.8969 26.7893 91.1529 28.3253 91.1529 30.8853ZM93.5529 30.0853C93.5529 29.4773 93.9849 28.8693 95.4089 28.8693C96.8329 28.8693 97.2809 29.4773 97.2809 30.0853H93.5529ZM101.082 35.0293H103.642V29.0933L107.754 29.1893V26.9493L102.458 26.8213C101.578 26.8053 101.082 27.2853 101.082 28.1653V35.0293ZM108.403 30.8853C108.403 33.1733 109.827 35.1893 112.931 35.1893C115.731 35.1893 117.059 33.3493 117.219 32.1813H114.659C114.499 32.7893 113.827 33.1093 112.931 33.1093C111.475 33.1093 110.803 32.4533 110.803 31.5253H116.931V30.7253C116.931 28.2773 115.171 26.7893 112.659 26.7893C110.147 26.7893 108.403 28.3253 108.403 30.8853ZM110.803 30.0853C110.803 29.4773 111.235 28.8693 112.659 28.8693C114.083 28.8693 114.531 29.4773 114.531 30.0853H110.803ZM118.012 32.8213C118.012 33.6533 118.444 35.1893 120.956 35.1893C123.212 35.1893 123.996 34.0533 124.3 32.7093H124.94L124.54 33.6693V33.8293C124.54 34.5973 124.972 35.0293 125.74 35.0293H127.516V32.7893H126.348V30.5173C126.348 27.8613 124.396 26.7893 122.172 26.7893C119.916 26.7893 118.172 27.9893 118.172 30.0373H120.572C120.572 29.3013 121.148 28.8693 122.172 28.8693C123.276 28.8693 123.788 29.2693 123.788 29.9253L121.244 30.2773C118.844 30.6133 118.012 31.4293 118.012 32.8213ZM120.572 32.3413C120.572 31.8773 120.956 31.7653 121.724 31.6533L123.788 31.3653C123.788 32.3573 122.86 32.9493 121.452 32.9493C121.02 32.9493 120.572 32.8053 120.572 32.3413ZM128.149 35.0293H135.189V32.7893H132.949V24.5013C132.949 23.6053 132.453 23.1253 131.557 23.1573L128.469 23.2693V25.5093L130.389 25.4133V32.7893H128.149V35.0293ZM140.797 29.3813C140.797 32.6773 143.005 35.1893 146.589 35.1893C149.741 35.1893 151.821 33.4613 152.157 30.6613H149.597C149.341 32.1493 148.157 32.9493 146.621 32.9493C144.653 32.9493 143.357 31.7173 143.357 29.3813C143.357 27.0613 144.653 25.8293 146.621 25.8293C148.157 25.8293 149.341 26.6133 149.597 28.1013H152.157C151.821 25.3173 149.741 23.5893 146.589 23.5893C143.005 23.5893 140.797 26.1013 140.797 29.3813ZM152.477 35.0293H159.517V32.7893H157.277V24.5013C157.277 23.6053 156.781 23.1253 155.885 23.1573L152.797 23.2693V25.5093L154.717 25.4133V32.7893H152.477V35.0293ZM164.381 32.9493C163.149 32.9493 162.717 32.3893 162.717 30.9173V26.9493H160.157V31.3173C160.157 33.8133 161.405 35.1893 163.469 35.1893C165.197 35.1893 166.205 34.0533 166.525 32.6133H167.165L166.685 34.0533V35.0293H169.245V26.9493H166.685V29.9413C166.685 32.2133 165.773 32.9493 164.381 32.9493ZM170.692 35.0293H173.252V34.5333L172.772 33.0933H173.412C173.828 34.1653 174.596 35.1893 176.596 35.1893C178.932 35.1893 180.1 33.2693 180.1 30.9813C180.1 28.6933 178.932 26.7893 176.596 26.7893C174.596 26.7893 173.828 27.8133 173.412 28.8853H172.772L173.252 27.4453V23.2693H170.692V35.0293ZM173.252 30.9813C173.252 29.6213 174.02 29.0293 175.396 29.0293C176.772 29.0293 177.54 29.6213 177.54 30.9813C177.54 32.3413 176.772 32.9493 175.396 32.9493C174.02 32.9493 173.252 32.3413 173.252 30.9813Z" fill="#F3F3F3"/>
<path d="M85.5644 58.0293H86.9084L83.2404 48.9293H82.0084L78.3124 58.0293H79.6564L80.6084 55.5653H84.6124L85.5644 58.0293ZM81.0284 54.4733L82.6104 50.3853L84.1924 54.4733H81.0284ZM90.7441 50.8893C89.8761 50.8893 89.2041 51.4913 88.9101 52.4013L88.7841 51.0293H87.8601V58.0293H88.9801V54.2213C89.0081 53.0453 89.6801 52.1773 90.6321 52.1773C91.0801 52.1773 91.3881 52.2893 91.6121 52.4573L91.6401 51.1133C91.4721 50.9733 91.1361 50.8893 90.7441 50.8893ZM92.1386 52.1353H93.2866V56.3493C93.2866 57.4693 94.0426 58.1973 95.1066 58.1973C95.5546 58.1973 95.8346 58.1413 96.1146 58.0293L96.0866 56.9653C95.8626 57.0213 95.6946 57.0493 95.3586 57.0493C94.7986 57.0493 94.4066 56.7413 94.4066 56.1813V52.1213H95.9746V51.0293H94.4066V49.2093H93.3426V50.1613C93.3426 50.7213 93.0626 51.0713 92.5866 51.0713H92.1386V52.1353ZM105.61 58.0293L105.554 56.6293V53.3533C105.554 51.8973 104.434 50.8613 102.866 50.8613C101.326 50.8613 100.122 51.8693 99.9818 53.3533L101.214 53.5213C101.242 52.5133 101.914 51.8693 102.838 51.8693C103.762 51.8693 104.434 52.4853 104.434 53.3813V53.4933C104.434 53.7173 104.266 53.8573 103.986 53.8853L101.578 54.1653C100.514 54.2773 99.8138 55.0053 99.8138 56.0133C99.8138 57.3013 100.878 58.1413 102.222 58.1413C103.272 58.1413 104.084 57.6233 104.476 56.8253L104.574 58.0293H105.61ZM102.334 57.0213C101.55 57.0213 100.962 56.5733 100.962 55.9573C100.962 55.4533 101.298 55.1173 101.914 55.0333L103.958 54.8093C104.196 54.7813 104.392 54.7393 104.434 54.6973V55.1733C104.434 56.2373 103.566 57.0213 102.334 57.0213ZM110.704 50.8613C109.626 50.8613 108.674 51.3793 108.338 52.2333L108.24 51.0293H107.288V58.0293H108.408V54.2213C108.436 52.9333 109.304 51.9813 110.592 51.9813C111.6 51.9813 112.3 52.7653 112.3 53.8293V58.0293H113.42V53.7733C113.42 52.0933 112.272 50.8613 110.704 50.8613ZM121.757 58.0293L121.701 56.6293V48.5093H120.581V52.1073C120.035 51.3233 119.195 50.8613 118.173 50.8613C116.213 50.8613 114.757 52.4013 114.757 54.4733C114.757 56.6013 116.213 58.1413 118.229 58.1413C119.265 58.1413 120.133 57.6233 120.665 56.7833L120.805 58.0293H121.757ZM118.285 57.0493C116.913 57.0493 115.919 55.9573 115.919 54.5013C115.919 53.0173 116.885 51.9253 118.229 51.9253C119.601 51.9253 120.609 53.0173 120.609 54.5013C120.609 55.9573 119.629 57.0493 118.285 57.0493ZM126.402 58.0293H127.55V50.7493L130.518 58.0013H131.61L134.438 50.7493V58.0293H135.586V48.9293H133.906L131.078 56.4053L128.138 48.9293H126.402V58.0293ZM143.566 56.0693L142.362 55.6213C142.25 56.5173 141.466 57.1193 140.458 57.1193C139.282 57.1193 138.414 56.2233 138.33 54.9633H143.678C143.692 54.8093 143.692 54.6273 143.692 54.4733C143.692 52.3733 142.362 50.8613 140.458 50.8613C138.526 50.8613 137.098 52.4013 137.098 54.5293C137.098 56.6573 138.554 58.1973 140.514 58.1973C141.97 58.1973 143.286 57.3013 143.566 56.0693ZM138.316 53.8853C138.4 52.7373 139.324 51.9113 140.444 51.9113C141.564 51.9113 142.488 52.7373 142.544 53.8853H138.316ZM151.699 58.0293L151.643 56.6293V48.5093H150.523V52.1073C149.977 51.3233 149.137 50.8613 148.115 50.8613C146.155 50.8613 144.699 52.4013 144.699 54.4733C144.699 56.6013 146.155 58.1413 148.171 58.1413C149.207 58.1413 150.075 57.6233 150.607 56.7833L150.747 58.0293H151.699ZM148.227 57.0493C146.855 57.0493 145.861 55.9573 145.861 54.5013C145.861 53.0173 146.827 51.9253 148.171 51.9253C149.543 51.9253 150.551 53.0173 150.551 54.5013C150.551 55.9573 149.571 57.0493 148.227 57.0493ZM154.129 48.3413C153.639 48.3413 153.261 48.7473 153.261 49.2373C153.261 49.7273 153.639 50.1333 154.129 50.1333C154.619 50.1333 154.997 49.7273 154.997 49.2373C154.997 48.7473 154.619 48.3413 154.129 48.3413ZM153.569 58.0293H154.689V51.0293H153.569V58.0293ZM161.965 58.0293L161.909 56.6293V53.3533C161.909 51.8973 160.789 50.8613 159.221 50.8613C157.681 50.8613 156.477 51.8693 156.337 53.3533L157.569 53.5213C157.597 52.5133 158.269 51.8693 159.193 51.8693C160.117 51.8693 160.789 52.4853 160.789 53.3813V53.4933C160.789 53.7173 160.621 53.8573 160.341 53.8853L157.933 54.1653C156.869 54.2773 156.169 55.0053 156.169 56.0133C156.169 57.3013 157.233 58.1413 158.577 58.1413C159.627 58.1413 160.439 57.6233 160.831 56.8253L160.929 58.0293H161.965ZM158.689 57.0213C157.905 57.0213 157.317 56.5733 157.317 55.9573C157.317 55.4533 157.653 55.1173 158.269 55.0333L160.313 54.8093C160.551 54.7813 160.747 54.7393 160.789 54.6973V55.1733C160.789 56.2373 159.921 57.0213 158.689 57.0213Z" fill="#CBFB45"/>
<defs>
<linearGradient id="paint0_linear_287_1562" x1="215.468" y1="-19.638" x2="131.819" y2="124.722" gradientUnits="userSpaceOnUse">
<stop stop-color="#FCFFF2" stop-opacity="0.24"/>
<stop offset="0.875" stop-opacity="0"/>
<stop offset="1" stop-color="#E8EBDF" stop-opacity="0.24"/>
</linearGradient>
</defs>
</svg>
