<svg width="142" height="26" viewBox="0 0 142 26" fill="none" xmlns="http://www.w3.org/2000/svg">
<path d="M28.4924 7.65715C23.3702 7.65715 19.3679 11.5147 19.3679 16.6786C19.3679 21.8428 23.2691 25.6673 28.4924 25.6673C33.7157 25.6673 37.6847 21.7768 37.6847 16.6457C37.6847 11.5477 33.7836 7.65715 28.4924 7.65715ZM28.527 21.9455C25.6101 21.9455 23.4726 19.6982 23.4726 16.68C23.4726 13.6275 25.5755 11.3814 28.4924 11.3814C31.4439 11.3814 33.5801 13.6618 33.5801 16.68C33.5801 19.6982 31.4439 21.9455 28.527 21.9455ZM38.8034 11.582H41.3478V25.3333H45.4179V7.99235H38.8034V11.582ZM9.12481 11.3801C11.2623 11.3801 12.9582 12.6879 13.6019 14.6332H17.9101C17.1294 10.4748 13.6698 7.65715 9.15941 7.65715C4.03721 7.65715 0.0349121 11.5147 0.0349121 16.68C0.0349121 21.8453 3.93611 25.6684 9.15941 25.6684C13.5687 25.6684 17.0961 22.8509 17.8768 18.6582H13.6019C12.9914 20.6034 11.2955 21.9455 9.15811 21.9455C6.20661 21.9455 4.13831 19.6982 4.13831 16.68C4.13961 13.6275 6.17461 11.3801 9.12481 11.3801ZM116.138 15.0027L113.153 14.5671C111.729 14.3665 110.711 13.8967 110.711 12.7895C110.711 11.582 112.035 10.9788 113.832 10.9788C115.799 10.9788 117.055 11.8169 117.326 13.192H121.26C120.819 9.70396 118.105 7.65845 113.934 7.65845C109.626 7.65845 106.777 9.83855 106.777 12.924C106.777 15.8749 108.643 17.5866 112.407 18.1224L115.392 18.558C116.851 18.7586 117.665 19.33 117.665 20.4029C117.665 21.778 116.241 22.3482 114.273 22.3482C111.865 22.3482 110.508 21.3755 110.304 19.9001H106.302C106.676 23.2878 109.355 25.6684 114.239 25.6684C118.683 25.6684 121.633 23.656 121.633 20.201C121.633 17.1154 119.497 15.5055 116.138 15.0027ZM43.3829 0.848751C41.8905 0.848751 40.7706 1.92165 40.7706 3.39715C40.7706 4.87255 41.8892 5.94555 43.3829 5.94555C44.8753 5.94555 45.9952 4.87255 45.9952 3.39715C45.9952 1.92165 44.8753 0.848751 43.3829 0.848751ZM103.114 13.9296C103.114 10.1737 100.807 7.65845 95.9229 7.65845C91.3099 7.65845 88.7329 9.97315 88.2229 13.5285H92.2599C92.4639 12.1533 93.5489 11.0131 95.8549 11.0131C97.9249 11.0131 98.9429 11.9185 98.9429 13.0257C98.9429 14.4681 97.0759 14.8363 94.7699 15.0712C91.6499 15.4064 87.7829 16.4794 87.7829 20.5045C87.7829 23.6242 90.1239 25.6355 93.8549 25.6355C96.7719 25.6355 98.6029 24.428 99.5199 22.5158C99.6559 24.2261 100.944 25.3333 102.743 25.3333H105.117V21.7449H103.115V13.9296H103.114ZM99.1119 18.29C99.1119 20.6048 97.0759 22.3151 94.5999 22.3151C93.0729 22.3151 91.7839 21.6777 91.7839 20.3369C91.7839 18.6265 93.8539 18.1567 95.7529 17.9561C97.5849 17.7885 98.6019 17.386 99.1119 16.614V18.29ZM77.5049 7.65715C75.2319 7.65715 73.3329 8.59675 71.9759 10.1726V0.681152H67.9059V25.3333H71.9079V23.0528C73.2649 24.6958 75.1989 25.6684 77.5049 25.6684C82.3899 25.6684 86.0869 21.8453 86.0869 16.68C86.0869 11.5147 82.3219 7.65715 77.5049 7.65715ZM76.8949 21.9455C73.9779 21.9455 71.8409 19.6982 71.8409 16.68C71.8409 13.6618 74.0109 11.3814 76.9279 11.3814C79.8799 11.3814 81.9479 13.6288 81.9479 16.68C81.9479 19.6982 79.8119 21.9455 76.8949 21.9455ZM58.1709 7.65715C55.5249 7.65715 53.7949 8.73005 52.7779 10.2399V7.99235H48.7409V25.3321H52.8109V15.908C52.8109 13.258 54.5069 11.3801 57.0169 11.3801C59.3579 11.3801 60.8149 13.0231 60.8149 15.4052V25.3333H64.8849V15.1041C64.8869 10.7426 62.6149 7.65715 58.1709 7.65715ZM141.035 16.1099C141.035 11.1464 137.372 7.65845 132.453 7.65845C127.23 7.65845 123.397 11.549 123.397 16.68C123.397 22.0802 127.501 25.6684 132.521 25.6684C136.761 25.6684 140.085 23.1862 140.933 19.6652H136.692C136.082 21.2079 134.589 22.0802 132.588 22.0802C129.975 22.0802 128.008 20.4701 127.568 17.6525H141.034V16.1099H141.035ZM127.806 14.7678C128.451 12.3527 130.282 11.1795 132.385 11.1795C134.692 11.1795 136.455 12.4873 136.862 14.7678H127.806Z" fill="#898990"/>
</svg>
