<svg width="148" height="23" viewBox="0 0 148 23" fill="none" xmlns="http://www.w3.org/2000/svg">
	<path d="M9.38754 7.29928C9.38754 4.14326 7.85942 1.42276 6.69402 0.533822C6.69402 0.533822 6.60483 0.480128 6.61672 0.61138C6.50969 6.73847 3.41185 8.36719 1.70536 10.5925C-0.893022 13.8022 -0.405454 18.5094 2.78752 21.1105C3.48915 21.6833 4.29185 22.1248 5.15401 22.4052C7.24104 22.9898 4.66645 21.379 4.33942 17.9724C3.94104 13.832 9.38754 10.7118 9.38754 7.29928Z" fill="#898990" />
	<path d="M11.4289 9.40033C11.4111 9.37647 11.3814 9.3705 11.3576 9.38243C11.3516 9.3884 11.3457 9.39436 11.3397 9.40033C10.9473 10.8202 10.2814 12.1566 9.37762 13.32C5.79221 18.4328 7.84357 20.8968 8.99114 22.1854C9.65114 22.9551 8.99114 22.1854 10.6619 21.3979C12.6716 20.2704 14.0095 18.2359 14.2473 15.939C14.4316 13.4273 13.3792 10.9872 11.4289 9.40033Z" fill="#898990" />
	<path d="M73.5552 8.95138C74.4681 8.95138 75.2081 8.20882 75.2081 7.29283C75.2081 6.37684 74.4681 5.63428 73.5552 5.63428C72.6424 5.63428 71.9023 6.37684 71.9023 7.29283C71.9023 8.20882 72.6424 8.95138 73.5552 8.95138Z" fill="#898990" />
	<path d="M27.8912 5.65381V12.0613H21.5527V6.48905C21.5527 6.02967 21.1781 5.65381 20.7203 5.65381H18.5679V20.9685C18.5619 21.4279 18.9306 21.8038 19.3884 21.8097H21.5944V14.6565H27.9268V20.9745C27.9268 21.4339 28.3014 21.8097 28.7593 21.8097H30.8998V6.48905C30.8998 6.02967 30.5252 5.65381 30.0674 5.65381H27.8912ZM40.461 9.657V17.3352C40.4669 18.0332 40.1042 18.6835 39.5096 19.0475C38.4809 19.7156 37.1074 19.4173 36.4474 18.3852C36.2215 18.0332 36.0966 17.6216 36.0966 17.204V10.4922C36.0966 10.0329 35.722 9.657 35.2642 9.657H33.1236V17.4665C33.1355 19.9841 35.1631 22.0185 37.6723 22.0305H38.8853C41.3945 22.0185 43.4221 19.9841 43.4339 17.4665V10.4922C43.4339 10.0329 43.0593 9.657 42.6015 9.657H40.461Z" fill="#898990" />
	<path d="M72.9027 21.8065H75.0434V10.9304C75.0434 10.4711 74.6687 10.0952 74.2109 10.0952H72.0821V20.9593C72.0762 21.4247 72.4448 21.8005 72.9027 21.8065Z" fill="#898990" />
	<path d="M51.1055 9.64895C48.1206 9.51173 45.5936 11.8265 45.4568 14.8155C45.4568 14.8632 45.4509 14.9169 45.4509 14.9647V16.6471C45.4984 19.636 47.9601 22.0224 50.939 21.9687C50.9925 21.9687 51.052 21.9687 51.1055 21.9628C54.0844 22.106 56.6115 19.7971 56.7542 16.8141C56.7542 16.7604 56.7601 16.7008 56.7601 16.6471V14.9647C56.7066 11.9697 54.239 9.58929 51.2541 9.64298C51.2006 9.64298 51.1531 9.64895 51.1055 9.64895ZM53.7514 16.8917C53.7514 18.3772 52.5504 19.5764 51.0758 19.5764C49.6012 19.5764 48.4001 18.3712 48.4001 16.8917V14.7916C48.4001 13.3061 49.6012 12.1069 51.0758 12.1069C52.5504 12.1069 53.7514 13.3121 53.7514 14.7916V16.8917Z" fill="#898990" />
	<path d="M64.4207 9.64876C63.505 9.64876 62.5953 9.85757 61.7688 10.2633V6.50467C61.7688 6.04529 61.3942 5.66943 60.9363 5.66943H58.7661V16.6946C58.8136 19.6835 61.2753 22.07 64.2542 22.0163C64.3077 22.0163 64.3672 22.0163 64.4207 22.0103C67.3996 22.1535 69.9266 19.8446 70.0693 16.8616C70.0693 16.8079 70.0753 16.7483 70.0753 16.6946V15.0122C70.0456 12.0172 67.6018 9.61296 64.6109 9.64279C64.5455 9.64279 64.4861 9.64279 64.4207 9.64876ZM67.0726 16.8915C67.0726 18.377 65.8715 19.5762 64.3969 19.5762C62.9163 19.5762 61.7212 18.371 61.7212 16.8915V14.7914C61.7212 13.3059 62.9223 12.1067 64.3969 12.1067C65.8774 12.1067 67.0726 13.3118 67.0726 14.7914V16.8915Z" fill="#898990" />
	<path d="M122.098 9.49902C121.183 9.49902 120.273 9.70783 119.446 10.1135V6.35493C119.446 5.89555 119.072 5.51969 118.614 5.51969H116.473V16.5448C116.521 19.5338 118.983 21.9202 121.961 21.8665C122.015 21.8665 122.074 21.8665 122.128 21.8605C125.107 22.0037 127.634 19.6949 127.777 16.7119C127.777 16.6582 127.783 16.5985 127.783 16.5448V14.8624C127.753 11.8675 125.309 9.46322 122.324 9.49305C122.253 9.49305 122.175 9.49305 122.098 9.49902ZM124.75 16.7357C124.75 18.2213 123.549 19.4204 122.074 19.4204C120.594 19.4204 119.399 18.2153 119.399 16.7357V14.6357C119.399 13.1502 120.6 11.951 122.074 11.951C123.555 11.951 124.75 13.1561 124.75 14.6357V16.7357ZM94.2292 12.1181H88.4259V13.705C88.4259 14.1942 88.8243 14.5939 89.3119 14.5939H92.0708V15.996C92.1125 16.8312 91.8211 17.6485 91.2562 18.263C89.8589 19.5815 87.6946 19.6472 86.22 18.4122C85.4351 17.6426 85.2686 16.8014 85.2686 13.6871C85.2686 10.5729 85.4351 9.74959 86.22 8.97997C86.9632 8.34758 87.8968 7.99558 88.8719 7.97768C92.0411 7.97768 93.1054 9.10526 93.8963 10.1314H94.0033V7.88223C94.0033 7.5362 93.8487 7.20807 93.5811 6.99329C92.2552 5.93134 90.9292 5.53759 88.6519 5.53759C86.9097 5.48389 85.2211 6.10436 83.9248 7.27369C82.1589 8.84872 82.1589 10.6444 82.1589 13.5917V13.8243C82.1589 16.7775 82.1589 18.5673 83.9248 20.1423C86.6897 22.5168 90.7865 22.4691 93.4919 20.029C94.6217 18.9372 95.0795 16.8491 95.0795 14.7133V12.9414C95.0438 12.4939 94.6811 12.136 94.2292 12.1181ZM102.803 21.8069V19.9276C102.803 19.4801 102.441 19.1221 102.001 19.1221H100.508C99.2893 19.1221 99.3487 18.5076 99.3487 16.9267V6.2893C99.3487 5.84185 98.986 5.48389 98.546 5.48389H96.3579V17.2965C96.3579 20.1483 97.0893 21.8188 100.157 21.8188H102.809L102.803 21.8069ZM147.416 21.8784V19.9932C147.434 19.5457 147.095 19.1699 146.649 19.152C146.643 19.152 146.643 19.152 146.637 19.152H145.145C143.926 19.152 143.985 18.5375 143.985 16.9565V6.38476C143.985 5.93731 143.623 5.57935 143.183 5.57935H140.995V17.3741C140.995 20.2259 141.726 21.8963 144.794 21.8963H147.446L147.416 21.8784ZM109.534 9.48112C106.549 9.3439 104.022 11.6587 103.886 14.6476C103.886 14.6954 103.88 14.7491 103.88 14.7968V16.4911C103.927 19.4801 106.389 21.8665 109.368 21.8128C109.421 21.8128 109.481 21.8128 109.534 21.8069C112.513 21.95 115.04 19.6412 115.183 16.6582C115.183 16.6045 115.189 16.5448 115.189 16.4911V14.8087C115.141 11.8138 112.68 9.42742 109.695 9.47515C109.641 9.47515 109.588 9.47515 109.534 9.48112ZM112.186 16.7178C112.186 18.2034 110.985 19.4025 109.511 19.4025C108.03 19.4025 106.835 18.1974 106.835 16.7178V14.6059C106.835 13.1203 108.036 11.9212 109.511 11.9212C110.991 11.9212 112.186 13.1263 112.186 14.6059V16.7178ZM138.105 10.5669C136.981 9.79135 135.631 9.40953 134.27 9.49305C133.622 9.49305 132.967 9.54078 132.325 9.6243C131.784 9.69589 131.029 9.80328 130.506 9.91664C130.292 9.97033 130.25 10.1374 130.25 10.3343V11.9391C130.25 12.2254 130.25 12.4879 130.559 12.4104C131.124 12.2672 132.218 12.0286 132.51 11.9749C133.015 11.8973 133.52 11.8555 134.032 11.8615C134.692 11.8138 135.358 11.9689 135.929 12.303C136.38 12.6908 136.606 13.2874 136.529 13.878V13.9675H134.745C134.056 13.9675 133.366 14.0451 132.694 14.2062C132.07 14.3553 131.469 14.6118 130.928 14.9579C130.423 15.286 130 15.7215 129.691 16.2406C129.382 16.7775 129.227 17.392 129.233 18.0125C129.216 18.627 129.352 19.2355 129.62 19.7844C129.881 20.2736 130.268 20.6912 130.732 21.0014C131.273 21.3415 131.873 21.5742 132.498 21.6816C133.223 21.8247 133.96 21.8904 134.698 21.8844C135.28 21.8844 139.514 21.8248 139.514 19.8082V13.9735C139.609 12.6908 139.086 11.426 138.105 10.5669ZM136.493 16.2943V19.4025C136.262 19.4443 136.006 19.4801 135.732 19.5099C135.066 19.5756 134.4 19.5756 133.735 19.5099C133.473 19.4861 133.211 19.4145 132.973 19.2952C132.753 19.1818 132.563 19.0207 132.426 18.8179C132.266 18.5494 132.194 18.2392 132.212 17.9289C132.177 17.4099 132.42 16.9088 132.855 16.6284C133.497 16.2823 134.222 16.1272 134.947 16.1749H135.833L136.493 16.2943Z" fill="#898990" />
</svg>
