<svg width="166" height="30" viewBox="0 0 166 30" fill="none" xmlns="http://www.w3.org/2000/svg">
<g clip-path="url(#clip0_321_1626)">
<path d="M18.6271 22.8737L14.967 24.6719V11.1712L18.6271 9.373V22.8737ZM23.5958 20.4333L19.9358 22.2315V8.73079L23.5958 6.9326V20.4333ZM24.9045 19.7911V6.29039L28.5645 4.49219V17.9929L24.9045 19.7911Z" fill="white"/>
<path d="M13.687 21.0327V24.6648L0.0966797 17.9929V14.3609L13.687 21.0327ZM13.687 16.0948V19.7269L0.0966797 13.055V9.42295L13.687 16.0948ZM13.687 11.1641V14.7961L0.0966797 8.12426V4.49219L13.687 11.1641Z" fill="white"/>
<path d="M37.2085 0.212891V21.0628H47.8767C52.8807 21.0628 56.0777 18.8041 56.0777 15.2249C56.0777 12.5839 54.4444 10.4989 51.873 9.97765C54.0274 9.35215 55.4174 7.5799 55.4174 5.4949C55.4174 2.29791 52.29 0.247674 47.425 0.247674H37.2085V0.212891ZM43.3592 4.86939H47.1122C48.3285 4.86939 49.093 5.52963 49.093 6.60688C49.093 7.71888 48.3285 8.4139 47.1122 8.4139H43.3592V4.86939ZM43.3592 12.6186H47.1122C48.676 12.6186 49.6837 13.3136 49.6837 14.4604C49.6837 15.6766 48.7107 16.4411 47.1122 16.4411H43.3592V12.6186Z" fill="white"/>
<path d="M65.9814 0.212891H59.7959V21.0628H65.9814V0.212891Z" fill="white"/>
<path d="M85.7555 5.1474V0.212891H69.7358V5.1474H74.6356V21.0628H80.8558V5.1474H85.7555Z" fill="white"/>
<path d="M99.15 0.0390625C92.6865 0.0390625 87.9258 4.52181 87.9258 10.603C87.9258 16.7538 92.5823 21.3408 98.9415 21.3408C102.104 21.3408 105.509 19.777 107.768 17.3098L104.189 13.4873C102.764 14.9468 100.818 15.8851 99.2195 15.8851C96.4048 15.8851 94.2503 13.5568 94.2503 10.4988C94.2503 7.44083 96.4048 5.14732 99.2195 5.14732C100.957 5.14732 102.868 6.25932 104.189 7.92732L107.768 3.72259C105.648 1.46384 102.277 0.0390625 99.15 0.0390625Z" fill="white"/>
<path d="M120.66 0.0390625C114.127 0.0390625 109.297 4.48705 109.297 10.6378C109.297 16.7885 114.127 21.3408 120.66 21.3408C127.193 21.3408 132.023 16.7538 132.023 10.6378C132.023 4.5218 127.193 0.0390625 120.66 0.0390625ZM120.764 5.21681C123.51 5.21681 125.699 7.51033 125.699 10.6726C125.699 13.8348 123.51 16.163 120.764 16.163C118.019 16.163 115.656 13.8001 115.656 10.6726C115.656 7.54508 117.984 5.21681 120.764 5.21681Z" fill="white"/>
<path d="M141.719 0.212891H135.533V21.0628H141.719V0.212891Z" fill="white"/>
<path d="M165.224 21.0628V0.212891H159.559V11.8541L150.733 0.212891H145.451V21.0628H151.115V9.4564L159.942 21.0628H165.224Z" fill="white"/>
<path d="M43.1068 29.9162V24.7246H41.2827L40.1402 27.4306L38.9976 24.7246H37.1736V29.9162H38.6769V27.0698L39.5589 29.415H40.6814L41.5634 27.0698V29.9162H43.1068Z" fill="white"/>
<path d="M47.6768 29.194L47.9374 29.9357H49.7615L47.6568 24.7441H45.8929L43.708 29.9357H45.4719L45.7325 29.194H47.6768ZM47.2559 27.9513H46.1735L46.7147 26.4279L47.2559 27.9513Z" fill="white"/>
<path d="M53.5699 27.1897V28.3924C53.3094 28.4926 53.0688 28.5728 52.8884 28.5728C52.2069 28.5728 51.7258 28.0516 51.7258 27.33C51.7258 26.6284 52.2069 26.1073 52.8884 26.1073C53.3094 26.1073 53.8305 26.3278 54.1713 26.6485L55.1334 25.4658C54.5722 24.9848 53.6902 24.6641 52.8884 24.6641C51.1846 24.6641 49.9619 25.7866 49.9619 27.31C49.9619 28.8534 51.1445 29.9759 52.7682 29.9759C53.5098 29.9759 54.472 29.6953 55.0332 29.3144V27.1696H53.5699V27.1897Z" fill="white"/>
<path d="M59.5032 29.194L59.7638 29.9357H61.5879L59.4832 24.7441H57.7193L55.5344 29.9357H57.2983L57.5589 29.194H59.5032ZM59.0823 27.9513H57.9999L58.5411 26.4279L59.0823 27.9513Z" fill="white"/>
<path d="M66.6793 25.807V24.7246H62.049V26.0475H64.3741L61.9487 28.8538V29.9362H66.7193V28.6133H64.2539L66.6793 25.807Z" fill="white"/>
<path d="M69.2648 24.7246H67.541V29.9162H69.2648V24.7246Z" fill="white"/>
<path d="M75.3383 29.9162V24.7246H73.7949V27.3905L71.7503 24.7246H70.3071V29.9162H71.8706V27.2703L73.9152 29.9162H75.3383Z" fill="white"/>
<path d="M80.7706 26.0275V24.7246H76.3809V29.9162H80.8508V28.6133H78.1047V27.9718H80.5301V26.6689H78.1047V26.0275H80.7706Z" fill="white"/>
</g>
<defs>
<clipPath id="clip0_321_1626">
<rect width="165.413" height="30" fill="white"/>
</clipPath>
</defs>
</svg>
