<svg width="124" height="29" viewBox="0 0 124 29" fill="none" xmlns="http://www.w3.org/2000/svg">
<path d="M18.8099 9.35915V0.03125H0.115234V18.6871H9.46263V9.35915H18.8099Z" fill="#898990"/>
<path d="M18.8097 9.35938V18.6873H9.4624V28.0153H28.1571V9.35938H18.8097Z" fill="#898990"/>
<path d="M104.65 9.51562H100.548V24.0257H104.65H106.416V22.2638H104.65V9.51562Z" fill="#898990"/>
<path d="M102.572 8.42722C103.767 8.42722 104.753 7.44262 104.753 6.25072C104.753 5.05882 103.767 4.07422 102.572 4.07422C101.378 4.07422 100.391 5.05882 100.391 6.25072C100.391 7.44262 101.378 8.42722 102.572 8.42722Z" fill="#898990"/>
<path d="M121.683 22.2622V14.5925C121.683 12.9342 121.268 11.5869 120.385 10.6541C119.502 9.72133 118.308 9.20312 116.75 9.20312C116.23 9.20312 115.763 9.25493 115.348 9.41043C114.932 9.51403 114.569 9.72133 114.205 9.92863C113.842 10.1359 113.53 10.395 113.27 10.6541C113.011 10.9132 112.751 11.2241 112.491 11.535V9.46223H108.389V23.9723H112.491V15.9399C112.491 14.9553 112.699 14.2298 113.166 13.7116C113.634 13.1933 114.257 12.9861 115.036 12.9861C115.815 12.9861 116.438 13.2452 116.905 13.7116C117.321 14.2298 117.58 14.9553 117.58 15.9399V24.0241H121.683H123.449V22.2622H121.683Z" fill="#898990"/>
<path d="M68.9742 11.1218C68.2992 10.4481 67.4682 9.92992 66.4812 9.51532C65.5472 9.15262 64.5082 8.94531 63.3662 8.94531C62.2232 8.94531 61.1852 9.15262 60.2502 9.51532C59.3152 9.92992 58.4842 10.4481 57.7572 11.1218C57.0302 11.7955 56.5112 12.6246 56.0952 13.5056C55.6802 14.4384 55.5242 15.3712 55.5242 16.4076V16.4595C55.5242 17.4959 55.7322 18.4805 56.0952 19.4133C56.5112 20.3461 57.0302 21.1234 57.7572 21.7971C58.4322 22.4708 59.2632 22.989 60.2502 23.4036C61.1852 23.7663 62.2232 23.9736 63.3662 23.9736C64.5082 23.9736 65.5472 23.7663 66.4812 23.4036C67.4162 22.989 68.2472 22.4708 68.9742 21.7971C69.7012 21.1234 70.2202 20.2943 70.6362 19.4133C71.0512 18.4805 71.2072 17.5477 71.2072 16.4595V16.4076C71.2072 15.3712 70.9992 14.3866 70.6362 13.4538C70.2202 12.6246 69.6492 11.7955 68.9742 11.1218ZM67.1562 16.5631C67.1562 17.0813 67.0532 17.5995 66.8972 18.0659C66.7412 18.5323 66.4812 18.9469 66.1702 19.3097C65.8582 19.6724 65.4432 19.9315 64.9752 20.1388C64.5082 20.3461 63.9892 20.4497 63.4182 20.4497C62.8462 20.4497 62.3272 20.3461 61.8602 20.1388C61.3922 19.9315 60.9772 19.6206 60.6652 19.2578C60.3022 18.8951 60.0422 18.4805 59.8862 18.0141C59.7302 17.5477 59.6272 17.0295 59.6272 16.5113V16.4595C59.6272 15.9412 59.7302 15.423 59.8862 14.9566C60.0422 14.4902 60.3022 14.0756 60.6132 13.7129C60.9252 13.3501 61.3402 13.091 61.8082 12.8837C62.2752 12.6765 62.7942 12.5728 63.3662 12.5728C63.9372 12.5728 64.4562 12.6765 64.9232 12.8837C65.3912 13.091 65.8062 13.402 66.1182 13.7647C66.4812 14.1275 66.7412 14.542 66.8972 15.0084C67.0532 15.4748 67.1562 15.9931 67.1562 16.5113V16.5631Z" fill="#898990"/>
<path d="M86.5782 11.1218C85.9032 10.4481 85.0722 9.92992 84.0852 9.51532C83.1512 9.15262 82.1122 8.94531 80.9702 8.94531C79.8272 8.94531 78.7892 9.15262 77.8542 9.51532C76.9192 9.92992 76.0882 10.4481 75.3612 11.1218C74.6342 11.7955 74.1152 12.6246 73.6992 13.5056C73.2842 14.4384 73.1282 15.3712 73.1282 16.4076V16.4595C73.1282 17.4959 73.3362 18.4805 73.6992 19.4133C74.1152 20.3461 74.6342 21.1234 75.3612 21.7971C76.0362 22.4708 76.8672 22.989 77.8542 23.4036C78.7892 23.7663 79.8272 23.9736 80.9702 23.9736C82.1122 23.9736 83.1512 23.7663 84.0852 23.4036C85.0202 22.989 85.8512 22.4708 86.5782 21.7971C87.3052 21.1234 87.8242 20.2943 88.2402 19.4133C88.6552 18.4805 88.8112 17.5477 88.8112 16.4595V16.4076C88.8112 15.3712 88.6032 14.3866 88.2402 13.4538C87.8242 12.6246 87.3052 11.7955 86.5782 11.1218ZM84.7602 16.5631C84.7602 17.0813 84.6572 17.5995 84.5012 18.0659C84.3452 18.5323 84.0852 18.9469 83.7742 19.3097C83.4622 19.6724 83.0472 19.9315 82.5792 20.1388C82.1122 20.3461 81.5932 20.4497 81.0222 20.4497C80.4502 20.4497 79.9312 20.3461 79.4642 20.1388C78.9962 19.9315 78.5812 19.6206 78.2692 19.2578C77.9062 18.8951 77.6462 18.4805 77.4902 18.0141C77.3342 17.5477 77.2312 17.0295 77.2312 16.5113V16.4595C77.2312 15.9412 77.3342 15.423 77.4902 14.9566C77.6462 14.4902 77.9062 14.0756 78.2172 13.7129C78.5292 13.3501 78.9442 13.091 79.4122 12.8837C79.8792 12.6765 80.3982 12.5728 80.9702 12.5728C81.5412 12.5728 82.0602 12.6765 82.5272 12.8837C82.9952 13.091 83.4102 13.402 83.7222 13.7647C84.0852 14.1275 84.3452 14.542 84.5012 15.0084C84.6572 15.4748 84.7602 15.9931 84.7602 16.5113V16.5631Z" fill="#898990"/>
<path d="M51.6292 6.92307C51.0062 6.35307 50.2272 5.88668 49.3442 5.57578C48.4622 5.26478 47.4232 5.10938 46.2812 5.10938H38.5952V22.2624H36.8296V24.0243H38.5952H42.7492V18.3758H45.9172C46.9562 18.3758 47.9942 18.2203 48.9292 17.9612C49.8642 17.7021 50.6952 17.2875 51.3702 16.7175C52.0452 16.1474 52.6162 15.4737 53.0312 14.6446C53.4472 13.8154 53.6032 12.8308 53.6032 11.7426V11.6907C53.6032 10.7061 53.4472 9.82518 53.0832 9.04778C52.7202 8.21868 52.2532 7.49317 51.6292 6.92307ZM49.3442 11.7944C49.3442 12.6235 49.0332 13.2972 48.4622 13.8154C47.8902 14.3855 47.0602 14.6446 46.0212 14.6446H42.6972V8.89238H45.9172C46.9562 8.89238 47.7872 9.15147 48.4102 9.61787C49.0332 10.0843 49.2932 10.8098 49.2932 11.7426V11.7944H49.3442Z" fill="#898990"/>
<path d="M92.5502 22.2624H90.7842V24.0243H92.5502H96.6532V4.33203H92.5502V22.2624Z" fill="#898990"/>
</svg>
