<svg width="181" height="29" viewBox="0 0 181 29" fill="none" xmlns="http://www.w3.org/2000/svg" >
<g clip-path="url(#clip0_287_1571)">
<path d="M18.8102 9.47438V0.146484H0.115479V18.8023H9.46288V9.47438H18.8102Z" fill="#898990"/>
<path d="M18.81 9.47461V18.8025H9.46265V28.1305H28.1573V9.47461H18.81Z" fill="#898990"/>
<path d="M104.65 9.63086H100.548V24.141H104.65H106.416V22.3791H104.65V9.63086Z" fill="#898990"/>
<path d="M102.573 8.54245C103.768 8.54245 104.754 7.55785 104.754 6.36595C104.754 5.17405 103.768 4.18945 102.573 4.18945C101.379 4.18945 100.392 5.17405 100.392 6.36595C100.392 7.55785 101.379 8.54245 102.573 8.54245Z" fill="#898990"/>
<path d="M121.683 22.3775V14.7078C121.683 13.0495 121.268 11.7022 120.385 10.7694C119.502 9.83656 118.308 9.31836 116.75 9.31836C116.23 9.31836 115.763 9.37016 115.348 9.52566C114.932 9.62926 114.569 9.83656 114.205 10.0439C113.842 10.2512 113.53 10.5103 113.27 10.7694C113.011 11.0285 112.751 11.3394 112.491 11.6503V9.57746H108.389V24.0876H112.491V16.0552C112.491 15.0706 112.699 14.3451 113.166 13.8269C113.634 13.3086 114.257 13.1014 115.036 13.1014C115.815 13.1014 116.438 13.3605 116.905 13.8269C117.321 14.3451 117.58 15.0706 117.58 16.0552V24.1394H121.683H123.449V22.3775H121.683Z" fill="#898990"/>
<path d="M68.9744 11.237C68.2994 10.5633 67.4684 10.0452 66.4814 9.63055C65.5474 9.26785 64.5084 9.06055 63.3664 9.06055C62.2234 9.06055 61.1854 9.26785 60.2504 9.63055C59.3154 10.0452 58.4844 10.5633 57.7574 11.237C57.0304 11.9107 56.5114 12.7398 56.0954 13.6208C55.6804 14.5536 55.5244 15.4864 55.5244 16.5228V16.5747C55.5244 17.6111 55.7324 18.5957 56.0954 19.5285C56.5114 20.4613 57.0304 21.2386 57.7574 21.9123C58.4324 22.5861 59.2634 23.1042 60.2504 23.5188C61.1854 23.8815 62.2234 24.0888 63.3664 24.0888C64.5084 24.0888 65.5474 23.8815 66.4814 23.5188C67.4164 23.1042 68.2474 22.5861 68.9744 21.9123C69.7014 21.2386 70.2204 20.4095 70.6364 19.5285C71.0514 18.5957 71.2074 17.6629 71.2074 16.5747V16.5228C71.2074 15.4864 70.9994 14.5018 70.6364 13.569C70.2204 12.7398 69.6494 11.9107 68.9744 11.237ZM67.1564 16.6783C67.1564 17.1965 67.0534 17.7147 66.8974 18.1811C66.7414 18.6475 66.4814 19.0621 66.1704 19.4249C65.8584 19.7876 65.4434 20.0467 64.9754 20.254C64.5084 20.4613 63.9894 20.5649 63.4184 20.5649C62.8464 20.5649 62.3274 20.4613 61.8604 20.254C61.3924 20.0467 60.9774 19.7359 60.6654 19.3731C60.3024 19.0104 60.0424 18.5957 59.8864 18.1293C59.7304 17.6629 59.6274 17.1447 59.6274 16.6265V16.5747C59.6274 16.0564 59.7304 15.5382 59.8864 15.0718C60.0424 14.6054 60.3024 14.1909 60.6134 13.8282C60.9254 13.4654 61.3404 13.2062 61.8084 12.9989C62.2754 12.7917 62.7944 12.688 63.3664 12.688C63.9374 12.688 64.4564 12.7917 64.9234 12.9989C65.3914 13.2062 65.8064 13.5172 66.1184 13.8799C66.4814 14.2427 66.7414 14.6572 66.8974 15.1236C67.0534 15.59 67.1564 16.1083 67.1564 16.6265V16.6783Z" fill="#898990"/>
<path d="M86.5784 11.237C85.9034 10.5633 85.0724 10.0452 84.0854 9.63055C83.1514 9.26785 82.1124 9.06055 80.9704 9.06055C79.8274 9.06055 78.7894 9.26785 77.8544 9.63055C76.9194 10.0452 76.0884 10.5633 75.3614 11.237C74.6344 11.9107 74.1154 12.7398 73.6994 13.6208C73.2844 14.5536 73.1284 15.4864 73.1284 16.5228V16.5747C73.1284 17.6111 73.3364 18.5957 73.6994 19.5285C74.1154 20.4613 74.6344 21.2386 75.3614 21.9123C76.0364 22.5861 76.8674 23.1042 77.8544 23.5188C78.7894 23.8815 79.8274 24.0888 80.9704 24.0888C82.1124 24.0888 83.1514 23.8815 84.0854 23.5188C85.0204 23.1042 85.8514 22.5861 86.5784 21.9123C87.3054 21.2386 87.8244 20.4095 88.2404 19.5285C88.6554 18.5957 88.8114 17.6629 88.8114 16.5747V16.5228C88.8114 15.4864 88.6034 14.5018 88.2404 13.569C87.8244 12.7398 87.3054 11.9107 86.5784 11.237ZM84.7604 16.6783C84.7604 17.1965 84.6574 17.7147 84.5014 18.1811C84.3454 18.6475 84.0854 19.0621 83.7744 19.4249C83.4624 19.7876 83.0474 20.0467 82.5794 20.254C82.1124 20.4613 81.5934 20.5649 81.0224 20.5649C80.4504 20.5649 79.9314 20.4613 79.4644 20.254C78.9964 20.0467 78.5814 19.7359 78.2694 19.3731C77.9064 19.0104 77.6464 18.5957 77.4904 18.1293C77.3344 17.6629 77.2314 17.1447 77.2314 16.6265V16.5747C77.2314 16.0564 77.3344 15.5382 77.4904 15.0718C77.6464 14.6054 77.9064 14.1909 78.2174 13.8282C78.5294 13.4654 78.9444 13.2062 79.4124 12.9989C79.8794 12.7917 80.3984 12.688 80.9704 12.688C81.5414 12.688 82.0604 12.7917 82.5274 12.9989C82.9954 13.2062 83.4104 13.5172 83.7224 13.8799C84.0854 14.2427 84.3454 14.6572 84.5014 15.1236C84.6574 15.59 84.7604 16.1083 84.7604 16.6265V16.6783Z" fill="#898990"/>
<path d="M51.6294 7.03831C51.0064 6.46831 50.2274 6.00191 49.3444 5.69101C48.4624 5.38001 47.4234 5.22461 46.2814 5.22461H38.5954V22.3776H36.8298V24.1395H38.5954H42.7494V18.491H45.9174C46.9564 18.491 47.9944 18.3355 48.9294 18.0764C49.8644 17.8173 50.6954 17.4027 51.3704 16.8327C52.0454 16.2626 52.6164 15.5889 53.0314 14.7598C53.4474 13.9306 53.6034 12.946 53.6034 11.8578V11.8059C53.6034 10.8213 53.4474 9.94041 53.0834 9.16301C52.7204 8.33391 52.2534 7.60841 51.6294 7.03831ZM49.3444 11.9096C49.3444 12.7387 49.0334 13.4124 48.4624 13.9306C47.8904 14.5007 47.0604 14.7598 46.0214 14.7598H42.6974V9.00761H45.9174C46.9564 9.00761 47.7874 9.26671 48.4104 9.73311C49.0334 10.1995 49.2934 10.925 49.2934 11.8578V11.9096H49.3444Z" fill="#898990"/>
<path d="M92.5504 22.3777H90.7844V24.1396H92.5504H96.6534V4.44727H92.5504V22.3777Z" fill="#898990"/>
</g>
<defs>
<clipPath id="clip0_287_1571">
<rect width="180" height="28" fill="white" transform="translate(0.115479 0.138672)"/>
</clipPath>
</defs>
</svg>
