<svg width="109" height="33" viewBox="0 0 109 33" fill="none" xmlns="http://www.w3.org/2000/svg">
<path d="M4.68048 12.8873C4.68048 13.4733 5.00648 13.9353 5.64848 14.2763C6.29248 14.6163 7.07848 14.9103 8.00548 15.1563C8.93148 15.4003 9.86248 15.6913 10.8015 16.0183C11.7415 16.3463 12.5315 16.9083 13.1775 17.6903C13.8205 18.4763 14.1445 19.4663 14.1445 20.6603C14.1445 22.3493 13.4915 23.6723 12.1925 24.6343C10.8895 25.5963 9.25748 26.0773 7.28648 26.0773C5.55148 26.0773 4.06348 25.7143 2.82248 24.9873C1.58148 24.2633 0.675479 23.2523 0.115479 21.9623L3.38148 20.0603C3.99048 21.7493 5.29248 22.5913 7.28648 22.5913C9.27948 22.5913 10.2765 21.9363 10.2765 20.6243C10.2765 20.0603 9.95048 19.6053 9.30748 19.2523C8.66448 18.8983 7.87748 18.6023 6.95148 18.3573C6.00837 18.1058 5.07534 17.8179 4.15448 17.4943C3.22861 17.1764 2.40731 16.6113 1.77948 15.8603C1.13548 15.0933 0.811478 14.1293 0.811478 12.9533C0.811478 11.3363 1.42548 10.0333 2.66148 9.04827C3.89148 8.06427 5.41848 7.57227 7.24848 7.57227C8.70348 7.57227 9.99648 7.89727 11.1365 8.53927C12.2517 9.1625 13.1612 10.0973 13.7535 11.2293L10.5535 13.0243C9.94348 11.6883 8.84348 11.0183 7.24748 11.0183C6.52048 11.0183 5.91048 11.1773 5.42048 11.4913C4.93048 11.8113 4.68048 12.2773 4.68048 12.8883V12.8873Z" fill="#8C8C8C"/>
<path d="M37.1985 8.03125H41.2075L35.6855 25.6152H31.9565L28.2975 13.7632L24.6065 25.6152H20.8775L15.3555 8.03125H19.3655L22.7755 20.1623L26.4675 8.03225H30.0905L33.7505 20.1623L37.1985 8.03225V8.03125Z" fill="#8C8C8C"/>
<path d="M74.0126 7.57327C76.4256 7.57327 78.4905 8.47127 80.1995 10.2633C81.9085 12.0573 82.7655 14.2423 82.7655 16.8213C82.7655 19.4233 81.9085 21.6133 80.1995 23.3973C78.4885 25.1813 76.4216 26.0683 74.0126 26.0683C71.3426 26.0683 69.2885 25.0833 67.8585 23.1123V32.6423H64.0605V8.03227H67.8585V10.5623C69.2925 8.57227 71.3416 7.57227 74.0126 7.57227V7.57327ZM69.4426 20.8513C70.4996 21.9183 71.8246 22.4503 73.4156 22.4503C75.0086 22.4503 76.3355 21.9183 77.3895 20.8513C78.4475 19.7843 78.9715 18.4413 78.9715 16.8233C78.9715 15.2063 78.4455 13.8663 77.3895 12.7953C76.3355 11.7283 75.0106 11.1963 73.4156 11.1963C71.8216 11.1963 70.4955 11.7283 69.4415 12.7953C68.3885 13.8623 67.8605 15.2053 67.8605 16.8233C67.8605 18.4403 68.3885 19.7843 69.4415 20.8513H69.4426Z" fill="#8C8C8C"/>
<path d="M89.6795 25.2618C89.4385 25.5111 89.1489 25.7083 88.8286 25.8412C88.5083 25.9742 88.1642 26.0401 87.8175 26.0348C87.4708 26.0398 87.1267 25.9739 86.8065 25.8409C86.4863 25.708 86.1967 25.5109 85.9555 25.2618C85.7053 25.0212 85.5072 24.7318 85.3735 24.4115C85.2398 24.0912 85.1735 23.7468 85.1785 23.3998C85.1785 22.6728 85.4285 22.0518 85.9325 21.5368C86.4385 21.0188 87.0665 20.7598 87.8135 20.7598C88.5405 20.7598 89.1615 21.0188 89.6765 21.5368C90.1925 22.0538 90.4495 22.6728 90.4495 23.3998C90.4555 23.7463 90.3903 24.0904 90.2578 24.4107C90.1254 24.731 89.9285 25.0207 89.6795 25.2618Z" fill="#8C8C8C"/>
<path d="M108.113 8.03002V25.614H104.311V11.688H98.4753V25.618H94.6773V11.688H92.0073V8.03002H94.6773V7.67602C94.6793 2.92002 97.3243 0.541016 102.627 0.541016C103.868 0.541016 105.167 0.694016 106.531 0.996016V4.47802C105.239 4.28748 103.934 4.19389 102.627 4.19802C101.219 4.19802 100.175 4.45602 99.4973 4.97002C98.8163 5.48702 98.4793 6.39102 98.4793 7.67702V8.03102H108.115V8.02902H108.113V8.03002Z" fill="#8C8C8C"/>
<path fill-rule="evenodd" clip-rule="evenodd" d="M61.0615 18.8857C61.2955 18.0687 61.4215 17.2057 61.4215 16.3137C61.4215 11.1767 57.2585 7.01367 52.1215 7.01367C50.4559 7.01312 48.8207 7.46008 47.387 8.30783C45.9533 9.15557 44.7737 10.373 43.9715 11.8327L46.8915 14.2977C47.2737 13.3072 47.9291 12.4456 48.7817 11.8131C49.6343 11.1805 50.649 10.803 51.7077 10.7245C52.7664 10.6459 53.8256 10.8695 54.7622 11.3693C55.6989 11.8691 56.4743 12.6245 56.9985 13.5477L55.2365 13.9937L57.8235 16.1467L61.0615 18.8857ZM60.1075 21.0827C58.9659 22.9992 57.1734 24.4415 55.057 25.1465C52.9405 25.8514 50.6411 25.7721 48.5783 24.9228C46.5155 24.0736 44.8268 22.5111 43.8201 20.5204C42.8134 18.5297 42.5559 16.2434 43.0945 14.0787L45.8495 16.4047L48.5955 18.6907L47.2235 19.0387C47.7279 19.944 48.4733 20.6918 49.3769 21.1992C50.2806 21.7065 51.3072 21.9535 52.3427 21.9128C53.3783 21.8721 54.3823 21.5453 55.2433 20.9685C56.1043 20.3918 56.7887 19.5878 57.2205 18.6457L60.1075 21.0827Z" fill="#8C8C8C"/>
<path fill-rule="evenodd" clip-rule="evenodd" d="M61.0614 18.8857C61.2954 18.0687 61.4214 17.2057 61.4214 16.3137C61.4214 11.1767 57.2584 7.01367 52.1214 7.01367C50.4558 7.01312 48.8207 7.46008 47.3869 8.30783C45.9532 9.15557 44.7736 10.373 43.9714 11.8327L46.8914 14.2977C47.2736 13.3072 47.9291 12.4456 48.7817 11.8131C49.6343 11.1805 50.6489 10.803 51.7076 10.7245C52.7663 10.6459 53.8256 10.8695 54.7622 11.3693C55.6988 11.8691 56.4743 12.6245 56.9984 13.5477L55.2364 13.9937L57.8234 16.1467L61.0614 18.8857Z" fill="#B9B9B9"/>
</svg>
